<svg width="336" height="170" viewBox="0 0 336 170" fill="none" xmlns="http://www.w3.org/2000/svg">
<g filter="url(#filter0_ddii_80_2384)">
<path d="M20.8657 31.1983C20.8657 18.7566 30.9517 8.67065 43.3933 8.67065H293.143C305.585 8.67065 315.671 18.7566 315.671 31.1983V115.106C315.671 127.548 305.585 137.634 293.143 137.634H43.3934C30.9517 137.634 20.8657 127.548 20.8657 115.106V31.1983Z" fill="#F9FBFB" shape-rendering="crispEdges"/>
<path d="M54.451 39.4572V45.0547M51.6522 42.256H57.2498M49.7864 50.6523H59.1157C61.1766 50.6523 62.8474 48.9816 62.8474 46.9206V37.5913C62.8474 35.5304 61.1766 33.8596 59.1157 33.8596H49.7864C47.7254 33.8596 46.0547 35.5304 46.0547 37.5913V46.9206C46.0547 48.9816 47.7254 50.6523 49.7864 50.6523Z" stroke="#0F1415" stroke-width="0.932927" stroke-linecap="round" stroke-linejoin="round"/>
<path d="M45.3519 81.7582C45.1172 81.7582 44.9359 81.6942 44.8079 81.5662C44.6799 81.4276 44.6159 81.2356 44.6159 80.9902V71.0222C44.6159 70.7662 44.6799 70.5742 44.8079 70.4462C44.9359 70.3182 45.1172 70.2542 45.3519 70.2542C45.5972 70.2542 45.7839 70.3182 45.9119 70.4462C46.0399 70.5742 46.1039 70.7662 46.1039 71.0222V80.9902C46.1039 81.2356 46.0399 81.4276 45.9119 81.5662C45.7945 81.6942 45.6079 81.7582 45.3519 81.7582ZM49.3314 84.6382C49.1074 84.6382 48.9314 84.5742 48.8034 84.4462C48.6754 84.3182 48.6114 84.1369 48.6114 83.9022V74.4782C48.6114 74.2329 48.6754 74.0516 48.8034 73.9342C48.9314 73.8062 49.1074 73.7422 49.3314 73.7422C49.566 73.7422 49.742 73.8062 49.8594 73.9342C49.9874 74.0516 50.0514 74.2329 50.0514 74.4782V75.9342L49.8754 75.6462C50.046 75.0596 50.382 74.5902 50.8834 74.2382C51.3847 73.8862 51.9874 73.7102 52.6914 73.7102C53.3847 73.7102 53.9874 73.8756 54.4994 74.2062C55.0114 74.5262 55.4114 74.9902 55.6994 75.5982C55.9874 76.1956 56.1314 76.9102 56.1314 77.7422C56.1314 78.5636 55.9874 79.2836 55.6994 79.9022C55.422 80.5102 55.022 80.9796 54.4994 81.3102C53.9874 81.6302 53.3847 81.7902 52.6914 81.7902C51.998 81.7902 51.4007 81.6142 50.8994 81.2622C50.398 80.9102 50.062 80.4462 49.8914 79.8702H50.0674V83.9022C50.0674 84.1369 50.0034 84.3182 49.8754 84.4462C49.7474 84.5742 49.566 84.6382 49.3314 84.6382ZM52.3554 80.6382C52.814 80.6382 53.214 80.5262 53.5554 80.3022C53.9074 80.0782 54.1794 79.7529 54.3714 79.3262C54.5634 78.8996 54.6594 78.3716 54.6594 77.7422C54.6594 76.8036 54.4514 76.0889 54.0354 75.5982C53.6194 75.1076 53.0594 74.8622 52.3554 74.8622C51.886 74.8622 51.4754 74.9742 51.1234 75.1982C50.782 75.4116 50.5154 75.7316 50.3234 76.1582C50.142 76.5849 50.0514 77.1129 50.0514 77.7422C50.0514 78.6809 50.2594 79.4009 50.6754 79.9022C51.0914 80.3929 51.6514 80.6382 52.3554 80.6382ZM60.69 81.7902C60.21 81.7902 59.7246 81.7369 59.234 81.6302C58.754 81.5129 58.3006 81.3156 57.874 81.0382C57.7566 80.9636 57.6713 80.8729 57.618 80.7662C57.5753 80.6489 57.5593 80.5369 57.57 80.4302C57.5913 80.3129 57.6393 80.2116 57.714 80.1262C57.7886 80.0409 57.8793 79.9929 57.986 79.9822C58.1033 79.9609 58.226 79.9876 58.354 80.0622C58.77 80.2969 59.17 80.4622 59.554 80.5582C59.9486 80.6542 60.338 80.7022 60.722 80.7022C61.3086 80.7022 61.7513 80.5956 62.05 80.3822C62.3486 80.1689 62.498 79.8862 62.498 79.5342C62.498 79.2356 62.3966 79.0062 62.194 78.8462C62.002 78.6756 61.698 78.5476 61.282 78.4622L59.794 78.1582C59.1326 78.0089 58.6313 77.7636 58.29 77.4222C57.9593 77.0702 57.794 76.6222 57.794 76.0782C57.794 75.5982 57.922 75.1822 58.178 74.8302C58.4446 74.4676 58.8126 74.1902 59.282 73.9982C59.7513 73.8062 60.29 73.7102 60.898 73.7102C61.3673 73.7102 61.81 73.7742 62.226 73.9022C62.6526 74.0196 63.0366 74.2009 63.378 74.4462C63.506 74.5209 63.586 74.6169 63.618 74.7342C63.6606 74.8409 63.666 74.9529 63.634 75.0702C63.6126 75.1769 63.5646 75.2676 63.49 75.3422C63.4153 75.4169 63.3193 75.4649 63.202 75.4862C63.0846 75.4969 62.9566 75.4649 62.818 75.3902C62.5086 75.1769 62.1886 75.0276 61.858 74.9422C61.538 74.8462 61.218 74.7982 60.898 74.7982C60.322 74.7982 59.8846 74.9102 59.586 75.1342C59.298 75.3582 59.154 75.6516 59.154 76.0142C59.154 76.2916 59.2393 76.5209 59.41 76.7022C59.5913 76.8836 59.874 77.0169 60.258 77.1022L61.746 77.4062C62.4393 77.5556 62.962 77.7956 63.314 78.1262C63.666 78.4462 63.842 78.8836 63.842 79.4382C63.842 80.1636 63.554 80.7396 62.978 81.1662C62.4126 81.5822 61.65 81.7902 60.69 81.7902ZM68.5204 81.7902C67.891 81.7902 67.363 81.6729 66.9364 81.4382C66.5204 81.2036 66.211 80.8569 66.0084 80.3982C65.8057 79.9396 65.7044 79.3636 65.7044 78.6702V74.4782C65.7044 74.2329 65.763 74.0516 65.8804 73.9342C66.0084 73.8062 66.1897 73.7422 66.4244 73.7422C66.659 73.7422 66.8404 73.8062 66.9684 73.9342C67.0964 74.0516 67.1604 74.2329 67.1604 74.4782V78.6702C67.1604 79.3316 67.2937 79.8222 67.5604 80.1422C67.827 80.4516 68.2484 80.6062 68.8244 80.6062C69.4644 80.6062 69.9817 80.3929 70.3764 79.9662C70.7817 79.5396 70.9844 78.9742 70.9844 78.2702V74.4782C70.9844 74.2329 71.043 74.0516 71.1604 73.9342C71.2884 73.8062 71.4697 73.7422 71.7044 73.7422C71.939 73.7422 72.1204 73.8062 72.2484 73.9342C72.3764 74.0516 72.4404 74.2329 72.4404 74.4782V81.0062C72.4404 81.5076 72.2057 81.7582 71.7364 81.7582C71.5017 81.7582 71.3204 81.6942 71.1924 81.5662C71.075 81.4382 71.0164 81.2516 71.0164 81.0062V79.6142L71.2244 79.8862C71.011 80.5049 70.6644 80.9796 70.1844 81.3102C69.715 81.6302 69.1604 81.7902 68.5204 81.7902ZM75.5352 81.7582C75.3112 81.7582 75.1352 81.6942 75.0072 81.5662C74.8792 81.4382 74.8152 81.2516 74.8152 81.0062V74.4782C74.8152 74.2329 74.8792 74.0516 75.0072 73.9342C75.1352 73.8062 75.3112 73.7422 75.5352 73.7422C75.7592 73.7422 75.9299 73.8062 76.0472 73.9342C76.1752 74.0516 76.2392 74.2329 76.2392 74.4782V75.8382L76.0632 75.5502C76.2659 74.9636 76.5912 74.5102 77.0392 74.1902C77.4979 73.8702 78.0419 73.7102 78.6712 73.7102C79.3326 73.7102 79.8659 73.8702 80.2712 74.1902C80.6766 74.4996 80.9486 74.9742 81.0872 75.6142H80.8632C81.0552 75.0276 81.3966 74.5636 81.8872 74.2222C82.3886 73.8809 82.9699 73.7102 83.6312 73.7102C84.2179 73.7102 84.6979 73.8276 85.0712 74.0622C85.4552 74.2862 85.7432 74.6276 85.9352 75.0862C86.1272 75.5342 86.2232 76.1102 86.2232 76.8142V81.0062C86.2232 81.2516 86.1592 81.4382 86.0312 81.5662C85.9032 81.6942 85.7272 81.7582 85.5032 81.7582C85.2686 81.7582 85.0872 81.6942 84.9592 81.5662C84.8312 81.4382 84.7672 81.2516 84.7672 81.0062V76.8782C84.7672 76.1956 84.6499 75.6942 84.4152 75.3742C84.1806 75.0542 83.7859 74.8942 83.2312 74.8942C82.6232 74.8942 82.1379 75.1076 81.7752 75.5342C81.4232 75.9502 81.2472 76.5262 81.2472 77.2622V81.0062C81.2472 81.2516 81.1832 81.4382 81.0552 81.5662C80.9379 81.6942 80.7619 81.7582 80.5272 81.7582C80.2926 81.7582 80.1112 81.6942 79.9832 81.5662C79.8552 81.4382 79.7912 81.2516 79.7912 81.0062V76.8782C79.7912 76.1956 79.6739 75.6942 79.4392 75.3742C79.2046 75.0542 78.8099 74.8942 78.2552 74.8942C77.6472 74.8942 77.1619 75.1076 76.7992 75.5342C76.4472 75.9502 76.2712 76.5262 76.2712 77.2622V81.0062C76.2712 81.5076 76.0259 81.7582 75.5352 81.7582ZM95.7124 81.7902C95.0297 81.7902 94.427 81.6302 93.9044 81.3102C93.3924 80.9796 92.9924 80.5102 92.7044 79.9022C92.4164 79.2836 92.2724 78.5636 92.2724 77.7422C92.2724 76.9102 92.411 76.1956 92.6884 75.5982C92.9764 74.9902 93.3764 74.5262 93.8884 74.2062C94.411 73.8756 95.019 73.7102 95.7124 73.7102C96.4057 73.7102 97.003 73.8862 97.5044 74.2382C98.0057 74.5796 98.3417 75.0382 98.5124 75.6142H98.3364V70.9902C98.3364 70.7449 98.395 70.5636 98.5124 70.4462C98.6404 70.3182 98.8217 70.2542 99.0564 70.2542C99.291 70.2542 99.4724 70.3182 99.6004 70.4462C99.7284 70.5636 99.7924 70.7449 99.7924 70.9902V81.0062C99.7924 81.2516 99.7284 81.4382 99.6004 81.5662C99.4724 81.6942 99.291 81.7582 99.0564 81.7582C98.8324 81.7582 98.6564 81.6942 98.5284 81.5662C98.4004 81.4382 98.3364 81.2516 98.3364 81.0062V79.5502L98.5124 79.8382C98.3524 80.4356 98.0164 80.9102 97.5044 81.2622C97.003 81.6142 96.4057 81.7902 95.7124 81.7902ZM96.0484 80.6382C96.5177 80.6382 96.923 80.5262 97.2644 80.3022C97.6164 80.0782 97.883 79.7529 98.0644 79.3262C98.2564 78.8996 98.3524 78.3716 98.3524 77.7422C98.3524 76.8036 98.1444 76.0889 97.7284 75.5982C97.3124 75.1076 96.7524 74.8622 96.0484 74.8622C95.5897 74.8622 95.1844 74.9742 94.8324 75.1982C94.491 75.4116 94.2244 75.7316 94.0324 76.1582C93.8404 76.5849 93.7444 77.1129 93.7444 77.7422C93.7444 78.6809 93.9524 79.4009 94.3684 79.9022C94.795 80.3929 95.355 80.6382 96.0484 80.6382ZM105.439 81.7902C104.671 81.7902 104.004 81.6249 103.439 81.2942C102.874 80.9636 102.436 80.4942 102.127 79.8862C101.818 79.2782 101.663 78.5636 101.663 77.7422C101.663 77.1236 101.748 76.5689 101.919 76.0782C102.1 75.5769 102.356 75.1502 102.687 74.7982C103.018 74.4462 103.412 74.1796 103.871 73.9982C104.34 73.8062 104.863 73.7102 105.439 73.7102C106.207 73.7102 106.874 73.8756 107.439 74.2062C108.004 74.5369 108.442 75.0062 108.751 75.6142C109.06 76.2116 109.215 76.9209 109.215 77.7422C109.215 78.3609 109.124 78.9209 108.943 79.4222C108.772 79.9236 108.522 80.3502 108.191 80.7022C107.86 81.0542 107.46 81.3262 106.991 81.5182C106.532 81.6996 106.015 81.7902 105.439 81.7902ZM105.439 80.6382C105.908 80.6382 106.314 80.5262 106.655 80.3022C107.007 80.0782 107.274 79.7529 107.455 79.3262C107.647 78.8996 107.743 78.3716 107.743 77.7422C107.743 76.8036 107.535 76.0889 107.119 75.5982C106.703 75.1076 106.143 74.8622 105.439 74.8622C104.98 74.8622 104.575 74.9742 104.223 75.1982C103.882 75.4116 103.615 75.7316 103.423 76.1582C103.231 76.5849 103.135 77.1129 103.135 77.7422C103.135 78.6809 103.343 79.4009 103.759 79.9022C104.186 80.3929 104.746 80.6382 105.439 80.6382ZM113.528 81.7902C112.728 81.7902 112.12 81.5556 111.704 81.0862C111.288 80.6062 111.08 79.9182 111.08 79.0222V70.9902C111.08 70.7449 111.144 70.5636 111.272 70.4462C111.4 70.3182 111.576 70.2542 111.8 70.2542C112.035 70.2542 112.216 70.3182 112.344 70.4462C112.472 70.5636 112.536 70.7449 112.536 70.9902V78.9102C112.536 79.4649 112.648 79.8809 112.872 80.1582C113.107 80.4249 113.437 80.5582 113.864 80.5582C113.96 80.5582 114.045 80.5582 114.12 80.5582C114.195 80.5476 114.269 80.5369 114.344 80.5262C114.461 80.5156 114.547 80.5476 114.6 80.6222C114.653 80.6969 114.68 80.8462 114.68 81.0702C114.68 81.2729 114.632 81.4329 114.536 81.5502C114.451 81.6569 114.307 81.7262 114.104 81.7582C114.008 81.7689 113.912 81.7742 113.816 81.7742C113.72 81.7849 113.624 81.7902 113.528 81.7902ZM119.126 81.7902C118.358 81.7902 117.692 81.6249 117.126 81.2942C116.561 80.9636 116.124 80.4942 115.814 79.8862C115.505 79.2782 115.35 78.5636 115.35 77.7422C115.35 77.1236 115.436 76.5689 115.606 76.0782C115.788 75.5769 116.044 75.1502 116.374 74.7982C116.705 74.4462 117.1 74.1796 117.558 73.9982C118.028 73.8062 118.55 73.7102 119.126 73.7102C119.894 73.7102 120.561 73.8756 121.126 74.2062C121.692 74.5369 122.129 75.0062 122.438 75.6142C122.748 76.2116 122.902 76.9209 122.902 77.7422C122.902 78.3609 122.812 78.9209 122.63 79.4222C122.46 79.9236 122.209 80.3502 121.878 80.7022C121.548 81.0542 121.148 81.3262 120.678 81.5182C120.22 81.6996 119.702 81.7902 119.126 81.7902ZM119.126 80.6382C119.596 80.6382 120.001 80.5262 120.342 80.3022C120.694 80.0782 120.961 79.7529 121.142 79.3262C121.334 78.8996 121.43 78.3716 121.43 77.7422C121.43 76.8036 121.222 76.0889 120.806 75.5982C120.39 75.1076 119.83 74.8622 119.126 74.8622C118.668 74.8622 118.262 74.9742 117.91 75.1982C117.569 75.4116 117.302 75.7316 117.11 76.1582C116.918 76.5849 116.822 77.1129 116.822 77.7422C116.822 78.6809 117.03 79.4009 117.446 79.9022C117.873 80.3929 118.433 80.6382 119.126 80.6382ZM125.52 81.7582C125.274 81.7582 125.088 81.6942 124.96 81.5662C124.832 81.4382 124.768 81.2516 124.768 81.0062V74.4782C124.768 74.2329 124.832 74.0516 124.96 73.9342C125.088 73.8062 125.264 73.7422 125.488 73.7422C125.712 73.7422 125.882 73.8062 126 73.9342C126.128 74.0516 126.192 74.2329 126.192 74.4782V75.7102H126.032C126.202 75.0702 126.522 74.5849 126.992 74.2542C127.461 73.9236 128.053 73.7369 128.768 73.6942C128.938 73.6836 129.077 73.7262 129.184 73.8222C129.29 73.9076 129.349 74.0569 129.36 74.2702C129.37 74.4729 129.322 74.6382 129.216 74.7662C129.109 74.8836 128.944 74.9529 128.72 74.9742L128.432 74.9902C127.728 75.0649 127.184 75.2942 126.8 75.6782C126.426 76.0622 126.24 76.5902 126.24 77.2622V81.0062C126.24 81.2516 126.176 81.4382 126.048 81.5662C125.93 81.6942 125.754 81.7582 125.52 81.7582ZM137.471 81.7902C136.991 81.7902 136.506 81.7369 136.015 81.6302C135.535 81.5129 135.082 81.3156 134.655 81.0382C134.538 80.9636 134.453 80.8729 134.399 80.7662C134.357 80.6489 134.341 80.5369 134.351 80.4302C134.373 80.3129 134.421 80.2116 134.495 80.1262C134.57 80.0409 134.661 79.9929 134.767 79.9822C134.885 79.9609 135.007 79.9876 135.135 80.0622C135.551 80.2969 135.951 80.4622 136.335 80.5582C136.73 80.6542 137.119 80.7022 137.503 80.7022C138.09 80.7022 138.533 80.5956 138.831 80.3822C139.13 80.1689 139.279 79.8862 139.279 79.5342C139.279 79.2356 139.178 79.0062 138.975 78.8462C138.783 78.6756 138.479 78.5476 138.063 78.4622L136.575 78.1582C135.914 78.0089 135.413 77.7636 135.071 77.4222C134.741 77.0702 134.575 76.6222 134.575 76.0782C134.575 75.5982 134.703 75.1822 134.959 74.8302C135.226 74.4676 135.594 74.1902 136.063 73.9982C136.533 73.8062 137.071 73.7102 137.679 73.7102C138.149 73.7102 138.591 73.7742 139.007 73.9022C139.434 74.0196 139.818 74.2009 140.159 74.4462C140.287 74.5209 140.367 74.6169 140.399 74.7342C140.442 74.8409 140.447 74.9529 140.415 75.0702C140.394 75.1769 140.346 75.2676 140.271 75.3422C140.197 75.4169 140.101 75.4649 139.983 75.4862C139.866 75.4969 139.738 75.4649 139.599 75.3902C139.29 75.1769 138.97 75.0276 138.639 74.9422C138.319 74.8462 137.999 74.7982 137.679 74.7982C137.103 74.7982 136.666 74.9102 136.367 75.1342C136.079 75.3582 135.935 75.6516 135.935 76.0142C135.935 76.2916 136.021 76.5209 136.191 76.7022C136.373 76.8836 136.655 77.0169 137.039 77.1022L138.527 77.4062C139.221 77.5556 139.743 77.7956 140.095 78.1262C140.447 78.4462 140.623 78.8836 140.623 79.4382C140.623 80.1636 140.335 80.7396 139.759 81.1662C139.194 81.5822 138.431 81.7902 137.471 81.7902ZM143.238 81.7262C143.014 81.7262 142.838 81.6569 142.71 81.5182C142.582 81.3796 142.518 81.1876 142.518 80.9422V74.5582C142.518 74.3022 142.582 74.1102 142.71 73.9822C142.838 73.8436 143.014 73.7742 143.238 73.7742C143.472 73.7742 143.654 73.8436 143.782 73.9822C143.91 74.1102 143.974 74.3022 143.974 74.5582V80.9422C143.974 81.1876 143.91 81.3796 143.782 81.5182C143.664 81.6569 143.483 81.7262 143.238 81.7262ZM143.238 72.0462C142.95 72.0462 142.72 71.9716 142.55 71.8222C142.39 71.6622 142.31 71.4542 142.31 71.1982C142.31 70.9209 142.39 70.7129 142.55 70.5742C142.72 70.4249 142.95 70.3502 143.238 70.3502C143.547 70.3502 143.776 70.4249 143.926 70.5742C144.086 70.7129 144.166 70.9209 144.166 71.1982C144.166 71.4542 144.086 71.6622 143.926 71.8222C143.776 71.9716 143.547 72.0462 143.238 72.0462ZM149.546 81.7902C148.917 81.7902 148.389 81.6782 147.962 81.4542C147.546 81.2302 147.232 80.9049 147.018 80.4782C146.816 80.0516 146.714 79.5289 146.714 78.9102V74.9742H145.69C145.498 74.9742 145.349 74.9262 145.242 74.8302C145.136 74.7236 145.082 74.5849 145.082 74.4142C145.082 74.2329 145.136 74.0942 145.242 73.9982C145.349 73.9022 145.498 73.8542 145.69 73.8542H146.714V72.1102C146.714 71.8649 146.778 71.6836 146.906 71.5662C147.034 71.4382 147.216 71.3742 147.45 71.3742C147.685 71.3742 147.861 71.4382 147.978 71.5662C148.106 71.6836 148.17 71.8649 148.17 72.1102V73.8542H150.106C150.309 73.8542 150.464 73.9022 150.57 73.9982C150.677 74.0942 150.73 74.2329 150.73 74.4142C150.73 74.5849 150.677 74.7236 150.57 74.8302C150.464 74.9262 150.309 74.9742 150.106 74.9742H148.17V78.7822C148.17 79.3689 148.293 79.8116 148.538 80.1102C148.784 80.4089 149.189 80.5582 149.754 80.5582C149.957 80.5582 150.128 80.5422 150.266 80.5102C150.405 80.4676 150.528 80.4462 150.634 80.4462C150.73 80.4356 150.81 80.4676 150.874 80.5422C150.949 80.6169 150.986 80.7556 150.986 80.9582C150.986 81.1076 150.96 81.2462 150.906 81.3742C150.864 81.4916 150.773 81.5716 150.634 81.6142C150.506 81.6569 150.336 81.6942 150.122 81.7262C149.909 81.7689 149.717 81.7902 149.546 81.7902ZM158.701 81.7902C158.167 81.7902 157.682 81.6836 157.245 81.4702C156.818 81.2569 156.482 80.9689 156.237 80.6062C156.002 80.2436 155.885 79.8382 155.885 79.3902C155.885 78.8142 156.029 78.3609 156.317 78.0302C156.605 77.6996 157.09 77.4649 157.773 77.3262C158.455 77.1769 159.373 77.1022 160.525 77.1022H161.277V78.0302H160.557C159.735 78.0302 159.085 78.0676 158.605 78.1422C158.135 78.2169 157.805 78.3502 157.613 78.5422C157.421 78.7236 157.325 78.9796 157.325 79.3102C157.325 79.7262 157.469 80.0676 157.757 80.3342C158.055 80.6009 158.461 80.7342 158.973 80.7342C159.378 80.7342 159.735 80.6382 160.045 80.4462C160.354 80.2436 160.599 79.9769 160.781 79.6462C160.962 79.3049 161.053 78.9156 161.053 78.4782V76.6382C161.053 76.0089 160.925 75.5556 160.669 75.2782C160.413 74.9902 159.981 74.8462 159.373 74.8462C159.021 74.8462 158.658 74.8942 158.285 74.9902C157.911 75.0862 157.522 75.2356 157.117 75.4382C156.957 75.5129 156.818 75.5396 156.701 75.5182C156.583 75.4862 156.487 75.4222 156.413 75.3262C156.349 75.2196 156.311 75.1076 156.301 74.9902C156.301 74.8622 156.327 74.7396 156.381 74.6222C156.445 74.5049 156.551 74.4196 156.701 74.3662C157.17 74.1316 157.634 73.9662 158.093 73.8702C158.562 73.7636 158.999 73.7102 159.405 73.7102C160.098 73.7102 160.669 73.8222 161.117 74.0462C161.565 74.2596 161.901 74.5956 162.125 75.0542C162.349 75.5022 162.461 76.0782 162.461 76.7822V81.0062C162.461 81.2516 162.402 81.4382 162.285 81.5662C162.167 81.6942 161.997 81.7582 161.773 81.7582C161.559 81.7582 161.389 81.6942 161.261 81.5662C161.143 81.4382 161.085 81.2516 161.085 81.0062V79.8702H161.229C161.143 80.2649 160.983 80.6062 160.749 80.8942C160.514 81.1822 160.221 81.4062 159.869 81.5662C159.527 81.7156 159.138 81.7902 158.701 81.7902ZM165.504 81.7582C165.28 81.7582 165.104 81.6942 164.976 81.5662C164.848 81.4382 164.784 81.2516 164.784 81.0062V74.4782C164.784 74.2329 164.848 74.0516 164.976 73.9342C165.104 73.8062 165.28 73.7422 165.504 73.7422C165.728 73.7422 165.899 73.8062 166.016 73.9342C166.144 74.0516 166.208 74.2329 166.208 74.4782V75.8382L166.032 75.5502C166.235 74.9636 166.56 74.5102 167.008 74.1902C167.467 73.8702 168.011 73.7102 168.64 73.7102C169.301 73.7102 169.835 73.8702 170.24 74.1902C170.645 74.4996 170.917 74.9742 171.056 75.6142H170.832C171.024 75.0276 171.365 74.5636 171.856 74.2222C172.357 73.8809 172.939 73.7102 173.6 73.7102C174.187 73.7102 174.667 73.8276 175.04 74.0622C175.424 74.2862 175.712 74.6276 175.904 75.0862C176.096 75.5342 176.192 76.1102 176.192 76.8142V81.0062C176.192 81.2516 176.128 81.4382 176 81.5662C175.872 81.6942 175.696 81.7582 175.472 81.7582C175.237 81.7582 175.056 81.6942 174.928 81.5662C174.8 81.4382 174.736 81.2516 174.736 81.0062V76.8782C174.736 76.1956 174.619 75.6942 174.384 75.3742C174.149 75.0542 173.755 74.8942 173.2 74.8942C172.592 74.8942 172.107 75.1076 171.744 75.5342C171.392 75.9502 171.216 76.5262 171.216 77.2622V81.0062C171.216 81.2516 171.152 81.4382 171.024 81.5662C170.907 81.6942 170.731 81.7582 170.496 81.7582C170.261 81.7582 170.08 81.6942 169.952 81.5662C169.824 81.4382 169.76 81.2516 169.76 81.0062V76.8782C169.76 76.1956 169.643 75.6942 169.408 75.3742C169.173 75.0542 168.779 74.8942 168.224 74.8942C167.616 74.8942 167.131 75.1076 166.768 75.5342C166.416 75.9502 166.24 76.5262 166.24 77.2622V81.0062C166.24 81.5076 165.995 81.7582 165.504 81.7582ZM182.133 81.7902C181.291 81.7902 180.565 81.6302 179.957 81.3102C179.36 80.9796 178.896 80.5156 178.565 79.9182C178.235 79.3102 178.069 78.5956 178.069 77.7742C178.069 76.9636 178.229 76.2542 178.549 75.6462C178.88 75.0382 179.328 74.5636 179.893 74.2222C180.469 73.8809 181.125 73.7102 181.861 73.7102C182.384 73.7102 182.853 73.8009 183.269 73.9822C183.696 74.1529 184.059 74.4036 184.357 74.7342C184.656 75.0649 184.88 75.4702 185.029 75.9502C185.189 76.4196 185.269 76.9529 185.269 77.5502C185.269 77.7209 185.216 77.8542 185.109 77.9502C185.013 78.0356 184.869 78.0782 184.677 78.0782H179.205V77.1502H184.309L184.037 77.3742C184.037 76.8196 183.952 76.3502 183.781 75.9662C183.621 75.5716 183.381 75.2729 183.061 75.0702C182.752 74.8676 182.363 74.7662 181.893 74.7662C181.381 74.7662 180.944 74.8889 180.581 75.1342C180.219 75.3689 179.941 75.7049 179.749 76.1422C179.557 76.5689 179.461 77.0649 179.461 77.6302V77.7262C179.461 78.6862 179.691 79.4116 180.149 79.9022C180.608 80.3929 181.269 80.6382 182.133 80.6382C182.475 80.6382 182.821 80.5956 183.173 80.5102C183.536 80.4249 183.883 80.2702 184.213 80.0462C184.373 79.9502 184.517 79.9076 184.645 79.9182C184.784 79.9182 184.896 79.9609 184.981 80.0462C185.067 80.1209 185.12 80.2169 185.141 80.3342C185.163 80.4409 185.147 80.5582 185.093 80.6862C185.04 80.8142 184.939 80.9262 184.789 81.0222C184.437 81.2676 184.016 81.4596 183.525 81.5982C183.045 81.7262 182.581 81.7902 182.133 81.7902ZM187.8 81.7582C187.576 81.7582 187.4 81.6942 187.272 81.5662C187.144 81.4382 187.08 81.2516 187.08 81.0062V74.4782C187.08 74.2329 187.144 74.0516 187.272 73.9342C187.4 73.8062 187.576 73.7422 187.8 73.7422C188.024 73.7422 188.195 73.8062 188.312 73.9342C188.44 74.0516 188.504 74.2329 188.504 74.4782V75.7902L188.328 75.5502C188.552 74.9422 188.915 74.4836 189.416 74.1742C189.928 73.8649 190.509 73.7102 191.16 73.7102C191.789 73.7102 192.307 73.8222 192.712 74.0462C193.117 74.2702 193.421 74.6116 193.624 75.0702C193.827 75.5289 193.928 76.1102 193.928 76.8142V81.0062C193.928 81.2516 193.864 81.4382 193.736 81.5662C193.619 81.6942 193.443 81.7582 193.208 81.7582C192.973 81.7582 192.792 81.6942 192.664 81.5662C192.536 81.4382 192.472 81.2516 192.472 81.0062V76.8942C192.472 76.2009 192.339 75.6942 192.072 75.3742C191.805 75.0542 191.379 74.8942 190.792 74.8942C190.109 74.8942 189.56 75.1076 189.144 75.5342C188.739 75.9502 188.536 76.5156 188.536 77.2302V81.0062C188.536 81.5076 188.291 81.7582 187.8 81.7582ZM199.468 81.7902C198.839 81.7902 198.311 81.6782 197.884 81.4542C197.468 81.2302 197.154 80.9049 196.94 80.4782C196.738 80.0516 196.636 79.5289 196.636 78.9102V74.9742H195.612C195.42 74.9742 195.271 74.9262 195.164 74.8302C195.058 74.7236 195.004 74.5849 195.004 74.4142C195.004 74.2329 195.058 74.0942 195.164 73.9982C195.271 73.9022 195.42 73.8542 195.612 73.8542H196.636V72.1102C196.636 71.8649 196.7 71.6836 196.828 71.5662C196.956 71.4382 197.138 71.3742 197.372 71.3742C197.607 71.3742 197.783 71.4382 197.9 71.5662C198.028 71.6836 198.092 71.8649 198.092 72.1102V73.8542H200.028C200.231 73.8542 200.386 73.9022 200.492 73.9982C200.599 74.0942 200.652 74.2329 200.652 74.4142C200.652 74.5849 200.599 74.7236 200.492 74.8302C200.386 74.9262 200.231 74.9742 200.028 74.9742H198.092V78.7822C198.092 79.3689 198.215 79.8116 198.46 80.1102C198.706 80.4089 199.111 80.5582 199.676 80.5582C199.879 80.5582 200.05 80.5422 200.188 80.5102C200.327 80.4676 200.45 80.4462 200.556 80.4462C200.652 80.4356 200.732 80.4676 200.796 80.5422C200.871 80.6169 200.908 80.7556 200.908 80.9582C200.908 81.1076 200.882 81.2462 200.828 81.3742C200.786 81.4916 200.695 81.5716 200.556 81.6142C200.428 81.6569 200.258 81.6942 200.044 81.7262C199.831 81.7689 199.639 81.7902 199.468 81.7902Z" fill="#0F1415"/>
<path d="M45.1459 109.244C44.9219 109.244 44.7492 109.183 44.6279 109.062C44.5065 108.941 44.4459 108.768 44.4459 108.544V100.074C44.4459 99.8499 44.5065 99.6772 44.6279 99.5559C44.7492 99.4346 44.9219 99.3739 45.1459 99.3739H50.2979C50.4752 99.3739 50.6105 99.4206 50.7039 99.5139C50.8065 99.5979 50.8579 99.7239 50.8579 99.8919C50.8579 100.069 50.8065 100.205 50.7039 100.298C50.6105 100.391 50.4752 100.438 50.2979 100.438H45.7059V103.7H50.0039C50.1812 103.7 50.3165 103.747 50.4099 103.84C50.5032 103.933 50.5499 104.064 50.5499 104.232C50.5499 104.409 50.5032 104.545 50.4099 104.638C50.3165 104.722 50.1812 104.764 50.0039 104.764H45.7059V108.18H50.2979C50.4752 108.18 50.6105 108.227 50.7039 108.32C50.8065 108.404 50.8579 108.535 50.8579 108.712C50.8579 108.889 50.8065 109.025 50.7039 109.118C50.6105 109.202 50.4752 109.244 50.2979 109.244H45.1459ZM55.4923 111.89C54.9883 111.89 54.4983 111.834 54.0223 111.722C53.5556 111.61 53.131 111.437 52.7483 111.204C52.627 111.129 52.543 111.041 52.4963 110.938C52.459 110.845 52.4496 110.747 52.4683 110.644C52.4963 110.541 52.543 110.448 52.6083 110.364C52.683 110.289 52.767 110.238 52.8603 110.21C52.963 110.191 53.0656 110.215 53.1683 110.28C53.579 110.513 53.971 110.672 54.3443 110.756C54.7176 110.84 55.0723 110.882 55.4083 110.882C56.071 110.882 56.5656 110.709 56.8923 110.364C57.2283 110.028 57.3963 109.533 57.3963 108.88V107.368H57.5223C57.3916 107.891 57.0976 108.306 56.6403 108.614C56.1923 108.922 55.6696 109.076 55.0723 109.076C54.4563 109.076 53.9196 108.936 53.4623 108.656C53.005 108.367 52.6503 107.97 52.3983 107.466C52.1463 106.953 52.0203 106.36 52.0203 105.688C52.0203 105.175 52.0903 104.713 52.2303 104.302C52.3796 103.882 52.585 103.527 52.8463 103.238C53.117 102.939 53.439 102.711 53.8123 102.552C54.1856 102.384 54.6056 102.3 55.0723 102.3C55.679 102.3 56.2063 102.454 56.6543 102.762C57.1023 103.07 57.3916 103.485 57.5223 104.008L57.3683 104.204V102.972C57.3683 102.757 57.4243 102.599 57.5363 102.496C57.6483 102.384 57.807 102.328 58.0123 102.328C58.2083 102.328 58.3623 102.384 58.4743 102.496C58.5863 102.599 58.6423 102.757 58.6423 102.972V108.712C58.6423 109.767 58.3716 110.56 57.8303 111.092C57.2983 111.624 56.519 111.89 55.4923 111.89ZM55.3523 108.068C55.7723 108.068 56.1316 107.975 56.4303 107.788C56.7383 107.592 56.9716 107.317 57.1303 106.962C57.2983 106.598 57.3823 106.173 57.3823 105.688C57.3823 104.951 57.2003 104.372 56.8363 103.952C56.4723 103.523 55.9776 103.308 55.3523 103.308C54.9323 103.308 54.5683 103.406 54.2603 103.602C53.9616 103.789 53.7283 104.059 53.5603 104.414C53.3923 104.769 53.3083 105.193 53.3083 105.688C53.3083 106.416 53.4903 106.995 53.8543 107.424C54.2276 107.853 54.727 108.068 55.3523 108.068ZM63.8341 109.37C63.0968 109.37 62.4621 109.23 61.9301 108.95C61.4074 108.661 61.0014 108.255 60.7121 107.732C60.4228 107.2 60.2781 106.575 60.2781 105.856C60.2781 105.147 60.4181 104.526 60.6981 103.994C60.9874 103.462 61.3794 103.047 61.8741 102.748C62.3781 102.449 62.9521 102.3 63.5961 102.3C64.0534 102.3 64.4641 102.379 64.8281 102.538C65.2014 102.687 65.5188 102.907 65.7801 103.196C66.0414 103.485 66.2374 103.84 66.3681 104.26C66.5081 104.671 66.5781 105.137 66.5781 105.66C66.5781 105.809 66.5314 105.926 66.4381 106.01C66.3541 106.085 66.2281 106.122 66.0601 106.122H61.2721V105.31H65.7381L65.5001 105.506C65.5001 105.021 65.4254 104.61 65.2761 104.274C65.1361 103.929 64.9261 103.667 64.6461 103.49C64.3754 103.313 64.0348 103.224 63.6241 103.224C63.1761 103.224 62.7934 103.331 62.4761 103.546C62.1588 103.751 61.9161 104.045 61.7481 104.428C61.5801 104.801 61.4961 105.235 61.4961 105.73V105.814C61.4961 106.654 61.6968 107.289 62.0981 107.718C62.4994 108.147 63.0781 108.362 63.8341 108.362C64.1328 108.362 64.4361 108.325 64.7441 108.25C65.0614 108.175 65.3648 108.04 65.6541 107.844C65.7941 107.76 65.9201 107.723 66.0321 107.732C66.1534 107.732 66.2514 107.769 66.3261 107.844C66.4008 107.909 66.4474 107.993 66.4661 108.096C66.4848 108.189 66.4708 108.292 66.4241 108.404C66.3774 108.516 66.2888 108.614 66.1581 108.698C65.8501 108.913 65.4814 109.081 65.0521 109.202C64.6321 109.314 64.2261 109.37 63.8341 109.37ZM70.5146 109.37C70.0946 109.37 69.67 109.323 69.2406 109.23C68.8206 109.127 68.424 108.955 68.0506 108.712C67.948 108.647 67.8733 108.567 67.8266 108.474C67.7893 108.371 67.7753 108.273 67.7846 108.18C67.8033 108.077 67.8453 107.989 67.9106 107.914C67.976 107.839 68.0553 107.797 68.1486 107.788C68.2513 107.769 68.3586 107.793 68.4706 107.858C68.8346 108.063 69.1846 108.208 69.5206 108.292C69.866 108.376 70.2066 108.418 70.5426 108.418C71.056 108.418 71.4433 108.325 71.7046 108.138C71.966 107.951 72.0966 107.704 72.0966 107.396C72.0966 107.135 72.008 106.934 71.8306 106.794C71.6626 106.645 71.3966 106.533 71.0326 106.458L69.7306 106.192C69.152 106.061 68.7133 105.847 68.4146 105.548C68.1253 105.24 67.9806 104.848 67.9806 104.372C67.9806 103.952 68.0926 103.588 68.3166 103.28C68.55 102.963 68.872 102.72 69.2826 102.552C69.6933 102.384 70.1646 102.3 70.6966 102.3C71.1073 102.3 71.4946 102.356 71.8586 102.468C72.232 102.571 72.568 102.729 72.8666 102.944C72.9786 103.009 73.0486 103.093 73.0766 103.196C73.114 103.289 73.1186 103.387 73.0906 103.49C73.072 103.583 73.03 103.663 72.9646 103.728C72.8993 103.793 72.8153 103.835 72.7126 103.854C72.61 103.863 72.498 103.835 72.3766 103.77C72.106 103.583 71.826 103.453 71.5366 103.378C71.2566 103.294 70.9766 103.252 70.6966 103.252C70.1926 103.252 69.81 103.35 69.5486 103.546C69.2966 103.742 69.1706 103.999 69.1706 104.316C69.1706 104.559 69.2453 104.759 69.3946 104.918C69.5533 105.077 69.8006 105.193 70.1366 105.268L71.4386 105.534C72.0453 105.665 72.5026 105.875 72.8106 106.164C73.1186 106.444 73.2726 106.827 73.2726 107.312C73.2726 107.947 73.0206 108.451 72.5166 108.824C72.022 109.188 71.3546 109.37 70.5146 109.37ZM77.6898 109.37C77.1392 109.37 76.6772 109.272 76.3038 109.076C75.9398 108.88 75.6645 108.595 75.4778 108.222C75.3005 107.849 75.2118 107.391 75.2118 106.85V103.406H74.3158C74.1478 103.406 74.0172 103.364 73.9238 103.28C73.8305 103.187 73.7838 103.065 73.7838 102.916C73.7838 102.757 73.8305 102.636 73.9238 102.552C74.0172 102.468 74.1478 102.426 74.3158 102.426H75.2118V100.9C75.2118 100.685 75.2678 100.527 75.3798 100.424C75.4918 100.312 75.6505 100.256 75.8558 100.256C76.0612 100.256 76.2152 100.312 76.3178 100.424C76.4298 100.527 76.4858 100.685 76.4858 100.9V102.426H78.1798C78.3572 102.426 78.4925 102.468 78.5858 102.552C78.6792 102.636 78.7258 102.757 78.7258 102.916C78.7258 103.065 78.6792 103.187 78.5858 103.28C78.4925 103.364 78.3572 103.406 78.1798 103.406H76.4858V106.738C76.4858 107.251 76.5932 107.639 76.8078 107.9C77.0225 108.161 77.3772 108.292 77.8718 108.292C78.0492 108.292 78.1985 108.278 78.3198 108.25C78.4412 108.213 78.5485 108.194 78.6418 108.194C78.7258 108.185 78.7958 108.213 78.8518 108.278C78.9172 108.343 78.9498 108.465 78.9498 108.642C78.9498 108.773 78.9265 108.894 78.8798 109.006C78.8425 109.109 78.7632 109.179 78.6418 109.216C78.5298 109.253 78.3805 109.286 78.1938 109.314C78.0072 109.351 77.8392 109.37 77.6898 109.37ZM82.0494 109.37C81.5828 109.37 81.1581 109.277 80.7754 109.09C80.4021 108.903 80.1081 108.651 79.8934 108.334C79.6881 108.017 79.5854 107.662 79.5854 107.27C79.5854 106.766 79.7114 106.369 79.9634 106.08C80.2154 105.791 80.6401 105.585 81.2374 105.464C81.8348 105.333 82.6374 105.268 83.6454 105.268H84.3034V106.08H83.6734C82.9548 106.08 82.3854 106.113 81.9654 106.178C81.5548 106.243 81.2654 106.36 81.0974 106.528C80.9294 106.687 80.8454 106.911 80.8454 107.2C80.8454 107.564 80.9714 107.863 81.2234 108.096C81.4848 108.329 81.8394 108.446 82.2874 108.446C82.6421 108.446 82.9548 108.362 83.2254 108.194C83.4961 108.017 83.7108 107.783 83.8694 107.494C84.0281 107.195 84.1074 106.855 84.1074 106.472V104.862C84.1074 104.311 83.9954 103.915 83.7714 103.672C83.5474 103.42 83.1694 103.294 82.6374 103.294C82.3294 103.294 82.0121 103.336 81.6854 103.42C81.3588 103.504 81.0181 103.635 80.6634 103.812C80.5234 103.877 80.4021 103.901 80.2994 103.882C80.1968 103.854 80.1128 103.798 80.0474 103.714C79.9914 103.621 79.9588 103.523 79.9494 103.42C79.9494 103.308 79.9728 103.201 80.0194 103.098C80.0754 102.995 80.1688 102.921 80.2994 102.874C80.7101 102.669 81.1161 102.524 81.5174 102.44C81.9281 102.347 82.3108 102.3 82.6654 102.3C83.2721 102.3 83.7714 102.398 84.1634 102.594C84.5554 102.781 84.8494 103.075 85.0454 103.476C85.2414 103.868 85.3394 104.372 85.3394 104.988V108.684C85.3394 108.899 85.2881 109.062 85.1854 109.174C85.0828 109.286 84.9334 109.342 84.7374 109.342C84.5508 109.342 84.4014 109.286 84.2894 109.174C84.1868 109.062 84.1354 108.899 84.1354 108.684V107.69H84.2614C84.1868 108.035 84.0468 108.334 83.8414 108.586C83.6361 108.838 83.3794 109.034 83.0714 109.174C82.7728 109.305 82.4321 109.37 82.0494 109.37ZM89.6963 109.37C89.2763 109.37 88.8516 109.323 88.4223 109.23C88.0023 109.127 87.6056 108.955 87.2323 108.712C87.1296 108.647 87.0549 108.567 87.0083 108.474C86.9709 108.371 86.9569 108.273 86.9663 108.18C86.9849 108.077 87.0269 107.989 87.0923 107.914C87.1576 107.839 87.2369 107.797 87.3303 107.788C87.4329 107.769 87.5403 107.793 87.6523 107.858C88.0163 108.063 88.3663 108.208 88.7023 108.292C89.0476 108.376 89.3883 108.418 89.7243 108.418C90.2376 108.418 90.6249 108.325 90.8863 108.138C91.1476 107.951 91.2783 107.704 91.2783 107.396C91.2783 107.135 91.1896 106.934 91.0123 106.794C90.8443 106.645 90.5783 106.533 90.2143 106.458L88.9123 106.192C88.3336 106.061 87.8949 105.847 87.5963 105.548C87.3069 105.24 87.1623 104.848 87.1623 104.372C87.1623 103.952 87.2743 103.588 87.4983 103.28C87.7316 102.963 88.0536 102.72 88.4643 102.552C88.8749 102.384 89.3463 102.3 89.8783 102.3C90.2889 102.3 90.6763 102.356 91.0403 102.468C91.4136 102.571 91.7496 102.729 92.0483 102.944C92.1603 103.009 92.2303 103.093 92.2583 103.196C92.2956 103.289 92.3003 103.387 92.2723 103.49C92.2536 103.583 92.2116 103.663 92.1463 103.728C92.0809 103.793 91.9969 103.835 91.8943 103.854C91.7916 103.863 91.6796 103.835 91.5583 103.77C91.2876 103.583 91.0076 103.453 90.7183 103.378C90.4383 103.294 90.1583 103.252 89.8783 103.252C89.3743 103.252 88.9916 103.35 88.7303 103.546C88.4783 103.742 88.3523 103.999 88.3523 104.316C88.3523 104.559 88.4269 104.759 88.5763 104.918C88.7349 105.077 88.9823 105.193 89.3183 105.268L90.6203 105.534C91.2269 105.665 91.6843 105.875 91.9923 106.164C92.3003 106.444 92.4543 106.827 92.4543 107.312C92.4543 107.947 92.2023 108.451 91.6983 108.824C91.2036 109.188 90.5363 109.37 89.6963 109.37ZM100.114 109.37C99.6942 109.37 99.2696 109.323 98.8402 109.23C98.4202 109.127 98.0236 108.955 97.6502 108.712C97.5476 108.647 97.4729 108.567 97.4262 108.474C97.3889 108.371 97.3749 108.273 97.3842 108.18C97.4029 108.077 97.4449 107.989 97.5102 107.914C97.5756 107.839 97.6549 107.797 97.7482 107.788C97.8509 107.769 97.9582 107.793 98.0702 107.858C98.4342 108.063 98.7842 108.208 99.1202 108.292C99.4656 108.376 99.8062 108.418 100.142 108.418C100.656 108.418 101.043 108.325 101.304 108.138C101.566 107.951 101.696 107.704 101.696 107.396C101.696 107.135 101.608 106.934 101.43 106.794C101.262 106.645 100.996 106.533 100.632 106.458L99.3302 106.192C98.7516 106.061 98.3129 105.847 98.0142 105.548C97.7249 105.24 97.5802 104.848 97.5802 104.372C97.5802 103.952 97.6922 103.588 97.9162 103.28C98.1496 102.963 98.4716 102.72 98.8822 102.552C99.2929 102.384 99.7642 102.3 100.296 102.3C100.707 102.3 101.094 102.356 101.458 102.468C101.832 102.571 102.168 102.729 102.466 102.944C102.578 103.009 102.648 103.093 102.676 103.196C102.714 103.289 102.718 103.387 102.69 103.49C102.672 103.583 102.63 103.663 102.564 103.728C102.499 103.793 102.415 103.835 102.312 103.854C102.21 103.863 102.098 103.835 101.976 103.77C101.706 103.583 101.426 103.453 101.136 103.378C100.856 103.294 100.576 103.252 100.296 103.252C99.7922 103.252 99.4096 103.35 99.1482 103.546C98.8962 103.742 98.7702 103.999 98.7702 104.316C98.7702 104.559 98.8449 104.759 98.9942 104.918C99.1529 105.077 99.4002 105.193 99.7362 105.268L101.038 105.534C101.645 105.665 102.102 105.875 102.41 106.164C102.718 106.444 102.872 106.827 102.872 107.312C102.872 107.947 102.62 108.451 102.116 108.824C101.622 109.188 100.954 109.37 100.114 109.37ZM106.7 109.37C106.233 109.37 105.808 109.277 105.426 109.09C105.052 108.903 104.758 108.651 104.544 108.334C104.338 108.017 104.236 107.662 104.236 107.27C104.236 106.766 104.362 106.369 104.614 106.08C104.866 105.791 105.29 105.585 105.888 105.464C106.485 105.333 107.288 105.268 108.296 105.268H108.954V106.08H108.324C107.605 106.08 107.036 106.113 106.616 106.178C106.205 106.243 105.916 106.36 105.748 106.528C105.58 106.687 105.496 106.911 105.496 107.2C105.496 107.564 105.622 107.863 105.874 108.096C106.135 108.329 106.49 108.446 106.938 108.446C107.292 108.446 107.605 108.362 107.876 108.194C108.146 108.017 108.361 107.783 108.52 107.494C108.678 107.195 108.758 106.855 108.758 106.472V104.862C108.758 104.311 108.646 103.915 108.422 103.672C108.198 103.42 107.82 103.294 107.288 103.294C106.98 103.294 106.662 103.336 106.336 103.42C106.009 103.504 105.668 103.635 105.314 103.812C105.174 103.877 105.052 103.901 104.95 103.882C104.847 103.854 104.763 103.798 104.698 103.714C104.642 103.621 104.609 103.523 104.6 103.42C104.6 103.308 104.623 103.201 104.67 103.098C104.726 102.995 104.819 102.921 104.95 102.874C105.36 102.669 105.766 102.524 106.168 102.44C106.578 102.347 106.961 102.3 107.316 102.3C107.922 102.3 108.422 102.398 108.814 102.594C109.206 102.781 109.5 103.075 109.696 103.476C109.892 103.868 109.99 104.372 109.99 104.988V108.684C109.99 108.899 109.938 109.062 109.836 109.174C109.733 109.286 109.584 109.342 109.388 109.342C109.201 109.342 109.052 109.286 108.94 109.174C108.837 109.062 108.786 108.899 108.786 108.684V107.69H108.912C108.837 108.035 108.697 108.334 108.492 108.586C108.286 108.838 108.03 109.034 107.722 109.174C107.423 109.305 107.082 109.37 106.7 109.37ZM112.625 111.862C112.429 111.862 112.275 111.806 112.163 111.694C112.051 111.582 111.995 111.423 111.995 111.218V102.972C111.995 102.757 112.051 102.599 112.163 102.496C112.275 102.384 112.429 102.328 112.625 102.328C112.83 102.328 112.984 102.384 113.087 102.496C113.199 102.599 113.255 102.757 113.255 102.972V104.246L113.101 103.994C113.25 103.481 113.544 103.07 113.983 102.762C114.421 102.454 114.949 102.3 115.565 102.3C116.171 102.3 116.699 102.445 117.147 102.734C117.595 103.014 117.945 103.42 118.197 103.952C118.449 104.475 118.575 105.1 118.575 105.828C118.575 106.547 118.449 107.177 118.197 107.718C117.954 108.25 117.604 108.661 117.147 108.95C116.699 109.23 116.171 109.37 115.565 109.37C114.958 109.37 114.435 109.216 113.997 108.908C113.558 108.6 113.264 108.194 113.115 107.69H113.269V111.218C113.269 111.423 113.213 111.582 113.101 111.694C112.989 111.806 112.83 111.862 112.625 111.862ZM115.271 108.362C115.672 108.362 116.022 108.264 116.321 108.068C116.629 107.872 116.867 107.587 117.035 107.214C117.203 106.841 117.287 106.379 117.287 105.828C117.287 105.007 117.105 104.381 116.741 103.952C116.377 103.523 115.887 103.308 115.271 103.308C114.86 103.308 114.501 103.406 114.193 103.602C113.894 103.789 113.661 104.069 113.493 104.442C113.334 104.815 113.255 105.277 113.255 105.828C113.255 106.649 113.437 107.279 113.801 107.718C114.165 108.147 114.655 108.362 115.271 108.362ZM120.841 109.314C120.645 109.314 120.491 109.253 120.379 109.132C120.267 109.011 120.211 108.843 120.211 108.628V103.042C120.211 102.818 120.267 102.65 120.379 102.538C120.491 102.417 120.645 102.356 120.841 102.356C121.047 102.356 121.205 102.417 121.317 102.538C121.429 102.65 121.485 102.818 121.485 103.042V108.628C121.485 108.843 121.429 109.011 121.317 109.132C121.215 109.253 121.056 109.314 120.841 109.314ZM120.841 100.844C120.589 100.844 120.389 100.779 120.239 100.648C120.099 100.508 120.029 100.326 120.029 100.102C120.029 99.8592 120.099 99.6772 120.239 99.5559C120.389 99.4252 120.589 99.3599 120.841 99.3599C121.112 99.3599 121.313 99.4252 121.443 99.5559C121.583 99.6772 121.653 99.8592 121.653 100.102C121.653 100.326 121.583 100.508 121.443 100.648C121.313 100.779 121.112 100.844 120.841 100.844ZM126.684 109.37C125.946 109.37 125.312 109.23 124.78 108.95C124.257 108.661 123.851 108.255 123.562 107.732C123.272 107.2 123.128 106.575 123.128 105.856C123.128 105.147 123.268 104.526 123.548 103.994C123.837 103.462 124.229 103.047 124.724 102.748C125.228 102.449 125.802 102.3 126.446 102.3C126.903 102.3 127.314 102.379 127.678 102.538C128.051 102.687 128.368 102.907 128.63 103.196C128.891 103.485 129.087 103.84 129.218 104.26C129.358 104.671 129.428 105.137 129.428 105.66C129.428 105.809 129.381 105.926 129.288 106.01C129.204 106.085 129.078 106.122 128.91 106.122H124.122V105.31H128.588L128.35 105.506C128.35 105.021 128.275 104.61 128.126 104.274C127.986 103.929 127.776 103.667 127.496 103.49C127.225 103.313 126.884 103.224 126.474 103.224C126.026 103.224 125.643 103.331 125.326 103.546C125.008 103.751 124.766 104.045 124.598 104.428C124.43 104.801 124.346 105.235 124.346 105.73V105.814C124.346 106.654 124.546 107.289 124.948 107.718C125.349 108.147 125.928 108.362 126.684 108.362C126.982 108.362 127.286 108.325 127.594 108.25C127.911 108.175 128.214 108.04 128.504 107.844C128.644 107.76 128.77 107.723 128.882 107.732C129.003 107.732 129.101 107.769 129.176 107.844C129.25 107.909 129.297 107.993 129.316 108.096C129.334 108.189 129.32 108.292 129.274 108.404C129.227 108.516 129.138 108.614 129.008 108.698C128.7 108.913 128.331 109.081 127.902 109.202C127.482 109.314 127.076 109.37 126.684 109.37ZM131.642 109.342C131.446 109.342 131.292 109.286 131.18 109.174C131.068 109.062 131.012 108.899 131.012 108.684V102.972C131.012 102.757 131.068 102.599 131.18 102.496C131.292 102.384 131.446 102.328 131.642 102.328C131.838 102.328 131.988 102.384 132.09 102.496C132.202 102.599 132.258 102.757 132.258 102.972V104.12L132.104 103.91C132.3 103.378 132.618 102.977 133.056 102.706C133.504 102.435 134.013 102.3 134.582 102.3C135.133 102.3 135.586 102.398 135.94 102.594C136.295 102.79 136.561 103.089 136.738 103.49C136.916 103.891 137.004 104.4 137.004 105.016V108.684C137.004 108.899 136.948 109.062 136.836 109.174C136.734 109.286 136.58 109.342 136.374 109.342C136.169 109.342 136.01 109.286 135.898 109.174C135.786 109.062 135.73 108.899 135.73 108.684V105.086C135.73 104.479 135.614 104.036 135.38 103.756C135.147 103.476 134.774 103.336 134.26 103.336C133.663 103.336 133.182 103.523 132.818 103.896C132.464 104.26 132.286 104.755 132.286 105.38V108.684C132.286 109.123 132.072 109.342 131.642 109.342ZM145.264 109.342C145.087 109.342 144.933 109.295 144.802 109.202C144.672 109.109 144.56 108.959 144.466 108.754L142.086 103.21C142.021 103.051 141.998 102.907 142.016 102.776C142.035 102.645 142.096 102.538 142.198 102.454C142.31 102.37 142.46 102.328 142.646 102.328C142.805 102.328 142.931 102.365 143.024 102.44C143.118 102.515 143.206 102.645 143.29 102.832L145.488 108.25H145.096L147.35 102.832C147.425 102.645 147.509 102.515 147.602 102.44C147.705 102.365 147.845 102.328 148.022 102.328C148.181 102.328 148.302 102.37 148.386 102.454C148.48 102.538 148.536 102.645 148.554 102.776C148.573 102.907 148.545 103.047 148.47 103.196L146.076 108.754C145.992 108.959 145.88 109.109 145.74 109.202C145.61 109.295 145.451 109.342 145.264 109.342ZM150.55 109.314C150.354 109.314 150.2 109.253 150.088 109.132C149.976 109.011 149.92 108.843 149.92 108.628V103.042C149.92 102.818 149.976 102.65 150.088 102.538C150.2 102.417 150.354 102.356 150.55 102.356C150.756 102.356 150.914 102.417 151.026 102.538C151.138 102.65 151.194 102.818 151.194 103.042V108.628C151.194 108.843 151.138 109.011 151.026 109.132C150.924 109.253 150.765 109.314 150.55 109.314ZM150.55 100.844C150.298 100.844 150.098 100.779 149.948 100.648C149.808 100.508 149.738 100.326 149.738 100.102C149.738 99.8592 149.808 99.6772 149.948 99.5559C150.098 99.4252 150.298 99.3599 150.55 99.3599C150.821 99.3599 151.022 99.4252 151.152 99.5559C151.292 99.6772 151.362 99.8592 151.362 100.102C151.362 100.326 151.292 100.508 151.152 100.648C151.022 100.779 150.821 100.844 150.55 100.844ZM155.833 109.342C155.655 109.342 155.501 109.295 155.371 109.202C155.24 109.109 155.128 108.959 155.035 108.754L152.655 103.21C152.589 103.051 152.566 102.907 152.585 102.776C152.603 102.645 152.664 102.538 152.767 102.454C152.879 102.37 153.028 102.328 153.215 102.328C153.373 102.328 153.499 102.365 153.593 102.44C153.686 102.515 153.775 102.645 153.859 102.832L156.057 108.25H155.665L157.919 102.832C157.993 102.645 158.077 102.515 158.171 102.44C158.273 102.365 158.413 102.328 158.591 102.328C158.749 102.328 158.871 102.37 158.955 102.454C159.048 102.538 159.104 102.645 159.123 102.776C159.141 102.907 159.113 103.047 159.039 103.196L156.645 108.754C156.561 108.959 156.449 109.109 156.309 109.202C156.178 109.295 156.019 109.342 155.833 109.342ZM163.529 109.37C162.792 109.37 162.157 109.23 161.625 108.95C161.103 108.661 160.697 108.255 160.407 107.732C160.118 107.2 159.973 106.575 159.973 105.856C159.973 105.147 160.113 104.526 160.393 103.994C160.683 103.462 161.075 103.047 161.569 102.748C162.073 102.449 162.647 102.3 163.291 102.3C163.749 102.3 164.159 102.379 164.523 102.538C164.897 102.687 165.214 102.907 165.475 103.196C165.737 103.485 165.933 103.84 166.063 104.26C166.203 104.671 166.273 105.137 166.273 105.66C166.273 105.809 166.227 105.926 166.133 106.01C166.049 106.085 165.923 106.122 165.755 106.122H160.967V105.31H165.433L165.195 105.506C165.195 105.021 165.121 104.61 164.971 104.274C164.831 103.929 164.621 103.667 164.341 103.49C164.071 103.313 163.73 103.224 163.319 103.224C162.871 103.224 162.489 103.331 162.171 103.546C161.854 103.751 161.611 104.045 161.443 104.428C161.275 104.801 161.191 105.235 161.191 105.73V105.814C161.191 106.654 161.392 107.289 161.793 107.718C162.195 108.147 162.773 108.362 163.529 108.362C163.828 108.362 164.131 108.325 164.439 108.25C164.757 108.175 165.06 108.04 165.349 107.844C165.489 107.76 165.615 107.723 165.727 107.732C165.849 107.732 165.947 107.769 166.021 107.844C166.096 107.909 166.143 107.993 166.161 108.096C166.18 108.189 166.166 108.292 166.119 108.404C166.073 108.516 165.984 108.614 165.853 108.698C165.545 108.913 165.177 109.081 164.747 109.202C164.327 109.314 163.921 109.37 163.529 109.37ZM168.516 109.342C168.301 109.342 168.138 109.286 168.026 109.174C167.914 109.062 167.858 108.899 167.858 108.684V102.972C167.858 102.757 167.914 102.599 168.026 102.496C168.138 102.384 168.292 102.328 168.488 102.328C168.684 102.328 168.833 102.384 168.936 102.496C169.048 102.599 169.104 102.757 169.104 102.972V104.05H168.964C169.113 103.49 169.393 103.065 169.804 102.776C170.215 102.487 170.733 102.323 171.358 102.286C171.507 102.277 171.629 102.314 171.722 102.398C171.815 102.473 171.867 102.603 171.876 102.79C171.885 102.967 171.843 103.112 171.75 103.224C171.657 103.327 171.512 103.387 171.316 103.406L171.064 103.42C170.448 103.485 169.972 103.686 169.636 104.022C169.309 104.358 169.146 104.82 169.146 105.408V108.684C169.146 108.899 169.09 109.062 168.978 109.174C168.875 109.286 168.721 109.342 168.516 109.342ZM173.629 109.342C173.415 109.342 173.251 109.286 173.139 109.174C173.027 109.062 172.971 108.899 172.971 108.684V102.972C172.971 102.757 173.027 102.599 173.139 102.496C173.251 102.384 173.405 102.328 173.601 102.328C173.797 102.328 173.947 102.384 174.049 102.496C174.161 102.599 174.217 102.757 174.217 102.972V104.05H174.077C174.227 103.49 174.507 103.065 174.917 102.776C175.328 102.487 175.846 102.323 176.471 102.286C176.621 102.277 176.742 102.314 176.835 102.398C176.929 102.473 176.98 102.603 176.989 102.79C176.999 102.967 176.957 103.112 176.863 103.224C176.77 103.327 176.625 103.387 176.429 103.406L176.177 103.42C175.561 103.485 175.085 103.686 174.749 104.022C174.423 104.358 174.259 104.82 174.259 105.408V108.684C174.259 108.899 174.203 109.062 174.091 109.174C173.989 109.286 173.835 109.342 173.629 109.342ZM180.186 109.37C179.719 109.37 179.295 109.277 178.912 109.09C178.539 108.903 178.245 108.651 178.03 108.334C177.825 108.017 177.722 107.662 177.722 107.27C177.722 106.766 177.848 106.369 178.1 106.08C178.352 105.791 178.777 105.585 179.374 105.464C179.971 105.333 180.774 105.268 181.782 105.268H182.44V106.08H181.81C181.091 106.08 180.522 106.113 180.102 106.178C179.691 106.243 179.402 106.36 179.234 106.528C179.066 106.687 178.982 106.911 178.982 107.2C178.982 107.564 179.108 107.863 179.36 108.096C179.621 108.329 179.976 108.446 180.424 108.446C180.779 108.446 181.091 108.362 181.362 108.194C181.633 108.017 181.847 107.783 182.006 107.494C182.165 107.195 182.244 106.855 182.244 106.472V104.862C182.244 104.311 182.132 103.915 181.908 103.672C181.684 103.42 181.306 103.294 180.774 103.294C180.466 103.294 180.149 103.336 179.822 103.42C179.495 103.504 179.155 103.635 178.8 103.812C178.66 103.877 178.539 103.901 178.436 103.882C178.333 103.854 178.249 103.798 178.184 103.714C178.128 103.621 178.095 103.523 178.086 103.42C178.086 103.308 178.109 103.201 178.156 103.098C178.212 102.995 178.305 102.921 178.436 102.874C178.847 102.669 179.253 102.524 179.654 102.44C180.065 102.347 180.447 102.3 180.802 102.3C181.409 102.3 181.908 102.398 182.3 102.594C182.692 102.781 182.986 103.075 183.182 103.476C183.378 103.868 183.476 104.372 183.476 104.988V108.684C183.476 108.899 183.425 109.062 183.322 109.174C183.219 109.286 183.07 109.342 182.874 109.342C182.687 109.342 182.538 109.286 182.426 109.174C182.323 109.062 182.272 108.899 182.272 108.684V107.69H182.398C182.323 108.035 182.183 108.334 181.978 108.586C181.773 108.838 181.516 109.034 181.208 109.174C180.909 109.305 180.569 109.37 180.186 109.37ZM189.761 109.342C189.565 109.342 189.411 109.286 189.299 109.174C189.187 109.062 189.131 108.899 189.131 108.684V102.972C189.131 102.757 189.187 102.599 189.299 102.496C189.411 102.384 189.565 102.328 189.761 102.328C189.957 102.328 190.107 102.384 190.209 102.496C190.321 102.599 190.377 102.757 190.377 102.972V104.12L190.223 103.91C190.419 103.378 190.737 102.977 191.175 102.706C191.623 102.435 192.132 102.3 192.701 102.3C193.252 102.3 193.705 102.398 194.059 102.594C194.414 102.79 194.68 103.089 194.857 103.49C195.035 103.891 195.123 104.4 195.123 105.016V108.684C195.123 108.899 195.067 109.062 194.955 109.174C194.853 109.286 194.699 109.342 194.493 109.342C194.288 109.342 194.129 109.286 194.017 109.174C193.905 109.062 193.849 108.899 193.849 108.684V105.086C193.849 104.479 193.733 104.036 193.499 103.756C193.266 103.476 192.893 103.336 192.379 103.336C191.782 103.336 191.301 103.523 190.937 103.896C190.583 104.26 190.405 104.755 190.405 105.38V108.684C190.405 109.123 190.191 109.342 189.761 109.342ZM200.293 109.37C199.556 109.37 198.921 109.23 198.389 108.95C197.866 108.661 197.46 108.255 197.171 107.732C196.882 107.2 196.737 106.575 196.737 105.856C196.737 105.147 196.877 104.526 197.157 103.994C197.446 103.462 197.838 103.047 198.333 102.748C198.837 102.449 199.411 102.3 200.055 102.3C200.512 102.3 200.923 102.379 201.287 102.538C201.66 102.687 201.978 102.907 202.239 103.196C202.5 103.485 202.696 103.84 202.827 104.26C202.967 104.671 203.037 105.137 203.037 105.66C203.037 105.809 202.99 105.926 202.897 106.01C202.813 106.085 202.687 106.122 202.519 106.122H197.731V105.31H202.197L201.959 105.506C201.959 105.021 201.884 104.61 201.735 104.274C201.595 103.929 201.385 103.667 201.105 103.49C200.834 103.313 200.494 103.224 200.083 103.224C199.635 103.224 199.252 103.331 198.935 103.546C198.618 103.751 198.375 104.045 198.207 104.428C198.039 104.801 197.955 105.235 197.955 105.73V105.814C197.955 106.654 198.156 107.289 198.557 107.718C198.958 108.147 199.537 108.362 200.293 108.362C200.592 108.362 200.895 108.325 201.203 108.25C201.52 108.175 201.824 108.04 202.113 107.844C202.253 107.76 202.379 107.723 202.491 107.732C202.612 107.732 202.71 107.769 202.785 107.844C202.86 107.909 202.906 107.993 202.925 108.096C202.944 108.189 202.93 108.292 202.883 108.404C202.836 108.516 202.748 108.614 202.617 108.698C202.309 108.913 201.94 109.081 201.511 109.202C201.091 109.314 200.685 109.37 200.293 109.37ZM210.152 111.862C209.946 111.862 209.788 111.806 209.676 111.694C209.573 111.582 209.522 111.423 209.522 111.218V107.69H209.676C209.526 108.194 209.232 108.6 208.794 108.908C208.355 109.216 207.832 109.37 207.226 109.37C206.619 109.37 206.087 109.23 205.63 108.95C205.182 108.661 204.832 108.25 204.58 107.718C204.337 107.177 204.216 106.547 204.216 105.828C204.216 105.1 204.342 104.475 204.594 103.952C204.846 103.42 205.196 103.014 205.644 102.734C206.101 102.445 206.628 102.3 207.226 102.3C207.832 102.3 208.355 102.454 208.794 102.762C209.242 103.07 209.536 103.481 209.676 103.994L209.522 104.246V102.972C209.522 102.757 209.578 102.599 209.69 102.496C209.802 102.384 209.956 102.328 210.152 102.328C210.357 102.328 210.516 102.384 210.628 102.496C210.74 102.599 210.796 102.757 210.796 102.972V111.218C210.796 111.423 210.74 111.582 210.628 111.694C210.516 111.806 210.357 111.862 210.152 111.862ZM207.52 108.362C207.93 108.362 208.285 108.264 208.584 108.068C208.892 107.872 209.125 107.587 209.284 107.214C209.452 106.841 209.536 106.379 209.536 105.828C209.536 105.007 209.354 104.381 208.99 103.952C208.626 103.523 208.136 103.308 207.52 103.308C207.118 103.308 206.764 103.406 206.456 103.602C206.157 103.789 205.924 104.069 205.756 104.442C205.588 104.815 205.504 105.277 205.504 105.828C205.504 106.649 205.686 107.279 206.05 107.718C206.423 108.147 206.913 108.362 207.52 108.362ZM215.274 109.37C214.724 109.37 214.262 109.267 213.888 109.062C213.524 108.857 213.254 108.553 213.076 108.152C212.899 107.751 212.81 107.247 212.81 106.64V102.972C212.81 102.757 212.862 102.599 212.964 102.496C213.076 102.384 213.235 102.328 213.44 102.328C213.646 102.328 213.804 102.384 213.916 102.496C214.028 102.599 214.084 102.757 214.084 102.972V106.64C214.084 107.219 214.201 107.648 214.434 107.928C214.668 108.199 215.036 108.334 215.54 108.334C216.1 108.334 216.553 108.147 216.898 107.774C217.253 107.401 217.43 106.906 217.43 106.29V102.972C217.43 102.757 217.482 102.599 217.584 102.496C217.696 102.384 217.855 102.328 218.06 102.328C218.266 102.328 218.424 102.384 218.536 102.496C218.648 102.599 218.704 102.757 218.704 102.972V108.684C218.704 109.123 218.499 109.342 218.088 109.342C217.883 109.342 217.724 109.286 217.612 109.174C217.51 109.062 217.458 108.899 217.458 108.684V107.466L217.64 107.704C217.454 108.245 217.15 108.661 216.73 108.95C216.32 109.23 215.834 109.37 215.274 109.37ZM223.904 109.37C223.167 109.37 222.532 109.23 222 108.95C221.478 108.661 221.072 108.255 220.782 107.732C220.493 107.2 220.348 106.575 220.348 105.856C220.348 105.147 220.488 104.526 220.768 103.994C221.058 103.462 221.45 103.047 221.944 102.748C222.448 102.449 223.022 102.3 223.666 102.3C224.124 102.3 224.534 102.379 224.898 102.538C225.272 102.687 225.589 102.907 225.85 103.196C226.112 103.485 226.308 103.84 226.438 104.26C226.578 104.671 226.648 105.137 226.648 105.66C226.648 105.809 226.602 105.926 226.508 106.01C226.424 106.085 226.298 106.122 226.13 106.122H221.342V105.31H225.808L225.57 105.506C225.57 105.021 225.496 104.61 225.346 104.274C225.206 103.929 224.996 103.667 224.716 103.49C224.446 103.313 224.105 103.224 223.694 103.224C223.246 103.224 222.864 103.331 222.546 103.546C222.229 103.751 221.986 104.045 221.818 104.428C221.65 104.801 221.566 105.235 221.566 105.73V105.814C221.566 106.654 221.767 107.289 222.168 107.718C222.57 108.147 223.148 108.362 223.904 108.362C224.203 108.362 224.506 108.325 224.814 108.25C225.132 108.175 225.435 108.04 225.724 107.844C225.864 107.76 225.99 107.723 226.102 107.732C226.224 107.732 226.322 107.769 226.396 107.844C226.471 107.909 226.518 107.993 226.536 108.096C226.555 108.189 226.541 108.292 226.494 108.404C226.448 108.516 226.359 108.614 226.228 108.698C225.92 108.913 225.552 109.081 225.122 109.202C224.702 109.314 224.296 109.37 223.904 109.37ZM234.053 109.37C233.587 109.37 233.162 109.277 232.779 109.09C232.406 108.903 232.112 108.651 231.897 108.334C231.692 108.017 231.589 107.662 231.589 107.27C231.589 106.766 231.715 106.369 231.967 106.08C232.219 105.791 232.644 105.585 233.241 105.464C233.839 105.333 234.641 105.268 235.649 105.268H236.307V106.08H235.677C234.959 106.08 234.389 106.113 233.969 106.178C233.559 106.243 233.269 106.36 233.101 106.528C232.933 106.687 232.849 106.911 232.849 107.2C232.849 107.564 232.975 107.863 233.227 108.096C233.489 108.329 233.843 108.446 234.291 108.446C234.646 108.446 234.959 108.362 235.229 108.194C235.5 108.017 235.715 107.783 235.873 107.494C236.032 107.195 236.111 106.855 236.111 106.472V104.862C236.111 104.311 235.999 103.915 235.775 103.672C235.551 103.42 235.173 103.294 234.641 103.294C234.333 103.294 234.016 103.336 233.689 103.42C233.363 103.504 233.022 103.635 232.667 103.812C232.527 103.877 232.406 103.901 232.303 103.882C232.201 103.854 232.117 103.798 232.051 103.714C231.995 103.621 231.963 103.523 231.953 103.42C231.953 103.308 231.977 103.201 232.023 103.098C232.079 102.995 232.173 102.921 232.303 102.874C232.714 102.669 233.12 102.524 233.521 102.44C233.932 102.347 234.315 102.3 234.669 102.3C235.276 102.3 235.775 102.398 236.167 102.594C236.559 102.781 236.853 103.075 237.049 103.476C237.245 103.868 237.343 104.372 237.343 104.988V108.684C237.343 108.899 237.292 109.062 237.189 109.174C237.087 109.286 236.937 109.342 236.741 109.342C236.555 109.342 236.405 109.286 236.293 109.174C236.191 109.062 236.139 108.899 236.139 108.684V107.69H236.265C236.191 108.035 236.051 108.334 235.845 108.586C235.64 108.838 235.383 109.034 235.075 109.174C234.777 109.305 234.436 109.37 234.053 109.37ZM242.302 109.37C241.611 109.37 241.014 109.225 240.51 108.936C240.006 108.637 239.619 108.222 239.348 107.69C239.077 107.149 238.942 106.514 238.942 105.786C238.942 105.245 239.017 104.759 239.166 104.33C239.325 103.901 239.549 103.537 239.838 103.238C240.127 102.93 240.477 102.697 240.888 102.538C241.308 102.379 241.779 102.3 242.302 102.3C242.629 102.3 242.974 102.351 243.338 102.454C243.702 102.557 244.038 102.725 244.346 102.958C244.449 103.033 244.514 103.121 244.542 103.224C244.57 103.317 244.57 103.415 244.542 103.518C244.523 103.621 244.477 103.709 244.402 103.784C244.337 103.849 244.248 103.887 244.136 103.896C244.033 103.905 243.921 103.873 243.8 103.798C243.576 103.63 243.338 103.509 243.086 103.434C242.843 103.359 242.61 103.322 242.386 103.322C242.041 103.322 241.733 103.378 241.462 103.49C241.201 103.602 240.977 103.765 240.79 103.98C240.613 104.185 240.477 104.442 240.384 104.75C240.291 105.049 240.244 105.399 240.244 105.8C240.244 106.593 240.431 107.219 240.804 107.676C241.177 108.124 241.705 108.348 242.386 108.348C242.61 108.348 242.843 108.315 243.086 108.25C243.329 108.175 243.567 108.054 243.8 107.886C243.921 107.811 244.033 107.783 244.136 107.802C244.239 107.811 244.323 107.853 244.388 107.928C244.463 107.993 244.509 108.077 244.528 108.18C244.547 108.273 244.537 108.371 244.5 108.474C244.472 108.577 244.407 108.661 244.304 108.726C244.005 108.95 243.679 109.113 243.324 109.216C242.969 109.319 242.629 109.37 242.302 109.37ZM248.869 109.37C248.132 109.37 247.497 109.23 246.965 108.95C246.443 108.661 246.037 108.255 245.747 107.732C245.458 107.2 245.313 106.575 245.313 105.856C245.313 105.147 245.453 104.526 245.733 103.994C246.023 103.462 246.415 103.047 246.909 102.748C247.413 102.449 247.987 102.3 248.631 102.3C249.089 102.3 249.499 102.379 249.863 102.538C250.237 102.687 250.554 102.907 250.815 103.196C251.077 103.485 251.273 103.84 251.403 104.26C251.543 104.671 251.613 105.137 251.613 105.66C251.613 105.809 251.567 105.926 251.473 106.01C251.389 106.085 251.263 106.122 251.095 106.122H246.307V105.31H250.773L250.535 105.506C250.535 105.021 250.461 104.61 250.311 104.274C250.171 103.929 249.961 103.667 249.681 103.49C249.411 103.313 249.07 103.224 248.659 103.224C248.211 103.224 247.829 103.331 247.511 103.546C247.194 103.751 246.951 104.045 246.783 104.428C246.615 104.801 246.531 105.235 246.531 105.73V105.814C246.531 106.654 246.732 107.289 247.133 107.718C247.535 108.147 248.113 108.362 248.869 108.362C249.168 108.362 249.471 108.325 249.779 108.25C250.097 108.175 250.4 108.04 250.689 107.844C250.829 107.76 250.955 107.723 251.067 107.732C251.189 107.732 251.287 107.769 251.361 107.844C251.436 107.909 251.483 107.993 251.501 108.096C251.52 108.189 251.506 108.292 251.459 108.404C251.413 108.516 251.324 108.614 251.193 108.698C250.885 108.913 250.517 109.081 250.087 109.202C249.667 109.314 249.261 109.37 248.869 109.37ZM253.814 109.3C253.571 109.3 253.37 109.221 253.212 109.062C253.053 108.903 252.974 108.703 252.974 108.46C252.974 108.217 253.053 108.021 253.212 107.872C253.37 107.723 253.571 107.648 253.814 107.648C254.075 107.648 254.276 107.723 254.416 107.872C254.565 108.021 254.64 108.217 254.64 108.46C254.64 108.703 254.565 108.903 254.416 109.062C254.276 109.221 254.075 109.3 253.814 109.3Z" fill="#6C8184"/>
</g>
<defs>
<filter id="filter0_ddii_80_2384" x="0.865723" y="0.670654" width="334.805" height="168.963" filterUnits="userSpaceOnUse" color-interpolation-filters="sRGB">
<feFlood flood-opacity="0" result="BackgroundImageFix"/>
<feColorMatrix in="SourceAlpha" type="matrix" values="0 0 0 0 0 0 0 0 0 0 0 0 0 0 0 0 0 0 127 0" result="hardAlpha"/>
<feOffset dy="4"/>
<feGaussianBlur stdDeviation="2"/>
<feComposite in2="hardAlpha" operator="out"/>
<feColorMatrix type="matrix" values="0 0 0 0 0 0 0 0 0 0 0 0 0 0 0 0 0 0 0.1 0"/>
<feBlend mode="normal" in2="BackgroundImageFix" result="effect1_dropShadow_80_2384"/>
<feColorMatrix in="SourceAlpha" type="matrix" values="0 0 0 0 0 0 0 0 0 0 0 0 0 0 0 0 0 0 127 0" result="hardAlpha"/>
<feMorphology radius="12" operator="erode" in="SourceAlpha" result="effect2_dropShadow_80_2384"/>
<feOffset dy="12"/>
<feGaussianBlur stdDeviation="16"/>
<feComposite in2="hardAlpha" operator="out"/>
<feColorMatrix type="matrix" values="0 0 0 0 0 0 0 0 0 0 0 0 0 0 0 0 0 0 0.1 0"/>
<feBlend mode="normal" in2="effect1_dropShadow_80_2384" result="effect2_dropShadow_80_2384"/>
<feBlend mode="normal" in="SourceGraphic" in2="effect2_dropShadow_80_2384" result="shape"/>
<feColorMatrix in="SourceAlpha" type="matrix" values="0 0 0 0 0 0 0 0 0 0 0 0 0 0 0 0 0 0 127 0" result="hardAlpha"/>
<feOffset dy="6"/>
<feGaussianBlur stdDeviation="6"/>
<feComposite in2="hardAlpha" operator="arithmetic" k2="-1" k3="1"/>
<feColorMatrix type="matrix" values="0 0 0 0 1 0 0 0 0 1 0 0 0 0 1 0 0 0 0.04 0"/>
<feBlend mode="normal" in2="shape" result="effect3_innerShadow_80_2384"/>
<feColorMatrix in="SourceAlpha" type="matrix" values="0 0 0 0 0 0 0 0 0 0 0 0 0 0 0 0 0 0 127 0" result="hardAlpha"/>
<feOffset dy="1"/>
<feGaussianBlur stdDeviation="0.5"/>
<feComposite in2="hardAlpha" operator="arithmetic" k2="-1" k3="1"/>
<feColorMatrix type="matrix" values="0 0 0 0 1 0 0 0 0 1 0 0 0 0 1 0 0 0 0.2 0"/>
<feBlend mode="normal" in2="effect3_innerShadow_80_2384" result="effect4_innerShadow_80_2384"/>
</filter>
</defs>
</svg>
