<svg width="335" height="488" viewBox="0 0 335 488" fill="none" xmlns="http://www.w3.org/2000/svg">
<g filter="url(#filter0_ddii_80_2378)">
<path d="M20.1953 31.3997C20.1953 18.958 30.2813 8.87207 42.7229 8.87207H292.473C304.914 8.87207 315 18.958 315 31.3997V433.216C315 445.658 304.914 455.744 292.473 455.744H42.7229C30.2813 455.744 20.1953 445.658 20.1953 433.216V31.3997Z" fill="#F9FBFB" shape-rendering="crispEdges"/>
<path d="M49.5269 68.2622C48.9 68.2622 48.4074 68.0831 48.0492 67.7248C47.6909 67.3666 47.5118 66.8889 47.5118 66.2919C47.5118 65.6649 47.6909 65.1873 48.0492 64.8589C48.4074 64.5305 48.9 64.3663 49.5269 64.3663H54.9901V40.5431H57.3187L50.7808 44.7077C50.3031 44.9764 49.8553 45.0808 49.4374 45.0211C49.0493 44.9614 48.7059 44.7972 48.4074 44.5285C48.1387 44.2599 47.9447 43.9315 47.8253 43.5434C47.7357 43.1553 47.7655 42.7523 47.9148 42.3343C48.0939 41.9164 48.4074 41.573 48.8552 41.3044L55.0349 37.4085C55.5424 37.1099 56.0201 36.8711 56.4679 36.692C56.9455 36.483 57.3934 36.3785 57.8113 36.3785C58.3188 36.3785 58.7368 36.5278 59.0652 36.8263C59.4234 37.095 59.6025 37.5577 59.6025 38.2145V64.3663H64.6179C65.2747 64.3663 65.7822 64.5305 66.1405 64.8589C66.4987 65.1873 66.6778 65.6649 66.6778 66.2919C66.6778 66.9188 66.4987 67.4114 66.1405 67.7696C65.7822 68.098 65.2747 68.2622 64.6179 68.2622H49.5269ZM76.3777 68.2622C75.7508 68.2622 75.2582 68.0831 74.9 67.7248C74.5417 67.3666 74.3626 66.8889 74.3626 66.2919C74.3626 65.6649 74.5417 65.1873 74.9 64.8589C75.2582 64.5305 75.7508 64.3663 76.3777 64.3663H81.8409V40.5431H84.1695L77.6316 44.7077C77.1539 44.9764 76.7061 45.0808 76.2882 45.0211C75.9001 44.9614 75.5567 44.7972 75.2582 44.5285C74.9895 44.2599 74.7955 43.9315 74.6761 43.5434C74.5865 43.1553 74.6163 42.7523 74.7656 42.3343C74.9447 41.9164 75.2582 41.573 75.706 41.3044L81.8857 37.4085C82.3932 37.1099 82.8709 36.8711 83.3187 36.692C83.7963 36.483 84.2442 36.3785 84.6621 36.3785C85.1696 36.3785 85.5876 36.5278 85.916 36.8263C86.2742 37.095 86.4533 37.5577 86.4533 38.2145V64.3663H91.4687C92.1255 64.3663 92.633 64.5305 92.9913 64.8589C93.3495 65.1873 93.5286 65.6649 93.5286 66.2919C93.5286 66.9188 93.3495 67.4114 92.9913 67.7696C92.633 68.098 92.1255 68.2622 91.4687 68.2622H76.3777ZM109.722 68.6652C106.05 68.6652 103.243 67.277 101.303 64.5006C99.3923 61.6944 98.437 57.6791 98.437 52.4547C98.437 48.9021 98.8699 45.9317 99.7356 43.5434C100.601 41.1551 101.87 39.3489 103.542 38.1249C105.214 36.9009 107.274 36.2889 109.722 36.2889C113.424 36.2889 116.23 37.6622 118.14 40.4087C120.051 43.1254 121.006 47.1258 121.006 52.4099C121.006 55.9028 120.573 58.8583 119.708 61.2765C118.842 63.6946 117.573 65.5306 115.901 66.7845C114.23 68.0383 112.17 68.6652 109.722 68.6652ZM109.722 64.8141C112.02 64.8141 113.707 63.814 114.782 61.8138C115.886 59.7838 116.439 56.6491 116.439 52.4099C116.439 48.1408 115.886 45.0361 114.782 43.0956C113.707 41.1252 112.02 40.1401 109.722 40.1401C107.453 40.1401 105.766 41.1252 104.661 43.0956C103.557 45.0361 103.005 48.1408 103.005 52.4099C103.005 56.6491 103.557 59.7838 104.661 61.8138C105.766 63.814 107.453 64.8141 109.722 64.8141ZM128.557 68.5757C127.84 68.5757 127.288 68.3816 126.9 67.9935C126.512 67.5756 126.318 67.0084 126.318 66.2919V38.6623C126.318 37.916 126.512 37.3487 126.9 36.9606C127.288 36.5725 127.84 36.3785 128.557 36.3785C129.273 36.3785 129.826 36.5725 130.214 36.9606C130.632 37.3487 130.841 37.916 130.841 38.6623V55.9476H130.93L139.304 47.6184C139.782 47.1407 140.215 46.7676 140.603 46.4989C140.991 46.2302 141.498 46.0959 142.125 46.0959C142.752 46.0959 143.23 46.2601 143.558 46.5885C143.887 46.9168 144.051 47.3199 144.051 47.7975C144.051 48.2453 143.827 48.7081 143.379 49.1857L134.513 57.9627V55.858L144.185 65.4858C144.663 65.9635 144.887 66.4411 144.857 66.9188C144.827 67.3965 144.633 67.7995 144.275 68.1279C143.916 68.4264 143.469 68.5757 142.931 68.5757C142.245 68.5757 141.692 68.4413 141.274 68.1726C140.886 67.904 140.424 67.5009 139.886 66.9636L130.93 58.2762H130.841V66.2919C130.841 67.8144 130.079 68.5757 128.557 68.5757Z" fill="#0F1415"/>
<path d="M45.2059 365.494C44.9126 365.494 44.6859 365.414 44.5259 365.254C44.3659 365.08 44.2859 364.84 44.2859 364.534V352.074C44.2859 351.754 44.3659 351.514 44.5259 351.354C44.6859 351.194 44.9126 351.114 45.2059 351.114C45.5126 351.114 45.7459 351.194 45.9059 351.354C46.0659 351.514 46.1459 351.754 46.1459 352.074V357.414H54.3059V352.074C54.3059 351.754 54.3859 351.514 54.5459 351.354C54.7059 351.194 54.9393 351.114 55.2459 351.114C55.5393 351.114 55.7659 351.194 55.9259 351.354C56.0859 351.514 56.1659 351.754 56.1659 352.074V364.534C56.1659 364.84 56.0859 365.08 55.9259 365.254C55.7659 365.414 55.5393 365.494 55.2459 365.494C54.9393 365.494 54.7059 365.414 54.5459 365.254C54.3859 365.08 54.3059 364.84 54.3059 364.534V358.994H46.1459V364.534C46.1459 364.84 46.0659 365.08 45.9059 365.254C45.7593 365.414 45.5259 365.494 45.2059 365.494ZM63.8194 365.534C62.766 365.534 61.8594 365.334 61.0994 364.934C60.3527 364.52 59.7727 363.94 59.3594 363.194C58.946 362.434 58.7394 361.54 58.7394 360.514C58.7394 359.5 58.9394 358.614 59.3394 357.854C59.7527 357.094 60.3127 356.5 61.0194 356.074C61.7394 355.647 62.5594 355.434 63.4794 355.434C64.1327 355.434 64.7194 355.547 65.2394 355.774C65.7727 355.987 66.226 356.3 66.5994 356.714C66.9727 357.127 67.2527 357.634 67.4394 358.234C67.6394 358.82 67.7394 359.487 67.7394 360.234C67.7394 360.447 67.6727 360.614 67.5394 360.734C67.4194 360.84 67.2394 360.894 66.9994 360.894H60.1594V359.734H66.5394L66.1994 360.014C66.1994 359.32 66.0927 358.734 65.8794 358.254C65.6794 357.76 65.3794 357.387 64.9794 357.134C64.5927 356.88 64.106 356.754 63.5194 356.754C62.8794 356.754 62.3327 356.907 61.8794 357.214C61.426 357.507 61.0794 357.927 60.8394 358.474C60.5994 359.007 60.4794 359.627 60.4794 360.334V360.454C60.4794 361.654 60.766 362.56 61.3394 363.174C61.9127 363.787 62.7394 364.094 63.8194 364.094C64.246 364.094 64.6794 364.04 65.1194 363.934C65.5727 363.827 66.006 363.634 66.4194 363.354C66.6194 363.234 66.7994 363.18 66.9594 363.194C67.1327 363.194 67.2727 363.247 67.3794 363.354C67.486 363.447 67.5527 363.567 67.5794 363.714C67.606 363.847 67.586 363.994 67.5194 364.154C67.4527 364.314 67.326 364.454 67.1394 364.574C66.6994 364.88 66.1727 365.12 65.5594 365.294C64.9594 365.454 64.3794 365.534 63.8194 365.534ZM70.903 365.494C70.623 365.494 70.403 365.414 70.243 365.254C70.083 365.094 70.003 364.86 70.003 364.554V356.394C70.003 356.087 70.083 355.86 70.243 355.714C70.403 355.554 70.623 355.474 70.903 355.474C71.183 355.474 71.3963 355.554 71.543 355.714C71.703 355.86 71.783 356.087 71.783 356.394V358.034L71.563 357.734C71.843 356.974 72.2963 356.4 72.923 356.014C73.563 355.627 74.2896 355.434 75.103 355.434C75.8896 355.434 76.5363 355.574 77.043 355.854C77.5496 356.134 77.9296 356.56 78.183 357.134C78.4363 357.707 78.563 358.434 78.563 359.314V364.554C78.563 364.86 78.483 365.094 78.323 365.254C78.1763 365.414 77.9563 365.494 77.663 365.494C77.3696 365.494 77.143 365.414 76.983 365.254C76.823 365.094 76.743 364.86 76.743 364.554V359.414C76.743 358.547 76.5763 357.914 76.243 357.514C75.9096 357.114 75.3763 356.914 74.643 356.914C73.7896 356.914 73.103 357.18 72.583 357.714C72.0763 358.234 71.823 358.94 71.823 359.834V364.554C71.823 365.18 71.5163 365.494 70.903 365.494ZM85.1683 365.534C84.3149 365.534 83.5616 365.334 82.9083 364.934C82.2683 364.52 81.7683 363.934 81.4083 363.174C81.0483 362.4 80.8683 361.5 80.8683 360.474C80.8683 359.434 81.0416 358.54 81.3883 357.794C81.7483 357.034 82.2483 356.454 82.8883 356.054C83.5416 355.64 84.3016 355.434 85.1683 355.434C86.0349 355.434 86.7816 355.654 87.4083 356.094C88.0349 356.52 88.4549 357.094 88.6683 357.814H88.4483V352.034C88.4483 351.727 88.5216 351.5 88.6683 351.354C88.8283 351.194 89.0549 351.114 89.3483 351.114C89.6416 351.114 89.8683 351.194 90.0283 351.354C90.1883 351.5 90.2683 351.727 90.2683 352.034V364.554C90.2683 364.86 90.1883 365.094 90.0283 365.254C89.8683 365.414 89.6416 365.494 89.3483 365.494C89.0683 365.494 88.8483 365.414 88.6883 365.254C88.5283 365.094 88.4483 364.86 88.4483 364.554V362.734L88.6683 363.094C88.4683 363.84 88.0483 364.434 87.4083 364.874C86.7816 365.314 86.0349 365.534 85.1683 365.534ZM85.5883 364.094C86.1749 364.094 86.6816 363.954 87.1083 363.674C87.5483 363.394 87.8816 362.987 88.1083 362.454C88.3483 361.92 88.4683 361.26 88.4683 360.474C88.4683 359.3 88.2083 358.407 87.6883 357.794C87.1683 357.18 86.4683 356.874 85.5883 356.874C85.0149 356.874 84.5083 357.014 84.0683 357.294C83.6416 357.56 83.3083 357.96 83.0683 358.494C82.8283 359.027 82.7083 359.687 82.7083 360.474C82.7083 361.647 82.9683 362.547 83.4883 363.174C84.0216 363.787 84.7216 364.094 85.5883 364.094ZM94.1266 365.494C93.8199 365.494 93.5866 365.414 93.4266 365.254C93.2666 365.094 93.1866 364.86 93.1866 364.554V356.394C93.1866 356.087 93.2666 355.86 93.4266 355.714C93.5866 355.554 93.8066 355.474 94.0866 355.474C94.3666 355.474 94.5799 355.554 94.7266 355.714C94.8866 355.86 94.9666 356.087 94.9666 356.394V357.934H94.7666C94.9799 357.134 95.3799 356.527 95.9666 356.114C96.5532 355.7 97.2932 355.467 98.1866 355.414C98.3999 355.4 98.5732 355.454 98.7066 355.574C98.8399 355.68 98.9132 355.867 98.9266 356.134C98.9399 356.387 98.8799 356.594 98.7466 356.754C98.6132 356.9 98.4066 356.987 98.1266 357.014L97.7666 357.034C96.8866 357.127 96.2066 357.414 95.7266 357.894C95.2599 358.374 95.0266 359.034 95.0266 359.874V364.554C95.0266 364.86 94.9466 365.094 94.7866 365.254C94.6399 365.414 94.4199 365.494 94.1266 365.494ZM104.855 365.534C103.801 365.534 102.895 365.334 102.135 364.934C101.388 364.52 100.808 363.94 100.395 363.194C99.9812 362.434 99.7745 361.54 99.7745 360.514C99.7745 359.5 99.9745 358.614 100.375 357.854C100.788 357.094 101.348 356.5 102.055 356.074C102.775 355.647 103.595 355.434 104.515 355.434C105.168 355.434 105.755 355.547 106.275 355.774C106.808 355.987 107.261 356.3 107.635 356.714C108.008 357.127 108.288 357.634 108.475 358.234C108.675 358.82 108.775 359.487 108.775 360.234C108.775 360.447 108.708 360.614 108.575 360.734C108.455 360.84 108.275 360.894 108.035 360.894H101.195V359.734H107.575L107.235 360.014C107.235 359.32 107.128 358.734 106.915 358.254C106.715 357.76 106.415 357.387 106.015 357.134C105.628 356.88 105.141 356.754 104.555 356.754C103.915 356.754 103.368 356.907 102.915 357.214C102.461 357.507 102.115 357.927 101.875 358.474C101.635 359.007 101.515 359.627 101.515 360.334V360.454C101.515 361.654 101.801 362.56 102.375 363.174C102.948 363.787 103.775 364.094 104.855 364.094C105.281 364.094 105.715 364.04 106.155 363.934C106.608 363.827 107.041 363.634 107.455 363.354C107.655 363.234 107.835 363.18 107.995 363.194C108.168 363.194 108.308 363.247 108.415 363.354C108.521 363.447 108.588 363.567 108.615 363.714C108.641 363.847 108.621 363.994 108.555 364.154C108.488 364.314 108.361 364.454 108.175 364.574C107.735 364.88 107.208 365.12 106.595 365.294C105.995 365.454 105.415 365.534 104.855 365.534ZM111.978 365.494C111.671 365.494 111.438 365.414 111.278 365.254C111.118 365.094 111.038 364.86 111.038 364.554V356.394C111.038 356.087 111.118 355.86 111.278 355.714C111.438 355.554 111.658 355.474 111.938 355.474C112.218 355.474 112.431 355.554 112.578 355.714C112.738 355.86 112.818 356.087 112.818 356.394V357.934H112.618C112.831 357.134 113.231 356.527 113.818 356.114C114.405 355.7 115.145 355.467 116.038 355.414C116.251 355.4 116.425 355.454 116.558 355.574C116.691 355.68 116.765 355.867 116.778 356.134C116.791 356.387 116.731 356.594 116.598 356.754C116.465 356.9 116.258 356.987 115.978 357.014L115.618 357.034C114.738 357.127 114.058 357.414 113.578 357.894C113.111 358.374 112.878 359.034 112.878 359.874V364.554C112.878 364.86 112.798 365.094 112.638 365.254C112.491 365.414 112.271 365.494 111.978 365.494ZM119.243 365.454C118.963 365.454 118.743 365.367 118.583 365.194C118.423 365.02 118.343 364.78 118.343 364.474V356.494C118.343 356.174 118.423 355.934 118.583 355.774C118.743 355.6 118.963 355.514 119.243 355.514C119.536 355.514 119.763 355.6 119.923 355.774C120.083 355.934 120.163 356.174 120.163 356.494V364.474C120.163 364.78 120.083 365.02 119.923 365.194C119.776 365.367 119.549 365.454 119.243 365.454ZM119.243 353.354C118.883 353.354 118.596 353.26 118.383 353.074C118.183 352.874 118.083 352.614 118.083 352.294C118.083 351.947 118.183 351.687 118.383 351.514C118.596 351.327 118.883 351.234 119.243 351.234C119.629 351.234 119.916 351.327 120.103 351.514C120.303 351.687 120.403 351.947 120.403 352.294C120.403 352.614 120.303 352.874 120.103 353.074C119.916 353.26 119.629 353.354 119.243 353.354ZM127.129 365.534C126.342 365.534 125.682 365.394 125.149 365.114C124.629 364.834 124.236 364.427 123.969 363.894C123.716 363.36 123.589 362.707 123.589 361.934V357.014H122.309C122.069 357.014 121.882 356.954 121.749 356.834C121.616 356.7 121.549 356.527 121.549 356.314C121.549 356.087 121.616 355.914 121.749 355.794C121.882 355.674 122.069 355.614 122.309 355.614H123.589V353.434C123.589 353.127 123.669 352.9 123.829 352.754C123.989 352.594 124.216 352.514 124.509 352.514C124.802 352.514 125.022 352.594 125.169 352.754C125.329 352.9 125.409 353.127 125.409 353.434V355.614H127.829C128.082 355.614 128.276 355.674 128.409 355.794C128.542 355.914 128.609 356.087 128.609 356.314C128.609 356.527 128.542 356.7 128.409 356.834C128.276 356.954 128.082 357.014 127.829 357.014H125.409V361.774C125.409 362.507 125.562 363.06 125.869 363.434C126.176 363.807 126.682 363.994 127.389 363.994C127.642 363.994 127.856 363.974 128.029 363.934C128.202 363.88 128.356 363.854 128.489 363.854C128.609 363.84 128.709 363.88 128.789 363.974C128.882 364.067 128.929 364.24 128.929 364.494C128.929 364.68 128.896 364.854 128.829 365.014C128.776 365.16 128.662 365.26 128.489 365.314C128.329 365.367 128.116 365.414 127.849 365.454C127.582 365.507 127.342 365.534 127.129 365.534ZM139.192 365.534C138.338 365.534 137.585 365.334 136.932 364.934C136.292 364.52 135.792 363.934 135.432 363.174C135.072 362.4 134.892 361.5 134.892 360.474C134.892 359.434 135.065 358.54 135.412 357.794C135.772 357.034 136.272 356.454 136.912 356.054C137.565 355.64 138.325 355.434 139.192 355.434C140.058 355.434 140.805 355.654 141.432 356.094C142.058 356.52 142.478 357.094 142.692 357.814H142.472V352.034C142.472 351.727 142.545 351.5 142.692 351.354C142.852 351.194 143.078 351.114 143.372 351.114C143.665 351.114 143.892 351.194 144.052 351.354C144.212 351.5 144.292 351.727 144.292 352.034V364.554C144.292 364.86 144.212 365.094 144.052 365.254C143.892 365.414 143.665 365.494 143.372 365.494C143.092 365.494 142.872 365.414 142.712 365.254C142.552 365.094 142.472 364.86 142.472 364.554V362.734L142.692 363.094C142.492 363.84 142.072 364.434 141.432 364.874C140.805 365.314 140.058 365.534 139.192 365.534ZM139.612 364.094C140.198 364.094 140.705 363.954 141.132 363.674C141.572 363.394 141.905 362.987 142.132 362.454C142.372 361.92 142.492 361.26 142.492 360.474C142.492 359.3 142.232 358.407 141.712 357.794C141.192 357.18 140.492 356.874 139.612 356.874C139.038 356.874 138.532 357.014 138.092 357.294C137.665 357.56 137.332 357.96 137.092 358.494C136.852 359.027 136.732 359.687 136.732 360.474C136.732 361.647 136.992 362.547 137.512 363.174C138.045 363.787 138.745 364.094 139.612 364.094ZM151.35 365.534C150.39 365.534 149.557 365.327 148.85 364.914C148.143 364.5 147.597 363.914 147.21 363.154C146.823 362.394 146.63 361.5 146.63 360.474C146.63 359.7 146.737 359.007 146.95 358.394C147.177 357.767 147.497 357.234 147.91 356.794C148.323 356.354 148.817 356.02 149.39 355.794C149.977 355.554 150.63 355.434 151.35 355.434C152.31 355.434 153.143 355.64 153.85 356.054C154.557 356.467 155.103 357.054 155.49 357.814C155.877 358.56 156.07 359.447 156.07 360.474C156.07 361.247 155.957 361.947 155.73 362.574C155.517 363.2 155.203 363.734 154.79 364.174C154.377 364.614 153.877 364.954 153.29 365.194C152.717 365.42 152.07 365.534 151.35 365.534ZM151.35 364.094C151.937 364.094 152.443 363.954 152.87 363.674C153.31 363.394 153.643 362.987 153.87 362.454C154.11 361.92 154.23 361.26 154.23 360.474C154.23 359.3 153.97 358.407 153.45 357.794C152.93 357.18 152.23 356.874 151.35 356.874C150.777 356.874 150.27 357.014 149.83 357.294C149.403 357.56 149.07 357.96 148.83 358.494C148.59 359.027 148.47 359.687 148.47 360.474C148.47 361.647 148.73 362.547 149.25 363.174C149.783 363.787 150.483 364.094 151.35 364.094ZM159.301 365.494C159.021 365.494 158.801 365.414 158.641 365.254C158.481 365.094 158.401 364.86 158.401 364.554V356.394C158.401 356.087 158.481 355.86 158.641 355.714C158.801 355.554 159.021 355.474 159.301 355.474C159.581 355.474 159.795 355.554 159.941 355.714C160.101 355.86 160.181 356.087 160.181 356.394V358.034L159.961 357.734C160.241 356.974 160.695 356.4 161.321 356.014C161.961 355.627 162.688 355.434 163.501 355.434C164.288 355.434 164.935 355.574 165.441 355.854C165.948 356.134 166.328 356.56 166.581 357.134C166.835 357.707 166.961 358.434 166.961 359.314V364.554C166.961 364.86 166.881 365.094 166.721 365.254C166.575 365.414 166.355 365.494 166.061 365.494C165.768 365.494 165.541 365.414 165.381 365.254C165.221 365.094 165.141 364.86 165.141 364.554V359.414C165.141 358.547 164.975 357.914 164.641 357.514C164.308 357.114 163.775 356.914 163.041 356.914C162.188 356.914 161.501 357.18 160.981 357.714C160.475 358.234 160.221 358.94 160.221 359.834V364.554C160.221 365.18 159.915 365.494 159.301 365.494ZM174.347 365.534C173.293 365.534 172.387 365.334 171.627 364.934C170.88 364.52 170.3 363.94 169.887 363.194C169.473 362.434 169.267 361.54 169.267 360.514C169.267 359.5 169.467 358.614 169.867 357.854C170.28 357.094 170.84 356.5 171.547 356.074C172.267 355.647 173.087 355.434 174.007 355.434C174.66 355.434 175.247 355.547 175.767 355.774C176.3 355.987 176.753 356.3 177.127 356.714C177.5 357.127 177.78 357.634 177.967 358.234C178.167 358.82 178.267 359.487 178.267 360.234C178.267 360.447 178.2 360.614 178.067 360.734C177.947 360.84 177.767 360.894 177.527 360.894H170.687V359.734H177.067L176.727 360.014C176.727 359.32 176.62 358.734 176.407 358.254C176.207 357.76 175.907 357.387 175.507 357.134C175.12 356.88 174.633 356.754 174.047 356.754C173.407 356.754 172.86 356.907 172.407 357.214C171.953 357.507 171.607 357.927 171.367 358.474C171.127 359.007 171.007 359.627 171.007 360.334V360.454C171.007 361.654 171.293 362.56 171.867 363.174C172.44 363.787 173.267 364.094 174.347 364.094C174.773 364.094 175.207 364.04 175.647 363.934C176.1 363.827 176.533 363.634 176.947 363.354C177.147 363.234 177.327 363.18 177.487 363.194C177.66 363.194 177.8 363.247 177.907 363.354C178.013 363.447 178.08 363.567 178.107 363.714C178.133 363.847 178.113 363.994 178.047 364.154C177.98 364.314 177.853 364.454 177.667 364.574C177.227 364.88 176.7 365.12 176.087 365.294C175.487 365.454 174.907 365.534 174.347 365.534ZM184.75 365.534C183.764 365.534 182.91 365.327 182.19 364.914C181.47 364.487 180.917 363.894 180.53 363.134C180.144 362.36 179.95 361.454 179.95 360.414C179.95 359.64 180.057 358.947 180.27 358.334C180.497 357.72 180.817 357.2 181.23 356.774C181.644 356.334 182.144 356 182.73 355.774C183.33 355.547 184.004 355.434 184.75 355.434C185.217 355.434 185.71 355.507 186.23 355.654C186.75 355.8 187.23 356.04 187.67 356.374C187.817 356.48 187.91 356.607 187.95 356.754C187.99 356.887 187.99 357.027 187.95 357.174C187.924 357.32 187.857 357.447 187.75 357.554C187.657 357.647 187.53 357.7 187.37 357.714C187.224 357.727 187.064 357.68 186.89 357.574C186.57 357.334 186.23 357.16 185.87 357.054C185.524 356.947 185.19 356.894 184.87 356.894C184.377 356.894 183.937 356.974 183.55 357.134C183.177 357.294 182.857 357.527 182.59 357.834C182.337 358.127 182.144 358.494 182.01 358.934C181.877 359.36 181.81 359.86 181.81 360.434C181.81 361.567 182.077 362.46 182.61 363.114C183.144 363.754 183.897 364.074 184.87 364.074C185.19 364.074 185.524 364.027 185.87 363.934C186.217 363.827 186.557 363.654 186.89 363.414C187.064 363.307 187.224 363.267 187.37 363.294C187.517 363.307 187.637 363.367 187.73 363.474C187.837 363.567 187.904 363.687 187.93 363.834C187.957 363.967 187.944 364.107 187.89 364.254C187.85 364.4 187.757 364.52 187.61 364.614C187.184 364.934 186.717 365.167 186.21 365.314C185.704 365.46 185.217 365.534 184.75 365.534ZM196.522 365.494C196.229 365.494 196.002 365.414 195.842 365.254C195.682 365.094 195.602 364.86 195.602 364.554V357.014H194.402C194.162 357.014 193.975 356.954 193.842 356.834C193.709 356.7 193.642 356.527 193.642 356.314C193.642 356.087 193.709 355.914 193.842 355.794C193.975 355.674 194.162 355.614 194.402 355.614H196.102L195.602 356.094V355.354C195.602 354.06 195.915 353.08 196.542 352.414C197.182 351.734 198.115 351.34 199.342 351.234L199.962 351.194C200.162 351.167 200.322 351.2 200.442 351.294C200.562 351.374 200.642 351.48 200.682 351.614C200.722 351.747 200.722 351.887 200.682 352.034C200.655 352.167 200.595 352.287 200.502 352.394C200.409 352.5 200.289 352.56 200.142 352.574L199.702 352.594C198.902 352.66 198.322 352.9 197.962 353.314C197.602 353.714 197.422 354.314 197.422 355.114V355.914L197.162 355.614H199.462C199.715 355.614 199.909 355.674 200.042 355.794C200.175 355.914 200.242 356.087 200.242 356.314C200.242 356.527 200.175 356.7 200.042 356.834C199.909 356.954 199.715 357.014 199.462 357.014H197.422V364.554C197.422 365.18 197.122 365.494 196.522 365.494ZM205.319 365.534C204.532 365.534 203.872 365.387 203.339 365.094C202.819 364.8 202.432 364.367 202.179 363.794C201.926 363.22 201.799 362.5 201.799 361.634V356.394C201.799 356.087 201.872 355.86 202.019 355.714C202.179 355.554 202.406 355.474 202.699 355.474C202.992 355.474 203.219 355.554 203.379 355.714C203.539 355.86 203.619 356.087 203.619 356.394V361.634C203.619 362.46 203.786 363.074 204.119 363.474C204.452 363.86 204.979 364.054 205.699 364.054C206.499 364.054 207.146 363.787 207.639 363.254C208.146 362.72 208.399 362.014 208.399 361.134V356.394C208.399 356.087 208.472 355.86 208.619 355.714C208.779 355.554 209.006 355.474 209.299 355.474C209.592 355.474 209.819 355.554 209.979 355.714C210.139 355.86 210.219 356.087 210.219 356.394V364.554C210.219 365.18 209.926 365.494 209.339 365.494C209.046 365.494 208.819 365.414 208.659 365.254C208.512 365.094 208.439 364.86 208.439 364.554V362.814L208.699 363.154C208.432 363.927 207.999 364.52 207.399 364.934C206.812 365.334 206.119 365.534 205.319 365.534ZM216.508 365.534C215.908 365.534 215.301 365.467 214.688 365.334C214.088 365.187 213.521 364.94 212.988 364.594C212.841 364.5 212.734 364.387 212.668 364.254C212.614 364.107 212.594 363.967 212.608 363.834C212.634 363.687 212.694 363.56 212.788 363.454C212.881 363.347 212.994 363.287 213.128 363.274C213.274 363.247 213.428 363.28 213.588 363.374C214.108 363.667 214.608 363.874 215.088 363.994C215.581 364.114 216.068 364.174 216.548 364.174C217.281 364.174 217.834 364.04 218.208 363.774C218.581 363.507 218.768 363.154 218.768 362.714C218.768 362.34 218.641 362.054 218.388 361.854C218.148 361.64 217.768 361.48 217.248 361.374L215.388 360.994C214.561 360.807 213.934 360.5 213.508 360.074C213.094 359.634 212.888 359.074 212.888 358.394C212.888 357.794 213.048 357.274 213.368 356.834C213.701 356.38 214.161 356.034 214.748 355.794C215.334 355.554 216.008 355.434 216.768 355.434C217.354 355.434 217.908 355.514 218.428 355.674C218.961 355.82 219.441 356.047 219.868 356.354C220.028 356.447 220.128 356.567 220.168 356.714C220.221 356.847 220.228 356.987 220.188 357.134C220.161 357.267 220.101 357.38 220.008 357.474C219.914 357.567 219.794 357.627 219.648 357.654C219.501 357.667 219.341 357.627 219.168 357.534C218.781 357.267 218.381 357.08 217.968 356.974C217.568 356.854 217.168 356.794 216.768 356.794C216.048 356.794 215.501 356.934 215.128 357.214C214.768 357.494 214.588 357.86 214.588 358.314C214.588 358.66 214.694 358.947 214.908 359.174C215.134 359.4 215.488 359.567 215.968 359.674L217.828 360.054C218.694 360.24 219.348 360.54 219.788 360.954C220.228 361.354 220.448 361.9 220.448 362.594C220.448 363.5 220.088 364.22 219.368 364.754C218.661 365.274 217.708 365.534 216.508 365.534ZM227.035 365.534C226.049 365.534 225.195 365.327 224.475 364.914C223.755 364.487 223.202 363.894 222.815 363.134C222.429 362.36 222.235 361.454 222.235 360.414C222.235 359.64 222.342 358.947 222.555 358.334C222.782 357.72 223.102 357.2 223.515 356.774C223.929 356.334 224.429 356 225.015 355.774C225.615 355.547 226.289 355.434 227.035 355.434C227.502 355.434 227.995 355.507 228.515 355.654C229.035 355.8 229.515 356.04 229.955 356.374C230.102 356.48 230.195 356.607 230.235 356.754C230.275 356.887 230.275 357.027 230.235 357.174C230.209 357.32 230.142 357.447 230.035 357.554C229.942 357.647 229.815 357.7 229.655 357.714C229.509 357.727 229.349 357.68 229.175 357.574C228.855 357.334 228.515 357.16 228.155 357.054C227.809 356.947 227.475 356.894 227.155 356.894C226.662 356.894 226.222 356.974 225.835 357.134C225.462 357.294 225.142 357.527 224.875 357.834C224.622 358.127 224.429 358.494 224.295 358.934C224.162 359.36 224.095 359.86 224.095 360.434C224.095 361.567 224.362 362.46 224.895 363.114C225.429 363.754 226.182 364.074 227.155 364.074C227.475 364.074 227.809 364.027 228.155 363.934C228.502 363.827 228.842 363.654 229.175 363.414C229.349 363.307 229.509 363.267 229.655 363.294C229.802 363.307 229.922 363.367 230.015 363.474C230.122 363.567 230.189 363.687 230.215 363.834C230.242 363.967 230.229 364.107 230.175 364.254C230.135 364.4 230.042 364.52 229.895 364.614C229.469 364.934 229.002 365.167 228.495 365.314C227.989 365.46 227.502 365.534 227.035 365.534ZM236.417 365.534C235.364 365.534 234.457 365.334 233.697 364.934C232.95 364.52 232.37 363.94 231.957 363.194C231.544 362.434 231.337 361.54 231.337 360.514C231.337 359.5 231.537 358.614 231.937 357.854C232.35 357.094 232.91 356.5 233.617 356.074C234.337 355.647 235.157 355.434 236.077 355.434C236.73 355.434 237.317 355.547 237.837 355.774C238.37 355.987 238.824 356.3 239.197 356.714C239.57 357.127 239.85 357.634 240.037 358.234C240.237 358.82 240.337 359.487 240.337 360.234C240.337 360.447 240.27 360.614 240.137 360.734C240.017 360.84 239.837 360.894 239.597 360.894H232.757V359.734H239.137L238.797 360.014C238.797 359.32 238.69 358.734 238.477 358.254C238.277 357.76 237.977 357.387 237.577 357.134C237.19 356.88 236.704 356.754 236.117 356.754C235.477 356.754 234.93 356.907 234.477 357.214C234.024 357.507 233.677 357.927 233.437 358.474C233.197 359.007 233.077 359.627 233.077 360.334V360.454C233.077 361.654 233.364 362.56 233.937 363.174C234.51 363.787 235.337 364.094 236.417 364.094C236.844 364.094 237.277 364.04 237.717 363.934C238.17 363.827 238.604 363.634 239.017 363.354C239.217 363.234 239.397 363.18 239.557 363.194C239.73 363.194 239.87 363.247 239.977 363.354C240.084 363.447 240.15 363.567 240.177 363.714C240.204 363.847 240.184 363.994 240.117 364.154C240.05 364.314 239.924 364.454 239.737 364.574C239.297 364.88 238.77 365.12 238.157 365.294C237.557 365.454 236.977 365.534 236.417 365.534ZM250.915 365.534C250.249 365.534 249.642 365.4 249.095 365.134C248.562 364.867 248.142 364.507 247.835 364.054C247.542 363.6 247.395 363.094 247.395 362.534C247.395 361.814 247.575 361.247 247.935 360.834C248.295 360.42 248.902 360.127 249.755 359.954C250.609 359.767 251.755 359.674 253.195 359.674H254.135V360.834H253.235C252.209 360.834 251.395 360.88 250.795 360.974C250.209 361.067 249.795 361.234 249.555 361.474C249.315 361.7 249.195 362.02 249.195 362.434C249.195 362.954 249.375 363.38 249.735 363.714C250.109 364.047 250.615 364.214 251.255 364.214C251.762 364.214 252.209 364.094 252.595 363.854C252.982 363.6 253.289 363.267 253.515 362.854C253.742 362.427 253.855 361.94 253.855 361.394V359.094C253.855 358.307 253.695 357.74 253.375 357.394C253.055 357.034 252.515 356.854 251.755 356.854C251.315 356.854 250.862 356.914 250.395 357.034C249.929 357.154 249.442 357.34 248.935 357.594C248.735 357.687 248.562 357.72 248.415 357.694C248.269 357.654 248.149 357.574 248.055 357.454C247.975 357.32 247.929 357.18 247.915 357.034C247.915 356.874 247.949 356.72 248.015 356.574C248.095 356.427 248.229 356.32 248.415 356.254C249.002 355.96 249.582 355.754 250.155 355.634C250.742 355.5 251.289 355.434 251.795 355.434C252.662 355.434 253.375 355.574 253.935 355.854C254.495 356.12 254.915 356.54 255.195 357.114C255.475 357.674 255.615 358.394 255.615 359.274V364.554C255.615 364.86 255.542 365.094 255.395 365.254C255.249 365.414 255.035 365.494 254.755 365.494C254.489 365.494 254.275 365.414 254.115 365.254C253.969 365.094 253.895 364.86 253.895 364.554V363.134H254.075C253.969 363.627 253.769 364.054 253.475 364.414C253.182 364.774 252.815 365.054 252.375 365.254C251.949 365.44 251.462 365.534 250.915 365.534ZM262.7 365.534C261.713 365.534 260.86 365.327 260.14 364.914C259.42 364.487 258.866 363.894 258.48 363.134C258.093 362.36 257.9 361.454 257.9 360.414C257.9 359.64 258.006 358.947 258.22 358.334C258.446 357.72 258.766 357.2 259.18 356.774C259.593 356.334 260.093 356 260.68 355.774C261.28 355.547 261.953 355.434 262.7 355.434C263.166 355.434 263.66 355.507 264.18 355.654C264.7 355.8 265.18 356.04 265.62 356.374C265.766 356.48 265.86 356.607 265.9 356.754C265.94 356.887 265.94 357.027 265.9 357.174C265.873 357.32 265.806 357.447 265.7 357.554C265.606 357.647 265.48 357.7 265.32 357.714C265.173 357.727 265.013 357.68 264.84 357.574C264.52 357.334 264.18 357.16 263.82 357.054C263.473 356.947 263.14 356.894 262.82 356.894C262.326 356.894 261.886 356.974 261.5 357.134C261.126 357.294 260.806 357.527 260.54 357.834C260.286 358.127 260.093 358.494 259.96 358.934C259.826 359.36 259.76 359.86 259.76 360.434C259.76 361.567 260.026 362.46 260.56 363.114C261.093 363.754 261.846 364.074 262.82 364.074C263.14 364.074 263.473 364.027 263.82 363.934C264.166 363.827 264.506 363.654 264.84 363.414C265.013 363.307 265.173 363.267 265.32 363.294C265.466 363.307 265.586 363.367 265.68 363.474C265.786 363.567 265.853 363.687 265.88 363.834C265.906 363.967 265.893 364.107 265.84 364.254C265.8 364.4 265.706 364.52 265.56 364.614C265.133 364.934 264.666 365.167 264.16 365.314C263.653 365.46 263.166 365.534 262.7 365.534ZM48.1859 395.534C47.2259 395.534 46.3926 395.327 45.6859 394.914C44.9793 394.5 44.4326 393.914 44.0459 393.154C43.6593 392.394 43.4659 391.5 43.4659 390.474C43.4659 389.7 43.5726 389.007 43.7859 388.394C44.0126 387.767 44.3326 387.234 44.7459 386.794C45.1593 386.354 45.6526 386.02 46.2259 385.794C46.8126 385.554 47.4659 385.434 48.1859 385.434C49.1459 385.434 49.9793 385.64 50.6859 386.054C51.3926 386.467 51.9393 387.054 52.3259 387.814C52.7126 388.56 52.9059 389.447 52.9059 390.474C52.9059 391.247 52.7926 391.947 52.5659 392.574C52.3526 393.2 52.0393 393.734 51.6259 394.174C51.2126 394.614 50.7126 394.954 50.1259 395.194C49.5526 395.42 48.9059 395.534 48.1859 395.534ZM48.1859 394.094C48.7726 394.094 49.2793 393.954 49.7059 393.674C50.1459 393.394 50.4793 392.987 50.7059 392.454C50.9459 391.92 51.0659 391.26 51.0659 390.474C51.0659 389.3 50.8059 388.407 50.2859 387.794C49.7659 387.18 49.0659 386.874 48.1859 386.874C47.6126 386.874 47.1059 387.014 46.6659 387.294C46.2393 387.56 45.9059 387.96 45.6659 388.494C45.4259 389.027 45.3059 389.687 45.3059 390.474C45.3059 391.647 45.5659 392.547 46.0859 393.174C46.6193 393.787 47.3193 394.094 48.1859 394.094ZM56.1773 395.494C55.8707 395.494 55.6373 395.414 55.4773 395.254C55.3173 395.094 55.2373 394.86 55.2373 394.554V386.394C55.2373 386.087 55.3173 385.86 55.4773 385.714C55.6373 385.554 55.8573 385.474 56.1373 385.474C56.4173 385.474 56.6307 385.554 56.7773 385.714C56.9373 385.86 57.0173 386.087 57.0173 386.394V387.934H56.8173C57.0307 387.134 57.4307 386.527 58.0173 386.114C58.604 385.7 59.344 385.467 60.2373 385.414C60.4507 385.4 60.624 385.454 60.7573 385.574C60.8907 385.68 60.964 385.867 60.9773 386.134C60.9907 386.387 60.9307 386.594 60.7973 386.754C60.664 386.9 60.4573 386.987 60.1773 387.014L59.8173 387.034C58.9373 387.127 58.2573 387.414 57.7773 387.894C57.3107 388.374 57.0773 389.034 57.0773 389.874V394.554C57.0773 394.86 56.9973 395.094 56.8373 395.254C56.6907 395.414 56.4707 395.494 56.1773 395.494ZM66.9053 395.534C65.852 395.534 64.9453 395.334 64.1853 394.934C63.4386 394.52 62.8586 393.94 62.4453 393.194C62.032 392.434 61.8253 391.54 61.8253 390.514C61.8253 389.5 62.0253 388.614 62.4253 387.854C62.8386 387.094 63.3986 386.5 64.1053 386.074C64.8253 385.647 65.6453 385.434 66.5653 385.434C67.2186 385.434 67.8053 385.547 68.3253 385.774C68.8586 385.987 69.312 386.3 69.6853 386.714C70.0586 387.127 70.3386 387.634 70.5253 388.234C70.7253 388.82 70.8253 389.487 70.8253 390.234C70.8253 390.447 70.7586 390.614 70.6253 390.734C70.5053 390.84 70.3253 390.894 70.0853 390.894H63.2453V389.734H69.6253L69.2853 390.014C69.2853 389.32 69.1786 388.734 68.9653 388.254C68.7653 387.76 68.4653 387.387 68.0653 387.134C67.6786 386.88 67.192 386.754 66.6053 386.754C65.9653 386.754 65.4186 386.907 64.9653 387.214C64.512 387.507 64.1653 387.927 63.9253 388.474C63.6853 389.007 63.5653 389.627 63.5653 390.334V390.454C63.5653 391.654 63.852 392.56 64.4253 393.174C64.9986 393.787 65.8253 394.094 66.9053 394.094C67.332 394.094 67.7653 394.04 68.2053 393.934C68.6586 393.827 69.092 393.634 69.5053 393.354C69.7053 393.234 69.8853 393.18 70.0453 393.194C70.2186 393.194 70.3586 393.247 70.4653 393.354C70.572 393.447 70.6386 393.567 70.6653 393.714C70.692 393.847 70.672 393.994 70.6053 394.154C70.5386 394.314 70.412 394.454 70.2253 394.574C69.7853 394.88 69.2586 395.12 68.6453 395.294C68.0453 395.454 67.4653 395.534 66.9053 395.534ZM82.5238 395.534C81.5371 395.534 80.6838 395.327 79.9638 394.914C79.2438 394.487 78.6904 393.894 78.3038 393.134C77.9171 392.36 77.7238 391.454 77.7238 390.414C77.7238 389.64 77.8304 388.947 78.0438 388.334C78.2704 387.72 78.5904 387.2 79.0038 386.774C79.4171 386.334 79.9171 386 80.5038 385.774C81.1038 385.547 81.7771 385.434 82.5238 385.434C82.9904 385.434 83.4838 385.507 84.0038 385.654C84.5238 385.8 85.0038 386.04 85.4438 386.374C85.5904 386.48 85.6838 386.607 85.7238 386.754C85.7638 386.887 85.7638 387.027 85.7238 387.174C85.6971 387.32 85.6304 387.447 85.5238 387.554C85.4304 387.647 85.3038 387.7 85.1438 387.714C84.9971 387.727 84.8371 387.68 84.6638 387.574C84.3438 387.334 84.0038 387.16 83.6438 387.054C83.2971 386.947 82.9638 386.894 82.6438 386.894C82.1504 386.894 81.7104 386.974 81.3238 387.134C80.9504 387.294 80.6304 387.527 80.3638 387.834C80.1104 388.127 79.9171 388.494 79.7837 388.934C79.6504 389.36 79.5838 389.86 79.5838 390.434C79.5838 391.567 79.8504 392.46 80.3838 393.114C80.9171 393.754 81.6704 394.074 82.6438 394.074C82.9638 394.074 83.2971 394.027 83.6438 393.934C83.9904 393.827 84.3304 393.654 84.6638 393.414C84.8371 393.307 84.9971 393.267 85.1438 393.294C85.2904 393.307 85.4104 393.367 85.5038 393.474C85.6104 393.567 85.6771 393.687 85.7038 393.834C85.7304 393.967 85.7171 394.107 85.6638 394.254C85.6238 394.4 85.5304 394.52 85.3838 394.614C84.9571 394.934 84.4904 395.167 83.9838 395.314C83.4771 395.46 82.9904 395.534 82.5238 395.534ZM91.5453 395.534C90.5853 395.534 89.752 395.327 89.0453 394.914C88.3386 394.5 87.792 393.914 87.4053 393.154C87.0186 392.394 86.8253 391.5 86.8253 390.474C86.8253 389.7 86.932 389.007 87.1453 388.394C87.372 387.767 87.692 387.234 88.1053 386.794C88.5186 386.354 89.012 386.02 89.5853 385.794C90.172 385.554 90.8253 385.434 91.5453 385.434C92.5053 385.434 93.3386 385.64 94.0453 386.054C94.752 386.467 95.2986 387.054 95.6853 387.814C96.072 388.56 96.2653 389.447 96.2653 390.474C96.2653 391.247 96.152 391.947 95.9253 392.574C95.712 393.2 95.3986 393.734 94.9853 394.174C94.572 394.614 94.072 394.954 93.4853 395.194C92.912 395.42 92.2653 395.534 91.5453 395.534ZM91.5453 394.094C92.132 394.094 92.6386 393.954 93.0653 393.674C93.5053 393.394 93.8386 392.987 94.0653 392.454C94.3053 391.92 94.4253 391.26 94.4253 390.474C94.4253 389.3 94.1653 388.407 93.6453 387.794C93.1253 387.18 92.4253 386.874 91.5453 386.874C90.972 386.874 90.4653 387.014 90.0253 387.294C89.5986 387.56 89.2653 387.96 89.0253 388.494C88.7853 389.027 88.6653 389.687 88.6653 390.474C88.6653 391.647 88.9253 392.547 89.4453 393.174C89.9786 393.787 90.6786 394.094 91.5453 394.094ZM99.4967 395.494C99.2167 395.494 98.9967 395.414 98.8367 395.254C98.6767 395.094 98.5967 394.86 98.5967 394.554V386.394C98.5967 386.087 98.6767 385.86 98.8367 385.714C98.9967 385.554 99.2167 385.474 99.4967 385.474C99.7767 385.474 99.9901 385.554 100.137 385.714C100.297 385.86 100.377 386.087 100.377 386.394V388.034L100.157 387.734C100.437 386.974 100.89 386.4 101.517 386.014C102.157 385.627 102.883 385.434 103.697 385.434C104.483 385.434 105.13 385.574 105.637 385.854C106.143 386.134 106.523 386.56 106.777 387.134C107.03 387.707 107.157 388.434 107.157 389.314V394.554C107.157 394.86 107.077 395.094 106.917 395.254C106.77 395.414 106.55 395.494 106.257 395.494C105.963 395.494 105.737 395.414 105.577 395.254C105.417 395.094 105.337 394.86 105.337 394.554V389.414C105.337 388.547 105.17 387.914 104.837 387.514C104.503 387.114 103.97 386.914 103.237 386.914C102.383 386.914 101.697 387.18 101.177 387.714C100.67 388.234 100.417 388.94 100.417 389.834V394.554C100.417 395.18 100.11 395.494 99.4967 395.494ZM113.644 395.494C113.391 395.494 113.171 395.427 112.984 395.294C112.798 395.16 112.638 394.947 112.504 394.654L109.104 386.734C109.011 386.507 108.978 386.3 109.004 386.114C109.031 385.927 109.118 385.774 109.264 385.654C109.424 385.534 109.638 385.474 109.904 385.474C110.131 385.474 110.311 385.527 110.444 385.634C110.578 385.74 110.704 385.927 110.824 386.194L113.964 393.934H113.404L116.624 386.194C116.731 385.927 116.851 385.74 116.984 385.634C117.131 385.527 117.331 385.474 117.584 385.474C117.811 385.474 117.984 385.534 118.104 385.654C118.238 385.774 118.318 385.927 118.344 386.114C118.371 386.3 118.331 386.5 118.224 386.714L114.804 394.654C114.684 394.947 114.524 395.16 114.324 395.294C114.138 395.427 113.911 395.494 113.644 395.494ZM123.201 395.534C122.534 395.534 121.927 395.4 121.381 395.134C120.847 394.867 120.427 394.507 120.121 394.054C119.827 393.6 119.681 393.094 119.681 392.534C119.681 391.814 119.861 391.247 120.221 390.834C120.581 390.42 121.187 390.127 122.041 389.954C122.894 389.767 124.041 389.674 125.481 389.674H126.421V390.834H125.521C124.494 390.834 123.681 390.88 123.081 390.974C122.494 391.067 122.081 391.234 121.841 391.474C121.601 391.7 121.481 392.02 121.481 392.434C121.481 392.954 121.661 393.38 122.021 393.714C122.394 394.047 122.901 394.214 123.541 394.214C124.047 394.214 124.494 394.094 124.881 393.854C125.267 393.6 125.574 393.267 125.801 392.854C126.027 392.427 126.141 391.94 126.141 391.394V389.094C126.141 388.307 125.981 387.74 125.661 387.394C125.341 387.034 124.801 386.854 124.041 386.854C123.601 386.854 123.147 386.914 122.681 387.034C122.214 387.154 121.727 387.34 121.221 387.594C121.021 387.687 120.847 387.72 120.701 387.694C120.554 387.654 120.434 387.574 120.341 387.454C120.261 387.32 120.214 387.18 120.201 387.034C120.201 386.874 120.234 386.72 120.301 386.574C120.381 386.427 120.514 386.32 120.701 386.254C121.287 385.96 121.867 385.754 122.441 385.634C123.027 385.5 123.574 385.434 124.081 385.434C124.947 385.434 125.661 385.574 126.221 385.854C126.781 386.12 127.201 386.54 127.481 387.114C127.761 387.674 127.901 388.394 127.901 389.274V394.554C127.901 394.86 127.827 395.094 127.681 395.254C127.534 395.414 127.321 395.494 127.041 395.494C126.774 395.494 126.561 395.414 126.401 395.254C126.254 395.094 126.181 394.86 126.181 394.554V393.134H126.361C126.254 393.627 126.054 394.054 125.761 394.414C125.467 394.774 125.101 395.054 124.661 395.254C124.234 395.44 123.747 395.534 123.201 395.534ZM133.825 395.534C132.825 395.534 132.065 395.24 131.545 394.654C131.025 394.054 130.765 393.194 130.765 392.074V382.034C130.765 381.727 130.845 381.5 131.005 381.354C131.165 381.194 131.385 381.114 131.665 381.114C131.958 381.114 132.185 381.194 132.345 381.354C132.505 381.5 132.585 381.727 132.585 382.034V391.934C132.585 392.627 132.725 393.147 133.005 393.494C133.298 393.827 133.711 393.994 134.245 393.994C134.365 393.994 134.471 393.994 134.565 393.994C134.658 393.98 134.751 393.967 134.845 393.954C134.991 393.94 135.098 393.98 135.165 394.074C135.231 394.167 135.265 394.354 135.265 394.634C135.265 394.887 135.205 395.087 135.085 395.234C134.978 395.367 134.798 395.454 134.545 395.494C134.425 395.507 134.305 395.514 134.185 395.514C134.065 395.527 133.945 395.534 133.825 395.534ZM139.84 395.534C138.84 395.534 138.08 395.24 137.56 394.654C137.04 394.054 136.78 393.194 136.78 392.074V382.034C136.78 381.727 136.86 381.5 137.02 381.354C137.18 381.194 137.4 381.114 137.68 381.114C137.974 381.114 138.2 381.194 138.36 381.354C138.52 381.5 138.6 381.727 138.6 382.034V391.934C138.6 392.627 138.74 393.147 139.02 393.494C139.314 393.827 139.727 393.994 140.26 393.994C140.38 393.994 140.487 393.994 140.58 393.994C140.674 393.98 140.767 393.967 140.86 393.954C141.007 393.94 141.114 393.98 141.18 394.074C141.247 394.167 141.28 394.354 141.28 394.634C141.28 394.887 141.22 395.087 141.1 395.234C140.994 395.367 140.814 395.454 140.56 395.494C140.44 395.507 140.32 395.514 140.2 395.514C140.08 395.527 139.96 395.534 139.84 395.534ZM143.696 395.454C143.416 395.454 143.196 395.367 143.036 395.194C142.876 395.02 142.796 394.78 142.796 394.474V386.494C142.796 386.174 142.876 385.934 143.036 385.774C143.196 385.6 143.416 385.514 143.696 385.514C143.989 385.514 144.216 385.6 144.376 385.774C144.536 385.934 144.616 386.174 144.616 386.494V394.474C144.616 394.78 144.536 395.02 144.376 395.194C144.229 395.367 144.003 395.454 143.696 395.454ZM143.696 383.354C143.336 383.354 143.049 383.26 142.836 383.074C142.636 382.874 142.536 382.614 142.536 382.294C142.536 381.947 142.636 381.687 142.836 381.514C143.049 381.327 143.336 381.234 143.696 381.234C144.083 381.234 144.369 381.327 144.556 381.514C144.756 381.687 144.856 381.947 144.856 382.294C144.856 382.614 144.756 382.874 144.556 383.074C144.369 383.26 144.083 383.354 143.696 383.354ZM150.902 395.534C150.302 395.534 149.695 395.467 149.082 395.334C148.482 395.187 147.915 394.94 147.382 394.594C147.235 394.5 147.129 394.387 147.062 394.254C147.009 394.107 146.989 393.967 147.002 393.834C147.029 393.687 147.089 393.56 147.182 393.454C147.275 393.347 147.389 393.287 147.522 393.274C147.669 393.247 147.822 393.28 147.982 393.374C148.502 393.667 149.002 393.874 149.482 393.994C149.975 394.114 150.462 394.174 150.942 394.174C151.675 394.174 152.229 394.04 152.602 393.774C152.975 393.507 153.162 393.154 153.162 392.714C153.162 392.34 153.035 392.054 152.782 391.854C152.542 391.64 152.162 391.48 151.642 391.374L149.782 390.994C148.955 390.807 148.329 390.5 147.902 390.074C147.489 389.634 147.282 389.074 147.282 388.394C147.282 387.794 147.442 387.274 147.762 386.834C148.095 386.38 148.555 386.034 149.142 385.794C149.729 385.554 150.402 385.434 151.162 385.434C151.749 385.434 152.302 385.514 152.822 385.674C153.355 385.82 153.835 386.047 154.262 386.354C154.422 386.447 154.522 386.567 154.562 386.714C154.615 386.847 154.622 386.987 154.582 387.134C154.555 387.267 154.495 387.38 154.402 387.474C154.309 387.567 154.189 387.627 154.042 387.654C153.895 387.667 153.735 387.627 153.562 387.534C153.175 387.267 152.775 387.08 152.362 386.974C151.962 386.854 151.562 386.794 151.162 386.794C150.442 386.794 149.895 386.934 149.522 387.214C149.162 387.494 148.982 387.86 148.982 388.314C148.982 388.66 149.089 388.947 149.302 389.174C149.529 389.4 149.882 389.567 150.362 389.674L152.222 390.054C153.089 390.24 153.742 390.54 154.182 390.954C154.622 391.354 154.842 391.9 154.842 392.594C154.842 393.5 154.482 394.22 153.762 394.754C153.055 395.274 152.102 395.534 150.902 395.534ZM165.905 395.534C165.118 395.534 164.458 395.387 163.925 395.094C163.405 394.8 163.018 394.367 162.765 393.794C162.512 393.22 162.385 392.5 162.385 391.634V386.394C162.385 386.087 162.458 385.86 162.605 385.714C162.765 385.554 162.992 385.474 163.285 385.474C163.578 385.474 163.805 385.554 163.965 385.714C164.125 385.86 164.205 386.087 164.205 386.394V391.634C164.205 392.46 164.372 393.074 164.705 393.474C165.038 393.86 165.565 394.054 166.285 394.054C167.085 394.054 167.732 393.787 168.225 393.254C168.732 392.72 168.985 392.014 168.985 391.134V386.394C168.985 386.087 169.058 385.86 169.205 385.714C169.365 385.554 169.592 385.474 169.885 385.474C170.178 385.474 170.405 385.554 170.565 385.714C170.725 385.86 170.805 386.087 170.805 386.394V394.554C170.805 395.18 170.512 395.494 169.925 395.494C169.632 395.494 169.405 395.414 169.245 395.254C169.098 395.094 169.025 394.86 169.025 394.554V392.814L169.285 393.154C169.018 393.927 168.585 394.52 167.985 394.934C167.398 395.334 166.705 395.534 165.905 395.534ZM174.673 395.494C174.367 395.494 174.133 395.414 173.973 395.254C173.813 395.094 173.733 394.86 173.733 394.554V386.394C173.733 386.087 173.813 385.86 173.973 385.714C174.133 385.554 174.353 385.474 174.633 385.474C174.913 385.474 175.127 385.554 175.273 385.714C175.433 385.86 175.513 386.087 175.513 386.394V387.934H175.313C175.527 387.134 175.927 386.527 176.513 386.114C177.1 385.7 177.84 385.467 178.733 385.414C178.947 385.4 179.12 385.454 179.253 385.574C179.387 385.68 179.46 385.867 179.473 386.134C179.487 386.387 179.427 386.594 179.293 386.754C179.16 386.9 178.953 386.987 178.673 387.014L178.313 387.034C177.433 387.127 176.753 387.414 176.273 387.894C175.807 388.374 175.573 389.034 175.573 389.874V394.554C175.573 394.86 175.493 395.094 175.333 395.254C175.187 395.414 174.967 395.494 174.673 395.494ZM181.938 395.494C181.658 395.494 181.438 395.414 181.278 395.254C181.118 395.094 181.038 394.86 181.038 394.554V386.394C181.038 386.087 181.118 385.86 181.278 385.714C181.438 385.554 181.658 385.474 181.938 385.474C182.218 385.474 182.431 385.554 182.578 385.714C182.738 385.86 182.818 386.087 182.818 386.394V388.034L182.598 387.734C182.878 386.974 183.331 386.4 183.958 386.014C184.598 385.627 185.325 385.434 186.138 385.434C186.925 385.434 187.571 385.574 188.078 385.854C188.585 386.134 188.965 386.56 189.218 387.134C189.471 387.707 189.598 388.434 189.598 389.314V394.554C189.598 394.86 189.518 395.094 189.358 395.254C189.211 395.414 188.991 395.494 188.698 395.494C188.405 395.494 188.178 395.414 188.018 395.254C187.858 395.094 187.778 394.86 187.778 394.554V389.414C187.778 388.547 187.611 387.914 187.278 387.514C186.945 387.114 186.411 386.914 185.678 386.914C184.825 386.914 184.138 387.18 183.618 387.714C183.111 388.234 182.858 388.94 182.858 389.834V394.554C182.858 395.18 182.551 395.494 181.938 395.494ZM195.583 395.534C194.917 395.534 194.31 395.4 193.763 395.134C193.23 394.867 192.81 394.507 192.503 394.054C192.21 393.6 192.063 393.094 192.063 392.534C192.063 391.814 192.243 391.247 192.603 390.834C192.963 390.42 193.57 390.127 194.423 389.954C195.277 389.767 196.423 389.674 197.863 389.674H198.803V390.834H197.903C196.877 390.834 196.063 390.88 195.463 390.974C194.877 391.067 194.463 391.234 194.223 391.474C193.983 391.7 193.863 392.02 193.863 392.434C193.863 392.954 194.043 393.38 194.403 393.714C194.777 394.047 195.283 394.214 195.923 394.214C196.43 394.214 196.877 394.094 197.263 393.854C197.65 393.6 197.957 393.267 198.183 392.854C198.41 392.427 198.523 391.94 198.523 391.394V389.094C198.523 388.307 198.363 387.74 198.043 387.394C197.723 387.034 197.183 386.854 196.423 386.854C195.983 386.854 195.53 386.914 195.063 387.034C194.597 387.154 194.11 387.34 193.603 387.594C193.403 387.687 193.23 387.72 193.083 387.694C192.937 387.654 192.817 387.574 192.723 387.454C192.643 387.32 192.597 387.18 192.583 387.034C192.583 386.874 192.617 386.72 192.683 386.574C192.763 386.427 192.897 386.32 193.083 386.254C193.67 385.96 194.25 385.754 194.823 385.634C195.41 385.5 195.957 385.434 196.463 385.434C197.33 385.434 198.043 385.574 198.603 385.854C199.163 386.12 199.583 386.54 199.863 387.114C200.143 387.674 200.283 388.394 200.283 389.274V394.554C200.283 394.86 200.21 395.094 200.063 395.254C199.917 395.414 199.703 395.494 199.423 395.494C199.157 395.494 198.943 395.414 198.783 395.254C198.637 395.094 198.563 394.86 198.563 394.554V393.134H198.743C198.637 393.627 198.437 394.054 198.143 394.414C197.85 394.774 197.483 395.054 197.043 395.254C196.617 395.44 196.13 395.534 195.583 395.534ZM212.502 395.534C211.542 395.534 210.709 395.327 210.002 394.914C209.296 394.5 208.749 393.914 208.362 393.154C207.976 392.394 207.782 391.5 207.782 390.474C207.782 389.7 207.889 389.007 208.102 388.394C208.329 387.767 208.649 387.234 209.062 386.794C209.476 386.354 209.969 386.02 210.542 385.794C211.129 385.554 211.782 385.434 212.502 385.434C213.462 385.434 214.296 385.64 215.002 386.054C215.709 386.467 216.256 387.054 216.642 387.814C217.029 388.56 217.222 389.447 217.222 390.474C217.222 391.247 217.109 391.947 216.882 392.574C216.669 393.2 216.356 393.734 215.942 394.174C215.529 394.614 215.029 394.954 214.442 395.194C213.869 395.42 213.222 395.534 212.502 395.534ZM212.502 394.094C213.089 394.094 213.596 393.954 214.022 393.674C214.462 393.394 214.796 392.987 215.022 392.454C215.262 391.92 215.382 391.26 215.382 390.474C215.382 389.3 215.122 388.407 214.602 387.794C214.082 387.18 213.382 386.874 212.502 386.874C211.929 386.874 211.422 387.014 210.982 387.294C210.556 387.56 210.222 387.96 209.982 388.494C209.742 389.027 209.622 389.687 209.622 390.474C209.622 391.647 209.882 392.547 210.402 393.174C210.936 393.787 211.636 394.094 212.502 394.094ZM220.494 395.494C220.187 395.494 219.954 395.414 219.794 395.254C219.634 395.094 219.554 394.86 219.554 394.554V386.394C219.554 386.087 219.634 385.86 219.794 385.714C219.954 385.554 220.174 385.474 220.454 385.474C220.734 385.474 220.947 385.554 221.094 385.714C221.254 385.86 221.334 386.087 221.334 386.394V387.934H221.134C221.347 387.134 221.747 386.527 222.334 386.114C222.92 385.7 223.66 385.467 224.554 385.414C224.767 385.4 224.94 385.454 225.074 385.574C225.207 385.68 225.28 385.867 225.294 386.134C225.307 386.387 225.247 386.594 225.114 386.754C224.98 386.9 224.774 386.987 224.494 387.014L224.134 387.034C223.254 387.127 222.574 387.414 222.094 387.894C221.627 388.374 221.394 389.034 221.394 389.874V394.554C221.394 394.86 221.314 395.094 221.154 395.254C221.007 395.414 220.787 395.494 220.494 395.494ZM231.222 395.534C230.168 395.534 229.262 395.334 228.502 394.934C227.755 394.52 227.175 393.94 226.762 393.194C226.348 392.434 226.142 391.54 226.142 390.514C226.142 389.5 226.342 388.614 226.742 387.854C227.155 387.094 227.715 386.5 228.422 386.074C229.142 385.647 229.962 385.434 230.882 385.434C231.535 385.434 232.122 385.547 232.642 385.774C233.175 385.987 233.628 386.3 234.002 386.714C234.375 387.127 234.655 387.634 234.842 388.234C235.042 388.82 235.142 389.487 235.142 390.234C235.142 390.447 235.075 390.614 234.942 390.734C234.822 390.84 234.642 390.894 234.402 390.894H227.562V389.734H233.942L233.602 390.014C233.602 389.32 233.495 388.734 233.282 388.254C233.082 387.76 232.782 387.387 232.382 387.134C231.995 386.88 231.508 386.754 230.922 386.754C230.282 386.754 229.735 386.907 229.282 387.214C228.828 387.507 228.482 387.927 228.242 388.474C228.002 389.007 227.882 389.627 227.882 390.334V390.454C227.882 391.654 228.168 392.56 228.742 393.174C229.315 393.787 230.142 394.094 231.222 394.094C231.648 394.094 232.082 394.04 232.522 393.934C232.975 393.827 233.408 393.634 233.822 393.354C234.022 393.234 234.202 393.18 234.362 393.194C234.535 393.194 234.675 393.247 234.782 393.354C234.888 393.447 234.955 393.567 234.982 393.714C235.008 393.847 234.988 393.994 234.922 394.154C234.855 394.314 234.728 394.454 234.542 394.574C234.102 394.88 233.575 395.12 232.962 395.294C232.362 395.454 231.782 395.534 231.222 395.534ZM238.345 395.494C238.065 395.494 237.845 395.414 237.685 395.254C237.525 395.094 237.445 394.86 237.445 394.554V386.394C237.445 386.087 237.525 385.86 237.685 385.714C237.845 385.554 238.065 385.474 238.345 385.474C238.625 385.474 238.839 385.554 238.985 385.714C239.145 385.86 239.225 386.087 239.225 386.394V388.094L239.005 387.734C239.259 387 239.665 386.434 240.225 386.034C240.799 385.634 241.479 385.434 242.265 385.434C243.092 385.434 243.759 385.634 244.265 386.034C244.772 386.42 245.112 387.014 245.285 387.814H245.005C245.245 387.08 245.672 386.5 246.285 386.074C246.912 385.647 247.639 385.434 248.465 385.434C249.199 385.434 249.799 385.58 250.265 385.874C250.745 386.154 251.105 386.58 251.345 387.154C251.585 387.714 251.705 388.434 251.705 389.314V394.554C251.705 394.86 251.625 395.094 251.465 395.254C251.305 395.414 251.085 395.494 250.805 395.494C250.512 395.494 250.285 395.414 250.125 395.254C249.965 395.094 249.885 394.86 249.885 394.554V389.394C249.885 388.54 249.739 387.914 249.445 387.514C249.152 387.114 248.659 386.914 247.965 386.914C247.205 386.914 246.599 387.18 246.145 387.714C245.705 388.234 245.485 388.954 245.485 389.874V394.554C245.485 394.86 245.405 395.094 245.245 395.254C245.099 395.414 244.879 395.494 244.585 395.494C244.292 395.494 244.065 395.414 243.905 395.254C243.745 395.094 243.665 394.86 243.665 394.554V389.394C243.665 388.54 243.519 387.914 243.225 387.514C242.932 387.114 242.439 386.914 241.745 386.914C240.985 386.914 240.379 387.18 239.925 387.714C239.485 388.234 239.265 388.954 239.265 389.874V394.554C239.265 395.18 238.959 395.494 238.345 395.494ZM44.9459 425.454C44.6659 425.454 44.4459 425.367 44.2859 425.194C44.1259 425.02 44.0459 424.78 44.0459 424.474V416.494C44.0459 416.174 44.1259 415.934 44.2859 415.774C44.4459 415.6 44.6659 415.514 44.9459 415.514C45.2393 415.514 45.4659 415.6 45.6259 415.774C45.7859 415.934 45.8659 416.174 45.8659 416.494V424.474C45.8659 424.78 45.7859 425.02 45.6259 425.194C45.4793 425.367 45.2526 425.454 44.9459 425.454ZM44.9459 413.354C44.5859 413.354 44.2993 413.26 44.0859 413.074C43.8859 412.874 43.7859 412.614 43.7859 412.294C43.7859 411.947 43.8859 411.687 44.0859 411.514C44.2993 411.327 44.5859 411.234 44.9459 411.234C45.3326 411.234 45.6193 411.327 45.8059 411.514C46.0059 411.687 46.1059 411.947 46.1059 412.294C46.1059 412.614 46.0059 412.874 45.8059 413.074C45.6193 413.26 45.3326 413.354 44.9459 413.354ZM49.692 429.094C49.412 429.094 49.192 429.014 49.032 428.854C48.872 428.694 48.792 428.467 48.792 428.174V416.394C48.792 416.087 48.872 415.86 49.032 415.714C49.192 415.554 49.412 415.474 49.692 415.474C49.9854 415.474 50.2054 415.554 50.352 415.714C50.512 415.86 50.592 416.087 50.592 416.394V418.214L50.372 417.854C50.5854 417.12 51.0054 416.534 51.632 416.094C52.2587 415.654 53.012 415.434 53.892 415.434C54.7587 415.434 55.512 415.64 56.152 416.054C56.792 416.454 57.292 417.034 57.652 417.794C58.012 418.54 58.192 419.434 58.192 420.474C58.192 421.5 58.012 422.4 57.652 423.174C57.3054 423.934 56.8054 424.52 56.152 424.934C55.512 425.334 54.7587 425.534 53.892 425.534C53.0254 425.534 52.2787 425.314 51.652 424.874C51.0254 424.434 50.6054 423.854 50.392 423.134H50.612V428.174C50.612 428.467 50.532 428.694 50.372 428.854C50.212 429.014 49.9854 429.094 49.692 429.094ZM53.472 424.094C54.0454 424.094 54.5454 423.954 54.972 423.674C55.412 423.394 55.752 422.987 55.992 422.454C56.232 421.92 56.352 421.26 56.352 420.474C56.352 419.3 56.092 418.407 55.572 417.794C55.052 417.18 54.352 416.874 53.472 416.874C52.8854 416.874 52.372 417.014 51.932 417.294C51.5054 417.56 51.172 417.96 50.932 418.494C50.7054 419.027 50.592 419.687 50.592 420.474C50.592 421.647 50.852 422.547 51.372 423.174C51.892 423.787 52.592 424.094 53.472 424.094ZM63.8903 425.534C63.2903 425.534 62.6836 425.467 62.0703 425.334C61.4703 425.187 60.9036 424.94 60.3703 424.594C60.2236 424.5 60.117 424.387 60.0503 424.254C59.997 424.107 59.977 423.967 59.9903 423.834C60.017 423.687 60.077 423.56 60.1703 423.454C60.2636 423.347 60.377 423.287 60.5103 423.274C60.657 423.247 60.8103 423.28 60.9703 423.374C61.4903 423.667 61.9903 423.874 62.4703 423.994C62.9636 424.114 63.4503 424.174 63.9303 424.174C64.6636 424.174 65.217 424.04 65.5903 423.774C65.9636 423.507 66.1503 423.154 66.1503 422.714C66.1503 422.34 66.0236 422.054 65.7703 421.854C65.5303 421.64 65.1503 421.48 64.6303 421.374L62.7703 420.994C61.9436 420.807 61.317 420.5 60.8903 420.074C60.477 419.634 60.2703 419.074 60.2703 418.394C60.2703 417.794 60.4303 417.274 60.7503 416.834C61.0836 416.38 61.5436 416.034 62.1303 415.794C62.717 415.554 63.3903 415.434 64.1503 415.434C64.737 415.434 65.2903 415.514 65.8103 415.674C66.3436 415.82 66.8236 416.047 67.2503 416.354C67.4103 416.447 67.5103 416.567 67.5503 416.714C67.6036 416.847 67.6103 416.987 67.5703 417.134C67.5436 417.267 67.4836 417.38 67.3903 417.474C67.297 417.567 67.177 417.627 67.0303 417.654C66.8836 417.667 66.7236 417.627 66.5503 417.534C66.1636 417.267 65.7636 417.08 65.3503 416.974C64.9503 416.854 64.5503 416.794 64.1503 416.794C63.4303 416.794 62.8836 416.934 62.5103 417.214C62.1503 417.494 61.9703 417.86 61.9703 418.314C61.9703 418.66 62.077 418.947 62.2903 419.174C62.517 419.4 62.8703 419.567 63.3503 419.674L65.2103 420.054C66.077 420.24 66.7303 420.54 67.1703 420.954C67.6103 421.354 67.8303 421.9 67.8303 422.594C67.8303 423.5 67.4703 424.22 66.7503 424.754C66.0436 425.274 65.0903 425.534 63.8903 425.534ZM73.6783 425.534C72.8916 425.534 72.2316 425.387 71.6983 425.094C71.1783 424.8 70.7916 424.367 70.5383 423.794C70.2849 423.22 70.1583 422.5 70.1583 421.634V416.394C70.1583 416.087 70.2316 415.86 70.3783 415.714C70.5383 415.554 70.7649 415.474 71.0583 415.474C71.3516 415.474 71.5783 415.554 71.7383 415.714C71.8983 415.86 71.9783 416.087 71.9783 416.394V421.634C71.9783 422.46 72.1449 423.074 72.4783 423.474C72.8116 423.86 73.3383 424.054 74.0583 424.054C74.8583 424.054 75.5049 423.787 75.9983 423.254C76.5049 422.72 76.7583 422.014 76.7583 421.134V416.394C76.7583 416.087 76.8316 415.86 76.9783 415.714C77.1383 415.554 77.3649 415.474 77.6583 415.474C77.9516 415.474 78.1783 415.554 78.3383 415.714C78.4983 415.86 78.5783 416.087 78.5783 416.394V424.554C78.5783 425.18 78.2849 425.494 77.6983 425.494C77.4049 425.494 77.1783 425.414 77.0183 425.254C76.8716 425.094 76.7983 424.86 76.7983 424.554V422.814L77.0583 423.154C76.7916 423.927 76.3583 424.52 75.7583 424.934C75.1716 425.334 74.4783 425.534 73.6783 425.534ZM82.4469 425.494C82.1669 425.494 81.9469 425.414 81.7869 425.254C81.6269 425.094 81.5469 424.86 81.5469 424.554V416.394C81.5469 416.087 81.6269 415.86 81.7869 415.714C81.9469 415.554 82.1669 415.474 82.4469 415.474C82.7269 415.474 82.9402 415.554 83.0869 415.714C83.2469 415.86 83.3269 416.087 83.3269 416.394V418.094L83.1069 417.734C83.3602 417 83.7669 416.434 84.3269 416.034C84.9002 415.634 85.5802 415.434 86.3669 415.434C87.1935 415.434 87.8602 415.634 88.3669 416.034C88.8735 416.42 89.2135 417.014 89.3869 417.814H89.1069C89.3469 417.08 89.7735 416.5 90.3869 416.074C91.0135 415.647 91.7402 415.434 92.5669 415.434C93.3002 415.434 93.9002 415.58 94.3669 415.874C94.8469 416.154 95.2069 416.58 95.4469 417.154C95.6869 417.714 95.8069 418.434 95.8069 419.314V424.554C95.8069 424.86 95.7269 425.094 95.5669 425.254C95.4069 425.414 95.1869 425.494 94.9069 425.494C94.6135 425.494 94.3869 425.414 94.2269 425.254C94.0669 425.094 93.9869 424.86 93.9869 424.554V419.394C93.9869 418.54 93.8402 417.914 93.5469 417.514C93.2535 417.114 92.7602 416.914 92.0669 416.914C91.3069 416.914 90.7002 417.18 90.2469 417.714C89.8069 418.234 89.5869 418.954 89.5869 419.874V424.554C89.5869 424.86 89.5069 425.094 89.3469 425.254C89.2002 425.414 88.9802 425.494 88.6869 425.494C88.3935 425.494 88.1669 425.414 88.0069 425.254C87.8469 425.094 87.7669 424.86 87.7669 424.554V419.394C87.7669 418.54 87.6202 417.914 87.3269 417.514C87.0335 417.114 86.5402 416.914 85.8469 416.914C85.0869 416.914 84.4802 417.18 84.0269 417.714C83.5869 418.234 83.3669 418.954 83.3669 419.874V424.554C83.3669 425.18 83.0602 425.494 82.4469 425.494ZM99.6134 425.434C99.2668 425.434 98.9801 425.32 98.7534 425.094C98.5268 424.867 98.4134 424.58 98.4134 424.234C98.4134 423.887 98.5268 423.607 98.7534 423.394C98.9801 423.18 99.2668 423.074 99.6134 423.074C99.9868 423.074 100.273 423.18 100.473 423.394C100.687 423.607 100.793 423.887 100.793 424.234C100.793 424.58 100.687 424.867 100.473 425.094C100.273 425.32 99.9868 425.434 99.6134 425.434Z" fill="#344346"/>
</g>
<defs>
<filter id="filter0_ddii_80_2378" x="0.195312" y="0.87207" width="334.805" height="486.872" filterUnits="userSpaceOnUse" color-interpolation-filters="sRGB">
<feFlood flood-opacity="0" result="BackgroundImageFix"/>
<feColorMatrix in="SourceAlpha" type="matrix" values="0 0 0 0 0 0 0 0 0 0 0 0 0 0 0 0 0 0 127 0" result="hardAlpha"/>
<feOffset dy="4"/>
<feGaussianBlur stdDeviation="2"/>
<feComposite in2="hardAlpha" operator="out"/>
<feColorMatrix type="matrix" values="0 0 0 0 0 0 0 0 0 0 0 0 0 0 0 0 0 0 0.1 0"/>
<feBlend mode="normal" in2="BackgroundImageFix" result="effect1_dropShadow_80_2378"/>
<feColorMatrix in="SourceAlpha" type="matrix" values="0 0 0 0 0 0 0 0 0 0 0 0 0 0 0 0 0 0 127 0" result="hardAlpha"/>
<feMorphology radius="12" operator="erode" in="SourceAlpha" result="effect2_dropShadow_80_2378"/>
<feOffset dy="12"/>
<feGaussianBlur stdDeviation="16"/>
<feComposite in2="hardAlpha" operator="out"/>
<feColorMatrix type="matrix" values="0 0 0 0 0 0 0 0 0 0 0 0 0 0 0 0 0 0 0.1 0"/>
<feBlend mode="normal" in2="effect1_dropShadow_80_2378" result="effect2_dropShadow_80_2378"/>
<feBlend mode="normal" in="SourceGraphic" in2="effect2_dropShadow_80_2378" result="shape"/>
<feColorMatrix in="SourceAlpha" type="matrix" values="0 0 0 0 0 0 0 0 0 0 0 0 0 0 0 0 0 0 127 0" result="hardAlpha"/>
<feOffset dy="6"/>
<feGaussianBlur stdDeviation="6"/>
<feComposite in2="hardAlpha" operator="arithmetic" k2="-1" k3="1"/>
<feColorMatrix type="matrix" values="0 0 0 0 1 0 0 0 0 1 0 0 0 0 1 0 0 0 0.04 0"/>
<feBlend mode="normal" in2="shape" result="effect3_innerShadow_80_2378"/>
<feColorMatrix in="SourceAlpha" type="matrix" values="0 0 0 0 0 0 0 0 0 0 0 0 0 0 0 0 0 0 127 0" result="hardAlpha"/>
<feOffset dy="1"/>
<feGaussianBlur stdDeviation="0.5"/>
<feComposite in2="hardAlpha" operator="arithmetic" k2="-1" k3="1"/>
<feColorMatrix type="matrix" values="0 0 0 0 1 0 0 0 0 1 0 0 0 0 1 0 0 0 0.2 0"/>
<feBlend mode="normal" in2="effect3_innerShadow_80_2378" result="effect4_innerShadow_80_2378"/>
</filter>
</defs>
</svg>
