<svg width="336" height="170" viewBox="0 0 336 170" fill="none" xmlns="http://www.w3.org/2000/svg">
<g filter="url(#filter0_ddii_80_2386)">
<path d="M20.3291 31.1983C20.3291 18.7566 30.4151 8.67065 42.8567 8.67065H292.606C305.048 8.67065 315.134 18.7566 315.134 31.1983V115.106C315.134 127.548 305.048 137.634 292.606 137.634H42.8567C30.4151 137.634 20.3291 127.548 20.3291 115.106V31.1983Z" fill="#F9FBFB" shape-rendering="crispEdges"/>
<path d="M53.9149 39.4572V45.0547M51.1161 42.256H56.7137M49.2503 50.6523H58.5795C60.6405 50.6523 62.3112 48.9816 62.3112 46.9206V37.5913C62.3112 35.5304 60.6405 33.8596 58.5795 33.8596H49.2503C47.1893 33.8596 45.5186 35.5304 45.5186 37.5913V46.9206C45.5186 48.9816 47.1893 50.6523 49.2503 50.6523Z" stroke="#0F1415" stroke-width="0.932927" stroke-linecap="round" stroke-linejoin="round"/>
<path d="M44.8157 81.7582C44.5811 81.7582 44.3997 81.6942 44.2717 81.5662C44.1437 81.4276 44.0797 81.2356 44.0797 80.9902V71.0222C44.0797 70.7662 44.1437 70.5742 44.2717 70.4462C44.3997 70.3182 44.5811 70.2542 44.8157 70.2542C45.0611 70.2542 45.2477 70.3182 45.3757 70.4462C45.5037 70.5742 45.5677 70.7662 45.5677 71.0222V80.9902C45.5677 81.2356 45.5037 81.4276 45.3757 81.5662C45.2584 81.6942 45.0717 81.7582 44.8157 81.7582ZM48.7952 84.6382C48.5712 84.6382 48.3952 84.5742 48.2672 84.4462C48.1392 84.3182 48.0752 84.1369 48.0752 83.9022V74.4782C48.0752 74.2329 48.1392 74.0516 48.2672 73.9342C48.3952 73.8062 48.5712 73.7422 48.7952 73.7422C49.0299 73.7422 49.2059 73.8062 49.3232 73.9342C49.4512 74.0516 49.5152 74.2329 49.5152 74.4782V75.9342L49.3392 75.6462C49.5099 75.0596 49.8459 74.5902 50.3472 74.2382C50.8486 73.8862 51.4512 73.7102 52.1552 73.7102C52.8486 73.7102 53.4512 73.8756 53.9632 74.2062C54.4752 74.5262 54.8752 74.9902 55.1632 75.5982C55.4512 76.1956 55.5952 76.9102 55.5952 77.7422C55.5952 78.5636 55.4512 79.2836 55.1632 79.9022C54.8859 80.5102 54.4859 80.9796 53.9632 81.3102C53.4512 81.6302 52.8486 81.7902 52.1552 81.7902C51.4619 81.7902 50.8646 81.6142 50.3632 81.2622C49.8619 80.9102 49.5259 80.4462 49.3552 79.8702H49.5312V83.9022C49.5312 84.1369 49.4672 84.3182 49.3392 84.4462C49.2112 84.5742 49.0299 84.6382 48.7952 84.6382ZM51.8192 80.6382C52.2779 80.6382 52.6779 80.5262 53.0192 80.3022C53.3712 80.0782 53.6432 79.7529 53.8352 79.3262C54.0272 78.8996 54.1232 78.3716 54.1232 77.7422C54.1232 76.8036 53.9152 76.0889 53.4992 75.5982C53.0832 75.1076 52.5232 74.8622 51.8192 74.8622C51.3499 74.8622 50.9392 74.9742 50.5872 75.1982C50.2459 75.4116 49.9792 75.7316 49.7872 76.1582C49.6059 76.5849 49.5152 77.1129 49.5152 77.7422C49.5152 78.6809 49.7232 79.4009 50.1392 79.9022C50.5552 80.3929 51.1152 80.6382 51.8192 80.6382ZM60.1538 81.7902C59.6738 81.7902 59.1885 81.7369 58.6978 81.6302C58.2178 81.5129 57.7645 81.3156 57.3378 81.0382C57.2205 80.9636 57.1352 80.8729 57.0818 80.7662C57.0392 80.6489 57.0232 80.5369 57.0338 80.4302C57.0552 80.3129 57.1032 80.2116 57.1778 80.1262C57.2525 80.0409 57.3432 79.9929 57.4498 79.9822C57.5672 79.9609 57.6898 79.9876 57.8178 80.0622C58.2338 80.2969 58.6338 80.4622 59.0178 80.5582C59.4125 80.6542 59.8018 80.7022 60.1858 80.7022C60.7725 80.7022 61.2152 80.5956 61.5138 80.3822C61.8125 80.1689 61.9618 79.8862 61.9618 79.5342C61.9618 79.2356 61.8605 79.0062 61.6578 78.8462C61.4658 78.6756 61.1618 78.5476 60.7458 78.4622L59.2578 78.1582C58.5965 78.0089 58.0952 77.7636 57.7538 77.4222C57.4232 77.0702 57.2578 76.6222 57.2578 76.0782C57.2578 75.5982 57.3858 75.1822 57.6418 74.8302C57.9085 74.4676 58.2765 74.1902 58.7458 73.9982C59.2152 73.8062 59.7538 73.7102 60.3618 73.7102C60.8312 73.7102 61.2738 73.7742 61.6898 73.9022C62.1165 74.0196 62.5005 74.2009 62.8418 74.4462C62.9698 74.5209 63.0498 74.6169 63.0818 74.7342C63.1245 74.8409 63.1298 74.9529 63.0978 75.0702C63.0765 75.1769 63.0285 75.2676 62.9538 75.3422C62.8792 75.4169 62.7832 75.4649 62.6658 75.4862C62.5485 75.4969 62.4205 75.4649 62.2818 75.3902C61.9725 75.1769 61.6525 75.0276 61.3218 74.9422C61.0018 74.8462 60.6818 74.7982 60.3618 74.7982C59.7858 74.7982 59.3485 74.9102 59.0498 75.1342C58.7618 75.3582 58.6178 75.6516 58.6178 76.0142C58.6178 76.2916 58.7032 76.5209 58.8738 76.7022C59.0552 76.8836 59.3378 77.0169 59.7218 77.1022L61.2098 77.4062C61.9032 77.5556 62.4258 77.7956 62.7778 78.1262C63.1298 78.4462 63.3058 78.8836 63.3058 79.4382C63.3058 80.1636 63.0178 80.7396 62.4418 81.1662C61.8765 81.5822 61.1138 81.7902 60.1538 81.7902ZM67.9842 81.7902C67.3549 81.7902 66.8269 81.6729 66.4002 81.4382C65.9842 81.2036 65.6749 80.8569 65.4722 80.3982C65.2696 79.9396 65.1682 79.3636 65.1682 78.6702V74.4782C65.1682 74.2329 65.2269 74.0516 65.3442 73.9342C65.4722 73.8062 65.6536 73.7422 65.8882 73.7422C66.1229 73.7422 66.3042 73.8062 66.4322 73.9342C66.5602 74.0516 66.6242 74.2329 66.6242 74.4782V78.6702C66.6242 79.3316 66.7576 79.8222 67.0242 80.1422C67.2909 80.4516 67.7122 80.6062 68.2882 80.6062C68.9282 80.6062 69.4456 80.3929 69.8402 79.9662C70.2456 79.5396 70.4482 78.9742 70.4482 78.2702V74.4782C70.4482 74.2329 70.5069 74.0516 70.6242 73.9342C70.7522 73.8062 70.9336 73.7422 71.1682 73.7422C71.4029 73.7422 71.5842 73.8062 71.7122 73.9342C71.8402 74.0516 71.9042 74.2329 71.9042 74.4782V81.0062C71.9042 81.5076 71.6696 81.7582 71.2002 81.7582C70.9656 81.7582 70.7842 81.6942 70.6562 81.5662C70.5389 81.4382 70.4802 81.2516 70.4802 81.0062V79.6142L70.6882 79.8862C70.4749 80.5049 70.1282 80.9796 69.6482 81.3102C69.1789 81.6302 68.6242 81.7902 67.9842 81.7902ZM74.9991 81.7582C74.7751 81.7582 74.5991 81.6942 74.4711 81.5662C74.3431 81.4382 74.2791 81.2516 74.2791 81.0062V74.4782C74.2791 74.2329 74.3431 74.0516 74.4711 73.9342C74.5991 73.8062 74.7751 73.7422 74.9991 73.7422C75.2231 73.7422 75.3938 73.8062 75.5111 73.9342C75.6391 74.0516 75.7031 74.2329 75.7031 74.4782V75.8382L75.5271 75.5502C75.7298 74.9636 76.0551 74.5102 76.5031 74.1902C76.9618 73.8702 77.5058 73.7102 78.1351 73.7102C78.7964 73.7102 79.3298 73.8702 79.7351 74.1902C80.1404 74.4996 80.4124 74.9742 80.5511 75.6142H80.3271C80.5191 75.0276 80.8604 74.5636 81.3511 74.2222C81.8524 73.8809 82.4338 73.7102 83.0951 73.7102C83.6818 73.7102 84.1618 73.8276 84.5351 74.0622C84.9191 74.2862 85.2071 74.6276 85.3991 75.0862C85.5911 75.5342 85.6871 76.1102 85.6871 76.8142V81.0062C85.6871 81.2516 85.6231 81.4382 85.4951 81.5662C85.3671 81.6942 85.1911 81.7582 84.9671 81.7582C84.7324 81.7582 84.5511 81.6942 84.4231 81.5662C84.2951 81.4382 84.2311 81.2516 84.2311 81.0062V76.8782C84.2311 76.1956 84.1138 75.6942 83.8791 75.3742C83.6444 75.0542 83.2498 74.8942 82.6951 74.8942C82.0871 74.8942 81.6018 75.1076 81.2391 75.5342C80.8871 75.9502 80.7111 76.5262 80.7111 77.2622V81.0062C80.7111 81.2516 80.6471 81.4382 80.5191 81.5662C80.4018 81.6942 80.2258 81.7582 79.9911 81.7582C79.7564 81.7582 79.5751 81.6942 79.4471 81.5662C79.3191 81.4382 79.2551 81.2516 79.2551 81.0062V76.8782C79.2551 76.1956 79.1378 75.6942 78.9031 75.3742C78.6684 75.0542 78.2738 74.8942 77.7191 74.8942C77.1111 74.8942 76.6258 75.1076 76.2631 75.5342C75.9111 75.9502 75.7351 76.5262 75.7351 77.2622V81.0062C75.7351 81.5076 75.4898 81.7582 74.9991 81.7582ZM95.1762 81.7902C94.4936 81.7902 93.8909 81.6302 93.3682 81.3102C92.8562 80.9796 92.4562 80.5102 92.1682 79.9022C91.8802 79.2836 91.7362 78.5636 91.7362 77.7422C91.7362 76.9102 91.8749 76.1956 92.1522 75.5982C92.4402 74.9902 92.8402 74.5262 93.3522 74.2062C93.8749 73.8756 94.4829 73.7102 95.1762 73.7102C95.8696 73.7102 96.4669 73.8862 96.9682 74.2382C97.4696 74.5796 97.8056 75.0382 97.9762 75.6142H97.8002V70.9902C97.8002 70.7449 97.8589 70.5636 97.9762 70.4462C98.1042 70.3182 98.2856 70.2542 98.5202 70.2542C98.7549 70.2542 98.9362 70.3182 99.0642 70.4462C99.1922 70.5636 99.2562 70.7449 99.2562 70.9902V81.0062C99.2562 81.2516 99.1922 81.4382 99.0642 81.5662C98.9362 81.6942 98.7549 81.7582 98.5202 81.7582C98.2962 81.7582 98.1202 81.6942 97.9922 81.5662C97.8642 81.4382 97.8002 81.2516 97.8002 81.0062V79.5502L97.9762 79.8382C97.8162 80.4356 97.4802 80.9102 96.9682 81.2622C96.4669 81.6142 95.8696 81.7902 95.1762 81.7902ZM95.5122 80.6382C95.9816 80.6382 96.3869 80.5262 96.7282 80.3022C97.0802 80.0782 97.3469 79.7529 97.5282 79.3262C97.7202 78.8996 97.8162 78.3716 97.8162 77.7422C97.8162 76.8036 97.6082 76.0889 97.1922 75.5982C96.7762 75.1076 96.2162 74.8622 95.5122 74.8622C95.0536 74.8622 94.6482 74.9742 94.2962 75.1982C93.9549 75.4116 93.6882 75.7316 93.4962 76.1582C93.3042 76.5849 93.2082 77.1129 93.2082 77.7422C93.2082 78.6809 93.4162 79.4009 93.8322 79.9022C94.2589 80.3929 94.8189 80.6382 95.5122 80.6382ZM104.903 81.7902C104.135 81.7902 103.468 81.6249 102.903 81.2942C102.338 80.9636 101.9 80.4942 101.591 79.8862C101.282 79.2782 101.127 78.5636 101.127 77.7422C101.127 77.1236 101.212 76.5689 101.383 76.0782C101.564 75.5769 101.82 75.1502 102.151 74.7982C102.482 74.4462 102.876 74.1796 103.335 73.9982C103.804 73.8062 104.327 73.7102 104.903 73.7102C105.671 73.7102 106.338 73.8756 106.903 74.2062C107.468 74.5369 107.906 75.0062 108.215 75.6142C108.524 76.2116 108.679 76.9209 108.679 77.7422C108.679 78.3609 108.588 78.9209 108.407 79.4222C108.236 79.9236 107.986 80.3502 107.655 80.7022C107.324 81.0542 106.924 81.3262 106.455 81.5182C105.996 81.6996 105.479 81.7902 104.903 81.7902ZM104.903 80.6382C105.372 80.6382 105.778 80.5262 106.119 80.3022C106.471 80.0782 106.738 79.7529 106.919 79.3262C107.111 78.8996 107.207 78.3716 107.207 77.7422C107.207 76.8036 106.999 76.0889 106.583 75.5982C106.167 75.1076 105.607 74.8622 104.903 74.8622C104.444 74.8622 104.039 74.9742 103.687 75.1982C103.346 75.4116 103.079 75.7316 102.887 76.1582C102.695 76.5849 102.599 77.1129 102.599 77.7422C102.599 78.6809 102.807 79.4009 103.223 79.9022C103.65 80.3929 104.21 80.6382 104.903 80.6382ZM112.992 81.7902C112.192 81.7902 111.584 81.5556 111.168 81.0862C110.752 80.6062 110.544 79.9182 110.544 79.0222V70.9902C110.544 70.7449 110.608 70.5636 110.736 70.4462C110.864 70.3182 111.04 70.2542 111.264 70.2542C111.499 70.2542 111.68 70.3182 111.808 70.4462C111.936 70.5636 112 70.7449 112 70.9902V78.9102C112 79.4649 112.112 79.8809 112.336 80.1582C112.571 80.4249 112.901 80.5582 113.328 80.5582C113.424 80.5582 113.509 80.5582 113.584 80.5582C113.659 80.5476 113.733 80.5369 113.808 80.5262C113.925 80.5156 114.011 80.5476 114.064 80.6222C114.117 80.6969 114.144 80.8462 114.144 81.0702C114.144 81.2729 114.096 81.4329 114 81.5502C113.915 81.6569 113.771 81.7262 113.568 81.7582C113.472 81.7689 113.376 81.7742 113.28 81.7742C113.184 81.7849 113.088 81.7902 112.992 81.7902ZM118.59 81.7902C117.822 81.7902 117.156 81.6249 116.59 81.2942C116.025 80.9636 115.588 80.4942 115.278 79.8862C114.969 79.2782 114.814 78.5636 114.814 77.7422C114.814 77.1236 114.9 76.5689 115.07 76.0782C115.252 75.5769 115.508 75.1502 115.838 74.7982C116.169 74.4462 116.564 74.1796 117.022 73.9982C117.492 73.8062 118.014 73.7102 118.59 73.7102C119.358 73.7102 120.025 73.8756 120.59 74.2062C121.156 74.5369 121.593 75.0062 121.902 75.6142C122.212 76.2116 122.366 76.9209 122.366 77.7422C122.366 78.3609 122.276 78.9209 122.094 79.4222C121.924 79.9236 121.673 80.3502 121.342 80.7022C121.012 81.0542 120.612 81.3262 120.142 81.5182C119.684 81.6996 119.166 81.7902 118.59 81.7902ZM118.59 80.6382C119.06 80.6382 119.465 80.5262 119.806 80.3022C120.158 80.0782 120.425 79.7529 120.606 79.3262C120.798 78.8996 120.894 78.3716 120.894 77.7422C120.894 76.8036 120.686 76.0889 120.27 75.5982C119.854 75.1076 119.294 74.8622 118.59 74.8622C118.132 74.8622 117.726 74.9742 117.374 75.1982C117.033 75.4116 116.766 75.7316 116.574 76.1582C116.382 76.5849 116.286 77.1129 116.286 77.7422C116.286 78.6809 116.494 79.4009 116.91 79.9022C117.337 80.3929 117.897 80.6382 118.59 80.6382ZM124.983 81.7582C124.738 81.7582 124.551 81.6942 124.423 81.5662C124.295 81.4382 124.231 81.2516 124.231 81.0062V74.4782C124.231 74.2329 124.295 74.0516 124.423 73.9342C124.551 73.8062 124.727 73.7422 124.951 73.7422C125.175 73.7422 125.346 73.8062 125.463 73.9342C125.591 74.0516 125.655 74.2329 125.655 74.4782V75.7102H125.495C125.666 75.0702 125.986 74.5849 126.455 74.2542C126.925 73.9236 127.517 73.7369 128.231 73.6942C128.402 73.6836 128.541 73.7262 128.647 73.8222C128.754 73.9076 128.813 74.0569 128.823 74.2702C128.834 74.4729 128.786 74.6382 128.679 74.7662C128.573 74.8836 128.407 74.9529 128.183 74.9742L127.895 74.9902C127.191 75.0649 126.647 75.2942 126.263 75.6782C125.89 76.0622 125.703 76.5902 125.703 77.2622V81.0062C125.703 81.2516 125.639 81.4382 125.511 81.5662C125.394 81.6942 125.218 81.7582 124.983 81.7582ZM136.935 81.7902C136.455 81.7902 135.97 81.7369 135.479 81.6302C134.999 81.5129 134.546 81.3156 134.119 81.0382C134.002 80.9636 133.916 80.8729 133.863 80.7662C133.82 80.6489 133.804 80.5369 133.815 80.4302C133.836 80.3129 133.884 80.2116 133.959 80.1262C134.034 80.0409 134.124 79.9929 134.231 79.9822C134.348 79.9609 134.471 79.9876 134.599 80.0622C135.015 80.2969 135.415 80.4622 135.799 80.5582C136.194 80.6542 136.583 80.7022 136.967 80.7022C137.554 80.7022 137.996 80.5956 138.295 80.3822C138.594 80.1689 138.743 79.8862 138.743 79.5342C138.743 79.2356 138.642 79.0062 138.439 78.8462C138.247 78.6756 137.943 78.5476 137.527 78.4622L136.039 78.1582C135.378 78.0089 134.876 77.7636 134.535 77.4222C134.204 77.0702 134.039 76.6222 134.039 76.0782C134.039 75.5982 134.167 75.1822 134.423 74.8302C134.69 74.4676 135.058 74.1902 135.527 73.9982C135.996 73.8062 136.535 73.7102 137.143 73.7102C137.612 73.7102 138.055 73.7742 138.471 73.9022C138.898 74.0196 139.282 74.2009 139.623 74.4462C139.751 74.5209 139.831 74.6169 139.863 74.7342C139.906 74.8409 139.911 74.9529 139.879 75.0702C139.858 75.1769 139.81 75.2676 139.735 75.3422C139.66 75.4169 139.564 75.4649 139.447 75.4862C139.33 75.4969 139.202 75.4649 139.063 75.3902C138.754 75.1769 138.434 75.0276 138.103 74.9422C137.783 74.8462 137.463 74.7982 137.143 74.7982C136.567 74.7982 136.13 74.9102 135.831 75.1342C135.543 75.3582 135.399 75.6516 135.399 76.0142C135.399 76.2916 135.484 76.5209 135.655 76.7022C135.836 76.8836 136.119 77.0169 136.503 77.1022L137.991 77.4062C138.684 77.5556 139.207 77.7956 139.559 78.1262C139.911 78.4462 140.087 78.8836 140.087 79.4382C140.087 80.1636 139.799 80.7396 139.223 81.1662C138.658 81.5822 137.895 81.7902 136.935 81.7902ZM142.701 81.7262C142.477 81.7262 142.301 81.6569 142.173 81.5182C142.045 81.3796 141.981 81.1876 141.981 80.9422V74.5582C141.981 74.3022 142.045 74.1102 142.173 73.9822C142.301 73.8436 142.477 73.7742 142.701 73.7742C142.936 73.7742 143.117 73.8436 143.245 73.9822C143.373 74.1102 143.437 74.3022 143.437 74.5582V80.9422C143.437 81.1876 143.373 81.3796 143.245 81.5182C143.128 81.6569 142.947 81.7262 142.701 81.7262ZM142.701 72.0462C142.413 72.0462 142.184 71.9716 142.013 71.8222C141.853 71.6622 141.773 71.4542 141.773 71.1982C141.773 70.9209 141.853 70.7129 142.013 70.5742C142.184 70.4249 142.413 70.3502 142.701 70.3502C143.011 70.3502 143.24 70.4249 143.389 70.5742C143.549 70.7129 143.629 70.9209 143.629 71.1982C143.629 71.4542 143.549 71.6622 143.389 71.8222C143.24 71.9716 143.011 72.0462 142.701 72.0462ZM149.01 81.7902C148.381 81.7902 147.853 81.6782 147.426 81.4542C147.01 81.2302 146.696 80.9049 146.482 80.4782C146.28 80.0516 146.178 79.5289 146.178 78.9102V74.9742H145.154C144.962 74.9742 144.813 74.9262 144.706 74.8302C144.6 74.7236 144.546 74.5849 144.546 74.4142C144.546 74.2329 144.6 74.0942 144.706 73.9982C144.813 73.9022 144.962 73.8542 145.154 73.8542H146.178V72.1102C146.178 71.8649 146.242 71.6836 146.37 71.5662C146.498 71.4382 146.68 71.3742 146.914 71.3742C147.149 71.3742 147.325 71.4382 147.442 71.5662C147.57 71.6836 147.634 71.8649 147.634 72.1102V73.8542H149.57C149.773 73.8542 149.928 73.9022 150.034 73.9982C150.141 74.0942 150.194 74.2329 150.194 74.4142C150.194 74.5849 150.141 74.7236 150.034 74.8302C149.928 74.9262 149.773 74.9742 149.57 74.9742H147.634V78.7822C147.634 79.3689 147.757 79.8116 148.002 80.1102C148.248 80.4089 148.653 80.5582 149.218 80.5582C149.421 80.5582 149.592 80.5422 149.73 80.5102C149.869 80.4676 149.992 80.4462 150.098 80.4462C150.194 80.4356 150.274 80.4676 150.338 80.5422C150.413 80.6169 150.45 80.7556 150.45 80.9582C150.45 81.1076 150.424 81.2462 150.37 81.3742C150.328 81.4916 150.237 81.5716 150.098 81.6142C149.97 81.6569 149.8 81.6942 149.586 81.7262C149.373 81.7689 149.181 81.7902 149.01 81.7902ZM158.165 81.7902C157.631 81.7902 157.146 81.6836 156.709 81.4702C156.282 81.2569 155.946 80.9689 155.701 80.6062C155.466 80.2436 155.349 79.8382 155.349 79.3902C155.349 78.8142 155.493 78.3609 155.781 78.0302C156.069 77.6996 156.554 77.4649 157.237 77.3262C157.919 77.1769 158.837 77.1022 159.989 77.1022H160.741V78.0302H160.021C159.199 78.0302 158.549 78.0676 158.069 78.1422C157.599 78.2169 157.269 78.3502 157.077 78.5422C156.885 78.7236 156.789 78.9796 156.789 79.3102C156.789 79.7262 156.933 80.0676 157.221 80.3342C157.519 80.6009 157.925 80.7342 158.437 80.7342C158.842 80.7342 159.199 80.6382 159.509 80.4462C159.818 80.2436 160.063 79.9769 160.245 79.6462C160.426 79.3049 160.517 78.9156 160.517 78.4782V76.6382C160.517 76.0089 160.389 75.5556 160.133 75.2782C159.877 74.9902 159.445 74.8462 158.837 74.8462C158.485 74.8462 158.122 74.8942 157.749 74.9902C157.375 75.0862 156.986 75.2356 156.581 75.4382C156.421 75.5129 156.282 75.5396 156.165 75.5182C156.047 75.4862 155.951 75.4222 155.877 75.3262C155.813 75.2196 155.775 75.1076 155.765 74.9902C155.765 74.8622 155.791 74.7396 155.845 74.6222C155.909 74.5049 156.015 74.4196 156.165 74.3662C156.634 74.1316 157.098 73.9662 157.557 73.8702C158.026 73.7636 158.463 73.7102 158.869 73.7102C159.562 73.7102 160.133 73.8222 160.581 74.0462C161.029 74.2596 161.365 74.5956 161.589 75.0542C161.813 75.5022 161.925 76.0782 161.925 76.7822V81.0062C161.925 81.2516 161.866 81.4382 161.749 81.5662C161.631 81.6942 161.461 81.7582 161.237 81.7582C161.023 81.7582 160.853 81.6942 160.725 81.5662C160.607 81.4382 160.549 81.2516 160.549 81.0062V79.8702H160.693C160.607 80.2649 160.447 80.6062 160.213 80.8942C159.978 81.1822 159.685 81.4062 159.333 81.5662C158.991 81.7156 158.602 81.7902 158.165 81.7902ZM164.968 81.7582C164.744 81.7582 164.568 81.6942 164.44 81.5662C164.312 81.4382 164.248 81.2516 164.248 81.0062V74.4782C164.248 74.2329 164.312 74.0516 164.44 73.9342C164.568 73.8062 164.744 73.7422 164.968 73.7422C165.192 73.7422 165.363 73.8062 165.48 73.9342C165.608 74.0516 165.672 74.2329 165.672 74.4782V75.8382L165.496 75.5502C165.699 74.9636 166.024 74.5102 166.472 74.1902C166.931 73.8702 167.475 73.7102 168.104 73.7102C168.765 73.7102 169.299 73.8702 169.704 74.1902C170.109 74.4996 170.381 74.9742 170.52 75.6142H170.296C170.488 75.0276 170.829 74.5636 171.32 74.2222C171.821 73.8809 172.403 73.7102 173.064 73.7102C173.651 73.7102 174.131 73.8276 174.504 74.0622C174.888 74.2862 175.176 74.6276 175.368 75.0862C175.56 75.5342 175.656 76.1102 175.656 76.8142V81.0062C175.656 81.2516 175.592 81.4382 175.464 81.5662C175.336 81.6942 175.16 81.7582 174.936 81.7582C174.701 81.7582 174.52 81.6942 174.392 81.5662C174.264 81.4382 174.2 81.2516 174.2 81.0062V76.8782C174.2 76.1956 174.083 75.6942 173.848 75.3742C173.613 75.0542 173.219 74.8942 172.664 74.8942C172.056 74.8942 171.571 75.1076 171.208 75.5342C170.856 75.9502 170.68 76.5262 170.68 77.2622V81.0062C170.68 81.2516 170.616 81.4382 170.488 81.5662C170.371 81.6942 170.195 81.7582 169.96 81.7582C169.725 81.7582 169.544 81.6942 169.416 81.5662C169.288 81.4382 169.224 81.2516 169.224 81.0062V76.8782C169.224 76.1956 169.107 75.6942 168.872 75.3742C168.637 75.0542 168.243 74.8942 167.688 74.8942C167.08 74.8942 166.595 75.1076 166.232 75.5342C165.88 75.9502 165.704 76.5262 165.704 77.2622V81.0062C165.704 81.5076 165.459 81.7582 164.968 81.7582ZM181.597 81.7902C180.754 81.7902 180.029 81.6302 179.421 81.3102C178.824 80.9796 178.36 80.5156 178.029 79.9182C177.698 79.3102 177.533 78.5956 177.533 77.7742C177.533 76.9636 177.693 76.2542 178.013 75.6462C178.344 75.0382 178.792 74.5636 179.357 74.2222C179.933 73.8809 180.589 73.7102 181.325 73.7102C181.848 73.7102 182.317 73.8009 182.733 73.9822C183.16 74.1529 183.522 74.4036 183.821 74.7342C184.12 75.0649 184.344 75.4702 184.493 75.9502C184.653 76.4196 184.733 76.9529 184.733 77.5502C184.733 77.7209 184.68 77.8542 184.573 77.9502C184.477 78.0356 184.333 78.0782 184.141 78.0782H178.669V77.1502H183.773L183.501 77.3742C183.501 76.8196 183.416 76.3502 183.245 75.9662C183.085 75.5716 182.845 75.2729 182.525 75.0702C182.216 74.8676 181.826 74.7662 181.357 74.7662C180.845 74.7662 180.408 74.8889 180.045 75.1342C179.682 75.3689 179.405 75.7049 179.213 76.1422C179.021 76.5689 178.925 77.0649 178.925 77.6302V77.7262C178.925 78.6862 179.154 79.4116 179.613 79.9022C180.072 80.3929 180.733 80.6382 181.597 80.6382C181.938 80.6382 182.285 80.5956 182.637 80.5102C183 80.4249 183.346 80.2702 183.677 80.0462C183.837 79.9502 183.981 79.9076 184.109 79.9182C184.248 79.9182 184.36 79.9609 184.445 80.0462C184.53 80.1209 184.584 80.2169 184.605 80.3342C184.626 80.4409 184.61 80.5582 184.557 80.6862C184.504 80.8142 184.402 80.9262 184.253 81.0222C183.901 81.2676 183.48 81.4596 182.989 81.5982C182.509 81.7262 182.045 81.7902 181.597 81.7902ZM187.264 81.7582C187.04 81.7582 186.864 81.6942 186.736 81.5662C186.608 81.4382 186.544 81.2516 186.544 81.0062V74.4782C186.544 74.2329 186.608 74.0516 186.736 73.9342C186.864 73.8062 187.04 73.7422 187.264 73.7422C187.488 73.7422 187.659 73.8062 187.776 73.9342C187.904 74.0516 187.968 74.2329 187.968 74.4782V75.7902L187.792 75.5502C188.016 74.9422 188.379 74.4836 188.88 74.1742C189.392 73.8649 189.973 73.7102 190.624 73.7102C191.253 73.7102 191.771 73.8222 192.176 74.0462C192.581 74.2702 192.885 74.6116 193.088 75.0702C193.291 75.5289 193.392 76.1102 193.392 76.8142V81.0062C193.392 81.2516 193.328 81.4382 193.2 81.5662C193.083 81.6942 192.907 81.7582 192.672 81.7582C192.437 81.7582 192.256 81.6942 192.128 81.5662C192 81.4382 191.936 81.2516 191.936 81.0062V76.8942C191.936 76.2009 191.803 75.6942 191.536 75.3742C191.269 75.0542 190.843 74.8942 190.256 74.8942C189.573 74.8942 189.024 75.1076 188.608 75.5342C188.203 75.9502 188 76.5156 188 77.2302V81.0062C188 81.5076 187.755 81.7582 187.264 81.7582ZM198.932 81.7902C198.303 81.7902 197.775 81.6782 197.348 81.4542C196.932 81.2302 196.618 80.9049 196.404 80.4782C196.202 80.0516 196.1 79.5289 196.1 78.9102V74.9742H195.076C194.884 74.9742 194.735 74.9262 194.628 74.8302C194.522 74.7236 194.468 74.5849 194.468 74.4142C194.468 74.2329 194.522 74.0942 194.628 73.9982C194.735 73.9022 194.884 73.8542 195.076 73.8542H196.1V72.1102C196.1 71.8649 196.164 71.6836 196.292 71.5662C196.42 71.4382 196.602 71.3742 196.836 71.3742C197.071 71.3742 197.247 71.4382 197.364 71.5662C197.492 71.6836 197.556 71.8649 197.556 72.1102V73.8542H199.492C199.695 73.8542 199.85 73.9022 199.956 73.9982C200.063 74.0942 200.116 74.2329 200.116 74.4142C200.116 74.5849 200.063 74.7236 199.956 74.8302C199.85 74.9262 199.695 74.9742 199.492 74.9742H197.556V78.7822C197.556 79.3689 197.679 79.8116 197.924 80.1102C198.17 80.4089 198.575 80.5582 199.14 80.5582C199.343 80.5582 199.514 80.5422 199.652 80.5102C199.791 80.4676 199.914 80.4462 200.02 80.4462C200.116 80.4356 200.196 80.4676 200.26 80.5422C200.335 80.6169 200.372 80.7556 200.372 80.9582C200.372 81.1076 200.346 81.2462 200.292 81.3742C200.25 81.4916 200.159 81.5716 200.02 81.6142C199.892 81.6569 199.722 81.6942 199.508 81.7262C199.295 81.7689 199.103 81.7902 198.932 81.7902Z" fill="#0F1415"/>
<path d="M44.6097 109.244C44.3857 109.244 44.2131 109.183 44.0917 109.062C43.9704 108.941 43.9097 108.768 43.9097 108.544V100.074C43.9097 99.8499 43.9704 99.6772 44.0917 99.5559C44.2131 99.4346 44.3857 99.3739 44.6097 99.3739H49.7617C49.9391 99.3739 50.0744 99.4206 50.1677 99.5139C50.2704 99.5979 50.3217 99.7239 50.3217 99.8919C50.3217 100.069 50.2704 100.205 50.1677 100.298C50.0744 100.391 49.9391 100.438 49.7617 100.438H45.1697V103.7H49.4677C49.6451 103.7 49.7804 103.747 49.8737 103.84C49.9671 103.933 50.0137 104.064 50.0137 104.232C50.0137 104.409 49.9671 104.545 49.8737 104.638C49.7804 104.722 49.6451 104.764 49.4677 104.764H45.1697V108.18H49.7617C49.9391 108.18 50.0744 108.227 50.1677 108.32C50.2704 108.404 50.3217 108.535 50.3217 108.712C50.3217 108.889 50.2704 109.025 50.1677 109.118C50.0744 109.202 49.9391 109.244 49.7617 109.244H44.6097ZM54.9562 111.89C54.4522 111.89 53.9622 111.834 53.4862 111.722C53.0195 111.61 52.5948 111.437 52.2122 111.204C52.0908 111.129 52.0068 111.041 51.9602 110.938C51.9228 110.845 51.9135 110.747 51.9322 110.644C51.9602 110.541 52.0068 110.448 52.0722 110.364C52.1468 110.289 52.2308 110.238 52.3242 110.21C52.4268 110.191 52.5295 110.215 52.6322 110.28C53.0428 110.513 53.4348 110.672 53.8082 110.756C54.1815 110.84 54.5362 110.882 54.8722 110.882C55.5348 110.882 56.0295 110.709 56.3562 110.364C56.6922 110.028 56.8602 109.533 56.8602 108.88V107.368H56.9862C56.8555 107.891 56.5615 108.306 56.1042 108.614C55.6562 108.922 55.1335 109.076 54.5362 109.076C53.9202 109.076 53.3835 108.936 52.9262 108.656C52.4688 108.367 52.1142 107.97 51.8622 107.466C51.6102 106.953 51.4842 106.36 51.4842 105.688C51.4842 105.175 51.5542 104.713 51.6942 104.302C51.8435 103.882 52.0488 103.527 52.3102 103.238C52.5808 102.939 52.9028 102.711 53.2762 102.552C53.6495 102.384 54.0695 102.3 54.5362 102.3C55.1428 102.3 55.6702 102.454 56.1182 102.762C56.5662 103.07 56.8555 103.485 56.9862 104.008L56.8322 104.204V102.972C56.8322 102.757 56.8882 102.599 57.0002 102.496C57.1122 102.384 57.2708 102.328 57.4762 102.328C57.6722 102.328 57.8262 102.384 57.9382 102.496C58.0502 102.599 58.1062 102.757 58.1062 102.972V108.712C58.1062 109.767 57.8355 110.56 57.2942 111.092C56.7622 111.624 55.9828 111.89 54.9562 111.89ZM54.8162 108.068C55.2362 108.068 55.5955 107.975 55.8942 107.788C56.2022 107.592 56.4355 107.317 56.5942 106.962C56.7622 106.598 56.8462 106.173 56.8462 105.688C56.8462 104.951 56.6642 104.372 56.3002 103.952C55.9362 103.523 55.4415 103.308 54.8162 103.308C54.3962 103.308 54.0322 103.406 53.7242 103.602C53.4255 103.789 53.1922 104.059 53.0242 104.414C52.8562 104.769 52.7722 105.193 52.7722 105.688C52.7722 106.416 52.9542 106.995 53.3182 107.424C53.6915 107.853 54.1908 108.068 54.8162 108.068ZM63.298 109.37C62.5606 109.37 61.926 109.23 61.394 108.95C60.8713 108.661 60.4653 108.255 60.176 107.732C59.8866 107.2 59.742 106.575 59.742 105.856C59.742 105.147 59.882 104.526 60.162 103.994C60.4513 103.462 60.8433 103.047 61.338 102.748C61.842 102.449 62.416 102.3 63.06 102.3C63.5173 102.3 63.928 102.379 64.292 102.538C64.6653 102.687 64.9826 102.907 65.244 103.196C65.5053 103.485 65.7013 103.84 65.832 104.26C65.972 104.671 66.042 105.137 66.042 105.66C66.042 105.809 65.9953 105.926 65.902 106.01C65.818 106.085 65.692 106.122 65.524 106.122H60.736V105.31H65.202L64.964 105.506C64.964 105.021 64.8893 104.61 64.74 104.274C64.6 103.929 64.39 103.667 64.11 103.49C63.8393 103.313 63.4986 103.224 63.088 103.224C62.64 103.224 62.2573 103.331 61.94 103.546C61.6226 103.751 61.38 104.045 61.212 104.428C61.044 104.801 60.96 105.235 60.96 105.73V105.814C60.96 106.654 61.1606 107.289 61.562 107.718C61.9633 108.147 62.542 108.362 63.298 108.362C63.5966 108.362 63.9 108.325 64.208 108.25C64.5253 108.175 64.8286 108.04 65.118 107.844C65.258 107.76 65.384 107.723 65.496 107.732C65.6173 107.732 65.7153 107.769 65.79 107.844C65.8646 107.909 65.9113 107.993 65.93 108.096C65.9486 108.189 65.9346 108.292 65.888 108.404C65.8413 108.516 65.7526 108.614 65.622 108.698C65.314 108.913 64.9453 109.081 64.516 109.202C64.096 109.314 63.69 109.37 63.298 109.37ZM69.9785 109.37C69.5585 109.37 69.1338 109.323 68.7045 109.23C68.2845 109.127 67.8878 108.955 67.5145 108.712C67.4118 108.647 67.3372 108.567 67.2905 108.474C67.2532 108.371 67.2392 108.273 67.2485 108.18C67.2672 108.077 67.3092 107.989 67.3745 107.914C67.4398 107.839 67.5192 107.797 67.6125 107.788C67.7152 107.769 67.8225 107.793 67.9345 107.858C68.2985 108.063 68.6485 108.208 68.9845 108.292C69.3298 108.376 69.6705 108.418 70.0065 108.418C70.5198 108.418 70.9072 108.325 71.1685 108.138C71.4298 107.951 71.5605 107.704 71.5605 107.396C71.5605 107.135 71.4718 106.934 71.2945 106.794C71.1265 106.645 70.8605 106.533 70.4965 106.458L69.1945 106.192C68.6158 106.061 68.1772 105.847 67.8785 105.548C67.5892 105.24 67.4445 104.848 67.4445 104.372C67.4445 103.952 67.5565 103.588 67.7805 103.28C68.0138 102.963 68.3358 102.72 68.7465 102.552C69.1572 102.384 69.6285 102.3 70.1605 102.3C70.5712 102.3 70.9585 102.356 71.3225 102.468C71.6958 102.571 72.0318 102.729 72.3305 102.944C72.4425 103.009 72.5125 103.093 72.5405 103.196C72.5778 103.289 72.5825 103.387 72.5545 103.49C72.5358 103.583 72.4938 103.663 72.4285 103.728C72.3632 103.793 72.2792 103.835 72.1765 103.854C72.0738 103.863 71.9618 103.835 71.8405 103.77C71.5698 103.583 71.2898 103.453 71.0005 103.378C70.7205 103.294 70.4405 103.252 70.1605 103.252C69.6565 103.252 69.2738 103.35 69.0125 103.546C68.7605 103.742 68.6345 103.999 68.6345 104.316C68.6345 104.559 68.7092 104.759 68.8585 104.918C69.0172 105.077 69.2645 105.193 69.6005 105.268L70.9025 105.534C71.5092 105.665 71.9665 105.875 72.2745 106.164C72.5825 106.444 72.7365 106.827 72.7365 107.312C72.7365 107.947 72.4845 108.451 71.9805 108.824C71.4858 109.188 70.8185 109.37 69.9785 109.37ZM77.1537 109.37C76.603 109.37 76.141 109.272 75.7677 109.076C75.4037 108.88 75.1284 108.595 74.9417 108.222C74.7644 107.849 74.6757 107.391 74.6757 106.85V103.406H73.7797C73.6117 103.406 73.481 103.364 73.3877 103.28C73.2944 103.187 73.2477 103.065 73.2477 102.916C73.2477 102.757 73.2944 102.636 73.3877 102.552C73.481 102.468 73.6117 102.426 73.7797 102.426H74.6757V100.9C74.6757 100.685 74.7317 100.527 74.8437 100.424C74.9557 100.312 75.1144 100.256 75.3197 100.256C75.525 100.256 75.679 100.312 75.7817 100.424C75.8937 100.527 75.9497 100.685 75.9497 100.9V102.426H77.6437C77.821 102.426 77.9564 102.468 78.0497 102.552C78.143 102.636 78.1897 102.757 78.1897 102.916C78.1897 103.065 78.143 103.187 78.0497 103.28C77.9564 103.364 77.821 103.406 77.6437 103.406H75.9497V106.738C75.9497 107.251 76.057 107.639 76.2717 107.9C76.4864 108.161 76.841 108.292 77.3357 108.292C77.513 108.292 77.6624 108.278 77.7837 108.25C77.905 108.213 78.0124 108.194 78.1057 108.194C78.1897 108.185 78.2597 108.213 78.3157 108.278C78.381 108.343 78.4137 108.465 78.4137 108.642C78.4137 108.773 78.3904 108.894 78.3437 109.006C78.3064 109.109 78.227 109.179 78.1057 109.216C77.9937 109.253 77.8444 109.286 77.6577 109.314C77.471 109.351 77.303 109.37 77.1537 109.37ZM81.5133 109.37C81.0466 109.37 80.622 109.277 80.2393 109.09C79.866 108.903 79.572 108.651 79.3573 108.334C79.152 108.017 79.0493 107.662 79.0493 107.27C79.0493 106.766 79.1753 106.369 79.4273 106.08C79.6793 105.791 80.104 105.585 80.7013 105.464C81.2986 105.333 82.1013 105.268 83.1093 105.268H83.7673V106.08H83.1373C82.4186 106.08 81.8493 106.113 81.4293 106.178C81.0186 106.243 80.7293 106.36 80.5613 106.528C80.3933 106.687 80.3093 106.911 80.3093 107.2C80.3093 107.564 80.4353 107.863 80.6873 108.096C80.9486 108.329 81.3033 108.446 81.7513 108.446C82.106 108.446 82.4186 108.362 82.6893 108.194C82.96 108.017 83.1746 107.783 83.3333 107.494C83.492 107.195 83.5713 106.855 83.5713 106.472V104.862C83.5713 104.311 83.4593 103.915 83.2353 103.672C83.0113 103.42 82.6333 103.294 82.1013 103.294C81.7933 103.294 81.476 103.336 81.1493 103.42C80.8226 103.504 80.482 103.635 80.1273 103.812C79.9873 103.877 79.866 103.901 79.7633 103.882C79.6606 103.854 79.5766 103.798 79.5113 103.714C79.4553 103.621 79.4226 103.523 79.4133 103.42C79.4133 103.308 79.4366 103.201 79.4833 103.098C79.5393 102.995 79.6326 102.921 79.7633 102.874C80.174 102.669 80.58 102.524 80.9813 102.44C81.392 102.347 81.7746 102.3 82.1293 102.3C82.736 102.3 83.2353 102.398 83.6273 102.594C84.0193 102.781 84.3133 103.075 84.5093 103.476C84.7053 103.868 84.8033 104.372 84.8033 104.988V108.684C84.8033 108.899 84.752 109.062 84.6493 109.174C84.5466 109.286 84.3973 109.342 84.2013 109.342C84.0146 109.342 83.8653 109.286 83.7533 109.174C83.6506 109.062 83.5993 108.899 83.5993 108.684V107.69H83.7253C83.6506 108.035 83.5106 108.334 83.3053 108.586C83.1 108.838 82.8433 109.034 82.5353 109.174C82.2366 109.305 81.896 109.37 81.5133 109.37ZM89.1601 109.37C88.7401 109.37 88.3155 109.323 87.8861 109.23C87.4661 109.127 87.0695 108.955 86.6961 108.712C86.5935 108.647 86.5188 108.567 86.4721 108.474C86.4348 108.371 86.4208 108.273 86.4301 108.18C86.4488 108.077 86.4908 107.989 86.5561 107.914C86.6215 107.839 86.7008 107.797 86.7941 107.788C86.8968 107.769 87.0041 107.793 87.1161 107.858C87.4801 108.063 87.8301 108.208 88.1661 108.292C88.5115 108.376 88.8521 108.418 89.1881 108.418C89.7015 108.418 90.0888 108.325 90.3501 108.138C90.6115 107.951 90.7421 107.704 90.7421 107.396C90.7421 107.135 90.6535 106.934 90.4761 106.794C90.3081 106.645 90.0421 106.533 89.6781 106.458L88.3761 106.192C87.7975 106.061 87.3588 105.847 87.0601 105.548C86.7708 105.24 86.6261 104.848 86.6261 104.372C86.6261 103.952 86.7381 103.588 86.9621 103.28C87.1955 102.963 87.5175 102.72 87.9281 102.552C88.3388 102.384 88.8101 102.3 89.3421 102.3C89.7528 102.3 90.1401 102.356 90.5041 102.468C90.8775 102.571 91.2135 102.729 91.5121 102.944C91.6241 103.009 91.6941 103.093 91.7221 103.196C91.7595 103.289 91.7641 103.387 91.7361 103.49C91.7175 103.583 91.6755 103.663 91.6101 103.728C91.5448 103.793 91.4608 103.835 91.3581 103.854C91.2555 103.863 91.1435 103.835 91.0221 103.77C90.7515 103.583 90.4715 103.453 90.1821 103.378C89.9021 103.294 89.6221 103.252 89.3421 103.252C88.8381 103.252 88.4555 103.35 88.1941 103.546C87.9421 103.742 87.8161 103.999 87.8161 104.316C87.8161 104.559 87.8908 104.759 88.0401 104.918C88.1988 105.077 88.4461 105.193 88.7821 105.268L90.0841 105.534C90.6908 105.665 91.1481 105.875 91.4561 106.164C91.7641 106.444 91.9181 106.827 91.9181 107.312C91.9181 107.947 91.6661 108.451 91.1621 108.824C90.6675 109.188 90.0001 109.37 89.1601 109.37ZM99.5781 109.37C99.1581 109.37 98.7334 109.323 98.3041 109.23C97.8841 109.127 97.4874 108.955 97.1141 108.712C97.0114 108.647 96.9368 108.567 96.8901 108.474C96.8528 108.371 96.8388 108.273 96.8481 108.18C96.8668 108.077 96.9088 107.989 96.9741 107.914C97.0394 107.839 97.1188 107.797 97.2121 107.788C97.3148 107.769 97.4221 107.793 97.5341 107.858C97.8981 108.063 98.2481 108.208 98.5841 108.292C98.9294 108.376 99.2701 108.418 99.6061 108.418C100.119 108.418 100.507 108.325 100.768 108.138C101.029 107.951 101.16 107.704 101.16 107.396C101.16 107.135 101.071 106.934 100.894 106.794C100.726 106.645 100.46 106.533 100.096 106.458L98.7941 106.192C98.2154 106.061 97.7768 105.847 97.4781 105.548C97.1888 105.24 97.0441 104.848 97.0441 104.372C97.0441 103.952 97.1561 103.588 97.3801 103.28C97.6134 102.963 97.9354 102.72 98.3461 102.552C98.7568 102.384 99.2281 102.3 99.7601 102.3C100.171 102.3 100.558 102.356 100.922 102.468C101.295 102.571 101.631 102.729 101.93 102.944C102.042 103.009 102.112 103.093 102.14 103.196C102.177 103.289 102.182 103.387 102.154 103.49C102.135 103.583 102.093 103.663 102.028 103.728C101.963 103.793 101.879 103.835 101.776 103.854C101.673 103.863 101.561 103.835 101.44 103.77C101.169 103.583 100.889 103.453 100.6 103.378C100.32 103.294 100.04 103.252 99.7601 103.252C99.2561 103.252 98.8734 103.35 98.6121 103.546C98.3601 103.742 98.2341 103.999 98.2341 104.316C98.2341 104.559 98.3088 104.759 98.4581 104.918C98.6168 105.077 98.8641 105.193 99.2001 105.268L100.502 105.534C101.109 105.665 101.566 105.875 101.874 106.164C102.182 106.444 102.336 106.827 102.336 107.312C102.336 107.947 102.084 108.451 101.58 108.824C101.085 109.188 100.418 109.37 99.5781 109.37ZM106.164 109.37C105.697 109.37 105.272 109.277 104.89 109.09C104.516 108.903 104.222 108.651 104.008 108.334C103.802 108.017 103.7 107.662 103.7 107.27C103.7 106.766 103.826 106.369 104.078 106.08C104.33 105.791 104.754 105.585 105.352 105.464C105.949 105.333 106.752 105.268 107.76 105.268H108.418V106.08H107.788C107.069 106.08 106.5 106.113 106.08 106.178C105.669 106.243 105.38 106.36 105.212 106.528C105.044 106.687 104.96 106.911 104.96 107.2C104.96 107.564 105.086 107.863 105.338 108.096C105.599 108.329 105.954 108.446 106.402 108.446C106.756 108.446 107.069 108.362 107.34 108.194C107.61 108.017 107.825 107.783 107.984 107.494C108.142 107.195 108.222 106.855 108.222 106.472V104.862C108.222 104.311 108.11 103.915 107.886 103.672C107.662 103.42 107.284 103.294 106.752 103.294C106.444 103.294 106.126 103.336 105.8 103.42C105.473 103.504 105.132 103.635 104.778 103.812C104.638 103.877 104.516 103.901 104.414 103.882C104.311 103.854 104.227 103.798 104.162 103.714C104.106 103.621 104.073 103.523 104.064 103.42C104.064 103.308 104.087 103.201 104.134 103.098C104.19 102.995 104.283 102.921 104.414 102.874C104.824 102.669 105.23 102.524 105.632 102.44C106.042 102.347 106.425 102.3 106.78 102.3C107.386 102.3 107.886 102.398 108.278 102.594C108.67 102.781 108.964 103.075 109.16 103.476C109.356 103.868 109.454 104.372 109.454 104.988V108.684C109.454 108.899 109.402 109.062 109.3 109.174C109.197 109.286 109.048 109.342 108.852 109.342C108.665 109.342 108.516 109.286 108.404 109.174C108.301 109.062 108.25 108.899 108.25 108.684V107.69H108.376C108.301 108.035 108.161 108.334 107.956 108.586C107.75 108.838 107.494 109.034 107.186 109.174C106.887 109.305 106.546 109.37 106.164 109.37ZM112.089 111.862C111.893 111.862 111.739 111.806 111.627 111.694C111.515 111.582 111.459 111.423 111.459 111.218V102.972C111.459 102.757 111.515 102.599 111.627 102.496C111.739 102.384 111.893 102.328 112.089 102.328C112.294 102.328 112.448 102.384 112.551 102.496C112.663 102.599 112.719 102.757 112.719 102.972V104.246L112.565 103.994C112.714 103.481 113.008 103.07 113.447 102.762C113.885 102.454 114.413 102.3 115.029 102.3C115.635 102.3 116.163 102.445 116.611 102.734C117.059 103.014 117.409 103.42 117.661 103.952C117.913 104.475 118.039 105.1 118.039 105.828C118.039 106.547 117.913 107.177 117.661 107.718C117.418 108.25 117.068 108.661 116.611 108.95C116.163 109.23 115.635 109.37 115.029 109.37C114.422 109.37 113.899 109.216 113.461 108.908C113.022 108.6 112.728 108.194 112.579 107.69H112.733V111.218C112.733 111.423 112.677 111.582 112.565 111.694C112.453 111.806 112.294 111.862 112.089 111.862ZM114.735 108.362C115.136 108.362 115.486 108.264 115.785 108.068C116.093 107.872 116.331 107.587 116.499 107.214C116.667 106.841 116.751 106.379 116.751 105.828C116.751 105.007 116.569 104.381 116.205 103.952C115.841 103.523 115.351 103.308 114.735 103.308C114.324 103.308 113.965 103.406 113.657 103.602C113.358 103.789 113.125 104.069 112.957 104.442C112.798 104.815 112.719 105.277 112.719 105.828C112.719 106.649 112.901 107.279 113.265 107.718C113.629 108.147 114.119 108.362 114.735 108.362ZM120.305 109.314C120.109 109.314 119.955 109.253 119.843 109.132C119.731 109.011 119.675 108.843 119.675 108.628V103.042C119.675 102.818 119.731 102.65 119.843 102.538C119.955 102.417 120.109 102.356 120.305 102.356C120.511 102.356 120.669 102.417 120.781 102.538C120.893 102.65 120.949 102.818 120.949 103.042V108.628C120.949 108.843 120.893 109.011 120.781 109.132C120.679 109.253 120.52 109.314 120.305 109.314ZM120.305 100.844C120.053 100.844 119.853 100.779 119.703 100.648C119.563 100.508 119.493 100.326 119.493 100.102C119.493 99.8592 119.563 99.6772 119.703 99.5559C119.853 99.4252 120.053 99.3599 120.305 99.3599C120.576 99.3599 120.777 99.4252 120.907 99.5559C121.047 99.6772 121.117 99.8592 121.117 100.102C121.117 100.326 121.047 100.508 120.907 100.648C120.777 100.779 120.576 100.844 120.305 100.844ZM126.148 109.37C125.41 109.37 124.776 109.23 124.244 108.95C123.721 108.661 123.315 108.255 123.026 107.732C122.736 107.2 122.592 106.575 122.592 105.856C122.592 105.147 122.732 104.526 123.012 103.994C123.301 103.462 123.693 103.047 124.188 102.748C124.692 102.449 125.266 102.3 125.91 102.3C126.367 102.3 126.778 102.379 127.142 102.538C127.515 102.687 127.832 102.907 128.094 103.196C128.355 103.485 128.551 103.84 128.682 104.26C128.822 104.671 128.892 105.137 128.892 105.66C128.892 105.809 128.845 105.926 128.752 106.01C128.668 106.085 128.542 106.122 128.374 106.122H123.586V105.31H128.052L127.814 105.506C127.814 105.021 127.739 104.61 127.59 104.274C127.45 103.929 127.24 103.667 126.96 103.49C126.689 103.313 126.348 103.224 125.938 103.224C125.49 103.224 125.107 103.331 124.79 103.546C124.472 103.751 124.23 104.045 124.062 104.428C123.894 104.801 123.81 105.235 123.81 105.73V105.814C123.81 106.654 124.01 107.289 124.412 107.718C124.813 108.147 125.392 108.362 126.148 108.362C126.446 108.362 126.75 108.325 127.058 108.25C127.375 108.175 127.678 108.04 127.968 107.844C128.108 107.76 128.234 107.723 128.346 107.732C128.467 107.732 128.565 107.769 128.64 107.844C128.714 107.909 128.761 107.993 128.78 108.096C128.798 108.189 128.784 108.292 128.738 108.404C128.691 108.516 128.602 108.614 128.472 108.698C128.164 108.913 127.795 109.081 127.366 109.202C126.946 109.314 126.54 109.37 126.148 109.37ZM131.106 109.342C130.91 109.342 130.756 109.286 130.644 109.174C130.532 109.062 130.476 108.899 130.476 108.684V102.972C130.476 102.757 130.532 102.599 130.644 102.496C130.756 102.384 130.91 102.328 131.106 102.328C131.302 102.328 131.451 102.384 131.554 102.496C131.666 102.599 131.722 102.757 131.722 102.972V104.12L131.568 103.91C131.764 103.378 132.081 102.977 132.52 102.706C132.968 102.435 133.477 102.3 134.046 102.3C134.597 102.3 135.049 102.398 135.404 102.594C135.759 102.79 136.025 103.089 136.202 103.49C136.379 103.891 136.468 104.4 136.468 105.016V108.684C136.468 108.899 136.412 109.062 136.3 109.174C136.197 109.286 136.043 109.342 135.838 109.342C135.633 109.342 135.474 109.286 135.362 109.174C135.25 109.062 135.194 108.899 135.194 108.684V105.086C135.194 104.479 135.077 104.036 134.844 103.756C134.611 103.476 134.237 103.336 133.724 103.336C133.127 103.336 132.646 103.523 132.282 103.896C131.927 104.26 131.75 104.755 131.75 105.38V108.684C131.75 109.123 131.535 109.342 131.106 109.342ZM144.728 109.342C144.551 109.342 144.397 109.295 144.266 109.202C144.136 109.109 144.024 108.959 143.93 108.754L141.55 103.21C141.485 103.051 141.462 102.907 141.48 102.776C141.499 102.645 141.56 102.538 141.662 102.454C141.774 102.37 141.924 102.328 142.11 102.328C142.269 102.328 142.395 102.365 142.488 102.44C142.582 102.515 142.67 102.645 142.754 102.832L144.952 108.25H144.56L146.814 102.832C146.889 102.645 146.973 102.515 147.066 102.44C147.169 102.365 147.309 102.328 147.486 102.328C147.645 102.328 147.766 102.37 147.85 102.454C147.944 102.538 148 102.645 148.018 102.776C148.037 102.907 148.009 103.047 147.934 103.196L145.54 108.754C145.456 108.959 145.344 109.109 145.204 109.202C145.074 109.295 144.915 109.342 144.728 109.342ZM150.014 109.314C149.818 109.314 149.664 109.253 149.552 109.132C149.44 109.011 149.384 108.843 149.384 108.628V103.042C149.384 102.818 149.44 102.65 149.552 102.538C149.664 102.417 149.818 102.356 150.014 102.356C150.22 102.356 150.378 102.417 150.49 102.538C150.602 102.65 150.658 102.818 150.658 103.042V108.628C150.658 108.843 150.602 109.011 150.49 109.132C150.388 109.253 150.229 109.314 150.014 109.314ZM150.014 100.844C149.762 100.844 149.562 100.779 149.412 100.648C149.272 100.508 149.202 100.326 149.202 100.102C149.202 99.8592 149.272 99.6772 149.412 99.5559C149.562 99.4252 149.762 99.3599 150.014 99.3599C150.285 99.3599 150.486 99.4252 150.616 99.5559C150.756 99.6772 150.826 99.8592 150.826 100.102C150.826 100.326 150.756 100.508 150.616 100.648C150.486 100.779 150.285 100.844 150.014 100.844ZM155.297 109.342C155.119 109.342 154.965 109.295 154.835 109.202C154.704 109.109 154.592 108.959 154.499 108.754L152.119 103.21C152.053 103.051 152.03 102.907 152.049 102.776C152.067 102.645 152.128 102.538 152.231 102.454C152.343 102.37 152.492 102.328 152.679 102.328C152.837 102.328 152.963 102.365 153.057 102.44C153.15 102.515 153.239 102.645 153.323 102.832L155.521 108.25H155.129L157.383 102.832C157.457 102.645 157.541 102.515 157.635 102.44C157.737 102.365 157.877 102.328 158.055 102.328C158.213 102.328 158.335 102.37 158.419 102.454C158.512 102.538 158.568 102.645 158.587 102.776C158.605 102.907 158.577 103.047 158.503 103.196L156.109 108.754C156.025 108.959 155.913 109.109 155.773 109.202C155.642 109.295 155.483 109.342 155.297 109.342ZM162.993 109.37C162.256 109.37 161.621 109.23 161.089 108.95C160.567 108.661 160.161 108.255 159.871 107.732C159.582 107.2 159.437 106.575 159.437 105.856C159.437 105.147 159.577 104.526 159.857 103.994C160.147 103.462 160.539 103.047 161.033 102.748C161.537 102.449 162.111 102.3 162.755 102.3C163.213 102.3 163.623 102.379 163.987 102.538C164.361 102.687 164.678 102.907 164.939 103.196C165.201 103.485 165.397 103.84 165.527 104.26C165.667 104.671 165.737 105.137 165.737 105.66C165.737 105.809 165.691 105.926 165.597 106.01C165.513 106.085 165.387 106.122 165.219 106.122H160.431V105.31H164.897L164.659 105.506C164.659 105.021 164.585 104.61 164.435 104.274C164.295 103.929 164.085 103.667 163.805 103.49C163.535 103.313 163.194 103.224 162.783 103.224C162.335 103.224 161.953 103.331 161.635 103.546C161.318 103.751 161.075 104.045 160.907 104.428C160.739 104.801 160.655 105.235 160.655 105.73V105.814C160.655 106.654 160.856 107.289 161.257 107.718C161.659 108.147 162.237 108.362 162.993 108.362C163.292 108.362 163.595 108.325 163.903 108.25C164.221 108.175 164.524 108.04 164.813 107.844C164.953 107.76 165.079 107.723 165.191 107.732C165.313 107.732 165.411 107.769 165.485 107.844C165.56 107.909 165.607 107.993 165.625 108.096C165.644 108.189 165.63 108.292 165.583 108.404C165.537 108.516 165.448 108.614 165.317 108.698C165.009 108.913 164.641 109.081 164.211 109.202C163.791 109.314 163.385 109.37 162.993 109.37ZM167.98 109.342C167.765 109.342 167.602 109.286 167.49 109.174C167.378 109.062 167.322 108.899 167.322 108.684V102.972C167.322 102.757 167.378 102.599 167.49 102.496C167.602 102.384 167.756 102.328 167.952 102.328C168.148 102.328 168.297 102.384 168.4 102.496C168.512 102.599 168.568 102.757 168.568 102.972V104.05H168.428C168.577 103.49 168.857 103.065 169.268 102.776C169.678 102.487 170.196 102.323 170.822 102.286C170.971 102.277 171.092 102.314 171.186 102.398C171.279 102.473 171.33 102.603 171.34 102.79C171.349 102.967 171.307 103.112 171.214 103.224C171.12 103.327 170.976 103.387 170.78 103.406L170.528 103.42C169.912 103.485 169.436 103.686 169.1 104.022C168.773 104.358 168.61 104.82 168.61 105.408V108.684C168.61 108.899 168.554 109.062 168.442 109.174C168.339 109.286 168.185 109.342 167.98 109.342ZM173.093 109.342C172.878 109.342 172.715 109.286 172.603 109.174C172.491 109.062 172.435 108.899 172.435 108.684V102.972C172.435 102.757 172.491 102.599 172.603 102.496C172.715 102.384 172.869 102.328 173.065 102.328C173.261 102.328 173.41 102.384 173.513 102.496C173.625 102.599 173.681 102.757 173.681 102.972V104.05H173.541C173.69 103.49 173.97 103.065 174.381 102.776C174.792 102.487 175.31 102.323 175.935 102.286C176.084 102.277 176.206 102.314 176.299 102.398C176.392 102.473 176.444 102.603 176.453 102.79C176.462 102.967 176.42 103.112 176.327 103.224C176.234 103.327 176.089 103.387 175.893 103.406L175.641 103.42C175.025 103.485 174.549 103.686 174.213 104.022C173.886 104.358 173.723 104.82 173.723 105.408V108.684C173.723 108.899 173.667 109.062 173.555 109.174C173.452 109.286 173.298 109.342 173.093 109.342ZM179.65 109.37C179.183 109.37 178.759 109.277 178.376 109.09C178.003 108.903 177.709 108.651 177.494 108.334C177.289 108.017 177.186 107.662 177.186 107.27C177.186 106.766 177.312 106.369 177.564 106.08C177.816 105.791 178.241 105.585 178.838 105.464C179.435 105.333 180.238 105.268 181.246 105.268H181.904V106.08H181.274C180.555 106.08 179.986 106.113 179.566 106.178C179.155 106.243 178.866 106.36 178.698 106.528C178.53 106.687 178.446 106.911 178.446 107.2C178.446 107.564 178.572 107.863 178.824 108.096C179.085 108.329 179.44 108.446 179.888 108.446C180.243 108.446 180.555 108.362 180.826 108.194C181.097 108.017 181.311 107.783 181.47 107.494C181.629 107.195 181.708 106.855 181.708 106.472V104.862C181.708 104.311 181.596 103.915 181.372 103.672C181.148 103.42 180.77 103.294 180.238 103.294C179.93 103.294 179.613 103.336 179.286 103.42C178.959 103.504 178.619 103.635 178.264 103.812C178.124 103.877 178.003 103.901 177.9 103.882C177.797 103.854 177.713 103.798 177.648 103.714C177.592 103.621 177.559 103.523 177.55 103.42C177.55 103.308 177.573 103.201 177.62 103.098C177.676 102.995 177.769 102.921 177.9 102.874C178.311 102.669 178.717 102.524 179.118 102.44C179.529 102.347 179.911 102.3 180.266 102.3C180.873 102.3 181.372 102.398 181.764 102.594C182.156 102.781 182.45 103.075 182.646 103.476C182.842 103.868 182.94 104.372 182.94 104.988V108.684C182.94 108.899 182.889 109.062 182.786 109.174C182.683 109.286 182.534 109.342 182.338 109.342C182.151 109.342 182.002 109.286 181.89 109.174C181.787 109.062 181.736 108.899 181.736 108.684V107.69H181.862C181.787 108.035 181.647 108.334 181.442 108.586C181.237 108.838 180.98 109.034 180.672 109.174C180.373 109.305 180.033 109.37 179.65 109.37ZM189.225 109.342C189.029 109.342 188.875 109.286 188.763 109.174C188.651 109.062 188.595 108.899 188.595 108.684V102.972C188.595 102.757 188.651 102.599 188.763 102.496C188.875 102.384 189.029 102.328 189.225 102.328C189.421 102.328 189.571 102.384 189.673 102.496C189.785 102.599 189.841 102.757 189.841 102.972V104.12L189.687 103.91C189.883 103.378 190.201 102.977 190.639 102.706C191.087 102.435 191.596 102.3 192.165 102.3C192.716 102.3 193.169 102.398 193.523 102.594C193.878 102.79 194.144 103.089 194.321 103.49C194.499 103.891 194.587 104.4 194.587 105.016V108.684C194.587 108.899 194.531 109.062 194.419 109.174C194.317 109.286 194.163 109.342 193.957 109.342C193.752 109.342 193.593 109.286 193.481 109.174C193.369 109.062 193.313 108.899 193.313 108.684V105.086C193.313 104.479 193.197 104.036 192.963 103.756C192.73 103.476 192.357 103.336 191.843 103.336C191.246 103.336 190.765 103.523 190.401 103.896C190.047 104.26 189.869 104.755 189.869 105.38V108.684C189.869 109.123 189.655 109.342 189.225 109.342ZM199.757 109.37C199.02 109.37 198.385 109.23 197.853 108.95C197.33 108.661 196.924 108.255 196.635 107.732C196.346 107.2 196.201 106.575 196.201 105.856C196.201 105.147 196.341 104.526 196.621 103.994C196.91 103.462 197.302 103.047 197.797 102.748C198.301 102.449 198.875 102.3 199.519 102.3C199.976 102.3 200.387 102.379 200.751 102.538C201.124 102.687 201.442 102.907 201.703 103.196C201.964 103.485 202.16 103.84 202.291 104.26C202.431 104.671 202.501 105.137 202.501 105.66C202.501 105.809 202.454 105.926 202.361 106.01C202.277 106.085 202.151 106.122 201.983 106.122H197.195V105.31H201.661L201.423 105.506C201.423 105.021 201.348 104.61 201.199 104.274C201.059 103.929 200.849 103.667 200.569 103.49C200.298 103.313 199.958 103.224 199.547 103.224C199.099 103.224 198.716 103.331 198.399 103.546C198.082 103.751 197.839 104.045 197.671 104.428C197.503 104.801 197.419 105.235 197.419 105.73V105.814C197.419 106.654 197.62 107.289 198.021 107.718C198.422 108.147 199.001 108.362 199.757 108.362C200.056 108.362 200.359 108.325 200.667 108.25C200.984 108.175 201.288 108.04 201.577 107.844C201.717 107.76 201.843 107.723 201.955 107.732C202.076 107.732 202.174 107.769 202.249 107.844C202.324 107.909 202.37 107.993 202.389 108.096C202.408 108.189 202.394 108.292 202.347 108.404C202.3 108.516 202.212 108.614 202.081 108.698C201.773 108.913 201.404 109.081 200.975 109.202C200.555 109.314 200.149 109.37 199.757 109.37ZM209.615 111.862C209.41 111.862 209.251 111.806 209.139 111.694C209.037 111.582 208.985 111.423 208.985 111.218V107.69H209.139C208.99 108.194 208.696 108.6 208.257 108.908C207.819 109.216 207.296 109.37 206.689 109.37C206.083 109.37 205.551 109.23 205.093 108.95C204.645 108.661 204.295 108.25 204.043 107.718C203.801 107.177 203.679 106.547 203.679 105.828C203.679 105.1 203.805 104.475 204.057 103.952C204.309 103.42 204.659 103.014 205.107 102.734C205.565 102.445 206.092 102.3 206.689 102.3C207.296 102.3 207.819 102.454 208.257 102.762C208.705 103.07 208.999 103.481 209.139 103.994L208.985 104.246V102.972C208.985 102.757 209.041 102.599 209.153 102.496C209.265 102.384 209.419 102.328 209.615 102.328C209.821 102.328 209.979 102.384 210.091 102.496C210.203 102.599 210.259 102.757 210.259 102.972V111.218C210.259 111.423 210.203 111.582 210.091 111.694C209.979 111.806 209.821 111.862 209.615 111.862ZM206.983 108.362C207.394 108.362 207.749 108.264 208.047 108.068C208.355 107.872 208.589 107.587 208.747 107.214C208.915 106.841 208.999 106.379 208.999 105.828C208.999 105.007 208.817 104.381 208.453 103.952C208.089 103.523 207.599 103.308 206.983 103.308C206.582 103.308 206.227 103.406 205.919 103.602C205.621 103.789 205.387 104.069 205.219 104.442C205.051 104.815 204.967 105.277 204.967 105.828C204.967 106.649 205.149 107.279 205.513 107.718C205.887 108.147 206.377 108.362 206.983 108.362ZM214.738 109.37C214.188 109.37 213.726 109.267 213.352 109.062C212.988 108.857 212.718 108.553 212.54 108.152C212.363 107.751 212.274 107.247 212.274 106.64V102.972C212.274 102.757 212.326 102.599 212.428 102.496C212.54 102.384 212.699 102.328 212.904 102.328C213.11 102.328 213.268 102.384 213.38 102.496C213.492 102.599 213.548 102.757 213.548 102.972V106.64C213.548 107.219 213.665 107.648 213.898 107.928C214.132 108.199 214.5 108.334 215.004 108.334C215.564 108.334 216.017 108.147 216.362 107.774C216.717 107.401 216.894 106.906 216.894 106.29V102.972C216.894 102.757 216.946 102.599 217.048 102.496C217.16 102.384 217.319 102.328 217.524 102.328C217.73 102.328 217.888 102.384 218 102.496C218.112 102.599 218.168 102.757 218.168 102.972V108.684C218.168 109.123 217.963 109.342 217.552 109.342C217.347 109.342 217.188 109.286 217.076 109.174C216.974 109.062 216.922 108.899 216.922 108.684V107.466L217.104 107.704C216.918 108.245 216.614 108.661 216.194 108.95C215.784 109.23 215.298 109.37 214.738 109.37ZM223.368 109.37C222.631 109.37 221.996 109.23 221.464 108.95C220.942 108.661 220.536 108.255 220.246 107.732C219.957 107.2 219.812 106.575 219.812 105.856C219.812 105.147 219.952 104.526 220.232 103.994C220.522 103.462 220.914 103.047 221.408 102.748C221.912 102.449 222.486 102.3 223.13 102.3C223.588 102.3 223.998 102.379 224.362 102.538C224.736 102.687 225.053 102.907 225.314 103.196C225.576 103.485 225.772 103.84 225.902 104.26C226.042 104.671 226.112 105.137 226.112 105.66C226.112 105.809 226.066 105.926 225.972 106.01C225.888 106.085 225.762 106.122 225.594 106.122H220.806V105.31H225.272L225.034 105.506C225.034 105.021 224.96 104.61 224.81 104.274C224.67 103.929 224.46 103.667 224.18 103.49C223.91 103.313 223.569 103.224 223.158 103.224C222.71 103.224 222.328 103.331 222.01 103.546C221.693 103.751 221.45 104.045 221.282 104.428C221.114 104.801 221.03 105.235 221.03 105.73V105.814C221.03 106.654 221.231 107.289 221.632 107.718C222.034 108.147 222.612 108.362 223.368 108.362C223.667 108.362 223.97 108.325 224.278 108.25C224.596 108.175 224.899 108.04 225.188 107.844C225.328 107.76 225.454 107.723 225.566 107.732C225.688 107.732 225.786 107.769 225.86 107.844C225.935 107.909 225.982 107.993 226 108.096C226.019 108.189 226.005 108.292 225.958 108.404C225.912 108.516 225.823 108.614 225.692 108.698C225.384 108.913 225.016 109.081 224.586 109.202C224.166 109.314 223.76 109.37 223.368 109.37ZM233.517 109.37C233.051 109.37 232.626 109.277 232.243 109.09C231.87 108.903 231.576 108.651 231.361 108.334C231.156 108.017 231.053 107.662 231.053 107.27C231.053 106.766 231.179 106.369 231.431 106.08C231.683 105.791 232.108 105.585 232.705 105.464C233.303 105.333 234.105 105.268 235.113 105.268H235.771V106.08H235.141C234.423 106.08 233.853 106.113 233.433 106.178C233.023 106.243 232.733 106.36 232.565 106.528C232.397 106.687 232.313 106.911 232.313 107.2C232.313 107.564 232.439 107.863 232.691 108.096C232.953 108.329 233.307 108.446 233.755 108.446C234.11 108.446 234.423 108.362 234.693 108.194C234.964 108.017 235.179 107.783 235.337 107.494C235.496 107.195 235.575 106.855 235.575 106.472V104.862C235.575 104.311 235.463 103.915 235.239 103.672C235.015 103.42 234.637 103.294 234.105 103.294C233.797 103.294 233.48 103.336 233.153 103.42C232.827 103.504 232.486 103.635 232.131 103.812C231.991 103.877 231.87 103.901 231.767 103.882C231.665 103.854 231.581 103.798 231.515 103.714C231.459 103.621 231.427 103.523 231.417 103.42C231.417 103.308 231.441 103.201 231.487 103.098C231.543 102.995 231.637 102.921 231.767 102.874C232.178 102.669 232.584 102.524 232.985 102.44C233.396 102.347 233.779 102.3 234.133 102.3C234.74 102.3 235.239 102.398 235.631 102.594C236.023 102.781 236.317 103.075 236.513 103.476C236.709 103.868 236.807 104.372 236.807 104.988V108.684C236.807 108.899 236.756 109.062 236.653 109.174C236.551 109.286 236.401 109.342 236.205 109.342C236.019 109.342 235.869 109.286 235.757 109.174C235.655 109.062 235.603 108.899 235.603 108.684V107.69H235.729C235.655 108.035 235.515 108.334 235.309 108.586C235.104 108.838 234.847 109.034 234.539 109.174C234.241 109.305 233.9 109.37 233.517 109.37ZM241.766 109.37C241.075 109.37 240.478 109.225 239.974 108.936C239.47 108.637 239.083 108.222 238.812 107.69C238.541 107.149 238.406 106.514 238.406 105.786C238.406 105.245 238.481 104.759 238.63 104.33C238.789 103.901 239.013 103.537 239.302 103.238C239.591 102.93 239.941 102.697 240.352 102.538C240.772 102.379 241.243 102.3 241.766 102.3C242.093 102.3 242.438 102.351 242.802 102.454C243.166 102.557 243.502 102.725 243.81 102.958C243.913 103.033 243.978 103.121 244.006 103.224C244.034 103.317 244.034 103.415 244.006 103.518C243.987 103.621 243.941 103.709 243.866 103.784C243.801 103.849 243.712 103.887 243.6 103.896C243.497 103.905 243.385 103.873 243.264 103.798C243.04 103.63 242.802 103.509 242.55 103.434C242.307 103.359 242.074 103.322 241.85 103.322C241.505 103.322 241.197 103.378 240.926 103.49C240.665 103.602 240.441 103.765 240.254 103.98C240.077 104.185 239.941 104.442 239.848 104.75C239.755 105.049 239.708 105.399 239.708 105.8C239.708 106.593 239.895 107.219 240.268 107.676C240.641 108.124 241.169 108.348 241.85 108.348C242.074 108.348 242.307 108.315 242.55 108.25C242.793 108.175 243.031 108.054 243.264 107.886C243.385 107.811 243.497 107.783 243.6 107.802C243.703 107.811 243.787 107.853 243.852 107.928C243.927 107.993 243.973 108.077 243.992 108.18C244.011 108.273 244.001 108.371 243.964 108.474C243.936 108.577 243.871 108.661 243.768 108.726C243.469 108.95 243.143 109.113 242.788 109.216C242.433 109.319 242.093 109.37 241.766 109.37ZM248.333 109.37C247.596 109.37 246.961 109.23 246.429 108.95C245.906 108.661 245.5 108.255 245.211 107.732C244.922 107.2 244.777 106.575 244.777 105.856C244.777 105.147 244.917 104.526 245.197 103.994C245.486 103.462 245.878 103.047 246.373 102.748C246.877 102.449 247.451 102.3 248.095 102.3C248.552 102.3 248.963 102.379 249.327 102.538C249.7 102.687 250.018 102.907 250.279 103.196C250.54 103.485 250.736 103.84 250.867 104.26C251.007 104.671 251.077 105.137 251.077 105.66C251.077 105.809 251.03 105.926 250.937 106.01C250.853 106.085 250.727 106.122 250.559 106.122H245.771V105.31H250.237L249.999 105.506C249.999 105.021 249.924 104.61 249.775 104.274C249.635 103.929 249.425 103.667 249.145 103.49C248.874 103.313 248.534 103.224 248.123 103.224C247.675 103.224 247.292 103.331 246.975 103.546C246.658 103.751 246.415 104.045 246.247 104.428C246.079 104.801 245.995 105.235 245.995 105.73V105.814C245.995 106.654 246.196 107.289 246.597 107.718C246.998 108.147 247.577 108.362 248.333 108.362C248.632 108.362 248.935 108.325 249.243 108.25C249.56 108.175 249.864 108.04 250.153 107.844C250.293 107.76 250.419 107.723 250.531 107.732C250.652 107.732 250.75 107.769 250.825 107.844C250.9 107.909 250.946 107.993 250.965 108.096C250.984 108.189 250.97 108.292 250.923 108.404C250.876 108.516 250.788 108.614 250.657 108.698C250.349 108.913 249.98 109.081 249.551 109.202C249.131 109.314 248.725 109.37 248.333 109.37ZM253.278 109.3C253.035 109.3 252.834 109.221 252.676 109.062C252.517 108.903 252.438 108.703 252.438 108.46C252.438 108.217 252.517 108.021 252.676 107.872C252.834 107.723 253.035 107.648 253.278 107.648C253.539 107.648 253.74 107.723 253.88 107.872C254.029 108.021 254.104 108.217 254.104 108.46C254.104 108.703 254.029 108.903 253.88 109.062C253.74 109.221 253.539 109.3 253.278 109.3Z" fill="#6C8184"/>
</g>
<defs>
<filter id="filter0_ddii_80_2386" x="0.329102" y="0.670654" width="334.805" height="168.963" filterUnits="userSpaceOnUse" color-interpolation-filters="sRGB">
<feFlood flood-opacity="0" result="BackgroundImageFix"/>
<feColorMatrix in="SourceAlpha" type="matrix" values="0 0 0 0 0 0 0 0 0 0 0 0 0 0 0 0 0 0 127 0" result="hardAlpha"/>
<feOffset dy="4"/>
<feGaussianBlur stdDeviation="2"/>
<feComposite in2="hardAlpha" operator="out"/>
<feColorMatrix type="matrix" values="0 0 0 0 0 0 0 0 0 0 0 0 0 0 0 0 0 0 0.1 0"/>
<feBlend mode="normal" in2="BackgroundImageFix" result="effect1_dropShadow_80_2386"/>
<feColorMatrix in="SourceAlpha" type="matrix" values="0 0 0 0 0 0 0 0 0 0 0 0 0 0 0 0 0 0 127 0" result="hardAlpha"/>
<feMorphology radius="12" operator="erode" in="SourceAlpha" result="effect2_dropShadow_80_2386"/>
<feOffset dy="12"/>
<feGaussianBlur stdDeviation="16"/>
<feComposite in2="hardAlpha" operator="out"/>
<feColorMatrix type="matrix" values="0 0 0 0 0 0 0 0 0 0 0 0 0 0 0 0 0 0 0.1 0"/>
<feBlend mode="normal" in2="effect1_dropShadow_80_2386" result="effect2_dropShadow_80_2386"/>
<feBlend mode="normal" in="SourceGraphic" in2="effect2_dropShadow_80_2386" result="shape"/>
<feColorMatrix in="SourceAlpha" type="matrix" values="0 0 0 0 0 0 0 0 0 0 0 0 0 0 0 0 0 0 127 0" result="hardAlpha"/>
<feOffset dy="6"/>
<feGaussianBlur stdDeviation="6"/>
<feComposite in2="hardAlpha" operator="arithmetic" k2="-1" k3="1"/>
<feColorMatrix type="matrix" values="0 0 0 0 1 0 0 0 0 1 0 0 0 0 1 0 0 0 0.04 0"/>
<feBlend mode="normal" in2="shape" result="effect3_innerShadow_80_2386"/>
<feColorMatrix in="SourceAlpha" type="matrix" values="0 0 0 0 0 0 0 0 0 0 0 0 0 0 0 0 0 0 127 0" result="hardAlpha"/>
<feOffset dy="1"/>
<feGaussianBlur stdDeviation="0.5"/>
<feComposite in2="hardAlpha" operator="arithmetic" k2="-1" k3="1"/>
<feColorMatrix type="matrix" values="0 0 0 0 1 0 0 0 0 1 0 0 0 0 1 0 0 0 0.2 0"/>
<feBlend mode="normal" in2="effect3_innerShadow_80_2386" result="effect4_innerShadow_80_2386"/>
</filter>
</defs>
</svg>
