<svg width="335" height="479" viewBox="0 0 335 479" fill="none" xmlns="http://www.w3.org/2000/svg">
<g filter="url(#filter0_ddii_80_2377)">
<path d="M20 30.7959C20 18.3543 30.086 8.26831 42.5276 8.26831H292.277C304.719 8.26831 314.805 18.3543 314.805 30.7959V424.216C314.805 436.658 304.719 446.744 292.277 446.744H42.5276C30.086 446.744 20 436.658 20 424.216V30.7959Z" fill="#F9FBFB" shape-rendering="crispEdges"/>
<path d="M58.0633 67.9719C57.4065 67.9719 56.8542 67.8226 56.4064 67.5241C55.9885 67.1957 55.6452 66.7181 55.3765 66.0911L43.3305 38.8198C43.0917 38.1929 43.032 37.6555 43.1514 37.2077C43.2708 36.7599 43.5096 36.4166 43.8679 36.1778C44.256 35.9091 44.7187 35.7747 45.2561 35.7747C45.9427 35.7747 46.4652 35.924 46.8234 36.2225C47.1816 36.5211 47.4802 36.9689 47.719 37.566L59.0037 63.7178H57.3468L68.5419 37.5212C68.8106 36.954 69.1241 36.5211 69.4823 36.2225C69.8704 35.924 70.3929 35.7747 71.0497 35.7747C71.587 35.7747 72.0199 35.9091 72.3483 36.1778C72.7065 36.4166 72.9304 36.7599 73.02 37.2077C73.1096 37.6555 73.02 38.1929 72.7513 38.8198L60.7501 66.0911C60.4815 66.7181 60.1381 67.1957 59.7202 67.5241C59.3022 67.8226 58.7499 67.9719 58.0633 67.9719ZM81.2865 68.0615C79.764 68.0615 78.3907 67.7629 77.1667 67.1659C75.9726 66.5688 75.0322 65.7627 74.3456 64.7477C73.6589 63.7327 73.3156 62.5833 73.3156 61.2996C73.3156 59.6875 73.7186 58.4187 74.5247 57.4933C75.3606 56.538 76.7189 55.8663 78.5997 55.4782C80.5103 55.0602 83.0778 54.8512 86.302 54.8512H88.4066V57.6276H86.3467C84.1973 57.6276 82.4956 57.7321 81.2418 57.9411C79.9879 58.1501 79.0923 58.5083 78.5549 59.0158C78.0474 59.4935 77.7937 60.1652 77.7937 61.0309C77.7937 62.1654 78.1818 63.0908 78.958 63.8073C79.7341 64.494 80.8089 64.8373 82.1821 64.8373C83.2867 64.8373 84.257 64.5835 85.0929 64.076C85.9288 63.5386 86.5856 62.8222 87.0632 61.9265C87.5707 61.0309 87.8245 60.001 87.8245 58.8367V53.6869C87.8245 51.9853 87.4662 50.7613 86.7498 50.0149C86.0333 49.2686 84.854 48.8954 83.2121 48.8954C82.2568 48.8954 81.2567 49.0148 80.2118 49.2537C79.1968 49.4925 78.137 49.8955 77.0324 50.4627C76.5249 50.7016 76.092 50.7762 75.7338 50.6866C75.3755 50.5971 75.0919 50.403 74.8829 50.1045C74.674 49.7761 74.5545 49.4328 74.5247 49.0745C74.5247 48.6864 74.6142 48.3133 74.7934 47.955C75.0023 47.5968 75.3457 47.3281 75.8233 47.149C77.1369 46.5221 78.4355 46.0743 79.7192 45.8056C81.0029 45.5369 82.212 45.4025 83.3464 45.4025C85.3466 45.4025 86.9886 45.716 88.2723 46.3429C89.5859 46.9699 90.5561 47.9252 91.183 49.2089C91.81 50.4926 92.1234 52.1495 92.1234 54.1795V65.6881C92.1234 66.4046 91.9443 66.9718 91.586 67.3898C91.2278 67.7779 90.7054 67.9719 90.0187 67.9719C89.362 67.9719 88.8395 67.7779 88.4514 67.3898C88.0633 66.9718 87.8693 66.4046 87.8693 65.6881V62.7774H88.2723C88.0335 63.882 87.5857 64.8373 86.9289 65.6433C86.302 66.4195 85.5108 67.0166 84.5555 67.4345C83.6002 67.8525 82.5105 68.0615 81.2865 68.0615ZM105.383 68.0615C103.055 68.0615 101.293 67.3898 100.099 66.0463C98.9349 64.6731 98.3528 62.7027 98.3528 60.1353V38.0585C98.3528 37.3122 98.5468 36.745 98.9349 36.3569C99.323 35.9688 99.8753 35.7747 100.592 35.7747C101.308 35.7747 101.861 35.9688 102.249 36.3569C102.667 36.745 102.876 37.3122 102.876 38.0585V59.8666C102.876 61.3593 103.174 62.4788 103.771 63.2252C104.398 63.9417 105.294 64.2999 106.458 64.2999C106.727 64.2999 106.966 64.2999 107.175 64.2999C107.384 64.2701 107.593 64.2402 107.801 64.2103C108.16 64.1805 108.413 64.285 108.563 64.5238C108.712 64.7328 108.787 65.1806 108.787 65.8672C108.787 66.4942 108.652 66.9867 108.384 67.345C108.115 67.6734 107.682 67.8823 107.085 67.9719C106.816 68.0018 106.533 68.0167 106.234 68.0167C105.936 68.0465 105.652 68.0615 105.383 68.0615ZM119.832 68.0615C118.071 68.0615 116.593 67.7331 115.399 67.0763C114.235 66.4195 113.354 65.4493 112.757 64.1656C112.19 62.852 111.906 61.2101 111.906 59.2397V47.7759C111.906 46.9997 112.1 46.4325 112.488 46.0743C112.876 45.6862 113.429 45.4921 114.145 45.4921C114.862 45.4921 115.414 45.6862 115.802 46.0743C116.22 46.4325 116.429 46.9997 116.429 47.7759V59.2845C116.429 61.0459 116.787 62.3445 117.504 63.1804C118.22 64.0163 119.355 64.4343 120.907 64.4343C122.609 64.4343 123.982 63.867 125.027 62.7326C126.102 61.5683 126.639 60.0458 126.639 58.165V47.7759C126.639 46.9997 126.833 46.4325 127.221 46.0743C127.609 45.6862 128.176 45.4921 128.923 45.4921C129.639 45.4921 130.192 45.6862 130.58 46.0743C130.968 46.4325 131.162 46.9997 131.162 47.7759V65.6881C131.162 67.2106 130.43 67.9719 128.968 67.9719C128.281 67.9719 127.744 67.7779 127.356 67.3898C126.967 66.9718 126.773 66.4046 126.773 65.6881V61.8818L127.356 62.8669C126.758 64.5387 125.803 65.8224 124.49 66.7181C123.176 67.6137 121.624 68.0615 119.832 68.0615ZM147.79 68.0615C145.402 68.0615 143.342 67.6137 141.611 66.7181C139.909 65.7926 138.581 64.494 137.625 62.8222C136.7 61.1205 136.237 59.1054 136.237 56.7768C136.237 54.5079 136.7 52.5226 137.625 50.821C138.551 49.1193 139.82 47.7908 141.432 46.8355C143.044 45.8802 144.88 45.4025 146.94 45.4025C148.462 45.4025 149.821 45.6563 151.015 46.1638C152.209 46.6415 153.224 47.358 154.06 48.3133C154.925 49.2387 155.567 50.3732 155.985 51.7166C156.433 53.06 156.657 54.5676 156.657 56.2394C156.657 56.7469 156.508 57.135 156.209 57.4037C155.911 57.6425 155.463 57.762 154.866 57.762H139.82V54.9856H153.612L152.851 55.6125C152.851 54.1198 152.627 52.851 152.179 51.8062C151.761 50.7613 151.119 49.9702 150.253 49.4328C149.417 48.8656 148.373 48.582 147.119 48.582C145.716 48.582 144.521 48.9103 143.536 49.5671C142.581 50.2239 141.85 51.1344 141.342 52.2987C140.835 53.463 140.581 54.8214 140.581 56.3738V56.6424C140.581 59.2696 141.193 61.2548 142.417 62.5983C143.671 63.9118 145.477 64.5686 147.835 64.5686C148.731 64.5686 149.671 64.4492 150.656 64.2103C151.671 63.9715 152.627 63.5685 153.522 63.0013C154.03 62.7027 154.478 62.5684 154.866 62.5983C155.284 62.6281 155.612 62.7624 155.851 63.0013C156.12 63.2401 156.284 63.5386 156.344 63.8969C156.403 64.2551 156.344 64.6283 156.164 65.0164C155.985 65.3746 155.672 65.703 155.224 66.0016C154.209 66.6882 153.03 67.2106 151.686 67.5689C150.343 67.8973 149.044 68.0615 147.79 68.0615ZM169.245 68.0615C167.932 68.0615 166.573 67.9122 165.17 67.6137C163.797 67.3151 162.528 66.8076 161.364 66.0911C160.976 65.8224 160.707 65.5239 160.558 65.1955C160.409 64.8671 160.349 64.5387 160.379 64.2103C160.438 63.8521 160.573 63.5536 160.782 63.3147C161.021 63.0461 161.304 62.8819 161.633 62.8222C161.991 62.7624 162.364 62.8371 162.752 63.0461C163.916 63.7028 165.036 64.1656 166.111 64.4343C167.185 64.6731 168.245 64.7925 169.29 64.7925C170.872 64.7925 172.066 64.5089 172.872 63.9417C173.678 63.3744 174.082 62.6132 174.082 61.6579C174.082 60.8817 173.813 60.2846 173.275 59.8666C172.738 59.4188 171.932 59.0755 170.857 58.8367L166.603 57.9859C164.752 57.5978 163.349 56.9111 162.394 55.926C161.438 54.9408 160.961 53.6869 160.961 52.1644C160.961 50.7911 161.334 49.597 162.08 48.582C162.827 47.5669 163.872 46.7907 165.215 46.2534C166.558 45.6862 168.111 45.4025 169.872 45.4025C171.186 45.4025 172.425 45.5667 173.589 45.8951C174.753 46.2235 175.828 46.7161 176.813 47.3729C177.201 47.5819 177.455 47.8655 177.574 48.2237C177.694 48.5521 177.709 48.8805 177.619 49.2089C177.559 49.5373 177.41 49.8358 177.171 50.1045C176.933 50.3433 176.634 50.4926 176.276 50.5523C175.947 50.5822 175.574 50.4926 175.156 50.2836C174.261 49.7164 173.365 49.3134 172.469 49.0745C171.604 48.8357 170.738 48.7163 169.872 48.7163C168.29 48.7163 167.096 49.0148 166.29 49.6119C165.514 50.1791 165.125 50.9553 165.125 51.9405C165.125 52.6868 165.364 53.2988 165.842 53.7765C166.32 54.2542 167.066 54.5975 168.081 54.8064L172.335 55.6573C174.276 56.0454 175.738 56.7022 176.724 57.6276C177.739 58.5531 178.246 59.8069 178.246 61.3892C178.246 63.4491 177.425 65.0761 175.783 66.2703C174.141 67.4644 171.962 68.0615 169.245 68.0615Z" fill="#0F1415"/>
<path d="M45.0101 356.494C44.7168 356.494 44.4901 356.414 44.3301 356.254C44.1701 356.08 44.0901 355.84 44.0901 355.534V343.074C44.0901 342.754 44.1701 342.514 44.3301 342.354C44.4901 342.194 44.7168 342.114 45.0101 342.114C45.3168 342.114 45.5501 342.194 45.7101 342.354C45.8701 342.514 45.9501 342.754 45.9501 343.074V348.414H54.1101V343.074C54.1101 342.754 54.1901 342.514 54.3501 342.354C54.5101 342.194 54.7435 342.114 55.0501 342.114C55.3435 342.114 55.5701 342.194 55.7301 342.354C55.8901 342.514 55.9701 342.754 55.9701 343.074V355.534C55.9701 355.84 55.8901 356.08 55.7301 356.254C55.5701 356.414 55.3435 356.494 55.0501 356.494C54.7435 356.494 54.5101 356.414 54.3501 356.254C54.1901 356.08 54.1101 355.84 54.1101 355.534V349.994H45.9501V355.534C45.9501 355.84 45.8701 356.08 45.7101 356.254C45.5635 356.414 45.3301 356.494 45.0101 356.494ZM63.6236 356.534C62.5702 356.534 61.6636 356.334 60.9036 355.934C60.1569 355.52 59.5769 354.94 59.1636 354.194C58.7502 353.434 58.5436 352.54 58.5436 351.514C58.5436 350.5 58.7436 349.614 59.1436 348.854C59.5569 348.094 60.1169 347.5 60.8236 347.074C61.5436 346.647 62.3636 346.434 63.2836 346.434C63.9369 346.434 64.5236 346.547 65.0436 346.774C65.5769 346.987 66.0302 347.3 66.4036 347.714C66.7769 348.127 67.0569 348.634 67.2436 349.234C67.4436 349.82 67.5436 350.487 67.5436 351.234C67.5436 351.447 67.4769 351.614 67.3436 351.734C67.2236 351.84 67.0436 351.894 66.8036 351.894H59.9636V350.734H66.3436L66.0036 351.014C66.0036 350.32 65.8969 349.734 65.6836 349.254C65.4836 348.76 65.1836 348.387 64.7836 348.134C64.3969 347.88 63.9102 347.754 63.3236 347.754C62.6836 347.754 62.1369 347.907 61.6836 348.214C61.2302 348.507 60.8836 348.927 60.6436 349.474C60.4036 350.007 60.2836 350.627 60.2836 351.334V351.454C60.2836 352.654 60.5702 353.56 61.1436 354.174C61.7169 354.787 62.5436 355.094 63.6236 355.094C64.0502 355.094 64.4836 355.04 64.9236 354.934C65.3769 354.827 65.8102 354.634 66.2236 354.354C66.4236 354.234 66.6036 354.18 66.7636 354.194C66.9369 354.194 67.0769 354.247 67.1836 354.354C67.2902 354.447 67.3569 354.567 67.3836 354.714C67.4102 354.847 67.3902 354.994 67.3236 355.154C67.2569 355.314 67.1302 355.454 66.9436 355.574C66.5036 355.88 65.9769 356.12 65.3636 356.294C64.7636 356.454 64.1836 356.534 63.6236 356.534ZM70.7072 356.494C70.4272 356.494 70.2072 356.414 70.0472 356.254C69.8872 356.094 69.8072 355.86 69.8072 355.554V347.394C69.8072 347.087 69.8872 346.86 70.0472 346.714C70.2072 346.554 70.4272 346.474 70.7072 346.474C70.9872 346.474 71.2005 346.554 71.3472 346.714C71.5072 346.86 71.5872 347.087 71.5872 347.394V349.034L71.3672 348.734C71.6472 347.974 72.1005 347.4 72.7272 347.014C73.3672 346.627 74.0938 346.434 74.9072 346.434C75.6938 346.434 76.3405 346.574 76.8472 346.854C77.3538 347.134 77.7338 347.56 77.9872 348.134C78.2405 348.707 78.3672 349.434 78.3672 350.314V355.554C78.3672 355.86 78.2872 356.094 78.1272 356.254C77.9805 356.414 77.7605 356.494 77.4672 356.494C77.1738 356.494 76.9472 356.414 76.7872 356.254C76.6272 356.094 76.5472 355.86 76.5472 355.554V350.414C76.5472 349.547 76.3805 348.914 76.0472 348.514C75.7138 348.114 75.1805 347.914 74.4472 347.914C73.5938 347.914 72.9072 348.18 72.3872 348.714C71.8805 349.234 71.6272 349.94 71.6272 350.834V355.554C71.6272 356.18 71.3205 356.494 70.7072 356.494ZM84.9725 356.534C84.1191 356.534 83.3658 356.334 82.7125 355.934C82.0725 355.52 81.5725 354.934 81.2125 354.174C80.8525 353.4 80.6725 352.5 80.6725 351.474C80.6725 350.434 80.8458 349.54 81.1925 348.794C81.5525 348.034 82.0525 347.454 82.6925 347.054C83.3458 346.64 84.1058 346.434 84.9725 346.434C85.8391 346.434 86.5858 346.654 87.2125 347.094C87.8391 347.52 88.2591 348.094 88.4725 348.814H88.2525V343.034C88.2525 342.727 88.3258 342.5 88.4725 342.354C88.6325 342.194 88.8591 342.114 89.1525 342.114C89.4458 342.114 89.6725 342.194 89.8325 342.354C89.9925 342.5 90.0725 342.727 90.0725 343.034V355.554C90.0725 355.86 89.9925 356.094 89.8325 356.254C89.6725 356.414 89.4458 356.494 89.1525 356.494C88.8725 356.494 88.6525 356.414 88.4925 356.254C88.3325 356.094 88.2525 355.86 88.2525 355.554V353.734L88.4725 354.094C88.2725 354.84 87.8525 355.434 87.2125 355.874C86.5858 356.314 85.8391 356.534 84.9725 356.534ZM85.3925 355.094C85.9791 355.094 86.4858 354.954 86.9125 354.674C87.3525 354.394 87.6858 353.987 87.9125 353.454C88.1525 352.92 88.2725 352.26 88.2725 351.474C88.2725 350.3 88.0125 349.407 87.4925 348.794C86.9725 348.18 86.2725 347.874 85.3925 347.874C84.8191 347.874 84.3125 348.014 83.8725 348.294C83.4458 348.56 83.1125 348.96 82.8725 349.494C82.6325 350.027 82.5125 350.687 82.5125 351.474C82.5125 352.647 82.7725 353.547 83.2925 354.174C83.8258 354.787 84.5258 355.094 85.3925 355.094ZM93.9308 356.494C93.6241 356.494 93.3908 356.414 93.2308 356.254C93.0708 356.094 92.9908 355.86 92.9908 355.554V347.394C92.9908 347.087 93.0708 346.86 93.2308 346.714C93.3908 346.554 93.6108 346.474 93.8908 346.474C94.1708 346.474 94.3841 346.554 94.5308 346.714C94.6908 346.86 94.7708 347.087 94.7708 347.394V348.934H94.5708C94.7841 348.134 95.1841 347.527 95.7708 347.114C96.3574 346.7 97.0974 346.467 97.9908 346.414C98.2041 346.4 98.3774 346.454 98.5108 346.574C98.6441 346.68 98.7174 346.867 98.7308 347.134C98.7441 347.387 98.6841 347.594 98.5508 347.754C98.4174 347.9 98.2108 347.987 97.9308 348.014L97.5708 348.034C96.6908 348.127 96.0108 348.414 95.5308 348.894C95.0641 349.374 94.8308 350.034 94.8308 350.874V355.554C94.8308 355.86 94.7508 356.094 94.5908 356.254C94.4441 356.414 94.2241 356.494 93.9308 356.494ZM104.659 356.534C103.605 356.534 102.699 356.334 101.939 355.934C101.192 355.52 100.612 354.94 100.199 354.194C99.7854 353.434 99.5787 352.54 99.5787 351.514C99.5787 350.5 99.7787 349.614 100.179 348.854C100.592 348.094 101.152 347.5 101.859 347.074C102.579 346.647 103.399 346.434 104.319 346.434C104.972 346.434 105.559 346.547 106.079 346.774C106.612 346.987 107.065 347.3 107.439 347.714C107.812 348.127 108.092 348.634 108.279 349.234C108.479 349.82 108.579 350.487 108.579 351.234C108.579 351.447 108.512 351.614 108.379 351.734C108.259 351.84 108.079 351.894 107.839 351.894H100.999V350.734H107.379L107.039 351.014C107.039 350.32 106.932 349.734 106.719 349.254C106.519 348.76 106.219 348.387 105.819 348.134C105.432 347.88 104.945 347.754 104.359 347.754C103.719 347.754 103.172 347.907 102.719 348.214C102.265 348.507 101.919 348.927 101.679 349.474C101.439 350.007 101.319 350.627 101.319 351.334V351.454C101.319 352.654 101.605 353.56 102.179 354.174C102.752 354.787 103.579 355.094 104.659 355.094C105.085 355.094 105.519 355.04 105.959 354.934C106.412 354.827 106.845 354.634 107.259 354.354C107.459 354.234 107.639 354.18 107.799 354.194C107.972 354.194 108.112 354.247 108.219 354.354C108.325 354.447 108.392 354.567 108.419 354.714C108.445 354.847 108.425 354.994 108.359 355.154C108.292 355.314 108.165 355.454 107.979 355.574C107.539 355.88 107.012 356.12 106.399 356.294C105.799 356.454 105.219 356.534 104.659 356.534ZM111.782 356.494C111.476 356.494 111.242 356.414 111.082 356.254C110.922 356.094 110.842 355.86 110.842 355.554V347.394C110.842 347.087 110.922 346.86 111.082 346.714C111.242 346.554 111.462 346.474 111.742 346.474C112.022 346.474 112.236 346.554 112.382 346.714C112.542 346.86 112.622 347.087 112.622 347.394V348.934H112.422C112.636 348.134 113.036 347.527 113.622 347.114C114.209 346.7 114.949 346.467 115.842 346.414C116.056 346.4 116.229 346.454 116.362 346.574C116.496 346.68 116.569 346.867 116.582 347.134C116.596 347.387 116.536 347.594 116.402 347.754C116.269 347.9 116.062 347.987 115.782 348.014L115.422 348.034C114.542 348.127 113.862 348.414 113.382 348.894C112.916 349.374 112.682 350.034 112.682 350.874V355.554C112.682 355.86 112.602 356.094 112.442 356.254C112.296 356.414 112.076 356.494 111.782 356.494ZM119.047 356.454C118.767 356.454 118.547 356.367 118.387 356.194C118.227 356.02 118.147 355.78 118.147 355.474V347.494C118.147 347.174 118.227 346.934 118.387 346.774C118.547 346.6 118.767 346.514 119.047 346.514C119.34 346.514 119.567 346.6 119.727 346.774C119.887 346.934 119.967 347.174 119.967 347.494V355.474C119.967 355.78 119.887 356.02 119.727 356.194C119.58 356.367 119.354 356.454 119.047 356.454ZM119.047 344.354C118.687 344.354 118.4 344.26 118.187 344.074C117.987 343.874 117.887 343.614 117.887 343.294C117.887 342.947 117.987 342.687 118.187 342.514C118.4 342.327 118.687 342.234 119.047 342.234C119.434 342.234 119.72 342.327 119.907 342.514C120.107 342.687 120.207 342.947 120.207 343.294C120.207 343.614 120.107 343.874 119.907 344.074C119.72 344.26 119.434 344.354 119.047 344.354ZM126.933 356.534C126.146 356.534 125.486 356.394 124.953 356.114C124.433 355.834 124.04 355.427 123.773 354.894C123.52 354.36 123.393 353.707 123.393 352.934V348.014H122.113C121.873 348.014 121.686 347.954 121.553 347.834C121.42 347.7 121.353 347.527 121.353 347.314C121.353 347.087 121.42 346.914 121.553 346.794C121.686 346.674 121.873 346.614 122.113 346.614H123.393V344.434C123.393 344.127 123.473 343.9 123.633 343.754C123.793 343.594 124.02 343.514 124.313 343.514C124.606 343.514 124.826 343.594 124.973 343.754C125.133 343.9 125.213 344.127 125.213 344.434V346.614H127.633C127.886 346.614 128.08 346.674 128.213 346.794C128.346 346.914 128.413 347.087 128.413 347.314C128.413 347.527 128.346 347.7 128.213 347.834C128.08 347.954 127.886 348.014 127.633 348.014H125.213V352.774C125.213 353.507 125.366 354.06 125.673 354.434C125.98 354.807 126.486 354.994 127.193 354.994C127.446 354.994 127.66 354.974 127.833 354.934C128.006 354.88 128.16 354.854 128.293 354.854C128.413 354.84 128.513 354.88 128.593 354.974C128.686 355.067 128.733 355.24 128.733 355.494C128.733 355.68 128.7 355.854 128.633 356.014C128.58 356.16 128.466 356.26 128.293 356.314C128.133 356.367 127.92 356.414 127.653 356.454C127.386 356.507 127.146 356.534 126.933 356.534ZM138.996 356.534C138.143 356.534 137.389 356.334 136.736 355.934C136.096 355.52 135.596 354.934 135.236 354.174C134.876 353.4 134.696 352.5 134.696 351.474C134.696 350.434 134.869 349.54 135.216 348.794C135.576 348.034 136.076 347.454 136.716 347.054C137.369 346.64 138.129 346.434 138.996 346.434C139.863 346.434 140.609 346.654 141.236 347.094C141.863 347.52 142.283 348.094 142.496 348.814H142.276V343.034C142.276 342.727 142.349 342.5 142.496 342.354C142.656 342.194 142.883 342.114 143.176 342.114C143.469 342.114 143.696 342.194 143.856 342.354C144.016 342.5 144.096 342.727 144.096 343.034V355.554C144.096 355.86 144.016 356.094 143.856 356.254C143.696 356.414 143.469 356.494 143.176 356.494C142.896 356.494 142.676 356.414 142.516 356.254C142.356 356.094 142.276 355.86 142.276 355.554V353.734L142.496 354.094C142.296 354.84 141.876 355.434 141.236 355.874C140.609 356.314 139.863 356.534 138.996 356.534ZM139.416 355.094C140.003 355.094 140.509 354.954 140.936 354.674C141.376 354.394 141.709 353.987 141.936 353.454C142.176 352.92 142.296 352.26 142.296 351.474C142.296 350.3 142.036 349.407 141.516 348.794C140.996 348.18 140.296 347.874 139.416 347.874C138.843 347.874 138.336 348.014 137.896 348.294C137.469 348.56 137.136 348.96 136.896 349.494C136.656 350.027 136.536 350.687 136.536 351.474C136.536 352.647 136.796 353.547 137.316 354.174C137.849 354.787 138.549 355.094 139.416 355.094ZM151.154 356.534C150.194 356.534 149.361 356.327 148.654 355.914C147.948 355.5 147.401 354.914 147.014 354.154C146.628 353.394 146.434 352.5 146.434 351.474C146.434 350.7 146.541 350.007 146.754 349.394C146.981 348.767 147.301 348.234 147.714 347.794C148.128 347.354 148.621 347.02 149.194 346.794C149.781 346.554 150.434 346.434 151.154 346.434C152.114 346.434 152.948 346.64 153.654 347.054C154.361 347.467 154.908 348.054 155.294 348.814C155.681 349.56 155.874 350.447 155.874 351.474C155.874 352.247 155.761 352.947 155.534 353.574C155.321 354.2 155.008 354.734 154.594 355.174C154.181 355.614 153.681 355.954 153.094 356.194C152.521 356.42 151.874 356.534 151.154 356.534ZM151.154 355.094C151.741 355.094 152.248 354.954 152.674 354.674C153.114 354.394 153.448 353.987 153.674 353.454C153.914 352.92 154.034 352.26 154.034 351.474C154.034 350.3 153.774 349.407 153.254 348.794C152.734 348.18 152.034 347.874 151.154 347.874C150.581 347.874 150.074 348.014 149.634 348.294C149.208 348.56 148.874 348.96 148.634 349.494C148.394 350.027 148.274 350.687 148.274 351.474C148.274 352.647 148.534 353.547 149.054 354.174C149.588 354.787 150.288 355.094 151.154 355.094ZM159.106 356.494C158.826 356.494 158.606 356.414 158.446 356.254C158.286 356.094 158.206 355.86 158.206 355.554V347.394C158.206 347.087 158.286 346.86 158.446 346.714C158.606 346.554 158.826 346.474 159.106 346.474C159.386 346.474 159.599 346.554 159.746 346.714C159.906 346.86 159.986 347.087 159.986 347.394V349.034L159.766 348.734C160.046 347.974 160.499 347.4 161.126 347.014C161.766 346.627 162.492 346.434 163.306 346.434C164.092 346.434 164.739 346.574 165.246 346.854C165.752 347.134 166.132 347.56 166.386 348.134C166.639 348.707 166.766 349.434 166.766 350.314V355.554C166.766 355.86 166.686 356.094 166.526 356.254C166.379 356.414 166.159 356.494 165.866 356.494C165.572 356.494 165.346 356.414 165.186 356.254C165.026 356.094 164.946 355.86 164.946 355.554V350.414C164.946 349.547 164.779 348.914 164.446 348.514C164.112 348.114 163.579 347.914 162.846 347.914C161.992 347.914 161.306 348.18 160.786 348.714C160.279 349.234 160.026 349.94 160.026 350.834V355.554C160.026 356.18 159.719 356.494 159.106 356.494ZM174.151 356.534C173.098 356.534 172.191 356.334 171.431 355.934C170.684 355.52 170.104 354.94 169.691 354.194C169.278 353.434 169.071 352.54 169.071 351.514C169.071 350.5 169.271 349.614 169.671 348.854C170.084 348.094 170.644 347.5 171.351 347.074C172.071 346.647 172.891 346.434 173.811 346.434C174.464 346.434 175.051 346.547 175.571 346.774C176.104 346.987 176.558 347.3 176.931 347.714C177.304 348.127 177.584 348.634 177.771 349.234C177.971 349.82 178.071 350.487 178.071 351.234C178.071 351.447 178.004 351.614 177.871 351.734C177.751 351.84 177.571 351.894 177.331 351.894H170.491V350.734H176.871L176.531 351.014C176.531 350.32 176.424 349.734 176.211 349.254C176.011 348.76 175.711 348.387 175.311 348.134C174.924 347.88 174.438 347.754 173.851 347.754C173.211 347.754 172.664 347.907 172.211 348.214C171.758 348.507 171.411 348.927 171.171 349.474C170.931 350.007 170.811 350.627 170.811 351.334V351.454C170.811 352.654 171.098 353.56 171.671 354.174C172.244 354.787 173.071 355.094 174.151 355.094C174.578 355.094 175.011 355.04 175.451 354.934C175.904 354.827 176.338 354.634 176.751 354.354C176.951 354.234 177.131 354.18 177.291 354.194C177.464 354.194 177.604 354.247 177.711 354.354C177.818 354.447 177.884 354.567 177.911 354.714C177.938 354.847 177.918 354.994 177.851 355.154C177.784 355.314 177.658 355.454 177.471 355.574C177.031 355.88 176.504 356.12 175.891 356.294C175.291 356.454 174.711 356.534 174.151 356.534ZM184.555 356.534C183.568 356.534 182.715 356.327 181.995 355.914C181.275 355.487 180.721 354.894 180.335 354.134C179.948 353.36 179.755 352.454 179.755 351.414C179.755 350.64 179.861 349.947 180.075 349.334C180.301 348.72 180.621 348.2 181.035 347.774C181.448 347.334 181.948 347 182.535 346.774C183.135 346.547 183.808 346.434 184.555 346.434C185.021 346.434 185.515 346.507 186.035 346.654C186.555 346.8 187.035 347.04 187.475 347.374C187.621 347.48 187.715 347.607 187.755 347.754C187.795 347.887 187.795 348.027 187.755 348.174C187.728 348.32 187.661 348.447 187.555 348.554C187.461 348.647 187.335 348.7 187.175 348.714C187.028 348.727 186.868 348.68 186.695 348.574C186.375 348.334 186.035 348.16 185.675 348.054C185.328 347.947 184.995 347.894 184.675 347.894C184.181 347.894 183.741 347.974 183.355 348.134C182.981 348.294 182.661 348.527 182.395 348.834C182.141 349.127 181.948 349.494 181.815 349.934C181.681 350.36 181.615 350.86 181.615 351.434C181.615 352.567 181.881 353.46 182.415 354.114C182.948 354.754 183.701 355.074 184.675 355.074C184.995 355.074 185.328 355.027 185.675 354.934C186.021 354.827 186.361 354.654 186.695 354.414C186.868 354.307 187.028 354.267 187.175 354.294C187.321 354.307 187.441 354.367 187.535 354.474C187.641 354.567 187.708 354.687 187.735 354.834C187.761 354.967 187.748 355.107 187.695 355.254C187.655 355.4 187.561 355.52 187.415 355.614C186.988 355.934 186.521 356.167 186.015 356.314C185.508 356.46 185.021 356.534 184.555 356.534ZM196.326 356.494C196.033 356.494 195.806 356.414 195.646 356.254C195.486 356.094 195.406 355.86 195.406 355.554V348.014H194.206C193.966 348.014 193.78 347.954 193.646 347.834C193.513 347.7 193.446 347.527 193.446 347.314C193.446 347.087 193.513 346.914 193.646 346.794C193.78 346.674 193.966 346.614 194.206 346.614H195.906L195.406 347.094V346.354C195.406 345.06 195.72 344.08 196.346 343.414C196.986 342.734 197.92 342.34 199.146 342.234L199.766 342.194C199.966 342.167 200.126 342.2 200.246 342.294C200.366 342.374 200.446 342.48 200.486 342.614C200.526 342.747 200.526 342.887 200.486 343.034C200.46 343.167 200.4 343.287 200.306 343.394C200.213 343.5 200.093 343.56 199.946 343.574L199.506 343.594C198.706 343.66 198.126 343.9 197.766 344.314C197.406 344.714 197.226 345.314 197.226 346.114V346.914L196.966 346.614H199.266C199.52 346.614 199.713 346.674 199.846 346.794C199.98 346.914 200.046 347.087 200.046 347.314C200.046 347.527 199.98 347.7 199.846 347.834C199.713 347.954 199.52 348.014 199.266 348.014H197.226V355.554C197.226 356.18 196.926 356.494 196.326 356.494ZM205.123 356.534C204.336 356.534 203.676 356.387 203.143 356.094C202.623 355.8 202.236 355.367 201.983 354.794C201.73 354.22 201.603 353.5 201.603 352.634V347.394C201.603 347.087 201.676 346.86 201.823 346.714C201.983 346.554 202.21 346.474 202.503 346.474C202.796 346.474 203.023 346.554 203.183 346.714C203.343 346.86 203.423 347.087 203.423 347.394V352.634C203.423 353.46 203.59 354.074 203.923 354.474C204.256 354.86 204.783 355.054 205.503 355.054C206.303 355.054 206.95 354.787 207.443 354.254C207.95 353.72 208.203 353.014 208.203 352.134V347.394C208.203 347.087 208.276 346.86 208.423 346.714C208.583 346.554 208.81 346.474 209.103 346.474C209.396 346.474 209.623 346.554 209.783 346.714C209.943 346.86 210.023 347.087 210.023 347.394V355.554C210.023 356.18 209.73 356.494 209.143 356.494C208.85 356.494 208.623 356.414 208.463 356.254C208.316 356.094 208.243 355.86 208.243 355.554V353.814L208.503 354.154C208.236 354.927 207.803 355.52 207.203 355.934C206.616 356.334 205.923 356.534 205.123 356.534ZM216.312 356.534C215.712 356.534 215.105 356.467 214.492 356.334C213.892 356.187 213.325 355.94 212.792 355.594C212.645 355.5 212.538 355.387 212.472 355.254C212.418 355.107 212.398 354.967 212.412 354.834C212.438 354.687 212.498 354.56 212.592 354.454C212.685 354.347 212.798 354.287 212.932 354.274C213.078 354.247 213.232 354.28 213.392 354.374C213.912 354.667 214.412 354.874 214.892 354.994C215.385 355.114 215.872 355.174 216.352 355.174C217.085 355.174 217.638 355.04 218.012 354.774C218.385 354.507 218.572 354.154 218.572 353.714C218.572 353.34 218.445 353.054 218.192 352.854C217.952 352.64 217.572 352.48 217.052 352.374L215.192 351.994C214.365 351.807 213.738 351.5 213.312 351.074C212.898 350.634 212.692 350.074 212.692 349.394C212.692 348.794 212.852 348.274 213.172 347.834C213.505 347.38 213.965 347.034 214.552 346.794C215.138 346.554 215.812 346.434 216.572 346.434C217.158 346.434 217.712 346.514 218.232 346.674C218.765 346.82 219.245 347.047 219.672 347.354C219.832 347.447 219.932 347.567 219.972 347.714C220.025 347.847 220.032 347.987 219.992 348.134C219.965 348.267 219.905 348.38 219.812 348.474C219.718 348.567 219.598 348.627 219.452 348.654C219.305 348.667 219.145 348.627 218.972 348.534C218.585 348.267 218.185 348.08 217.772 347.974C217.372 347.854 216.972 347.794 216.572 347.794C215.852 347.794 215.305 347.934 214.932 348.214C214.572 348.494 214.392 348.86 214.392 349.314C214.392 349.66 214.498 349.947 214.712 350.174C214.938 350.4 215.292 350.567 215.772 350.674L217.632 351.054C218.498 351.24 219.152 351.54 219.592 351.954C220.032 352.354 220.252 352.9 220.252 353.594C220.252 354.5 219.892 355.22 219.172 355.754C218.465 356.274 217.512 356.534 216.312 356.534ZM226.84 356.534C225.853 356.534 225 356.327 224.28 355.914C223.56 355.487 223.006 354.894 222.62 354.134C222.233 353.36 222.04 352.454 222.04 351.414C222.04 350.64 222.146 349.947 222.36 349.334C222.586 348.72 222.906 348.2 223.32 347.774C223.733 347.334 224.233 347 224.82 346.774C225.42 346.547 226.093 346.434 226.84 346.434C227.306 346.434 227.8 346.507 228.32 346.654C228.84 346.8 229.32 347.04 229.76 347.374C229.906 347.48 230 347.607 230.04 347.754C230.08 347.887 230.08 348.027 230.04 348.174C230.013 348.32 229.946 348.447 229.84 348.554C229.746 348.647 229.62 348.7 229.46 348.714C229.313 348.727 229.153 348.68 228.98 348.574C228.66 348.334 228.32 348.16 227.96 348.054C227.613 347.947 227.28 347.894 226.96 347.894C226.466 347.894 226.026 347.974 225.64 348.134C225.266 348.294 224.946 348.527 224.68 348.834C224.426 349.127 224.233 349.494 224.1 349.934C223.966 350.36 223.9 350.86 223.9 351.434C223.9 352.567 224.166 353.46 224.7 354.114C225.233 354.754 225.986 355.074 226.96 355.074C227.28 355.074 227.613 355.027 227.96 354.934C228.306 354.827 228.646 354.654 228.98 354.414C229.153 354.307 229.313 354.267 229.46 354.294C229.606 354.307 229.726 354.367 229.82 354.474C229.926 354.567 229.993 354.687 230.02 354.834C230.046 354.967 230.033 355.107 229.98 355.254C229.94 355.4 229.846 355.52 229.7 355.614C229.273 355.934 228.806 356.167 228.3 356.314C227.793 356.46 227.306 356.534 226.84 356.534ZM236.221 356.534C235.168 356.534 234.261 356.334 233.501 355.934C232.755 355.52 232.175 354.94 231.761 354.194C231.348 353.434 231.141 352.54 231.141 351.514C231.141 350.5 231.341 349.614 231.741 348.854C232.155 348.094 232.715 347.5 233.421 347.074C234.141 346.647 234.961 346.434 235.881 346.434C236.535 346.434 237.121 346.547 237.641 346.774C238.175 346.987 238.628 347.3 239.001 347.714C239.375 348.127 239.655 348.634 239.841 349.234C240.041 349.82 240.141 350.487 240.141 351.234C240.141 351.447 240.075 351.614 239.941 351.734C239.821 351.84 239.641 351.894 239.401 351.894H232.561V350.734H238.941L238.601 351.014C238.601 350.32 238.495 349.734 238.281 349.254C238.081 348.76 237.781 348.387 237.381 348.134C236.995 347.88 236.508 347.754 235.921 347.754C235.281 347.754 234.735 347.907 234.281 348.214C233.828 348.507 233.481 348.927 233.241 349.474C233.001 350.007 232.881 350.627 232.881 351.334V351.454C232.881 352.654 233.168 353.56 233.741 354.174C234.315 354.787 235.141 355.094 236.221 355.094C236.648 355.094 237.081 355.04 237.521 354.934C237.975 354.827 238.408 354.634 238.821 354.354C239.021 354.234 239.201 354.18 239.361 354.194C239.535 354.194 239.675 354.247 239.781 354.354C239.888 354.447 239.955 354.567 239.981 354.714C240.008 354.847 239.988 354.994 239.921 355.154C239.855 355.314 239.728 355.454 239.541 355.574C239.101 355.88 238.575 356.12 237.961 356.294C237.361 356.454 236.781 356.534 236.221 356.534ZM250.72 356.534C250.053 356.534 249.446 356.4 248.9 356.134C248.366 355.867 247.946 355.507 247.64 355.054C247.346 354.6 247.2 354.094 247.2 353.534C247.2 352.814 247.38 352.247 247.74 351.834C248.1 351.42 248.706 351.127 249.56 350.954C250.413 350.767 251.56 350.674 253 350.674H253.94V351.834H253.04C252.013 351.834 251.2 351.88 250.6 351.974C250.013 352.067 249.6 352.234 249.36 352.474C249.12 352.7 249 353.02 249 353.434C249 353.954 249.18 354.38 249.54 354.714C249.913 355.047 250.42 355.214 251.06 355.214C251.566 355.214 252.013 355.094 252.4 354.854C252.786 354.6 253.093 354.267 253.32 353.854C253.546 353.427 253.66 352.94 253.66 352.394V350.094C253.66 349.307 253.5 348.74 253.18 348.394C252.86 348.034 252.32 347.854 251.56 347.854C251.12 347.854 250.666 347.914 250.2 348.034C249.733 348.154 249.246 348.34 248.74 348.594C248.54 348.687 248.366 348.72 248.22 348.694C248.073 348.654 247.953 348.574 247.86 348.454C247.78 348.32 247.733 348.18 247.72 348.034C247.72 347.874 247.753 347.72 247.82 347.574C247.9 347.427 248.033 347.32 248.22 347.254C248.806 346.96 249.386 346.754 249.96 346.634C250.546 346.5 251.093 346.434 251.6 346.434C252.466 346.434 253.18 346.574 253.74 346.854C254.3 347.12 254.72 347.54 255 348.114C255.28 348.674 255.42 349.394 255.42 350.274V355.554C255.42 355.86 255.346 356.094 255.2 356.254C255.053 356.414 254.84 356.494 254.56 356.494C254.293 356.494 254.08 356.414 253.92 356.254C253.773 356.094 253.7 355.86 253.7 355.554V354.134H253.88C253.773 354.627 253.573 355.054 253.28 355.414C252.986 355.774 252.62 356.054 252.18 356.254C251.753 356.44 251.266 356.534 250.72 356.534ZM262.504 356.534C261.517 356.534 260.664 356.327 259.944 355.914C259.224 355.487 258.67 354.894 258.284 354.134C257.897 353.36 257.704 352.454 257.704 351.414C257.704 350.64 257.81 349.947 258.024 349.334C258.25 348.72 258.57 348.2 258.984 347.774C259.397 347.334 259.897 347 260.484 346.774C261.084 346.547 261.757 346.434 262.504 346.434C262.97 346.434 263.464 346.507 263.984 346.654C264.504 346.8 264.984 347.04 265.424 347.374C265.57 347.48 265.664 347.607 265.704 347.754C265.744 347.887 265.744 348.027 265.704 348.174C265.677 348.32 265.61 348.447 265.504 348.554C265.41 348.647 265.284 348.7 265.124 348.714C264.977 348.727 264.817 348.68 264.644 348.574C264.324 348.334 263.984 348.16 263.624 348.054C263.277 347.947 262.944 347.894 262.624 347.894C262.13 347.894 261.69 347.974 261.304 348.134C260.93 348.294 260.61 348.527 260.344 348.834C260.09 349.127 259.897 349.494 259.764 349.934C259.63 350.36 259.564 350.86 259.564 351.434C259.564 352.567 259.83 353.46 260.364 354.114C260.897 354.754 261.65 355.074 262.624 355.074C262.944 355.074 263.277 355.027 263.624 354.934C263.97 354.827 264.31 354.654 264.644 354.414C264.817 354.307 264.977 354.267 265.124 354.294C265.27 354.307 265.39 354.367 265.484 354.474C265.59 354.567 265.657 354.687 265.684 354.834C265.71 354.967 265.697 355.107 265.644 355.254C265.604 355.4 265.51 355.52 265.364 355.614C264.937 355.934 264.47 356.167 263.964 356.314C263.457 356.46 262.97 356.534 262.504 356.534ZM47.9901 386.534C47.0301 386.534 46.1968 386.327 45.4901 385.914C44.7835 385.5 44.2368 384.914 43.8501 384.154C43.4635 383.394 43.2701 382.5 43.2701 381.474C43.2701 380.7 43.3768 380.007 43.5901 379.394C43.8168 378.767 44.1368 378.234 44.5501 377.794C44.9635 377.354 45.4568 377.02 46.0301 376.794C46.6168 376.554 47.2701 376.434 47.9901 376.434C48.9501 376.434 49.7835 376.64 50.4901 377.054C51.1968 377.467 51.7435 378.054 52.1301 378.814C52.5168 379.56 52.7101 380.447 52.7101 381.474C52.7101 382.247 52.5968 382.947 52.3701 383.574C52.1568 384.2 51.8435 384.734 51.4301 385.174C51.0168 385.614 50.5168 385.954 49.9301 386.194C49.3568 386.42 48.7101 386.534 47.9901 386.534ZM47.9901 385.094C48.5768 385.094 49.0835 384.954 49.5101 384.674C49.9501 384.394 50.2835 383.987 50.5101 383.454C50.7501 382.92 50.8701 382.26 50.8701 381.474C50.8701 380.3 50.6101 379.407 50.0901 378.794C49.5701 378.18 48.8701 377.874 47.9901 377.874C47.4168 377.874 46.9101 378.014 46.4701 378.294C46.0435 378.56 45.7101 378.96 45.4701 379.494C45.2301 380.027 45.1101 380.687 45.1101 381.474C45.1101 382.647 45.3701 383.547 45.8901 384.174C46.4235 384.787 47.1235 385.094 47.9901 385.094ZM55.9815 386.494C55.6749 386.494 55.4415 386.414 55.2815 386.254C55.1215 386.094 55.0415 385.86 55.0415 385.554V377.394C55.0415 377.087 55.1215 376.86 55.2815 376.714C55.4415 376.554 55.6615 376.474 55.9415 376.474C56.2215 376.474 56.4349 376.554 56.5815 376.714C56.7415 376.86 56.8215 377.087 56.8215 377.394V378.934H56.6215C56.8349 378.134 57.2349 377.527 57.8215 377.114C58.4082 376.7 59.1482 376.467 60.0415 376.414C60.2549 376.4 60.4282 376.454 60.5615 376.574C60.6949 376.68 60.7682 376.867 60.7815 377.134C60.7949 377.387 60.7349 377.594 60.6015 377.754C60.4682 377.9 60.2615 377.987 59.9815 378.014L59.6215 378.034C58.7415 378.127 58.0615 378.414 57.5815 378.894C57.1149 379.374 56.8815 380.034 56.8815 380.874V385.554C56.8815 385.86 56.8015 386.094 56.6415 386.254C56.4949 386.414 56.2749 386.494 55.9815 386.494ZM66.7095 386.534C65.6562 386.534 64.7495 386.334 63.9895 385.934C63.2428 385.52 62.6628 384.94 62.2495 384.194C61.8362 383.434 61.6295 382.54 61.6295 381.514C61.6295 380.5 61.8295 379.614 62.2295 378.854C62.6428 378.094 63.2028 377.5 63.9095 377.074C64.6295 376.647 65.4495 376.434 66.3695 376.434C67.0228 376.434 67.6095 376.547 68.1295 376.774C68.6628 376.987 69.1162 377.3 69.4895 377.714C69.8628 378.127 70.1428 378.634 70.3295 379.234C70.5295 379.82 70.6295 380.487 70.6295 381.234C70.6295 381.447 70.5628 381.614 70.4295 381.734C70.3095 381.84 70.1295 381.894 69.8895 381.894H63.0495V380.734H69.4295L69.0895 381.014C69.0895 380.32 68.9828 379.734 68.7695 379.254C68.5695 378.76 68.2695 378.387 67.8695 378.134C67.4828 377.88 66.9962 377.754 66.4095 377.754C65.7695 377.754 65.2228 377.907 64.7695 378.214C64.3162 378.507 63.9695 378.927 63.7295 379.474C63.4895 380.007 63.3695 380.627 63.3695 381.334V381.454C63.3695 382.654 63.6562 383.56 64.2295 384.174C64.8028 384.787 65.6295 385.094 66.7095 385.094C67.1362 385.094 67.5695 385.04 68.0095 384.934C68.4628 384.827 68.8962 384.634 69.3095 384.354C69.5095 384.234 69.6895 384.18 69.8495 384.194C70.0228 384.194 70.1628 384.247 70.2695 384.354C70.3762 384.447 70.4428 384.567 70.4695 384.714C70.4962 384.847 70.4762 384.994 70.4095 385.154C70.3428 385.314 70.2162 385.454 70.0295 385.574C69.5895 385.88 69.0628 386.12 68.4495 386.294C67.8495 386.454 67.2695 386.534 66.7095 386.534ZM82.3279 386.534C81.3413 386.534 80.4879 386.327 79.7679 385.914C79.0479 385.487 78.4946 384.894 78.1079 384.134C77.7213 383.36 77.5279 382.454 77.5279 381.414C77.5279 380.64 77.6346 379.947 77.8479 379.334C78.0746 378.72 78.3946 378.2 78.8079 377.774C79.2213 377.334 79.7213 377 80.3079 376.774C80.9079 376.547 81.5813 376.434 82.3279 376.434C82.7946 376.434 83.2879 376.507 83.8079 376.654C84.3279 376.8 84.8079 377.04 85.2479 377.374C85.3946 377.48 85.4879 377.607 85.5279 377.754C85.5679 377.887 85.5679 378.027 85.5279 378.174C85.5013 378.32 85.4346 378.447 85.3279 378.554C85.2346 378.647 85.1079 378.7 84.9479 378.714C84.8013 378.727 84.6413 378.68 84.4679 378.574C84.1479 378.334 83.8079 378.16 83.4479 378.054C83.1013 377.947 82.7679 377.894 82.4479 377.894C81.9546 377.894 81.5146 377.974 81.1279 378.134C80.7546 378.294 80.4346 378.527 80.1679 378.834C79.9146 379.127 79.7213 379.494 79.5879 379.934C79.4546 380.36 79.3879 380.86 79.3879 381.434C79.3879 382.567 79.6546 383.46 80.1879 384.114C80.7213 384.754 81.4746 385.074 82.4479 385.074C82.7679 385.074 83.1013 385.027 83.4479 384.934C83.7946 384.827 84.1346 384.654 84.4679 384.414C84.6413 384.307 84.8013 384.267 84.9479 384.294C85.0946 384.307 85.2146 384.367 85.3079 384.474C85.4146 384.567 85.4813 384.687 85.5079 384.834C85.5346 384.967 85.5213 385.107 85.4679 385.254C85.4279 385.4 85.3346 385.52 85.1879 385.614C84.7613 385.934 84.2946 386.167 83.7879 386.314C83.2813 386.46 82.7946 386.534 82.3279 386.534ZM91.3495 386.534C90.3895 386.534 89.5562 386.327 88.8495 385.914C88.1428 385.5 87.5962 384.914 87.2095 384.154C86.8228 383.394 86.6295 382.5 86.6295 381.474C86.6295 380.7 86.7362 380.007 86.9495 379.394C87.1762 378.767 87.4962 378.234 87.9095 377.794C88.3228 377.354 88.8162 377.02 89.3895 376.794C89.9762 376.554 90.6295 376.434 91.3495 376.434C92.3095 376.434 93.1428 376.64 93.8495 377.054C94.5562 377.467 95.1028 378.054 95.4895 378.814C95.8762 379.56 96.0695 380.447 96.0695 381.474C96.0695 382.247 95.9562 382.947 95.7295 383.574C95.5162 384.2 95.2028 384.734 94.7895 385.174C94.3762 385.614 93.8762 385.954 93.2895 386.194C92.7162 386.42 92.0695 386.534 91.3495 386.534ZM91.3495 385.094C91.9362 385.094 92.4428 384.954 92.8695 384.674C93.3095 384.394 93.6428 383.987 93.8695 383.454C94.1095 382.92 94.2295 382.26 94.2295 381.474C94.2295 380.3 93.9695 379.407 93.4495 378.794C92.9295 378.18 92.2295 377.874 91.3495 377.874C90.7762 377.874 90.2695 378.014 89.8295 378.294C89.4028 378.56 89.0695 378.96 88.8295 379.494C88.5895 380.027 88.4695 380.687 88.4695 381.474C88.4695 382.647 88.7295 383.547 89.2495 384.174C89.7828 384.787 90.4828 385.094 91.3495 385.094ZM99.3009 386.494C99.0209 386.494 98.8009 386.414 98.6409 386.254C98.4809 386.094 98.4009 385.86 98.4009 385.554V377.394C98.4009 377.087 98.4809 376.86 98.6409 376.714C98.8009 376.554 99.0209 376.474 99.3009 376.474C99.5809 376.474 99.7943 376.554 99.9409 376.714C100.101 376.86 100.181 377.087 100.181 377.394V379.034L99.9609 378.734C100.241 377.974 100.694 377.4 101.321 377.014C101.961 376.627 102.688 376.434 103.501 376.434C104.288 376.434 104.934 376.574 105.441 376.854C105.948 377.134 106.328 377.56 106.581 378.134C106.834 378.707 106.961 379.434 106.961 380.314V385.554C106.961 385.86 106.881 386.094 106.721 386.254C106.574 386.414 106.354 386.494 106.061 386.494C105.768 386.494 105.541 386.414 105.381 386.254C105.221 386.094 105.141 385.86 105.141 385.554V380.414C105.141 379.547 104.974 378.914 104.641 378.514C104.308 378.114 103.774 377.914 103.041 377.914C102.188 377.914 101.501 378.18 100.981 378.714C100.474 379.234 100.221 379.94 100.221 380.834V385.554C100.221 386.18 99.9143 386.494 99.3009 386.494ZM113.449 386.494C113.195 386.494 112.975 386.427 112.789 386.294C112.602 386.16 112.442 385.947 112.309 385.654L108.909 377.734C108.815 377.507 108.782 377.3 108.809 377.114C108.835 376.927 108.922 376.774 109.069 376.654C109.229 376.534 109.442 376.474 109.709 376.474C109.935 376.474 110.115 376.527 110.249 376.634C110.382 376.74 110.509 376.927 110.629 377.194L113.769 384.934H113.209L116.429 377.194C116.535 376.927 116.655 376.74 116.789 376.634C116.935 376.527 117.135 376.474 117.389 376.474C117.615 376.474 117.789 376.534 117.909 376.654C118.042 376.774 118.122 376.927 118.149 377.114C118.175 377.3 118.135 377.5 118.029 377.714L114.609 385.654C114.489 385.947 114.329 386.16 114.129 386.294C113.942 386.427 113.715 386.494 113.449 386.494ZM123.005 386.534C122.338 386.534 121.731 386.4 121.185 386.134C120.651 385.867 120.231 385.507 119.925 385.054C119.631 384.6 119.485 384.094 119.485 383.534C119.485 382.814 119.665 382.247 120.025 381.834C120.385 381.42 120.991 381.127 121.845 380.954C122.698 380.767 123.845 380.674 125.285 380.674H126.225V381.834H125.325C124.298 381.834 123.485 381.88 122.885 381.974C122.298 382.067 121.885 382.234 121.645 382.474C121.405 382.7 121.285 383.02 121.285 383.434C121.285 383.954 121.465 384.38 121.825 384.714C122.198 385.047 122.705 385.214 123.345 385.214C123.851 385.214 124.298 385.094 124.685 384.854C125.071 384.6 125.378 384.267 125.605 383.854C125.831 383.427 125.945 382.94 125.945 382.394V380.094C125.945 379.307 125.785 378.74 125.465 378.394C125.145 378.034 124.605 377.854 123.845 377.854C123.405 377.854 122.951 377.914 122.485 378.034C122.018 378.154 121.531 378.34 121.025 378.594C120.825 378.687 120.651 378.72 120.505 378.694C120.358 378.654 120.238 378.574 120.145 378.454C120.065 378.32 120.018 378.18 120.005 378.034C120.005 377.874 120.038 377.72 120.105 377.574C120.185 377.427 120.318 377.32 120.505 377.254C121.091 376.96 121.671 376.754 122.245 376.634C122.831 376.5 123.378 376.434 123.885 376.434C124.751 376.434 125.465 376.574 126.025 376.854C126.585 377.12 127.005 377.54 127.285 378.114C127.565 378.674 127.705 379.394 127.705 380.274V385.554C127.705 385.86 127.631 386.094 127.485 386.254C127.338 386.414 127.125 386.494 126.845 386.494C126.578 386.494 126.365 386.414 126.205 386.254C126.058 386.094 125.985 385.86 125.985 385.554V384.134H126.165C126.058 384.627 125.858 385.054 125.565 385.414C125.271 385.774 124.905 386.054 124.465 386.254C124.038 386.44 123.551 386.534 123.005 386.534ZM133.629 386.534C132.629 386.534 131.869 386.24 131.349 385.654C130.829 385.054 130.569 384.194 130.569 383.074V373.034C130.569 372.727 130.649 372.5 130.809 372.354C130.969 372.194 131.189 372.114 131.469 372.114C131.762 372.114 131.989 372.194 132.149 372.354C132.309 372.5 132.389 372.727 132.389 373.034V382.934C132.389 383.627 132.529 384.147 132.809 384.494C133.102 384.827 133.516 384.994 134.049 384.994C134.169 384.994 134.276 384.994 134.369 384.994C134.462 384.98 134.556 384.967 134.649 384.954C134.796 384.94 134.902 384.98 134.969 385.074C135.036 385.167 135.069 385.354 135.069 385.634C135.069 385.887 135.009 386.087 134.889 386.234C134.782 386.367 134.602 386.454 134.349 386.494C134.229 386.507 134.109 386.514 133.989 386.514C133.869 386.527 133.749 386.534 133.629 386.534ZM139.645 386.534C138.645 386.534 137.885 386.24 137.365 385.654C136.845 385.054 136.585 384.194 136.585 383.074V373.034C136.585 372.727 136.665 372.5 136.825 372.354C136.985 372.194 137.205 372.114 137.485 372.114C137.778 372.114 138.005 372.194 138.165 372.354C138.325 372.5 138.405 372.727 138.405 373.034V382.934C138.405 383.627 138.545 384.147 138.825 384.494C139.118 384.827 139.531 384.994 140.065 384.994C140.185 384.994 140.291 384.994 140.385 384.994C140.478 384.98 140.571 384.967 140.665 384.954C140.811 384.94 140.918 384.98 140.985 385.074C141.051 385.167 141.085 385.354 141.085 385.634C141.085 385.887 141.025 386.087 140.905 386.234C140.798 386.367 140.618 386.454 140.365 386.494C140.245 386.507 140.125 386.514 140.005 386.514C139.885 386.527 139.765 386.534 139.645 386.534ZM143.5 386.454C143.22 386.454 143 386.367 142.84 386.194C142.68 386.02 142.6 385.78 142.6 385.474V377.494C142.6 377.174 142.68 376.934 142.84 376.774C143 376.6 143.22 376.514 143.5 376.514C143.793 376.514 144.02 376.6 144.18 376.774C144.34 376.934 144.42 377.174 144.42 377.494V385.474C144.42 385.78 144.34 386.02 144.18 386.194C144.033 386.367 143.807 386.454 143.5 386.454ZM143.5 374.354C143.14 374.354 142.853 374.26 142.64 374.074C142.44 373.874 142.34 373.614 142.34 373.294C142.34 372.947 142.44 372.687 142.64 372.514C142.853 372.327 143.14 372.234 143.5 372.234C143.887 372.234 144.173 372.327 144.36 372.514C144.56 372.687 144.66 372.947 144.66 373.294C144.66 373.614 144.56 373.874 144.36 374.074C144.173 374.26 143.887 374.354 143.5 374.354ZM150.706 386.534C150.106 386.534 149.5 386.467 148.886 386.334C148.286 386.187 147.72 385.94 147.186 385.594C147.04 385.5 146.933 385.387 146.866 385.254C146.813 385.107 146.793 384.967 146.806 384.834C146.833 384.687 146.893 384.56 146.986 384.454C147.08 384.347 147.193 384.287 147.326 384.274C147.473 384.247 147.626 384.28 147.786 384.374C148.306 384.667 148.806 384.874 149.286 384.994C149.78 385.114 150.266 385.174 150.746 385.174C151.48 385.174 152.033 385.04 152.406 384.774C152.78 384.507 152.966 384.154 152.966 383.714C152.966 383.34 152.84 383.054 152.586 382.854C152.346 382.64 151.966 382.48 151.446 382.374L149.586 381.994C148.76 381.807 148.133 381.5 147.706 381.074C147.293 380.634 147.086 380.074 147.086 379.394C147.086 378.794 147.246 378.274 147.566 377.834C147.9 377.38 148.36 377.034 148.946 376.794C149.533 376.554 150.206 376.434 150.966 376.434C151.553 376.434 152.106 376.514 152.626 376.674C153.16 376.82 153.64 377.047 154.066 377.354C154.226 377.447 154.326 377.567 154.366 377.714C154.42 377.847 154.426 377.987 154.386 378.134C154.36 378.267 154.3 378.38 154.206 378.474C154.113 378.567 153.993 378.627 153.846 378.654C153.7 378.667 153.54 378.627 153.366 378.534C152.98 378.267 152.58 378.08 152.166 377.974C151.766 377.854 151.366 377.794 150.966 377.794C150.246 377.794 149.7 377.934 149.326 378.214C148.966 378.494 148.786 378.86 148.786 379.314C148.786 379.66 148.893 379.947 149.106 380.174C149.333 380.4 149.686 380.567 150.166 380.674L152.026 381.054C152.893 381.24 153.546 381.54 153.986 381.954C154.426 382.354 154.646 382.9 154.646 383.594C154.646 384.5 154.286 385.22 153.566 385.754C152.86 386.274 151.906 386.534 150.706 386.534ZM165.709 386.534C164.922 386.534 164.262 386.387 163.729 386.094C163.209 385.8 162.822 385.367 162.569 384.794C162.316 384.22 162.189 383.5 162.189 382.634V377.394C162.189 377.087 162.262 376.86 162.409 376.714C162.569 376.554 162.796 376.474 163.089 376.474C163.382 376.474 163.609 376.554 163.769 376.714C163.929 376.86 164.009 377.087 164.009 377.394V382.634C164.009 383.46 164.176 384.074 164.509 384.474C164.842 384.86 165.369 385.054 166.089 385.054C166.889 385.054 167.536 384.787 168.029 384.254C168.536 383.72 168.789 383.014 168.789 382.134V377.394C168.789 377.087 168.862 376.86 169.009 376.714C169.169 376.554 169.396 376.474 169.689 376.474C169.982 376.474 170.209 376.554 170.369 376.714C170.529 376.86 170.609 377.087 170.609 377.394V385.554C170.609 386.18 170.316 386.494 169.729 386.494C169.436 386.494 169.209 386.414 169.049 386.254C168.902 386.094 168.829 385.86 168.829 385.554V383.814L169.089 384.154C168.822 384.927 168.389 385.52 167.789 385.934C167.202 386.334 166.509 386.534 165.709 386.534ZM174.478 386.494C174.171 386.494 173.938 386.414 173.778 386.254C173.618 386.094 173.538 385.86 173.538 385.554V377.394C173.538 377.087 173.618 376.86 173.778 376.714C173.938 376.554 174.158 376.474 174.438 376.474C174.718 376.474 174.931 376.554 175.078 376.714C175.238 376.86 175.318 377.087 175.318 377.394V378.934H175.118C175.331 378.134 175.731 377.527 176.318 377.114C176.904 376.7 177.644 376.467 178.538 376.414C178.751 376.4 178.924 376.454 179.058 376.574C179.191 376.68 179.264 376.867 179.278 377.134C179.291 377.387 179.231 377.594 179.098 377.754C178.964 377.9 178.758 377.987 178.478 378.014L178.118 378.034C177.238 378.127 176.558 378.414 176.078 378.894C175.611 379.374 175.378 380.034 175.378 380.874V385.554C175.378 385.86 175.298 386.094 175.138 386.254C174.991 386.414 174.771 386.494 174.478 386.494ZM181.742 386.494C181.462 386.494 181.242 386.414 181.082 386.254C180.922 386.094 180.842 385.86 180.842 385.554V377.394C180.842 377.087 180.922 376.86 181.082 376.714C181.242 376.554 181.462 376.474 181.742 376.474C182.022 376.474 182.236 376.554 182.382 376.714C182.542 376.86 182.622 377.087 182.622 377.394V379.034L182.402 378.734C182.682 377.974 183.136 377.4 183.762 377.014C184.402 376.627 185.129 376.434 185.942 376.434C186.729 376.434 187.376 376.574 187.882 376.854C188.389 377.134 188.769 377.56 189.022 378.134C189.276 378.707 189.402 379.434 189.402 380.314V385.554C189.402 385.86 189.322 386.094 189.162 386.254C189.016 386.414 188.796 386.494 188.502 386.494C188.209 386.494 187.982 386.414 187.822 386.254C187.662 386.094 187.582 385.86 187.582 385.554V380.414C187.582 379.547 187.416 378.914 187.082 378.514C186.749 378.114 186.216 377.914 185.482 377.914C184.629 377.914 183.942 378.18 183.422 378.714C182.916 379.234 182.662 379.94 182.662 380.834V385.554C182.662 386.18 182.356 386.494 181.742 386.494ZM195.388 386.534C194.721 386.534 194.114 386.4 193.568 386.134C193.034 385.867 192.614 385.507 192.308 385.054C192.014 384.6 191.868 384.094 191.868 383.534C191.868 382.814 192.048 382.247 192.408 381.834C192.768 381.42 193.374 381.127 194.228 380.954C195.081 380.767 196.228 380.674 197.668 380.674H198.608V381.834H197.708C196.681 381.834 195.868 381.88 195.268 381.974C194.681 382.067 194.268 382.234 194.028 382.474C193.788 382.7 193.668 383.02 193.668 383.434C193.668 383.954 193.848 384.38 194.208 384.714C194.581 385.047 195.088 385.214 195.728 385.214C196.234 385.214 196.681 385.094 197.068 384.854C197.454 384.6 197.761 384.267 197.988 383.854C198.214 383.427 198.328 382.94 198.328 382.394V380.094C198.328 379.307 198.168 378.74 197.848 378.394C197.528 378.034 196.988 377.854 196.228 377.854C195.788 377.854 195.334 377.914 194.868 378.034C194.401 378.154 193.914 378.34 193.408 378.594C193.208 378.687 193.034 378.72 192.888 378.694C192.741 378.654 192.621 378.574 192.528 378.454C192.448 378.32 192.401 378.18 192.388 378.034C192.388 377.874 192.421 377.72 192.488 377.574C192.568 377.427 192.701 377.32 192.888 377.254C193.474 376.96 194.054 376.754 194.628 376.634C195.214 376.5 195.761 376.434 196.268 376.434C197.134 376.434 197.848 376.574 198.408 376.854C198.968 377.12 199.388 377.54 199.668 378.114C199.948 378.674 200.088 379.394 200.088 380.274V385.554C200.088 385.86 200.014 386.094 199.868 386.254C199.721 386.414 199.508 386.494 199.228 386.494C198.961 386.494 198.748 386.414 198.588 386.254C198.441 386.094 198.368 385.86 198.368 385.554V384.134H198.548C198.441 384.627 198.241 385.054 197.948 385.414C197.654 385.774 197.288 386.054 196.848 386.254C196.421 386.44 195.934 386.534 195.388 386.534ZM212.307 386.534C211.347 386.534 210.513 386.327 209.807 385.914C209.1 385.5 208.553 384.914 208.167 384.154C207.78 383.394 207.587 382.5 207.587 381.474C207.587 380.7 207.693 380.007 207.907 379.394C208.133 378.767 208.453 378.234 208.867 377.794C209.28 377.354 209.773 377.02 210.347 376.794C210.933 376.554 211.587 376.434 212.307 376.434C213.267 376.434 214.1 376.64 214.807 377.054C215.513 377.467 216.06 378.054 216.447 378.814C216.833 379.56 217.027 380.447 217.027 381.474C217.027 382.247 216.913 382.947 216.687 383.574C216.473 384.2 216.16 384.734 215.747 385.174C215.333 385.614 214.833 385.954 214.247 386.194C213.673 386.42 213.027 386.534 212.307 386.534ZM212.307 385.094C212.893 385.094 213.4 384.954 213.827 384.674C214.267 384.394 214.6 383.987 214.827 383.454C215.067 382.92 215.187 382.26 215.187 381.474C215.187 380.3 214.927 379.407 214.407 378.794C213.887 378.18 213.187 377.874 212.307 377.874C211.733 377.874 211.227 378.014 210.787 378.294C210.36 378.56 210.027 378.96 209.787 379.494C209.547 380.027 209.427 380.687 209.427 381.474C209.427 382.647 209.687 383.547 210.207 384.174C210.74 384.787 211.44 385.094 212.307 385.094ZM220.298 386.494C219.991 386.494 219.758 386.414 219.598 386.254C219.438 386.094 219.358 385.86 219.358 385.554V377.394C219.358 377.087 219.438 376.86 219.598 376.714C219.758 376.554 219.978 376.474 220.258 376.474C220.538 376.474 220.751 376.554 220.898 376.714C221.058 376.86 221.138 377.087 221.138 377.394V378.934H220.938C221.151 378.134 221.551 377.527 222.138 377.114C222.725 376.7 223.465 376.467 224.358 376.414C224.571 376.4 224.745 376.454 224.878 376.574C225.011 376.68 225.085 376.867 225.098 377.134C225.111 377.387 225.051 377.594 224.918 377.754C224.785 377.9 224.578 377.987 224.298 378.014L223.938 378.034C223.058 378.127 222.378 378.414 221.898 378.894C221.431 379.374 221.198 380.034 221.198 380.874V385.554C221.198 385.86 221.118 386.094 220.958 386.254C220.811 386.414 220.591 386.494 220.298 386.494ZM231.026 386.534C229.973 386.534 229.066 386.334 228.306 385.934C227.559 385.52 226.979 384.94 226.566 384.194C226.153 383.434 225.946 382.54 225.946 381.514C225.946 380.5 226.146 379.614 226.546 378.854C226.959 378.094 227.519 377.5 228.226 377.074C228.946 376.647 229.766 376.434 230.686 376.434C231.339 376.434 231.926 376.547 232.446 376.774C232.979 376.987 233.433 377.3 233.806 377.714C234.179 378.127 234.459 378.634 234.646 379.234C234.846 379.82 234.946 380.487 234.946 381.234C234.946 381.447 234.879 381.614 234.746 381.734C234.626 381.84 234.446 381.894 234.206 381.894H227.366V380.734H233.746L233.406 381.014C233.406 380.32 233.299 379.734 233.086 379.254C232.886 378.76 232.586 378.387 232.186 378.134C231.799 377.88 231.313 377.754 230.726 377.754C230.086 377.754 229.539 377.907 229.086 378.214C228.633 378.507 228.286 378.927 228.046 379.474C227.806 380.007 227.686 380.627 227.686 381.334V381.454C227.686 382.654 227.973 383.56 228.546 384.174C229.119 384.787 229.946 385.094 231.026 385.094C231.453 385.094 231.886 385.04 232.326 384.934C232.779 384.827 233.213 384.634 233.626 384.354C233.826 384.234 234.006 384.18 234.166 384.194C234.339 384.194 234.479 384.247 234.586 384.354C234.693 384.447 234.759 384.567 234.786 384.714C234.813 384.847 234.793 384.994 234.726 385.154C234.659 385.314 234.533 385.454 234.346 385.574C233.906 385.88 233.379 386.12 232.766 386.294C232.166 386.454 231.586 386.534 231.026 386.534ZM238.15 386.494C237.87 386.494 237.65 386.414 237.49 386.254C237.33 386.094 237.25 385.86 237.25 385.554V377.394C237.25 377.087 237.33 376.86 237.49 376.714C237.65 376.554 237.87 376.474 238.15 376.474C238.43 376.474 238.643 376.554 238.79 376.714C238.95 376.86 239.03 377.087 239.03 377.394V379.094L238.81 378.734C239.063 378 239.47 377.434 240.03 377.034C240.603 376.634 241.283 376.434 242.07 376.434C242.896 376.434 243.563 376.634 244.07 377.034C244.576 377.42 244.916 378.014 245.09 378.814H244.81C245.05 378.08 245.476 377.5 246.09 377.074C246.716 376.647 247.443 376.434 248.27 376.434C249.003 376.434 249.603 376.58 250.07 376.874C250.55 377.154 250.91 377.58 251.15 378.154C251.39 378.714 251.51 379.434 251.51 380.314V385.554C251.51 385.86 251.43 386.094 251.27 386.254C251.11 386.414 250.89 386.494 250.61 386.494C250.316 386.494 250.09 386.414 249.93 386.254C249.77 386.094 249.69 385.86 249.69 385.554V380.394C249.69 379.54 249.543 378.914 249.25 378.514C248.956 378.114 248.463 377.914 247.77 377.914C247.01 377.914 246.403 378.18 245.95 378.714C245.51 379.234 245.29 379.954 245.29 380.874V385.554C245.29 385.86 245.21 386.094 245.05 386.254C244.903 386.414 244.683 386.494 244.39 386.494C244.096 386.494 243.87 386.414 243.71 386.254C243.55 386.094 243.47 385.86 243.47 385.554V380.394C243.47 379.54 243.323 378.914 243.03 378.514C242.736 378.114 242.243 377.914 241.55 377.914C240.79 377.914 240.183 378.18 239.73 378.714C239.29 379.234 239.07 379.954 239.07 380.874V385.554C239.07 386.18 238.763 386.494 238.15 386.494ZM44.7501 416.454C44.4701 416.454 44.2501 416.367 44.0901 416.194C43.9301 416.02 43.8501 415.78 43.8501 415.474V407.494C43.8501 407.174 43.9301 406.934 44.0901 406.774C44.2501 406.6 44.4701 406.514 44.7501 406.514C45.0435 406.514 45.2701 406.6 45.4301 406.774C45.5901 406.934 45.6701 407.174 45.6701 407.494V415.474C45.6701 415.78 45.5901 416.02 45.4301 416.194C45.2835 416.367 45.0568 416.454 44.7501 416.454ZM44.7501 404.354C44.3901 404.354 44.1035 404.26 43.8901 404.074C43.6901 403.874 43.5901 403.614 43.5901 403.294C43.5901 402.947 43.6901 402.687 43.8901 402.514C44.1035 402.327 44.3901 402.234 44.7501 402.234C45.1368 402.234 45.4235 402.327 45.6101 402.514C45.8101 402.687 45.9101 402.947 45.9101 403.294C45.9101 403.614 45.8101 403.874 45.6101 404.074C45.4235 404.26 45.1368 404.354 44.7501 404.354ZM49.4962 420.094C49.2162 420.094 48.9962 420.014 48.8362 419.854C48.6762 419.694 48.5962 419.467 48.5962 419.174V407.394C48.5962 407.087 48.6762 406.86 48.8362 406.714C48.9962 406.554 49.2162 406.474 49.4962 406.474C49.7896 406.474 50.0096 406.554 50.1562 406.714C50.3162 406.86 50.3962 407.087 50.3962 407.394V409.214L50.1762 408.854C50.3896 408.12 50.8096 407.534 51.4362 407.094C52.0629 406.654 52.8162 406.434 53.6962 406.434C54.5629 406.434 55.3162 406.64 55.9562 407.054C56.5962 407.454 57.0962 408.034 57.4562 408.794C57.8162 409.54 57.9962 410.434 57.9962 411.474C57.9962 412.5 57.8162 413.4 57.4562 414.174C57.1096 414.934 56.6096 415.52 55.9562 415.934C55.3162 416.334 54.5629 416.534 53.6962 416.534C52.8296 416.534 52.0829 416.314 51.4562 415.874C50.8296 415.434 50.4096 414.854 50.1962 414.134H50.4162V419.174C50.4162 419.467 50.3362 419.694 50.1762 419.854C50.0162 420.014 49.7896 420.094 49.4962 420.094ZM53.2762 415.094C53.8496 415.094 54.3496 414.954 54.7762 414.674C55.2162 414.394 55.5562 413.987 55.7962 413.454C56.0362 412.92 56.1562 412.26 56.1562 411.474C56.1562 410.3 55.8962 409.407 55.3762 408.794C54.8562 408.18 54.1562 407.874 53.2762 407.874C52.6896 407.874 52.1762 408.014 51.7362 408.294C51.3096 408.56 50.9762 408.96 50.7362 409.494C50.5096 410.027 50.3962 410.687 50.3962 411.474C50.3962 412.647 50.6562 413.547 51.1762 414.174C51.6962 414.787 52.3962 415.094 53.2762 415.094ZM63.6945 416.534C63.0945 416.534 62.4878 416.467 61.8745 416.334C61.2745 416.187 60.7078 415.94 60.1745 415.594C60.0278 415.5 59.9212 415.387 59.8545 415.254C59.8012 415.107 59.7812 414.967 59.7945 414.834C59.8212 414.687 59.8812 414.56 59.9745 414.454C60.0678 414.347 60.1812 414.287 60.3145 414.274C60.4612 414.247 60.6145 414.28 60.7745 414.374C61.2945 414.667 61.7945 414.874 62.2745 414.994C62.7678 415.114 63.2545 415.174 63.7345 415.174C64.4678 415.174 65.0212 415.04 65.3945 414.774C65.7678 414.507 65.9545 414.154 65.9545 413.714C65.9545 413.34 65.8278 413.054 65.5745 412.854C65.3345 412.64 64.9545 412.48 64.4345 412.374L62.5745 411.994C61.7478 411.807 61.1212 411.5 60.6945 411.074C60.2812 410.634 60.0745 410.074 60.0745 409.394C60.0745 408.794 60.2345 408.274 60.5545 407.834C60.8878 407.38 61.3478 407.034 61.9345 406.794C62.5212 406.554 63.1945 406.434 63.9545 406.434C64.5412 406.434 65.0945 406.514 65.6145 406.674C66.1478 406.82 66.6278 407.047 67.0545 407.354C67.2145 407.447 67.3145 407.567 67.3545 407.714C67.4078 407.847 67.4145 407.987 67.3745 408.134C67.3478 408.267 67.2878 408.38 67.1945 408.474C67.1012 408.567 66.9812 408.627 66.8345 408.654C66.6878 408.667 66.5278 408.627 66.3545 408.534C65.9678 408.267 65.5678 408.08 65.1545 407.974C64.7545 407.854 64.3545 407.794 63.9545 407.794C63.2345 407.794 62.6878 407.934 62.3145 408.214C61.9545 408.494 61.7745 408.86 61.7745 409.314C61.7745 409.66 61.8812 409.947 62.0945 410.174C62.3212 410.4 62.6745 410.567 63.1545 410.674L65.0145 411.054C65.8812 411.24 66.5345 411.54 66.9745 411.954C67.4145 412.354 67.6345 412.9 67.6345 413.594C67.6345 414.5 67.2745 415.22 66.5545 415.754C65.8478 416.274 64.8945 416.534 63.6945 416.534ZM73.4825 416.534C72.6958 416.534 72.0358 416.387 71.5025 416.094C70.9825 415.8 70.5958 415.367 70.3425 414.794C70.0891 414.22 69.9625 413.5 69.9625 412.634V407.394C69.9625 407.087 70.0358 406.86 70.1825 406.714C70.3425 406.554 70.5691 406.474 70.8625 406.474C71.1558 406.474 71.3825 406.554 71.5425 406.714C71.7025 406.86 71.7825 407.087 71.7825 407.394V412.634C71.7825 413.46 71.9491 414.074 72.2825 414.474C72.6158 414.86 73.1425 415.054 73.8625 415.054C74.6625 415.054 75.3091 414.787 75.8025 414.254C76.3091 413.72 76.5625 413.014 76.5625 412.134V407.394C76.5625 407.087 76.6358 406.86 76.7825 406.714C76.9425 406.554 77.1691 406.474 77.4625 406.474C77.7558 406.474 77.9825 406.554 78.1425 406.714C78.3025 406.86 78.3825 407.087 78.3825 407.394V415.554C78.3825 416.18 78.0891 416.494 77.5025 416.494C77.2091 416.494 76.9825 416.414 76.8225 416.254C76.6758 416.094 76.6025 415.86 76.6025 415.554V413.814L76.8625 414.154C76.5958 414.927 76.1625 415.52 75.5625 415.934C74.9758 416.334 74.2825 416.534 73.4825 416.534ZM82.2511 416.494C81.9711 416.494 81.7511 416.414 81.5911 416.254C81.4311 416.094 81.3511 415.86 81.3511 415.554V407.394C81.3511 407.087 81.4311 406.86 81.5911 406.714C81.7511 406.554 81.9711 406.474 82.2511 406.474C82.5311 406.474 82.7444 406.554 82.8911 406.714C83.0511 406.86 83.1311 407.087 83.1311 407.394V409.094L82.9111 408.734C83.1644 408 83.5711 407.434 84.1311 407.034C84.7044 406.634 85.3844 406.434 86.1711 406.434C86.9977 406.434 87.6644 406.634 88.1711 407.034C88.6777 407.42 89.0177 408.014 89.1911 408.814H88.9111C89.1511 408.08 89.5777 407.5 90.1911 407.074C90.8177 406.647 91.5444 406.434 92.3711 406.434C93.1044 406.434 93.7044 406.58 94.1711 406.874C94.6511 407.154 95.0111 407.58 95.2511 408.154C95.4911 408.714 95.6111 409.434 95.6111 410.314V415.554C95.6111 415.86 95.5311 416.094 95.3711 416.254C95.2111 416.414 94.9911 416.494 94.7111 416.494C94.4177 416.494 94.1911 416.414 94.0311 416.254C93.8711 416.094 93.7911 415.86 93.7911 415.554V410.394C93.7911 409.54 93.6444 408.914 93.3511 408.514C93.0577 408.114 92.5644 407.914 91.8711 407.914C91.1111 407.914 90.5044 408.18 90.0511 408.714C89.6111 409.234 89.3911 409.954 89.3911 410.874V415.554C89.3911 415.86 89.3111 416.094 89.1511 416.254C89.0044 416.414 88.7844 416.494 88.4911 416.494C88.1977 416.494 87.9711 416.414 87.8111 416.254C87.6511 416.094 87.5711 415.86 87.5711 415.554V410.394C87.5711 409.54 87.4244 408.914 87.1311 408.514C86.8377 408.114 86.3444 407.914 85.6511 407.914C84.8911 407.914 84.2844 408.18 83.8311 408.714C83.3911 409.234 83.1711 409.954 83.1711 410.874V415.554C83.1711 416.18 82.8644 416.494 82.2511 416.494ZM99.4176 416.434C99.071 416.434 98.7843 416.32 98.5576 416.094C98.331 415.867 98.2176 415.58 98.2176 415.234C98.2176 414.887 98.331 414.607 98.5576 414.394C98.7843 414.18 99.071 414.074 99.4176 414.074C99.791 414.074 100.078 414.18 100.278 414.394C100.491 414.607 100.598 414.887 100.598 415.234C100.598 415.58 100.491 415.867 100.278 416.094C100.078 416.32 99.791 416.434 99.4176 416.434Z" fill="#344346"/>
</g>
<defs>
<filter id="filter0_ddii_80_2377" x="0" y="0.268311" width="334.805" height="478.476" filterUnits="userSpaceOnUse" color-interpolation-filters="sRGB">
<feFlood flood-opacity="0" result="BackgroundImageFix"/>
<feColorMatrix in="SourceAlpha" type="matrix" values="0 0 0 0 0 0 0 0 0 0 0 0 0 0 0 0 0 0 127 0" result="hardAlpha"/>
<feOffset dy="4"/>
<feGaussianBlur stdDeviation="2"/>
<feComposite in2="hardAlpha" operator="out"/>
<feColorMatrix type="matrix" values="0 0 0 0 0 0 0 0 0 0 0 0 0 0 0 0 0 0 0.1 0"/>
<feBlend mode="normal" in2="BackgroundImageFix" result="effect1_dropShadow_80_2377"/>
<feColorMatrix in="SourceAlpha" type="matrix" values="0 0 0 0 0 0 0 0 0 0 0 0 0 0 0 0 0 0 127 0" result="hardAlpha"/>
<feMorphology radius="12" operator="erode" in="SourceAlpha" result="effect2_dropShadow_80_2377"/>
<feOffset dy="12"/>
<feGaussianBlur stdDeviation="16"/>
<feComposite in2="hardAlpha" operator="out"/>
<feColorMatrix type="matrix" values="0 0 0 0 0 0 0 0 0 0 0 0 0 0 0 0 0 0 0.1 0"/>
<feBlend mode="normal" in2="effect1_dropShadow_80_2377" result="effect2_dropShadow_80_2377"/>
<feBlend mode="normal" in="SourceGraphic" in2="effect2_dropShadow_80_2377" result="shape"/>
<feColorMatrix in="SourceAlpha" type="matrix" values="0 0 0 0 0 0 0 0 0 0 0 0 0 0 0 0 0 0 127 0" result="hardAlpha"/>
<feOffset dy="6"/>
<feGaussianBlur stdDeviation="6"/>
<feComposite in2="hardAlpha" operator="arithmetic" k2="-1" k3="1"/>
<feColorMatrix type="matrix" values="0 0 0 0 1 0 0 0 0 1 0 0 0 0 1 0 0 0 0.04 0"/>
<feBlend mode="normal" in2="shape" result="effect3_innerShadow_80_2377"/>
<feColorMatrix in="SourceAlpha" type="matrix" values="0 0 0 0 0 0 0 0 0 0 0 0 0 0 0 0 0 0 127 0" result="hardAlpha"/>
<feOffset dy="1"/>
<feGaussianBlur stdDeviation="0.5"/>
<feComposite in2="hardAlpha" operator="arithmetic" k2="-1" k3="1"/>
<feColorMatrix type="matrix" values="0 0 0 0 1 0 0 0 0 1 0 0 0 0 1 0 0 0 0.2 0"/>
<feBlend mode="normal" in2="effect3_innerShadow_80_2377" result="effect4_innerShadow_80_2377"/>
</filter>
</defs>
</svg>
