<svg width="336" height="338" viewBox="0 0 336 338" fill="none" xmlns="http://www.w3.org/2000/svg">
<rect x="20.7314" y="8.26831" width="294.805" height="297.604" rx="22.3902" fill="#F9FBFB"/>
<g filter="url(#filter0_ddii_80_2380)">
<path d="M20.7314 38.122C20.7314 21.6343 34.0974 8.26831 50.5851 8.26831H130.817C147.305 8.26831 160.67 21.6342 160.67 38.122V119.753C160.67 136.241 147.305 149.607 130.817 149.607H50.5851C34.0974 149.607 20.7314 136.241 20.7314 119.753V38.122Z" fill="#F9FBFB" shape-rendering="crispEdges"/>
<g clip-path="url(#clip0_80_2380)">
<rect x="72.042" y="60.2791" width="37.3171" height="37.3171" rx="18.6585" fill="#0F1415"/>
<path d="M97.9637 84.3312L98.791 78.9377H93.6162V75.4392C93.6162 73.9633 94.3377 72.5238 96.6555 72.5238H99.0096V67.9321C99.0096 67.9321 96.8741 67.5676 94.8333 67.5676C90.5696 67.5676 87.7854 70.1514 87.7854 74.827V78.9377H83.0479V84.3312H87.7854V97.3703C88.7365 97.5197 89.7095 97.5962 90.7008 97.5962C91.692 97.5962 92.665 97.5197 93.6162 97.3703V84.3312H97.9637Z" fill="white"/>
</g>
</g>
<g filter="url(#filter1_ddii_80_2380)">
<path d="M175.598 38.122C175.598 21.6343 188.964 8.26831 205.451 8.26831H285.683C302.171 8.26831 315.537 21.6342 315.537 38.122V119.753C315.537 136.241 302.171 149.607 285.683 149.607H205.451C188.964 149.607 175.598 136.241 175.598 119.753V38.122Z" fill="#F9FBFB" shape-rendering="crispEdges"/>
<g clip-path="url(#clip1_80_2380)">
<path d="M226.908 78.9376C226.908 68.6328 235.262 60.2791 245.567 60.2791C255.872 60.2791 264.225 68.6328 264.225 78.9376C264.225 89.2424 255.872 97.5961 245.567 97.5961C235.262 97.5961 226.908 89.2424 226.908 78.9376Z" fill="#0F1415"/>
<path d="M252.006 68.9863H255.439L247.938 77.4168L256.762 88.8888H249.853L244.442 81.9311L238.25 88.8888H234.814L242.837 79.8715L234.372 68.9863H241.457L246.348 75.3459L252.006 68.9863ZM250.801 86.8679H252.703L240.423 70.901H238.381L250.801 86.8679Z" fill="white"/>
</g>
</g>
<g filter="url(#filter2_ddii_80_2380)">
<path d="M20.7314 194.387C20.7314 177.9 34.0974 164.534 50.5851 164.534H130.817C147.305 164.534 160.67 177.9 160.67 194.387V276.018C160.67 292.506 147.305 305.872 130.817 305.872H50.5851C34.0974 305.872 20.7314 292.506 20.7314 276.018V194.387Z" fill="#F9FBFB" shape-rendering="crispEdges"/>
<rect x="72.042" y="216.544" width="37.3171" height="37.3171" rx="18.6585" fill="#0F1415"/>
<path d="M90.7034 226.026C93.6948 226.026 94.046 226.039 95.2283 226.092C96.3218 226.141 96.9129 226.324 97.3085 226.479C97.833 226.684 98.2064 226.924 98.5975 227.315C98.9887 227.706 99.2331 228.079 99.4332 228.604C99.5843 228.999 99.771 229.591 99.8199 230.684C99.8732 231.866 99.8865 232.217 99.8865 235.209C99.8865 238.2 99.8732 238.551 99.8199 239.734C99.771 240.827 99.5887 241.418 99.4332 241.814C99.2287 242.338 98.9887 242.712 98.5975 243.103C98.2064 243.494 97.833 243.739 97.3085 243.939C96.9129 244.09 96.3218 244.276 95.2283 244.325C94.046 244.379 93.6948 244.392 90.7034 244.392C87.7121 244.392 87.3609 244.379 86.1786 244.325C85.0851 244.276 84.494 244.094 84.0984 243.939C83.5739 243.734 83.2005 243.494 82.8094 243.103C82.4182 242.712 82.1738 242.338 81.9737 241.814C81.8226 241.418 81.6359 240.827 81.587 239.734C81.5337 238.551 81.5204 238.2 81.5204 235.209C81.5204 232.217 81.5337 231.866 81.587 230.684C81.6359 229.591 81.8182 228.999 81.9737 228.604C82.1782 228.079 82.4182 227.706 82.8094 227.315C83.2005 226.924 83.5739 226.679 84.0984 226.479C84.494 226.328 85.0851 226.141 86.1786 226.092C87.3609 226.035 87.7165 226.026 90.7034 226.026ZM90.7034 224.008C87.6632 224.008 87.2809 224.021 86.0852 224.074C84.894 224.128 84.0806 224.319 83.3694 224.595C82.6316 224.879 82.0093 225.266 81.387 225.888C80.7647 226.51 80.3825 227.137 80.0936 227.87C79.818 228.582 79.6268 229.395 79.5735 230.591C79.5202 231.782 79.5068 232.164 79.5068 235.204C79.5068 238.245 79.5202 238.627 79.5735 239.823C79.6268 241.014 79.818 241.827 80.0936 242.543C80.378 243.281 80.7647 243.903 81.387 244.525C82.0093 245.148 82.636 245.53 83.3694 245.819C84.0806 246.094 84.894 246.285 86.0897 246.339C87.2853 246.392 87.6632 246.405 90.7079 246.405C93.7526 246.405 94.1304 246.392 95.3261 246.339C96.5173 246.285 97.3307 246.094 98.0464 245.819C98.7842 245.534 99.4065 245.148 100.029 244.525C100.651 243.903 101.033 243.276 101.322 242.543C101.598 241.832 101.789 241.018 101.842 239.823C101.896 238.627 101.909 238.249 101.909 235.204C101.909 232.16 101.896 231.782 101.842 230.586C101.789 229.395 101.598 228.582 101.322 227.866C101.038 227.128 100.651 226.506 100.029 225.884C99.4065 225.261 98.7798 224.879 98.0464 224.59C97.3352 224.315 96.5218 224.123 95.3261 224.07C94.126 224.021 93.7437 224.008 90.7034 224.008Z" fill="white"/>
<path d="M90.7034 226.026C93.6948 226.026 94.046 226.039 95.2283 226.092C96.3218 226.141 96.9129 226.324 97.3085 226.479C97.833 226.684 98.2064 226.924 98.5975 227.315C98.9887 227.706 99.2331 228.079 99.4332 228.604C99.5843 228.999 99.771 229.591 99.8199 230.684C99.8732 231.866 99.8865 232.217 99.8865 235.209C99.8865 238.2 99.8732 238.551 99.8199 239.734C99.771 240.827 99.5887 241.418 99.4332 241.814C99.2287 242.338 98.9887 242.712 98.5975 243.103C98.2064 243.494 97.833 243.739 97.3085 243.939C96.9129 244.09 96.3218 244.276 95.2283 244.325C94.046 244.379 93.6948 244.392 90.7034 244.392C87.7121 244.392 87.3609 244.379 86.1786 244.325C85.0851 244.276 84.494 244.094 84.0984 243.939C83.5739 243.734 83.2005 243.494 82.8094 243.103C82.4182 242.712 82.1738 242.338 81.9737 241.814C81.8226 241.418 81.6359 240.827 81.587 239.734C81.5337 238.551 81.5204 238.2 81.5204 235.209C81.5204 232.217 81.5337 231.866 81.587 230.684C81.6359 229.591 81.8182 228.999 81.9737 228.604C82.1782 228.079 82.4182 227.706 82.8094 227.315C83.2005 226.924 83.5739 226.679 84.0984 226.479C84.494 226.328 85.0851 226.141 86.1786 226.092C87.3609 226.035 87.7165 226.026 90.7034 226.026Z" fill="white"/>
<path d="M90.7038 229.457C87.5302 229.457 84.9521 232.031 84.9521 235.209C84.9521 238.387 87.5257 240.96 90.7038 240.96C93.8819 240.96 96.4554 238.387 96.4554 235.209C96.4554 232.031 93.8819 229.457 90.7038 229.457ZM90.7038 238.938C88.6414 238.938 86.9701 237.267 86.9701 235.204C86.9701 233.142 88.6414 231.471 90.7038 231.471C92.7662 231.471 94.4375 233.142 94.4375 235.204C94.4375 237.267 92.7662 238.938 90.7038 238.938Z" fill="#0F1415"/>
<path d="M96.6822 230.568C97.4235 230.568 98.0245 229.967 98.0245 229.226C98.0245 228.485 97.4235 227.884 96.6822 227.884C95.9408 227.884 95.3398 228.485 95.3398 229.226C95.3398 229.967 95.9408 230.568 96.6822 230.568Z" fill="#0F1415"/>
</g>
<g filter="url(#filter3_ddii_80_2380)">
<path d="M175.598 194.387C175.598 177.9 188.964 164.534 205.451 164.534H285.683C302.171 164.534 315.537 177.9 315.537 194.387V276.018C315.537 292.506 302.171 305.872 285.683 305.872H205.451C188.964 305.872 175.598 292.506 175.598 276.018V194.387Z" fill="#F9FBFB" shape-rendering="crispEdges"/>
<rect x="226.908" y="216.544" width="37.3171" height="37.3171" rx="18.6585" fill="#0F1415"/>
<path d="M254.314 224.941H236.82C236.418 224.941 236.033 225.1 235.748 225.384C235.464 225.669 235.305 226.054 235.305 226.456V243.95C235.305 244.352 235.464 244.737 235.748 245.021C236.033 245.305 236.418 245.465 236.82 245.465H254.314C254.716 245.465 255.101 245.305 255.385 245.021C255.669 244.737 255.829 244.352 255.829 243.95V226.456C255.829 226.054 255.669 225.669 255.385 225.384C255.101 225.1 254.716 224.941 254.314 224.941ZM241.422 242.425H238.336V232.623H241.422V242.425ZM239.877 231.265C239.527 231.263 239.185 231.157 238.895 230.961C238.605 230.765 238.38 230.488 238.247 230.164C238.115 229.84 238.081 229.484 238.151 229.141C238.22 228.798 238.39 228.483 238.638 228.236C238.887 227.99 239.202 227.822 239.546 227.755C239.889 227.687 240.245 227.723 240.568 227.858C240.891 227.992 241.167 228.22 241.361 228.511C241.556 228.802 241.659 229.144 241.659 229.495C241.662 229.729 241.618 229.961 241.53 230.179C241.441 230.396 241.31 230.592 241.144 230.758C240.977 230.923 240.779 231.053 240.562 231.14C240.344 231.227 240.111 231.27 239.877 231.265ZM252.796 242.433H249.712V237.079C249.712 235.499 249.04 235.012 248.174 235.012C247.259 235.012 246.361 235.702 246.361 237.118V242.433H243.275V232.63H246.242V233.989H246.282C246.58 233.386 247.624 232.355 249.216 232.355C250.937 232.355 252.797 233.377 252.797 236.37L252.796 242.433Z" fill="white"/>
</g>
<defs>
<filter id="filter0_ddii_80_2380" x="0.731445" y="0.268311" width="179.939" height="181.338" filterUnits="userSpaceOnUse" color-interpolation-filters="sRGB">
<feFlood flood-opacity="0" result="BackgroundImageFix"/>
<feColorMatrix in="SourceAlpha" type="matrix" values="0 0 0 0 0 0 0 0 0 0 0 0 0 0 0 0 0 0 127 0" result="hardAlpha"/>
<feOffset dy="4"/>
<feGaussianBlur stdDeviation="2"/>
<feComposite in2="hardAlpha" operator="out"/>
<feColorMatrix type="matrix" values="0 0 0 0 0 0 0 0 0 0 0 0 0 0 0 0 0 0 0.1 0"/>
<feBlend mode="normal" in2="BackgroundImageFix" result="effect1_dropShadow_80_2380"/>
<feColorMatrix in="SourceAlpha" type="matrix" values="0 0 0 0 0 0 0 0 0 0 0 0 0 0 0 0 0 0 127 0" result="hardAlpha"/>
<feMorphology radius="12" operator="erode" in="SourceAlpha" result="effect2_dropShadow_80_2380"/>
<feOffset dy="12"/>
<feGaussianBlur stdDeviation="16"/>
<feComposite in2="hardAlpha" operator="out"/>
<feColorMatrix type="matrix" values="0 0 0 0 0 0 0 0 0 0 0 0 0 0 0 0 0 0 0.1 0"/>
<feBlend mode="normal" in2="effect1_dropShadow_80_2380" result="effect2_dropShadow_80_2380"/>
<feBlend mode="normal" in="SourceGraphic" in2="effect2_dropShadow_80_2380" result="shape"/>
<feColorMatrix in="SourceAlpha" type="matrix" values="0 0 0 0 0 0 0 0 0 0 0 0 0 0 0 0 0 0 127 0" result="hardAlpha"/>
<feOffset dy="6"/>
<feGaussianBlur stdDeviation="6"/>
<feComposite in2="hardAlpha" operator="arithmetic" k2="-1" k3="1"/>
<feColorMatrix type="matrix" values="0 0 0 0 1 0 0 0 0 1 0 0 0 0 1 0 0 0 0.04 0"/>
<feBlend mode="normal" in2="shape" result="effect3_innerShadow_80_2380"/>
<feColorMatrix in="SourceAlpha" type="matrix" values="0 0 0 0 0 0 0 0 0 0 0 0 0 0 0 0 0 0 127 0" result="hardAlpha"/>
<feOffset dy="1"/>
<feGaussianBlur stdDeviation="0.5"/>
<feComposite in2="hardAlpha" operator="arithmetic" k2="-1" k3="1"/>
<feColorMatrix type="matrix" values="0 0 0 0 1 0 0 0 0 1 0 0 0 0 1 0 0 0 0.2 0"/>
<feBlend mode="normal" in2="effect3_innerShadow_80_2380" result="effect4_innerShadow_80_2380"/>
</filter>
<filter id="filter1_ddii_80_2380" x="155.598" y="0.268311" width="179.939" height="181.338" filterUnits="userSpaceOnUse" color-interpolation-filters="sRGB">
<feFlood flood-opacity="0" result="BackgroundImageFix"/>
<feColorMatrix in="SourceAlpha" type="matrix" values="0 0 0 0 0 0 0 0 0 0 0 0 0 0 0 0 0 0 127 0" result="hardAlpha"/>
<feOffset dy="4"/>
<feGaussianBlur stdDeviation="2"/>
<feComposite in2="hardAlpha" operator="out"/>
<feColorMatrix type="matrix" values="0 0 0 0 0 0 0 0 0 0 0 0 0 0 0 0 0 0 0.1 0"/>
<feBlend mode="normal" in2="BackgroundImageFix" result="effect1_dropShadow_80_2380"/>
<feColorMatrix in="SourceAlpha" type="matrix" values="0 0 0 0 0 0 0 0 0 0 0 0 0 0 0 0 0 0 127 0" result="hardAlpha"/>
<feMorphology radius="12" operator="erode" in="SourceAlpha" result="effect2_dropShadow_80_2380"/>
<feOffset dy="12"/>
<feGaussianBlur stdDeviation="16"/>
<feComposite in2="hardAlpha" operator="out"/>
<feColorMatrix type="matrix" values="0 0 0 0 0 0 0 0 0 0 0 0 0 0 0 0 0 0 0.1 0"/>
<feBlend mode="normal" in2="effect1_dropShadow_80_2380" result="effect2_dropShadow_80_2380"/>
<feBlend mode="normal" in="SourceGraphic" in2="effect2_dropShadow_80_2380" result="shape"/>
<feColorMatrix in="SourceAlpha" type="matrix" values="0 0 0 0 0 0 0 0 0 0 0 0 0 0 0 0 0 0 127 0" result="hardAlpha"/>
<feOffset dy="6"/>
<feGaussianBlur stdDeviation="6"/>
<feComposite in2="hardAlpha" operator="arithmetic" k2="-1" k3="1"/>
<feColorMatrix type="matrix" values="0 0 0 0 1 0 0 0 0 1 0 0 0 0 1 0 0 0 0.04 0"/>
<feBlend mode="normal" in2="shape" result="effect3_innerShadow_80_2380"/>
<feColorMatrix in="SourceAlpha" type="matrix" values="0 0 0 0 0 0 0 0 0 0 0 0 0 0 0 0 0 0 127 0" result="hardAlpha"/>
<feOffset dy="1"/>
<feGaussianBlur stdDeviation="0.5"/>
<feComposite in2="hardAlpha" operator="arithmetic" k2="-1" k3="1"/>
<feColorMatrix type="matrix" values="0 0 0 0 1 0 0 0 0 1 0 0 0 0 1 0 0 0 0.2 0"/>
<feBlend mode="normal" in2="effect3_innerShadow_80_2380" result="effect4_innerShadow_80_2380"/>
</filter>
<filter id="filter2_ddii_80_2380" x="0.731445" y="156.534" width="179.939" height="181.338" filterUnits="userSpaceOnUse" color-interpolation-filters="sRGB">
<feFlood flood-opacity="0" result="BackgroundImageFix"/>
<feColorMatrix in="SourceAlpha" type="matrix" values="0 0 0 0 0 0 0 0 0 0 0 0 0 0 0 0 0 0 127 0" result="hardAlpha"/>
<feOffset dy="4"/>
<feGaussianBlur stdDeviation="2"/>
<feComposite in2="hardAlpha" operator="out"/>
<feColorMatrix type="matrix" values="0 0 0 0 0 0 0 0 0 0 0 0 0 0 0 0 0 0 0.1 0"/>
<feBlend mode="normal" in2="BackgroundImageFix" result="effect1_dropShadow_80_2380"/>
<feColorMatrix in="SourceAlpha" type="matrix" values="0 0 0 0 0 0 0 0 0 0 0 0 0 0 0 0 0 0 127 0" result="hardAlpha"/>
<feMorphology radius="12" operator="erode" in="SourceAlpha" result="effect2_dropShadow_80_2380"/>
<feOffset dy="12"/>
<feGaussianBlur stdDeviation="16"/>
<feComposite in2="hardAlpha" operator="out"/>
<feColorMatrix type="matrix" values="0 0 0 0 0 0 0 0 0 0 0 0 0 0 0 0 0 0 0.1 0"/>
<feBlend mode="normal" in2="effect1_dropShadow_80_2380" result="effect2_dropShadow_80_2380"/>
<feBlend mode="normal" in="SourceGraphic" in2="effect2_dropShadow_80_2380" result="shape"/>
<feColorMatrix in="SourceAlpha" type="matrix" values="0 0 0 0 0 0 0 0 0 0 0 0 0 0 0 0 0 0 127 0" result="hardAlpha"/>
<feOffset dy="6"/>
<feGaussianBlur stdDeviation="6"/>
<feComposite in2="hardAlpha" operator="arithmetic" k2="-1" k3="1"/>
<feColorMatrix type="matrix" values="0 0 0 0 1 0 0 0 0 1 0 0 0 0 1 0 0 0 0.04 0"/>
<feBlend mode="normal" in2="shape" result="effect3_innerShadow_80_2380"/>
<feColorMatrix in="SourceAlpha" type="matrix" values="0 0 0 0 0 0 0 0 0 0 0 0 0 0 0 0 0 0 127 0" result="hardAlpha"/>
<feOffset dy="1"/>
<feGaussianBlur stdDeviation="0.5"/>
<feComposite in2="hardAlpha" operator="arithmetic" k2="-1" k3="1"/>
<feColorMatrix type="matrix" values="0 0 0 0 1 0 0 0 0 1 0 0 0 0 1 0 0 0 0.2 0"/>
<feBlend mode="normal" in2="effect3_innerShadow_80_2380" result="effect4_innerShadow_80_2380"/>
</filter>
<filter id="filter3_ddii_80_2380" x="155.598" y="156.534" width="179.939" height="181.338" filterUnits="userSpaceOnUse" color-interpolation-filters="sRGB">
<feFlood flood-opacity="0" result="BackgroundImageFix"/>
<feColorMatrix in="SourceAlpha" type="matrix" values="0 0 0 0 0 0 0 0 0 0 0 0 0 0 0 0 0 0 127 0" result="hardAlpha"/>
<feOffset dy="4"/>
<feGaussianBlur stdDeviation="2"/>
<feComposite in2="hardAlpha" operator="out"/>
<feColorMatrix type="matrix" values="0 0 0 0 0 0 0 0 0 0 0 0 0 0 0 0 0 0 0.1 0"/>
<feBlend mode="normal" in2="BackgroundImageFix" result="effect1_dropShadow_80_2380"/>
<feColorMatrix in="SourceAlpha" type="matrix" values="0 0 0 0 0 0 0 0 0 0 0 0 0 0 0 0 0 0 127 0" result="hardAlpha"/>
<feMorphology radius="12" operator="erode" in="SourceAlpha" result="effect2_dropShadow_80_2380"/>
<feOffset dy="12"/>
<feGaussianBlur stdDeviation="16"/>
<feComposite in2="hardAlpha" operator="out"/>
<feColorMatrix type="matrix" values="0 0 0 0 0 0 0 0 0 0 0 0 0 0 0 0 0 0 0.1 0"/>
<feBlend mode="normal" in2="effect1_dropShadow_80_2380" result="effect2_dropShadow_80_2380"/>
<feBlend mode="normal" in="SourceGraphic" in2="effect2_dropShadow_80_2380" result="shape"/>
<feColorMatrix in="SourceAlpha" type="matrix" values="0 0 0 0 0 0 0 0 0 0 0 0 0 0 0 0 0 0 127 0" result="hardAlpha"/>
<feOffset dy="6"/>
<feGaussianBlur stdDeviation="6"/>
<feComposite in2="hardAlpha" operator="arithmetic" k2="-1" k3="1"/>
<feColorMatrix type="matrix" values="0 0 0 0 1 0 0 0 0 1 0 0 0 0 1 0 0 0 0.04 0"/>
<feBlend mode="normal" in2="shape" result="effect3_innerShadow_80_2380"/>
<feColorMatrix in="SourceAlpha" type="matrix" values="0 0 0 0 0 0 0 0 0 0 0 0 0 0 0 0 0 0 127 0" result="hardAlpha"/>
<feOffset dy="1"/>
<feGaussianBlur stdDeviation="0.5"/>
<feComposite in2="hardAlpha" operator="arithmetic" k2="-1" k3="1"/>
<feColorMatrix type="matrix" values="0 0 0 0 1 0 0 0 0 1 0 0 0 0 1 0 0 0 0.2 0"/>
<feBlend mode="normal" in2="effect3_innerShadow_80_2380" result="effect4_innerShadow_80_2380"/>
</filter>
<clipPath id="clip0_80_2380">
<rect x="72.042" y="60.2791" width="37.3171" height="37.3171" rx="18.6585" fill="white"/>
</clipPath>
<clipPath id="clip1_80_2380">
<rect width="37.3171" height="37.3171" fill="white" transform="translate(226.908 60.2791)"/>
</clipPath>
</defs>
</svg>
