<svg width="336" height="170" viewBox="0 0 336 170" fill="none" xmlns="http://www.w3.org/2000/svg">
<g filter="url(#filter0_ddii_80_2385)">
<path d="M20.7314 31.3264C20.7314 18.8848 30.8174 8.79883 43.2591 8.79883H293.009C305.45 8.79883 315.536 18.8848 315.536 31.3264V115.235C315.536 127.676 305.45 137.762 293.009 137.762H43.2591C30.8174 137.762 20.7314 127.676 20.7314 115.235V31.3264Z" fill="#F9FBFB" shape-rendering="crispEdges"/>
<path d="M54.3172 39.5854V45.1829M51.5185 42.3841H57.116M49.6526 50.7805H58.9819C61.0428 50.7805 62.7136 49.1097 62.7136 47.0488V37.7195C62.7136 35.6585 61.0428 33.9878 58.9819 33.9878H49.6526C47.5916 33.9878 45.9209 35.6585 45.9209 37.7195V47.0488C45.9209 49.1097 47.5916 50.7805 49.6526 50.7805Z" stroke="#0F1415" stroke-width="0.932927" stroke-linecap="round" stroke-linejoin="round"/>
<path d="M45.2181 81.8864C44.9834 81.8864 44.8021 81.8224 44.6741 81.6944C44.5461 81.5557 44.4821 81.3637 44.4821 81.1184V71.1504C44.4821 70.8944 44.5461 70.7024 44.6741 70.5744C44.8021 70.4464 44.9834 70.3824 45.2181 70.3824C45.4634 70.3824 45.6501 70.4464 45.7781 70.5744C45.9061 70.7024 45.9701 70.8944 45.9701 71.1504V81.1184C45.9701 81.3637 45.9061 81.5557 45.7781 81.6944C45.6607 81.8224 45.4741 81.8864 45.2181 81.8864ZM49.1976 84.7664C48.9736 84.7664 48.7976 84.7024 48.6696 84.5744C48.5416 84.4464 48.4776 84.2651 48.4776 84.0304V74.6064C48.4776 74.3611 48.5416 74.1797 48.6696 74.0624C48.7976 73.9344 48.9736 73.8704 49.1976 73.8704C49.4322 73.8704 49.6082 73.9344 49.7256 74.0624C49.8536 74.1797 49.9176 74.3611 49.9176 74.6064V76.0624L49.7416 75.7744C49.9122 75.1877 50.2482 74.7184 50.7496 74.3664C51.2509 74.0144 51.8536 73.8384 52.5576 73.8384C53.2509 73.8384 53.8536 74.0037 54.3656 74.3344C54.8776 74.6544 55.2776 75.1184 55.5656 75.7264C55.8536 76.3237 55.9976 77.0384 55.9976 77.8704C55.9976 78.6917 55.8536 79.4117 55.5656 80.0304C55.2882 80.6384 54.8882 81.1077 54.3656 81.4384C53.8536 81.7584 53.2509 81.9184 52.5576 81.9184C51.8642 81.9184 51.2669 81.7424 50.7656 81.3904C50.2642 81.0384 49.9282 80.5744 49.7576 79.9984H49.9336V84.0304C49.9336 84.2651 49.8696 84.4464 49.7416 84.5744C49.6136 84.7024 49.4322 84.7664 49.1976 84.7664ZM52.2216 80.7664C52.6802 80.7664 53.0802 80.6544 53.4216 80.4304C53.7736 80.2064 54.0456 79.8811 54.2376 79.4544C54.4296 79.0277 54.5256 78.4997 54.5256 77.8704C54.5256 76.9317 54.3176 76.2171 53.9016 75.7264C53.4856 75.2357 52.9256 74.9904 52.2216 74.9904C51.7522 74.9904 51.3416 75.1024 50.9896 75.3264C50.6482 75.5397 50.3816 75.8597 50.1896 76.2864C50.0082 76.7131 49.9176 77.2411 49.9176 77.8704C49.9176 78.8091 50.1256 79.5291 50.5416 80.0304C50.9576 80.5211 51.5176 80.7664 52.2216 80.7664ZM60.5562 81.9184C60.0762 81.9184 59.5909 81.8651 59.1002 81.7584C58.6202 81.6411 58.1669 81.4437 57.7402 81.1664C57.6229 81.0917 57.5375 81.0011 57.4842 80.8944C57.4415 80.7771 57.4255 80.6651 57.4362 80.5584C57.4575 80.4411 57.5055 80.3397 57.5802 80.2544C57.6549 80.1691 57.7455 80.1211 57.8522 80.1104C57.9695 80.0891 58.0922 80.1157 58.2202 80.1904C58.6362 80.4251 59.0362 80.5904 59.4202 80.6864C59.8149 80.7824 60.2042 80.8304 60.5882 80.8304C61.1749 80.8304 61.6175 80.7237 61.9162 80.5104C62.2149 80.2971 62.3642 80.0144 62.3642 79.6624C62.3642 79.3637 62.2629 79.1344 62.0602 78.9744C61.8682 78.8037 61.5642 78.6757 61.1482 78.5904L59.6602 78.2864C58.9989 78.1371 58.4975 77.8917 58.1562 77.5504C57.8255 77.1984 57.6602 76.7504 57.6602 76.2064C57.6602 75.7264 57.7882 75.3104 58.0442 74.9584C58.3109 74.5957 58.6789 74.3184 59.1482 74.1264C59.6175 73.9344 60.1562 73.8384 60.7642 73.8384C61.2335 73.8384 61.6762 73.9024 62.0922 74.0304C62.5189 74.1477 62.9029 74.3291 63.2442 74.5744C63.3722 74.6491 63.4522 74.7451 63.4842 74.8624C63.5269 74.9691 63.5322 75.0811 63.5002 75.1984C63.4789 75.3051 63.4309 75.3957 63.3562 75.4704C63.2815 75.5451 63.1855 75.5931 63.0682 75.6144C62.9509 75.6251 62.8229 75.5931 62.6842 75.5184C62.3749 75.3051 62.0549 75.1557 61.7242 75.0704C61.4042 74.9744 61.0842 74.9264 60.7642 74.9264C60.1882 74.9264 59.7509 75.0384 59.4522 75.2624C59.1642 75.4864 59.0202 75.7797 59.0202 76.1424C59.0202 76.4197 59.1055 76.6491 59.2762 76.8304C59.4575 77.0117 59.7402 77.1451 60.1242 77.2304L61.6122 77.5344C62.3055 77.6837 62.8282 77.9237 63.1802 78.2544C63.5322 78.5744 63.7082 79.0117 63.7082 79.5664C63.7082 80.2917 63.4202 80.8677 62.8442 81.2944C62.2789 81.7104 61.5162 81.9184 60.5562 81.9184ZM68.3866 81.9184C67.7572 81.9184 67.2292 81.8011 66.8026 81.5664C66.3866 81.3317 66.0772 80.9851 65.8746 80.5264C65.6719 80.0677 65.5706 79.4917 65.5706 78.7984V74.6064C65.5706 74.3611 65.6292 74.1797 65.7466 74.0624C65.8746 73.9344 66.0559 73.8704 66.2906 73.8704C66.5252 73.8704 66.7066 73.9344 66.8346 74.0624C66.9626 74.1797 67.0266 74.3611 67.0266 74.6064V78.7984C67.0266 79.4597 67.1599 79.9504 67.4266 80.2704C67.6932 80.5797 68.1146 80.7344 68.6906 80.7344C69.3306 80.7344 69.8479 80.5211 70.2426 80.0944C70.6479 79.6677 70.8506 79.1024 70.8506 78.3984V74.6064C70.8506 74.3611 70.9092 74.1797 71.0266 74.0624C71.1546 73.9344 71.3359 73.8704 71.5706 73.8704C71.8052 73.8704 71.9866 73.9344 72.1146 74.0624C72.2426 74.1797 72.3066 74.3611 72.3066 74.6064V81.1344C72.3066 81.6357 72.0719 81.8864 71.6026 81.8864C71.3679 81.8864 71.1866 81.8224 71.0586 81.6944C70.9412 81.5664 70.8826 81.3797 70.8826 81.1344V79.7424L71.0906 80.0144C70.8772 80.6331 70.5306 81.1077 70.0506 81.4384C69.5812 81.7584 69.0266 81.9184 68.3866 81.9184ZM75.4014 81.8864C75.1774 81.8864 75.0014 81.8224 74.8734 81.6944C74.7454 81.5664 74.6814 81.3797 74.6814 81.1344V74.6064C74.6814 74.3611 74.7454 74.1797 74.8734 74.0624C75.0014 73.9344 75.1774 73.8704 75.4014 73.8704C75.6254 73.8704 75.7961 73.9344 75.9134 74.0624C76.0414 74.1797 76.1054 74.3611 76.1054 74.6064V75.9664L75.9294 75.6784C76.1321 75.0917 76.4574 74.6384 76.9054 74.3184C77.3641 73.9984 77.9081 73.8384 78.5374 73.8384C79.1988 73.8384 79.7321 73.9984 80.1374 74.3184C80.5428 74.6277 80.8148 75.1024 80.9534 75.7424H80.7294C80.9214 75.1557 81.2628 74.6917 81.7534 74.3504C82.2548 74.0091 82.8361 73.8384 83.4974 73.8384C84.0841 73.8384 84.5641 73.9557 84.9374 74.1904C85.3214 74.4144 85.6094 74.7557 85.8014 75.2144C85.9934 75.6624 86.0894 76.2384 86.0894 76.9424V81.1344C86.0894 81.3797 86.0254 81.5664 85.8974 81.6944C85.7694 81.8224 85.5934 81.8864 85.3694 81.8864C85.1348 81.8864 84.9534 81.8224 84.8254 81.6944C84.6974 81.5664 84.6334 81.3797 84.6334 81.1344V77.0064C84.6334 76.3237 84.5161 75.8224 84.2814 75.5024C84.0468 75.1824 83.6521 75.0224 83.0974 75.0224C82.4894 75.0224 82.0041 75.2357 81.6414 75.6624C81.2894 76.0784 81.1134 76.6544 81.1134 77.3904V81.1344C81.1134 81.3797 81.0494 81.5664 80.9214 81.6944C80.8041 81.8224 80.6281 81.8864 80.3934 81.8864C80.1588 81.8864 79.9774 81.8224 79.8494 81.6944C79.7214 81.5664 79.6574 81.3797 79.6574 81.1344V77.0064C79.6574 76.3237 79.5401 75.8224 79.3054 75.5024C79.0708 75.1824 78.6761 75.0224 78.1214 75.0224C77.5134 75.0224 77.0281 75.2357 76.6654 75.6624C76.3134 76.0784 76.1374 76.6544 76.1374 77.3904V81.1344C76.1374 81.6357 75.8921 81.8864 75.4014 81.8864ZM95.5786 81.9184C94.8959 81.9184 94.2932 81.7584 93.7706 81.4384C93.2586 81.1077 92.8586 80.6384 92.5706 80.0304C92.2826 79.4117 92.1386 78.6917 92.1386 77.8704C92.1386 77.0384 92.2772 76.3237 92.5546 75.7264C92.8426 75.1184 93.2426 74.6544 93.7546 74.3344C94.2772 74.0037 94.8852 73.8384 95.5786 73.8384C96.2719 73.8384 96.8692 74.0144 97.3706 74.3664C97.8719 74.7077 98.2079 75.1664 98.3786 75.7424H98.2026V71.1184C98.2026 70.8731 98.2612 70.6917 98.3786 70.5744C98.5066 70.4464 98.6879 70.3824 98.9226 70.3824C99.1572 70.3824 99.3386 70.4464 99.4666 70.5744C99.5946 70.6917 99.6586 70.8731 99.6586 71.1184V81.1344C99.6586 81.3797 99.5946 81.5664 99.4666 81.6944C99.3386 81.8224 99.1572 81.8864 98.9226 81.8864C98.6986 81.8864 98.5226 81.8224 98.3946 81.6944C98.2666 81.5664 98.2026 81.3797 98.2026 81.1344V79.6784L98.3786 79.9664C98.2186 80.5637 97.8826 81.0384 97.3706 81.3904C96.8692 81.7424 96.2719 81.9184 95.5786 81.9184ZM95.9146 80.7664C96.3839 80.7664 96.7892 80.6544 97.1306 80.4304C97.4826 80.2064 97.7492 79.8811 97.9306 79.4544C98.1226 79.0277 98.2186 78.4997 98.2186 77.8704C98.2186 76.9317 98.0106 76.2171 97.5946 75.7264C97.1786 75.2357 96.6186 74.9904 95.9146 74.9904C95.4559 74.9904 95.0506 75.1024 94.6986 75.3264C94.3572 75.5397 94.0906 75.8597 93.8986 76.2864C93.7066 76.7131 93.6106 77.2411 93.6106 77.8704C93.6106 78.8091 93.8186 79.5291 94.2346 80.0304C94.6612 80.5211 95.2212 80.7664 95.9146 80.7664ZM105.305 81.9184C104.537 81.9184 103.871 81.7531 103.305 81.4224C102.74 81.0917 102.303 80.6224 101.993 80.0144C101.684 79.4064 101.529 78.6917 101.529 77.8704C101.529 77.2517 101.615 76.6971 101.785 76.2064C101.967 75.7051 102.223 75.2784 102.553 74.9264C102.884 74.5744 103.279 74.3077 103.737 74.1264C104.207 73.9344 104.729 73.8384 105.305 73.8384C106.073 73.8384 106.74 74.0037 107.305 74.3344C107.871 74.6651 108.308 75.1344 108.617 75.7424C108.927 76.3397 109.081 77.0491 109.081 77.8704C109.081 78.4891 108.991 79.0491 108.809 79.5504C108.639 80.0517 108.388 80.4784 108.057 80.8304C107.727 81.1824 107.327 81.4544 106.857 81.6464C106.399 81.8277 105.881 81.9184 105.305 81.9184ZM105.305 80.7664C105.775 80.7664 106.18 80.6544 106.521 80.4304C106.873 80.2064 107.14 79.8811 107.321 79.4544C107.513 79.0277 107.609 78.4997 107.609 77.8704C107.609 76.9317 107.401 76.2171 106.985 75.7264C106.569 75.2357 106.009 74.9904 105.305 74.9904C104.847 74.9904 104.441 75.1024 104.089 75.3264C103.748 75.5397 103.481 75.8597 103.289 76.2864C103.097 76.7131 103.001 77.2411 103.001 77.8704C103.001 78.8091 103.209 79.5291 103.625 80.0304C104.052 80.5211 104.612 80.7664 105.305 80.7664ZM113.394 81.9184C112.594 81.9184 111.986 81.6837 111.57 81.2144C111.154 80.7344 110.946 80.0464 110.946 79.1504V71.1184C110.946 70.8731 111.01 70.6917 111.138 70.5744C111.266 70.4464 111.442 70.3824 111.666 70.3824C111.901 70.3824 112.082 70.4464 112.21 70.5744C112.338 70.6917 112.402 70.8731 112.402 71.1184V79.0384C112.402 79.5931 112.514 80.0091 112.738 80.2864C112.973 80.5531 113.304 80.6864 113.73 80.6864C113.826 80.6864 113.912 80.6864 113.986 80.6864C114.061 80.6757 114.136 80.6651 114.21 80.6544C114.328 80.6437 114.413 80.6757 114.466 80.7504C114.52 80.8251 114.546 80.9744 114.546 81.1984C114.546 81.4011 114.498 81.5611 114.402 81.6784C114.317 81.7851 114.173 81.8544 113.97 81.8864C113.874 81.8971 113.778 81.9024 113.682 81.9024C113.586 81.9131 113.49 81.9184 113.394 81.9184ZM118.993 81.9184C118.225 81.9184 117.558 81.7531 116.993 81.4224C116.427 81.0917 115.99 80.6224 115.681 80.0144C115.371 79.4064 115.217 78.6917 115.217 77.8704C115.217 77.2517 115.302 76.6971 115.473 76.2064C115.654 75.7051 115.91 75.2784 116.241 74.9264C116.571 74.5744 116.966 74.3077 117.425 74.1264C117.894 73.9344 118.417 73.8384 118.993 73.8384C119.761 73.8384 120.427 74.0037 120.993 74.3344C121.558 74.6651 121.995 75.1344 122.305 75.7424C122.614 76.3397 122.769 77.0491 122.769 77.8704C122.769 78.4891 122.678 79.0491 122.497 79.5504C122.326 80.0517 122.075 80.4784 121.745 80.8304C121.414 81.1824 121.014 81.4544 120.545 81.6464C120.086 81.8277 119.569 81.9184 118.993 81.9184ZM118.993 80.7664C119.462 80.7664 119.867 80.6544 120.209 80.4304C120.561 80.2064 120.827 79.8811 121.009 79.4544C121.201 79.0277 121.297 78.4997 121.297 77.8704C121.297 76.9317 121.089 76.2171 120.673 75.7264C120.257 75.2357 119.697 74.9904 118.993 74.9904C118.534 74.9904 118.129 75.1024 117.777 75.3264C117.435 75.5397 117.169 75.8597 116.977 76.2864C116.785 76.7131 116.689 77.2411 116.689 77.8704C116.689 78.8091 116.897 79.5291 117.313 80.0304C117.739 80.5211 118.299 80.7664 118.993 80.7664ZM125.386 81.8864C125.14 81.8864 124.954 81.8224 124.826 81.6944C124.698 81.5664 124.634 81.3797 124.634 81.1344V74.6064C124.634 74.3611 124.698 74.1797 124.826 74.0624C124.954 73.9344 125.13 73.8704 125.354 73.8704C125.578 73.8704 125.748 73.9344 125.866 74.0624C125.994 74.1797 126.058 74.3611 126.058 74.6064V75.8384H125.898C126.068 75.1984 126.388 74.7131 126.858 74.3824C127.327 74.0517 127.919 73.8651 128.634 73.8224C128.804 73.8117 128.943 73.8544 129.05 73.9504C129.156 74.0357 129.215 74.1851 129.226 74.3984C129.236 74.6011 129.188 74.7664 129.082 74.8944C128.975 75.0117 128.81 75.0811 128.586 75.1024L128.298 75.1184C127.594 75.1931 127.05 75.4224 126.666 75.8064C126.292 76.1904 126.106 76.7184 126.106 77.3904V81.1344C126.106 81.3797 126.042 81.5664 125.914 81.6944C125.796 81.8224 125.62 81.8864 125.386 81.8864ZM137.337 81.9184C136.857 81.9184 136.372 81.8651 135.881 81.7584C135.401 81.6411 134.948 81.4437 134.521 81.1664C134.404 81.0917 134.319 81.0011 134.265 80.8944C134.223 80.7771 134.207 80.6651 134.217 80.5584C134.239 80.4411 134.287 80.3397 134.361 80.2544C134.436 80.1691 134.527 80.1211 134.633 80.1104C134.751 80.0891 134.873 80.1157 135.001 80.1904C135.417 80.4251 135.817 80.5904 136.201 80.6864C136.596 80.7824 136.985 80.8304 137.369 80.8304C137.956 80.8304 138.399 80.7237 138.697 80.5104C138.996 80.2971 139.145 80.0144 139.145 79.6624C139.145 79.3637 139.044 79.1344 138.841 78.9744C138.649 78.8037 138.345 78.6757 137.929 78.5904L136.441 78.2864C135.78 78.1371 135.279 77.8917 134.937 77.5504C134.607 77.1984 134.441 76.7504 134.441 76.2064C134.441 75.7264 134.569 75.3104 134.825 74.9584C135.092 74.5957 135.46 74.3184 135.929 74.1264C136.399 73.9344 136.937 73.8384 137.545 73.8384C138.015 73.8384 138.457 73.9024 138.873 74.0304C139.3 74.1477 139.684 74.3291 140.025 74.5744C140.153 74.6491 140.233 74.7451 140.265 74.8624C140.308 74.9691 140.313 75.0811 140.281 75.1984C140.26 75.3051 140.212 75.3957 140.137 75.4704C140.063 75.5451 139.967 75.5931 139.849 75.6144C139.732 75.6251 139.604 75.5931 139.465 75.5184C139.156 75.3051 138.836 75.1557 138.505 75.0704C138.185 74.9744 137.865 74.9264 137.545 74.9264C136.969 74.9264 136.532 75.0384 136.233 75.2624C135.945 75.4864 135.801 75.7797 135.801 76.1424C135.801 76.4197 135.887 76.6491 136.057 76.8304C136.239 77.0117 136.521 77.1451 136.905 77.2304L138.393 77.5344C139.087 77.6837 139.609 77.9237 139.961 78.2544C140.313 78.5744 140.489 79.0117 140.489 79.5664C140.489 80.2917 140.201 80.8677 139.625 81.2944C139.06 81.7104 138.297 81.9184 137.337 81.9184ZM143.104 81.8544C142.88 81.8544 142.704 81.7851 142.576 81.6464C142.448 81.5077 142.384 81.3157 142.384 81.0704V74.6864C142.384 74.4304 142.448 74.2384 142.576 74.1104C142.704 73.9717 142.88 73.9024 143.104 73.9024C143.338 73.9024 143.52 73.9717 143.648 74.1104C143.776 74.2384 143.84 74.4304 143.84 74.6864V81.0704C143.84 81.3157 143.776 81.5077 143.648 81.6464C143.53 81.7851 143.349 81.8544 143.104 81.8544ZM143.104 72.1744C142.816 72.1744 142.586 72.0997 142.416 71.9504C142.256 71.7904 142.176 71.5824 142.176 71.3264C142.176 71.0491 142.256 70.8411 142.416 70.7024C142.586 70.5531 142.816 70.4784 143.104 70.4784C143.413 70.4784 143.642 70.5531 143.792 70.7024C143.952 70.8411 144.032 71.0491 144.032 71.3264C144.032 71.5824 143.952 71.7904 143.792 71.9504C143.642 72.0997 143.413 72.1744 143.104 72.1744ZM149.413 81.9184C148.783 81.9184 148.255 81.8064 147.829 81.5824C147.413 81.3584 147.098 81.0331 146.885 80.6064C146.682 80.1797 146.581 79.6571 146.581 79.0384V75.1024H145.557C145.365 75.1024 145.215 75.0544 145.109 74.9584C145.002 74.8517 144.949 74.7131 144.949 74.5424C144.949 74.3611 145.002 74.2224 145.109 74.1264C145.215 74.0304 145.365 73.9824 145.557 73.9824H146.581V72.2384C146.581 71.9931 146.645 71.8117 146.773 71.6944C146.901 71.5664 147.082 71.5024 147.317 71.5024C147.551 71.5024 147.727 71.5664 147.845 71.6944C147.973 71.8117 148.037 71.9931 148.037 72.2384V73.9824H149.973C150.175 73.9824 150.33 74.0304 150.437 74.1264C150.543 74.2224 150.597 74.3611 150.597 74.5424C150.597 74.7131 150.543 74.8517 150.437 74.9584C150.33 75.0544 150.175 75.1024 149.973 75.1024H148.037V78.9104C148.037 79.4971 148.159 79.9397 148.405 80.2384C148.65 80.5371 149.055 80.6864 149.621 80.6864C149.823 80.6864 149.994 80.6704 150.133 80.6384C150.271 80.5957 150.394 80.5744 150.501 80.5744C150.597 80.5637 150.677 80.5957 150.741 80.6704C150.815 80.7451 150.853 80.8837 150.853 81.0864C150.853 81.2357 150.826 81.3744 150.773 81.5024C150.73 81.6197 150.639 81.6997 150.501 81.7424C150.373 81.7851 150.202 81.8224 149.989 81.8544C149.775 81.8971 149.583 81.9184 149.413 81.9184ZM158.567 81.9184C158.034 81.9184 157.548 81.8117 157.111 81.5984C156.684 81.3851 156.348 81.0971 156.103 80.7344C155.868 80.3717 155.751 79.9664 155.751 79.5184C155.751 78.9424 155.895 78.4891 156.183 78.1584C156.471 77.8277 156.956 77.5931 157.639 77.4544C158.322 77.3051 159.239 77.2304 160.391 77.2304H161.143V78.1584H160.423C159.602 78.1584 158.951 78.1957 158.471 78.2704C158.002 78.3451 157.671 78.4784 157.479 78.6704C157.287 78.8517 157.191 79.1077 157.191 79.4384C157.191 79.8544 157.335 80.1957 157.623 80.4624C157.922 80.7291 158.327 80.8624 158.839 80.8624C159.244 80.8624 159.602 80.7664 159.911 80.5744C160.22 80.3717 160.466 80.1051 160.647 79.7744C160.828 79.4331 160.919 79.0437 160.919 78.6064V76.7664C160.919 76.1371 160.791 75.6837 160.535 75.4064C160.279 75.1184 159.847 74.9744 159.239 74.9744C158.887 74.9744 158.524 75.0224 158.151 75.1184C157.778 75.2144 157.388 75.3637 156.983 75.5664C156.823 75.6411 156.684 75.6677 156.567 75.6464C156.45 75.6144 156.354 75.5504 156.279 75.4544C156.215 75.3477 156.178 75.2357 156.167 75.1184C156.167 74.9904 156.194 74.8677 156.247 74.7504C156.311 74.6331 156.418 74.5477 156.567 74.4944C157.036 74.2597 157.5 74.0944 157.959 73.9984C158.428 73.8917 158.866 73.8384 159.271 73.8384C159.964 73.8384 160.535 73.9504 160.983 74.1744C161.431 74.3877 161.767 74.7237 161.991 75.1824C162.215 75.6304 162.327 76.2064 162.327 76.9104V81.1344C162.327 81.3797 162.268 81.5664 162.151 81.6944C162.034 81.8224 161.863 81.8864 161.639 81.8864C161.426 81.8864 161.255 81.8224 161.127 81.6944C161.01 81.5664 160.951 81.3797 160.951 81.1344V79.9984H161.095C161.01 80.3931 160.85 80.7344 160.615 81.0224C160.38 81.3104 160.087 81.5344 159.735 81.6944C159.394 81.8437 159.004 81.9184 158.567 81.9184ZM165.37 81.8864C165.146 81.8864 164.97 81.8224 164.842 81.6944C164.714 81.5664 164.65 81.3797 164.65 81.1344V74.6064C164.65 74.3611 164.714 74.1797 164.842 74.0624C164.97 73.9344 165.146 73.8704 165.37 73.8704C165.594 73.8704 165.765 73.9344 165.882 74.0624C166.01 74.1797 166.074 74.3611 166.074 74.6064V75.9664L165.898 75.6784C166.101 75.0917 166.426 74.6384 166.874 74.3184C167.333 73.9984 167.877 73.8384 168.506 73.8384C169.168 73.8384 169.701 73.9984 170.106 74.3184C170.512 74.6277 170.784 75.1024 170.922 75.7424H170.698C170.89 75.1557 171.232 74.6917 171.722 74.3504C172.224 74.0091 172.805 73.8384 173.466 73.8384C174.053 73.8384 174.533 73.9557 174.906 74.1904C175.29 74.4144 175.578 74.7557 175.77 75.2144C175.962 75.6624 176.058 76.2384 176.058 76.9424V81.1344C176.058 81.3797 175.994 81.5664 175.866 81.6944C175.738 81.8224 175.562 81.8864 175.338 81.8864C175.104 81.8864 174.922 81.8224 174.794 81.6944C174.666 81.5664 174.602 81.3797 174.602 81.1344V77.0064C174.602 76.3237 174.485 75.8224 174.25 75.5024C174.016 75.1824 173.621 75.0224 173.066 75.0224C172.458 75.0224 171.973 75.2357 171.61 75.6624C171.258 76.0784 171.082 76.6544 171.082 77.3904V81.1344C171.082 81.3797 171.018 81.5664 170.89 81.6944C170.773 81.8224 170.597 81.8864 170.362 81.8864C170.128 81.8864 169.946 81.8224 169.818 81.6944C169.69 81.5664 169.626 81.3797 169.626 81.1344V77.0064C169.626 76.3237 169.509 75.8224 169.274 75.5024C169.04 75.1824 168.645 75.0224 168.09 75.0224C167.482 75.0224 166.997 75.2357 166.634 75.6624C166.282 76.0784 166.106 76.6544 166.106 77.3904V81.1344C166.106 81.6357 165.861 81.8864 165.37 81.8864ZM181.999 81.9184C181.157 81.9184 180.431 81.7584 179.823 81.4384C179.226 81.1077 178.762 80.6437 178.431 80.0464C178.101 79.4384 177.935 78.7237 177.935 77.9024C177.935 77.0917 178.095 76.3824 178.415 75.7744C178.746 75.1664 179.194 74.6917 179.759 74.3504C180.335 74.0091 180.991 73.8384 181.727 73.8384C182.25 73.8384 182.719 73.9291 183.135 74.1104C183.562 74.2811 183.925 74.5317 184.223 74.8624C184.522 75.1931 184.746 75.5984 184.895 76.0784C185.055 76.5477 185.135 77.0811 185.135 77.6784C185.135 77.8491 185.082 77.9824 184.975 78.0784C184.879 78.1637 184.735 78.2064 184.543 78.2064H179.071V77.2784H184.175L183.903 77.5024C183.903 76.9477 183.818 76.4784 183.647 76.0944C183.487 75.6997 183.247 75.4011 182.927 75.1984C182.618 74.9957 182.229 74.8944 181.759 74.8944C181.247 74.8944 180.81 75.0171 180.447 75.2624C180.085 75.4971 179.807 75.8331 179.615 76.2704C179.423 76.6971 179.327 77.1931 179.327 77.7584V77.8544C179.327 78.8144 179.557 79.5397 180.015 80.0304C180.474 80.5211 181.135 80.7664 181.999 80.7664C182.341 80.7664 182.687 80.7237 183.039 80.6384C183.402 80.5531 183.749 80.3984 184.079 80.1744C184.239 80.0784 184.383 80.0357 184.511 80.0464C184.65 80.0464 184.762 80.0891 184.847 80.1744C184.933 80.2491 184.986 80.3451 185.007 80.4624C185.029 80.5691 185.013 80.6864 184.959 80.8144C184.906 80.9424 184.805 81.0544 184.655 81.1504C184.303 81.3957 183.882 81.5877 183.391 81.7264C182.911 81.8544 182.447 81.9184 181.999 81.9184ZM187.666 81.8864C187.442 81.8864 187.266 81.8224 187.138 81.6944C187.01 81.5664 186.946 81.3797 186.946 81.1344V74.6064C186.946 74.3611 187.01 74.1797 187.138 74.0624C187.266 73.9344 187.442 73.8704 187.666 73.8704C187.89 73.8704 188.061 73.9344 188.178 74.0624C188.306 74.1797 188.37 74.3611 188.37 74.6064V75.9184L188.194 75.6784C188.418 75.0704 188.781 74.6117 189.282 74.3024C189.794 73.9931 190.376 73.8384 191.026 73.8384C191.656 73.8384 192.173 73.9504 192.578 74.1744C192.984 74.3984 193.288 74.7397 193.49 75.1984C193.693 75.6571 193.794 76.2384 193.794 76.9424V81.1344C193.794 81.3797 193.73 81.5664 193.602 81.6944C193.485 81.8224 193.309 81.8864 193.074 81.8864C192.84 81.8864 192.658 81.8224 192.53 81.6944C192.402 81.5664 192.338 81.3797 192.338 81.1344V77.0224C192.338 76.3291 192.205 75.8224 191.938 75.5024C191.672 75.1824 191.245 75.0224 190.658 75.0224C189.976 75.0224 189.426 75.2357 189.01 75.6624C188.605 76.0784 188.402 76.6437 188.402 77.3584V81.1344C188.402 81.6357 188.157 81.8864 187.666 81.8864ZM199.335 81.9184C198.705 81.9184 198.177 81.8064 197.751 81.5824C197.335 81.3584 197.02 81.0331 196.807 80.6064C196.604 80.1797 196.503 79.6571 196.503 79.0384V75.1024H195.479C195.287 75.1024 195.137 75.0544 195.031 74.9584C194.924 74.8517 194.871 74.7131 194.871 74.5424C194.871 74.3611 194.924 74.2224 195.031 74.1264C195.137 74.0304 195.287 73.9824 195.479 73.9824H196.503V72.2384C196.503 71.9931 196.567 71.8117 196.695 71.6944C196.823 71.5664 197.004 71.5024 197.239 71.5024C197.473 71.5024 197.649 71.5664 197.767 71.6944C197.895 71.8117 197.959 71.9931 197.959 72.2384V73.9824H199.895C200.097 73.9824 200.252 74.0304 200.359 74.1264C200.465 74.2224 200.519 74.3611 200.519 74.5424C200.519 74.7131 200.465 74.8517 200.359 74.9584C200.252 75.0544 200.097 75.1024 199.895 75.1024H197.959V78.9104C197.959 79.4971 198.081 79.9397 198.327 80.2384C198.572 80.5371 198.977 80.6864 199.543 80.6864C199.745 80.6864 199.916 80.6704 200.055 80.6384C200.193 80.5957 200.316 80.5744 200.423 80.5744C200.519 80.5637 200.599 80.5957 200.663 80.6704C200.737 80.7451 200.775 80.8837 200.775 81.0864C200.775 81.2357 200.748 81.3744 200.695 81.5024C200.652 81.6197 200.561 81.6997 200.423 81.7424C200.295 81.7851 200.124 81.8224 199.911 81.8544C199.697 81.8971 199.505 81.9184 199.335 81.9184Z" fill="#0F1415"/>
<path d="M45.0121 109.372C44.7881 109.372 44.6154 109.311 44.4941 109.19C44.3727 109.069 44.3121 108.896 44.3121 108.672V100.202C44.3121 99.9781 44.3727 99.8054 44.4941 99.6841C44.6154 99.5627 44.7881 99.5021 45.0121 99.5021H50.1641C50.3414 99.5021 50.4767 99.5487 50.5701 99.6421C50.6727 99.7261 50.7241 99.8521 50.7241 100.02C50.7241 100.197 50.6727 100.333 50.5701 100.426C50.4767 100.519 50.3414 100.566 50.1641 100.566H45.5721V103.828H49.8701C50.0474 103.828 50.1827 103.875 50.2761 103.968C50.3694 104.061 50.4161 104.192 50.4161 104.36C50.4161 104.537 50.3694 104.673 50.2761 104.766C50.1827 104.85 50.0474 104.892 49.8701 104.892H45.5721V108.308H50.1641C50.3414 108.308 50.4767 108.355 50.5701 108.448C50.6727 108.532 50.7241 108.663 50.7241 108.84C50.7241 109.017 50.6727 109.153 50.5701 109.246C50.4767 109.33 50.3414 109.372 50.1641 109.372H45.0121ZM55.3585 112.018C54.8545 112.018 54.3645 111.962 53.8885 111.85C53.4218 111.738 52.9972 111.565 52.6145 111.332C52.4932 111.257 52.4092 111.169 52.3625 111.066C52.3252 110.973 52.3158 110.875 52.3345 110.772C52.3625 110.669 52.4092 110.576 52.4745 110.492C52.5492 110.417 52.6332 110.366 52.7265 110.338C52.8292 110.319 52.9318 110.343 53.0345 110.408C53.4452 110.641 53.8372 110.8 54.2105 110.884C54.5838 110.968 54.9385 111.01 55.2745 111.01C55.9372 111.01 56.4318 110.837 56.7585 110.492C57.0945 110.156 57.2625 109.661 57.2625 109.008V107.496H57.3885C57.2578 108.019 56.9638 108.434 56.5065 108.742C56.0585 109.05 55.5358 109.204 54.9385 109.204C54.3225 109.204 53.7858 109.064 53.3285 108.784C52.8712 108.495 52.5165 108.098 52.2645 107.594C52.0125 107.081 51.8865 106.488 51.8865 105.816C51.8865 105.303 51.9565 104.841 52.0965 104.43C52.2458 104.01 52.4512 103.655 52.7125 103.366C52.9832 103.067 53.3052 102.839 53.6785 102.68C54.0518 102.512 54.4718 102.428 54.9385 102.428C55.5452 102.428 56.0725 102.582 56.5205 102.89C56.9685 103.198 57.2578 103.613 57.3885 104.136L57.2345 104.332V103.1C57.2345 102.885 57.2905 102.727 57.4025 102.624C57.5145 102.512 57.6732 102.456 57.8785 102.456C58.0745 102.456 58.2285 102.512 58.3405 102.624C58.4525 102.727 58.5085 102.885 58.5085 103.1V108.84C58.5085 109.895 58.2378 110.688 57.6965 111.22C57.1645 111.752 56.3852 112.018 55.3585 112.018ZM55.2185 108.196C55.6385 108.196 55.9978 108.103 56.2965 107.916C56.6045 107.72 56.8378 107.445 56.9965 107.09C57.1645 106.726 57.2485 106.301 57.2485 105.816C57.2485 105.079 57.0665 104.5 56.7025 104.08C56.3385 103.651 55.8438 103.436 55.2185 103.436C54.7985 103.436 54.4345 103.534 54.1265 103.73C53.8278 103.917 53.5945 104.187 53.4265 104.542C53.2585 104.897 53.1745 105.321 53.1745 105.816C53.1745 106.544 53.3565 107.123 53.7205 107.552C54.0938 107.981 54.5932 108.196 55.2185 108.196ZM63.7003 109.498C62.963 109.498 62.3283 109.358 61.7963 109.078C61.2737 108.789 60.8677 108.383 60.5783 107.86C60.289 107.328 60.1443 106.703 60.1443 105.984C60.1443 105.275 60.2843 104.654 60.5643 104.122C60.8537 103.59 61.2457 103.175 61.7403 102.876C62.2443 102.577 62.8183 102.428 63.4623 102.428C63.9197 102.428 64.3303 102.507 64.6943 102.666C65.0677 102.815 65.385 103.035 65.6463 103.324C65.9077 103.613 66.1037 103.968 66.2343 104.388C66.3743 104.799 66.4443 105.265 66.4443 105.788C66.4443 105.937 66.3977 106.054 66.3043 106.138C66.2203 106.213 66.0943 106.25 65.9263 106.25H61.1383V105.438H65.6043L65.3663 105.634C65.3663 105.149 65.2917 104.738 65.1423 104.402C65.0023 104.057 64.7923 103.795 64.5123 103.618C64.2417 103.441 63.901 103.352 63.4903 103.352C63.0423 103.352 62.6597 103.459 62.3423 103.674C62.025 103.879 61.7823 104.173 61.6143 104.556C61.4463 104.929 61.3623 105.363 61.3623 105.858V105.942C61.3623 106.782 61.563 107.417 61.9643 107.846C62.3657 108.275 62.9443 108.49 63.7003 108.49C63.999 108.49 64.3023 108.453 64.6103 108.378C64.9277 108.303 65.231 108.168 65.5203 107.972C65.6603 107.888 65.7863 107.851 65.8983 107.86C66.0197 107.86 66.1177 107.897 66.1923 107.972C66.267 108.037 66.3137 108.121 66.3323 108.224C66.351 108.317 66.337 108.42 66.2903 108.532C66.2437 108.644 66.155 108.742 66.0243 108.826C65.7163 109.041 65.3477 109.209 64.9183 109.33C64.4983 109.442 64.0923 109.498 63.7003 109.498ZM70.3808 109.498C69.9608 109.498 69.5362 109.451 69.1068 109.358C68.6868 109.255 68.2902 109.083 67.9168 108.84C67.8142 108.775 67.7395 108.695 67.6928 108.602C67.6555 108.499 67.6415 108.401 67.6508 108.308C67.6695 108.205 67.7115 108.117 67.7768 108.042C67.8422 107.967 67.9215 107.925 68.0148 107.916C68.1175 107.897 68.2248 107.921 68.3368 107.986C68.7008 108.191 69.0508 108.336 69.3868 108.42C69.7322 108.504 70.0728 108.546 70.4088 108.546C70.9222 108.546 71.3095 108.453 71.5708 108.266C71.8322 108.079 71.9628 107.832 71.9628 107.524C71.9628 107.263 71.8742 107.062 71.6968 106.922C71.5288 106.773 71.2628 106.661 70.8988 106.586L69.5968 106.32C69.0182 106.189 68.5795 105.975 68.2808 105.676C67.9915 105.368 67.8468 104.976 67.8468 104.5C67.8468 104.08 67.9588 103.716 68.1828 103.408C68.4162 103.091 68.7382 102.848 69.1488 102.68C69.5595 102.512 70.0308 102.428 70.5628 102.428C70.9735 102.428 71.3608 102.484 71.7248 102.596C72.0982 102.699 72.4342 102.857 72.7328 103.072C72.8448 103.137 72.9148 103.221 72.9428 103.324C72.9802 103.417 72.9848 103.515 72.9568 103.618C72.9382 103.711 72.8962 103.791 72.8308 103.856C72.7655 103.921 72.6815 103.963 72.5788 103.982C72.4762 103.991 72.3642 103.963 72.2428 103.898C71.9722 103.711 71.6922 103.581 71.4028 103.506C71.1228 103.422 70.8428 103.38 70.5628 103.38C70.0588 103.38 69.6762 103.478 69.4148 103.674C69.1628 103.87 69.0368 104.127 69.0368 104.444C69.0368 104.687 69.1115 104.887 69.2608 105.046C69.4195 105.205 69.6668 105.321 70.0028 105.396L71.3048 105.662C71.9115 105.793 72.3688 106.003 72.6768 106.292C72.9848 106.572 73.1388 106.955 73.1388 107.44C73.1388 108.075 72.8868 108.579 72.3828 108.952C71.8882 109.316 71.2208 109.498 70.3808 109.498ZM77.5561 109.498C77.0054 109.498 76.5434 109.4 76.1701 109.204C75.8061 109.008 75.5307 108.723 75.3441 108.35C75.1667 107.977 75.0781 107.519 75.0781 106.978V103.534H74.1821C74.0141 103.534 73.8834 103.492 73.7901 103.408C73.6967 103.315 73.6501 103.193 73.6501 103.044C73.6501 102.885 73.6967 102.764 73.7901 102.68C73.8834 102.596 74.0141 102.554 74.1821 102.554H75.0781V101.028C75.0781 100.813 75.1341 100.655 75.2461 100.552C75.3581 100.44 75.5167 100.384 75.7221 100.384C75.9274 100.384 76.0814 100.44 76.1841 100.552C76.2961 100.655 76.3521 100.813 76.3521 101.028V102.554H78.0461C78.2234 102.554 78.3587 102.596 78.4521 102.68C78.5454 102.764 78.5921 102.885 78.5921 103.044C78.5921 103.193 78.5454 103.315 78.4521 103.408C78.3587 103.492 78.2234 103.534 78.0461 103.534H76.3521V106.866C76.3521 107.379 76.4594 107.767 76.6741 108.028C76.8887 108.289 77.2434 108.42 77.7381 108.42C77.9154 108.42 78.0647 108.406 78.1861 108.378C78.3074 108.341 78.4147 108.322 78.5081 108.322C78.5921 108.313 78.6621 108.341 78.7181 108.406C78.7834 108.471 78.8161 108.593 78.8161 108.77C78.8161 108.901 78.7927 109.022 78.7461 109.134C78.7087 109.237 78.6294 109.307 78.5081 109.344C78.3961 109.381 78.2467 109.414 78.0601 109.442C77.8734 109.479 77.7054 109.498 77.5561 109.498ZM81.9156 109.498C81.449 109.498 81.0243 109.405 80.6416 109.218C80.2683 109.031 79.9743 108.779 79.7596 108.462C79.5543 108.145 79.4516 107.79 79.4516 107.398C79.4516 106.894 79.5776 106.497 79.8296 106.208C80.0816 105.919 80.5063 105.713 81.1036 105.592C81.701 105.461 82.5036 105.396 83.5116 105.396H84.1696V106.208H83.5396C82.821 106.208 82.2516 106.241 81.8316 106.306C81.421 106.371 81.1316 106.488 80.9636 106.656C80.7956 106.815 80.7116 107.039 80.7116 107.328C80.7116 107.692 80.8376 107.991 81.0896 108.224C81.351 108.457 81.7056 108.574 82.1536 108.574C82.5083 108.574 82.821 108.49 83.0916 108.322C83.3623 108.145 83.577 107.911 83.7356 107.622C83.8943 107.323 83.9736 106.983 83.9736 106.6V104.99C83.9736 104.439 83.8616 104.043 83.6376 103.8C83.4136 103.548 83.0356 103.422 82.5036 103.422C82.1956 103.422 81.8783 103.464 81.5516 103.548C81.225 103.632 80.8843 103.763 80.5296 103.94C80.3896 104.005 80.2683 104.029 80.1656 104.01C80.063 103.982 79.979 103.926 79.9136 103.842C79.8576 103.749 79.825 103.651 79.8156 103.548C79.8156 103.436 79.839 103.329 79.8856 103.226C79.9416 103.123 80.035 103.049 80.1656 103.002C80.5763 102.797 80.9823 102.652 81.3836 102.568C81.7943 102.475 82.177 102.428 82.5316 102.428C83.1383 102.428 83.6376 102.526 84.0296 102.722C84.4216 102.909 84.7156 103.203 84.9116 103.604C85.1076 103.996 85.2056 104.5 85.2056 105.116V108.812C85.2056 109.027 85.1543 109.19 85.0516 109.302C84.949 109.414 84.7996 109.47 84.6036 109.47C84.417 109.47 84.2676 109.414 84.1556 109.302C84.053 109.19 84.0016 109.027 84.0016 108.812V107.818H84.1276C84.053 108.163 83.913 108.462 83.7076 108.714C83.5023 108.966 83.2456 109.162 82.9376 109.302C82.639 109.433 82.2983 109.498 81.9156 109.498ZM89.5625 109.498C89.1425 109.498 88.7178 109.451 88.2885 109.358C87.8685 109.255 87.4718 109.083 87.0985 108.84C86.9958 108.775 86.9211 108.695 86.8745 108.602C86.8371 108.499 86.8231 108.401 86.8325 108.308C86.8511 108.205 86.8931 108.117 86.9585 108.042C87.0238 107.967 87.1031 107.925 87.1965 107.916C87.2991 107.897 87.4065 107.921 87.5185 107.986C87.8825 108.191 88.2325 108.336 88.5685 108.42C88.9138 108.504 89.2545 108.546 89.5905 108.546C90.1038 108.546 90.4911 108.453 90.7525 108.266C91.0138 108.079 91.1445 107.832 91.1445 107.524C91.1445 107.263 91.0558 107.062 90.8785 106.922C90.7105 106.773 90.4445 106.661 90.0805 106.586L88.7785 106.32C88.1998 106.189 87.7611 105.975 87.4625 105.676C87.1731 105.368 87.0285 104.976 87.0285 104.5C87.0285 104.08 87.1405 103.716 87.3645 103.408C87.5978 103.091 87.9198 102.848 88.3305 102.68C88.7411 102.512 89.2125 102.428 89.7445 102.428C90.1551 102.428 90.5425 102.484 90.9065 102.596C91.2798 102.699 91.6158 102.857 91.9145 103.072C92.0265 103.137 92.0965 103.221 92.1245 103.324C92.1618 103.417 92.1665 103.515 92.1385 103.618C92.1198 103.711 92.0778 103.791 92.0125 103.856C91.9471 103.921 91.8631 103.963 91.7605 103.982C91.6578 103.991 91.5458 103.963 91.4245 103.898C91.1538 103.711 90.8738 103.581 90.5845 103.506C90.3045 103.422 90.0245 103.38 89.7445 103.38C89.2405 103.38 88.8578 103.478 88.5965 103.674C88.3445 103.87 88.2185 104.127 88.2185 104.444C88.2185 104.687 88.2931 104.887 88.4425 105.046C88.6011 105.205 88.8485 105.321 89.1845 105.396L90.4865 105.662C91.0931 105.793 91.5505 106.003 91.8585 106.292C92.1665 106.572 92.3205 106.955 92.3205 107.44C92.3205 108.075 92.0685 108.579 91.5645 108.952C91.0698 109.316 90.4025 109.498 89.5625 109.498ZM99.9804 109.498C99.5604 109.498 99.1358 109.451 98.7064 109.358C98.2864 109.255 97.8898 109.083 97.5164 108.84C97.4138 108.775 97.3391 108.695 97.2924 108.602C97.2551 108.499 97.2411 108.401 97.2504 108.308C97.2691 108.205 97.3111 108.117 97.3764 108.042C97.4418 107.967 97.5211 107.925 97.6144 107.916C97.7171 107.897 97.8244 107.921 97.9364 107.986C98.3004 108.191 98.6504 108.336 98.9864 108.42C99.3318 108.504 99.6724 108.546 100.008 108.546C100.522 108.546 100.909 108.453 101.17 108.266C101.432 108.079 101.562 107.832 101.562 107.524C101.562 107.263 101.474 107.062 101.296 106.922C101.128 106.773 100.862 106.661 100.498 106.586L99.1964 106.32C98.6178 106.189 98.1791 105.975 97.8804 105.676C97.5911 105.368 97.4464 104.976 97.4464 104.5C97.4464 104.08 97.5584 103.716 97.7824 103.408C98.0158 103.091 98.3378 102.848 98.7484 102.68C99.1591 102.512 99.6304 102.428 100.162 102.428C100.573 102.428 100.96 102.484 101.324 102.596C101.698 102.699 102.034 102.857 102.332 103.072C102.444 103.137 102.514 103.221 102.542 103.324C102.58 103.417 102.584 103.515 102.556 103.618C102.538 103.711 102.496 103.791 102.43 103.856C102.365 103.921 102.281 103.963 102.178 103.982C102.076 103.991 101.964 103.963 101.842 103.898C101.572 103.711 101.292 103.581 101.002 103.506C100.722 103.422 100.442 103.38 100.162 103.38C99.6584 103.38 99.2758 103.478 99.0144 103.674C98.7624 103.87 98.6364 104.127 98.6364 104.444C98.6364 104.687 98.7111 104.887 98.8604 105.046C99.0191 105.205 99.2664 105.321 99.6024 105.396L100.904 105.662C101.511 105.793 101.968 106.003 102.276 106.292C102.584 106.572 102.738 106.955 102.738 107.44C102.738 108.075 102.486 108.579 101.982 108.952C101.488 109.316 100.82 109.498 99.9804 109.498ZM106.566 109.498C106.099 109.498 105.675 109.405 105.292 109.218C104.919 109.031 104.625 108.779 104.41 108.462C104.205 108.145 104.102 107.79 104.102 107.398C104.102 106.894 104.228 106.497 104.48 106.208C104.732 105.919 105.157 105.713 105.754 105.592C106.351 105.461 107.154 105.396 108.162 105.396H108.82V106.208H108.19C107.471 106.208 106.902 106.241 106.482 106.306C106.071 106.371 105.782 106.488 105.614 106.656C105.446 106.815 105.362 107.039 105.362 107.328C105.362 107.692 105.488 107.991 105.74 108.224C106.001 108.457 106.356 108.574 106.804 108.574C107.159 108.574 107.471 108.49 107.742 108.322C108.013 108.145 108.227 107.911 108.386 107.622C108.545 107.323 108.624 106.983 108.624 106.6V104.99C108.624 104.439 108.512 104.043 108.288 103.8C108.064 103.548 107.686 103.422 107.154 103.422C106.846 103.422 106.529 103.464 106.202 103.548C105.875 103.632 105.535 103.763 105.18 103.94C105.04 104.005 104.919 104.029 104.816 104.01C104.713 103.982 104.629 103.926 104.564 103.842C104.508 103.749 104.475 103.651 104.466 103.548C104.466 103.436 104.489 103.329 104.536 103.226C104.592 103.123 104.685 103.049 104.816 103.002C105.227 102.797 105.633 102.652 106.034 102.568C106.445 102.475 106.827 102.428 107.182 102.428C107.789 102.428 108.288 102.526 108.68 102.722C109.072 102.909 109.366 103.203 109.562 103.604C109.758 103.996 109.856 104.5 109.856 105.116V108.812C109.856 109.027 109.805 109.19 109.702 109.302C109.599 109.414 109.45 109.47 109.254 109.47C109.067 109.47 108.918 109.414 108.806 109.302C108.703 109.19 108.652 109.027 108.652 108.812V107.818H108.778C108.703 108.163 108.563 108.462 108.358 108.714C108.153 108.966 107.896 109.162 107.588 109.302C107.289 109.433 106.949 109.498 106.566 109.498ZM112.491 111.99C112.295 111.99 112.141 111.934 112.029 111.822C111.917 111.71 111.861 111.551 111.861 111.346V103.1C111.861 102.885 111.917 102.727 112.029 102.624C112.141 102.512 112.295 102.456 112.491 102.456C112.696 102.456 112.85 102.512 112.953 102.624C113.065 102.727 113.121 102.885 113.121 103.1V104.374L112.967 104.122C113.116 103.609 113.41 103.198 113.849 102.89C114.288 102.582 114.815 102.428 115.431 102.428C116.038 102.428 116.565 102.573 117.013 102.862C117.461 103.142 117.811 103.548 118.063 104.08C118.315 104.603 118.441 105.228 118.441 105.956C118.441 106.675 118.315 107.305 118.063 107.846C117.82 108.378 117.47 108.789 117.013 109.078C116.565 109.358 116.038 109.498 115.431 109.498C114.824 109.498 114.302 109.344 113.863 109.036C113.424 108.728 113.13 108.322 112.981 107.818H113.135V111.346C113.135 111.551 113.079 111.71 112.967 111.822C112.855 111.934 112.696 111.99 112.491 111.99ZM115.137 108.49C115.538 108.49 115.888 108.392 116.187 108.196C116.495 108 116.733 107.715 116.901 107.342C117.069 106.969 117.153 106.507 117.153 105.956C117.153 105.135 116.971 104.509 116.607 104.08C116.243 103.651 115.753 103.436 115.137 103.436C114.726 103.436 114.367 103.534 114.059 103.73C113.76 103.917 113.527 104.197 113.359 104.57C113.2 104.943 113.121 105.405 113.121 105.956C113.121 106.777 113.303 107.407 113.667 107.846C114.031 108.275 114.521 108.49 115.137 108.49ZM120.708 109.442C120.512 109.442 120.358 109.381 120.246 109.26C120.134 109.139 120.078 108.971 120.078 108.756V103.17C120.078 102.946 120.134 102.778 120.246 102.666C120.358 102.545 120.512 102.484 120.708 102.484C120.913 102.484 121.072 102.545 121.184 102.666C121.296 102.778 121.352 102.946 121.352 103.17V108.756C121.352 108.971 121.296 109.139 121.184 109.26C121.081 109.381 120.922 109.442 120.708 109.442ZM120.708 100.972C120.456 100.972 120.255 100.907 120.106 100.776C119.966 100.636 119.896 100.454 119.896 100.23C119.896 99.9874 119.966 99.8054 120.106 99.6841C120.255 99.5534 120.456 99.4881 120.708 99.4881C120.978 99.4881 121.179 99.5534 121.31 99.6841C121.45 99.8054 121.52 99.9874 121.52 100.23C121.52 100.454 121.45 100.636 121.31 100.776C121.179 100.907 120.978 100.972 120.708 100.972ZM126.55 109.498C125.813 109.498 125.178 109.358 124.646 109.078C124.123 108.789 123.717 108.383 123.428 107.86C123.139 107.328 122.994 106.703 122.994 105.984C122.994 105.275 123.134 104.654 123.414 104.122C123.703 103.59 124.095 103.175 124.59 102.876C125.094 102.577 125.668 102.428 126.312 102.428C126.769 102.428 127.18 102.507 127.544 102.666C127.917 102.815 128.235 103.035 128.496 103.324C128.757 103.613 128.953 103.968 129.084 104.388C129.224 104.799 129.294 105.265 129.294 105.788C129.294 105.937 129.247 106.054 129.154 106.138C129.07 106.213 128.944 106.25 128.776 106.25H123.988V105.438H128.454L128.216 105.634C128.216 105.149 128.141 104.738 127.992 104.402C127.852 104.057 127.642 103.795 127.362 103.618C127.091 103.441 126.751 103.352 126.34 103.352C125.892 103.352 125.509 103.459 125.192 103.674C124.875 103.879 124.632 104.173 124.464 104.556C124.296 104.929 124.212 105.363 124.212 105.858V105.942C124.212 106.782 124.413 107.417 124.814 107.846C125.215 108.275 125.794 108.49 126.55 108.49C126.849 108.49 127.152 108.453 127.46 108.378C127.777 108.303 128.081 108.168 128.37 107.972C128.51 107.888 128.636 107.851 128.748 107.86C128.869 107.86 128.967 107.897 129.042 107.972C129.117 108.037 129.163 108.121 129.182 108.224C129.201 108.317 129.187 108.42 129.14 108.532C129.093 108.644 129.005 108.742 128.874 108.826C128.566 109.041 128.197 109.209 127.768 109.33C127.348 109.442 126.942 109.498 126.55 109.498ZM131.508 109.47C131.312 109.47 131.158 109.414 131.046 109.302C130.934 109.19 130.878 109.027 130.878 108.812V103.1C130.878 102.885 130.934 102.727 131.046 102.624C131.158 102.512 131.312 102.456 131.508 102.456C131.704 102.456 131.854 102.512 131.956 102.624C132.068 102.727 132.124 102.885 132.124 103.1V104.248L131.97 104.038C132.166 103.506 132.484 103.105 132.922 102.834C133.37 102.563 133.879 102.428 134.448 102.428C134.999 102.428 135.452 102.526 135.806 102.722C136.161 102.918 136.427 103.217 136.604 103.618C136.782 104.019 136.87 104.528 136.87 105.144V108.812C136.87 109.027 136.814 109.19 136.702 109.302C136.6 109.414 136.446 109.47 136.24 109.47C136.035 109.47 135.876 109.414 135.764 109.302C135.652 109.19 135.596 109.027 135.596 108.812V105.214C135.596 104.607 135.48 104.164 135.246 103.884C135.013 103.604 134.64 103.464 134.126 103.464C133.529 103.464 133.048 103.651 132.684 104.024C132.33 104.388 132.152 104.883 132.152 105.508V108.812C132.152 109.251 131.938 109.47 131.508 109.47ZM145.131 109.47C144.953 109.47 144.799 109.423 144.669 109.33C144.538 109.237 144.426 109.087 144.333 108.882L141.953 103.338C141.887 103.179 141.864 103.035 141.883 102.904C141.901 102.773 141.962 102.666 142.065 102.582C142.177 102.498 142.326 102.456 142.513 102.456C142.671 102.456 142.797 102.493 142.891 102.568C142.984 102.643 143.073 102.773 143.157 102.96L145.355 108.378H144.963L147.217 102.96C147.291 102.773 147.375 102.643 147.469 102.568C147.571 102.493 147.711 102.456 147.889 102.456C148.047 102.456 148.169 102.498 148.253 102.582C148.346 102.666 148.402 102.773 148.421 102.904C148.439 103.035 148.411 103.175 148.337 103.324L145.943 108.882C145.859 109.087 145.747 109.237 145.607 109.33C145.476 109.423 145.317 109.47 145.131 109.47ZM150.417 109.442C150.221 109.442 150.067 109.381 149.955 109.26C149.843 109.139 149.787 108.971 149.787 108.756V103.17C149.787 102.946 149.843 102.778 149.955 102.666C150.067 102.545 150.221 102.484 150.417 102.484C150.622 102.484 150.781 102.545 150.893 102.666C151.005 102.778 151.061 102.946 151.061 103.17V108.756C151.061 108.971 151.005 109.139 150.893 109.26C150.79 109.381 150.631 109.442 150.417 109.442ZM150.417 100.972C150.165 100.972 149.964 100.907 149.815 100.776C149.675 100.636 149.605 100.454 149.605 100.23C149.605 99.9874 149.675 99.8054 149.815 99.6841C149.964 99.5534 150.165 99.4881 150.417 99.4881C150.687 99.4881 150.888 99.5534 151.019 99.6841C151.159 99.8054 151.229 99.9874 151.229 100.23C151.229 100.454 151.159 100.636 151.019 100.776C150.888 100.907 150.687 100.972 150.417 100.972ZM155.699 109.47C155.522 109.47 155.368 109.423 155.237 109.33C155.106 109.237 154.994 109.087 154.901 108.882L152.521 103.338C152.456 103.179 152.432 103.035 152.451 102.904C152.47 102.773 152.53 102.666 152.633 102.582C152.745 102.498 152.894 102.456 153.081 102.456C153.24 102.456 153.366 102.493 153.459 102.568C153.552 102.643 153.641 102.773 153.725 102.96L155.923 108.378H155.531L157.785 102.96C157.86 102.773 157.944 102.643 158.037 102.568C158.14 102.493 158.28 102.456 158.457 102.456C158.616 102.456 158.737 102.498 158.821 102.582C158.914 102.666 158.97 102.773 158.989 102.904C159.008 103.035 158.98 103.175 158.905 103.324L156.511 108.882C156.427 109.087 156.315 109.237 156.175 109.33C156.044 109.423 155.886 109.47 155.699 109.47ZM163.396 109.498C162.658 109.498 162.024 109.358 161.492 109.078C160.969 108.789 160.563 108.383 160.274 107.86C159.984 107.328 159.84 106.703 159.84 105.984C159.84 105.275 159.98 104.654 160.26 104.122C160.549 103.59 160.941 103.175 161.436 102.876C161.94 102.577 162.514 102.428 163.158 102.428C163.615 102.428 164.026 102.507 164.39 102.666C164.763 102.815 165.08 103.035 165.342 103.324C165.603 103.613 165.799 103.968 165.93 104.388C166.07 104.799 166.14 105.265 166.14 105.788C166.14 105.937 166.093 106.054 166 106.138C165.916 106.213 165.79 106.25 165.622 106.25H160.834V105.438H165.3L165.062 105.634C165.062 105.149 164.987 104.738 164.838 104.402C164.698 104.057 164.488 103.795 164.208 103.618C163.937 103.441 163.596 103.352 163.186 103.352C162.738 103.352 162.355 103.459 162.038 103.674C161.72 103.879 161.478 104.173 161.31 104.556C161.142 104.929 161.058 105.363 161.058 105.858V105.942C161.058 106.782 161.258 107.417 161.66 107.846C162.061 108.275 162.64 108.49 163.396 108.49C163.694 108.49 163.998 108.453 164.306 108.378C164.623 108.303 164.926 108.168 165.216 107.972C165.356 107.888 165.482 107.851 165.594 107.86C165.715 107.86 165.813 107.897 165.888 107.972C165.962 108.037 166.009 108.121 166.028 108.224C166.046 108.317 166.032 108.42 165.986 108.532C165.939 108.644 165.85 108.742 165.72 108.826C165.412 109.041 165.043 109.209 164.614 109.33C164.194 109.442 163.788 109.498 163.396 109.498ZM168.382 109.47C168.167 109.47 168.004 109.414 167.892 109.302C167.78 109.19 167.724 109.027 167.724 108.812V103.1C167.724 102.885 167.78 102.727 167.892 102.624C168.004 102.512 168.158 102.456 168.354 102.456C168.55 102.456 168.699 102.512 168.802 102.624C168.914 102.727 168.97 102.885 168.97 103.1V104.178H168.83C168.979 103.618 169.259 103.193 169.67 102.904C170.081 102.615 170.599 102.451 171.224 102.414C171.373 102.405 171.495 102.442 171.588 102.526C171.681 102.601 171.733 102.731 171.742 102.918C171.751 103.095 171.709 103.24 171.616 103.352C171.523 103.455 171.378 103.515 171.182 103.534L170.93 103.548C170.314 103.613 169.838 103.814 169.502 104.15C169.175 104.486 169.012 104.948 169.012 105.536V108.812C169.012 109.027 168.956 109.19 168.844 109.302C168.741 109.414 168.587 109.47 168.382 109.47ZM173.495 109.47C173.281 109.47 173.117 109.414 173.005 109.302C172.893 109.19 172.837 109.027 172.837 108.812V103.1C172.837 102.885 172.893 102.727 173.005 102.624C173.117 102.512 173.271 102.456 173.467 102.456C173.663 102.456 173.813 102.512 173.915 102.624C174.027 102.727 174.083 102.885 174.083 103.1V104.178H173.943C174.093 103.618 174.373 103.193 174.783 102.904C175.194 102.615 175.712 102.451 176.337 102.414C176.487 102.405 176.608 102.442 176.701 102.526C176.795 102.601 176.846 102.731 176.855 102.918C176.865 103.095 176.823 103.24 176.729 103.352C176.636 103.455 176.491 103.515 176.295 103.534L176.043 103.548C175.427 103.613 174.951 103.814 174.615 104.15C174.289 104.486 174.125 104.948 174.125 105.536V108.812C174.125 109.027 174.069 109.19 173.957 109.302C173.855 109.414 173.701 109.47 173.495 109.47ZM180.052 109.498C179.586 109.498 179.161 109.405 178.778 109.218C178.405 109.031 178.111 108.779 177.896 108.462C177.691 108.145 177.588 107.79 177.588 107.398C177.588 106.894 177.714 106.497 177.966 106.208C178.218 105.919 178.643 105.713 179.24 105.592C179.838 105.461 180.64 105.396 181.648 105.396H182.306V106.208H181.676C180.958 106.208 180.388 106.241 179.968 106.306C179.558 106.371 179.268 106.488 179.1 106.656C178.932 106.815 178.848 107.039 178.848 107.328C178.848 107.692 178.974 107.991 179.226 108.224C179.488 108.457 179.842 108.574 180.29 108.574C180.645 108.574 180.958 108.49 181.228 108.322C181.499 108.145 181.714 107.911 181.872 107.622C182.031 107.323 182.11 106.983 182.11 106.6V104.99C182.11 104.439 181.998 104.043 181.774 103.8C181.55 103.548 181.172 103.422 180.64 103.422C180.332 103.422 180.015 103.464 179.688 103.548C179.362 103.632 179.021 103.763 178.666 103.94C178.526 104.005 178.405 104.029 178.302 104.01C178.2 103.982 178.116 103.926 178.05 103.842C177.994 103.749 177.962 103.651 177.952 103.548C177.952 103.436 177.976 103.329 178.022 103.226C178.078 103.123 178.172 103.049 178.302 103.002C178.713 102.797 179.119 102.652 179.52 102.568C179.931 102.475 180.314 102.428 180.668 102.428C181.275 102.428 181.774 102.526 182.166 102.722C182.558 102.909 182.852 103.203 183.048 103.604C183.244 103.996 183.342 104.5 183.342 105.116V108.812C183.342 109.027 183.291 109.19 183.188 109.302C183.086 109.414 182.936 109.47 182.74 109.47C182.554 109.47 182.404 109.414 182.292 109.302C182.19 109.19 182.138 109.027 182.138 108.812V107.818H182.264C182.19 108.163 182.05 108.462 181.844 108.714C181.639 108.966 181.382 109.162 181.074 109.302C180.776 109.433 180.435 109.498 180.052 109.498ZM189.628 109.47C189.432 109.47 189.278 109.414 189.166 109.302C189.054 109.19 188.998 109.027 188.998 108.812V103.1C188.998 102.885 189.054 102.727 189.166 102.624C189.278 102.512 189.432 102.456 189.628 102.456C189.824 102.456 189.973 102.512 190.076 102.624C190.188 102.727 190.244 102.885 190.244 103.1V104.248L190.09 104.038C190.286 103.506 190.603 103.105 191.042 102.834C191.49 102.563 191.998 102.428 192.568 102.428C193.118 102.428 193.571 102.526 193.926 102.722C194.28 102.918 194.546 103.217 194.724 103.618C194.901 104.019 194.99 104.528 194.99 105.144V108.812C194.99 109.027 194.934 109.19 194.822 109.302C194.719 109.414 194.565 109.47 194.36 109.47C194.154 109.47 193.996 109.414 193.884 109.302C193.772 109.19 193.716 109.027 193.716 108.812V105.214C193.716 104.607 193.599 104.164 193.366 103.884C193.132 103.604 192.759 103.464 192.246 103.464C191.648 103.464 191.168 103.651 190.804 104.024C190.449 104.388 190.272 104.883 190.272 105.508V108.812C190.272 109.251 190.057 109.47 189.628 109.47ZM200.159 109.498C199.422 109.498 198.787 109.358 198.255 109.078C197.733 108.789 197.327 108.383 197.037 107.86C196.748 107.328 196.603 106.703 196.603 105.984C196.603 105.275 196.743 104.654 197.023 104.122C197.313 103.59 197.705 103.175 198.199 102.876C198.703 102.577 199.277 102.428 199.921 102.428C200.379 102.428 200.789 102.507 201.153 102.666C201.527 102.815 201.844 103.035 202.105 103.324C202.367 103.613 202.563 103.968 202.693 104.388C202.833 104.799 202.903 105.265 202.903 105.788C202.903 105.937 202.857 106.054 202.763 106.138C202.679 106.213 202.553 106.25 202.385 106.25H197.597V105.438H202.063L201.825 105.634C201.825 105.149 201.751 104.738 201.601 104.402C201.461 104.057 201.251 103.795 200.971 103.618C200.701 103.441 200.36 103.352 199.949 103.352C199.501 103.352 199.119 103.459 198.801 103.674C198.484 103.879 198.241 104.173 198.073 104.556C197.905 104.929 197.821 105.363 197.821 105.858V105.942C197.821 106.782 198.022 107.417 198.423 107.846C198.825 108.275 199.403 108.49 200.159 108.49C200.458 108.49 200.761 108.453 201.069 108.378C201.387 108.303 201.69 108.168 201.979 107.972C202.119 107.888 202.245 107.851 202.357 107.86C202.479 107.86 202.577 107.897 202.651 107.972C202.726 108.037 202.773 108.121 202.791 108.224C202.81 108.317 202.796 108.42 202.749 108.532C202.703 108.644 202.614 108.742 202.483 108.826C202.175 109.041 201.807 109.209 201.377 109.33C200.957 109.442 200.551 109.498 200.159 109.498ZM210.018 111.99C209.812 111.99 209.654 111.934 209.542 111.822C209.439 111.71 209.388 111.551 209.388 111.346V107.818H209.542C209.392 108.322 209.098 108.728 208.66 109.036C208.221 109.344 207.698 109.498 207.092 109.498C206.485 109.498 205.953 109.358 205.496 109.078C205.048 108.789 204.698 108.378 204.446 107.846C204.203 107.305 204.082 106.675 204.082 105.956C204.082 105.228 204.208 104.603 204.46 104.08C204.712 103.548 205.062 103.142 205.51 102.862C205.967 102.573 206.494 102.428 207.092 102.428C207.698 102.428 208.221 102.582 208.66 102.89C209.108 103.198 209.402 103.609 209.542 104.122L209.388 104.374V103.1C209.388 102.885 209.444 102.727 209.556 102.624C209.668 102.512 209.822 102.456 210.018 102.456C210.223 102.456 210.382 102.512 210.494 102.624C210.606 102.727 210.662 102.885 210.662 103.1V111.346C210.662 111.551 210.606 111.71 210.494 111.822C210.382 111.934 210.223 111.99 210.018 111.99ZM207.386 108.49C207.796 108.49 208.151 108.392 208.45 108.196C208.758 108 208.991 107.715 209.15 107.342C209.318 106.969 209.402 106.507 209.402 105.956C209.402 105.135 209.22 104.509 208.856 104.08C208.492 103.651 208.002 103.436 207.386 103.436C206.984 103.436 206.63 103.534 206.322 103.73C206.023 103.917 205.79 104.197 205.622 104.57C205.454 104.943 205.37 105.405 205.37 105.956C205.37 106.777 205.552 107.407 205.916 107.846C206.289 108.275 206.779 108.49 207.386 108.49ZM215.141 109.498C214.59 109.498 214.128 109.395 213.755 109.19C213.391 108.985 213.12 108.681 212.943 108.28C212.765 107.879 212.677 107.375 212.677 106.768V103.1C212.677 102.885 212.728 102.727 212.831 102.624C212.943 102.512 213.101 102.456 213.307 102.456C213.512 102.456 213.671 102.512 213.783 102.624C213.895 102.727 213.951 102.885 213.951 103.1V106.768C213.951 107.347 214.067 107.776 214.301 108.056C214.534 108.327 214.903 108.462 215.407 108.462C215.967 108.462 216.419 108.275 216.765 107.902C217.119 107.529 217.297 107.034 217.297 106.418V103.1C217.297 102.885 217.348 102.727 217.451 102.624C217.563 102.512 217.721 102.456 217.927 102.456C218.132 102.456 218.291 102.512 218.403 102.624C218.515 102.727 218.571 102.885 218.571 103.1V108.812C218.571 109.251 218.365 109.47 217.955 109.47C217.749 109.47 217.591 109.414 217.479 109.302C217.376 109.19 217.325 109.027 217.325 108.812V107.594L217.507 107.832C217.32 108.373 217.017 108.789 216.597 109.078C216.186 109.358 215.701 109.498 215.141 109.498ZM223.771 109.498C223.033 109.498 222.399 109.358 221.867 109.078C221.344 108.789 220.938 108.383 220.649 107.86C220.359 107.328 220.215 106.703 220.215 105.984C220.215 105.275 220.355 104.654 220.635 104.122C220.924 103.59 221.316 103.175 221.811 102.876C222.315 102.577 222.889 102.428 223.533 102.428C223.99 102.428 224.401 102.507 224.765 102.666C225.138 102.815 225.455 103.035 225.717 103.324C225.978 103.613 226.174 103.968 226.305 104.388C226.445 104.799 226.515 105.265 226.515 105.788C226.515 105.937 226.468 106.054 226.375 106.138C226.291 106.213 226.165 106.25 225.997 106.25H221.209V105.438H225.675L225.437 105.634C225.437 105.149 225.362 104.738 225.213 104.402C225.073 104.057 224.863 103.795 224.583 103.618C224.312 103.441 223.971 103.352 223.561 103.352C223.113 103.352 222.73 103.459 222.413 103.674C222.095 103.879 221.853 104.173 221.685 104.556C221.517 104.929 221.433 105.363 221.433 105.858V105.942C221.433 106.782 221.633 107.417 222.035 107.846C222.436 108.275 223.015 108.49 223.771 108.49C224.069 108.49 224.373 108.453 224.681 108.378C224.998 108.303 225.301 108.168 225.591 107.972C225.731 107.888 225.857 107.851 225.969 107.86C226.09 107.86 226.188 107.897 226.263 107.972C226.337 108.037 226.384 108.121 226.403 108.224C226.421 108.317 226.407 108.42 226.361 108.532C226.314 108.644 226.225 108.742 226.095 108.826C225.787 109.041 225.418 109.209 224.989 109.33C224.569 109.442 224.163 109.498 223.771 109.498ZM233.92 109.498C233.453 109.498 233.028 109.405 232.646 109.218C232.272 109.031 231.978 108.779 231.764 108.462C231.558 108.145 231.456 107.79 231.456 107.398C231.456 106.894 231.582 106.497 231.834 106.208C232.086 105.919 232.51 105.713 233.108 105.592C233.705 105.461 234.508 105.396 235.516 105.396H236.174V106.208H235.544C234.825 106.208 234.256 106.241 233.836 106.306C233.425 106.371 233.136 106.488 232.968 106.656C232.8 106.815 232.716 107.039 232.716 107.328C232.716 107.692 232.842 107.991 233.094 108.224C233.355 108.457 233.71 108.574 234.158 108.574C234.512 108.574 234.825 108.49 235.096 108.322C235.366 108.145 235.581 107.911 235.74 107.622C235.898 107.323 235.978 106.983 235.978 106.6V104.99C235.978 104.439 235.866 104.043 235.642 103.8C235.418 103.548 235.04 103.422 234.508 103.422C234.2 103.422 233.882 103.464 233.556 103.548C233.229 103.632 232.888 103.763 232.534 103.94C232.394 104.005 232.272 104.029 232.17 104.01C232.067 103.982 231.983 103.926 231.918 103.842C231.862 103.749 231.829 103.651 231.82 103.548C231.82 103.436 231.843 103.329 231.89 103.226C231.946 103.123 232.039 103.049 232.17 103.002C232.58 102.797 232.986 102.652 233.388 102.568C233.798 102.475 234.181 102.428 234.536 102.428C235.142 102.428 235.642 102.526 236.034 102.722C236.426 102.909 236.72 103.203 236.916 103.604C237.112 103.996 237.21 104.5 237.21 105.116V108.812C237.21 109.027 237.158 109.19 237.056 109.302C236.953 109.414 236.804 109.47 236.608 109.47C236.421 109.47 236.272 109.414 236.16 109.302C236.057 109.19 236.006 109.027 236.006 108.812V107.818H236.132C236.057 108.163 235.917 108.462 235.712 108.714C235.506 108.966 235.25 109.162 234.942 109.302C234.643 109.433 234.302 109.498 233.92 109.498ZM242.168 109.498C241.478 109.498 240.88 109.353 240.376 109.064C239.872 108.765 239.485 108.35 239.214 107.818C238.944 107.277 238.808 106.642 238.808 105.914C238.808 105.373 238.883 104.887 239.032 104.458C239.191 104.029 239.415 103.665 239.704 103.366C239.994 103.058 240.344 102.825 240.754 102.666C241.174 102.507 241.646 102.428 242.168 102.428C242.495 102.428 242.84 102.479 243.204 102.582C243.568 102.685 243.904 102.853 244.212 103.086C244.315 103.161 244.38 103.249 244.408 103.352C244.436 103.445 244.436 103.543 244.408 103.646C244.39 103.749 244.343 103.837 244.268 103.912C244.203 103.977 244.114 104.015 244.002 104.024C243.9 104.033 243.788 104.001 243.666 103.926C243.442 103.758 243.204 103.637 242.952 103.562C242.71 103.487 242.476 103.45 242.252 103.45C241.907 103.45 241.599 103.506 241.328 103.618C241.067 103.73 240.843 103.893 240.656 104.108C240.479 104.313 240.344 104.57 240.25 104.878C240.157 105.177 240.11 105.527 240.11 105.928C240.11 106.721 240.297 107.347 240.67 107.804C241.044 108.252 241.571 108.476 242.252 108.476C242.476 108.476 242.71 108.443 242.952 108.378C243.195 108.303 243.433 108.182 243.666 108.014C243.788 107.939 243.9 107.911 244.002 107.93C244.105 107.939 244.189 107.981 244.254 108.056C244.329 108.121 244.376 108.205 244.394 108.308C244.413 108.401 244.404 108.499 244.366 108.602C244.338 108.705 244.273 108.789 244.17 108.854C243.872 109.078 243.545 109.241 243.19 109.344C242.836 109.447 242.495 109.498 242.168 109.498ZM248.735 109.498C247.998 109.498 247.363 109.358 246.831 109.078C246.309 108.789 245.903 108.383 245.613 107.86C245.324 107.328 245.179 106.703 245.179 105.984C245.179 105.275 245.319 104.654 245.599 104.122C245.889 103.59 246.281 103.175 246.775 102.876C247.279 102.577 247.853 102.428 248.497 102.428C248.955 102.428 249.365 102.507 249.729 102.666C250.103 102.815 250.42 103.035 250.681 103.324C250.943 103.613 251.139 103.968 251.269 104.388C251.409 104.799 251.479 105.265 251.479 105.788C251.479 105.937 251.433 106.054 251.339 106.138C251.255 106.213 251.129 106.25 250.961 106.25H246.173V105.438H250.639L250.401 105.634C250.401 105.149 250.327 104.738 250.177 104.402C250.037 104.057 249.827 103.795 249.547 103.618C249.277 103.441 248.936 103.352 248.525 103.352C248.077 103.352 247.695 103.459 247.377 103.674C247.06 103.879 246.817 104.173 246.649 104.556C246.481 104.929 246.397 105.363 246.397 105.858V105.942C246.397 106.782 246.598 107.417 246.999 107.846C247.401 108.275 247.979 108.49 248.735 108.49C249.034 108.49 249.337 108.453 249.645 108.378C249.963 108.303 250.266 108.168 250.555 107.972C250.695 107.888 250.821 107.851 250.933 107.86C251.055 107.86 251.153 107.897 251.227 107.972C251.302 108.037 251.349 108.121 251.367 108.224C251.386 108.317 251.372 108.42 251.325 108.532C251.279 108.644 251.19 108.742 251.059 108.826C250.751 109.041 250.383 109.209 249.953 109.33C249.533 109.442 249.127 109.498 248.735 109.498ZM253.68 109.428C253.437 109.428 253.237 109.349 253.078 109.19C252.919 109.031 252.84 108.831 252.84 108.588C252.84 108.345 252.919 108.149 253.078 108C253.237 107.851 253.437 107.776 253.68 107.776C253.941 107.776 254.142 107.851 254.282 108C254.431 108.149 254.506 108.345 254.506 108.588C254.506 108.831 254.431 109.031 254.282 109.19C254.142 109.349 253.941 109.428 253.68 109.428Z" fill="#6C8184"/>
</g>
<defs>
<filter id="filter0_ddii_80_2385" x="0.731445" y="0.798828" width="334.805" height="168.963" filterUnits="userSpaceOnUse" color-interpolation-filters="sRGB">
<feFlood flood-opacity="0" result="BackgroundImageFix"/>
<feColorMatrix in="SourceAlpha" type="matrix" values="0 0 0 0 0 0 0 0 0 0 0 0 0 0 0 0 0 0 127 0" result="hardAlpha"/>
<feOffset dy="4"/>
<feGaussianBlur stdDeviation="2"/>
<feComposite in2="hardAlpha" operator="out"/>
<feColorMatrix type="matrix" values="0 0 0 0 0 0 0 0 0 0 0 0 0 0 0 0 0 0 0.1 0"/>
<feBlend mode="normal" in2="BackgroundImageFix" result="effect1_dropShadow_80_2385"/>
<feColorMatrix in="SourceAlpha" type="matrix" values="0 0 0 0 0 0 0 0 0 0 0 0 0 0 0 0 0 0 127 0" result="hardAlpha"/>
<feMorphology radius="12" operator="erode" in="SourceAlpha" result="effect2_dropShadow_80_2385"/>
<feOffset dy="12"/>
<feGaussianBlur stdDeviation="16"/>
<feComposite in2="hardAlpha" operator="out"/>
<feColorMatrix type="matrix" values="0 0 0 0 0 0 0 0 0 0 0 0 0 0 0 0 0 0 0.1 0"/>
<feBlend mode="normal" in2="effect1_dropShadow_80_2385" result="effect2_dropShadow_80_2385"/>
<feBlend mode="normal" in="SourceGraphic" in2="effect2_dropShadow_80_2385" result="shape"/>
<feColorMatrix in="SourceAlpha" type="matrix" values="0 0 0 0 0 0 0 0 0 0 0 0 0 0 0 0 0 0 127 0" result="hardAlpha"/>
<feOffset dy="6"/>
<feGaussianBlur stdDeviation="6"/>
<feComposite in2="hardAlpha" operator="arithmetic" k2="-1" k3="1"/>
<feColorMatrix type="matrix" values="0 0 0 0 1 0 0 0 0 1 0 0 0 0 1 0 0 0 0.04 0"/>
<feBlend mode="normal" in2="shape" result="effect3_innerShadow_80_2385"/>
<feColorMatrix in="SourceAlpha" type="matrix" values="0 0 0 0 0 0 0 0 0 0 0 0 0 0 0 0 0 0 127 0" result="hardAlpha"/>
<feOffset dy="1"/>
<feGaussianBlur stdDeviation="0.5"/>
<feComposite in2="hardAlpha" operator="arithmetic" k2="-1" k3="1"/>
<feColorMatrix type="matrix" values="0 0 0 0 1 0 0 0 0 1 0 0 0 0 1 0 0 0 0.2 0"/>
<feBlend mode="normal" in2="effect3_innerShadow_80_2385" result="effect4_innerShadow_80_2385"/>
</filter>
</defs>
</svg>
