<svg width="296" height="445" viewBox="0 0 296 445" fill="none" xmlns="http://www.w3.org/2000/svg">
<path d="M0.463867 22.5276C0.463867 10.086 10.5498 0 22.9915 0H272.741C285.183 0 295.269 10.086 295.269 22.5276V421.546C295.269 433.987 285.183 444.073 272.741 444.073H22.9915C10.5499 444.073 0.463867 433.987 0.463867 421.546V22.5276Z" fill="#7030A0"/>
<path d="M28.7655 59.7036C28.0789 59.7036 27.5415 59.5096 27.1534 59.1215C26.7952 58.7334 26.6161 58.196 26.6161 57.5094V29.7007C26.6161 28.9842 26.8101 28.4468 27.1982 28.0886C27.5863 27.7005 28.1087 27.5064 28.7655 27.5064C29.3924 27.5064 29.8701 27.6258 30.1985 27.8647C30.5567 28.0736 30.8851 28.4617 31.1837 29.029L42.9162 50.9266H41.528L53.2157 29.029C53.5142 28.4617 53.8277 28.0736 54.1561 27.8647C54.4844 27.6258 54.9621 27.5064 55.589 27.5064C56.2458 27.5064 56.7533 27.7005 57.1116 28.0886C57.4698 28.4468 57.6489 28.9842 57.6489 29.7007V57.5094C57.6489 58.196 57.4698 58.7334 57.1116 59.1215C56.7832 59.5096 56.2757 59.7036 55.589 59.7036C54.9024 59.7036 54.38 59.5096 54.0217 59.1215C53.6635 58.7334 53.4843 58.196 53.4843 57.5094V34.4026H54.4695L44.0804 53.6135C43.8416 54.0613 43.5879 54.3896 43.3192 54.5986C43.0505 54.8076 42.6773 54.9121 42.1997 54.9121C41.722 54.9121 41.3339 54.8076 41.0354 54.5986C40.7368 54.3598 40.4682 54.0314 40.2293 53.6135L29.7507 34.3578H30.8254V57.5094C30.8254 58.196 30.6463 58.7334 30.2881 59.1215C29.9597 59.5096 29.4522 59.7036 28.7655 59.7036ZM66.8436 59.6588C66.1271 59.6588 65.5748 59.4498 65.1867 59.0319C64.7986 58.5841 64.6046 57.9721 64.6046 57.1959V39.7315C64.6046 38.9553 64.7986 38.3582 65.1867 37.9403C65.5748 37.5223 66.1271 37.3134 66.8436 37.3134C67.5601 37.3134 68.1124 37.5223 68.5005 37.9403C68.9185 38.3582 69.1274 38.9553 69.1274 39.7315V57.1959C69.1274 57.9721 68.9334 58.5841 68.5453 59.0319C68.1572 59.4498 67.59 59.6588 66.8436 59.6588ZM66.8436 32.6562C65.948 32.6562 65.2465 32.4323 64.7389 31.9845C64.2613 31.5367 64.0225 30.9097 64.0225 30.1037C64.0225 29.2678 64.2613 28.6409 64.7389 28.2229C65.2465 27.7751 65.948 27.5512 66.8436 27.5512C67.7392 27.5512 68.4259 27.7751 68.9035 28.2229C69.411 28.6409 69.6648 29.2678 69.6648 30.1037C69.6648 30.9097 69.411 31.5367 68.9035 31.9845C68.4259 32.4323 67.7392 32.6562 66.8436 32.6562ZM83.1511 59.7932C81.8375 59.7932 80.4792 59.6439 79.076 59.3454C77.7028 59.0468 76.434 58.5393 75.2697 57.8228C74.8816 57.5541 74.6129 57.2556 74.4637 56.9272C74.3144 56.5988 74.2547 56.2704 74.2845 55.942C74.3442 55.5838 74.4786 55.2853 74.6876 55.0464C74.9264 54.7777 75.21 54.6136 75.5384 54.5538C75.8966 54.4941 76.2698 54.5688 76.6579 54.7777C77.8222 55.4345 78.9417 55.8973 80.0164 56.1659C81.0912 56.4048 82.151 56.5242 83.1958 56.5242C84.7781 56.5242 85.9722 56.2406 86.7783 55.6734C87.5843 55.1061 87.9874 54.3449 87.9874 53.3896C87.9874 52.6134 87.7187 52.0163 87.1813 51.5983C86.6439 51.1505 85.8379 50.8072 84.7632 50.5684L80.509 49.7176C78.6581 49.3295 77.255 48.6428 76.2997 47.6576C75.3443 46.6725 74.8667 45.4186 74.8667 43.8961C74.8667 42.5228 75.2398 41.3287 75.9862 40.3136C76.7325 39.2986 77.7774 38.5224 79.1208 37.9851C80.4642 37.4178 82.0166 37.1342 83.778 37.1342C85.0916 37.1342 86.3305 37.2984 87.4948 37.6268C88.6591 37.9552 89.7338 38.4478 90.719 39.1046C91.1071 39.3136 91.3608 39.5972 91.4802 39.9554C91.5997 40.2838 91.6146 40.6122 91.525 40.9406C91.4653 41.269 91.316 41.5675 91.0772 41.8362C90.8384 42.075 90.5398 42.2243 90.1816 42.284C89.8532 42.3138 89.48 42.2243 89.0621 42.0153C88.1665 41.4481 87.2709 41.0451 86.3753 40.8062C85.5095 40.5674 84.6438 40.448 83.778 40.448C82.1958 40.448 81.0016 40.7465 80.1956 41.3436C79.4194 41.9108 79.0313 42.687 79.0313 43.6722C79.0313 44.4185 79.2701 45.0305 79.7478 45.5082C80.2254 45.9858 80.9718 46.3292 81.9868 46.5381L86.2409 47.389C88.1814 47.7771 89.6442 48.4338 90.6294 49.3593C91.6444 50.2848 92.1519 51.5386 92.1519 53.1209C92.1519 55.1808 91.331 56.8078 89.689 58.0019C88.0471 59.1961 85.8678 59.7932 83.1511 59.7932ZM104.842 59.7932C103.528 59.7932 102.17 59.6439 100.767 59.3454C99.3933 59.0468 98.1245 58.5393 96.9602 57.8228C96.5722 57.5541 96.3035 57.2556 96.1542 56.9272C96.0049 56.5988 95.9452 56.2704 95.9751 55.942C96.0348 55.5838 96.1691 55.2853 96.3781 55.0464C96.6169 54.7777 96.9005 54.6136 97.2289 54.5538C97.5872 54.4941 97.9603 54.5688 98.3484 54.7777C99.5127 55.4345 100.632 55.8973 101.707 56.1659C102.782 56.4048 103.842 56.5242 104.886 56.5242C106.469 56.5242 107.663 56.2406 108.469 55.6734C109.275 55.1061 109.678 54.3449 109.678 53.3896C109.678 52.6134 109.409 52.0163 108.872 51.5983C108.334 51.1505 107.528 50.8072 106.454 50.5684L102.2 49.7176C100.349 49.3295 98.9455 48.6428 97.9902 47.6576C97.0349 46.6725 96.5572 45.4186 96.5572 43.8961C96.5572 42.5228 96.9304 41.3287 97.6767 40.3136C98.4231 39.2986 99.468 38.5224 100.811 37.9851C102.155 37.4178 103.707 37.1342 105.469 37.1342C106.782 37.1342 108.021 37.2984 109.185 37.6268C110.35 37.9552 111.424 38.4478 112.41 39.1046C112.798 39.3136 113.051 39.5972 113.171 39.9554C113.29 40.2838 113.305 40.6122 113.216 40.9406C113.156 41.269 113.007 41.5675 112.768 41.8362C112.529 42.075 112.23 42.2243 111.872 42.284C111.544 42.3138 111.171 42.2243 110.753 42.0153C109.857 41.4481 108.961 41.0451 108.066 40.8062C107.2 40.5674 106.334 40.448 105.469 40.448C103.886 40.448 102.692 40.7465 101.886 41.3436C101.11 41.9108 100.722 42.687 100.722 43.6722C100.722 44.4185 100.961 45.0305 101.438 45.5082C101.916 45.9858 102.662 46.3292 103.677 46.5381L107.931 47.389C109.872 47.7771 111.335 48.4338 112.32 49.3593C113.335 50.2848 113.842 51.5386 113.842 53.1209C113.842 55.1808 113.022 56.8078 111.38 58.0019C109.738 59.1961 107.558 59.7932 104.842 59.7932ZM121.114 59.6588C120.397 59.6588 119.845 59.4498 119.457 59.0319C119.069 58.5841 118.875 57.9721 118.875 57.1959V39.7315C118.875 38.9553 119.069 38.3582 119.457 37.9403C119.845 37.5223 120.397 37.3134 121.114 37.3134C121.83 37.3134 122.383 37.5223 122.771 37.9403C123.189 38.3582 123.398 38.9553 123.398 39.7315V57.1959C123.398 57.9721 123.203 58.5841 122.815 59.0319C122.427 59.4498 121.86 59.6588 121.114 59.6588ZM121.114 32.6562C120.218 32.6562 119.517 32.4323 119.009 31.9845C118.531 31.5367 118.293 30.9097 118.293 30.1037C118.293 29.2678 118.531 28.6409 119.009 28.2229C119.517 27.7751 120.218 27.5512 121.114 27.5512C122.009 27.5512 122.696 27.7751 123.174 28.2229C123.681 28.6409 123.935 29.2678 123.935 30.1037C123.935 30.9097 123.681 31.5367 123.174 31.9845C122.696 32.4323 122.009 32.6562 121.114 32.6562ZM139.257 59.7932C137.048 59.7932 135.137 59.3304 133.525 58.405C131.943 57.4795 130.704 56.1659 129.808 54.4643C128.913 52.7626 128.465 50.7624 128.465 48.4637C128.465 46.7023 128.719 45.135 129.226 43.7617C129.734 42.3885 130.45 41.2093 131.376 40.2241C132.331 39.2091 133.466 38.4478 134.779 37.9403C136.123 37.4029 137.615 37.1342 139.257 37.1342C141.436 37.1342 143.317 37.597 144.9 38.5224C146.512 39.4479 147.765 40.7615 148.661 42.4631C149.557 44.1349 150.004 46.1351 150.004 48.4637C150.004 50.1952 149.751 51.7625 149.243 53.1656C148.736 54.5688 148.004 55.7629 147.049 56.7481C146.124 57.7333 144.989 58.4945 143.646 59.0319C142.332 59.5394 140.869 59.7932 139.257 59.7932ZM139.257 56.3003C140.481 56.3003 141.556 56.0017 142.481 55.4047C143.407 54.8076 144.123 53.9269 144.631 52.7626C145.168 51.5983 145.437 50.1654 145.437 48.4637C145.437 45.8963 144.87 43.9558 143.735 42.6422C142.601 41.3287 141.108 40.6719 139.257 40.6719C138.003 40.6719 136.914 40.9704 135.988 41.5675C135.063 42.1347 134.331 43.0005 133.794 44.1648C133.286 45.3291 133.033 46.762 133.033 48.4637C133.033 51.0013 133.6 52.9417 134.734 54.2852C135.869 55.6286 137.376 56.3003 139.257 56.3003ZM157.323 59.7036C156.606 59.7036 156.054 59.5096 155.666 59.1215C155.278 58.7035 155.084 58.1363 155.084 57.4198V39.5076C155.084 38.7613 155.278 38.194 155.666 37.8059C156.054 37.4178 156.592 37.2238 157.278 37.2238C157.995 37.2238 158.532 37.4178 158.89 37.8059C159.278 38.194 159.472 38.7613 159.472 39.5076V43.0005L158.98 42.1944C159.637 40.5226 160.667 39.2688 162.07 38.4329C163.473 37.5671 165.085 37.1342 166.906 37.1342C168.637 37.1342 170.07 37.4626 171.205 38.1194C172.369 38.7463 173.235 39.7166 173.802 41.0301C174.369 42.3138 174.653 43.9409 174.653 45.9112V57.4198C174.653 58.1363 174.459 58.7035 174.071 59.1215C173.683 59.5096 173.13 59.7036 172.414 59.7036C171.668 59.7036 171.1 59.5096 170.712 59.1215C170.324 58.7035 170.13 58.1363 170.13 57.4198V46.1799C170.13 44.2991 169.757 42.9258 169.011 42.0601C168.294 41.1943 167.16 40.7615 165.607 40.7615C163.786 40.7615 162.323 41.3287 161.219 42.4631C160.144 43.5976 159.607 45.1201 159.607 47.0307V57.4198C159.607 58.9423 158.845 59.7036 157.323 59.7036Z" fill="#F9FBFB"/>
<path d="M25.4745 353.823C25.1812 353.823 24.9545 353.743 24.7945 353.583C24.6345 353.41 24.5545 353.17 24.5545 352.863V340.403C24.5545 340.083 24.6345 339.843 24.7945 339.683C24.9545 339.523 25.1812 339.443 25.4745 339.443C25.7812 339.443 26.0145 339.523 26.1745 339.683C26.3345 339.843 26.4145 340.083 26.4145 340.403V345.743H34.5745V340.403C34.5745 340.083 34.6545 339.843 34.8145 339.683C34.9745 339.523 35.2078 339.443 35.5145 339.443C35.8078 339.443 36.0345 339.523 36.1945 339.683C36.3545 339.843 36.4345 340.083 36.4345 340.403V352.863C36.4345 353.17 36.3545 353.41 36.1945 353.583C36.0345 353.743 35.8078 353.823 35.5145 353.823C35.2078 353.823 34.9745 353.743 34.8145 353.583C34.6545 353.41 34.5745 353.17 34.5745 352.863V347.323H26.4145V352.863C26.4145 353.17 26.3345 353.41 26.1745 353.583C26.0278 353.743 25.7945 353.823 25.4745 353.823ZM44.0879 353.863C43.0346 353.863 42.1279 353.663 41.3679 353.263C40.6213 352.85 40.0413 352.27 39.6279 351.523C39.2146 350.763 39.0079 349.87 39.0079 348.843C39.0079 347.83 39.2079 346.943 39.6079 346.183C40.0213 345.423 40.5813 344.83 41.2879 344.403C42.0079 343.976 42.8279 343.763 43.7479 343.763C44.4013 343.763 44.9879 343.876 45.5079 344.103C46.0413 344.316 46.4946 344.63 46.8679 345.043C47.2413 345.456 47.5213 345.963 47.7079 346.563C47.9079 347.15 48.0079 347.816 48.0079 348.563C48.0079 348.776 47.9413 348.943 47.8079 349.063C47.6879 349.17 47.5079 349.223 47.2679 349.223H40.4279V348.063H46.8079L46.4679 348.343C46.4679 347.65 46.3613 347.063 46.1479 346.583C45.9479 346.09 45.6479 345.716 45.2479 345.463C44.8613 345.21 44.3746 345.083 43.7879 345.083C43.1479 345.083 42.6013 345.236 42.1479 345.543C41.6946 345.836 41.3479 346.256 41.1079 346.803C40.8679 347.336 40.7479 347.956 40.7479 348.663V348.783C40.7479 349.983 41.0346 350.89 41.6079 351.503C42.1813 352.116 43.0079 352.423 44.0879 352.423C44.5146 352.423 44.9479 352.37 45.3879 352.263C45.8413 352.156 46.2746 351.963 46.6879 351.683C46.8879 351.563 47.0679 351.51 47.2279 351.523C47.4013 351.523 47.5413 351.576 47.6479 351.683C47.7546 351.776 47.8213 351.896 47.8479 352.043C47.8746 352.176 47.8546 352.323 47.7879 352.483C47.7213 352.643 47.5946 352.783 47.4079 352.903C46.9679 353.21 46.4413 353.45 45.8279 353.623C45.2279 353.783 44.6479 353.863 44.0879 353.863ZM51.1715 353.823C50.8915 353.823 50.6715 353.743 50.5115 353.583C50.3515 353.423 50.2715 353.19 50.2715 352.883V344.723C50.2715 344.416 50.3515 344.19 50.5115 344.043C50.6715 343.883 50.8915 343.803 51.1715 343.803C51.4515 343.803 51.6649 343.883 51.8115 344.043C51.9715 344.19 52.0515 344.416 52.0515 344.723V346.363L51.8315 346.063C52.1115 345.303 52.5649 344.73 53.1915 344.343C53.8315 343.956 54.5582 343.763 55.3715 343.763C56.1582 343.763 56.8049 343.903 57.3115 344.183C57.8182 344.463 58.1982 344.89 58.4515 345.463C58.7049 346.036 58.8315 346.763 58.8315 347.643V352.883C58.8315 353.19 58.7515 353.423 58.5915 353.583C58.4449 353.743 58.2249 353.823 57.9315 353.823C57.6382 353.823 57.4115 353.743 57.2515 353.583C57.0915 353.423 57.0115 353.19 57.0115 352.883V347.743C57.0115 346.876 56.8449 346.243 56.5115 345.843C56.1782 345.443 55.6449 345.243 54.9115 345.243C54.0582 345.243 53.3715 345.51 52.8515 346.043C52.3449 346.563 52.0915 347.27 52.0915 348.163V352.883C52.0915 353.51 51.7849 353.823 51.1715 353.823ZM65.4368 353.863C64.5835 353.863 63.8302 353.663 63.1768 353.263C62.5368 352.85 62.0368 352.263 61.6768 351.503C61.3168 350.73 61.1368 349.83 61.1368 348.803C61.1368 347.763 61.3102 346.87 61.6568 346.123C62.0168 345.363 62.5168 344.783 63.1568 344.383C63.8102 343.97 64.5702 343.763 65.4368 343.763C66.3035 343.763 67.0502 343.983 67.6768 344.423C68.3035 344.85 68.7235 345.423 68.9368 346.143H68.7168V340.363C68.7168 340.056 68.7902 339.83 68.9368 339.683C69.0968 339.523 69.3235 339.443 69.6168 339.443C69.9102 339.443 70.1368 339.523 70.2968 339.683C70.4568 339.83 70.5368 340.056 70.5368 340.363V352.883C70.5368 353.19 70.4568 353.423 70.2968 353.583C70.1368 353.743 69.9102 353.823 69.6168 353.823C69.3368 353.823 69.1168 353.743 68.9568 353.583C68.7968 353.423 68.7168 353.19 68.7168 352.883V351.063L68.9368 351.423C68.7368 352.17 68.3168 352.763 67.6768 353.203C67.0502 353.643 66.3035 353.863 65.4368 353.863ZM65.8568 352.423C66.4435 352.423 66.9502 352.283 67.3768 352.003C67.8168 351.723 68.1502 351.316 68.3768 350.783C68.6168 350.25 68.7368 349.59 68.7368 348.803C68.7368 347.63 68.4768 346.736 67.9568 346.123C67.4368 345.51 66.7368 345.203 65.8568 345.203C65.2835 345.203 64.7768 345.343 64.3368 345.623C63.9102 345.89 63.5768 346.29 63.3368 346.823C63.0968 347.356 62.9768 348.016 62.9768 348.803C62.9768 349.976 63.2368 350.876 63.7568 351.503C64.2902 352.116 64.9902 352.423 65.8568 352.423ZM74.3951 353.823C74.0885 353.823 73.8551 353.743 73.6951 353.583C73.5351 353.423 73.4551 353.19 73.4551 352.883V344.723C73.4551 344.416 73.5351 344.19 73.6951 344.043C73.8551 343.883 74.0751 343.803 74.3551 343.803C74.6351 343.803 74.8485 343.883 74.9951 344.043C75.1551 344.19 75.2351 344.416 75.2351 344.723V346.263H75.0351C75.2485 345.463 75.6485 344.856 76.2351 344.443C76.8218 344.03 77.5618 343.796 78.4551 343.743C78.6685 343.73 78.8418 343.783 78.9751 343.903C79.1085 344.01 79.1818 344.196 79.1951 344.463C79.2085 344.716 79.1485 344.923 79.0151 345.083C78.8818 345.23 78.6751 345.316 78.3951 345.343L78.0351 345.363C77.1551 345.456 76.4751 345.743 75.9951 346.223C75.5285 346.703 75.2951 347.363 75.2951 348.203V352.883C75.2951 353.19 75.2151 353.423 75.0551 353.583C74.9085 353.743 74.6885 353.823 74.3951 353.823ZM85.1231 353.863C84.0698 353.863 83.1631 353.663 82.4031 353.263C81.6564 352.85 81.0764 352.27 80.6631 351.523C80.2498 350.763 80.0431 349.87 80.0431 348.843C80.0431 347.83 80.2431 346.943 80.6431 346.183C81.0564 345.423 81.6164 344.83 82.3231 344.403C83.0431 343.976 83.8631 343.763 84.7831 343.763C85.4364 343.763 86.0231 343.876 86.5431 344.103C87.0764 344.316 87.5298 344.63 87.9031 345.043C88.2764 345.456 88.5564 345.963 88.7431 346.563C88.9431 347.15 89.0431 347.816 89.0431 348.563C89.0431 348.776 88.9764 348.943 88.8431 349.063C88.7231 349.17 88.5431 349.223 88.3031 349.223H81.4631V348.063H87.8431L87.5031 348.343C87.5031 347.65 87.3964 347.063 87.1831 346.583C86.9831 346.09 86.6831 345.716 86.2831 345.463C85.8964 345.21 85.4098 345.083 84.8231 345.083C84.1831 345.083 83.6364 345.236 83.1831 345.543C82.7298 345.836 82.3831 346.256 82.1431 346.803C81.9031 347.336 81.7831 347.956 81.7831 348.663V348.783C81.7831 349.983 82.0698 350.89 82.6431 351.503C83.2164 352.116 84.0431 352.423 85.1231 352.423C85.5498 352.423 85.9831 352.37 86.4231 352.263C86.8764 352.156 87.3098 351.963 87.7231 351.683C87.9231 351.563 88.1031 351.51 88.2631 351.523C88.4364 351.523 88.5764 351.576 88.6831 351.683C88.7898 351.776 88.8564 351.896 88.8831 352.043C88.9098 352.176 88.8898 352.323 88.8231 352.483C88.7564 352.643 88.6298 352.783 88.4431 352.903C88.0031 353.21 87.4764 353.45 86.8631 353.623C86.2631 353.783 85.6831 353.863 85.1231 353.863ZM92.2467 353.823C91.94 353.823 91.7067 353.743 91.5467 353.583C91.3867 353.423 91.3067 353.19 91.3067 352.883V344.723C91.3067 344.416 91.3867 344.19 91.5467 344.043C91.7067 343.883 91.9267 343.803 92.2067 343.803C92.4867 343.803 92.7 343.883 92.8467 344.043C93.0067 344.19 93.0867 344.416 93.0867 344.723V346.263H92.8867C93.1 345.463 93.5 344.856 94.0867 344.443C94.6733 344.03 95.4133 343.796 96.3067 343.743C96.52 343.73 96.6933 343.783 96.8267 343.903C96.96 344.01 97.0333 344.196 97.0467 344.463C97.06 344.716 97 344.923 96.8667 345.083C96.7333 345.23 96.5267 345.316 96.2467 345.343L95.8867 345.363C95.0067 345.456 94.3267 345.743 93.8467 346.223C93.38 346.703 93.1467 347.363 93.1467 348.203V352.883C93.1467 353.19 93.0667 353.423 92.9067 353.583C92.76 353.743 92.54 353.823 92.2467 353.823ZM99.5114 353.783C99.2314 353.783 99.0114 353.696 98.8514 353.523C98.6914 353.35 98.6114 353.11 98.6114 352.803V344.823C98.6114 344.503 98.6914 344.263 98.8514 344.103C99.0114 343.93 99.2314 343.843 99.5114 343.843C99.8047 343.843 100.031 343.93 100.191 344.103C100.351 344.263 100.431 344.503 100.431 344.823V352.803C100.431 353.11 100.351 353.35 100.191 353.523C100.045 353.696 99.818 353.783 99.5114 353.783ZM99.5114 341.683C99.1514 341.683 98.8647 341.59 98.6514 341.403C98.4514 341.203 98.3514 340.943 98.3514 340.623C98.3514 340.276 98.4514 340.016 98.6514 339.843C98.8647 339.656 99.1514 339.563 99.5114 339.563C99.898 339.563 100.185 339.656 100.371 339.843C100.571 340.016 100.671 340.276 100.671 340.623C100.671 340.943 100.571 341.203 100.371 341.403C100.185 341.59 99.898 341.683 99.5114 341.683ZM107.397 353.863C106.611 353.863 105.951 353.723 105.417 353.443C104.897 353.163 104.504 352.756 104.237 352.223C103.984 351.69 103.857 351.036 103.857 350.263V345.343H102.577C102.337 345.343 102.151 345.283 102.017 345.163C101.884 345.03 101.817 344.856 101.817 344.643C101.817 344.416 101.884 344.243 102.017 344.123C102.151 344.003 102.337 343.943 102.577 343.943H103.857V341.763C103.857 341.456 103.937 341.23 104.097 341.083C104.257 340.923 104.484 340.843 104.777 340.843C105.071 340.843 105.291 340.923 105.437 341.083C105.597 341.23 105.677 341.456 105.677 341.763V343.943H108.097C108.351 343.943 108.544 344.003 108.677 344.123C108.811 344.243 108.877 344.416 108.877 344.643C108.877 344.856 108.811 345.03 108.677 345.163C108.544 345.283 108.351 345.343 108.097 345.343H105.677V350.103C105.677 350.836 105.831 351.39 106.137 351.763C106.444 352.136 106.951 352.323 107.657 352.323C107.911 352.323 108.124 352.303 108.297 352.263C108.471 352.21 108.624 352.183 108.757 352.183C108.877 352.17 108.977 352.21 109.057 352.303C109.151 352.396 109.197 352.57 109.197 352.823C109.197 353.01 109.164 353.183 109.097 353.343C109.044 353.49 108.931 353.59 108.757 353.643C108.597 353.696 108.384 353.743 108.117 353.783C107.851 353.836 107.611 353.863 107.397 353.863ZM119.46 353.863C118.607 353.863 117.854 353.663 117.2 353.263C116.56 352.85 116.06 352.263 115.7 351.503C115.34 350.73 115.16 349.83 115.16 348.803C115.16 347.763 115.334 346.87 115.68 346.123C116.04 345.363 116.54 344.783 117.18 344.383C117.834 343.97 118.594 343.763 119.46 343.763C120.327 343.763 121.074 343.983 121.7 344.423C122.327 344.85 122.747 345.423 122.96 346.143H122.74V340.363C122.74 340.056 122.814 339.83 122.96 339.683C123.12 339.523 123.347 339.443 123.64 339.443C123.934 339.443 124.16 339.523 124.32 339.683C124.48 339.83 124.56 340.056 124.56 340.363V352.883C124.56 353.19 124.48 353.423 124.32 353.583C124.16 353.743 123.934 353.823 123.64 353.823C123.36 353.823 123.14 353.743 122.98 353.583C122.82 353.423 122.74 353.19 122.74 352.883V351.063L122.96 351.423C122.76 352.17 122.34 352.763 121.7 353.203C121.074 353.643 120.327 353.863 119.46 353.863ZM119.88 352.423C120.467 352.423 120.974 352.283 121.4 352.003C121.84 351.723 122.174 351.316 122.4 350.783C122.64 350.25 122.76 349.59 122.76 348.803C122.76 347.63 122.5 346.736 121.98 346.123C121.46 345.51 120.76 345.203 119.88 345.203C119.307 345.203 118.8 345.343 118.36 345.623C117.934 345.89 117.6 346.29 117.36 346.823C117.12 347.356 117 348.016 117 348.803C117 349.976 117.26 350.876 117.78 351.503C118.314 352.116 119.014 352.423 119.88 352.423ZM131.619 353.863C130.659 353.863 129.825 353.656 129.119 353.243C128.412 352.83 127.865 352.243 127.479 351.483C127.092 350.723 126.899 349.83 126.899 348.803C126.899 348.03 127.005 347.336 127.219 346.723C127.445 346.096 127.765 345.563 128.179 345.123C128.592 344.683 129.085 344.35 129.659 344.123C130.245 343.883 130.899 343.763 131.619 343.763C132.579 343.763 133.412 343.97 134.119 344.383C134.825 344.796 135.372 345.383 135.759 346.143C136.145 346.89 136.339 347.776 136.339 348.803C136.339 349.576 136.225 350.276 135.999 350.903C135.785 351.53 135.472 352.063 135.059 352.503C134.645 352.943 134.145 353.283 133.559 353.523C132.985 353.75 132.339 353.863 131.619 353.863ZM131.619 352.423C132.205 352.423 132.712 352.283 133.139 352.003C133.579 351.723 133.912 351.316 134.139 350.783C134.379 350.25 134.499 349.59 134.499 348.803C134.499 347.63 134.239 346.736 133.719 346.123C133.199 345.51 132.499 345.203 131.619 345.203C131.045 345.203 130.539 345.343 130.099 345.623C129.672 345.89 129.339 346.29 129.099 346.823C128.859 347.356 128.739 348.016 128.739 348.803C128.739 349.976 128.999 350.876 129.519 351.503C130.052 352.116 130.752 352.423 131.619 352.423ZM139.57 353.823C139.29 353.823 139.07 353.743 138.91 353.583C138.75 353.423 138.67 353.19 138.67 352.883V344.723C138.67 344.416 138.75 344.19 138.91 344.043C139.07 343.883 139.29 343.803 139.57 343.803C139.85 343.803 140.063 343.883 140.21 344.043C140.37 344.19 140.45 344.416 140.45 344.723V346.363L140.23 346.063C140.51 345.303 140.963 344.73 141.59 344.343C142.23 343.956 142.957 343.763 143.77 343.763C144.557 343.763 145.203 343.903 145.71 344.183C146.217 344.463 146.597 344.89 146.85 345.463C147.103 346.036 147.23 346.763 147.23 347.643V352.883C147.23 353.19 147.15 353.423 146.99 353.583C146.843 353.743 146.623 353.823 146.33 353.823C146.037 353.823 145.81 353.743 145.65 353.583C145.49 353.423 145.41 353.19 145.41 352.883V347.743C145.41 346.876 145.243 346.243 144.91 345.843C144.577 345.443 144.043 345.243 143.31 345.243C142.457 345.243 141.77 345.51 141.25 346.043C140.743 346.563 140.49 347.27 140.49 348.163V352.883C140.49 353.51 140.183 353.823 139.57 353.823ZM154.615 353.863C153.562 353.863 152.655 353.663 151.895 353.263C151.149 352.85 150.569 352.27 150.155 351.523C149.742 350.763 149.535 349.87 149.535 348.843C149.535 347.83 149.735 346.943 150.135 346.183C150.549 345.423 151.109 344.83 151.815 344.403C152.535 343.976 153.355 343.763 154.275 343.763C154.929 343.763 155.515 343.876 156.035 344.103C156.569 344.316 157.022 344.63 157.395 345.043C157.769 345.456 158.049 345.963 158.235 346.563C158.435 347.15 158.535 347.816 158.535 348.563C158.535 348.776 158.469 348.943 158.335 349.063C158.215 349.17 158.035 349.223 157.795 349.223H150.955V348.063H157.335L156.995 348.343C156.995 347.65 156.889 347.063 156.675 346.583C156.475 346.09 156.175 345.716 155.775 345.463C155.389 345.21 154.902 345.083 154.315 345.083C153.675 345.083 153.129 345.236 152.675 345.543C152.222 345.836 151.875 346.256 151.635 346.803C151.395 347.336 151.275 347.956 151.275 348.663V348.783C151.275 349.983 151.562 350.89 152.135 351.503C152.709 352.116 153.535 352.423 154.615 352.423C155.042 352.423 155.475 352.37 155.915 352.263C156.369 352.156 156.802 351.963 157.215 351.683C157.415 351.563 157.595 351.51 157.755 351.523C157.929 351.523 158.069 351.576 158.175 351.683C158.282 351.776 158.349 351.896 158.375 352.043C158.402 352.176 158.382 352.323 158.315 352.483C158.249 352.643 158.122 352.783 157.935 352.903C157.495 353.21 156.969 353.45 156.355 353.623C155.755 353.783 155.175 353.863 154.615 353.863ZM165.019 353.863C164.032 353.863 163.179 353.656 162.459 353.243C161.739 352.816 161.186 352.223 160.799 351.463C160.412 350.69 160.219 349.783 160.219 348.743C160.219 347.97 160.326 347.276 160.539 346.663C160.766 346.05 161.086 345.53 161.499 345.103C161.912 344.663 162.412 344.33 162.999 344.103C163.599 343.876 164.272 343.763 165.019 343.763C165.486 343.763 165.979 343.836 166.499 343.983C167.019 344.13 167.499 344.37 167.939 344.703C168.086 344.81 168.179 344.936 168.219 345.083C168.259 345.216 168.259 345.356 168.219 345.503C168.192 345.65 168.126 345.776 168.019 345.883C167.926 345.976 167.799 346.03 167.639 346.043C167.492 346.056 167.332 346.01 167.159 345.903C166.839 345.663 166.499 345.49 166.139 345.383C165.792 345.276 165.459 345.223 165.139 345.223C164.646 345.223 164.206 345.303 163.819 345.463C163.446 345.623 163.126 345.856 162.859 346.163C162.606 346.456 162.412 346.823 162.279 347.263C162.146 347.69 162.079 348.19 162.079 348.763C162.079 349.896 162.346 350.79 162.879 351.443C163.412 352.083 164.166 352.403 165.139 352.403C165.459 352.403 165.792 352.356 166.139 352.263C166.486 352.156 166.826 351.983 167.159 351.743C167.332 351.636 167.492 351.596 167.639 351.623C167.786 351.636 167.906 351.696 167.999 351.803C168.106 351.896 168.172 352.016 168.199 352.163C168.226 352.296 168.212 352.436 168.159 352.583C168.119 352.73 168.026 352.85 167.879 352.943C167.452 353.263 166.986 353.496 166.479 353.643C165.972 353.79 165.486 353.863 165.019 353.863ZM176.791 353.823C176.497 353.823 176.271 353.743 176.111 353.583C175.951 353.423 175.871 353.19 175.871 352.883V345.343H174.671C174.431 345.343 174.244 345.283 174.111 345.163C173.977 345.03 173.911 344.856 173.911 344.643C173.911 344.416 173.977 344.243 174.111 344.123C174.244 344.003 174.431 343.943 174.671 343.943H176.371L175.871 344.423V343.683C175.871 342.39 176.184 341.41 176.811 340.743C177.451 340.063 178.384 339.67 179.611 339.563L180.231 339.523C180.431 339.496 180.591 339.53 180.711 339.623C180.831 339.703 180.911 339.81 180.951 339.943C180.991 340.076 180.991 340.216 180.951 340.363C180.924 340.496 180.864 340.616 180.771 340.723C180.677 340.83 180.557 340.89 180.411 340.903L179.971 340.923C179.171 340.99 178.591 341.23 178.231 341.643C177.871 342.043 177.691 342.643 177.691 343.443V344.243L177.431 343.943H179.731C179.984 343.943 180.177 344.003 180.311 344.123C180.444 344.243 180.511 344.416 180.511 344.643C180.511 344.856 180.444 345.03 180.311 345.163C180.177 345.283 179.984 345.343 179.731 345.343H177.691V352.883C177.691 353.51 177.391 353.823 176.791 353.823ZM185.587 353.863C184.801 353.863 184.141 353.716 183.607 353.423C183.087 353.13 182.701 352.696 182.447 352.123C182.194 351.55 182.067 350.83 182.067 349.963V344.723C182.067 344.416 182.141 344.19 182.287 344.043C182.447 343.883 182.674 343.803 182.967 343.803C183.261 343.803 183.487 343.883 183.647 344.043C183.807 344.19 183.887 344.416 183.887 344.723V349.963C183.887 350.79 184.054 351.403 184.387 351.803C184.721 352.19 185.247 352.383 185.967 352.383C186.767 352.383 187.414 352.116 187.907 351.583C188.414 351.05 188.667 350.343 188.667 349.463V344.723C188.667 344.416 188.741 344.19 188.887 344.043C189.047 343.883 189.274 343.803 189.567 343.803C189.861 343.803 190.087 343.883 190.247 344.043C190.407 344.19 190.487 344.416 190.487 344.723V352.883C190.487 353.51 190.194 353.823 189.607 353.823C189.314 353.823 189.087 353.743 188.927 353.583C188.781 353.423 188.707 353.19 188.707 352.883V351.143L188.967 351.483C188.701 352.256 188.267 352.85 187.667 353.263C187.081 353.663 186.387 353.863 185.587 353.863ZM196.776 353.863C196.176 353.863 195.569 353.796 194.956 353.663C194.356 353.516 193.789 353.27 193.256 352.923C193.109 352.83 193.003 352.716 192.936 352.583C192.883 352.436 192.863 352.296 192.876 352.163C192.903 352.016 192.963 351.89 193.056 351.783C193.149 351.676 193.263 351.616 193.396 351.603C193.543 351.576 193.696 351.61 193.856 351.703C194.376 351.996 194.876 352.203 195.356 352.323C195.849 352.443 196.336 352.503 196.816 352.503C197.549 352.503 198.103 352.37 198.476 352.103C198.849 351.836 199.036 351.483 199.036 351.043C199.036 350.67 198.909 350.383 198.656 350.183C198.416 349.97 198.036 349.81 197.516 349.703L195.656 349.323C194.829 349.136 194.203 348.83 193.776 348.403C193.363 347.963 193.156 347.403 193.156 346.723C193.156 346.123 193.316 345.603 193.636 345.163C193.969 344.71 194.429 344.363 195.016 344.123C195.603 343.883 196.276 343.763 197.036 343.763C197.623 343.763 198.176 343.843 198.696 344.003C199.229 344.15 199.709 344.376 200.136 344.683C200.296 344.776 200.396 344.896 200.436 345.043C200.489 345.176 200.496 345.316 200.456 345.463C200.429 345.596 200.369 345.71 200.276 345.803C200.183 345.896 200.063 345.956 199.916 345.983C199.769 345.996 199.609 345.956 199.436 345.863C199.049 345.596 198.649 345.41 198.236 345.303C197.836 345.183 197.436 345.123 197.036 345.123C196.316 345.123 195.769 345.263 195.396 345.543C195.036 345.823 194.856 346.19 194.856 346.643C194.856 346.99 194.963 347.276 195.176 347.503C195.403 347.73 195.756 347.896 196.236 348.003L198.096 348.383C198.963 348.57 199.616 348.87 200.056 349.283C200.496 349.683 200.716 350.23 200.716 350.923C200.716 351.83 200.356 352.55 199.636 353.083C198.929 353.603 197.976 353.863 196.776 353.863ZM207.304 353.863C206.317 353.863 205.464 353.656 204.744 353.243C204.024 352.816 203.471 352.223 203.084 351.463C202.697 350.69 202.504 349.783 202.504 348.743C202.504 347.97 202.611 347.276 202.824 346.663C203.051 346.05 203.371 345.53 203.784 345.103C204.197 344.663 204.697 344.33 205.284 344.103C205.884 343.876 206.557 343.763 207.304 343.763C207.771 343.763 208.264 343.836 208.784 343.983C209.304 344.13 209.784 344.37 210.224 344.703C210.371 344.81 210.464 344.936 210.504 345.083C210.544 345.216 210.544 345.356 210.504 345.503C210.477 345.65 210.411 345.776 210.304 345.883C210.211 345.976 210.084 346.03 209.924 346.043C209.777 346.056 209.617 346.01 209.444 345.903C209.124 345.663 208.784 345.49 208.424 345.383C208.077 345.276 207.744 345.223 207.424 345.223C206.931 345.223 206.491 345.303 206.104 345.463C205.731 345.623 205.411 345.856 205.144 346.163C204.891 346.456 204.697 346.823 204.564 347.263C204.431 347.69 204.364 348.19 204.364 348.763C204.364 349.896 204.631 350.79 205.164 351.443C205.697 352.083 206.451 352.403 207.424 352.403C207.744 352.403 208.077 352.356 208.424 352.263C208.771 352.156 209.111 351.983 209.444 351.743C209.617 351.636 209.777 351.596 209.924 351.623C210.071 351.636 210.191 351.696 210.284 351.803C210.391 351.896 210.457 352.016 210.484 352.163C210.511 352.296 210.497 352.436 210.444 352.583C210.404 352.73 210.311 352.85 210.164 352.943C209.737 353.263 209.271 353.496 208.764 353.643C208.257 353.79 207.771 353.863 207.304 353.863ZM216.686 353.863C215.632 353.863 214.726 353.663 213.966 353.263C213.219 352.85 212.639 352.27 212.226 351.523C211.812 350.763 211.606 349.87 211.606 348.843C211.606 347.83 211.806 346.943 212.206 346.183C212.619 345.423 213.179 344.83 213.886 344.403C214.606 343.976 215.426 343.763 216.346 343.763C216.999 343.763 217.586 343.876 218.106 344.103C218.639 344.316 219.092 344.63 219.466 345.043C219.839 345.456 220.119 345.963 220.306 346.563C220.506 347.15 220.606 347.816 220.606 348.563C220.606 348.776 220.539 348.943 220.406 349.063C220.286 349.17 220.106 349.223 219.866 349.223H213.026V348.063H219.406L219.066 348.343C219.066 347.65 218.959 347.063 218.746 346.583C218.546 346.09 218.246 345.716 217.846 345.463C217.459 345.21 216.972 345.083 216.386 345.083C215.746 345.083 215.199 345.236 214.746 345.543C214.292 345.836 213.946 346.256 213.706 346.803C213.466 347.336 213.346 347.956 213.346 348.663V348.783C213.346 349.983 213.632 350.89 214.206 351.503C214.779 352.116 215.606 352.423 216.686 352.423C217.112 352.423 217.546 352.37 217.986 352.263C218.439 352.156 218.872 351.963 219.286 351.683C219.486 351.563 219.666 351.51 219.826 351.523C219.999 351.523 220.139 351.576 220.246 351.683C220.352 351.776 220.419 351.896 220.446 352.043C220.472 352.176 220.452 352.323 220.386 352.483C220.319 352.643 220.192 352.783 220.006 352.903C219.566 353.21 219.039 353.45 218.426 353.623C217.826 353.783 217.246 353.863 216.686 353.863ZM231.184 353.863C230.517 353.863 229.911 353.73 229.364 353.463C228.831 353.196 228.411 352.836 228.104 352.383C227.811 351.93 227.664 351.423 227.664 350.863C227.664 350.143 227.844 349.576 228.204 349.163C228.564 348.75 229.171 348.456 230.024 348.283C230.877 348.096 232.024 348.003 233.464 348.003H234.404V349.163H233.504C232.477 349.163 231.664 349.21 231.064 349.303C230.477 349.396 230.064 349.563 229.824 349.803C229.584 350.03 229.464 350.35 229.464 350.763C229.464 351.283 229.644 351.71 230.004 352.043C230.377 352.376 230.884 352.543 231.524 352.543C232.031 352.543 232.477 352.423 232.864 352.183C233.251 351.93 233.557 351.596 233.784 351.183C234.011 350.756 234.124 350.27 234.124 349.723V347.423C234.124 346.636 233.964 346.07 233.644 345.723C233.324 345.363 232.784 345.183 232.024 345.183C231.584 345.183 231.131 345.243 230.664 345.363C230.197 345.483 229.711 345.67 229.204 345.923C229.004 346.016 228.831 346.05 228.684 346.023C228.537 345.983 228.417 345.903 228.324 345.783C228.244 345.65 228.197 345.51 228.184 345.363C228.184 345.203 228.217 345.05 228.284 344.903C228.364 344.756 228.497 344.65 228.684 344.583C229.271 344.29 229.851 344.083 230.424 343.963C231.011 343.83 231.557 343.763 232.064 343.763C232.931 343.763 233.644 343.903 234.204 344.183C234.764 344.45 235.184 344.87 235.464 345.443C235.744 346.003 235.884 346.723 235.884 347.603V352.883C235.884 353.19 235.811 353.423 235.664 353.583C235.517 353.743 235.304 353.823 235.024 353.823C234.757 353.823 234.544 353.743 234.384 353.583C234.237 353.423 234.164 353.19 234.164 352.883V351.463H234.344C234.237 351.956 234.037 352.383 233.744 352.743C233.451 353.103 233.084 353.383 232.644 353.583C232.217 353.77 231.731 353.863 231.184 353.863ZM242.968 353.863C241.981 353.863 241.128 353.656 240.408 353.243C239.688 352.816 239.135 352.223 238.748 351.463C238.361 350.69 238.168 349.783 238.168 348.743C238.168 347.97 238.275 347.276 238.488 346.663C238.715 346.05 239.035 345.53 239.448 345.103C239.861 344.663 240.361 344.33 240.948 344.103C241.548 343.876 242.221 343.763 242.968 343.763C243.435 343.763 243.928 343.836 244.448 343.983C244.968 344.13 245.448 344.37 245.888 344.703C246.035 344.81 246.128 344.936 246.168 345.083C246.208 345.216 246.208 345.356 246.168 345.503C246.141 345.65 246.075 345.776 245.968 345.883C245.875 345.976 245.748 346.03 245.588 346.043C245.441 346.056 245.281 346.01 245.108 345.903C244.788 345.663 244.448 345.49 244.088 345.383C243.741 345.276 243.408 345.223 243.088 345.223C242.595 345.223 242.155 345.303 241.768 345.463C241.395 345.623 241.075 345.856 240.808 346.163C240.555 346.456 240.361 346.823 240.228 347.263C240.095 347.69 240.028 348.19 240.028 348.763C240.028 349.896 240.295 350.79 240.828 351.443C241.361 352.083 242.115 352.403 243.088 352.403C243.408 352.403 243.741 352.356 244.088 352.263C244.435 352.156 244.775 351.983 245.108 351.743C245.281 351.636 245.441 351.596 245.588 351.623C245.735 351.636 245.855 351.696 245.948 351.803C246.055 351.896 246.121 352.016 246.148 352.163C246.175 352.296 246.161 352.436 246.108 352.583C246.068 352.73 245.975 352.85 245.828 352.943C245.401 353.263 244.935 353.496 244.428 353.643C243.921 353.79 243.435 353.863 242.968 353.863ZM28.4545 383.863C27.4945 383.863 26.6612 383.656 25.9545 383.243C25.2478 382.83 24.7012 382.243 24.3145 381.483C23.9278 380.723 23.7345 379.83 23.7345 378.803C23.7345 378.03 23.8412 377.336 24.0545 376.723C24.2812 376.096 24.6012 375.563 25.0145 375.123C25.4278 374.683 25.9212 374.35 26.4945 374.123C27.0812 373.883 27.7345 373.763 28.4545 373.763C29.4145 373.763 30.2478 373.97 30.9545 374.383C31.6612 374.796 32.2078 375.383 32.5945 376.143C32.9812 376.89 33.1745 377.776 33.1745 378.803C33.1745 379.576 33.0612 380.276 32.8345 380.903C32.6212 381.53 32.3078 382.063 31.8945 382.503C31.4812 382.943 30.9812 383.283 30.3945 383.523C29.8212 383.75 29.1745 383.863 28.4545 383.863ZM28.4545 382.423C29.0412 382.423 29.5478 382.283 29.9745 382.003C30.4145 381.723 30.7478 381.316 30.9745 380.783C31.2145 380.25 31.3345 379.59 31.3345 378.803C31.3345 377.63 31.0745 376.736 30.5545 376.123C30.0345 375.51 29.3345 375.203 28.4545 375.203C27.8812 375.203 27.3745 375.343 26.9345 375.623C26.5078 375.89 26.1745 376.29 25.9345 376.823C25.6945 377.356 25.5745 378.016 25.5745 378.803C25.5745 379.976 25.8345 380.876 26.3545 381.503C26.8878 382.116 27.5878 382.423 28.4545 382.423ZM36.4459 383.823C36.1392 383.823 35.9059 383.743 35.7459 383.583C35.5859 383.423 35.5059 383.19 35.5059 382.883V374.723C35.5059 374.416 35.5859 374.19 35.7459 374.043C35.9059 373.883 36.1259 373.803 36.4059 373.803C36.6859 373.803 36.8992 373.883 37.0459 374.043C37.2059 374.19 37.2859 374.416 37.2859 374.723V376.263H37.0859C37.2992 375.463 37.6992 374.856 38.2859 374.443C38.8726 374.03 39.6126 373.796 40.5059 373.743C40.7192 373.73 40.8926 373.783 41.0259 373.903C41.1592 374.01 41.2326 374.196 41.2459 374.463C41.2592 374.716 41.1992 374.923 41.0659 375.083C40.9326 375.23 40.7259 375.316 40.4459 375.343L40.0859 375.363C39.2059 375.456 38.5259 375.743 38.0459 376.223C37.5792 376.703 37.3459 377.363 37.3459 378.203V382.883C37.3459 383.19 37.2659 383.423 37.1059 383.583C36.9592 383.743 36.7392 383.823 36.4459 383.823ZM47.1739 383.863C46.1205 383.863 45.2139 383.663 44.4539 383.263C43.7072 382.85 43.1272 382.27 42.7139 381.523C42.3005 380.763 42.0939 379.87 42.0939 378.843C42.0939 377.83 42.2939 376.943 42.6939 376.183C43.1072 375.423 43.6672 374.83 44.3739 374.403C45.0939 373.976 45.9139 373.763 46.8339 373.763C47.4872 373.763 48.0739 373.876 48.5939 374.103C49.1272 374.316 49.5805 374.63 49.9539 375.043C50.3272 375.456 50.6072 375.963 50.7939 376.563C50.9939 377.15 51.0939 377.816 51.0939 378.563C51.0939 378.776 51.0272 378.943 50.8939 379.063C50.7739 379.17 50.5939 379.223 50.3539 379.223H43.5139V378.063H49.8939L49.5539 378.343C49.5539 377.65 49.4472 377.063 49.2339 376.583C49.0339 376.09 48.7339 375.716 48.3339 375.463C47.9472 375.21 47.4605 375.083 46.8739 375.083C46.2339 375.083 45.6872 375.236 45.2339 375.543C44.7805 375.836 44.4339 376.256 44.1939 376.803C43.9539 377.336 43.8339 377.956 43.8339 378.663V378.783C43.8339 379.983 44.1205 380.89 44.6939 381.503C45.2672 382.116 46.0939 382.423 47.1739 382.423C47.6005 382.423 48.0339 382.37 48.4739 382.263C48.9272 382.156 49.3605 381.963 49.7739 381.683C49.9739 381.563 50.1539 381.51 50.3139 381.523C50.4872 381.523 50.6272 381.576 50.7339 381.683C50.8405 381.776 50.9072 381.896 50.9339 382.043C50.9605 382.176 50.9405 382.323 50.8739 382.483C50.8072 382.643 50.6805 382.783 50.4939 382.903C50.0539 383.21 49.5272 383.45 48.9139 383.623C48.3139 383.783 47.7339 383.863 47.1739 383.863ZM62.7923 383.863C61.8056 383.863 60.9523 383.656 60.2323 383.243C59.5123 382.816 58.959 382.223 58.5723 381.463C58.1856 380.69 57.9923 379.783 57.9923 378.743C57.9923 377.97 58.099 377.276 58.3123 376.663C58.539 376.05 58.859 375.53 59.2723 375.103C59.6856 374.663 60.1856 374.33 60.7723 374.103C61.3723 373.876 62.0456 373.763 62.7923 373.763C63.259 373.763 63.7523 373.836 64.2723 373.983C64.7923 374.13 65.2723 374.37 65.7123 374.703C65.859 374.81 65.9523 374.936 65.9923 375.083C66.0323 375.216 66.0323 375.356 65.9923 375.503C65.9656 375.65 65.899 375.776 65.7923 375.883C65.699 375.976 65.5723 376.03 65.4123 376.043C65.2656 376.056 65.1056 376.01 64.9323 375.903C64.6123 375.663 64.2723 375.49 63.9123 375.383C63.5656 375.276 63.2323 375.223 62.9123 375.223C62.419 375.223 61.979 375.303 61.5923 375.463C61.219 375.623 60.899 375.856 60.6323 376.163C60.379 376.456 60.1856 376.823 60.0523 377.263C59.919 377.69 59.8523 378.19 59.8523 378.763C59.8523 379.896 60.119 380.79 60.6523 381.443C61.1856 382.083 61.939 382.403 62.9123 382.403C63.2323 382.403 63.5656 382.356 63.9123 382.263C64.259 382.156 64.599 381.983 64.9323 381.743C65.1056 381.636 65.2656 381.596 65.4123 381.623C65.559 381.636 65.679 381.696 65.7723 381.803C65.879 381.896 65.9456 382.016 65.9723 382.163C65.999 382.296 65.9856 382.436 65.9323 382.583C65.8923 382.73 65.799 382.85 65.6523 382.943C65.2256 383.263 64.759 383.496 64.2523 383.643C63.7456 383.79 63.259 383.863 62.7923 383.863ZM71.8139 383.863C70.8539 383.863 70.0205 383.656 69.3139 383.243C68.6072 382.83 68.0605 382.243 67.6739 381.483C67.2872 380.723 67.0939 379.83 67.0939 378.803C67.0939 378.03 67.2005 377.336 67.4139 376.723C67.6405 376.096 67.9605 375.563 68.3739 375.123C68.7872 374.683 69.2805 374.35 69.8539 374.123C70.4405 373.883 71.0939 373.763 71.8139 373.763C72.7739 373.763 73.6072 373.97 74.3139 374.383C75.0205 374.796 75.5672 375.383 75.9539 376.143C76.3405 376.89 76.5339 377.776 76.5339 378.803C76.5339 379.576 76.4205 380.276 76.1939 380.903C75.9805 381.53 75.6672 382.063 75.2539 382.503C74.8405 382.943 74.3405 383.283 73.7539 383.523C73.1805 383.75 72.5339 383.863 71.8139 383.863ZM71.8139 382.423C72.4005 382.423 72.9072 382.283 73.3339 382.003C73.7739 381.723 74.1072 381.316 74.3339 380.783C74.5739 380.25 74.6939 379.59 74.6939 378.803C74.6939 377.63 74.4339 376.736 73.9139 376.123C73.3939 375.51 72.6939 375.203 71.8139 375.203C71.2405 375.203 70.7339 375.343 70.2939 375.623C69.8672 375.89 69.5339 376.29 69.2939 376.823C69.0539 377.356 68.9339 378.016 68.9339 378.803C68.9339 379.976 69.1939 380.876 69.7139 381.503C70.2472 382.116 70.9472 382.423 71.8139 382.423ZM79.7653 383.823C79.4853 383.823 79.2653 383.743 79.1053 383.583C78.9453 383.423 78.8653 383.19 78.8653 382.883V374.723C78.8653 374.416 78.9453 374.19 79.1053 374.043C79.2653 373.883 79.4853 373.803 79.7653 373.803C80.0453 373.803 80.2586 373.883 80.4053 374.043C80.5653 374.19 80.6453 374.416 80.6453 374.723V376.363L80.4253 376.063C80.7053 375.303 81.1586 374.73 81.7853 374.343C82.4253 373.956 83.1519 373.763 83.9653 373.763C84.7519 373.763 85.3986 373.903 85.9053 374.183C86.4119 374.463 86.7919 374.89 87.0453 375.463C87.2986 376.036 87.4253 376.763 87.4253 377.643V382.883C87.4253 383.19 87.3453 383.423 87.1853 383.583C87.0386 383.743 86.8186 383.823 86.5253 383.823C86.2319 383.823 86.0053 383.743 85.8453 383.583C85.6853 383.423 85.6053 383.19 85.6053 382.883V377.743C85.6053 376.876 85.4386 376.243 85.1053 375.843C84.7719 375.443 84.2386 375.243 83.5053 375.243C82.6519 375.243 81.9653 375.51 81.4453 376.043C80.9386 376.563 80.6853 377.27 80.6853 378.163V382.883C80.6853 383.51 80.3786 383.823 79.7653 383.823ZM93.9129 383.823C93.6596 383.823 93.4396 383.756 93.2529 383.623C93.0663 383.49 92.9063 383.276 92.7729 382.983L89.3729 375.063C89.2796 374.836 89.2463 374.63 89.2729 374.443C89.2996 374.256 89.3863 374.103 89.5329 373.983C89.6929 373.863 89.9063 373.803 90.1729 373.803C90.3996 373.803 90.5796 373.856 90.7129 373.963C90.8463 374.07 90.9729 374.256 91.0929 374.523L94.2329 382.263H93.6729L96.8929 374.523C96.9996 374.256 97.1196 374.07 97.2529 373.963C97.3996 373.856 97.5996 373.803 97.8529 373.803C98.0796 373.803 98.2529 373.863 98.3729 373.983C98.5063 374.103 98.5863 374.256 98.6129 374.443C98.6396 374.63 98.5996 374.83 98.4929 375.043L95.0729 382.983C94.9529 383.276 94.7929 383.49 94.5929 383.623C94.4063 383.756 94.1796 383.823 93.9129 383.823ZM103.469 383.863C102.803 383.863 102.196 383.73 101.649 383.463C101.116 383.196 100.696 382.836 100.389 382.383C100.096 381.93 99.9492 381.423 99.9492 380.863C99.9492 380.143 100.129 379.576 100.489 379.163C100.849 378.75 101.456 378.456 102.309 378.283C103.163 378.096 104.309 378.003 105.749 378.003H106.689V379.163H105.789C104.763 379.163 103.949 379.21 103.349 379.303C102.763 379.396 102.349 379.563 102.109 379.803C101.869 380.03 101.749 380.35 101.749 380.763C101.749 381.283 101.929 381.71 102.289 382.043C102.663 382.376 103.169 382.543 103.809 382.543C104.316 382.543 104.763 382.423 105.149 382.183C105.536 381.93 105.843 381.596 106.069 381.183C106.296 380.756 106.409 380.27 106.409 379.723V377.423C106.409 376.636 106.249 376.07 105.929 375.723C105.609 375.363 105.069 375.183 104.309 375.183C103.869 375.183 103.416 375.243 102.949 375.363C102.483 375.483 101.996 375.67 101.489 375.923C101.289 376.016 101.116 376.05 100.969 376.023C100.823 375.983 100.703 375.903 100.609 375.783C100.529 375.65 100.483 375.51 100.469 375.363C100.469 375.203 100.503 375.05 100.569 374.903C100.649 374.756 100.783 374.65 100.969 374.583C101.556 374.29 102.136 374.083 102.709 373.963C103.296 373.83 103.843 373.763 104.349 373.763C105.216 373.763 105.929 373.903 106.489 374.183C107.049 374.45 107.469 374.87 107.749 375.443C108.029 376.003 108.169 376.723 108.169 377.603V382.883C108.169 383.19 108.096 383.423 107.949 383.583C107.803 383.743 107.589 383.823 107.309 383.823C107.043 383.823 106.829 383.743 106.669 383.583C106.523 383.423 106.449 383.19 106.449 382.883V381.463H106.629C106.523 381.956 106.323 382.383 106.029 382.743C105.736 383.103 105.369 383.383 104.929 383.583C104.503 383.77 104.016 383.863 103.469 383.863ZM114.093 383.863C113.093 383.863 112.333 383.57 111.813 382.983C111.293 382.383 111.033 381.523 111.033 380.403V370.363C111.033 370.056 111.113 369.83 111.273 369.683C111.433 369.523 111.653 369.443 111.933 369.443C112.227 369.443 112.453 369.523 112.613 369.683C112.773 369.83 112.853 370.056 112.853 370.363V380.263C112.853 380.956 112.993 381.476 113.273 381.823C113.567 382.156 113.98 382.323 114.513 382.323C114.633 382.323 114.74 382.323 114.833 382.323C114.927 382.31 115.02 382.296 115.113 382.283C115.26 382.27 115.367 382.31 115.433 382.403C115.5 382.496 115.533 382.683 115.533 382.963C115.533 383.216 115.473 383.416 115.353 383.563C115.247 383.696 115.067 383.783 114.813 383.823C114.693 383.836 114.573 383.843 114.453 383.843C114.333 383.856 114.213 383.863 114.093 383.863ZM120.109 383.863C119.109 383.863 118.349 383.57 117.829 382.983C117.309 382.383 117.049 381.523 117.049 380.403V370.363C117.049 370.056 117.129 369.83 117.289 369.683C117.449 369.523 117.669 369.443 117.949 369.443C118.242 369.443 118.469 369.523 118.629 369.683C118.789 369.83 118.869 370.056 118.869 370.363V380.263C118.869 380.956 119.009 381.476 119.289 381.823C119.582 382.156 119.996 382.323 120.529 382.323C120.649 382.323 120.756 382.323 120.849 382.323C120.942 382.31 121.036 382.296 121.129 382.283C121.276 382.27 121.382 382.31 121.449 382.403C121.516 382.496 121.549 382.683 121.549 382.963C121.549 383.216 121.489 383.416 121.369 383.563C121.262 383.696 121.082 383.783 120.829 383.823C120.709 383.836 120.589 383.843 120.469 383.843C120.349 383.856 120.229 383.863 120.109 383.863ZM123.964 383.783C123.684 383.783 123.464 383.696 123.304 383.523C123.144 383.35 123.064 383.11 123.064 382.803V374.823C123.064 374.503 123.144 374.263 123.304 374.103C123.464 373.93 123.684 373.843 123.964 373.843C124.258 373.843 124.484 373.93 124.644 374.103C124.804 374.263 124.884 374.503 124.884 374.823V382.803C124.884 383.11 124.804 383.35 124.644 383.523C124.498 383.696 124.271 383.783 123.964 383.783ZM123.964 371.683C123.604 371.683 123.318 371.59 123.104 371.403C122.904 371.203 122.804 370.943 122.804 370.623C122.804 370.276 122.904 370.016 123.104 369.843C123.318 369.656 123.604 369.563 123.964 369.563C124.351 369.563 124.638 369.656 124.824 369.843C125.024 370.016 125.124 370.276 125.124 370.623C125.124 370.943 125.024 371.203 124.824 371.403C124.638 371.59 124.351 371.683 123.964 371.683ZM131.171 383.863C130.571 383.863 129.964 383.796 129.351 383.663C128.751 383.516 128.184 383.27 127.651 382.923C127.504 382.83 127.397 382.716 127.331 382.583C127.277 382.436 127.257 382.296 127.271 382.163C127.297 382.016 127.357 381.89 127.451 381.783C127.544 381.676 127.657 381.616 127.791 381.603C127.937 381.576 128.091 381.61 128.251 381.703C128.771 381.996 129.271 382.203 129.751 382.323C130.244 382.443 130.731 382.503 131.211 382.503C131.944 382.503 132.497 382.37 132.871 382.103C133.244 381.836 133.431 381.483 133.431 381.043C133.431 380.67 133.304 380.383 133.051 380.183C132.811 379.97 132.431 379.81 131.911 379.703L130.051 379.323C129.224 379.136 128.597 378.83 128.171 378.403C127.757 377.963 127.551 377.403 127.551 376.723C127.551 376.123 127.711 375.603 128.031 375.163C128.364 374.71 128.824 374.363 129.411 374.123C129.997 373.883 130.671 373.763 131.431 373.763C132.017 373.763 132.571 373.843 133.091 374.003C133.624 374.15 134.104 374.376 134.531 374.683C134.691 374.776 134.791 374.896 134.831 375.043C134.884 375.176 134.891 375.316 134.851 375.463C134.824 375.596 134.764 375.71 134.671 375.803C134.577 375.896 134.457 375.956 134.311 375.983C134.164 375.996 134.004 375.956 133.831 375.863C133.444 375.596 133.044 375.41 132.631 375.303C132.231 375.183 131.831 375.123 131.431 375.123C130.711 375.123 130.164 375.263 129.791 375.543C129.431 375.823 129.251 376.19 129.251 376.643C129.251 376.99 129.357 377.276 129.571 377.503C129.797 377.73 130.151 377.896 130.631 378.003L132.491 378.383C133.357 378.57 134.011 378.87 134.451 379.283C134.891 379.683 135.111 380.23 135.111 380.923C135.111 381.83 134.751 382.55 134.031 383.083C133.324 383.603 132.371 383.863 131.171 383.863ZM146.173 383.863C145.387 383.863 144.727 383.716 144.193 383.423C143.673 383.13 143.287 382.696 143.033 382.123C142.78 381.55 142.653 380.83 142.653 379.963V374.723C142.653 374.416 142.727 374.19 142.873 374.043C143.033 373.883 143.26 373.803 143.553 373.803C143.847 373.803 144.073 373.883 144.233 374.043C144.393 374.19 144.473 374.416 144.473 374.723V379.963C144.473 380.79 144.64 381.403 144.973 381.803C145.307 382.19 145.833 382.383 146.553 382.383C147.353 382.383 148 382.116 148.493 381.583C149 381.05 149.253 380.343 149.253 379.463V374.723C149.253 374.416 149.327 374.19 149.473 374.043C149.633 373.883 149.86 373.803 150.153 373.803C150.447 373.803 150.673 373.883 150.833 374.043C150.993 374.19 151.073 374.416 151.073 374.723V382.883C151.073 383.51 150.78 383.823 150.193 383.823C149.9 383.823 149.673 383.743 149.513 383.583C149.367 383.423 149.293 383.19 149.293 382.883V381.143L149.553 381.483C149.287 382.256 148.853 382.85 148.253 383.263C147.667 383.663 146.973 383.863 146.173 383.863ZM154.942 383.823C154.635 383.823 154.402 383.743 154.242 383.583C154.082 383.423 154.002 383.19 154.002 382.883V374.723C154.002 374.416 154.082 374.19 154.242 374.043C154.402 373.883 154.622 373.803 154.902 373.803C155.182 373.803 155.395 373.883 155.542 374.043C155.702 374.19 155.782 374.416 155.782 374.723V376.263H155.582C155.795 375.463 156.195 374.856 156.782 374.443C157.369 374.03 158.109 373.796 159.002 373.743C159.215 373.73 159.389 373.783 159.522 373.903C159.655 374.01 159.729 374.196 159.742 374.463C159.755 374.716 159.695 374.923 159.562 375.083C159.429 375.23 159.222 375.316 158.942 375.343L158.582 375.363C157.702 375.456 157.022 375.743 156.542 376.223C156.075 376.703 155.842 377.363 155.842 378.203V382.883C155.842 383.19 155.762 383.423 155.602 383.583C155.455 383.743 155.235 383.823 154.942 383.823ZM162.207 383.823C161.927 383.823 161.707 383.743 161.547 383.583C161.387 383.423 161.307 383.19 161.307 382.883V374.723C161.307 374.416 161.387 374.19 161.547 374.043C161.707 373.883 161.927 373.803 162.207 373.803C162.487 373.803 162.7 373.883 162.847 374.043C163.007 374.19 163.087 374.416 163.087 374.723V376.363L162.867 376.063C163.147 375.303 163.6 374.73 164.227 374.343C164.867 373.956 165.593 373.763 166.407 373.763C167.193 373.763 167.84 373.903 168.347 374.183C168.853 374.463 169.233 374.89 169.487 375.463C169.74 376.036 169.867 376.763 169.867 377.643V382.883C169.867 383.19 169.787 383.423 169.627 383.583C169.48 383.743 169.26 383.823 168.967 383.823C168.673 383.823 168.447 383.743 168.287 383.583C168.127 383.423 168.047 383.19 168.047 382.883V377.743C168.047 376.876 167.88 376.243 167.547 375.843C167.213 375.443 166.68 375.243 165.947 375.243C165.093 375.243 164.407 375.51 163.887 376.043C163.38 376.563 163.127 377.27 163.127 378.163V382.883C163.127 383.51 162.82 383.823 162.207 383.823ZM175.852 383.863C175.185 383.863 174.579 383.73 174.032 383.463C173.499 383.196 173.079 382.836 172.772 382.383C172.479 381.93 172.332 381.423 172.332 380.863C172.332 380.143 172.512 379.576 172.872 379.163C173.232 378.75 173.839 378.456 174.692 378.283C175.545 378.096 176.692 378.003 178.132 378.003H179.072V379.163H178.172C177.145 379.163 176.332 379.21 175.732 379.303C175.145 379.396 174.732 379.563 174.492 379.803C174.252 380.03 174.132 380.35 174.132 380.763C174.132 381.283 174.312 381.71 174.672 382.043C175.045 382.376 175.552 382.543 176.192 382.543C176.699 382.543 177.145 382.423 177.532 382.183C177.919 381.93 178.225 381.596 178.452 381.183C178.679 380.756 178.792 380.27 178.792 379.723V377.423C178.792 376.636 178.632 376.07 178.312 375.723C177.992 375.363 177.452 375.183 176.692 375.183C176.252 375.183 175.799 375.243 175.332 375.363C174.865 375.483 174.379 375.67 173.872 375.923C173.672 376.016 173.499 376.05 173.352 376.023C173.205 375.983 173.085 375.903 172.992 375.783C172.912 375.65 172.865 375.51 172.852 375.363C172.852 375.203 172.885 375.05 172.952 374.903C173.032 374.756 173.165 374.65 173.352 374.583C173.939 374.29 174.519 374.083 175.092 373.963C175.679 373.83 176.225 373.763 176.732 373.763C177.599 373.763 178.312 373.903 178.872 374.183C179.432 374.45 179.852 374.87 180.132 375.443C180.412 376.003 180.552 376.723 180.552 377.603V382.883C180.552 383.19 180.479 383.423 180.332 383.583C180.185 383.743 179.972 383.823 179.692 383.823C179.425 383.823 179.212 383.743 179.052 383.583C178.905 383.423 178.832 383.19 178.832 382.883V381.463H179.012C178.905 381.956 178.705 382.383 178.412 382.743C178.119 383.103 177.752 383.383 177.312 383.583C176.885 383.77 176.399 383.863 175.852 383.863ZM192.771 383.863C191.811 383.863 190.978 383.656 190.271 383.243C189.564 382.83 189.018 382.243 188.631 381.483C188.244 380.723 188.051 379.83 188.051 378.803C188.051 378.03 188.158 377.336 188.371 376.723C188.598 376.096 188.918 375.563 189.331 375.123C189.744 374.683 190.238 374.35 190.811 374.123C191.398 373.883 192.051 373.763 192.771 373.763C193.731 373.763 194.564 373.97 195.271 374.383C195.978 374.796 196.524 375.383 196.911 376.143C197.298 376.89 197.491 377.776 197.491 378.803C197.491 379.576 197.378 380.276 197.151 380.903C196.938 381.53 196.624 382.063 196.211 382.503C195.798 382.943 195.298 383.283 194.711 383.523C194.138 383.75 193.491 383.863 192.771 383.863ZM192.771 382.423C193.358 382.423 193.864 382.283 194.291 382.003C194.731 381.723 195.064 381.316 195.291 380.783C195.531 380.25 195.651 379.59 195.651 378.803C195.651 377.63 195.391 376.736 194.871 376.123C194.351 375.51 193.651 375.203 192.771 375.203C192.198 375.203 191.691 375.343 191.251 375.623C190.824 375.89 190.491 376.29 190.251 376.823C190.011 377.356 189.891 378.016 189.891 378.803C189.891 379.976 190.151 380.876 190.671 381.503C191.204 382.116 191.904 382.423 192.771 382.423ZM200.762 383.823C200.456 383.823 200.222 383.743 200.062 383.583C199.902 383.423 199.822 383.19 199.822 382.883V374.723C199.822 374.416 199.902 374.19 200.062 374.043C200.222 373.883 200.442 373.803 200.722 373.803C201.002 373.803 201.216 373.883 201.362 374.043C201.522 374.19 201.602 374.416 201.602 374.723V376.263H201.402C201.616 375.463 202.016 374.856 202.602 374.443C203.189 374.03 203.929 373.796 204.822 373.743C205.036 373.73 205.209 373.783 205.342 373.903C205.476 374.01 205.549 374.196 205.562 374.463C205.576 374.716 205.516 374.923 205.382 375.083C205.249 375.23 205.042 375.316 204.762 375.343L204.402 375.363C203.522 375.456 202.842 375.743 202.362 376.223C201.896 376.703 201.662 377.363 201.662 378.203V382.883C201.662 383.19 201.582 383.423 201.422 383.583C201.276 383.743 201.056 383.823 200.762 383.823ZM211.49 383.863C210.437 383.863 209.53 383.663 208.77 383.263C208.024 382.85 207.444 382.27 207.03 381.523C206.617 380.763 206.41 379.87 206.41 378.843C206.41 377.83 206.61 376.943 207.01 376.183C207.424 375.423 207.984 374.83 208.69 374.403C209.41 373.976 210.23 373.763 211.15 373.763C211.804 373.763 212.39 373.876 212.91 374.103C213.444 374.316 213.897 374.63 214.27 375.043C214.644 375.456 214.924 375.963 215.11 376.563C215.31 377.15 215.41 377.816 215.41 378.563C215.41 378.776 215.344 378.943 215.21 379.063C215.09 379.17 214.91 379.223 214.67 379.223H207.83V378.063H214.21L213.87 378.343C213.87 377.65 213.764 377.063 213.55 376.583C213.35 376.09 213.05 375.716 212.65 375.463C212.264 375.21 211.777 375.083 211.19 375.083C210.55 375.083 210.004 375.236 209.55 375.543C209.097 375.836 208.75 376.256 208.51 376.803C208.27 377.336 208.15 377.956 208.15 378.663V378.783C208.15 379.983 208.437 380.89 209.01 381.503C209.584 382.116 210.41 382.423 211.49 382.423C211.917 382.423 212.35 382.37 212.79 382.263C213.244 382.156 213.677 381.963 214.09 381.683C214.29 381.563 214.47 381.51 214.63 381.523C214.804 381.523 214.944 381.576 215.05 381.683C215.157 381.776 215.224 381.896 215.25 382.043C215.277 382.176 215.257 382.323 215.19 382.483C215.124 382.643 214.997 382.783 214.81 382.903C214.37 383.21 213.844 383.45 213.23 383.623C212.63 383.783 212.05 383.863 211.49 383.863ZM218.614 383.823C218.334 383.823 218.114 383.743 217.954 383.583C217.794 383.423 217.714 383.19 217.714 382.883V374.723C217.714 374.416 217.794 374.19 217.954 374.043C218.114 373.883 218.334 373.803 218.614 373.803C218.894 373.803 219.107 373.883 219.254 374.043C219.414 374.19 219.494 374.416 219.494 374.723V376.423L219.274 376.063C219.527 375.33 219.934 374.763 220.494 374.363C221.067 373.963 221.747 373.763 222.534 373.763C223.361 373.763 224.027 373.963 224.534 374.363C225.041 374.75 225.381 375.343 225.554 376.143H225.274C225.514 375.41 225.941 374.83 226.554 374.403C227.181 373.976 227.907 373.763 228.734 373.763C229.467 373.763 230.067 373.91 230.534 374.203C231.014 374.483 231.374 374.91 231.614 375.483C231.854 376.043 231.974 376.763 231.974 377.643V382.883C231.974 383.19 231.894 383.423 231.734 383.583C231.574 383.743 231.354 383.823 231.074 383.823C230.781 383.823 230.554 383.743 230.394 383.583C230.234 383.423 230.154 383.19 230.154 382.883V377.723C230.154 376.87 230.007 376.243 229.714 375.843C229.421 375.443 228.927 375.243 228.234 375.243C227.474 375.243 226.867 375.51 226.414 376.043C225.974 376.563 225.754 377.283 225.754 378.203V382.883C225.754 383.19 225.674 383.423 225.514 383.583C225.367 383.743 225.147 383.823 224.854 383.823C224.561 383.823 224.334 383.743 224.174 383.583C224.014 383.423 223.934 383.19 223.934 382.883V377.723C223.934 376.87 223.787 376.243 223.494 375.843C223.201 375.443 222.707 375.243 222.014 375.243C221.254 375.243 220.647 375.51 220.194 376.043C219.754 376.563 219.534 377.283 219.534 378.203V382.883C219.534 383.51 219.227 383.823 218.614 383.823ZM25.2145 413.783C24.9345 413.783 24.7145 413.696 24.5545 413.523C24.3945 413.35 24.3145 413.11 24.3145 412.803V404.823C24.3145 404.503 24.3945 404.263 24.5545 404.103C24.7145 403.93 24.9345 403.843 25.2145 403.843C25.5078 403.843 25.7345 403.93 25.8945 404.103C26.0545 404.263 26.1345 404.503 26.1345 404.823V412.803C26.1345 413.11 26.0545 413.35 25.8945 413.523C25.7478 413.696 25.5212 413.783 25.2145 413.783ZM25.2145 401.683C24.8545 401.683 24.5678 401.59 24.3545 401.403C24.1545 401.203 24.0545 400.943 24.0545 400.623C24.0545 400.276 24.1545 400.016 24.3545 399.843C24.5678 399.656 24.8545 399.563 25.2145 399.563C25.6012 399.563 25.8878 399.656 26.0745 399.843C26.2745 400.016 26.3745 400.276 26.3745 400.623C26.3745 400.943 26.2745 401.203 26.0745 401.403C25.8878 401.59 25.6012 401.683 25.2145 401.683ZM29.9606 417.423C29.6806 417.423 29.4606 417.343 29.3006 417.183C29.1406 417.023 29.0606 416.796 29.0606 416.503V404.723C29.0606 404.416 29.1406 404.19 29.3006 404.043C29.4606 403.883 29.6806 403.803 29.9606 403.803C30.2539 403.803 30.4739 403.883 30.6206 404.043C30.7806 404.19 30.8606 404.416 30.8606 404.723V406.543L30.6406 406.183C30.8539 405.45 31.2739 404.863 31.9006 404.423C32.5273 403.983 33.2806 403.763 34.1606 403.763C35.0273 403.763 35.7806 403.97 36.4206 404.383C37.0606 404.783 37.5606 405.363 37.9206 406.123C38.2806 406.87 38.4606 407.763 38.4606 408.803C38.4606 409.83 38.2806 410.73 37.9206 411.503C37.5739 412.263 37.0739 412.85 36.4206 413.263C35.7806 413.663 35.0273 413.863 34.1606 413.863C33.2939 413.863 32.5473 413.643 31.9206 413.203C31.2939 412.763 30.8739 412.183 30.6606 411.463H30.8806V416.503C30.8806 416.796 30.8006 417.023 30.6406 417.183C30.4806 417.343 30.2539 417.423 29.9606 417.423ZM33.7406 412.423C34.3139 412.423 34.8139 412.283 35.2406 412.003C35.6806 411.723 36.0206 411.316 36.2606 410.783C36.5006 410.25 36.6206 409.59 36.6206 408.803C36.6206 407.63 36.3606 406.736 35.8406 406.123C35.3206 405.51 34.6206 405.203 33.7406 405.203C33.1539 405.203 32.6406 405.343 32.2006 405.623C31.7739 405.89 31.4406 406.29 31.2006 406.823C30.9739 407.356 30.8606 408.016 30.8606 408.803C30.8606 409.976 31.1206 410.876 31.6406 411.503C32.1606 412.116 32.8606 412.423 33.7406 412.423ZM44.1589 413.863C43.5589 413.863 42.9522 413.796 42.3389 413.663C41.7389 413.516 41.1722 413.27 40.6389 412.923C40.4922 412.83 40.3855 412.716 40.3189 412.583C40.2655 412.436 40.2455 412.296 40.2589 412.163C40.2855 412.016 40.3455 411.89 40.4389 411.783C40.5322 411.676 40.6455 411.616 40.7789 411.603C40.9255 411.576 41.0789 411.61 41.2389 411.703C41.7589 411.996 42.2589 412.203 42.7389 412.323C43.2322 412.443 43.7189 412.503 44.1989 412.503C44.9322 412.503 45.4855 412.37 45.8589 412.103C46.2322 411.836 46.4189 411.483 46.4189 411.043C46.4189 410.67 46.2922 410.383 46.0389 410.183C45.7989 409.97 45.4189 409.81 44.8989 409.703L43.0389 409.323C42.2122 409.136 41.5855 408.83 41.1589 408.403C40.7455 407.963 40.5389 407.403 40.5389 406.723C40.5389 406.123 40.6989 405.603 41.0189 405.163C41.3522 404.71 41.8122 404.363 42.3989 404.123C42.9855 403.883 43.6589 403.763 44.4189 403.763C45.0055 403.763 45.5589 403.843 46.0789 404.003C46.6122 404.15 47.0922 404.376 47.5189 404.683C47.6789 404.776 47.7789 404.896 47.8189 405.043C47.8722 405.176 47.8789 405.316 47.8389 405.463C47.8122 405.596 47.7522 405.71 47.6589 405.803C47.5655 405.896 47.4455 405.956 47.2989 405.983C47.1522 405.996 46.9922 405.956 46.8189 405.863C46.4322 405.596 46.0322 405.41 45.6189 405.303C45.2189 405.183 44.8189 405.123 44.4189 405.123C43.6989 405.123 43.1522 405.263 42.7789 405.543C42.4189 405.823 42.2389 406.19 42.2389 406.643C42.2389 406.99 42.3455 407.276 42.5589 407.503C42.7855 407.73 43.1389 407.896 43.6189 408.003L45.4789 408.383C46.3455 408.57 46.9989 408.87 47.4389 409.283C47.8789 409.683 48.0989 410.23 48.0989 410.923C48.0989 411.83 47.7389 412.55 47.0189 413.083C46.3122 413.603 45.3589 413.863 44.1589 413.863ZM53.9468 413.863C53.1602 413.863 52.5002 413.716 51.9668 413.423C51.4468 413.13 51.0602 412.696 50.8068 412.123C50.5535 411.55 50.4268 410.83 50.4268 409.963V404.723C50.4268 404.416 50.5002 404.19 50.6468 404.043C50.8068 403.883 51.0335 403.803 51.3268 403.803C51.6202 403.803 51.8468 403.883 52.0068 404.043C52.1668 404.19 52.2468 404.416 52.2468 404.723V409.963C52.2468 410.79 52.4135 411.403 52.7468 411.803C53.0802 412.19 53.6068 412.383 54.3268 412.383C55.1268 412.383 55.7735 412.116 56.2668 411.583C56.7735 411.05 57.0268 410.343 57.0268 409.463V404.723C57.0268 404.416 57.1002 404.19 57.2468 404.043C57.4068 403.883 57.6335 403.803 57.9268 403.803C58.2202 403.803 58.4468 403.883 58.6068 404.043C58.7668 404.19 58.8468 404.416 58.8468 404.723V412.883C58.8468 413.51 58.5535 413.823 57.9668 413.823C57.6735 413.823 57.4468 413.743 57.2868 413.583C57.1402 413.423 57.0668 413.19 57.0668 412.883V411.143L57.3268 411.483C57.0602 412.256 56.6268 412.85 56.0268 413.263C55.4402 413.663 54.7468 413.863 53.9468 413.863ZM62.7154 413.823C62.4354 413.823 62.2154 413.743 62.0554 413.583C61.8954 413.423 61.8154 413.19 61.8154 412.883V404.723C61.8154 404.416 61.8954 404.19 62.0554 404.043C62.2154 403.883 62.4354 403.803 62.7154 403.803C62.9954 403.803 63.2088 403.883 63.3554 404.043C63.5154 404.19 63.5954 404.416 63.5954 404.723V406.423L63.3754 406.063C63.6288 405.33 64.0354 404.763 64.5954 404.363C65.1688 403.963 65.8488 403.763 66.6354 403.763C67.4621 403.763 68.1288 403.963 68.6354 404.363C69.1421 404.75 69.4821 405.343 69.6554 406.143H69.3754C69.6154 405.41 70.0421 404.83 70.6554 404.403C71.2821 403.976 72.0088 403.763 72.8354 403.763C73.5688 403.763 74.1688 403.91 74.6354 404.203C75.1154 404.483 75.4754 404.91 75.7154 405.483C75.9554 406.043 76.0754 406.763 76.0754 407.643V412.883C76.0754 413.19 75.9954 413.423 75.8354 413.583C75.6754 413.743 75.4554 413.823 75.1754 413.823C74.8821 413.823 74.6554 413.743 74.4954 413.583C74.3354 413.423 74.2554 413.19 74.2554 412.883V407.723C74.2554 406.87 74.1088 406.243 73.8154 405.843C73.5221 405.443 73.0288 405.243 72.3354 405.243C71.5754 405.243 70.9688 405.51 70.5154 406.043C70.0754 406.563 69.8554 407.283 69.8554 408.203V412.883C69.8554 413.19 69.7754 413.423 69.6154 413.583C69.4688 413.743 69.2488 413.823 68.9554 413.823C68.6621 413.823 68.4354 413.743 68.2754 413.583C68.1154 413.423 68.0354 413.19 68.0354 412.883V407.723C68.0354 406.87 67.8888 406.243 67.5954 405.843C67.3021 405.443 66.8088 405.243 66.1154 405.243C65.3554 405.243 64.7488 405.51 64.2954 406.043C63.8554 406.563 63.6354 407.283 63.6354 408.203V412.883C63.6354 413.51 63.3288 413.823 62.7154 413.823ZM79.882 413.763C79.5353 413.763 79.2487 413.65 79.022 413.423C78.7953 413.196 78.682 412.91 78.682 412.563C78.682 412.216 78.7953 411.936 79.022 411.723C79.2487 411.51 79.5353 411.403 79.882 411.403C80.2553 411.403 80.542 411.51 80.742 411.723C80.9553 411.936 81.062 412.216 81.062 412.563C81.062 412.91 80.9553 413.196 80.742 413.423C80.542 413.65 80.2553 413.763 79.882 413.763Z" fill="#F9FBFB"/>
</svg>
