<svg width="336" height="170" viewBox="0 0 336 170" fill="none" xmlns="http://www.w3.org/2000/svg">
<g filter="url(#filter0_ddii_80_2383)">
<path d="M20.5977 31.1983C20.5977 18.7566 30.6836 8.67065 43.1253 8.67065H292.875C305.317 8.67065 315.403 18.7566 315.403 31.1983V115.106C315.403 127.548 305.317 137.634 292.875 137.634H43.1253C30.6836 137.634 20.5977 127.548 20.5977 115.106V31.1983Z" fill="#F9FBFB" shape-rendering="crispEdges"/>
<path d="M54.1835 39.4572V45.0547M51.3847 42.256H56.9822M49.5188 50.6523H58.8481C60.909 50.6523 62.5798 48.9816 62.5798 46.9206V37.5913C62.5798 35.5304 60.909 33.8596 58.8481 33.8596H49.5188C47.4579 33.8596 45.7871 35.5304 45.7871 37.5913V46.9206C45.7871 48.9816 47.4579 50.6523 49.5188 50.6523Z" stroke="#0F1415" stroke-width="0.932927" stroke-linecap="round" stroke-linejoin="round"/>
<path d="M45.0843 81.7582C44.8496 81.7582 44.6683 81.6942 44.5403 81.5662C44.4123 81.4276 44.3483 81.2356 44.3483 80.9902V71.0222C44.3483 70.7662 44.4123 70.5742 44.5403 70.4462C44.6683 70.3182 44.8496 70.2542 45.0843 70.2542C45.3296 70.2542 45.5163 70.3182 45.6443 70.4462C45.7723 70.5742 45.8363 70.7662 45.8363 71.0222V80.9902C45.8363 81.2356 45.7723 81.4276 45.6443 81.5662C45.5269 81.6942 45.3403 81.7582 45.0843 81.7582ZM49.0638 84.6382C48.8398 84.6382 48.6638 84.5742 48.5358 84.4462C48.4078 84.3182 48.3438 84.1369 48.3438 83.9022V74.4782C48.3438 74.2329 48.4078 74.0516 48.5358 73.9342C48.6638 73.8062 48.8398 73.7422 49.0638 73.7422C49.2984 73.7422 49.4744 73.8062 49.5918 73.9342C49.7198 74.0516 49.7838 74.2329 49.7838 74.4782V75.9342L49.6078 75.6462C49.7784 75.0596 50.1144 74.5902 50.6158 74.2382C51.1171 73.8862 51.7198 73.7102 52.4238 73.7102C53.1171 73.7102 53.7198 73.8756 54.2318 74.2062C54.7438 74.5262 55.1438 74.9902 55.4318 75.5982C55.7198 76.1956 55.8638 76.9102 55.8638 77.7422C55.8638 78.5636 55.7198 79.2836 55.4318 79.9022C55.1544 80.5102 54.7544 80.9796 54.2318 81.3102C53.7198 81.6302 53.1171 81.7902 52.4238 81.7902C51.7304 81.7902 51.1331 81.6142 50.6318 81.2622C50.1304 80.9102 49.7944 80.4462 49.6238 79.8702H49.7998V83.9022C49.7998 84.1369 49.7358 84.3182 49.6078 84.4462C49.4798 84.5742 49.2984 84.6382 49.0638 84.6382ZM52.0878 80.6382C52.5464 80.6382 52.9464 80.5262 53.2878 80.3022C53.6398 80.0782 53.9118 79.7529 54.1038 79.3262C54.2958 78.8996 54.3918 78.3716 54.3918 77.7422C54.3918 76.8036 54.1838 76.0889 53.7678 75.5982C53.3518 75.1076 52.7918 74.8622 52.0878 74.8622C51.6184 74.8622 51.2078 74.9742 50.8558 75.1982C50.5144 75.4116 50.2478 75.7316 50.0558 76.1582C49.8744 76.5849 49.7838 77.1129 49.7838 77.7422C49.7838 78.6809 49.9918 79.4009 50.4078 79.9022C50.8238 80.3929 51.3838 80.6382 52.0878 80.6382ZM60.4224 81.7902C59.9424 81.7902 59.4571 81.7369 58.9664 81.6302C58.4864 81.5129 58.0331 81.3156 57.6064 81.0382C57.4891 80.9636 57.4037 80.8729 57.3504 80.7662C57.3077 80.6489 57.2917 80.5369 57.3024 80.4302C57.3237 80.3129 57.3717 80.2116 57.4464 80.1262C57.5211 80.0409 57.6117 79.9929 57.7184 79.9822C57.8357 79.9609 57.9584 79.9876 58.0864 80.0622C58.5024 80.2969 58.9024 80.4622 59.2864 80.5582C59.6811 80.6542 60.0704 80.7022 60.4544 80.7022C61.0411 80.7022 61.4837 80.5956 61.7824 80.3822C62.0811 80.1689 62.2304 79.8862 62.2304 79.5342C62.2304 79.2356 62.1291 79.0062 61.9264 78.8462C61.7344 78.6756 61.4304 78.5476 61.0144 78.4622L59.5264 78.1582C58.8651 78.0089 58.3637 77.7636 58.0224 77.4222C57.6917 77.0702 57.5264 76.6222 57.5264 76.0782C57.5264 75.5982 57.6544 75.1822 57.9104 74.8302C58.1771 74.4676 58.5451 74.1902 59.0144 73.9982C59.4837 73.8062 60.0224 73.7102 60.6304 73.7102C61.0997 73.7102 61.5424 73.7742 61.9584 73.9022C62.3851 74.0196 62.7691 74.2009 63.1104 74.4462C63.2384 74.5209 63.3184 74.6169 63.3504 74.7342C63.3931 74.8409 63.3984 74.9529 63.3664 75.0702C63.3451 75.1769 63.2971 75.2676 63.2224 75.3422C63.1477 75.4169 63.0517 75.4649 62.9344 75.4862C62.8171 75.4969 62.6891 75.4649 62.5504 75.3902C62.2411 75.1769 61.9211 75.0276 61.5904 74.9422C61.2704 74.8462 60.9504 74.7982 60.6304 74.7982C60.0544 74.7982 59.6171 74.9102 59.3184 75.1342C59.0304 75.3582 58.8864 75.6516 58.8864 76.0142C58.8864 76.2916 58.9717 76.5209 59.1424 76.7022C59.3237 76.8836 59.6064 77.0169 59.9904 77.1022L61.4784 77.4062C62.1717 77.5556 62.6944 77.7956 63.0464 78.1262C63.3984 78.4462 63.5744 78.8836 63.5744 79.4382C63.5744 80.1636 63.2864 80.7396 62.7104 81.1662C62.1451 81.5822 61.3824 81.7902 60.4224 81.7902ZM68.2528 81.7902C67.6234 81.7902 67.0954 81.6729 66.6688 81.4382C66.2528 81.2036 65.9434 80.8569 65.7408 80.3982C65.5381 79.9396 65.4368 79.3636 65.4368 78.6702V74.4782C65.4368 74.2329 65.4954 74.0516 65.6128 73.9342C65.7408 73.8062 65.9221 73.7422 66.1568 73.7422C66.3914 73.7422 66.5728 73.8062 66.7008 73.9342C66.8288 74.0516 66.8928 74.2329 66.8928 74.4782V78.6702C66.8928 79.3316 67.0261 79.8222 67.2928 80.1422C67.5594 80.4516 67.9808 80.6062 68.5568 80.6062C69.1968 80.6062 69.7141 80.3929 70.1088 79.9662C70.5141 79.5396 70.7168 78.9742 70.7168 78.2702V74.4782C70.7168 74.2329 70.7754 74.0516 70.8928 73.9342C71.0208 73.8062 71.2021 73.7422 71.4368 73.7422C71.6714 73.7422 71.8528 73.8062 71.9808 73.9342C72.1088 74.0516 72.1728 74.2329 72.1728 74.4782V81.0062C72.1728 81.5076 71.9381 81.7582 71.4688 81.7582C71.2341 81.7582 71.0528 81.6942 70.9248 81.5662C70.8074 81.4382 70.7488 81.2516 70.7488 81.0062V79.6142L70.9568 79.8862C70.7434 80.5049 70.3968 80.9796 69.9168 81.3102C69.4474 81.6302 68.8928 81.7902 68.2528 81.7902ZM75.2677 81.7582C75.0437 81.7582 74.8677 81.6942 74.7397 81.5662C74.6117 81.4382 74.5477 81.2516 74.5477 81.0062V74.4782C74.5477 74.2329 74.6117 74.0516 74.7397 73.9342C74.8677 73.8062 75.0437 73.7422 75.2677 73.7422C75.4917 73.7422 75.6623 73.8062 75.7797 73.9342C75.9077 74.0516 75.9717 74.2329 75.9717 74.4782V75.8382L75.7957 75.5502C75.9983 74.9636 76.3237 74.5102 76.7717 74.1902C77.2303 73.8702 77.7743 73.7102 78.4037 73.7102C79.065 73.7102 79.5983 73.8702 80.0037 74.1902C80.409 74.4996 80.681 74.9742 80.8197 75.6142H80.5957C80.7877 75.0276 81.129 74.5636 81.6197 74.2222C82.121 73.8809 82.7023 73.7102 83.3637 73.7102C83.9503 73.7102 84.4303 73.8276 84.8037 74.0622C85.1877 74.2862 85.4757 74.6276 85.6677 75.0862C85.8597 75.5342 85.9557 76.1102 85.9557 76.8142V81.0062C85.9557 81.2516 85.8917 81.4382 85.7637 81.5662C85.6357 81.6942 85.4597 81.7582 85.2357 81.7582C85.001 81.7582 84.8197 81.6942 84.6917 81.5662C84.5637 81.4382 84.4997 81.2516 84.4997 81.0062V76.8782C84.4997 76.1956 84.3823 75.6942 84.1477 75.3742C83.913 75.0542 83.5183 74.8942 82.9637 74.8942C82.3557 74.8942 81.8703 75.1076 81.5077 75.5342C81.1557 75.9502 80.9797 76.5262 80.9797 77.2622V81.0062C80.9797 81.2516 80.9157 81.4382 80.7877 81.5662C80.6703 81.6942 80.4943 81.7582 80.2597 81.7582C80.025 81.7582 79.8437 81.6942 79.7157 81.5662C79.5877 81.4382 79.5237 81.2516 79.5237 81.0062V76.8782C79.5237 76.1956 79.4063 75.6942 79.1717 75.3742C78.937 75.0542 78.5423 74.8942 77.9877 74.8942C77.3797 74.8942 76.8943 75.1076 76.5317 75.5342C76.1797 75.9502 76.0037 76.5262 76.0037 77.2622V81.0062C76.0037 81.5076 75.7583 81.7582 75.2677 81.7582ZM95.4448 81.7902C94.7621 81.7902 94.1594 81.6302 93.6368 81.3102C93.1248 80.9796 92.7248 80.5102 92.4368 79.9022C92.1488 79.2836 92.0048 78.5636 92.0048 77.7422C92.0048 76.9102 92.1434 76.1956 92.4208 75.5982C92.7088 74.9902 93.1088 74.5262 93.6208 74.2062C94.1434 73.8756 94.7514 73.7102 95.4448 73.7102C96.1381 73.7102 96.7354 73.8862 97.2368 74.2382C97.7381 74.5796 98.0741 75.0382 98.2448 75.6142H98.0688V70.9902C98.0688 70.7449 98.1274 70.5636 98.2448 70.4462C98.3728 70.3182 98.5541 70.2542 98.7888 70.2542C99.0234 70.2542 99.2048 70.3182 99.3328 70.4462C99.4608 70.5636 99.5248 70.7449 99.5248 70.9902V81.0062C99.5248 81.2516 99.4608 81.4382 99.3328 81.5662C99.2048 81.6942 99.0234 81.7582 98.7888 81.7582C98.5648 81.7582 98.3888 81.6942 98.2608 81.5662C98.1328 81.4382 98.0688 81.2516 98.0688 81.0062V79.5502L98.2448 79.8382C98.0848 80.4356 97.7488 80.9102 97.2368 81.2622C96.7354 81.6142 96.1381 81.7902 95.4448 81.7902ZM95.7808 80.6382C96.2501 80.6382 96.6554 80.5262 96.9968 80.3022C97.3488 80.0782 97.6154 79.7529 97.7968 79.3262C97.9888 78.8996 98.0848 78.3716 98.0848 77.7422C98.0848 76.8036 97.8768 76.0889 97.4608 75.5982C97.0448 75.1076 96.4848 74.8622 95.7808 74.8622C95.3221 74.8622 94.9168 74.9742 94.5648 75.1982C94.2234 75.4116 93.9568 75.7316 93.7648 76.1582C93.5728 76.5849 93.4768 77.1129 93.4768 77.7422C93.4768 78.6809 93.6848 79.4009 94.1008 79.9022C94.5274 80.3929 95.0874 80.6382 95.7808 80.6382ZM105.171 81.7902C104.403 81.7902 103.737 81.6249 103.171 81.2942C102.606 80.9636 102.169 80.4942 101.859 79.8862C101.55 79.2782 101.395 78.5636 101.395 77.7422C101.395 77.1236 101.481 76.5689 101.651 76.0782C101.833 75.5769 102.089 75.1502 102.419 74.7982C102.75 74.4462 103.145 74.1796 103.603 73.9982C104.073 73.8062 104.595 73.7102 105.171 73.7102C105.939 73.7102 106.606 73.8756 107.171 74.2062C107.737 74.5369 108.174 75.0062 108.483 75.6142C108.793 76.2116 108.947 76.9209 108.947 77.7422C108.947 78.3609 108.857 78.9209 108.675 79.4222C108.505 79.9236 108.254 80.3502 107.923 80.7022C107.593 81.0542 107.193 81.3262 106.723 81.5182C106.265 81.6996 105.747 81.7902 105.171 81.7902ZM105.171 80.6382C105.641 80.6382 106.046 80.5262 106.387 80.3022C106.739 80.0782 107.006 79.7529 107.187 79.3262C107.379 78.8996 107.475 78.3716 107.475 77.7422C107.475 76.8036 107.267 76.0889 106.851 75.5982C106.435 75.1076 105.875 74.8622 105.171 74.8622C104.713 74.8622 104.307 74.9742 103.955 75.1982C103.614 75.4116 103.347 75.7316 103.155 76.1582C102.963 76.5849 102.867 77.1129 102.867 77.7422C102.867 78.6809 103.075 79.4009 103.491 79.9022C103.918 80.3929 104.478 80.6382 105.171 80.6382ZM113.261 81.7902C112.461 81.7902 111.853 81.5556 111.437 81.0862C111.021 80.6062 110.813 79.9182 110.813 79.0222V70.9902C110.813 70.7449 110.877 70.5636 111.005 70.4462C111.133 70.3182 111.309 70.2542 111.533 70.2542C111.767 70.2542 111.949 70.3182 112.077 70.4462C112.205 70.5636 112.269 70.7449 112.269 70.9902V78.9102C112.269 79.4649 112.381 79.8809 112.605 80.1582C112.839 80.4249 113.17 80.5582 113.597 80.5582C113.693 80.5582 113.778 80.5582 113.853 80.5582C113.927 80.5476 114.002 80.5369 114.077 80.5262C114.194 80.5156 114.279 80.5476 114.333 80.6222C114.386 80.6969 114.413 80.8462 114.413 81.0702C114.413 81.2729 114.365 81.4329 114.269 81.5502C114.183 81.6569 114.039 81.7262 113.837 81.7582C113.741 81.7689 113.645 81.7742 113.549 81.7742C113.453 81.7849 113.357 81.7902 113.261 81.7902ZM118.859 81.7902C118.091 81.7902 117.424 81.6249 116.859 81.2942C116.294 80.9636 115.856 80.4942 115.547 79.8862C115.238 79.2782 115.083 78.5636 115.083 77.7422C115.083 77.1236 115.168 76.5689 115.339 76.0782C115.52 75.5769 115.776 75.1502 116.107 74.7982C116.438 74.4462 116.832 74.1796 117.291 73.9982C117.76 73.8062 118.283 73.7102 118.859 73.7102C119.627 73.7102 120.294 73.8756 120.859 74.2062C121.424 74.5369 121.862 75.0062 122.171 75.6142C122.48 76.2116 122.635 76.9209 122.635 77.7422C122.635 78.3609 122.544 78.9209 122.363 79.4222C122.192 79.9236 121.942 80.3502 121.611 80.7022C121.28 81.0542 120.88 81.3262 120.411 81.5182C119.952 81.6996 119.435 81.7902 118.859 81.7902ZM118.859 80.6382C119.328 80.6382 119.734 80.5262 120.075 80.3022C120.427 80.0782 120.694 79.7529 120.875 79.3262C121.067 78.8996 121.163 78.3716 121.163 77.7422C121.163 76.8036 120.955 76.0889 120.539 75.5982C120.123 75.1076 119.563 74.8622 118.859 74.8622C118.4 74.8622 117.995 74.9742 117.643 75.1982C117.302 75.4116 117.035 75.7316 116.843 76.1582C116.651 76.5849 116.555 77.1129 116.555 77.7422C116.555 78.6809 116.763 79.4009 117.179 79.9022C117.606 80.3929 118.166 80.6382 118.859 80.6382ZM125.252 81.7582C125.007 81.7582 124.82 81.6942 124.692 81.5662C124.564 81.4382 124.5 81.2516 124.5 81.0062V74.4782C124.5 74.2329 124.564 74.0516 124.692 73.9342C124.82 73.8062 124.996 73.7422 125.22 73.7422C125.444 73.7422 125.615 73.8062 125.732 73.9342C125.86 74.0516 125.924 74.2329 125.924 74.4782V75.7102H125.764C125.935 75.0702 126.255 74.5849 126.724 74.2542C127.193 73.9236 127.785 73.7369 128.5 73.6942C128.671 73.6836 128.809 73.7262 128.916 73.8222C129.023 73.9076 129.081 74.0569 129.092 74.2702C129.103 74.4729 129.055 74.6382 128.948 74.7662C128.841 74.8836 128.676 74.9529 128.452 74.9742L128.164 74.9902C127.46 75.0649 126.916 75.2942 126.532 75.6782C126.159 76.0622 125.972 76.5902 125.972 77.2622V81.0062C125.972 81.2516 125.908 81.4382 125.78 81.5662C125.663 81.6942 125.487 81.7582 125.252 81.7582ZM137.204 81.7902C136.724 81.7902 136.238 81.7369 135.748 81.6302C135.268 81.5129 134.814 81.3156 134.388 81.0382C134.27 80.9636 134.185 80.8729 134.132 80.7662C134.089 80.6489 134.073 80.5369 134.084 80.4302C134.105 80.3129 134.153 80.2116 134.228 80.1262C134.302 80.0409 134.393 79.9929 134.5 79.9822C134.617 79.9609 134.74 79.9876 134.868 80.0622C135.284 80.2969 135.684 80.4622 136.068 80.5582C136.462 80.6542 136.852 80.7022 137.236 80.7022C137.822 80.7022 138.265 80.5956 138.564 80.3822C138.862 80.1689 139.012 79.8862 139.012 79.5342C139.012 79.2356 138.91 79.0062 138.708 78.8462C138.516 78.6756 138.212 78.5476 137.796 78.4622L136.308 78.1582C135.646 78.0089 135.145 77.7636 134.804 77.4222C134.473 77.0702 134.308 76.6222 134.308 76.0782C134.308 75.5982 134.436 75.1822 134.692 74.8302C134.958 74.4676 135.326 74.1902 135.796 73.9982C136.265 73.8062 136.804 73.7102 137.412 73.7102C137.881 73.7102 138.324 73.7742 138.74 73.9022C139.166 74.0196 139.55 74.2009 139.892 74.4462C140.02 74.5209 140.1 74.6169 140.132 74.7342C140.174 74.8409 140.18 74.9529 140.148 75.0702C140.126 75.1769 140.078 75.2676 140.004 75.3422C139.929 75.4169 139.833 75.4649 139.716 75.4862C139.598 75.4969 139.47 75.4649 139.332 75.3902C139.022 75.1769 138.702 75.0276 138.372 74.9422C138.052 74.8462 137.732 74.7982 137.412 74.7982C136.836 74.7982 136.398 74.9102 136.1 75.1342C135.812 75.3582 135.668 75.6516 135.668 76.0142C135.668 76.2916 135.753 76.5209 135.924 76.7022C136.105 76.8836 136.388 77.0169 136.772 77.1022L138.26 77.4062C138.953 77.5556 139.476 77.7956 139.828 78.1262C140.18 78.4462 140.356 78.8836 140.356 79.4382C140.356 80.1636 140.068 80.7396 139.492 81.1662C138.926 81.5822 138.164 81.7902 137.204 81.7902ZM142.97 81.7262C142.746 81.7262 142.57 81.6569 142.442 81.5182C142.314 81.3796 142.25 81.1876 142.25 80.9422V74.5582C142.25 74.3022 142.314 74.1102 142.442 73.9822C142.57 73.8436 142.746 73.7742 142.97 73.7742C143.205 73.7742 143.386 73.8436 143.514 73.9822C143.642 74.1102 143.706 74.3022 143.706 74.5582V80.9422C143.706 81.1876 143.642 81.3796 143.514 81.5182C143.397 81.6569 143.215 81.7262 142.97 81.7262ZM142.97 72.0462C142.682 72.0462 142.453 71.9716 142.282 71.8222C142.122 71.6622 142.042 71.4542 142.042 71.1982C142.042 70.9209 142.122 70.7129 142.282 70.5742C142.453 70.4249 142.682 70.3502 142.97 70.3502C143.279 70.3502 143.509 70.4249 143.658 70.5742C143.818 70.7129 143.898 70.9209 143.898 71.1982C143.898 71.4542 143.818 71.6622 143.658 71.8222C143.509 71.9716 143.279 72.0462 142.97 72.0462ZM149.279 81.7902C148.65 81.7902 148.122 81.6782 147.695 81.4542C147.279 81.2302 146.964 80.9049 146.751 80.4782C146.548 80.0516 146.447 79.5289 146.447 78.9102V74.9742H145.423C145.231 74.9742 145.082 74.9262 144.975 74.8302C144.868 74.7236 144.815 74.5849 144.815 74.4142C144.815 74.2329 144.868 74.0942 144.975 73.9982C145.082 73.9022 145.231 73.8542 145.423 73.8542H146.447V72.1102C146.447 71.8649 146.511 71.6836 146.639 71.5662C146.767 71.4382 146.948 71.3742 147.183 71.3742C147.418 71.3742 147.594 71.4382 147.711 71.5662C147.839 71.6836 147.903 71.8649 147.903 72.1102V73.8542H149.839C150.042 73.8542 150.196 73.9022 150.303 73.9982C150.41 74.0942 150.463 74.2329 150.463 74.4142C150.463 74.5849 150.41 74.7236 150.303 74.8302C150.196 74.9262 150.042 74.9742 149.839 74.9742H147.903V78.7822C147.903 79.3689 148.026 79.8116 148.271 80.1102C148.516 80.4089 148.922 80.5582 149.487 80.5582C149.69 80.5582 149.86 80.5422 149.999 80.5102C150.138 80.4676 150.26 80.4462 150.367 80.4462C150.463 80.4356 150.543 80.4676 150.607 80.5422C150.682 80.6169 150.719 80.7556 150.719 80.9582C150.719 81.1076 150.692 81.2462 150.639 81.3742C150.596 81.4916 150.506 81.5716 150.367 81.6142C150.239 81.6569 150.068 81.6942 149.855 81.7262C149.642 81.7689 149.45 81.7902 149.279 81.7902ZM158.433 81.7902C157.9 81.7902 157.414 81.6836 156.977 81.4702C156.55 81.2569 156.214 80.9689 155.969 80.6062C155.734 80.2436 155.617 79.8382 155.617 79.3902C155.617 78.8142 155.761 78.3609 156.049 78.0302C156.337 77.6996 156.822 77.4649 157.505 77.3262C158.188 77.1769 159.105 77.1022 160.257 77.1022H161.009V78.0302H160.289C159.468 78.0302 158.817 78.0676 158.337 78.1422C157.868 78.2169 157.537 78.3502 157.345 78.5422C157.153 78.7236 157.057 78.9796 157.057 79.3102C157.057 79.7262 157.201 80.0676 157.489 80.3342C157.788 80.6009 158.193 80.7342 158.705 80.7342C159.11 80.7342 159.468 80.6382 159.777 80.4462C160.086 80.2436 160.332 79.9769 160.513 79.6462C160.694 79.3049 160.785 78.9156 160.785 78.4782V76.6382C160.785 76.0089 160.657 75.5556 160.401 75.2782C160.145 74.9902 159.713 74.8462 159.105 74.8462C158.753 74.8462 158.39 74.8942 158.017 74.9902C157.644 75.0862 157.254 75.2356 156.849 75.4382C156.689 75.5129 156.55 75.5396 156.433 75.5182C156.316 75.4862 156.22 75.4222 156.145 75.3262C156.081 75.2196 156.044 75.1076 156.033 74.9902C156.033 74.8622 156.06 74.7396 156.113 74.6222C156.177 74.5049 156.284 74.4196 156.433 74.3662C156.902 74.1316 157.366 73.9662 157.825 73.8702C158.294 73.7636 158.732 73.7102 159.137 73.7102C159.83 73.7102 160.401 73.8222 160.849 74.0462C161.297 74.2596 161.633 74.5956 161.857 75.0542C162.081 75.5022 162.193 76.0782 162.193 76.7822V81.0062C162.193 81.2516 162.134 81.4382 162.017 81.5662C161.9 81.6942 161.729 81.7582 161.505 81.7582C161.292 81.7582 161.121 81.6942 160.993 81.5662C160.876 81.4382 160.817 81.2516 160.817 81.0062V79.8702H160.961C160.876 80.2649 160.716 80.6062 160.481 80.8942C160.246 81.1822 159.953 81.4062 159.601 81.5662C159.26 81.7156 158.87 81.7902 158.433 81.7902ZM165.236 81.7582C165.012 81.7582 164.836 81.6942 164.708 81.5662C164.58 81.4382 164.516 81.2516 164.516 81.0062V74.4782C164.516 74.2329 164.58 74.0516 164.708 73.9342C164.836 73.8062 165.012 73.7422 165.236 73.7422C165.46 73.7422 165.631 73.8062 165.748 73.9342C165.876 74.0516 165.94 74.2329 165.94 74.4782V75.8382L165.764 75.5502C165.967 74.9636 166.292 74.5102 166.74 74.1902C167.199 73.8702 167.743 73.7102 168.372 73.7102C169.034 73.7102 169.567 73.8702 169.972 74.1902C170.378 74.4996 170.65 74.9742 170.788 75.6142H170.564C170.756 75.0276 171.098 74.5636 171.588 74.2222C172.09 73.8809 172.671 73.7102 173.332 73.7102C173.919 73.7102 174.399 73.8276 174.772 74.0622C175.156 74.2862 175.444 74.6276 175.636 75.0862C175.828 75.5342 175.924 76.1102 175.924 76.8142V81.0062C175.924 81.2516 175.86 81.4382 175.732 81.5662C175.604 81.6942 175.428 81.7582 175.204 81.7582C174.97 81.7582 174.788 81.6942 174.66 81.5662C174.532 81.4382 174.468 81.2516 174.468 81.0062V76.8782C174.468 76.1956 174.351 75.6942 174.116 75.3742C173.882 75.0542 173.487 74.8942 172.932 74.8942C172.324 74.8942 171.839 75.1076 171.476 75.5342C171.124 75.9502 170.948 76.5262 170.948 77.2622V81.0062C170.948 81.2516 170.884 81.4382 170.756 81.5662C170.639 81.6942 170.463 81.7582 170.228 81.7582C169.994 81.7582 169.812 81.6942 169.684 81.5662C169.556 81.4382 169.492 81.2516 169.492 81.0062V76.8782C169.492 76.1956 169.375 75.6942 169.14 75.3742C168.906 75.0542 168.511 74.8942 167.956 74.8942C167.348 74.8942 166.863 75.1076 166.5 75.5342C166.148 75.9502 165.972 76.5262 165.972 77.2622V81.0062C165.972 81.5076 165.727 81.7582 165.236 81.7582ZM181.866 81.7902C181.023 81.7902 180.298 81.6302 179.69 81.3102C179.092 80.9796 178.628 80.5156 178.298 79.9182C177.967 79.3102 177.802 78.5956 177.802 77.7742C177.802 76.9636 177.962 76.2542 178.282 75.6462C178.612 75.0382 179.06 74.5636 179.626 74.2222C180.202 73.8809 180.858 73.7102 181.594 73.7102C182.116 73.7102 182.586 73.8009 183.002 73.9822C183.428 74.1529 183.791 74.4036 184.09 74.7342C184.388 75.0649 184.612 75.4702 184.762 75.9502C184.922 76.4196 185.002 76.9529 185.002 77.5502C185.002 77.7209 184.948 77.8542 184.842 77.9502C184.746 78.0356 184.602 78.0782 184.41 78.0782H178.938V77.1502H184.042L183.77 77.3742C183.77 76.8196 183.684 76.3502 183.514 75.9662C183.354 75.5716 183.114 75.2729 182.794 75.0702C182.484 74.8676 182.095 74.7662 181.626 74.7662C181.114 74.7662 180.676 74.8889 180.314 75.1342C179.951 75.3689 179.674 75.7049 179.482 76.1422C179.29 76.5689 179.194 77.0649 179.194 77.6302V77.7262C179.194 78.6862 179.423 79.4116 179.882 79.9022C180.34 80.3929 181.002 80.6382 181.866 80.6382C182.207 80.6382 182.554 80.5956 182.906 80.5102C183.268 80.4249 183.615 80.2702 183.946 80.0462C184.106 79.9502 184.25 79.9076 184.378 79.9182C184.516 79.9182 184.628 79.9609 184.714 80.0462C184.799 80.1209 184.852 80.2169 184.874 80.3342C184.895 80.4409 184.879 80.5582 184.826 80.6862C184.772 80.8142 184.671 80.9262 184.522 81.0222C184.17 81.2676 183.748 81.4596 183.258 81.5982C182.778 81.7262 182.314 81.7902 181.866 81.7902ZM187.533 81.7582C187.309 81.7582 187.133 81.6942 187.005 81.5662C186.877 81.4382 186.813 81.2516 186.813 81.0062V74.4782C186.813 74.2329 186.877 74.0516 187.005 73.9342C187.133 73.8062 187.309 73.7422 187.533 73.7422C187.757 73.7422 187.927 73.8062 188.045 73.9342C188.173 74.0516 188.237 74.2329 188.237 74.4782V75.7902L188.061 75.5502C188.285 74.9422 188.647 74.4836 189.149 74.1742C189.661 73.8649 190.242 73.7102 190.893 73.7102C191.522 73.7102 192.039 73.8222 192.445 74.0462C192.85 74.2702 193.154 74.6116 193.357 75.0702C193.559 75.5289 193.661 76.1102 193.661 76.8142V81.0062C193.661 81.2516 193.597 81.4382 193.469 81.5662C193.351 81.6942 193.175 81.7582 192.941 81.7582C192.706 81.7582 192.525 81.6942 192.397 81.5662C192.269 81.4382 192.205 81.2516 192.205 81.0062V76.8942C192.205 76.2009 192.071 75.6942 191.805 75.3742C191.538 75.0542 191.111 74.8942 190.525 74.8942C189.842 74.8942 189.293 75.1076 188.877 75.5342C188.471 75.9502 188.269 76.5156 188.269 77.2302V81.0062C188.269 81.5076 188.023 81.7582 187.533 81.7582ZM199.201 81.7902C198.571 81.7902 198.043 81.6782 197.617 81.4542C197.201 81.2302 196.886 80.9049 196.673 80.4782C196.47 80.0516 196.369 79.5289 196.369 78.9102V74.9742H195.345C195.153 74.9742 195.003 74.9262 194.897 74.8302C194.79 74.7236 194.737 74.5849 194.737 74.4142C194.737 74.2329 194.79 74.0942 194.897 73.9982C195.003 73.9022 195.153 73.8542 195.345 73.8542H196.369V72.1102C196.369 71.8649 196.433 71.6836 196.561 71.5662C196.689 71.4382 196.87 71.3742 197.105 71.3742C197.339 71.3742 197.515 71.4382 197.633 71.5662C197.761 71.6836 197.825 71.8649 197.825 72.1102V73.8542H199.761C199.963 73.8542 200.118 73.9022 200.225 73.9982C200.331 74.0942 200.385 74.2329 200.385 74.4142C200.385 74.5849 200.331 74.7236 200.225 74.8302C200.118 74.9262 199.963 74.9742 199.761 74.9742H197.825V78.7822C197.825 79.3689 197.947 79.8116 198.193 80.1102C198.438 80.4089 198.843 80.5582 199.409 80.5582C199.611 80.5582 199.782 80.5422 199.921 80.5102C200.059 80.4676 200.182 80.4462 200.289 80.4462C200.385 80.4356 200.465 80.4676 200.529 80.5422C200.603 80.6169 200.641 80.7556 200.641 80.9582C200.641 81.1076 200.614 81.2462 200.561 81.3742C200.518 81.4916 200.427 81.5716 200.289 81.6142C200.161 81.6569 199.99 81.6942 199.777 81.7262C199.563 81.7689 199.371 81.7902 199.201 81.7902Z" fill="#0F1415"/>
<path d="M44.8783 109.244C44.6543 109.244 44.4816 109.183 44.3603 109.062C44.2389 108.941 44.1783 108.768 44.1783 108.544V100.074C44.1783 99.8499 44.2389 99.6772 44.3603 99.5559C44.4816 99.4346 44.6543 99.3739 44.8783 99.3739H50.0303C50.2076 99.3739 50.3429 99.4206 50.4363 99.5139C50.5389 99.5979 50.5903 99.7239 50.5903 99.8919C50.5903 100.069 50.5389 100.205 50.4363 100.298C50.3429 100.391 50.2076 100.438 50.0303 100.438H45.4383V103.7H49.7363C49.9136 103.7 50.0489 103.747 50.1423 103.84C50.2356 103.933 50.2823 104.064 50.2823 104.232C50.2823 104.409 50.2356 104.545 50.1423 104.638C50.0489 104.722 49.9136 104.764 49.7363 104.764H45.4383V108.18H50.0303C50.2076 108.18 50.3429 108.227 50.4363 108.32C50.5389 108.404 50.5903 108.535 50.5903 108.712C50.5903 108.889 50.5389 109.025 50.4363 109.118C50.3429 109.202 50.2076 109.244 50.0303 109.244H44.8783ZM55.2247 111.89C54.7207 111.89 54.2307 111.834 53.7547 111.722C53.2881 111.61 52.8634 111.437 52.4807 111.204C52.3594 111.129 52.2754 111.041 52.2287 110.938C52.1914 110.845 52.1821 110.747 52.2007 110.644C52.2287 110.541 52.2754 110.448 52.3407 110.364C52.4154 110.289 52.4994 110.238 52.5927 110.21C52.6954 110.191 52.7981 110.215 52.9007 110.28C53.3114 110.513 53.7034 110.672 54.0767 110.756C54.4501 110.84 54.8047 110.882 55.1407 110.882C55.8034 110.882 56.2981 110.709 56.6247 110.364C56.9607 110.028 57.1287 109.533 57.1287 108.88V107.368H57.2547C57.1241 107.891 56.8301 108.306 56.3727 108.614C55.9247 108.922 55.4021 109.076 54.8047 109.076C54.1887 109.076 53.6521 108.936 53.1947 108.656C52.7374 108.367 52.3827 107.97 52.1307 107.466C51.8787 106.953 51.7527 106.36 51.7527 105.688C51.7527 105.175 51.8227 104.713 51.9627 104.302C52.1121 103.882 52.3174 103.527 52.5787 103.238C52.8494 102.939 53.1714 102.711 53.5447 102.552C53.9181 102.384 54.3381 102.3 54.8047 102.3C55.4114 102.3 55.9387 102.454 56.3867 102.762C56.8347 103.07 57.1241 103.485 57.2547 104.008L57.1007 104.204V102.972C57.1007 102.757 57.1567 102.599 57.2687 102.496C57.3807 102.384 57.5394 102.328 57.7447 102.328C57.9407 102.328 58.0947 102.384 58.2067 102.496C58.3187 102.599 58.3747 102.757 58.3747 102.972V108.712C58.3747 109.767 58.1041 110.56 57.5627 111.092C57.0307 111.624 56.2514 111.89 55.2247 111.89ZM55.0847 108.068C55.5047 108.068 55.8641 107.975 56.1627 107.788C56.4707 107.592 56.7041 107.317 56.8627 106.962C57.0307 106.598 57.1147 106.173 57.1147 105.688C57.1147 104.951 56.9327 104.372 56.5687 103.952C56.2047 103.523 55.7101 103.308 55.0847 103.308C54.6647 103.308 54.3007 103.406 53.9927 103.602C53.6941 103.789 53.4607 104.059 53.2927 104.414C53.1247 104.769 53.0407 105.193 53.0407 105.688C53.0407 106.416 53.2227 106.995 53.5867 107.424C53.9601 107.853 54.4594 108.068 55.0847 108.068ZM63.5665 109.37C62.8292 109.37 62.1945 109.23 61.6625 108.95C61.1399 108.661 60.7339 108.255 60.4445 107.732C60.1552 107.2 60.0105 106.575 60.0105 105.856C60.0105 105.147 60.1505 104.526 60.4305 103.994C60.7199 103.462 61.1119 103.047 61.6065 102.748C62.1105 102.449 62.6845 102.3 63.3285 102.3C63.7859 102.3 64.1965 102.379 64.5605 102.538C64.9339 102.687 65.2512 102.907 65.5125 103.196C65.7739 103.485 65.9699 103.84 66.1005 104.26C66.2405 104.671 66.3105 105.137 66.3105 105.66C66.3105 105.809 66.2639 105.926 66.1705 106.01C66.0865 106.085 65.9605 106.122 65.7925 106.122H61.0045V105.31H65.4705L65.2325 105.506C65.2325 105.021 65.1579 104.61 65.0085 104.274C64.8685 103.929 64.6585 103.667 64.3785 103.49C64.1079 103.313 63.7672 103.224 63.3565 103.224C62.9085 103.224 62.5259 103.331 62.2085 103.546C61.8912 103.751 61.6485 104.045 61.4805 104.428C61.3125 104.801 61.2285 105.235 61.2285 105.73V105.814C61.2285 106.654 61.4292 107.289 61.8305 107.718C62.2319 108.147 62.8105 108.362 63.5665 108.362C63.8652 108.362 64.1685 108.325 64.4765 108.25C64.7939 108.175 65.0972 108.04 65.3865 107.844C65.5265 107.76 65.6525 107.723 65.7645 107.732C65.8859 107.732 65.9839 107.769 66.0585 107.844C66.1332 107.909 66.1799 107.993 66.1985 108.096C66.2172 108.189 66.2032 108.292 66.1565 108.404C66.1099 108.516 66.0212 108.614 65.8905 108.698C65.5825 108.913 65.2139 109.081 64.7845 109.202C64.3645 109.314 63.9585 109.37 63.5665 109.37ZM70.247 109.37C69.827 109.37 69.4024 109.323 68.973 109.23C68.553 109.127 68.1564 108.955 67.783 108.712C67.6804 108.647 67.6057 108.567 67.559 108.474C67.5217 108.371 67.5077 108.273 67.517 108.18C67.5357 108.077 67.5777 107.989 67.643 107.914C67.7084 107.839 67.7877 107.797 67.881 107.788C67.9837 107.769 68.091 107.793 68.203 107.858C68.567 108.063 68.917 108.208 69.253 108.292C69.5984 108.376 69.939 108.418 70.275 108.418C70.7884 108.418 71.1757 108.325 71.437 108.138C71.6984 107.951 71.829 107.704 71.829 107.396C71.829 107.135 71.7404 106.934 71.563 106.794C71.395 106.645 71.129 106.533 70.765 106.458L69.463 106.192C68.8844 106.061 68.4457 105.847 68.147 105.548C67.8577 105.24 67.713 104.848 67.713 104.372C67.713 103.952 67.825 103.588 68.049 103.28C68.2824 102.963 68.6044 102.72 69.015 102.552C69.4257 102.384 69.897 102.3 70.429 102.3C70.8397 102.3 71.227 102.356 71.591 102.468C71.9644 102.571 72.3004 102.729 72.599 102.944C72.711 103.009 72.781 103.093 72.809 103.196C72.8464 103.289 72.851 103.387 72.823 103.49C72.8044 103.583 72.7624 103.663 72.697 103.728C72.6317 103.793 72.5477 103.835 72.445 103.854C72.3424 103.863 72.2304 103.835 72.109 103.77C71.8384 103.583 71.5584 103.453 71.269 103.378C70.989 103.294 70.709 103.252 70.429 103.252C69.925 103.252 69.5424 103.35 69.281 103.546C69.029 103.742 68.903 103.999 68.903 104.316C68.903 104.559 68.9777 104.759 69.127 104.918C69.2857 105.077 69.533 105.193 69.869 105.268L71.171 105.534C71.7777 105.665 72.235 105.875 72.543 106.164C72.851 106.444 73.005 106.827 73.005 107.312C73.005 107.947 72.753 108.451 72.249 108.824C71.7544 109.188 71.087 109.37 70.247 109.37ZM77.4223 109.37C76.8716 109.37 76.4096 109.272 76.0363 109.076C75.6723 108.88 75.3969 108.595 75.2103 108.222C75.0329 107.849 74.9443 107.391 74.9443 106.85V103.406H74.0483C73.8803 103.406 73.7496 103.364 73.6563 103.28C73.5629 103.187 73.5163 103.065 73.5163 102.916C73.5163 102.757 73.5629 102.636 73.6563 102.552C73.7496 102.468 73.8803 102.426 74.0483 102.426H74.9443V100.9C74.9443 100.685 75.0003 100.527 75.1123 100.424C75.2243 100.312 75.3829 100.256 75.5883 100.256C75.7936 100.256 75.9476 100.312 76.0503 100.424C76.1623 100.527 76.2183 100.685 76.2183 100.9V102.426H77.9123C78.0896 102.426 78.2249 102.468 78.3183 102.552C78.4116 102.636 78.4583 102.757 78.4583 102.916C78.4583 103.065 78.4116 103.187 78.3183 103.28C78.2249 103.364 78.0896 103.406 77.9123 103.406H76.2183V106.738C76.2183 107.251 76.3256 107.639 76.5403 107.9C76.7549 108.161 77.1096 108.292 77.6043 108.292C77.7816 108.292 77.9309 108.278 78.0523 108.25C78.1736 108.213 78.2809 108.194 78.3743 108.194C78.4583 108.185 78.5283 108.213 78.5843 108.278C78.6496 108.343 78.6823 108.465 78.6823 108.642C78.6823 108.773 78.6589 108.894 78.6123 109.006C78.5749 109.109 78.4956 109.179 78.3743 109.216C78.2623 109.253 78.1129 109.286 77.9263 109.314C77.7396 109.351 77.5716 109.37 77.4223 109.37ZM81.7818 109.37C81.3152 109.37 80.8905 109.277 80.5078 109.09C80.1345 108.903 79.8405 108.651 79.6258 108.334C79.4205 108.017 79.3178 107.662 79.3178 107.27C79.3178 106.766 79.4438 106.369 79.6958 106.08C79.9478 105.791 80.3725 105.585 80.9698 105.464C81.5672 105.333 82.3698 105.268 83.3778 105.268H84.0358V106.08H83.4058C82.6872 106.08 82.1178 106.113 81.6978 106.178C81.2872 106.243 80.9978 106.36 80.8298 106.528C80.6618 106.687 80.5778 106.911 80.5778 107.2C80.5778 107.564 80.7038 107.863 80.9558 108.096C81.2172 108.329 81.5718 108.446 82.0198 108.446C82.3745 108.446 82.6872 108.362 82.9578 108.194C83.2285 108.017 83.4432 107.783 83.6018 107.494C83.7605 107.195 83.8398 106.855 83.8398 106.472V104.862C83.8398 104.311 83.7278 103.915 83.5038 103.672C83.2798 103.42 82.9018 103.294 82.3698 103.294C82.0618 103.294 81.7445 103.336 81.4178 103.42C81.0912 103.504 80.7505 103.635 80.3958 103.812C80.2558 103.877 80.1345 103.901 80.0318 103.882C79.9292 103.854 79.8452 103.798 79.7798 103.714C79.7238 103.621 79.6912 103.523 79.6818 103.42C79.6818 103.308 79.7052 103.201 79.7518 103.098C79.8078 102.995 79.9012 102.921 80.0318 102.874C80.4425 102.669 80.8485 102.524 81.2498 102.44C81.6605 102.347 82.0432 102.3 82.3978 102.3C83.0045 102.3 83.5038 102.398 83.8958 102.594C84.2878 102.781 84.5818 103.075 84.7778 103.476C84.9738 103.868 85.0718 104.372 85.0718 104.988V108.684C85.0718 108.899 85.0205 109.062 84.9178 109.174C84.8152 109.286 84.6658 109.342 84.4698 109.342C84.2832 109.342 84.1338 109.286 84.0218 109.174C83.9192 109.062 83.8678 108.899 83.8678 108.684V107.69H83.9938C83.9192 108.035 83.7792 108.334 83.5738 108.586C83.3685 108.838 83.1118 109.034 82.8038 109.174C82.5052 109.305 82.1645 109.37 81.7818 109.37ZM89.4287 109.37C89.0087 109.37 88.584 109.323 88.1547 109.23C87.7347 109.127 87.338 108.955 86.9647 108.712C86.862 108.647 86.7874 108.567 86.7407 108.474C86.7034 108.371 86.6894 108.273 86.6987 108.18C86.7174 108.077 86.7594 107.989 86.8247 107.914C86.89 107.839 86.9694 107.797 87.0627 107.788C87.1654 107.769 87.2727 107.793 87.3847 107.858C87.7487 108.063 88.0987 108.208 88.4347 108.292C88.78 108.376 89.1207 108.418 89.4567 108.418C89.97 108.418 90.3574 108.325 90.6187 108.138C90.88 107.951 91.0107 107.704 91.0107 107.396C91.0107 107.135 90.922 106.934 90.7447 106.794C90.5767 106.645 90.3107 106.533 89.9467 106.458L88.6447 106.192C88.066 106.061 87.6274 105.847 87.3287 105.548C87.0394 105.24 86.8947 104.848 86.8947 104.372C86.8947 103.952 87.0067 103.588 87.2307 103.28C87.464 102.963 87.786 102.72 88.1967 102.552C88.6074 102.384 89.0787 102.3 89.6107 102.3C90.0214 102.3 90.4087 102.356 90.7727 102.468C91.146 102.571 91.482 102.729 91.7807 102.944C91.8927 103.009 91.9627 103.093 91.9907 103.196C92.028 103.289 92.0327 103.387 92.0047 103.49C91.986 103.583 91.944 103.663 91.8787 103.728C91.8134 103.793 91.7294 103.835 91.6267 103.854C91.524 103.863 91.412 103.835 91.2907 103.77C91.02 103.583 90.74 103.453 90.4507 103.378C90.1707 103.294 89.8907 103.252 89.6107 103.252C89.1067 103.252 88.724 103.35 88.4627 103.546C88.2107 103.742 88.0847 103.999 88.0847 104.316C88.0847 104.559 88.1594 104.759 88.3087 104.918C88.4674 105.077 88.7147 105.193 89.0507 105.268L90.3527 105.534C90.9594 105.665 91.4167 105.875 91.7247 106.164C92.0327 106.444 92.1867 106.827 92.1867 107.312C92.1867 107.947 91.9347 108.451 91.4307 108.824C90.936 109.188 90.2687 109.37 89.4287 109.37ZM99.8467 109.37C99.4267 109.37 99.002 109.323 98.5727 109.23C98.1527 109.127 97.756 108.955 97.3827 108.712C97.28 108.647 97.2053 108.567 97.1587 108.474C97.1213 108.371 97.1073 108.273 97.1167 108.18C97.1353 108.077 97.1773 107.989 97.2427 107.914C97.308 107.839 97.3873 107.797 97.4807 107.788C97.5833 107.769 97.6907 107.793 97.8027 107.858C98.1667 108.063 98.5167 108.208 98.8527 108.292C99.198 108.376 99.5387 108.418 99.8747 108.418C100.388 108.418 100.775 108.325 101.037 108.138C101.298 107.951 101.429 107.704 101.429 107.396C101.429 107.135 101.34 106.934 101.163 106.794C100.995 106.645 100.729 106.533 100.365 106.458L99.0627 106.192C98.484 106.061 98.0453 105.847 97.7467 105.548C97.4573 105.24 97.3127 104.848 97.3127 104.372C97.3127 103.952 97.4247 103.588 97.6487 103.28C97.882 102.963 98.204 102.72 98.6147 102.552C99.0253 102.384 99.4967 102.3 100.029 102.3C100.439 102.3 100.827 102.356 101.191 102.468C101.564 102.571 101.9 102.729 102.199 102.944C102.311 103.009 102.381 103.093 102.409 103.196C102.446 103.289 102.451 103.387 102.423 103.49C102.404 103.583 102.362 103.663 102.297 103.728C102.231 103.793 102.147 103.835 102.045 103.854C101.942 103.863 101.83 103.835 101.709 103.77C101.438 103.583 101.158 103.453 100.869 103.378C100.589 103.294 100.309 103.252 100.029 103.252C99.5247 103.252 99.142 103.35 98.8807 103.546C98.6287 103.742 98.5027 103.999 98.5027 104.316C98.5027 104.559 98.5773 104.759 98.7267 104.918C98.8853 105.077 99.1327 105.193 99.4687 105.268L100.771 105.534C101.377 105.665 101.835 105.875 102.143 106.164C102.451 106.444 102.605 106.827 102.605 107.312C102.605 107.947 102.353 108.451 101.849 108.824C101.354 109.188 100.687 109.37 99.8467 109.37ZM106.432 109.37C105.966 109.37 105.541 109.277 105.158 109.09C104.785 108.903 104.491 108.651 104.276 108.334C104.071 108.017 103.968 107.662 103.968 107.27C103.968 106.766 104.094 106.369 104.346 106.08C104.598 105.791 105.023 105.585 105.62 105.464C106.218 105.333 107.02 105.268 108.028 105.268H108.686V106.08H108.056C107.338 106.08 106.768 106.113 106.348 106.178C105.938 106.243 105.648 106.36 105.48 106.528C105.312 106.687 105.228 106.911 105.228 107.2C105.228 107.564 105.354 107.863 105.606 108.096C105.868 108.329 106.222 108.446 106.67 108.446C107.025 108.446 107.338 108.362 107.608 108.194C107.879 108.017 108.094 107.783 108.252 107.494C108.411 107.195 108.49 106.855 108.49 106.472V104.862C108.49 104.311 108.378 103.915 108.154 103.672C107.93 103.42 107.552 103.294 107.02 103.294C106.712 103.294 106.395 103.336 106.068 103.42C105.742 103.504 105.401 103.635 105.046 103.812C104.906 103.877 104.785 103.901 104.682 103.882C104.58 103.854 104.496 103.798 104.43 103.714C104.374 103.621 104.342 103.523 104.332 103.42C104.332 103.308 104.356 103.201 104.402 103.098C104.458 102.995 104.552 102.921 104.682 102.874C105.093 102.669 105.499 102.524 105.9 102.44C106.311 102.347 106.694 102.3 107.048 102.3C107.655 102.3 108.154 102.398 108.546 102.594C108.938 102.781 109.232 103.075 109.428 103.476C109.624 103.868 109.722 104.372 109.722 104.988V108.684C109.722 108.899 109.671 109.062 109.568 109.174C109.466 109.286 109.316 109.342 109.12 109.342C108.934 109.342 108.784 109.286 108.672 109.174C108.57 109.062 108.518 108.899 108.518 108.684V107.69H108.644C108.57 108.035 108.43 108.334 108.224 108.586C108.019 108.838 107.762 109.034 107.454 109.174C107.156 109.305 106.815 109.37 106.432 109.37ZM112.357 111.862C112.161 111.862 112.007 111.806 111.895 111.694C111.783 111.582 111.727 111.423 111.727 111.218V102.972C111.727 102.757 111.783 102.599 111.895 102.496C112.007 102.384 112.161 102.328 112.357 102.328C112.562 102.328 112.716 102.384 112.819 102.496C112.931 102.599 112.987 102.757 112.987 102.972V104.246L112.833 103.994C112.982 103.481 113.276 103.07 113.715 102.762C114.154 102.454 114.681 102.3 115.297 102.3C115.904 102.3 116.431 102.445 116.879 102.734C117.327 103.014 117.677 103.42 117.929 103.952C118.181 104.475 118.307 105.1 118.307 105.828C118.307 106.547 118.181 107.177 117.929 107.718C117.686 108.25 117.336 108.661 116.879 108.95C116.431 109.23 115.904 109.37 115.297 109.37C114.69 109.37 114.168 109.216 113.729 108.908C113.29 108.6 112.996 108.194 112.847 107.69H113.001V111.218C113.001 111.423 112.945 111.582 112.833 111.694C112.721 111.806 112.562 111.862 112.357 111.862ZM115.003 108.362C115.404 108.362 115.754 108.264 116.053 108.068C116.361 107.872 116.599 107.587 116.767 107.214C116.935 106.841 117.019 106.379 117.019 105.828C117.019 105.007 116.837 104.381 116.473 103.952C116.109 103.523 115.619 103.308 115.003 103.308C114.592 103.308 114.233 103.406 113.925 103.602C113.626 103.789 113.393 104.069 113.225 104.442C113.066 104.815 112.987 105.277 112.987 105.828C112.987 106.649 113.169 107.279 113.533 107.718C113.897 108.147 114.387 108.362 115.003 108.362ZM120.574 109.314C120.378 109.314 120.224 109.253 120.112 109.132C120 109.011 119.944 108.843 119.944 108.628V103.042C119.944 102.818 120 102.65 120.112 102.538C120.224 102.417 120.378 102.356 120.574 102.356C120.779 102.356 120.938 102.417 121.05 102.538C121.162 102.65 121.218 102.818 121.218 103.042V108.628C121.218 108.843 121.162 109.011 121.05 109.132C120.947 109.253 120.789 109.314 120.574 109.314ZM120.574 100.844C120.322 100.844 120.121 100.779 119.972 100.648C119.832 100.508 119.762 100.326 119.762 100.102C119.762 99.8592 119.832 99.6772 119.972 99.5559C120.121 99.4252 120.322 99.3599 120.574 99.3599C120.845 99.3599 121.045 99.4252 121.176 99.5559C121.316 99.6772 121.386 99.8592 121.386 100.102C121.386 100.326 121.316 100.508 121.176 100.648C121.045 100.779 120.845 100.844 120.574 100.844ZM126.416 109.37C125.679 109.37 125.044 109.23 124.512 108.95C123.989 108.661 123.583 108.255 123.294 107.732C123.005 107.2 122.86 106.575 122.86 105.856C122.86 105.147 123 104.526 123.28 103.994C123.569 103.462 123.961 103.047 124.456 102.748C124.96 102.449 125.534 102.3 126.178 102.3C126.635 102.3 127.046 102.379 127.41 102.538C127.783 102.687 128.101 102.907 128.362 103.196C128.623 103.485 128.819 103.84 128.95 104.26C129.09 104.671 129.16 105.137 129.16 105.66C129.16 105.809 129.113 105.926 129.02 106.01C128.936 106.085 128.81 106.122 128.642 106.122H123.854V105.31H128.32L128.082 105.506C128.082 105.021 128.007 104.61 127.858 104.274C127.718 103.929 127.508 103.667 127.228 103.49C126.957 103.313 126.617 103.224 126.206 103.224C125.758 103.224 125.375 103.331 125.058 103.546C124.741 103.751 124.498 104.045 124.33 104.428C124.162 104.801 124.078 105.235 124.078 105.73V105.814C124.078 106.654 124.279 107.289 124.68 107.718C125.081 108.147 125.66 108.362 126.416 108.362C126.715 108.362 127.018 108.325 127.326 108.25C127.643 108.175 127.947 108.04 128.236 107.844C128.376 107.76 128.502 107.723 128.614 107.732C128.735 107.732 128.833 107.769 128.908 107.844C128.983 107.909 129.029 107.993 129.048 108.096C129.067 108.189 129.053 108.292 129.006 108.404C128.959 108.516 128.871 108.614 128.74 108.698C128.432 108.913 128.063 109.081 127.634 109.202C127.214 109.314 126.808 109.37 126.416 109.37ZM131.375 109.342C131.179 109.342 131.025 109.286 130.913 109.174C130.801 109.062 130.745 108.899 130.745 108.684V102.972C130.745 102.757 130.801 102.599 130.913 102.496C131.025 102.384 131.179 102.328 131.375 102.328C131.571 102.328 131.72 102.384 131.823 102.496C131.935 102.599 131.991 102.757 131.991 102.972V104.12L131.837 103.91C132.033 103.378 132.35 102.977 132.789 102.706C133.237 102.435 133.745 102.3 134.315 102.3C134.865 102.3 135.318 102.398 135.673 102.594C136.027 102.79 136.293 103.089 136.471 103.49C136.648 103.891 136.737 104.4 136.737 105.016V108.684C136.737 108.899 136.681 109.062 136.569 109.174C136.466 109.286 136.312 109.342 136.107 109.342C135.901 109.342 135.743 109.286 135.631 109.174C135.519 109.062 135.463 108.899 135.463 108.684V105.086C135.463 104.479 135.346 104.036 135.113 103.756C134.879 103.476 134.506 103.336 133.993 103.336C133.395 103.336 132.915 103.523 132.551 103.896C132.196 104.26 132.019 104.755 132.019 105.38V108.684C132.019 109.123 131.804 109.342 131.375 109.342ZM144.997 109.342C144.819 109.342 144.665 109.295 144.535 109.202C144.404 109.109 144.292 108.959 144.199 108.754L141.819 103.21C141.753 103.051 141.73 102.907 141.749 102.776C141.767 102.645 141.828 102.538 141.931 102.454C142.043 102.37 142.192 102.328 142.379 102.328C142.537 102.328 142.663 102.365 142.757 102.44C142.85 102.515 142.939 102.645 143.023 102.832L145.221 108.25H144.829L147.083 102.832C147.157 102.645 147.241 102.515 147.335 102.44C147.437 102.365 147.577 102.328 147.755 102.328C147.913 102.328 148.035 102.37 148.119 102.454C148.212 102.538 148.268 102.645 148.287 102.776C148.305 102.907 148.277 103.047 148.203 103.196L145.809 108.754C145.725 108.959 145.613 109.109 145.473 109.202C145.342 109.295 145.183 109.342 144.997 109.342ZM150.283 109.314C150.087 109.314 149.933 109.253 149.821 109.132C149.709 109.011 149.653 108.843 149.653 108.628V103.042C149.653 102.818 149.709 102.65 149.821 102.538C149.933 102.417 150.087 102.356 150.283 102.356C150.488 102.356 150.647 102.417 150.759 102.538C150.871 102.65 150.927 102.818 150.927 103.042V108.628C150.927 108.843 150.871 109.011 150.759 109.132C150.656 109.253 150.498 109.314 150.283 109.314ZM150.283 100.844C150.031 100.844 149.83 100.779 149.681 100.648C149.541 100.508 149.471 100.326 149.471 100.102C149.471 99.8592 149.541 99.6772 149.681 99.5559C149.83 99.4252 150.031 99.3599 150.283 99.3599C150.554 99.3599 150.754 99.4252 150.885 99.5559C151.025 99.6772 151.095 99.8592 151.095 100.102C151.095 100.326 151.025 100.508 150.885 100.648C150.754 100.779 150.554 100.844 150.283 100.844ZM155.565 109.342C155.388 109.342 155.234 109.295 155.103 109.202C154.972 109.109 154.86 108.959 154.767 108.754L152.387 103.21C152.322 103.051 152.298 102.907 152.317 102.776C152.336 102.645 152.396 102.538 152.499 102.454C152.611 102.37 152.76 102.328 152.947 102.328C153.106 102.328 153.232 102.365 153.325 102.44C153.418 102.515 153.507 102.645 153.591 102.832L155.789 108.25H155.397L157.651 102.832C157.726 102.645 157.81 102.515 157.903 102.44C158.006 102.365 158.146 102.328 158.323 102.328C158.482 102.328 158.603 102.37 158.687 102.454C158.78 102.538 158.836 102.645 158.855 102.776C158.874 102.907 158.846 103.047 158.771 103.196L156.377 108.754C156.293 108.959 156.181 109.109 156.041 109.202C155.91 109.295 155.752 109.342 155.565 109.342ZM163.262 109.37C162.525 109.37 161.89 109.23 161.358 108.95C160.835 108.661 160.429 108.255 160.14 107.732C159.851 107.2 159.706 106.575 159.706 105.856C159.706 105.147 159.846 104.526 160.126 103.994C160.415 103.462 160.807 103.047 161.302 102.748C161.806 102.449 162.38 102.3 163.024 102.3C163.481 102.3 163.892 102.379 164.256 102.538C164.629 102.687 164.947 102.907 165.208 103.196C165.469 103.485 165.665 103.84 165.796 104.26C165.936 104.671 166.006 105.137 166.006 105.66C166.006 105.809 165.959 105.926 165.866 106.01C165.782 106.085 165.656 106.122 165.488 106.122H160.7V105.31H165.166L164.928 105.506C164.928 105.021 164.853 104.61 164.704 104.274C164.564 103.929 164.354 103.667 164.074 103.49C163.803 103.313 163.463 103.224 163.052 103.224C162.604 103.224 162.221 103.331 161.904 103.546C161.587 103.751 161.344 104.045 161.176 104.428C161.008 104.801 160.924 105.235 160.924 105.73V105.814C160.924 106.654 161.125 107.289 161.526 107.718C161.927 108.147 162.506 108.362 163.262 108.362C163.561 108.362 163.864 108.325 164.172 108.25C164.489 108.175 164.793 108.04 165.082 107.844C165.222 107.76 165.348 107.723 165.46 107.732C165.581 107.732 165.679 107.769 165.754 107.844C165.829 107.909 165.875 107.993 165.894 108.096C165.913 108.189 165.899 108.292 165.852 108.404C165.805 108.516 165.717 108.614 165.586 108.698C165.278 108.913 164.909 109.081 164.48 109.202C164.06 109.314 163.654 109.37 163.262 109.37ZM168.248 109.342C168.034 109.342 167.87 109.286 167.758 109.174C167.646 109.062 167.59 108.899 167.59 108.684V102.972C167.59 102.757 167.646 102.599 167.758 102.496C167.87 102.384 168.024 102.328 168.22 102.328C168.416 102.328 168.566 102.384 168.668 102.496C168.78 102.599 168.836 102.757 168.836 102.972V104.05H168.696C168.846 103.49 169.126 103.065 169.536 102.776C169.947 102.487 170.465 102.323 171.09 102.286C171.24 102.277 171.361 102.314 171.454 102.398C171.548 102.473 171.599 102.603 171.608 102.79C171.618 102.967 171.576 103.112 171.482 103.224C171.389 103.327 171.244 103.387 171.048 103.406L170.796 103.42C170.18 103.485 169.704 103.686 169.368 104.022C169.042 104.358 168.878 104.82 168.878 105.408V108.684C168.878 108.899 168.822 109.062 168.71 109.174C168.608 109.286 168.454 109.342 168.248 109.342ZM173.362 109.342C173.147 109.342 172.984 109.286 172.872 109.174C172.76 109.062 172.704 108.899 172.704 108.684V102.972C172.704 102.757 172.76 102.599 172.872 102.496C172.984 102.384 173.138 102.328 173.334 102.328C173.53 102.328 173.679 102.384 173.782 102.496C173.894 102.599 173.95 102.757 173.95 102.972V104.05H173.81C173.959 103.49 174.239 103.065 174.65 102.776C175.06 102.487 175.578 102.323 176.204 102.286C176.353 102.277 176.474 102.314 176.568 102.398C176.661 102.473 176.712 102.603 176.722 102.79C176.731 102.967 176.689 103.112 176.596 103.224C176.502 103.327 176.358 103.387 176.162 103.406L175.91 103.42C175.294 103.485 174.818 103.686 174.482 104.022C174.155 104.358 173.992 104.82 173.992 105.408V108.684C173.992 108.899 173.936 109.062 173.824 109.174C173.721 109.286 173.567 109.342 173.362 109.342ZM179.919 109.37C179.452 109.37 179.027 109.277 178.645 109.09C178.271 108.903 177.977 108.651 177.763 108.334C177.557 108.017 177.455 107.662 177.455 107.27C177.455 106.766 177.581 106.369 177.833 106.08C178.085 105.791 178.509 105.585 179.107 105.464C179.704 105.333 180.507 105.268 181.515 105.268H182.173V106.08H181.543C180.824 106.08 180.255 106.113 179.835 106.178C179.424 106.243 179.135 106.36 178.967 106.528C178.799 106.687 178.715 106.911 178.715 107.2C178.715 107.564 178.841 107.863 179.093 108.096C179.354 108.329 179.709 108.446 180.157 108.446C180.511 108.446 180.824 108.362 181.095 108.194C181.365 108.017 181.58 107.783 181.739 107.494C181.897 107.195 181.977 106.855 181.977 106.472V104.862C181.977 104.311 181.865 103.915 181.641 103.672C181.417 103.42 181.039 103.294 180.507 103.294C180.199 103.294 179.881 103.336 179.555 103.42C179.228 103.504 178.887 103.635 178.533 103.812C178.393 103.877 178.271 103.901 178.169 103.882C178.066 103.854 177.982 103.798 177.917 103.714C177.861 103.621 177.828 103.523 177.819 103.42C177.819 103.308 177.842 103.201 177.889 103.098C177.945 102.995 178.038 102.921 178.169 102.874C178.579 102.669 178.985 102.524 179.387 102.44C179.797 102.347 180.18 102.3 180.535 102.3C181.141 102.3 181.641 102.398 182.033 102.594C182.425 102.781 182.719 103.075 182.915 103.476C183.111 103.868 183.209 104.372 183.209 104.988V108.684C183.209 108.899 183.157 109.062 183.055 109.174C182.952 109.286 182.803 109.342 182.607 109.342C182.42 109.342 182.271 109.286 182.159 109.174C182.056 109.062 182.005 108.899 182.005 108.684V107.69H182.131C182.056 108.035 181.916 108.334 181.711 108.586C181.505 108.838 181.249 109.034 180.941 109.174C180.642 109.305 180.301 109.37 179.919 109.37ZM189.494 109.342C189.298 109.342 189.144 109.286 189.032 109.174C188.92 109.062 188.864 108.899 188.864 108.684V102.972C188.864 102.757 188.92 102.599 189.032 102.496C189.144 102.384 189.298 102.328 189.494 102.328C189.69 102.328 189.839 102.384 189.942 102.496C190.054 102.599 190.11 102.757 190.11 102.972V104.12L189.956 103.91C190.152 103.378 190.469 102.977 190.908 102.706C191.356 102.435 191.864 102.3 192.434 102.3C192.984 102.3 193.437 102.398 193.792 102.594C194.146 102.79 194.412 103.089 194.59 103.49C194.767 103.891 194.856 104.4 194.856 105.016V108.684C194.856 108.899 194.8 109.062 194.688 109.174C194.585 109.286 194.431 109.342 194.226 109.342C194.02 109.342 193.862 109.286 193.75 109.174C193.638 109.062 193.582 108.899 193.582 108.684V105.086C193.582 104.479 193.465 104.036 193.232 103.756C192.998 103.476 192.625 103.336 192.112 103.336C191.514 103.336 191.034 103.523 190.67 103.896C190.315 104.26 190.138 104.755 190.138 105.38V108.684C190.138 109.123 189.923 109.342 189.494 109.342ZM200.026 109.37C199.288 109.37 198.654 109.23 198.122 108.95C197.599 108.661 197.193 108.255 196.904 107.732C196.614 107.2 196.47 106.575 196.47 105.856C196.47 105.147 196.61 104.526 196.89 103.994C197.179 103.462 197.571 103.047 198.066 102.748C198.57 102.449 199.144 102.3 199.788 102.3C200.245 102.3 200.656 102.379 201.02 102.538C201.393 102.687 201.71 102.907 201.972 103.196C202.233 103.485 202.429 103.84 202.56 104.26C202.7 104.671 202.77 105.137 202.77 105.66C202.77 105.809 202.723 105.926 202.63 106.01C202.546 106.085 202.42 106.122 202.252 106.122H197.464V105.31H201.93L201.692 105.506C201.692 105.021 201.617 104.61 201.468 104.274C201.328 103.929 201.118 103.667 200.838 103.49C200.567 103.313 200.226 103.224 199.816 103.224C199.368 103.224 198.985 103.331 198.668 103.546C198.35 103.751 198.108 104.045 197.94 104.428C197.772 104.801 197.688 105.235 197.688 105.73V105.814C197.688 106.654 197.888 107.289 198.29 107.718C198.691 108.147 199.27 108.362 200.026 108.362C200.324 108.362 200.628 108.325 200.936 108.25C201.253 108.175 201.556 108.04 201.846 107.844C201.986 107.76 202.112 107.723 202.224 107.732C202.345 107.732 202.443 107.769 202.518 107.844C202.592 107.909 202.639 107.993 202.658 108.096C202.676 108.189 202.662 108.292 202.616 108.404C202.569 108.516 202.48 108.614 202.35 108.698C202.042 108.913 201.673 109.081 201.244 109.202C200.824 109.314 200.418 109.37 200.026 109.37ZM209.884 111.862C209.679 111.862 209.52 111.806 209.408 111.694C209.305 111.582 209.254 111.423 209.254 111.218V107.69H209.408C209.259 108.194 208.965 108.6 208.526 108.908C208.087 109.216 207.565 109.37 206.958 109.37C206.351 109.37 205.819 109.23 205.362 108.95C204.914 108.661 204.564 108.25 204.312 107.718C204.069 107.177 203.948 106.547 203.948 105.828C203.948 105.1 204.074 104.475 204.326 103.952C204.578 103.42 204.928 103.014 205.376 102.734C205.833 102.445 206.361 102.3 206.958 102.3C207.565 102.3 208.087 102.454 208.526 102.762C208.974 103.07 209.268 103.481 209.408 103.994L209.254 104.246V102.972C209.254 102.757 209.31 102.599 209.422 102.496C209.534 102.384 209.688 102.328 209.884 102.328C210.089 102.328 210.248 102.384 210.36 102.496C210.472 102.599 210.528 102.757 210.528 102.972V111.218C210.528 111.423 210.472 111.582 210.36 111.694C210.248 111.806 210.089 111.862 209.884 111.862ZM207.252 108.362C207.663 108.362 208.017 108.264 208.316 108.068C208.624 107.872 208.857 107.587 209.016 107.214C209.184 106.841 209.268 106.379 209.268 105.828C209.268 105.007 209.086 104.381 208.722 103.952C208.358 103.523 207.868 103.308 207.252 103.308C206.851 103.308 206.496 103.406 206.188 103.602C205.889 103.789 205.656 104.069 205.488 104.442C205.32 104.815 205.236 105.277 205.236 105.828C205.236 106.649 205.418 107.279 205.782 107.718C206.155 108.147 206.645 108.362 207.252 108.362ZM215.007 109.37C214.456 109.37 213.994 109.267 213.621 109.062C213.257 108.857 212.986 108.553 212.809 108.152C212.631 107.751 212.543 107.247 212.543 106.64V102.972C212.543 102.757 212.594 102.599 212.697 102.496C212.809 102.384 212.967 102.328 213.173 102.328C213.378 102.328 213.537 102.384 213.649 102.496C213.761 102.599 213.817 102.757 213.817 102.972V106.64C213.817 107.219 213.933 107.648 214.167 107.928C214.4 108.199 214.769 108.334 215.273 108.334C215.833 108.334 216.285 108.147 216.631 107.774C216.985 107.401 217.163 106.906 217.163 106.29V102.972C217.163 102.757 217.214 102.599 217.317 102.496C217.429 102.384 217.587 102.328 217.793 102.328C217.998 102.328 218.157 102.384 218.269 102.496C218.381 102.599 218.437 102.757 218.437 102.972V108.684C218.437 109.123 218.231 109.342 217.821 109.342C217.615 109.342 217.457 109.286 217.345 109.174C217.242 109.062 217.191 108.899 217.191 108.684V107.466L217.373 107.704C217.186 108.245 216.883 108.661 216.463 108.95C216.052 109.23 215.567 109.37 215.007 109.37ZM223.637 109.37C222.899 109.37 222.265 109.23 221.733 108.95C221.21 108.661 220.804 108.255 220.515 107.732C220.225 107.2 220.081 106.575 220.081 105.856C220.081 105.147 220.221 104.526 220.501 103.994C220.79 103.462 221.182 103.047 221.677 102.748C222.181 102.449 222.755 102.3 223.399 102.3C223.856 102.3 224.267 102.379 224.631 102.538C225.004 102.687 225.321 102.907 225.583 103.196C225.844 103.485 226.04 103.84 226.171 104.26C226.311 104.671 226.381 105.137 226.381 105.66C226.381 105.809 226.334 105.926 226.241 106.01C226.157 106.085 226.031 106.122 225.863 106.122H221.075V105.31H225.541L225.303 105.506C225.303 105.021 225.228 104.61 225.079 104.274C224.939 103.929 224.729 103.667 224.449 103.49C224.178 103.313 223.837 103.224 223.427 103.224C222.979 103.224 222.596 103.331 222.279 103.546C221.961 103.751 221.719 104.045 221.551 104.428C221.383 104.801 221.299 105.235 221.299 105.73V105.814C221.299 106.654 221.499 107.289 221.901 107.718C222.302 108.147 222.881 108.362 223.637 108.362C223.935 108.362 224.239 108.325 224.547 108.25C224.864 108.175 225.167 108.04 225.457 107.844C225.597 107.76 225.723 107.723 225.835 107.732C225.956 107.732 226.054 107.769 226.129 107.844C226.203 107.909 226.25 107.993 226.269 108.096C226.287 108.189 226.273 108.292 226.227 108.404C226.18 108.516 226.091 108.614 225.961 108.698C225.653 108.913 225.284 109.081 224.855 109.202C224.435 109.314 224.029 109.37 223.637 109.37ZM233.786 109.37C233.319 109.37 232.894 109.277 232.512 109.09C232.138 108.903 231.844 108.651 231.63 108.334C231.424 108.017 231.322 107.662 231.322 107.27C231.322 106.766 231.448 106.369 231.7 106.08C231.952 105.791 232.376 105.585 232.974 105.464C233.571 105.333 234.374 105.268 235.382 105.268H236.04V106.08H235.41C234.691 106.08 234.122 106.113 233.702 106.178C233.291 106.243 233.002 106.36 232.834 106.528C232.666 106.687 232.582 106.911 232.582 107.2C232.582 107.564 232.708 107.863 232.96 108.096C233.221 108.329 233.576 108.446 234.024 108.446C234.378 108.446 234.691 108.362 234.962 108.194C235.232 108.017 235.447 107.783 235.606 107.494C235.764 107.195 235.844 106.855 235.844 106.472V104.862C235.844 104.311 235.732 103.915 235.508 103.672C235.284 103.42 234.906 103.294 234.374 103.294C234.066 103.294 233.748 103.336 233.422 103.42C233.095 103.504 232.754 103.635 232.4 103.812C232.26 103.877 232.138 103.901 232.036 103.882C231.933 103.854 231.849 103.798 231.784 103.714C231.728 103.621 231.695 103.523 231.686 103.42C231.686 103.308 231.709 103.201 231.756 103.098C231.812 102.995 231.905 102.921 232.036 102.874C232.446 102.669 232.852 102.524 233.254 102.44C233.664 102.347 234.047 102.3 234.402 102.3C235.008 102.3 235.508 102.398 235.9 102.594C236.292 102.781 236.586 103.075 236.782 103.476C236.978 103.868 237.076 104.372 237.076 104.988V108.684C237.076 108.899 237.024 109.062 236.922 109.174C236.819 109.286 236.67 109.342 236.474 109.342C236.287 109.342 236.138 109.286 236.026 109.174C235.923 109.062 235.872 108.899 235.872 108.684V107.69H235.998C235.923 108.035 235.783 108.334 235.578 108.586C235.372 108.838 235.116 109.034 234.808 109.174C234.509 109.305 234.168 109.37 233.786 109.37ZM242.035 109.37C241.344 109.37 240.747 109.225 240.243 108.936C239.739 108.637 239.351 108.222 239.081 107.69C238.81 107.149 238.675 106.514 238.675 105.786C238.675 105.245 238.749 104.759 238.899 104.33C239.057 103.901 239.281 103.537 239.571 103.238C239.86 102.93 240.21 102.697 240.621 102.538C241.041 102.379 241.512 102.3 242.035 102.3C242.361 102.3 242.707 102.351 243.071 102.454C243.435 102.557 243.771 102.725 244.079 102.958C244.181 103.033 244.247 103.121 244.275 103.224C244.303 103.317 244.303 103.415 244.275 103.518C244.256 103.621 244.209 103.709 244.135 103.784C244.069 103.849 243.981 103.887 243.869 103.896C243.766 103.905 243.654 103.873 243.533 103.798C243.309 103.63 243.071 103.509 242.819 103.434C242.576 103.359 242.343 103.322 242.119 103.322C241.773 103.322 241.465 103.378 241.195 103.49C240.933 103.602 240.709 103.765 240.523 103.98C240.345 104.185 240.21 104.442 240.117 104.75C240.023 105.049 239.977 105.399 239.977 105.8C239.977 106.593 240.163 107.219 240.537 107.676C240.91 108.124 241.437 108.348 242.119 108.348C242.343 108.348 242.576 108.315 242.819 108.25C243.061 108.175 243.299 108.054 243.533 107.886C243.654 107.811 243.766 107.783 243.869 107.802C243.971 107.811 244.055 107.853 244.121 107.928C244.195 107.993 244.242 108.077 244.261 108.18C244.279 108.273 244.27 108.371 244.233 108.474C244.205 108.577 244.139 108.661 244.037 108.726C243.738 108.95 243.411 109.113 243.057 109.216C242.702 109.319 242.361 109.37 242.035 109.37ZM248.602 109.37C247.864 109.37 247.23 109.23 246.698 108.95C246.175 108.661 245.769 108.255 245.48 107.732C245.19 107.2 245.046 106.575 245.046 105.856C245.046 105.147 245.186 104.526 245.466 103.994C245.755 103.462 246.147 103.047 246.642 102.748C247.146 102.449 247.72 102.3 248.364 102.3C248.821 102.3 249.232 102.379 249.596 102.538C249.969 102.687 250.286 102.907 250.548 103.196C250.809 103.485 251.005 103.84 251.136 104.26C251.276 104.671 251.346 105.137 251.346 105.66C251.346 105.809 251.299 105.926 251.206 106.01C251.122 106.085 250.996 106.122 250.828 106.122H246.04V105.31H250.506L250.268 105.506C250.268 105.021 250.193 104.61 250.044 104.274C249.904 103.929 249.694 103.667 249.414 103.49C249.143 103.313 248.802 103.224 248.392 103.224C247.944 103.224 247.561 103.331 247.244 103.546C246.926 103.751 246.684 104.045 246.516 104.428C246.348 104.801 246.264 105.235 246.264 105.73V105.814C246.264 106.654 246.464 107.289 246.866 107.718C247.267 108.147 247.846 108.362 248.602 108.362C248.9 108.362 249.204 108.325 249.512 108.25C249.829 108.175 250.132 108.04 250.422 107.844C250.562 107.76 250.688 107.723 250.8 107.732C250.921 107.732 251.019 107.769 251.094 107.844C251.168 107.909 251.215 107.993 251.234 108.096C251.252 108.189 251.238 108.292 251.192 108.404C251.145 108.516 251.056 108.614 250.926 108.698C250.618 108.913 250.249 109.081 249.82 109.202C249.4 109.314 248.994 109.37 248.602 109.37ZM253.546 109.3C253.304 109.3 253.103 109.221 252.944 109.062C252.786 108.903 252.706 108.703 252.706 108.46C252.706 108.217 252.786 108.021 252.944 107.872C253.103 107.723 253.304 107.648 253.546 107.648C253.808 107.648 254.008 107.723 254.148 107.872C254.298 108.021 254.372 108.217 254.372 108.46C254.372 108.703 254.298 108.903 254.148 109.062C254.008 109.221 253.808 109.3 253.546 109.3Z" fill="#6C8184"/>
</g>
<defs>
<filter id="filter0_ddii_80_2383" x="0.597656" y="0.670654" width="334.805" height="168.963" filterUnits="userSpaceOnUse" color-interpolation-filters="sRGB">
<feFlood flood-opacity="0" result="BackgroundImageFix"/>
<feColorMatrix in="SourceAlpha" type="matrix" values="0 0 0 0 0 0 0 0 0 0 0 0 0 0 0 0 0 0 127 0" result="hardAlpha"/>
<feOffset dy="4"/>
<feGaussianBlur stdDeviation="2"/>
<feComposite in2="hardAlpha" operator="out"/>
<feColorMatrix type="matrix" values="0 0 0 0 0 0 0 0 0 0 0 0 0 0 0 0 0 0 0.1 0"/>
<feBlend mode="normal" in2="BackgroundImageFix" result="effect1_dropShadow_80_2383"/>
<feColorMatrix in="SourceAlpha" type="matrix" values="0 0 0 0 0 0 0 0 0 0 0 0 0 0 0 0 0 0 127 0" result="hardAlpha"/>
<feMorphology radius="12" operator="erode" in="SourceAlpha" result="effect2_dropShadow_80_2383"/>
<feOffset dy="12"/>
<feGaussianBlur stdDeviation="16"/>
<feComposite in2="hardAlpha" operator="out"/>
<feColorMatrix type="matrix" values="0 0 0 0 0 0 0 0 0 0 0 0 0 0 0 0 0 0 0.1 0"/>
<feBlend mode="normal" in2="effect1_dropShadow_80_2383" result="effect2_dropShadow_80_2383"/>
<feBlend mode="normal" in="SourceGraphic" in2="effect2_dropShadow_80_2383" result="shape"/>
<feColorMatrix in="SourceAlpha" type="matrix" values="0 0 0 0 0 0 0 0 0 0 0 0 0 0 0 0 0 0 127 0" result="hardAlpha"/>
<feOffset dy="6"/>
<feGaussianBlur stdDeviation="6"/>
<feComposite in2="hardAlpha" operator="arithmetic" k2="-1" k3="1"/>
<feColorMatrix type="matrix" values="0 0 0 0 1 0 0 0 0 1 0 0 0 0 1 0 0 0 0.04 0"/>
<feBlend mode="normal" in2="shape" result="effect3_innerShadow_80_2383"/>
<feColorMatrix in="SourceAlpha" type="matrix" values="0 0 0 0 0 0 0 0 0 0 0 0 0 0 0 0 0 0 127 0" result="hardAlpha"/>
<feOffset dy="1"/>
<feGaussianBlur stdDeviation="0.5"/>
<feComposite in2="hardAlpha" operator="arithmetic" k2="-1" k3="1"/>
<feColorMatrix type="matrix" values="0 0 0 0 1 0 0 0 0 1 0 0 0 0 1 0 0 0 0.2 0"/>
<feBlend mode="normal" in2="effect3_innerShadow_80_2383" result="effect4_innerShadow_80_2383"/>
</filter>
</defs>
</svg>
