<svg width="415" height="95" viewBox="0 0 415 95" fill="none" xmlns="http://www.w3.org/2000/svg">
<mask id="path-1-outside-1_158_695" maskUnits="userSpaceOnUse" x="-1.54492" y="-1" width="417" height="97" fill="black">
<rect fill="white" x="-1.54492" y="-1" width="417" height="97"/>
<path d="M0.294159 93V2.17969H34.8664C45.3209 2.17969 53.3938 4.29883 59.0852 8.53711C64.7766 12.7754 67.6223 18.7695 67.6223 26.5195C67.6223 30.8385 66.6535 34.6934 64.716 38.084C62.7785 41.4342 60.1548 44.0579 56.8449 45.9551C61.7694 47.5697 65.5839 50.1934 68.2883 53.8262C70.9927 57.459 72.3449 61.9193 72.3449 67.207C72.3449 72.4544 71.0735 77.0156 68.5305 80.8906C65.9875 84.7253 62.3749 87.7122 57.6926 89.8516C53.0103 91.9505 47.4804 93 41.1028 93H0.294159ZM24.2707 38.8105H33.2317C36.6626 38.8105 39.3065 38.1243 41.1633 36.752C43.0604 35.3392 44.009 33.3411 44.009 30.7578C44.009 28.3763 43.0604 26.4993 41.1633 25.127C39.2662 23.7546 36.6223 23.0684 33.2317 23.0684H24.2707V38.8105ZM24.2707 72.1113H34.8664C37.6112 72.1113 39.9524 71.8086 41.8899 71.2031C43.8274 70.5573 45.3007 69.6491 46.3098 68.4785C47.3189 67.2676 47.8235 65.8145 47.8235 64.1191C47.8235 62.4238 47.3794 61.0111 46.4914 59.8809C45.6034 58.7103 44.2916 57.8424 42.5559 57.2773C40.8606 56.6719 38.7818 56.3691 36.3195 56.3691H24.2707V72.1113ZM143.185 93H81.427V2.17969H105.404V72.1113H143.185V93ZM190.775 94.8164C183.832 94.8164 177.414 93.6458 171.521 91.3047C165.668 88.9232 160.562 85.6133 156.202 81.375C151.883 77.0964 148.533 72.0911 146.152 66.3594C143.77 60.6276 142.579 54.3711 142.579 47.5898C142.579 40.8086 143.77 34.5521 146.152 28.8203C148.533 23.0885 151.883 18.1035 156.202 13.8652C160.562 9.58659 165.668 6.27669 171.521 3.93555C177.414 1.55404 183.832 0.363281 190.775 0.363281C197.758 0.363281 204.176 1.55404 210.029 3.93555C215.881 6.27669 220.947 9.58659 225.226 13.8652C229.545 18.1035 232.895 23.0885 235.277 28.8203C237.658 34.5521 238.849 40.8086 238.849 47.5898C238.849 54.3711 237.658 60.6276 235.277 66.3594C232.895 72.0911 229.545 77.0964 225.226 81.375C220.947 85.6133 215.881 88.9232 210.029 91.3047C204.176 93.6458 197.758 94.8164 190.775 94.8164ZM190.775 73.9277C194.125 73.9277 197.233 73.2617 200.099 71.9297C202.965 70.5977 205.447 68.7409 207.546 66.3594C209.685 63.9375 211.34 61.1322 212.511 57.9434C213.722 54.7546 214.327 51.3034 214.327 47.5898C214.327 43.8763 213.722 40.4251 212.511 37.2363C211.34 34.0475 209.685 31.2624 207.546 28.8809C205.447 26.459 202.965 24.582 200.099 23.25C197.233 21.918 194.125 21.252 190.775 21.252C187.424 21.252 184.296 21.918 181.39 23.25C178.524 24.582 176.021 26.459 173.882 28.8809C171.743 31.2624 170.068 34.0475 168.857 37.2363C167.686 40.4251 167.101 43.8763 167.101 47.5898C167.101 51.3034 167.686 54.7546 168.857 57.9434C170.068 61.1322 171.743 63.9375 173.882 66.3594C176.021 68.7409 178.524 70.5977 181.39 71.9297C184.296 73.2617 187.424 73.9277 190.775 73.9277ZM312.05 28.3965C309.87 26.1361 307.206 24.3802 304.058 23.1289C300.909 21.8776 297.519 21.252 293.886 21.252C290.374 21.252 287.185 21.8574 284.32 23.0684C281.494 24.2389 279.052 25.9544 276.993 28.2148C274.975 30.4753 273.401 33.1797 272.271 36.3281C271.181 39.4766 270.636 43.0286 270.636 46.9844C270.636 51.0208 271.221 54.694 272.392 58.0039C273.562 61.3138 275.238 64.1595 277.417 66.541C279.597 68.8822 282.18 70.6986 285.167 71.9902C288.195 73.2819 291.545 73.9277 295.218 73.9277C297.963 73.9277 300.465 73.5645 302.726 72.8379C304.986 72.1113 306.984 71.0417 308.72 69.6289C310.456 68.2161 311.929 66.4805 313.14 64.4219C314.351 62.3229 315.279 59.9414 315.925 57.2773H294.189V39.1133H336.995L337.661 48.2559C337.661 55.1582 336.612 61.4753 334.513 67.207C332.454 72.8984 329.508 77.8027 325.673 81.9199C321.838 86.0371 317.257 89.2259 311.929 91.4863C306.641 93.7064 300.748 94.8164 294.249 94.8164C287.468 94.8164 281.151 93.6257 275.298 91.2441C269.486 88.8223 264.379 85.472 259.98 81.1934C255.62 76.8743 252.21 71.8288 249.747 66.0566C247.325 60.2845 246.114 54.0482 246.114 47.3477C246.114 40.7279 247.305 34.5723 249.687 28.8809C252.068 23.1895 255.398 18.2044 259.677 13.9258C263.956 9.64714 268.941 6.31706 274.632 3.93555C280.364 1.55404 286.56 0.363281 293.22 0.363281C299.476 0.363281 305.572 1.45312 311.505 3.63281C317.439 5.8125 322.767 8.92057 327.489 12.957L312.05 28.3965ZM343.111 82.5859L354.372 64.3008C357.319 66.6016 360.064 68.4785 362.607 69.9316C365.19 71.3848 367.693 72.4544 370.115 73.1406C372.577 73.7865 375.079 74.1094 377.622 74.1094C380.125 74.1094 382.264 73.8268 384.04 73.2617C385.816 72.6562 387.169 71.8086 388.097 70.7188C389.066 69.5885 389.55 68.2565 389.55 66.7227C389.55 64.7852 388.864 63.1302 387.491 61.7578C386.119 60.3854 384.282 59.1543 381.982 58.0645C379.721 56.9746 377.239 55.8848 374.534 54.7949C371.628 53.6243 368.661 52.3327 365.634 50.9199C362.607 49.4668 359.822 47.7109 357.279 45.6523C354.736 43.5938 352.677 41.0911 351.103 38.1445C349.529 35.1576 348.741 31.5247 348.741 27.2461C348.741 21.5951 350.154 16.7715 352.98 12.7754C355.846 8.73893 359.741 5.67122 364.665 3.57227C369.63 1.43294 375.241 0.363281 381.497 0.363281C386.059 0.363281 390.882 0.96875 395.968 2.17969C401.054 3.39062 406.2 5.28776 411.407 7.87109L402.083 27.125C399.177 25.349 395.988 23.9362 392.517 22.8867C389.086 21.7969 385.937 21.252 383.072 21.252C381.094 21.252 379.358 21.5143 377.865 22.0391C376.411 22.5638 375.281 23.3307 374.474 24.3398C373.667 25.3086 373.263 26.459 373.263 27.791C373.263 29.5671 373.949 31.1413 375.322 32.5137C376.694 33.8457 378.51 35.0768 380.771 36.207C383.031 37.3372 385.493 38.4876 388.157 39.6582C391.064 40.9095 394.031 42.3021 397.058 43.8359C400.126 45.3698 402.931 47.1862 405.474 49.2852C408.057 51.3841 410.136 53.9069 411.71 56.8535C413.284 59.7598 414.072 63.2513 414.072 67.3281C414.072 72.7773 412.578 77.5807 409.591 81.7383C406.644 85.8555 402.507 89.0645 397.179 91.3652C391.891 93.666 385.736 94.8164 378.712 94.8164C372.173 94.8164 365.876 93.7669 359.822 91.668C353.767 89.569 348.197 86.5417 343.111 82.5859Z"/>
</mask>
<path d="M0.294159 93H-0.55249V93.8466H0.294159V93ZM0.294159 2.17969V1.33304H-0.55249V2.17969H0.294159ZM64.716 38.084L65.449 38.5078L65.4511 38.504L64.716 38.084ZM56.8449 45.9551L56.4239 45.2205L54.7731 46.1668L56.5812 46.7596L56.8449 45.9551ZM68.5305 80.8906L69.2361 81.3586L69.2383 81.3551L68.5305 80.8906ZM57.6926 89.8516L58.0389 90.6242L58.0444 90.6216L57.6926 89.8516ZM24.2707 38.8105H23.4241V39.6572H24.2707V38.8105ZM41.1633 36.752L41.6665 37.4328L41.669 37.431L41.1633 36.752ZM24.2707 23.0684V22.2217H23.4241V23.0684H24.2707ZM24.2707 72.1113H23.4241V72.958H24.2707V72.1113ZM41.8899 71.2031L42.1424 72.0112L42.15 72.0089L42.1576 72.0063L41.8899 71.2031ZM46.3098 68.4785L46.951 69.0313L46.9557 69.026L46.9602 69.0205L46.3098 68.4785ZM46.4914 59.8809L45.8169 60.3926L45.8212 60.3983L45.8257 60.4039L46.4914 59.8809ZM42.5559 57.2773L42.2711 58.0747L42.2824 58.0787L42.2938 58.0824L42.5559 57.2773ZM24.2707 56.3691V55.5225H23.4241V56.3691H24.2707ZM1.14081 93V2.17969H-0.55249V93H1.14081ZM0.294159 3.02634H34.8664V1.33304H0.294159V3.02634ZM34.8664 3.02634C45.2211 3.02634 53.0888 5.12736 58.5795 9.21616L59.5908 7.85806C53.6987 3.4703 45.4206 1.33304 34.8664 1.33304V3.02634ZM58.5795 9.21616C64.0344 13.2784 66.7756 19.0085 66.7756 26.5195H68.4689C68.4689 18.5306 65.5187 12.2724 59.5908 7.85806L58.5795 9.21616ZM66.7756 26.5195C66.7756 30.7072 65.8378 34.4144 63.9809 37.6639L65.4511 38.504C67.4693 34.9723 68.4689 30.9699 68.4689 26.5195H66.7756ZM63.9831 37.6601C62.1192 40.8831 59.6023 43.3988 56.4239 45.2205L57.266 46.6896C60.7073 44.7171 63.4378 41.9854 65.4489 38.5078L63.9831 37.6601ZM56.5812 46.7596C61.3645 48.3279 65.0236 50.8586 67.6092 54.3317L68.9674 53.3206C66.1441 49.5281 62.1744 46.8114 57.1087 45.1506L56.5812 46.7596ZM67.6092 54.3317C70.1873 57.795 71.4983 62.0698 71.4983 67.207H73.1916C73.1916 61.7687 71.7981 57.123 68.9674 53.3206L67.6092 54.3317ZM71.4983 67.207C71.4983 72.3119 70.2635 76.7068 67.8226 80.4261L69.2383 81.3551C71.8835 77.3245 73.1916 72.597 73.1916 67.207H71.4983ZM67.8249 80.4227C65.3794 84.1103 61.8968 86.9998 57.3408 89.0815L58.0444 90.6216C62.853 88.4246 66.5956 85.3402 69.2361 81.3585L67.8249 80.4227ZM57.3463 89.079C52.796 91.1188 47.3892 92.1534 41.1028 92.1534V93.8466C47.5716 93.8466 53.2246 92.7823 58.0389 90.6241L57.3463 89.079ZM41.1028 92.1534H0.294159V93.8466H41.1028V92.1534ZM24.2707 39.6572H33.2317V37.9639H24.2707V39.6572ZM33.2317 39.6572C36.76 39.6572 39.6086 38.9539 41.6665 37.4328L40.6601 36.0711C39.0044 37.2948 36.5653 37.9639 33.2317 37.9639V39.6572ZM41.669 37.431C43.8026 35.8422 44.8557 33.5801 44.8557 30.7578H43.1624C43.1624 33.1022 42.3183 34.8362 40.6576 36.0729L41.669 37.431ZM44.8557 30.7578C44.8557 28.1102 43.7812 25.9758 41.6595 24.441L40.6671 25.8129C42.3397 27.0229 43.1624 28.6424 43.1624 30.7578H44.8557ZM41.6595 24.441C39.5663 22.9268 36.7239 22.2217 33.2317 22.2217V23.915C36.5207 23.915 38.966 24.5824 40.6671 25.8129L41.6595 24.441ZM33.2317 22.2217H24.2707V23.915H33.2317V22.2217ZM23.4241 23.0684V38.8105H25.1174V23.0684H23.4241ZM24.2707 72.958H34.8664V71.2647H24.2707V72.958ZM34.8664 72.958C37.6688 72.958 40.1001 72.6494 42.1424 72.0112L41.6373 70.395C39.8046 70.9677 37.5536 71.2647 34.8664 71.2647V72.958ZM42.1576 72.0063C44.1946 71.3273 45.8151 70.349 46.951 69.0313L45.6685 67.9257C44.7862 68.9492 43.4601 69.7873 41.6221 70.3999L42.1576 72.0063ZM46.9602 69.0205C48.106 67.6455 48.6701 65.9964 48.6701 64.1191H46.9768C46.9768 65.6325 46.5318 66.8896 45.6594 67.9365L46.9602 69.0205ZM48.6701 64.1191C48.6701 62.2695 48.1825 60.6628 47.1572 59.3578L45.8257 60.4039C46.5764 61.3593 46.9768 62.5781 46.9768 64.1191H48.6701ZM47.1659 59.3692C46.1507 58.0309 44.6777 57.0778 42.818 56.4723L42.2938 58.0824C43.9054 58.6071 45.0561 59.3897 45.8169 60.3926L47.1659 59.3692ZM42.8406 56.48C41.0272 55.8324 38.8456 55.5225 36.3195 55.5225V57.2158C38.7179 57.2158 40.694 57.5114 42.2711 58.0747L42.8406 56.48ZM36.3195 55.5225H24.2707V57.2158H36.3195V55.5225ZM23.4241 56.3691V72.1113H25.1174V56.3691H23.4241ZM143.185 93V93.8466H144.031V93H143.185ZM81.427 93H80.5803V93.8466H81.427V93ZM81.427 2.17969V1.33304H80.5803V2.17969H81.427ZM105.404 2.17969H106.25V1.33304H105.404V2.17969ZM105.404 72.1113H104.557V72.958H105.404V72.1113ZM143.185 72.1113H144.031V71.2647H143.185V72.1113ZM143.185 92.1534H81.427V93.8466H143.185V92.1534ZM82.2736 93V2.17969H80.5803V93H82.2736ZM81.427 3.02634H105.404V1.33304H81.427V3.02634ZM104.557 2.17969V72.1113H106.25V2.17969H104.557ZM105.404 72.958H143.185V71.2647H105.404V72.958ZM142.338 72.1113V93H144.031V72.1113H142.338ZM171.521 91.3047L171.202 92.0889L171.208 92.0915L171.521 91.3047ZM156.202 81.375L155.606 81.9765L155.612 81.982L156.202 81.375ZM156.202 13.8652L156.795 14.4695L156.795 14.4695L156.202 13.8652ZM171.521 3.93555L171.835 4.72165L171.838 4.72052L171.521 3.93555ZM210.029 3.93555L209.709 4.71978L209.714 4.72164L210.029 3.93555ZM225.226 13.8652L224.627 14.4639L224.633 14.4695L225.226 13.8652ZM235.277 28.8203L234.495 29.1452L235.277 28.8203ZM235.277 66.3594L234.495 66.0345L235.277 66.3594ZM225.226 81.375L225.822 81.9765L225.822 81.9765L225.226 81.375ZM210.029 91.3047L210.343 92.0908L210.348 92.0889L210.029 91.3047ZM200.099 71.9297L200.456 72.6975L200.099 71.9297ZM207.546 66.3594L206.912 65.7989L206.911 65.7996L207.546 66.3594ZM212.511 57.9434L211.719 57.6428L211.716 57.6516L212.511 57.9434ZM212.511 37.2363L211.716 37.5281L211.719 37.5369L212.511 37.2363ZM207.546 28.8809L206.906 29.4354L206.911 29.441L206.916 29.4466L207.546 28.8809ZM200.099 23.25L200.456 22.4822L200.099 23.25ZM181.39 23.25L181.037 22.4803L181.033 22.4822L181.39 23.25ZM173.882 28.8809L174.512 29.4467L174.517 29.4414L173.882 28.8809ZM168.857 37.2363L168.065 36.9357L168.062 36.9446L168.857 37.2363ZM168.857 57.9434L168.062 58.2351L168.065 58.2439L168.857 57.9434ZM173.882 66.3594L173.247 66.9199L173.252 66.9252L173.882 66.3594ZM181.39 71.9297L181.033 72.6975L181.037 72.6993L181.39 71.9297ZM190.775 93.9698C183.929 93.9698 177.618 92.8159 171.833 90.5179L171.208 92.0915C177.21 94.4758 183.735 95.6631 190.775 95.6631V93.9698ZM171.84 90.5205C166.084 88.1784 161.071 84.9273 156.793 80.768L155.612 81.982C160.053 86.2993 165.252 89.668 171.202 92.0889L171.84 90.5205ZM156.798 80.7735C152.561 76.5755 149.273 71.6649 146.933 66.0345L145.37 66.6842C147.793 72.5174 151.206 77.6172 155.607 81.9765L156.798 80.7735ZM146.933 66.0345C144.599 60.4149 143.426 54.27 143.426 47.5898H141.733C141.733 54.4722 142.942 60.8403 145.37 66.6842L146.933 66.0345ZM143.426 47.5898C143.426 40.9097 144.599 34.7648 146.933 29.1452L145.37 28.4955C142.942 34.3394 141.733 40.7075 141.733 47.5898H143.426ZM146.933 29.1452C149.273 23.5155 152.56 18.6262 156.795 14.4695L155.609 13.2609C151.207 17.5808 147.794 22.6616 145.37 28.4955L146.933 29.1452ZM156.795 14.4695C161.072 10.2718 166.083 7.02255 171.835 4.72164L171.206 3.14945C165.253 5.53083 160.051 8.90138 155.609 13.261L156.795 14.4695ZM171.838 4.72052C177.621 2.38336 183.931 1.20993 190.775 1.20993V-0.483367C183.733 -0.483367 177.206 0.724714 171.204 3.15057L171.838 4.72052ZM190.775 1.20993C197.66 1.20993 203.968 2.38361 209.709 4.71976L210.348 3.15133C204.383 0.72446 197.856 -0.483367 190.775 -0.483367V1.20993ZM209.714 4.72164C215.465 7.02202 220.433 10.2697 224.627 14.4639L225.824 13.2666C221.461 8.90345 216.298 5.53137 210.343 3.14945L209.714 4.72164ZM224.633 14.4695C228.869 18.6262 232.156 23.5155 234.495 29.1452L236.058 28.4955C233.634 22.6616 230.221 17.5808 225.819 13.2609L224.633 14.4695ZM234.495 29.1452C236.83 34.7648 238.002 40.9097 238.002 47.5898H239.695C239.695 40.7075 238.487 34.3394 236.058 28.4955L234.495 29.1452ZM238.002 47.5898C238.002 54.27 236.83 60.4149 234.495 66.0345L236.058 66.6842C238.487 60.8403 239.695 54.4722 239.695 47.5898H238.002ZM234.495 66.0345C232.155 71.6649 228.868 76.5755 224.63 80.7735L225.822 81.9765C230.222 77.6172 233.635 72.5174 236.058 66.6842L234.495 66.0345ZM224.63 80.7735C220.435 84.9294 215.464 88.1789 209.709 90.5205L210.348 92.0889C216.299 89.6674 221.46 86.2972 225.822 81.9765L224.63 80.7735ZM209.714 90.5186C203.971 92.8156 197.662 93.9698 190.775 93.9698V95.6631C197.854 95.6631 204.38 94.476 210.343 92.0908L209.714 90.5186ZM190.775 74.7744C194.241 74.7744 197.471 74.0845 200.456 72.6975L199.742 71.1619C196.995 72.4389 194.009 73.0811 190.775 73.0811V74.7744ZM200.456 72.6975C203.428 71.3159 206.005 69.3881 208.181 66.9192L206.911 65.7996C204.889 68.0937 202.501 69.8795 199.742 71.1619L200.456 72.6975ZM208.181 66.9199C210.393 64.4152 212.101 61.5176 213.306 58.2351L211.716 57.6516C210.58 60.7468 208.978 63.4598 206.912 65.7989L208.181 66.9199ZM213.302 58.2439C214.553 54.9509 215.174 51.397 215.174 47.5898H213.481C213.481 51.2098 212.891 54.5582 211.719 57.6428L213.302 58.2439ZM215.174 47.5898C215.174 43.7827 214.553 40.2288 213.302 36.9358L211.719 37.5369C212.891 40.6215 213.481 43.9699 213.481 47.5898H215.174ZM213.306 36.9446C212.1 33.661 210.391 30.7814 208.176 28.3151L206.916 29.4466C208.979 31.7433 210.58 34.434 211.716 37.5281L213.306 36.9446ZM208.186 28.3264C206.01 25.8155 203.431 23.8653 200.456 22.4822L199.742 24.0178C202.498 25.2987 204.884 27.1024 206.906 29.4354L208.186 28.3264ZM200.456 22.4822C197.471 21.0951 194.241 20.4053 190.775 20.4053V22.0986C194.009 22.0986 196.995 22.7408 199.742 24.0178L200.456 22.4822ZM190.775 20.4053C187.309 20.4053 184.059 21.0951 181.037 22.4803L181.743 24.0197C184.533 22.7408 187.54 22.0986 190.775 22.0986V20.4053ZM181.033 22.4822C178.059 23.8646 175.462 25.813 173.248 28.3203L174.517 29.4414C176.58 27.105 178.989 25.2995 181.747 24.0178L181.033 22.4822ZM173.252 28.3151C171.039 30.7792 169.311 33.6558 168.065 36.9358L169.648 37.5369C170.824 34.4393 172.447 31.7455 174.512 29.4466L173.252 28.3151ZM168.062 36.9446C166.854 40.2352 166.254 43.786 166.254 47.5898H167.947C167.947 43.9666 168.518 40.6151 169.651 37.5281L168.062 36.9446ZM166.254 47.5898C166.254 51.3937 166.854 54.9445 168.062 58.2351L169.651 57.6516C168.518 54.5646 167.947 51.2131 167.947 47.5898H166.254ZM168.065 58.2439C169.31 61.5228 171.037 64.4174 173.248 66.9199L174.517 65.7989C172.449 63.4576 170.825 60.7416 169.648 57.6428L168.065 58.2439ZM173.252 66.9252C175.467 69.3906 178.062 71.3166 181.033 72.6975L181.747 71.1619C178.986 69.8787 176.576 68.0912 174.512 65.7936L173.252 66.9252ZM181.037 72.6993C184.059 74.0845 187.309 74.7744 190.775 74.7744V73.0811C187.54 73.0811 184.533 72.4389 181.743 71.16L181.037 72.6993ZM312.05 28.3965L311.441 28.9842L312.039 29.6048L312.649 28.9952L312.05 28.3965ZM284.32 23.0684L284.644 23.8506L284.649 23.8482L284.32 23.0684ZM276.993 28.2148L276.367 27.6447L276.362 27.651L276.993 28.2148ZM272.271 36.3281L271.474 36.0421L271.471 36.0512L272.271 36.3281ZM272.392 58.0039L271.594 58.2862L272.392 58.0039ZM277.417 66.541L276.793 67.1127L276.798 67.1179L277.417 66.541ZM285.167 71.9902L284.831 72.7673L284.835 72.769L285.167 71.9902ZM302.726 72.8379L302.985 73.6439L302.726 72.8379ZM313.14 64.4219L313.87 64.8512L313.873 64.845L313.14 64.4219ZM315.925 57.2773L316.748 57.4768L317.001 56.4307H315.925V57.2773ZM294.189 57.2773H293.342V58.124H294.189V57.2773ZM294.189 39.1133V38.2666H293.342V39.1133H294.189ZM336.995 39.1133L337.84 39.0518L337.783 38.2666H336.995V39.1133ZM337.661 48.2559H338.508V48.2251L338.506 48.1943L337.661 48.2559ZM334.513 67.207L333.718 66.9159L333.717 66.9191L334.513 67.207ZM311.929 91.4863L312.257 92.267L312.26 92.2657L311.929 91.4863ZM275.298 91.2441L274.972 92.0257L274.979 92.0284L275.298 91.2441ZM259.98 81.1934L259.384 81.7948L259.389 81.8003L259.98 81.1934ZM249.747 66.0566L248.967 66.3842L248.969 66.3888L249.747 66.0566ZM249.687 28.8809L248.906 28.554L249.687 28.8809ZM259.677 13.9258L259.078 13.3271L259.677 13.9258ZM274.632 3.93555L274.307 3.1537L274.305 3.15452L274.632 3.93555ZM327.489 12.957L328.088 13.5557L328.736 12.9083L328.04 12.3134L327.489 12.957ZM312.659 27.8088C310.39 25.455 307.622 23.6344 304.371 22.3421L303.745 23.9157C306.791 25.1261 309.351 26.8172 311.441 28.9842L312.659 27.8088ZM304.371 22.3421C301.116 21.0485 297.618 20.4053 293.886 20.4053V22.0986C297.419 22.0986 300.703 22.7067 303.745 23.9157L304.371 22.3421ZM293.886 20.4053C290.276 20.4053 286.973 21.0281 283.99 22.2885L284.649 23.8482C287.398 22.6867 290.473 22.0986 293.886 22.0986V20.4053ZM283.996 22.2862C281.055 23.5044 278.51 25.2923 276.367 27.6448L277.619 28.7849C279.594 26.6166 281.933 24.9735 284.644 23.8505L283.996 22.2862ZM276.362 27.651C274.264 30.0005 272.637 32.8019 271.474 36.0421L273.068 36.6142C274.165 33.5575 275.686 30.95 277.625 28.7787L276.362 27.651ZM271.471 36.0512C270.345 39.3036 269.789 42.9516 269.789 46.9844H271.483C271.483 43.1057 272.017 39.6495 273.071 36.6051L271.471 36.0512ZM269.789 46.9844C269.789 51.1028 270.387 54.8732 271.594 58.2862L273.19 57.7216C272.056 54.5148 271.483 50.9388 271.483 46.9844H269.789ZM271.594 58.2862C272.799 61.6938 274.53 64.6402 276.793 67.1126L278.042 65.9694C275.945 63.6788 274.326 60.9338 273.19 57.7216L271.594 58.2862ZM276.798 67.1179C279.058 69.5462 281.739 71.4301 284.831 72.7673L285.503 71.2131C282.622 69.9671 280.135 68.2181 278.037 65.9641L276.798 67.1179ZM284.835 72.769C287.979 74.1104 291.444 74.7744 295.218 74.7744V73.0811C291.646 73.0811 288.41 72.4534 285.499 71.2115L284.835 72.769ZM295.218 74.7744C298.037 74.7744 300.629 74.4012 302.985 73.6439L302.467 72.0319C300.302 72.7277 297.888 73.0811 295.218 73.0811V74.7744ZM302.985 73.6439C305.339 72.8871 307.432 71.7688 309.254 70.2855L308.185 68.9723C306.536 70.3146 304.633 71.3355 302.467 72.0319L302.985 73.6439ZM309.254 70.2855C311.073 68.805 312.611 66.9907 313.87 64.8511L312.41 63.9926C311.247 65.9703 309.838 67.6273 308.185 68.9723L309.254 70.2855ZM313.873 64.845C315.129 62.6676 316.085 60.2092 316.748 57.4768L315.102 57.0779C314.473 59.6736 313.572 61.9782 312.407 63.9988L313.873 64.845ZM315.925 56.4307H294.189V58.124H315.925V56.4307ZM295.035 57.2773V39.1133H293.342V57.2773H295.035ZM294.189 39.9599H336.995V38.2666H294.189V39.9599ZM336.151 39.1748L336.817 48.3174L338.506 48.1943L337.84 39.0518L336.151 39.1748ZM336.815 48.2559C336.815 55.0717 335.779 61.2888 333.718 66.9159L335.308 67.4982C337.445 61.6618 338.508 55.2447 338.508 48.2559H336.815ZM333.717 66.9191C331.694 72.5114 328.805 77.3153 325.054 81.3429L326.293 82.497C330.211 78.2901 333.215 73.2855 335.309 67.495L333.717 66.9191ZM325.054 81.3429C321.302 85.3706 316.82 88.4916 311.598 90.7069L312.26 92.2657C317.694 89.9603 322.375 86.7037 326.293 82.497L325.054 81.3429ZM311.601 90.7057C306.43 92.8767 300.65 93.9698 294.249 93.9698V95.6631C300.846 95.6631 306.852 94.536 312.257 92.267L311.601 90.7057ZM294.249 93.9698C287.569 93.9698 281.361 92.7973 275.617 90.4599L274.979 92.0284C280.94 94.454 287.367 95.6631 294.249 95.6631V93.9698ZM275.624 90.4626C269.907 88.0807 264.891 84.7888 260.57 80.5864L259.389 81.8003C263.868 86.1552 269.064 89.5639 274.972 92.0257L275.624 90.4626ZM260.576 80.5919C256.296 76.3517 252.946 71.3982 250.526 65.7244L248.969 66.3888C251.473 72.2594 254.945 77.397 259.384 81.7948L260.576 80.5919ZM250.528 65.7291C248.153 60.0678 246.961 53.9437 246.961 47.3477H245.268C245.268 54.1526 246.498 60.5012 248.967 66.3842L250.528 65.7291ZM246.961 47.3477C246.961 40.8318 248.133 34.7882 250.468 29.2077L248.906 28.554C246.478 34.3563 245.268 40.6239 245.268 47.3477H246.961ZM250.468 29.2077C252.808 23.6158 256.076 18.7237 260.276 14.5245L259.078 13.3271C254.72 17.6852 251.329 22.7631 248.906 28.554L250.468 29.2077ZM260.276 14.5245C264.475 10.3252 269.367 7.05642 274.959 4.71658L274.305 3.15452C268.514 5.5777 263.436 8.96902 259.078 13.3271L260.276 14.5245ZM274.957 4.71739C280.578 2.38171 286.663 1.20993 293.22 1.20993V-0.483367C286.457 -0.483367 280.149 0.726361 274.307 3.1537L274.957 4.71739ZM293.22 1.20993C299.376 1.20993 305.372 2.28183 311.213 4.42754L311.797 2.83809C305.771 0.624417 299.577 -0.483367 293.22 -0.483367V1.20993ZM311.213 4.42754C317.054 6.57319 322.294 9.63062 326.939 13.6006L328.04 12.3134C323.239 8.21052 317.823 5.05181 311.797 2.83809L311.213 4.42754ZM326.891 12.3584L311.451 27.7978L312.649 28.9952L328.088 13.5557L326.891 12.3584ZM343.111 82.5859L342.39 82.1419L341.992 82.7882L342.591 83.2542L343.111 82.5859ZM354.372 64.3008L354.893 63.6335L354.148 63.0512L353.651 63.8568L354.372 64.3008ZM362.607 69.9316L362.187 70.6668L362.192 70.6696L362.607 69.9316ZM370.115 73.1406L369.884 73.9552L369.892 73.9575L369.9 73.9596L370.115 73.1406ZM384.04 73.2617L384.297 74.0685L384.305 74.0659L384.313 74.0631L384.04 73.2617ZM388.097 70.7188L387.454 70.1678L387.452 70.1697L388.097 70.7188ZM387.491 61.7578L388.09 61.1591L387.491 61.7578ZM381.982 58.0645L381.614 58.8271L381.619 58.8296L381.982 58.0645ZM374.534 54.7949L374.851 54.0096L374.851 54.0096L374.534 54.7949ZM365.634 50.9199L365.268 51.6832L365.276 51.6871L365.634 50.9199ZM351.103 38.1445L350.354 38.5393L350.356 38.5435L351.103 38.1445ZM352.98 12.7754L352.289 12.2852L352.288 12.2866L352.98 12.7754ZM364.665 3.57227L364.997 4.35112L365 4.3498L364.665 3.57227ZM411.407 7.87109L412.169 8.24011L412.535 7.48536L411.784 7.11266L411.407 7.87109ZM402.083 27.125L401.642 27.8474L402.438 28.3342L402.845 27.494L402.083 27.125ZM392.517 22.8867L392.261 23.6937L392.272 23.6971L392.517 22.8867ZM377.865 22.0391L377.584 21.2403L377.577 21.2427L377.865 22.0391ZM374.474 24.3398L375.124 24.8819L375.13 24.8754L375.135 24.8687L374.474 24.3398ZM375.322 32.5137L374.723 33.1124L374.732 33.1212L375.322 32.5137ZM388.157 39.6582L387.817 40.4333L387.823 40.4358L388.157 39.6582ZM397.058 43.8359L396.675 44.5912L396.679 44.5932L397.058 43.8359ZM405.474 49.2852L404.935 49.9381L404.94 49.9423L405.474 49.2852ZM411.71 56.8535L410.963 57.2525L410.966 57.2568L411.71 56.8535ZM409.591 81.7383L408.903 81.2443L408.903 81.2455L409.591 81.7383ZM397.179 91.3652L396.843 90.588L396.841 90.5889L397.179 91.3652ZM343.831 83.0299L355.093 64.7448L353.651 63.8568L342.39 82.1419L343.831 83.0299ZM353.851 64.9681C356.822 67.2874 359.6 69.1889 362.187 70.6667L363.027 69.1965C360.527 67.7682 357.816 65.9157 354.893 63.6335L353.851 64.9681ZM362.192 70.6696C364.823 72.1498 367.387 73.2479 369.884 73.9552L370.345 72.326C367.998 71.6609 365.557 70.6197 363.022 69.1937L362.192 70.6696ZM369.9 73.9596C372.432 74.6238 375.007 74.956 377.622 74.956V73.2627C375.152 73.2627 372.721 72.9491 370.329 72.3217L369.9 73.9596ZM377.622 74.956C380.184 74.956 382.415 74.6673 384.297 74.0685L383.784 72.4549C382.113 72.9863 380.066 73.2627 377.622 73.2627V74.956ZM384.313 74.0631C386.19 73.4233 387.688 72.5043 388.741 71.2678L387.452 70.1697C386.649 71.1129 385.443 71.8892 383.767 72.4604L384.313 74.0631ZM388.74 71.2697C389.844 69.9811 390.397 68.4519 390.397 66.7227H388.703C388.703 68.0611 388.287 69.196 387.454 70.1678L388.74 71.2697ZM390.397 66.7227C390.397 64.5602 389.621 62.69 388.09 61.1591L386.893 62.3565C388.107 63.5704 388.703 65.0101 388.703 66.7227H390.397ZM388.09 61.1591C386.631 59.7005 384.707 58.4185 382.344 57.2993L381.619 58.8296C383.858 59.8901 385.607 61.0703 386.893 62.3565L388.09 61.1591ZM382.349 57.3018C380.07 56.2027 377.57 55.1054 374.851 54.0096L374.218 55.5802C376.908 56.6642 379.373 57.7465 381.614 58.8271L382.349 57.3018ZM374.851 54.0096C371.959 52.845 369.007 51.5595 365.992 50.1527L365.276 51.6871C368.316 53.1059 371.297 54.4037 374.218 55.5803L374.851 54.0096ZM366 50.1566C363.031 48.7313 360.302 47.0104 357.811 44.9943L356.746 46.3104C359.341 48.4115 362.183 50.2023 365.268 51.6832L366 50.1566ZM357.811 44.9943C355.358 43.0084 353.372 40.5945 351.85 37.7456L350.356 38.5435C351.982 41.5877 354.113 44.1791 356.746 46.3104L357.811 44.9943ZM351.852 37.7498C350.357 34.9127 349.588 31.4231 349.588 27.2461H347.895C347.895 31.6264 348.701 35.4024 350.354 38.5393L351.852 37.7498ZM349.588 27.2461C349.588 21.7421 350.962 17.0961 353.671 13.2642L352.288 12.2866C349.347 16.4469 347.895 21.448 347.895 27.2461H349.588ZM353.67 13.2655C356.438 9.36691 360.204 6.39395 364.997 4.35112L364.333 2.79341C359.277 4.9485 355.253 8.11096 352.289 12.2852L353.67 13.2655ZM365 4.3498C369.844 2.26268 375.338 1.20993 381.497 1.20993V-0.483367C375.144 -0.483367 369.416 0.603202 364.33 2.79473L365 4.3498ZM381.497 1.20993C385.984 1.20993 390.741 1.80549 395.772 3.00331L396.164 1.35606C391.023 0.132006 386.133 -0.483367 381.497 -0.483367V1.20993ZM395.772 3.00331C400.789 4.19786 405.875 6.07155 411.031 8.62953L411.784 7.11266C406.526 4.50397 401.319 2.58339 396.164 1.35606L395.772 3.00331ZM410.645 7.50208L401.321 26.756L402.845 27.494L412.169 8.24011L410.645 7.50208ZM402.525 26.4026C399.553 24.5866 396.298 23.1453 392.762 22.0763L392.272 23.6971C395.679 24.7271 398.801 26.1113 401.642 27.8474L402.525 26.4026ZM392.773 22.0798C389.28 20.9701 386.043 20.4053 383.072 20.4053V22.0986C385.831 22.0986 388.892 22.6237 392.261 23.6936L392.773 22.0798ZM383.072 20.4053C381.021 20.4053 379.187 20.6771 377.584 21.2403L378.145 22.8378C379.529 22.3516 381.166 22.0986 383.072 22.0986V20.4053ZM377.577 21.2427C376.006 21.81 374.735 22.658 373.813 23.8109L375.135 24.8687C375.827 24.0035 376.817 23.3176 378.152 22.8354L377.577 21.2427ZM373.823 23.7978C372.882 24.9278 372.416 26.273 372.416 27.791H374.11C374.11 26.645 374.451 25.6894 375.124 24.8819L373.823 23.7978ZM372.416 27.791C372.416 29.8135 373.208 31.5974 374.723 33.1123L375.92 31.915C374.69 30.6852 374.11 29.3206 374.11 27.791H372.416ZM374.732 33.1212C376.183 34.5295 378.077 35.807 380.392 36.9643L381.149 35.4498C378.943 34.3467 377.205 33.1619 375.911 31.9061L374.732 33.1212ZM380.392 36.9643C382.667 38.1016 385.142 39.2579 387.817 40.4333L388.498 38.8831C385.845 37.7173 383.396 36.5729 381.149 35.4498L380.392 36.9643ZM387.823 40.4358C390.712 41.6797 393.662 43.0647 396.675 44.5912L397.441 43.0807C394.399 41.5395 391.416 40.1393 388.492 38.8806L387.823 40.4358ZM396.679 44.5932C399.692 46.0996 402.443 47.8815 404.935 49.9381L406.013 48.6322C403.419 46.4909 400.559 44.64 397.436 43.0787L396.679 44.5932ZM404.94 49.9423C407.436 51.9699 409.442 54.4048 410.963 57.2525L412.457 56.4546C410.83 53.409 408.679 50.7983 406.008 48.6281L404.94 49.9423ZM410.966 57.2568C412.459 60.0135 413.225 63.3597 413.225 67.3281H414.918C414.918 63.1429 414.11 59.506 412.455 56.4503L410.966 57.2568ZM413.225 67.3281C413.225 72.6122 411.78 77.2402 408.903 81.2443L410.279 82.2323C413.376 77.9212 414.918 72.9425 414.918 67.3281H413.225ZM408.903 81.2455C406.058 85.2202 402.051 88.3391 396.843 90.588L397.515 92.1425C402.963 89.7898 407.231 86.4908 410.28 82.231L408.903 81.2455ZM396.841 90.5889C391.681 92.8344 385.644 93.9698 378.712 93.9698V95.6631C385.827 95.6631 392.102 94.4977 397.517 92.1416L396.841 90.5889ZM378.712 93.9698C372.266 93.9698 366.063 92.9354 360.099 90.868L359.544 92.4679C365.69 94.5984 372.081 95.6631 378.712 95.6631V93.9698ZM360.099 90.868C354.132 88.7996 348.644 85.8168 343.63 81.9176L342.591 83.2542C347.749 87.2665 353.402 90.3385 359.544 92.4679L360.099 90.868Z" fill="black" fill-opacity="0.15" mask="url(#path-1-outside-1_158_695)"/>
</svg>
