<svg width="413" height="356" viewBox="0 0 413 356" fill="none" xmlns="http://www.w3.org/2000/svg">
<path d="M0.320312 23.2675C0.320312 10.4172 10.7375 0 23.5878 0H389.733C402.583 0 413 10.4172 413 23.2675V332.391C413 345.241 402.583 355.659 389.733 355.659H23.5878C10.7375 355.659 0.320312 345.241 0.320312 332.391V23.2675Z" fill="#7030A0"/>
<path d="M36.9224 61.6128C35.1905 61.6128 33.4277 61.3809 31.6339 60.917C29.8402 60.4221 28.2784 59.6954 26.9485 58.7366C26.4537 58.4274 26.1135 58.0562 25.9279 57.6233C25.7733 57.1594 25.7424 56.7418 25.8351 56.3707C25.9279 55.9687 26.1135 55.6285 26.3918 55.3501C26.7011 55.0718 27.0722 54.9172 27.5052 54.8862C27.9382 54.8244 28.4175 54.9481 28.9433 55.2574C30.2731 56.0615 31.5721 56.6491 32.8401 57.0202C34.1081 57.3604 35.4225 57.5305 36.7832 57.5305C38.2677 57.5305 39.5203 57.314 40.5408 56.881C41.5614 56.448 42.3191 55.814 42.814 54.979C43.3397 54.144 43.6026 53.1389 43.6026 51.9637C43.6026 50.2008 43.015 48.8864 41.8398 48.0205C40.6955 47.1236 39.0254 46.6752 36.8296 46.6752H33.6751C32.9638 46.6752 32.4226 46.5051 32.0514 46.1649C31.6803 45.7938 31.4947 45.2835 31.4947 44.634C31.4947 44.0155 31.6803 43.5361 32.0514 43.1959C32.4226 42.8248 32.9638 42.6392 33.6751 42.6392H36.3657C37.6956 42.6392 38.8244 42.4227 39.7522 41.9898C40.68 41.5258 41.3913 40.8918 41.8862 40.0878C42.4119 39.2527 42.6748 38.2476 42.6748 37.0724C42.6748 35.4951 42.149 34.289 41.0975 33.4539C40.0769 32.588 38.577 32.155 36.5977 32.155C35.3297 32.155 34.1235 32.3251 32.9792 32.6653C31.8659 33.0055 30.7061 33.6086 29.5 34.4745C29.0361 34.7838 28.5876 34.923 28.1546 34.892C27.7526 34.8302 27.3969 34.6756 27.0877 34.4281C26.8093 34.1498 26.6083 33.8096 26.4846 33.4076C26.3918 33.0055 26.4227 32.588 26.5774 32.155C26.732 31.722 27.0413 31.3509 27.5052 31.0417C28.8041 30.0829 30.2731 29.3561 31.9123 28.8613C33.5514 28.3356 35.2369 28.0727 36.9688 28.0727C39.1337 28.0727 40.9893 28.4129 42.5356 29.0933C44.1129 29.7737 45.3036 30.7478 46.1077 32.0158C46.9427 33.2838 47.3602 34.7993 47.3602 36.5621C47.3602 37.8919 47.1128 39.0981 46.618 40.1805C46.1231 41.263 45.4118 42.1908 44.484 42.9639C43.5871 43.7062 42.4892 44.2319 41.1903 44.5412V44.0309C43.448 44.402 45.1953 45.3298 46.4324 46.8143C47.6695 48.2679 48.288 50.0926 48.288 52.2884C48.288 54.2058 47.8241 55.8759 46.8963 57.2985C45.9994 58.6902 44.7005 59.7572 42.9995 60.4995C41.2986 61.2417 39.2728 61.6128 36.9224 61.6128ZM65.2487 61.6128C61.4447 61.6128 58.5376 60.1747 56.5274 57.2985C54.548 54.3914 53.5584 50.2318 53.5584 44.8196C53.5584 41.1393 54.0068 38.062 54.9037 35.5879C55.8006 33.1138 57.115 31.2427 58.8469 29.9747C60.5788 28.7067 62.7127 28.0727 65.2487 28.0727C69.0837 28.0727 71.9908 29.4953 73.9701 32.3406C75.9494 35.1549 76.9391 39.2991 76.9391 44.7732C76.9391 48.3916 76.4906 51.4534 75.5937 53.9584C74.6969 56.4635 73.3825 58.3655 71.6506 59.6644C69.9187 60.9634 67.7847 61.6128 65.2487 61.6128ZM65.2487 57.6233C67.6301 57.6233 69.3775 56.5872 70.4908 54.5151C71.6351 52.4121 72.2073 49.1648 72.2073 44.7732C72.2073 40.3506 71.6351 37.1342 70.4908 35.124C69.3775 33.0828 67.6301 32.0622 65.2487 32.0622C62.8983 32.0622 61.1509 33.0828 60.0066 35.124C58.8623 37.1342 58.2902 40.3506 58.2902 44.7732C58.2902 49.1648 58.8623 52.4121 60.0066 54.5151C61.1509 56.5872 62.8983 57.6233 65.2487 57.6233ZM93.6678 61.0561C93.4204 61.52 93.0957 61.8293 92.6936 61.9839C92.3225 62.1386 91.9514 62.1695 91.5803 62.0767C91.2091 61.9839 90.8999 61.7984 90.6525 61.52C90.405 61.2417 90.2504 60.9015 90.1886 60.4995C90.1576 60.0974 90.2659 59.6644 90.5133 59.2005L108.049 28.7221C108.296 28.2273 108.605 27.9026 108.977 27.7479C109.379 27.5933 109.75 27.5624 110.09 27.6552C110.461 27.7479 110.77 27.9335 111.018 28.2118C111.296 28.4902 111.466 28.8304 111.528 29.2324C111.59 29.6345 111.482 30.0675 111.203 30.5314L93.6678 61.0561ZM89.5391 48.0669C87.0031 48.0669 85.0238 47.1855 83.6011 45.4226C82.1785 43.6289 81.4672 41.1702 81.4672 38.0466C81.4672 35.9436 81.7919 34.1498 82.4414 32.6653C83.0908 31.1808 84.0187 30.052 85.2248 29.2788C86.4309 28.4747 87.869 28.0727 89.5391 28.0727C92.0442 28.0727 94.008 28.9541 95.4307 30.7169C96.8842 32.4798 97.611 34.923 97.611 38.0466C97.611 40.1187 97.2863 41.9124 96.6368 43.4278C96.0183 44.9123 95.1059 46.0566 93.8998 46.8607C92.6936 47.6648 91.2401 48.0669 89.5391 48.0669ZM89.5391 44.7732C90.405 44.7732 91.1473 44.5258 91.7658 44.0309C92.3844 43.5361 92.8483 42.7938 93.1575 41.8042C93.4977 40.8145 93.6678 39.562 93.6678 38.0466C93.6678 35.7889 93.2967 34.1034 92.5545 32.99C91.8431 31.8767 90.838 31.32 89.5391 31.32C88.6731 31.32 87.9309 31.5674 87.3124 32.0622C86.6938 32.5571 86.2145 33.2993 85.8743 34.289C85.565 35.2786 85.4104 36.5312 85.4104 38.0466C85.4104 40.3352 85.766 42.0361 86.4773 43.1495C87.2196 44.2319 88.2402 44.7732 89.5391 44.7732ZM112.224 61.6128C109.719 61.6128 107.755 60.7314 106.332 58.9686C104.91 57.2058 104.198 54.7471 104.198 51.5925C104.198 49.5204 104.508 47.7421 105.126 46.2577C105.776 44.7732 106.703 43.6289 107.91 42.8248C109.116 42.0207 110.554 41.6186 112.224 41.6186C114.76 41.6186 116.739 42.5155 118.162 44.3093C119.585 46.0721 120.296 48.4998 120.296 51.5925C120.296 53.6956 119.971 55.5048 119.322 57.0202C118.703 58.5047 117.791 59.649 116.585 60.4531C115.378 61.2262 113.925 61.6128 112.224 61.6128ZM112.224 58.3655C113.09 58.3655 113.832 58.1181 114.451 57.6233C115.069 57.1284 115.533 56.3862 115.842 55.3965C116.183 54.3759 116.353 53.1079 116.353 51.5925C116.353 49.3658 115.982 47.6958 115.239 46.5824C114.528 45.469 113.523 44.9123 112.224 44.9123C111.389 44.9123 110.647 45.1598 109.997 45.6546C109.379 46.1494 108.899 46.8917 108.559 47.8813C108.25 48.871 108.095 50.108 108.095 51.5925C108.095 53.8811 108.466 55.5821 109.209 56.6955C109.951 57.8088 110.956 58.3655 112.224 58.3655Z" fill="#F9FBFB"/>
<path d="M27.7076 251.956C27.2383 251.956 26.8756 251.828 26.6196 251.572C26.3636 251.295 26.2356 250.911 26.2356 250.42V230.484C26.2356 229.972 26.3636 229.588 26.6196 229.332C26.8756 229.076 27.2383 228.948 27.7076 228.948C28.1983 228.948 28.5716 229.076 28.8276 229.332C29.0836 229.588 29.2116 229.972 29.2116 230.484V239.028H42.2676V230.484C42.2676 229.972 42.3956 229.588 42.6516 229.332C42.9076 229.076 43.281 228.948 43.7716 228.948C44.241 228.948 44.6036 229.076 44.8596 229.332C45.1156 229.588 45.2436 229.972 45.2436 230.484V250.42C45.2436 250.911 45.1156 251.295 44.8596 251.572C44.6036 251.828 44.241 251.956 43.7716 251.956C43.281 251.956 42.9076 251.828 42.6516 251.572C42.3956 251.295 42.2676 250.911 42.2676 250.42V241.556H29.2116V250.42C29.2116 250.911 29.0836 251.295 28.8276 251.572C28.593 251.828 28.2196 251.956 27.7076 251.956ZM57.4891 252.02C55.8038 252.02 54.3531 251.7 53.1371 251.06C51.9425 250.399 51.0145 249.471 50.3531 248.276C49.6918 247.06 49.3611 245.631 49.3611 243.988C49.3611 242.367 49.6811 240.948 50.3211 239.732C50.9825 238.516 51.8785 237.567 53.0091 236.884C54.1611 236.201 55.4731 235.86 56.9451 235.86C57.9905 235.86 58.9291 236.041 59.7611 236.404C60.6145 236.745 61.3398 237.247 61.9371 237.908C62.5345 238.569 62.9825 239.38 63.2811 240.34C63.6011 241.279 63.7611 242.345 63.7611 243.54C63.7611 243.881 63.6545 244.148 63.4411 244.34C63.2491 244.511 62.9611 244.596 62.5771 244.596H51.6331V242.74H61.8411L61.2971 243.188C61.2971 242.079 61.1265 241.14 60.7851 240.372C60.4651 239.583 59.9851 238.985 59.3451 238.58C58.7265 238.175 57.9478 237.972 57.0091 237.972C55.9851 237.972 55.1105 238.217 54.3851 238.708C53.6598 239.177 53.1051 239.849 52.7211 240.724C52.3371 241.577 52.1451 242.569 52.1451 243.7V243.892C52.1451 245.812 52.6038 247.263 53.5211 248.244C54.4385 249.225 55.7611 249.716 57.4891 249.716C58.1718 249.716 58.8651 249.631 59.5691 249.46C60.2945 249.289 60.9878 248.98 61.6491 248.532C61.9691 248.34 62.2571 248.255 62.5131 248.276C62.7905 248.276 63.0145 248.361 63.1851 248.532C63.3558 248.681 63.4625 248.873 63.5051 249.108C63.5478 249.321 63.5158 249.556 63.4091 249.812C63.3025 250.068 63.0998 250.292 62.8011 250.484C62.0971 250.975 61.2545 251.359 60.2731 251.636C59.3131 251.892 58.3851 252.02 57.4891 252.02ZM68.8229 251.956C68.3749 251.956 68.0229 251.828 67.7669 251.572C67.5109 251.316 67.3829 250.943 67.3829 250.452V237.396C67.3829 236.905 67.5109 236.543 67.7669 236.308C68.0229 236.052 68.3749 235.924 68.8229 235.924C69.2709 235.924 69.6122 236.052 69.8469 236.308C70.1029 236.543 70.2309 236.905 70.2309 237.396V240.02L69.8789 239.54C70.3269 238.324 71.0522 237.407 72.0549 236.788C73.0789 236.169 74.2415 235.86 75.5429 235.86C76.8015 235.86 77.8362 236.084 78.6469 236.532C79.4575 236.98 80.0655 237.663 80.4709 238.58C80.8762 239.497 81.0789 240.66 81.0789 242.068V250.452C81.0789 250.943 80.9509 251.316 80.6949 251.572C80.4602 251.828 80.1082 251.956 79.6389 251.956C79.1695 251.956 78.8069 251.828 78.5509 251.572C78.2949 251.316 78.1669 250.943 78.1669 250.452V242.228C78.1669 240.841 77.9002 239.828 77.3669 239.188C76.8335 238.548 75.9802 238.228 74.8069 238.228C73.4415 238.228 72.3429 238.655 71.5109 239.508C70.7002 240.34 70.2949 241.471 70.2949 242.9V250.452C70.2949 251.455 69.8042 251.956 68.8229 251.956ZM91.6474 252.02C90.282 252.02 89.0767 251.7 88.0314 251.06C87.0074 250.399 86.2074 249.46 85.6314 248.244C85.0554 247.007 84.7674 245.567 84.7674 243.924C84.7674 242.26 85.0447 240.831 85.5994 239.636C86.1754 238.42 86.9754 237.492 87.9994 236.852C89.0447 236.191 90.2607 235.86 91.6474 235.86C93.034 235.86 94.2287 236.212 95.2314 236.916C96.234 237.599 96.906 238.516 97.2474 239.668H96.8954V230.42C96.8954 229.929 97.0127 229.567 97.2474 229.332C97.5034 229.076 97.866 228.948 98.3354 228.948C98.8047 228.948 99.1674 229.076 99.4234 229.332C99.6794 229.567 99.8074 229.929 99.8074 230.42V250.452C99.8074 250.943 99.6794 251.316 99.4234 251.572C99.1674 251.828 98.8047 251.956 98.3354 251.956C97.8874 251.956 97.5354 251.828 97.2794 251.572C97.0234 251.316 96.8954 250.943 96.8954 250.452V247.54L97.2474 248.116C96.9274 249.311 96.2554 250.26 95.2314 250.964C94.2287 251.668 93.034 252.02 91.6474 252.02ZM92.3194 249.716C93.258 249.716 94.0687 249.492 94.7514 249.044C95.4554 248.596 95.9887 247.945 96.3514 247.092C96.7354 246.239 96.9274 245.183 96.9274 243.924C96.9274 242.047 96.5114 240.617 95.6794 239.636C94.8474 238.655 93.7274 238.164 92.3194 238.164C91.402 238.164 90.5914 238.388 89.8874 238.836C89.2047 239.263 88.6714 239.903 88.2874 240.756C87.9034 241.609 87.7114 242.665 87.7114 243.924C87.7114 245.801 88.1274 247.241 88.9594 248.244C89.8127 249.225 90.9327 249.716 92.3194 249.716ZM105.981 251.956C105.49 251.956 105.117 251.828 104.861 251.572C104.605 251.316 104.477 250.943 104.477 250.452V237.396C104.477 236.905 104.605 236.543 104.861 236.308C105.117 236.052 105.469 235.924 105.917 235.924C106.365 235.924 106.706 236.052 106.941 236.308C107.197 236.543 107.325 236.905 107.325 237.396V239.86H107.005C107.346 238.58 107.986 237.609 108.925 236.948C109.863 236.287 111.047 235.913 112.477 235.828C112.818 235.807 113.095 235.892 113.309 236.084C113.522 236.255 113.639 236.553 113.661 236.98C113.682 237.385 113.586 237.716 113.373 237.972C113.159 238.207 112.829 238.345 112.381 238.388L111.805 238.42C110.397 238.569 109.309 239.028 108.541 239.796C107.794 240.564 107.421 241.62 107.421 242.964V250.452C107.421 250.943 107.293 251.316 107.037 251.572C106.802 251.828 106.45 251.956 105.981 251.956ZM123.145 252.02C121.46 252.02 120.009 251.7 118.793 251.06C117.599 250.399 116.671 249.471 116.009 248.276C115.348 247.06 115.017 245.631 115.017 243.988C115.017 242.367 115.337 240.948 115.977 239.732C116.639 238.516 117.535 237.567 118.665 236.884C119.817 236.201 121.129 235.86 122.601 235.86C123.647 235.86 124.585 236.041 125.417 236.404C126.271 236.745 126.996 237.247 127.593 237.908C128.191 238.569 128.639 239.38 128.937 240.34C129.257 241.279 129.417 242.345 129.417 243.54C129.417 243.881 129.311 244.148 129.097 244.34C128.905 244.511 128.617 244.596 128.233 244.596H117.289V242.74H127.497L126.953 243.188C126.953 242.079 126.783 241.14 126.441 240.372C126.121 239.583 125.641 238.985 125.001 238.58C124.383 238.175 123.604 237.972 122.665 237.972C121.641 237.972 120.767 238.217 120.041 238.708C119.316 239.177 118.761 239.849 118.377 240.724C117.993 241.577 117.801 242.569 117.801 243.7V243.892C117.801 245.812 118.26 247.263 119.177 248.244C120.095 249.225 121.417 249.716 123.145 249.716C123.828 249.716 124.521 249.631 125.225 249.46C125.951 249.289 126.644 248.98 127.305 248.532C127.625 248.34 127.913 248.255 128.169 248.276C128.447 248.276 128.671 248.361 128.841 248.532C129.012 248.681 129.119 248.873 129.161 249.108C129.204 249.321 129.172 249.556 129.065 249.812C128.959 250.068 128.756 250.292 128.457 250.484C127.753 250.975 126.911 251.359 125.929 251.636C124.969 251.892 124.041 252.02 123.145 252.02ZM134.543 251.956C134.052 251.956 133.679 251.828 133.423 251.572C133.167 251.316 133.039 250.943 133.039 250.452V237.396C133.039 236.905 133.167 236.543 133.423 236.308C133.679 236.052 134.031 235.924 134.479 235.924C134.927 235.924 135.268 236.052 135.503 236.308C135.759 236.543 135.887 236.905 135.887 237.396V239.86H135.567C135.908 238.58 136.548 237.609 137.487 236.948C138.426 236.287 139.61 235.913 141.039 235.828C141.38 235.807 141.658 235.892 141.871 236.084C142.084 236.255 142.202 236.553 142.223 236.98C142.244 237.385 142.148 237.716 141.935 237.972C141.722 238.207 141.391 238.345 140.943 238.388L140.367 238.42C138.959 238.569 137.871 239.028 137.103 239.796C136.356 240.564 135.983 241.62 135.983 242.964V250.452C135.983 250.943 135.855 251.316 135.599 251.572C135.364 251.828 135.012 251.956 134.543 251.956ZM146.167 251.892C145.719 251.892 145.367 251.753 145.111 251.476C144.855 251.199 144.727 250.815 144.727 250.324V237.556C144.727 237.044 144.855 236.66 145.111 236.404C145.367 236.127 145.719 235.988 146.167 235.988C146.636 235.988 146.999 236.127 147.255 236.404C147.511 236.66 147.639 237.044 147.639 237.556V250.324C147.639 250.815 147.511 251.199 147.255 251.476C147.02 251.753 146.657 251.892 146.167 251.892ZM146.167 232.532C145.591 232.532 145.132 232.383 144.791 232.084C144.471 231.764 144.311 231.348 144.311 230.836C144.311 230.281 144.471 229.865 144.791 229.588C145.132 229.289 145.591 229.14 146.167 229.14C146.785 229.14 147.244 229.289 147.543 229.588C147.863 229.865 148.023 230.281 148.023 230.836C148.023 231.348 147.863 231.764 147.543 232.084C147.244 232.383 146.785 232.532 146.167 232.532ZM158.784 252.02C157.526 252.02 156.47 251.796 155.616 251.348C154.784 250.9 154.155 250.249 153.728 249.396C153.323 248.543 153.12 247.497 153.12 246.26V238.388H151.072C150.688 238.388 150.39 238.292 150.176 238.1C149.963 237.887 149.856 237.609 149.856 237.268C149.856 236.905 149.963 236.628 150.176 236.436C150.39 236.244 150.688 236.148 151.072 236.148H153.12V232.66C153.12 232.169 153.248 231.807 153.504 231.572C153.76 231.316 154.123 231.188 154.592 231.188C155.062 231.188 155.414 231.316 155.648 231.572C155.904 231.807 156.032 232.169 156.032 232.66V236.148H159.904C160.31 236.148 160.619 236.244 160.832 236.436C161.046 236.628 161.152 236.905 161.152 237.268C161.152 237.609 161.046 237.887 160.832 238.1C160.619 238.292 160.31 238.388 159.904 238.388H156.032V246.004C156.032 247.177 156.278 248.063 156.768 248.66C157.259 249.257 158.07 249.556 159.2 249.556C159.606 249.556 159.947 249.524 160.224 249.46C160.502 249.375 160.747 249.332 160.96 249.332C161.152 249.311 161.312 249.375 161.44 249.524C161.59 249.673 161.664 249.951 161.664 250.356C161.664 250.655 161.611 250.932 161.504 251.188C161.419 251.423 161.238 251.583 160.96 251.668C160.704 251.753 160.363 251.828 159.936 251.892C159.51 251.977 159.126 252.02 158.784 252.02ZM178.085 252.02C176.72 252.02 175.514 251.7 174.469 251.06C173.445 250.399 172.645 249.46 172.069 248.244C171.493 247.007 171.205 245.567 171.205 243.924C171.205 242.26 171.482 240.831 172.037 239.636C172.613 238.42 173.413 237.492 174.437 236.852C175.482 236.191 176.698 235.86 178.085 235.86C179.472 235.86 180.666 236.212 181.669 236.916C182.672 237.599 183.344 238.516 183.685 239.668H183.333V230.42C183.333 229.929 183.45 229.567 183.685 229.332C183.941 229.076 184.304 228.948 184.773 228.948C185.242 228.948 185.605 229.076 185.861 229.332C186.117 229.567 186.245 229.929 186.245 230.42V250.452C186.245 250.943 186.117 251.316 185.861 251.572C185.605 251.828 185.242 251.956 184.773 251.956C184.325 251.956 183.973 251.828 183.717 251.572C183.461 251.316 183.333 250.943 183.333 250.452V247.54L183.685 248.116C183.365 249.311 182.693 250.26 181.669 250.964C180.666 251.668 179.472 252.02 178.085 252.02ZM178.757 249.716C179.696 249.716 180.506 249.492 181.189 249.044C181.893 248.596 182.426 247.945 182.789 247.092C183.173 246.239 183.365 245.183 183.365 243.924C183.365 242.047 182.949 240.617 182.117 239.636C181.285 238.655 180.165 238.164 178.757 238.164C177.84 238.164 177.029 238.388 176.325 238.836C175.642 239.263 175.109 239.903 174.725 240.756C174.341 241.609 174.149 242.665 174.149 243.924C174.149 245.801 174.565 247.241 175.397 248.244C176.25 249.225 177.37 249.716 178.757 249.716ZM197.538 252.02C196.002 252.02 194.669 251.689 193.538 251.028C192.407 250.367 191.533 249.428 190.914 248.212C190.295 246.996 189.986 245.567 189.986 243.924C189.986 242.687 190.157 241.577 190.498 240.596C190.861 239.593 191.373 238.74 192.034 238.036C192.695 237.332 193.485 236.799 194.402 236.436C195.341 236.052 196.386 235.86 197.538 235.86C199.074 235.86 200.407 236.191 201.538 236.852C202.669 237.513 203.543 238.452 204.162 239.668C204.781 240.863 205.09 242.281 205.09 243.924C205.09 245.161 204.909 246.281 204.546 247.284C204.205 248.287 203.703 249.14 203.042 249.844C202.381 250.548 201.581 251.092 200.642 251.476C199.725 251.839 198.69 252.02 197.538 252.02ZM197.538 249.716C198.477 249.716 199.287 249.492 199.97 249.044C200.674 248.596 201.207 247.945 201.57 247.092C201.954 246.239 202.146 245.183 202.146 243.924C202.146 242.047 201.73 240.617 200.898 239.636C200.066 238.655 198.946 238.164 197.538 238.164C196.621 238.164 195.81 238.388 195.106 238.836C194.423 239.263 193.89 239.903 193.506 240.756C193.122 241.609 192.93 242.665 192.93 243.924C192.93 245.801 193.346 247.241 194.178 248.244C195.031 249.225 196.151 249.716 197.538 249.716ZM210.26 251.956C209.812 251.956 209.46 251.828 209.204 251.572C208.948 251.316 208.82 250.943 208.82 250.452V237.396C208.82 236.905 208.948 236.543 209.204 236.308C209.46 236.052 209.812 235.924 210.26 235.924C210.708 235.924 211.05 236.052 211.284 236.308C211.54 236.543 211.668 236.905 211.668 237.396V240.02L211.316 239.54C211.764 238.324 212.49 237.407 213.492 236.788C214.516 236.169 215.679 235.86 216.98 235.86C218.239 235.86 219.274 236.084 220.084 236.532C220.895 236.98 221.503 237.663 221.908 238.58C222.314 239.497 222.516 240.66 222.516 242.068V250.452C222.516 250.943 222.388 251.316 222.132 251.572C221.898 251.828 221.546 251.956 221.076 251.956C220.607 251.956 220.244 251.828 219.988 251.572C219.732 251.316 219.604 250.943 219.604 250.452V242.228C219.604 240.841 219.338 239.828 218.804 239.188C218.271 238.548 217.418 238.228 216.244 238.228C214.879 238.228 213.78 238.655 212.948 239.508C212.138 240.34 211.732 241.471 211.732 242.9V250.452C211.732 251.455 211.242 251.956 210.26 251.956ZM234.333 252.02C232.648 252.02 231.197 251.7 229.981 251.06C228.786 250.399 227.858 249.471 227.197 248.276C226.536 247.06 226.205 245.631 226.205 243.988C226.205 242.367 226.525 240.948 227.165 239.732C227.826 238.516 228.722 237.567 229.853 236.884C231.005 236.201 232.317 235.86 233.789 235.86C234.834 235.86 235.773 236.041 236.605 236.404C237.458 236.745 238.184 237.247 238.781 237.908C239.378 238.569 239.826 239.38 240.125 240.34C240.445 241.279 240.605 242.345 240.605 243.54C240.605 243.881 240.498 244.148 240.285 244.34C240.093 244.511 239.805 244.596 239.421 244.596H228.477V242.74H238.685L238.141 243.188C238.141 242.079 237.97 241.14 237.629 240.372C237.309 239.583 236.829 238.985 236.189 238.58C235.57 238.175 234.792 237.972 233.853 237.972C232.829 237.972 231.954 238.217 231.229 238.708C230.504 239.177 229.949 239.849 229.565 240.724C229.181 241.577 228.989 242.569 228.989 243.7V243.892C228.989 245.812 229.448 247.263 230.365 248.244C231.282 249.225 232.605 249.716 234.333 249.716C235.016 249.716 235.709 249.631 236.413 249.46C237.138 249.289 237.832 248.98 238.493 248.532C238.813 248.34 239.101 248.255 239.357 248.276C239.634 248.276 239.858 248.361 240.029 248.532C240.2 248.681 240.306 248.873 240.349 249.108C240.392 249.321 240.36 249.556 240.253 249.812C240.146 250.068 239.944 250.292 239.645 250.484C238.941 250.975 238.098 251.359 237.117 251.636C236.157 251.892 235.229 252.02 234.333 252.02ZM250.979 252.02C249.4 252.02 248.035 251.689 246.883 251.028C245.731 250.345 244.845 249.396 244.227 248.18C243.608 246.943 243.299 245.492 243.299 243.828C243.299 242.591 243.469 241.481 243.811 240.5C244.173 239.519 244.685 238.687 245.347 238.004C246.008 237.3 246.808 236.767 247.747 236.404C248.707 236.041 249.784 235.86 250.979 235.86C251.725 235.86 252.515 235.977 253.347 236.212C254.179 236.447 254.947 236.831 255.651 237.364C255.885 237.535 256.035 237.737 256.099 237.972C256.163 238.185 256.163 238.409 256.099 238.644C256.056 238.879 255.949 239.081 255.779 239.252C255.629 239.401 255.427 239.487 255.171 239.508C254.936 239.529 254.68 239.455 254.403 239.284C253.891 238.9 253.347 238.623 252.771 238.452C252.216 238.281 251.683 238.196 251.171 238.196C250.381 238.196 249.677 238.324 249.059 238.58C248.461 238.836 247.949 239.209 247.523 239.7C247.117 240.169 246.808 240.756 246.595 241.46C246.381 242.143 246.275 242.943 246.275 243.86C246.275 245.673 246.701 247.103 247.555 248.148C248.408 249.172 249.613 249.684 251.171 249.684C251.683 249.684 252.216 249.609 252.771 249.46C253.325 249.289 253.869 249.012 254.403 248.628C254.68 248.457 254.936 248.393 255.171 248.436C255.405 248.457 255.597 248.553 255.747 248.724C255.917 248.873 256.024 249.065 256.067 249.3C256.109 249.513 256.088 249.737 256.003 249.972C255.939 250.207 255.789 250.399 255.555 250.548C254.872 251.06 254.125 251.433 253.315 251.668C252.504 251.903 251.725 252.02 250.979 252.02ZM269.813 251.956C269.344 251.956 268.981 251.828 268.725 251.572C268.469 251.316 268.341 250.943 268.341 250.452V238.388H266.421C266.037 238.388 265.739 238.292 265.525 238.1C265.312 237.887 265.205 237.609 265.205 237.268C265.205 236.905 265.312 236.628 265.525 236.436C265.739 236.244 266.037 236.148 266.421 236.148H269.141L268.341 236.916V235.732C268.341 233.663 268.843 232.095 269.845 231.028C270.869 229.94 272.363 229.311 274.325 229.14L275.317 229.076C275.637 229.033 275.893 229.087 276.085 229.236C276.277 229.364 276.405 229.535 276.469 229.748C276.533 229.961 276.533 230.185 276.469 230.42C276.427 230.633 276.331 230.825 276.181 230.996C276.032 231.167 275.84 231.263 275.605 231.284L274.901 231.316C273.621 231.423 272.693 231.807 272.117 232.468C271.541 233.108 271.253 234.068 271.253 235.348V236.628L270.837 236.148H274.517C274.923 236.148 275.232 236.244 275.445 236.436C275.659 236.628 275.765 236.905 275.765 237.268C275.765 237.609 275.659 237.887 275.445 238.1C275.232 238.292 274.923 238.388 274.517 238.388H271.253V250.452C271.253 251.455 270.773 251.956 269.813 251.956ZM283.888 252.02C282.63 252.02 281.574 251.785 280.72 251.316C279.888 250.847 279.27 250.153 278.864 249.236C278.459 248.319 278.256 247.167 278.256 245.78V237.396C278.256 236.905 278.374 236.543 278.608 236.308C278.864 236.052 279.227 235.924 279.696 235.924C280.166 235.924 280.528 236.052 280.784 236.308C281.04 236.543 281.168 236.905 281.168 237.396V245.78C281.168 247.103 281.435 248.084 281.968 248.724C282.502 249.343 283.344 249.652 284.496 249.652C285.776 249.652 286.811 249.225 287.6 248.372C288.411 247.519 288.816 246.388 288.816 244.98V237.396C288.816 236.905 288.934 236.543 289.168 236.308C289.424 236.052 289.787 235.924 290.256 235.924C290.726 235.924 291.088 236.052 291.344 236.308C291.6 236.543 291.728 236.905 291.728 237.396V250.452C291.728 251.455 291.259 251.956 290.32 251.956C289.851 251.956 289.488 251.828 289.232 251.572C288.998 251.316 288.88 250.943 288.88 250.452V247.668L289.296 248.212C288.87 249.449 288.176 250.399 287.216 251.06C286.278 251.7 285.168 252.02 283.888 252.02ZM301.79 252.02C300.83 252.02 299.859 251.913 298.878 251.7C297.918 251.465 297.011 251.071 296.158 250.516C295.923 250.367 295.753 250.185 295.646 249.972C295.561 249.737 295.529 249.513 295.55 249.3C295.593 249.065 295.689 248.863 295.838 248.692C295.987 248.521 296.169 248.425 296.382 248.404C296.617 248.361 296.862 248.415 297.118 248.564C297.95 249.033 298.75 249.364 299.518 249.556C300.307 249.748 301.086 249.844 301.854 249.844C303.027 249.844 303.913 249.631 304.51 249.204C305.107 248.777 305.406 248.212 305.406 247.508C305.406 246.911 305.203 246.452 304.798 246.132C304.414 245.791 303.806 245.535 302.974 245.364L299.998 244.756C298.675 244.457 297.673 243.967 296.99 243.284C296.329 242.58 295.998 241.684 295.998 240.596C295.998 239.636 296.254 238.804 296.766 238.1C297.299 237.375 298.035 236.82 298.974 236.436C299.913 236.052 300.99 235.86 302.206 235.86C303.145 235.86 304.03 235.988 304.862 236.244C305.715 236.479 306.483 236.841 307.166 237.332C307.422 237.481 307.582 237.673 307.646 237.908C307.731 238.121 307.742 238.345 307.678 238.58C307.635 238.793 307.539 238.975 307.39 239.124C307.241 239.273 307.049 239.369 306.814 239.412C306.579 239.433 306.323 239.369 306.046 239.22C305.427 238.793 304.787 238.495 304.126 238.324C303.486 238.132 302.846 238.036 302.206 238.036C301.054 238.036 300.179 238.26 299.582 238.708C299.006 239.156 298.718 239.743 298.718 240.468C298.718 241.023 298.889 241.481 299.23 241.844C299.593 242.207 300.158 242.473 300.926 242.644L303.902 243.252C305.289 243.551 306.334 244.031 307.038 244.692C307.742 245.332 308.094 246.207 308.094 247.316C308.094 248.767 307.518 249.919 306.366 250.772C305.235 251.604 303.71 252.02 301.79 252.02ZM318.635 252.02C317.056 252.02 315.691 251.689 314.539 251.028C313.387 250.345 312.502 249.396 311.883 248.18C311.264 246.943 310.955 245.492 310.955 243.828C310.955 242.591 311.126 241.481 311.467 240.5C311.83 239.519 312.342 238.687 313.003 238.004C313.664 237.3 314.464 236.767 315.403 236.404C316.363 236.041 317.44 235.86 318.635 235.86C319.382 235.86 320.171 235.977 321.003 236.212C321.835 236.447 322.603 236.831 323.307 237.364C323.542 237.535 323.691 237.737 323.755 237.972C323.819 238.185 323.819 238.409 323.755 238.644C323.712 238.879 323.606 239.081 323.435 239.252C323.286 239.401 323.083 239.487 322.827 239.508C322.592 239.529 322.336 239.455 322.059 239.284C321.547 238.9 321.003 238.623 320.427 238.452C319.872 238.281 319.339 238.196 318.827 238.196C318.038 238.196 317.334 238.324 316.715 238.58C316.118 238.836 315.606 239.209 315.179 239.7C314.774 240.169 314.464 240.756 314.251 241.46C314.038 242.143 313.931 242.943 313.931 243.86C313.931 245.673 314.358 247.103 315.211 248.148C316.064 249.172 317.27 249.684 318.827 249.684C319.339 249.684 319.872 249.609 320.427 249.46C320.982 249.289 321.526 249.012 322.059 248.628C322.336 248.457 322.592 248.393 322.827 248.436C323.062 248.457 323.254 248.553 323.403 248.724C323.574 248.873 323.68 249.065 323.723 249.3C323.766 249.513 323.744 249.737 323.659 249.972C323.595 250.207 323.446 250.399 323.211 250.548C322.528 251.06 321.782 251.433 320.971 251.668C320.16 251.903 319.382 252.02 318.635 252.02ZM333.645 252.02C331.96 252.02 330.509 251.7 329.293 251.06C328.099 250.399 327.171 249.471 326.509 248.276C325.848 247.06 325.517 245.631 325.517 243.988C325.517 242.367 325.837 240.948 326.477 239.732C327.139 238.516 328.035 237.567 329.165 236.884C330.317 236.201 331.629 235.86 333.101 235.86C334.147 235.86 335.085 236.041 335.917 236.404C336.771 236.745 337.496 237.247 338.093 237.908C338.691 238.569 339.139 239.38 339.437 240.34C339.757 241.279 339.917 242.345 339.917 243.54C339.917 243.881 339.811 244.148 339.597 244.34C339.405 244.511 339.117 244.596 338.733 244.596H327.789V242.74H337.997L337.453 243.188C337.453 242.079 337.283 241.14 336.941 240.372C336.621 239.583 336.141 238.985 335.501 238.58C334.883 238.175 334.104 237.972 333.165 237.972C332.141 237.972 331.267 238.217 330.541 238.708C329.816 239.177 329.261 239.849 328.877 240.724C328.493 241.577 328.301 242.569 328.301 243.7V243.892C328.301 245.812 328.76 247.263 329.677 248.244C330.595 249.225 331.917 249.716 333.645 249.716C334.328 249.716 335.021 249.631 335.725 249.46C336.451 249.289 337.144 248.98 337.805 248.532C338.125 248.34 338.413 248.255 338.669 248.276C338.947 248.276 339.171 248.361 339.341 248.532C339.512 248.681 339.619 248.873 339.661 249.108C339.704 249.321 339.672 249.556 339.565 249.812C339.459 250.068 339.256 250.292 338.957 250.484C338.253 250.975 337.411 251.359 336.429 251.636C335.469 251.892 334.541 252.02 333.645 252.02Z" fill="#F9FBFB"/>
<path d="M26.1356 294.604C25.8423 294.604 25.6156 294.524 25.4556 294.364C25.2956 294.191 25.2156 293.951 25.2156 293.644V281.184C25.2156 280.864 25.2956 280.624 25.4556 280.464C25.6156 280.304 25.8423 280.224 26.1356 280.224C26.4423 280.224 26.6756 280.304 26.8356 280.464C26.9956 280.624 27.0756 280.864 27.0756 281.184V286.524H35.2356V281.184C35.2356 280.864 35.3156 280.624 35.4756 280.464C35.6356 280.304 35.869 280.224 36.1756 280.224C36.469 280.224 36.6956 280.304 36.8556 280.464C37.0156 280.624 37.0956 280.864 37.0956 281.184V293.644C37.0956 293.951 37.0156 294.191 36.8556 294.364C36.6956 294.524 36.469 294.604 36.1756 294.604C35.869 294.604 35.6356 294.524 35.4756 294.364C35.3156 294.191 35.2356 293.951 35.2356 293.644V288.104H27.0756V293.644C27.0756 293.951 26.9956 294.191 26.8356 294.364C26.689 294.524 26.4556 294.604 26.1356 294.604ZM44.7491 294.644C43.6957 294.644 42.7891 294.444 42.0291 294.044C41.2824 293.631 40.7024 293.051 40.2891 292.304C39.8757 291.544 39.6691 290.651 39.6691 289.624C39.6691 288.611 39.8691 287.724 40.2691 286.964C40.6824 286.204 41.2424 285.611 41.9491 285.184C42.6691 284.757 43.4891 284.544 44.4091 284.544C45.0624 284.544 45.6491 284.657 46.1691 284.884C46.7024 285.097 47.1557 285.411 47.5291 285.824C47.9024 286.237 48.1824 286.744 48.3691 287.344C48.5691 287.931 48.6691 288.597 48.6691 289.344C48.6691 289.557 48.6024 289.724 48.4691 289.844C48.3491 289.951 48.1691 290.004 47.9291 290.004H41.0891V288.844H47.4691L47.1291 289.124C47.1291 288.431 47.0224 287.844 46.8091 287.364C46.6091 286.871 46.3091 286.497 45.9091 286.244C45.5224 285.991 45.0357 285.864 44.4491 285.864C43.8091 285.864 43.2624 286.017 42.8091 286.324C42.3557 286.617 42.0091 287.037 41.7691 287.584C41.5291 288.117 41.4091 288.737 41.4091 289.444V289.564C41.4091 290.764 41.6957 291.671 42.2691 292.284C42.8424 292.897 43.6691 293.204 44.7491 293.204C45.1757 293.204 45.6091 293.151 46.0491 293.044C46.5024 292.937 46.9357 292.744 47.3491 292.464C47.5491 292.344 47.7291 292.291 47.8891 292.304C48.0624 292.304 48.2024 292.357 48.3091 292.464C48.4157 292.557 48.4824 292.677 48.5091 292.824C48.5357 292.957 48.5157 293.104 48.4491 293.264C48.3824 293.424 48.2557 293.564 48.0691 293.684C47.6291 293.991 47.1024 294.231 46.4891 294.404C45.8891 294.564 45.3091 294.644 44.7491 294.644ZM51.8327 294.604C51.5527 294.604 51.3327 294.524 51.1727 294.364C51.0127 294.204 50.9327 293.971 50.9327 293.664V285.504C50.9327 285.197 51.0127 284.971 51.1727 284.824C51.3327 284.664 51.5527 284.584 51.8327 284.584C52.1127 284.584 52.326 284.664 52.4727 284.824C52.6327 284.971 52.7127 285.197 52.7127 285.504V287.144L52.4927 286.844C52.7727 286.084 53.226 285.511 53.8527 285.124C54.4927 284.737 55.2193 284.544 56.0327 284.544C56.8193 284.544 57.466 284.684 57.9727 284.964C58.4793 285.244 58.8593 285.671 59.1127 286.244C59.366 286.817 59.4927 287.544 59.4927 288.424V293.664C59.4927 293.971 59.4127 294.204 59.2527 294.364C59.106 294.524 58.886 294.604 58.5927 294.604C58.2993 294.604 58.0727 294.524 57.9127 294.364C57.7527 294.204 57.6727 293.971 57.6727 293.664V288.524C57.6727 287.657 57.506 287.024 57.1727 286.624C56.8393 286.224 56.306 286.024 55.5727 286.024C54.7193 286.024 54.0327 286.291 53.5127 286.824C53.006 287.344 52.7527 288.051 52.7527 288.944V293.664C52.7527 294.291 52.446 294.604 51.8327 294.604ZM66.098 294.644C65.2446 294.644 64.4913 294.444 63.838 294.044C63.198 293.631 62.698 293.044 62.338 292.284C61.978 291.511 61.798 290.611 61.798 289.584C61.798 288.544 61.9713 287.651 62.318 286.904C62.678 286.144 63.178 285.564 63.818 285.164C64.4713 284.751 65.2313 284.544 66.098 284.544C66.9646 284.544 67.7113 284.764 68.338 285.204C68.9646 285.631 69.3846 286.204 69.598 286.924H69.378V281.144C69.378 280.837 69.4513 280.611 69.598 280.464C69.758 280.304 69.9846 280.224 70.278 280.224C70.5713 280.224 70.798 280.304 70.958 280.464C71.118 280.611 71.198 280.837 71.198 281.144V293.664C71.198 293.971 71.118 294.204 70.958 294.364C70.798 294.524 70.5713 294.604 70.278 294.604C69.998 294.604 69.778 294.524 69.618 294.364C69.458 294.204 69.378 293.971 69.378 293.664V291.844L69.598 292.204C69.398 292.951 68.978 293.544 68.338 293.984C67.7113 294.424 66.9646 294.644 66.098 294.644ZM66.518 293.204C67.1046 293.204 67.6113 293.064 68.038 292.784C68.478 292.504 68.8113 292.097 69.038 291.564C69.278 291.031 69.398 290.371 69.398 289.584C69.398 288.411 69.138 287.517 68.618 286.904C68.098 286.291 67.398 285.984 66.518 285.984C65.9446 285.984 65.438 286.124 64.998 286.404C64.5713 286.671 64.238 287.071 63.998 287.604C63.758 288.137 63.638 288.797 63.638 289.584C63.638 290.757 63.898 291.657 64.418 292.284C64.9513 292.897 65.6513 293.204 66.518 293.204ZM75.0563 294.604C74.7496 294.604 74.5163 294.524 74.3563 294.364C74.1963 294.204 74.1163 293.971 74.1163 293.664V285.504C74.1163 285.197 74.1963 284.971 74.3563 284.824C74.5163 284.664 74.7363 284.584 75.0163 284.584C75.2963 284.584 75.5096 284.664 75.6563 284.824C75.8163 284.971 75.8963 285.197 75.8963 285.504V287.044H75.6963C75.9096 286.244 76.3096 285.637 76.8963 285.224C77.4829 284.811 78.2229 284.577 79.1163 284.524C79.3296 284.511 79.5029 284.564 79.6363 284.684C79.7696 284.791 79.8429 284.977 79.8563 285.244C79.8696 285.497 79.8096 285.704 79.6763 285.864C79.5429 286.011 79.3363 286.097 79.0563 286.124L78.6963 286.144C77.8163 286.237 77.1363 286.524 76.6563 287.004C76.1896 287.484 75.9563 288.144 75.9563 288.984V293.664C75.9563 293.971 75.8763 294.204 75.7163 294.364C75.5696 294.524 75.3496 294.604 75.0563 294.604ZM85.7842 294.644C84.7309 294.644 83.8242 294.444 83.0642 294.044C82.3176 293.631 81.7376 293.051 81.3242 292.304C80.9109 291.544 80.7042 290.651 80.7042 289.624C80.7042 288.611 80.9042 287.724 81.3042 286.964C81.7176 286.204 82.2776 285.611 82.9842 285.184C83.7042 284.757 84.5242 284.544 85.4442 284.544C86.0976 284.544 86.6842 284.657 87.2042 284.884C87.7376 285.097 88.1909 285.411 88.5642 285.824C88.9376 286.237 89.2176 286.744 89.4042 287.344C89.6042 287.931 89.7042 288.597 89.7042 289.344C89.7042 289.557 89.6376 289.724 89.5042 289.844C89.3842 289.951 89.2042 290.004 88.9642 290.004H82.1242V288.844H88.5042L88.1642 289.124C88.1642 288.431 88.0576 287.844 87.8442 287.364C87.6442 286.871 87.3442 286.497 86.9442 286.244C86.5576 285.991 86.0709 285.864 85.4842 285.864C84.8442 285.864 84.2976 286.017 83.8442 286.324C83.3909 286.617 83.0442 287.037 82.8042 287.584C82.5642 288.117 82.4442 288.737 82.4442 289.444V289.564C82.4442 290.764 82.7309 291.671 83.3042 292.284C83.8776 292.897 84.7042 293.204 85.7842 293.204C86.2109 293.204 86.6442 293.151 87.0842 293.044C87.5376 292.937 87.9709 292.744 88.3842 292.464C88.5842 292.344 88.7642 292.291 88.9242 292.304C89.0976 292.304 89.2376 292.357 89.3442 292.464C89.4509 292.557 89.5176 292.677 89.5442 292.824C89.5709 292.957 89.5509 293.104 89.4842 293.264C89.4176 293.424 89.2909 293.564 89.1042 293.684C88.6642 293.991 88.1376 294.231 87.5242 294.404C86.9242 294.564 86.3442 294.644 85.7842 294.644ZM92.9078 294.604C92.6011 294.604 92.3678 294.524 92.2078 294.364C92.0478 294.204 91.9678 293.971 91.9678 293.664V285.504C91.9678 285.197 92.0478 284.971 92.2078 284.824C92.3678 284.664 92.5878 284.584 92.8678 284.584C93.1478 284.584 93.3611 284.664 93.5078 284.824C93.6678 284.971 93.7478 285.197 93.7478 285.504V287.044H93.5478C93.7611 286.244 94.1611 285.637 94.7478 285.224C95.3345 284.811 96.0745 284.577 96.9678 284.524C97.1811 284.511 97.3545 284.564 97.4878 284.684C97.6211 284.791 97.6945 284.977 97.7078 285.244C97.7211 285.497 97.6611 285.704 97.5278 285.864C97.3945 286.011 97.1878 286.097 96.9078 286.124L96.5478 286.144C95.6678 286.237 94.9878 286.524 94.5078 287.004C94.0411 287.484 93.8078 288.144 93.8078 288.984V293.664C93.8078 293.971 93.7278 294.204 93.5678 294.364C93.4211 294.524 93.2011 294.604 92.9078 294.604ZM100.173 294.564C99.8925 294.564 99.6725 294.477 99.5125 294.304C99.3525 294.131 99.2725 293.891 99.2725 293.584V285.604C99.2725 285.284 99.3525 285.044 99.5125 284.884C99.6725 284.711 99.8925 284.624 100.173 284.624C100.466 284.624 100.693 284.711 100.853 284.884C101.013 285.044 101.093 285.284 101.093 285.604V293.584C101.093 293.891 101.013 294.131 100.853 294.304C100.706 294.477 100.479 294.564 100.173 294.564ZM100.173 282.464C99.8125 282.464 99.5258 282.371 99.3125 282.184C99.1125 281.984 99.0125 281.724 99.0125 281.404C99.0125 281.057 99.1125 280.797 99.3125 280.624C99.5258 280.437 99.8125 280.344 100.173 280.344C100.559 280.344 100.846 280.437 101.033 280.624C101.233 280.797 101.333 281.057 101.333 281.404C101.333 281.724 101.233 281.984 101.033 282.184C100.846 282.371 100.559 282.464 100.173 282.464ZM108.059 294.644C107.272 294.644 106.612 294.504 106.079 294.224C105.559 293.944 105.165 293.537 104.899 293.004C104.645 292.471 104.519 291.817 104.519 291.044V286.124H103.239C102.999 286.124 102.812 286.064 102.679 285.944C102.545 285.811 102.479 285.637 102.479 285.424C102.479 285.197 102.545 285.024 102.679 284.904C102.812 284.784 102.999 284.724 103.239 284.724H104.519V282.544C104.519 282.237 104.599 282.011 104.759 281.864C104.919 281.704 105.145 281.624 105.439 281.624C105.732 281.624 105.952 281.704 106.099 281.864C106.259 282.011 106.339 282.237 106.339 282.544V284.724H108.759C109.012 284.724 109.205 284.784 109.339 284.904C109.472 285.024 109.539 285.197 109.539 285.424C109.539 285.637 109.472 285.811 109.339 285.944C109.205 286.064 109.012 286.124 108.759 286.124H106.339V290.884C106.339 291.617 106.492 292.171 106.799 292.544C107.105 292.917 107.612 293.104 108.319 293.104C108.572 293.104 108.785 293.084 108.959 293.044C109.132 292.991 109.285 292.964 109.419 292.964C109.539 292.951 109.639 292.991 109.719 293.084C109.812 293.177 109.859 293.351 109.859 293.604C109.859 293.791 109.825 293.964 109.759 294.124C109.705 294.271 109.592 294.371 109.419 294.424C109.259 294.477 109.045 294.524 108.779 294.564C108.512 294.617 108.272 294.644 108.059 294.644ZM120.121 294.644C119.268 294.644 118.515 294.444 117.861 294.044C117.221 293.631 116.721 293.044 116.361 292.284C116.001 291.511 115.821 290.611 115.821 289.584C115.821 288.544 115.995 287.651 116.341 286.904C116.701 286.144 117.201 285.564 117.841 285.164C118.495 284.751 119.255 284.544 120.121 284.544C120.988 284.544 121.735 284.764 122.361 285.204C122.988 285.631 123.408 286.204 123.621 286.924H123.401V281.144C123.401 280.837 123.475 280.611 123.621 280.464C123.781 280.304 124.008 280.224 124.301 280.224C124.595 280.224 124.821 280.304 124.981 280.464C125.141 280.611 125.221 280.837 125.221 281.144V293.664C125.221 293.971 125.141 294.204 124.981 294.364C124.821 294.524 124.595 294.604 124.301 294.604C124.021 294.604 123.801 294.524 123.641 294.364C123.481 294.204 123.401 293.971 123.401 293.664V291.844L123.621 292.204C123.421 292.951 123.001 293.544 122.361 293.984C121.735 294.424 120.988 294.644 120.121 294.644ZM120.541 293.204C121.128 293.204 121.635 293.064 122.061 292.784C122.501 292.504 122.835 292.097 123.061 291.564C123.301 291.031 123.421 290.371 123.421 289.584C123.421 288.411 123.161 287.517 122.641 286.904C122.121 286.291 121.421 285.984 120.541 285.984C119.968 285.984 119.461 286.124 119.021 286.404C118.595 286.671 118.261 287.071 118.021 287.604C117.781 288.137 117.661 288.797 117.661 289.584C117.661 290.757 117.921 291.657 118.441 292.284C118.975 292.897 119.675 293.204 120.541 293.204ZM132.28 294.644C131.32 294.644 130.486 294.437 129.78 294.024C129.073 293.611 128.526 293.024 128.14 292.264C127.753 291.504 127.56 290.611 127.56 289.584C127.56 288.811 127.666 288.117 127.88 287.504C128.106 286.877 128.426 286.344 128.84 285.904C129.253 285.464 129.746 285.131 130.32 284.904C130.906 284.664 131.56 284.544 132.28 284.544C133.24 284.544 134.073 284.751 134.78 285.164C135.486 285.577 136.033 286.164 136.42 286.924C136.806 287.671 137 288.557 137 289.584C137 290.357 136.886 291.057 136.66 291.684C136.446 292.311 136.133 292.844 135.72 293.284C135.306 293.724 134.806 294.064 134.22 294.304C133.646 294.531 133 294.644 132.28 294.644ZM132.28 293.204C132.866 293.204 133.373 293.064 133.8 292.784C134.24 292.504 134.573 292.097 134.8 291.564C135.04 291.031 135.16 290.371 135.16 289.584C135.16 288.411 134.9 287.517 134.38 286.904C133.86 286.291 133.16 285.984 132.28 285.984C131.706 285.984 131.2 286.124 130.76 286.404C130.333 286.671 130 287.071 129.76 287.604C129.52 288.137 129.4 288.797 129.4 289.584C129.4 290.757 129.66 291.657 130.18 292.284C130.713 292.897 131.413 293.204 132.28 293.204ZM140.231 294.604C139.951 294.604 139.731 294.524 139.571 294.364C139.411 294.204 139.331 293.971 139.331 293.664V285.504C139.331 285.197 139.411 284.971 139.571 284.824C139.731 284.664 139.951 284.584 140.231 284.584C140.511 284.584 140.724 284.664 140.871 284.824C141.031 284.971 141.111 285.197 141.111 285.504V287.144L140.891 286.844C141.171 286.084 141.624 285.511 142.251 285.124C142.891 284.737 143.618 284.544 144.431 284.544C145.218 284.544 145.864 284.684 146.371 284.964C146.878 285.244 147.258 285.671 147.511 286.244C147.764 286.817 147.891 287.544 147.891 288.424V293.664C147.891 293.971 147.811 294.204 147.651 294.364C147.504 294.524 147.284 294.604 146.991 294.604C146.698 294.604 146.471 294.524 146.311 294.364C146.151 294.204 146.071 293.971 146.071 293.664V288.524C146.071 287.657 145.904 287.024 145.571 286.624C145.238 286.224 144.704 286.024 143.971 286.024C143.118 286.024 142.431 286.291 141.911 286.824C141.404 287.344 141.151 288.051 141.151 288.944V293.664C141.151 294.291 140.844 294.604 140.231 294.604ZM155.276 294.644C154.223 294.644 153.316 294.444 152.556 294.044C151.81 293.631 151.23 293.051 150.816 292.304C150.403 291.544 150.196 290.651 150.196 289.624C150.196 288.611 150.396 287.724 150.796 286.964C151.21 286.204 151.77 285.611 152.476 285.184C153.196 284.757 154.016 284.544 154.936 284.544C155.59 284.544 156.176 284.657 156.696 284.884C157.23 285.097 157.683 285.411 158.056 285.824C158.43 286.237 158.71 286.744 158.896 287.344C159.096 287.931 159.196 288.597 159.196 289.344C159.196 289.557 159.13 289.724 158.996 289.844C158.876 289.951 158.696 290.004 158.456 290.004H151.616V288.844H157.996L157.656 289.124C157.656 288.431 157.55 287.844 157.336 287.364C157.136 286.871 156.836 286.497 156.436 286.244C156.05 285.991 155.563 285.864 154.976 285.864C154.336 285.864 153.79 286.017 153.336 286.324C152.883 286.617 152.536 287.037 152.296 287.584C152.056 288.117 151.936 288.737 151.936 289.444V289.564C151.936 290.764 152.223 291.671 152.796 292.284C153.37 292.897 154.196 293.204 155.276 293.204C155.703 293.204 156.136 293.151 156.576 293.044C157.03 292.937 157.463 292.744 157.876 292.464C158.076 292.344 158.256 292.291 158.416 292.304C158.59 292.304 158.73 292.357 158.836 292.464C158.943 292.557 159.01 292.677 159.036 292.824C159.063 292.957 159.043 293.104 158.976 293.264C158.91 293.424 158.783 293.564 158.596 293.684C158.156 293.991 157.63 294.231 157.016 294.404C156.416 294.564 155.836 294.644 155.276 294.644ZM165.68 294.644C164.693 294.644 163.84 294.437 163.12 294.024C162.4 293.597 161.847 293.004 161.46 292.244C161.073 291.471 160.88 290.564 160.88 289.524C160.88 288.751 160.987 288.057 161.2 287.444C161.427 286.831 161.747 286.311 162.16 285.884C162.573 285.444 163.073 285.111 163.66 284.884C164.26 284.657 164.933 284.544 165.68 284.544C166.147 284.544 166.64 284.617 167.16 284.764C167.68 284.911 168.16 285.151 168.6 285.484C168.747 285.591 168.84 285.717 168.88 285.864C168.92 285.997 168.92 286.137 168.88 286.284C168.853 286.431 168.787 286.557 168.68 286.664C168.587 286.757 168.46 286.811 168.3 286.824C168.153 286.837 167.993 286.791 167.82 286.684C167.5 286.444 167.16 286.271 166.8 286.164C166.453 286.057 166.12 286.004 165.8 286.004C165.307 286.004 164.867 286.084 164.48 286.244C164.107 286.404 163.787 286.637 163.52 286.944C163.267 287.237 163.073 287.604 162.94 288.044C162.807 288.471 162.74 288.971 162.74 289.544C162.74 290.677 163.007 291.571 163.54 292.224C164.073 292.864 164.827 293.184 165.8 293.184C166.12 293.184 166.453 293.137 166.8 293.044C167.147 292.937 167.487 292.764 167.82 292.524C167.993 292.417 168.153 292.377 168.3 292.404C168.447 292.417 168.567 292.477 168.66 292.584C168.767 292.677 168.833 292.797 168.86 292.944C168.887 293.077 168.873 293.217 168.82 293.364C168.78 293.511 168.687 293.631 168.54 293.724C168.113 294.044 167.647 294.277 167.14 294.424C166.633 294.571 166.147 294.644 165.68 294.644ZM177.452 294.604C177.158 294.604 176.932 294.524 176.772 294.364C176.612 294.204 176.532 293.971 176.532 293.664V286.124H175.332C175.092 286.124 174.905 286.064 174.772 285.944C174.638 285.811 174.572 285.637 174.572 285.424C174.572 285.197 174.638 285.024 174.772 284.904C174.905 284.784 175.092 284.724 175.332 284.724H177.032L176.532 285.204V284.464C176.532 283.171 176.845 282.191 177.472 281.524C178.112 280.844 179.045 280.451 180.272 280.344L180.892 280.304C181.092 280.277 181.252 280.311 181.372 280.404C181.492 280.484 181.572 280.591 181.612 280.724C181.652 280.857 181.652 280.997 181.612 281.144C181.585 281.277 181.525 281.397 181.432 281.504C181.338 281.611 181.218 281.671 181.072 281.684L180.632 281.704C179.832 281.771 179.252 282.011 178.892 282.424C178.532 282.824 178.352 283.424 178.352 284.224V285.024L178.092 284.724H180.392C180.645 284.724 180.838 284.784 180.972 284.904C181.105 285.024 181.172 285.197 181.172 285.424C181.172 285.637 181.105 285.811 180.972 285.944C180.838 286.064 180.645 286.124 180.392 286.124H178.352V293.664C178.352 294.291 178.052 294.604 177.452 294.604ZM186.249 294.644C185.462 294.644 184.802 294.497 184.269 294.204C183.749 293.911 183.362 293.477 183.109 292.904C182.855 292.331 182.729 291.611 182.729 290.744V285.504C182.729 285.197 182.802 284.971 182.949 284.824C183.109 284.664 183.335 284.584 183.629 284.584C183.922 284.584 184.149 284.664 184.309 284.824C184.469 284.971 184.549 285.197 184.549 285.504V290.744C184.549 291.571 184.715 292.184 185.049 292.584C185.382 292.971 185.909 293.164 186.629 293.164C187.429 293.164 188.075 292.897 188.569 292.364C189.075 291.831 189.329 291.124 189.329 290.244V285.504C189.329 285.197 189.402 284.971 189.549 284.824C189.709 284.664 189.935 284.584 190.229 284.584C190.522 284.584 190.749 284.664 190.909 284.824C191.069 284.971 191.149 285.197 191.149 285.504V293.664C191.149 294.291 190.855 294.604 190.269 294.604C189.975 294.604 189.749 294.524 189.589 294.364C189.442 294.204 189.369 293.971 189.369 293.664V291.924L189.629 292.264C189.362 293.037 188.929 293.631 188.329 294.044C187.742 294.444 187.049 294.644 186.249 294.644ZM197.437 294.644C196.837 294.644 196.231 294.577 195.617 294.444C195.017 294.297 194.451 294.051 193.917 293.704C193.771 293.611 193.664 293.497 193.597 293.364C193.544 293.217 193.524 293.077 193.537 292.944C193.564 292.797 193.624 292.671 193.717 292.564C193.811 292.457 193.924 292.397 194.057 292.384C194.204 292.357 194.357 292.391 194.517 292.484C195.037 292.777 195.537 292.984 196.017 293.104C196.511 293.224 196.997 293.284 197.477 293.284C198.211 293.284 198.764 293.151 199.137 292.884C199.511 292.617 199.697 292.264 199.697 291.824C199.697 291.451 199.571 291.164 199.317 290.964C199.077 290.751 198.697 290.591 198.177 290.484L196.317 290.104C195.491 289.917 194.864 289.611 194.437 289.184C194.024 288.744 193.817 288.184 193.817 287.504C193.817 286.904 193.977 286.384 194.297 285.944C194.631 285.491 195.091 285.144 195.677 284.904C196.264 284.664 196.937 284.544 197.697 284.544C198.284 284.544 198.837 284.624 199.357 284.784C199.891 284.931 200.371 285.157 200.797 285.464C200.957 285.557 201.057 285.677 201.097 285.824C201.151 285.957 201.157 286.097 201.117 286.244C201.091 286.377 201.031 286.491 200.937 286.584C200.844 286.677 200.724 286.737 200.577 286.764C200.431 286.777 200.271 286.737 200.097 286.644C199.711 286.377 199.311 286.191 198.897 286.084C198.497 285.964 198.097 285.904 197.697 285.904C196.977 285.904 196.431 286.044 196.057 286.324C195.697 286.604 195.517 286.971 195.517 287.424C195.517 287.771 195.624 288.057 195.837 288.284C196.064 288.511 196.417 288.677 196.897 288.784L198.757 289.164C199.624 289.351 200.277 289.651 200.717 290.064C201.157 290.464 201.377 291.011 201.377 291.704C201.377 292.611 201.017 293.331 200.297 293.864C199.591 294.384 198.637 294.644 197.437 294.644ZM207.965 294.644C206.978 294.644 206.125 294.437 205.405 294.024C204.685 293.597 204.132 293.004 203.745 292.244C203.358 291.471 203.165 290.564 203.165 289.524C203.165 288.751 203.272 288.057 203.485 287.444C203.712 286.831 204.032 286.311 204.445 285.884C204.858 285.444 205.358 285.111 205.945 284.884C206.545 284.657 207.218 284.544 207.965 284.544C208.432 284.544 208.925 284.617 209.445 284.764C209.965 284.911 210.445 285.151 210.885 285.484C211.032 285.591 211.125 285.717 211.165 285.864C211.205 285.997 211.205 286.137 211.165 286.284C211.138 286.431 211.072 286.557 210.965 286.664C210.872 286.757 210.745 286.811 210.585 286.824C210.438 286.837 210.278 286.791 210.105 286.684C209.785 286.444 209.445 286.271 209.085 286.164C208.738 286.057 208.405 286.004 208.085 286.004C207.592 286.004 207.152 286.084 206.765 286.244C206.392 286.404 206.072 286.637 205.805 286.944C205.552 287.237 205.358 287.604 205.225 288.044C205.092 288.471 205.025 288.971 205.025 289.544C205.025 290.677 205.292 291.571 205.825 292.224C206.358 292.864 207.112 293.184 208.085 293.184C208.405 293.184 208.738 293.137 209.085 293.044C209.432 292.937 209.772 292.764 210.105 292.524C210.278 292.417 210.438 292.377 210.585 292.404C210.732 292.417 210.852 292.477 210.945 292.584C211.052 292.677 211.118 292.797 211.145 292.944C211.172 293.077 211.158 293.217 211.105 293.364C211.065 293.511 210.972 293.631 210.825 293.724C210.398 294.044 209.932 294.277 209.425 294.424C208.918 294.571 208.432 294.644 207.965 294.644ZM217.347 294.644C216.293 294.644 215.387 294.444 214.627 294.044C213.88 293.631 213.3 293.051 212.887 292.304C212.473 291.544 212.267 290.651 212.267 289.624C212.267 288.611 212.467 287.724 212.867 286.964C213.28 286.204 213.84 285.611 214.547 285.184C215.267 284.757 216.087 284.544 217.007 284.544C217.66 284.544 218.247 284.657 218.767 284.884C219.3 285.097 219.753 285.411 220.127 285.824C220.5 286.237 220.78 286.744 220.967 287.344C221.167 287.931 221.267 288.597 221.267 289.344C221.267 289.557 221.2 289.724 221.067 289.844C220.947 289.951 220.767 290.004 220.527 290.004H213.687V288.844H220.067L219.727 289.124C219.727 288.431 219.62 287.844 219.407 287.364C219.207 286.871 218.907 286.497 218.507 286.244C218.12 285.991 217.633 285.864 217.047 285.864C216.407 285.864 215.86 286.017 215.407 286.324C214.953 286.617 214.607 287.037 214.367 287.584C214.127 288.117 214.007 288.737 214.007 289.444V289.564C214.007 290.764 214.293 291.671 214.867 292.284C215.44 292.897 216.267 293.204 217.347 293.204C217.773 293.204 218.207 293.151 218.647 293.044C219.1 292.937 219.533 292.744 219.947 292.464C220.147 292.344 220.327 292.291 220.487 292.304C220.66 292.304 220.8 292.357 220.907 292.464C221.013 292.557 221.08 292.677 221.107 292.824C221.133 292.957 221.113 293.104 221.047 293.264C220.98 293.424 220.853 293.564 220.667 293.684C220.227 293.991 219.7 294.231 219.087 294.404C218.487 294.564 217.907 294.644 217.347 294.644ZM231.845 294.644C231.178 294.644 230.572 294.511 230.025 294.244C229.492 293.977 229.072 293.617 228.765 293.164C228.472 292.711 228.325 292.204 228.325 291.644C228.325 290.924 228.505 290.357 228.865 289.944C229.225 289.531 229.832 289.237 230.685 289.064C231.538 288.877 232.685 288.784 234.125 288.784H235.065V289.944H234.165C233.138 289.944 232.325 289.991 231.725 290.084C231.138 290.177 230.725 290.344 230.485 290.584C230.245 290.811 230.125 291.131 230.125 291.544C230.125 292.064 230.305 292.491 230.665 292.824C231.038 293.157 231.545 293.324 232.185 293.324C232.692 293.324 233.138 293.204 233.525 292.964C233.912 292.711 234.218 292.377 234.445 291.964C234.672 291.537 234.785 291.051 234.785 290.504V288.204C234.785 287.417 234.625 286.851 234.305 286.504C233.985 286.144 233.445 285.964 232.685 285.964C232.245 285.964 231.792 286.024 231.325 286.144C230.858 286.264 230.372 286.451 229.865 286.704C229.665 286.797 229.492 286.831 229.345 286.804C229.198 286.764 229.078 286.684 228.985 286.564C228.905 286.431 228.858 286.291 228.845 286.144C228.845 285.984 228.878 285.831 228.945 285.684C229.025 285.537 229.158 285.431 229.345 285.364C229.932 285.071 230.512 284.864 231.085 284.744C231.672 284.611 232.218 284.544 232.725 284.544C233.592 284.544 234.305 284.684 234.865 284.964C235.425 285.231 235.845 285.651 236.125 286.224C236.405 286.784 236.545 287.504 236.545 288.384V293.664C236.545 293.971 236.472 294.204 236.325 294.364C236.178 294.524 235.965 294.604 235.685 294.604C235.418 294.604 235.205 294.524 235.045 294.364C234.898 294.204 234.825 293.971 234.825 293.664V292.244H235.005C234.898 292.737 234.698 293.164 234.405 293.524C234.112 293.884 233.745 294.164 233.305 294.364C232.878 294.551 232.392 294.644 231.845 294.644ZM243.629 294.644C242.643 294.644 241.789 294.437 241.069 294.024C240.349 293.597 239.796 293.004 239.409 292.244C239.023 291.471 238.829 290.564 238.829 289.524C238.829 288.751 238.936 288.057 239.149 287.444C239.376 286.831 239.696 286.311 240.109 285.884C240.523 285.444 241.023 285.111 241.609 284.884C242.209 284.657 242.883 284.544 243.629 284.544C244.096 284.544 244.589 284.617 245.109 284.764C245.629 284.911 246.109 285.151 246.549 285.484C246.696 285.591 246.789 285.717 246.829 285.864C246.869 285.997 246.869 286.137 246.829 286.284C246.803 286.431 246.736 286.557 246.629 286.664C246.536 286.757 246.409 286.811 246.249 286.824C246.103 286.837 245.943 286.791 245.769 286.684C245.449 286.444 245.109 286.271 244.749 286.164C244.403 286.057 244.069 286.004 243.749 286.004C243.256 286.004 242.816 286.084 242.429 286.244C242.056 286.404 241.736 286.637 241.469 286.944C241.216 287.237 241.023 287.604 240.889 288.044C240.756 288.471 240.689 288.971 240.689 289.544C240.689 290.677 240.956 291.571 241.489 292.224C242.023 292.864 242.776 293.184 243.749 293.184C244.069 293.184 244.403 293.137 244.749 293.044C245.096 292.937 245.436 292.764 245.769 292.524C245.943 292.417 246.103 292.377 246.249 292.404C246.396 292.417 246.516 292.477 246.609 292.584C246.716 292.677 246.783 292.797 246.809 292.944C246.836 293.077 246.823 293.217 246.769 293.364C246.729 293.511 246.636 293.631 246.489 293.724C246.063 294.044 245.596 294.277 245.089 294.424C244.583 294.571 244.096 294.644 243.629 294.644ZM258.061 294.644C257.101 294.644 256.268 294.437 255.561 294.024C254.854 293.611 254.308 293.024 253.921 292.264C253.534 291.504 253.341 290.611 253.341 289.584C253.341 288.811 253.448 288.117 253.661 287.504C253.888 286.877 254.208 286.344 254.621 285.904C255.034 285.464 255.528 285.131 256.101 284.904C256.688 284.664 257.341 284.544 258.061 284.544C259.021 284.544 259.854 284.751 260.561 285.164C261.268 285.577 261.814 286.164 262.201 286.924C262.588 287.671 262.781 288.557 262.781 289.584C262.781 290.357 262.668 291.057 262.441 291.684C262.228 292.311 261.914 292.844 261.501 293.284C261.088 293.724 260.588 294.064 260.001 294.304C259.428 294.531 258.781 294.644 258.061 294.644ZM258.061 293.204C258.648 293.204 259.154 293.064 259.581 292.784C260.021 292.504 260.354 292.097 260.581 291.564C260.821 291.031 260.941 290.371 260.941 289.584C260.941 288.411 260.681 287.517 260.161 286.904C259.641 286.291 258.941 285.984 258.061 285.984C257.488 285.984 256.981 286.124 256.541 286.404C256.114 286.671 255.781 287.071 255.541 287.604C255.301 288.137 255.181 288.797 255.181 289.584C255.181 290.757 255.441 291.657 255.961 292.284C256.494 292.897 257.194 293.204 258.061 293.204ZM266.052 294.604C265.746 294.604 265.512 294.524 265.352 294.364C265.192 294.204 265.112 293.971 265.112 293.664V285.504C265.112 285.197 265.192 284.971 265.352 284.824C265.512 284.664 265.732 284.584 266.012 284.584C266.292 284.584 266.506 284.664 266.652 284.824C266.812 284.971 266.892 285.197 266.892 285.504V287.044H266.692C266.906 286.244 267.306 285.637 267.892 285.224C268.479 284.811 269.219 284.577 270.112 284.524C270.326 284.511 270.499 284.564 270.632 284.684C270.766 284.791 270.839 284.977 270.852 285.244C270.866 285.497 270.806 285.704 270.672 285.864C270.539 286.011 270.332 286.097 270.052 286.124L269.692 286.144C268.812 286.237 268.132 286.524 267.652 287.004C267.186 287.484 266.952 288.144 266.952 288.984V293.664C266.952 293.971 266.872 294.204 266.712 294.364C266.566 294.524 266.346 294.604 266.052 294.604ZM276.78 294.644C275.727 294.644 274.82 294.444 274.06 294.044C273.314 293.631 272.734 293.051 272.32 292.304C271.907 291.544 271.7 290.651 271.7 289.624C271.7 288.611 271.9 287.724 272.3 286.964C272.714 286.204 273.274 285.611 273.98 285.184C274.7 284.757 275.52 284.544 276.44 284.544C277.094 284.544 277.68 284.657 278.2 284.884C278.734 285.097 279.187 285.411 279.56 285.824C279.934 286.237 280.214 286.744 280.4 287.344C280.6 287.931 280.7 288.597 280.7 289.344C280.7 289.557 280.634 289.724 280.5 289.844C280.38 289.951 280.2 290.004 279.96 290.004H273.12V288.844H279.5L279.16 289.124C279.16 288.431 279.054 287.844 278.84 287.364C278.64 286.871 278.34 286.497 277.94 286.244C277.554 285.991 277.067 285.864 276.48 285.864C275.84 285.864 275.294 286.017 274.84 286.324C274.387 286.617 274.04 287.037 273.8 287.584C273.56 288.117 273.44 288.737 273.44 289.444V289.564C273.44 290.764 273.727 291.671 274.3 292.284C274.874 292.897 275.7 293.204 276.78 293.204C277.207 293.204 277.64 293.151 278.08 293.044C278.534 292.937 278.967 292.744 279.38 292.464C279.58 292.344 279.76 292.291 279.92 292.304C280.094 292.304 280.234 292.357 280.34 292.464C280.447 292.557 280.514 292.677 280.54 292.824C280.567 292.957 280.547 293.104 280.48 293.264C280.414 293.424 280.287 293.564 280.1 293.684C279.66 293.991 279.134 294.231 278.52 294.404C277.92 294.564 277.34 294.644 276.78 294.644ZM292.399 294.644C291.412 294.644 290.559 294.437 289.839 294.024C289.119 293.597 288.565 293.004 288.179 292.244C287.792 291.471 287.599 290.564 287.599 289.524C287.599 288.751 287.705 288.057 287.919 287.444C288.145 286.831 288.465 286.311 288.879 285.884C289.292 285.444 289.792 285.111 290.379 284.884C290.979 284.657 291.652 284.544 292.399 284.544C292.865 284.544 293.359 284.617 293.879 284.764C294.399 284.911 294.879 285.151 295.319 285.484C295.465 285.591 295.559 285.717 295.599 285.864C295.639 285.997 295.639 286.137 295.599 286.284C295.572 286.431 295.505 286.557 295.399 286.664C295.305 286.757 295.179 286.811 295.019 286.824C294.872 286.837 294.712 286.791 294.539 286.684C294.219 286.444 293.879 286.271 293.519 286.164C293.172 286.057 292.839 286.004 292.519 286.004C292.025 286.004 291.585 286.084 291.199 286.244C290.825 286.404 290.505 286.637 290.239 286.944C289.985 287.237 289.792 287.604 289.659 288.044C289.525 288.471 289.459 288.971 289.459 289.544C289.459 290.677 289.725 291.571 290.259 292.224C290.792 292.864 291.545 293.184 292.519 293.184C292.839 293.184 293.172 293.137 293.519 293.044C293.865 292.937 294.205 292.764 294.539 292.524C294.712 292.417 294.872 292.377 295.019 292.404C295.165 292.417 295.285 292.477 295.379 292.584C295.485 292.677 295.552 292.797 295.579 292.944C295.605 293.077 295.592 293.217 295.539 293.364C295.499 293.511 295.405 293.631 295.259 293.724C294.832 294.044 294.365 294.277 293.859 294.424C293.352 294.571 292.865 294.644 292.399 294.644ZM301.42 294.644C300.46 294.644 299.627 294.437 298.92 294.024C298.214 293.611 297.667 293.024 297.28 292.264C296.894 291.504 296.7 290.611 296.7 289.584C296.7 288.811 296.807 288.117 297.02 287.504C297.247 286.877 297.567 286.344 297.98 285.904C298.394 285.464 298.887 285.131 299.46 284.904C300.047 284.664 300.7 284.544 301.42 284.544C302.38 284.544 303.214 284.751 303.92 285.164C304.627 285.577 305.174 286.164 305.56 286.924C305.947 287.671 306.14 288.557 306.14 289.584C306.14 290.357 306.027 291.057 305.8 291.684C305.587 292.311 305.274 292.844 304.86 293.284C304.447 293.724 303.947 294.064 303.36 294.304C302.787 294.531 302.14 294.644 301.42 294.644ZM301.42 293.204C302.007 293.204 302.514 293.064 302.94 292.784C303.38 292.504 303.714 292.097 303.94 291.564C304.18 291.031 304.3 290.371 304.3 289.584C304.3 288.411 304.04 287.517 303.52 286.904C303 286.291 302.3 285.984 301.42 285.984C300.847 285.984 300.34 286.124 299.9 286.404C299.474 286.671 299.14 287.071 298.9 287.604C298.66 288.137 298.54 288.797 298.54 289.584C298.54 290.757 298.8 291.657 299.32 292.284C299.854 292.897 300.554 293.204 301.42 293.204ZM309.372 294.604C309.092 294.604 308.872 294.524 308.712 294.364C308.552 294.204 308.472 293.971 308.472 293.664V285.504C308.472 285.197 308.552 284.971 308.712 284.824C308.872 284.664 309.092 284.584 309.372 284.584C309.652 284.584 309.865 284.664 310.012 284.824C310.172 284.971 310.252 285.197 310.252 285.504V287.144L310.032 286.844C310.312 286.084 310.765 285.511 311.392 285.124C312.032 284.737 312.758 284.544 313.572 284.544C314.358 284.544 315.005 284.684 315.512 284.964C316.018 285.244 316.398 285.671 316.652 286.244C316.905 286.817 317.032 287.544 317.032 288.424V293.664C317.032 293.971 316.952 294.204 316.792 294.364C316.645 294.524 316.425 294.604 316.132 294.604C315.838 294.604 315.612 294.524 315.452 294.364C315.292 294.204 315.212 293.971 315.212 293.664V288.524C315.212 287.657 315.045 287.024 314.712 286.624C314.378 286.224 313.845 286.024 313.112 286.024C312.258 286.024 311.572 286.291 311.052 286.824C310.545 287.344 310.292 288.051 310.292 288.944V293.664C310.292 294.291 309.985 294.604 309.372 294.604ZM323.519 294.604C323.266 294.604 323.046 294.537 322.859 294.404C322.673 294.271 322.513 294.057 322.379 293.764L318.979 285.844C318.886 285.617 318.853 285.411 318.879 285.224C318.906 285.037 318.993 284.884 319.139 284.764C319.299 284.644 319.513 284.584 319.779 284.584C320.006 284.584 320.186 284.637 320.319 284.744C320.453 284.851 320.579 285.037 320.699 285.304L323.839 293.044H323.279L326.499 285.304C326.606 285.037 326.726 284.851 326.859 284.744C327.006 284.637 327.206 284.584 327.459 284.584C327.686 284.584 327.859 284.644 327.979 284.764C328.113 284.884 328.193 285.037 328.219 285.224C328.246 285.411 328.206 285.611 328.099 285.824L324.679 293.764C324.559 294.057 324.399 294.271 324.199 294.404C324.013 294.537 323.786 294.604 323.519 294.604ZM333.076 294.644C332.409 294.644 331.802 294.511 331.256 294.244C330.722 293.977 330.302 293.617 329.996 293.164C329.702 292.711 329.556 292.204 329.556 291.644C329.556 290.924 329.736 290.357 330.096 289.944C330.456 289.531 331.062 289.237 331.916 289.064C332.769 288.877 333.916 288.784 335.356 288.784H336.296V289.944H335.396C334.369 289.944 333.556 289.991 332.956 290.084C332.369 290.177 331.956 290.344 331.716 290.584C331.476 290.811 331.356 291.131 331.356 291.544C331.356 292.064 331.536 292.491 331.896 292.824C332.269 293.157 332.776 293.324 333.416 293.324C333.922 293.324 334.369 293.204 334.756 292.964C335.142 292.711 335.449 292.377 335.676 291.964C335.902 291.537 336.016 291.051 336.016 290.504V288.204C336.016 287.417 335.856 286.851 335.536 286.504C335.216 286.144 334.676 285.964 333.916 285.964C333.476 285.964 333.022 286.024 332.556 286.144C332.089 286.264 331.602 286.451 331.096 286.704C330.896 286.797 330.722 286.831 330.576 286.804C330.429 286.764 330.309 286.684 330.216 286.564C330.136 286.431 330.089 286.291 330.076 286.144C330.076 285.984 330.109 285.831 330.176 285.684C330.256 285.537 330.389 285.431 330.576 285.364C331.162 285.071 331.742 284.864 332.316 284.744C332.902 284.611 333.449 284.544 333.956 284.544C334.822 284.544 335.536 284.684 336.096 284.964C336.656 285.231 337.076 285.651 337.356 286.224C337.636 286.784 337.776 287.504 337.776 288.384V293.664C337.776 293.971 337.702 294.204 337.556 294.364C337.409 294.524 337.196 294.604 336.916 294.604C336.649 294.604 336.436 294.524 336.276 294.364C336.129 294.204 336.056 293.971 336.056 293.664V292.244H336.236C336.129 292.737 335.929 293.164 335.636 293.524C335.342 293.884 334.976 294.164 334.536 294.364C334.109 294.551 333.622 294.644 333.076 294.644ZM343.7 294.644C342.7 294.644 341.94 294.351 341.42 293.764C340.9 293.164 340.64 292.304 340.64 291.184V281.144C340.64 280.837 340.72 280.611 340.88 280.464C341.04 280.304 341.26 280.224 341.54 280.224C341.833 280.224 342.06 280.304 342.22 280.464C342.38 280.611 342.46 280.837 342.46 281.144V291.044C342.46 291.737 342.6 292.257 342.88 292.604C343.173 292.937 343.586 293.104 344.12 293.104C344.24 293.104 344.346 293.104 344.44 293.104C344.533 293.091 344.626 293.077 344.72 293.064C344.866 293.051 344.973 293.091 345.04 293.184C345.106 293.277 345.14 293.464 345.14 293.744C345.14 293.997 345.08 294.197 344.96 294.344C344.853 294.477 344.673 294.564 344.42 294.604C344.3 294.617 344.18 294.624 344.06 294.624C343.94 294.637 343.82 294.644 343.7 294.644ZM349.715 294.644C348.715 294.644 347.955 294.351 347.435 293.764C346.915 293.164 346.655 292.304 346.655 291.184V281.144C346.655 280.837 346.735 280.611 346.895 280.464C347.055 280.304 347.275 280.224 347.555 280.224C347.849 280.224 348.075 280.304 348.235 280.464C348.395 280.611 348.475 280.837 348.475 281.144V291.044C348.475 291.737 348.615 292.257 348.895 292.604C349.189 292.937 349.602 293.104 350.135 293.104C350.255 293.104 350.362 293.104 350.455 293.104C350.549 293.091 350.642 293.077 350.735 293.064C350.882 293.051 350.989 293.091 351.055 293.184C351.122 293.277 351.155 293.464 351.155 293.744C351.155 293.997 351.095 294.197 350.975 294.344C350.869 294.477 350.689 294.564 350.435 294.604C350.315 294.617 350.195 294.624 350.075 294.624C349.955 294.637 349.835 294.644 349.715 294.644ZM353.571 294.564C353.291 294.564 353.071 294.477 352.911 294.304C352.751 294.131 352.671 293.891 352.671 293.584V285.604C352.671 285.284 352.751 285.044 352.911 284.884C353.071 284.711 353.291 284.624 353.571 284.624C353.864 284.624 354.091 284.711 354.251 284.884C354.411 285.044 354.491 285.284 354.491 285.604V293.584C354.491 293.891 354.411 294.131 354.251 294.304C354.104 294.477 353.878 294.564 353.571 294.564ZM353.571 282.464C353.211 282.464 352.924 282.371 352.711 282.184C352.511 281.984 352.411 281.724 352.411 281.404C352.411 281.057 352.511 280.797 352.711 280.624C352.924 280.437 353.211 280.344 353.571 280.344C353.958 280.344 354.244 280.437 354.431 280.624C354.631 280.797 354.731 281.057 354.731 281.404C354.731 281.724 354.631 281.984 354.431 282.184C354.244 282.371 353.958 282.464 353.571 282.464ZM360.777 294.644C360.177 294.644 359.57 294.577 358.957 294.444C358.357 294.297 357.79 294.051 357.257 293.704C357.11 293.611 357.004 293.497 356.937 293.364C356.884 293.217 356.864 293.077 356.877 292.944C356.904 292.797 356.964 292.671 357.057 292.564C357.15 292.457 357.264 292.397 357.397 292.384C357.544 292.357 357.697 292.391 357.857 292.484C358.377 292.777 358.877 292.984 359.357 293.104C359.85 293.224 360.337 293.284 360.817 293.284C361.55 293.284 362.104 293.151 362.477 292.884C362.85 292.617 363.037 292.264 363.037 291.824C363.037 291.451 362.91 291.164 362.657 290.964C362.417 290.751 362.037 290.591 361.517 290.484L359.657 290.104C358.83 289.917 358.204 289.611 357.777 289.184C357.364 288.744 357.157 288.184 357.157 287.504C357.157 286.904 357.317 286.384 357.637 285.944C357.97 285.491 358.43 285.144 359.017 284.904C359.604 284.664 360.277 284.544 361.037 284.544C361.624 284.544 362.177 284.624 362.697 284.784C363.23 284.931 363.71 285.157 364.137 285.464C364.297 285.557 364.397 285.677 364.437 285.824C364.49 285.957 364.497 286.097 364.457 286.244C364.43 286.377 364.37 286.491 364.277 286.584C364.184 286.677 364.064 286.737 363.917 286.764C363.77 286.777 363.61 286.737 363.437 286.644C363.05 286.377 362.65 286.191 362.237 286.084C361.837 285.964 361.437 285.904 361.037 285.904C360.317 285.904 359.77 286.044 359.397 286.324C359.037 286.604 358.857 286.971 358.857 287.424C358.857 287.771 358.964 288.057 359.177 288.284C359.404 288.511 359.757 288.677 360.237 288.784L362.097 289.164C362.964 289.351 363.617 289.651 364.057 290.064C364.497 290.464 364.717 291.011 364.717 291.704C364.717 292.611 364.357 293.331 363.637 293.864C362.93 294.384 361.977 294.644 360.777 294.644ZM28.4556 324.644C27.669 324.644 27.009 324.497 26.4756 324.204C25.9556 323.911 25.569 323.477 25.3156 322.904C25.0623 322.331 24.9356 321.611 24.9356 320.744V315.504C24.9356 315.197 25.009 314.971 25.1556 314.824C25.3156 314.664 25.5423 314.584 25.8356 314.584C26.129 314.584 26.3556 314.664 26.5156 314.824C26.6756 314.971 26.7556 315.197 26.7556 315.504V320.744C26.7556 321.571 26.9223 322.184 27.2556 322.584C27.589 322.971 28.1156 323.164 28.8356 323.164C29.6356 323.164 30.2823 322.897 30.7756 322.364C31.2823 321.831 31.5356 321.124 31.5356 320.244V315.504C31.5356 315.197 31.609 314.971 31.7556 314.824C31.9156 314.664 32.1423 314.584 32.4356 314.584C32.729 314.584 32.9556 314.664 33.1156 314.824C33.2756 314.971 33.3556 315.197 33.3556 315.504V323.664C33.3556 324.291 33.0623 324.604 32.4756 324.604C32.1823 324.604 31.9556 324.524 31.7956 324.364C31.649 324.204 31.5756 323.971 31.5756 323.664V321.924L31.8356 322.264C31.569 323.037 31.1356 323.631 30.5356 324.044C29.949 324.444 29.2556 324.644 28.4556 324.644ZM37.2242 324.604C36.9176 324.604 36.6842 324.524 36.5242 324.364C36.3642 324.204 36.2842 323.971 36.2842 323.664V315.504C36.2842 315.197 36.3642 314.971 36.5242 314.824C36.6842 314.664 36.9042 314.584 37.1842 314.584C37.4642 314.584 37.6776 314.664 37.8242 314.824C37.9842 314.971 38.0642 315.197 38.0642 315.504V317.044H37.8642C38.0776 316.244 38.4776 315.637 39.0642 315.224C39.6509 314.811 40.3909 314.577 41.2842 314.524C41.4976 314.511 41.6709 314.564 41.8042 314.684C41.9376 314.791 42.0109 314.977 42.0242 315.244C42.0376 315.497 41.9776 315.704 41.8442 315.864C41.7109 316.011 41.5042 316.097 41.2242 316.124L40.8642 316.144C39.9842 316.237 39.3042 316.524 38.8242 317.004C38.3576 317.484 38.1242 318.144 38.1242 318.984V323.664C38.1242 323.971 38.0442 324.204 37.8842 324.364C37.7376 324.524 37.5176 324.604 37.2242 324.604ZM44.4889 324.604C44.2089 324.604 43.9889 324.524 43.8289 324.364C43.6689 324.204 43.5889 323.971 43.5889 323.664V315.504C43.5889 315.197 43.6689 314.971 43.8289 314.824C43.9889 314.664 44.2089 314.584 44.4889 314.584C44.7689 314.584 44.9822 314.664 45.1289 314.824C45.2889 314.971 45.3689 315.197 45.3689 315.504V317.144L45.1489 316.844C45.4289 316.084 45.8822 315.511 46.5089 315.124C47.1489 314.737 47.8756 314.544 48.6889 314.544C49.4756 314.544 50.1222 314.684 50.6289 314.964C51.1356 315.244 51.5156 315.671 51.7689 316.244C52.0222 316.817 52.1489 317.544 52.1489 318.424V323.664C52.1489 323.971 52.0689 324.204 51.9089 324.364C51.7622 324.524 51.5422 324.604 51.2489 324.604C50.9556 324.604 50.7289 324.524 50.5689 324.364C50.4089 324.204 50.3289 323.971 50.3289 323.664V318.524C50.3289 317.657 50.1622 317.024 49.8289 316.624C49.4956 316.224 48.9622 316.024 48.2289 316.024C47.3756 316.024 46.6889 316.291 46.1689 316.824C45.6622 317.344 45.4089 318.051 45.4089 318.944V323.664C45.4089 324.291 45.1022 324.604 44.4889 324.604ZM58.1342 324.644C57.4676 324.644 56.8609 324.511 56.3142 324.244C55.7809 323.977 55.3609 323.617 55.0542 323.164C54.7609 322.711 54.6142 322.204 54.6142 321.644C54.6142 320.924 54.7942 320.357 55.1542 319.944C55.5142 319.531 56.1209 319.237 56.9742 319.064C57.8276 318.877 58.9742 318.784 60.4142 318.784H61.3542V319.944H60.4542C59.4276 319.944 58.6142 319.991 58.0142 320.084C57.4276 320.177 57.0142 320.344 56.7742 320.584C56.5342 320.811 56.4142 321.131 56.4142 321.544C56.4142 322.064 56.5942 322.491 56.9542 322.824C57.3276 323.157 57.8342 323.324 58.4742 323.324C58.9809 323.324 59.4276 323.204 59.8142 322.964C60.2009 322.711 60.5076 322.377 60.7342 321.964C60.9609 321.537 61.0742 321.051 61.0742 320.504V318.204C61.0742 317.417 60.9142 316.851 60.5942 316.504C60.2742 316.144 59.7342 315.964 58.9742 315.964C58.5342 315.964 58.0809 316.024 57.6142 316.144C57.1476 316.264 56.6609 316.451 56.1542 316.704C55.9542 316.797 55.7809 316.831 55.6342 316.804C55.4876 316.764 55.3676 316.684 55.2742 316.564C55.1942 316.431 55.1476 316.291 55.1342 316.144C55.1342 315.984 55.1676 315.831 55.2342 315.684C55.3142 315.537 55.4476 315.431 55.6342 315.364C56.2209 315.071 56.8009 314.864 57.3742 314.744C57.9609 314.611 58.5076 314.544 59.0142 314.544C59.8809 314.544 60.5942 314.684 61.1542 314.964C61.7142 315.231 62.1342 315.651 62.4142 316.224C62.6942 316.784 62.8342 317.504 62.8342 318.384V323.664C62.8342 323.971 62.7609 324.204 62.6142 324.364C62.4676 324.524 62.2542 324.604 61.9742 324.604C61.7076 324.604 61.4942 324.524 61.3342 324.364C61.1876 324.204 61.1142 323.971 61.1142 323.664V322.244H61.2942C61.1876 322.737 60.9876 323.164 60.6942 323.524C60.4009 323.884 60.0342 324.164 59.5942 324.364C59.1676 324.551 58.6809 324.644 58.1342 324.644ZM75.0531 324.644C74.0931 324.644 73.2598 324.437 72.5531 324.024C71.8465 323.611 71.2998 323.024 70.9131 322.264C70.5265 321.504 70.3331 320.611 70.3331 319.584C70.3331 318.811 70.4398 318.117 70.6531 317.504C70.8798 316.877 71.1998 316.344 71.6131 315.904C72.0265 315.464 72.5198 315.131 73.0931 314.904C73.6798 314.664 74.3331 314.544 75.0531 314.544C76.0131 314.544 76.8465 314.751 77.5531 315.164C78.2598 315.577 78.8065 316.164 79.1931 316.924C79.5798 317.671 79.7731 318.557 79.7731 319.584C79.7731 320.357 79.6598 321.057 79.4331 321.684C79.2198 322.311 78.9065 322.844 78.4931 323.284C78.0798 323.724 77.5798 324.064 76.9931 324.304C76.4198 324.531 75.7731 324.644 75.0531 324.644ZM75.0531 323.204C75.6398 323.204 76.1465 323.064 76.5731 322.784C77.0131 322.504 77.3465 322.097 77.5731 321.564C77.8131 321.031 77.9331 320.371 77.9331 319.584C77.9331 318.411 77.6731 317.517 77.1531 316.904C76.6331 316.291 75.9331 315.984 75.0531 315.984C74.4798 315.984 73.9731 316.124 73.5331 316.404C73.1065 316.671 72.7731 317.071 72.5331 317.604C72.2931 318.137 72.1731 318.797 72.1731 319.584C72.1731 320.757 72.4331 321.657 72.9531 322.284C73.4865 322.897 74.1865 323.204 75.0531 323.204ZM83.0445 324.604C82.7379 324.604 82.5045 324.524 82.3445 324.364C82.1845 324.204 82.1045 323.971 82.1045 323.664V315.504C82.1045 315.197 82.1845 314.971 82.3445 314.824C82.5045 314.664 82.7245 314.584 83.0045 314.584C83.2845 314.584 83.4979 314.664 83.6445 314.824C83.8045 314.971 83.8845 315.197 83.8845 315.504V317.044H83.6845C83.8979 316.244 84.2979 315.637 84.8845 315.224C85.4712 314.811 86.2112 314.577 87.1045 314.524C87.3179 314.511 87.4912 314.564 87.6245 314.684C87.7579 314.791 87.8312 314.977 87.8445 315.244C87.8579 315.497 87.7979 315.704 87.6645 315.864C87.5312 316.011 87.3245 316.097 87.0445 316.124L86.6845 316.144C85.8045 316.237 85.1245 316.524 84.6445 317.004C84.1779 317.484 83.9445 318.144 83.9445 318.984V323.664C83.9445 323.971 83.8645 324.204 83.7045 324.364C83.5579 324.524 83.3379 324.604 83.0445 324.604ZM93.7725 324.644C92.7192 324.644 91.8125 324.444 91.0525 324.044C90.3058 323.631 89.7258 323.051 89.3125 322.304C88.8992 321.544 88.6925 320.651 88.6925 319.624C88.6925 318.611 88.8925 317.724 89.2925 316.964C89.7058 316.204 90.2658 315.611 90.9725 315.184C91.6925 314.757 92.5125 314.544 93.4325 314.544C94.0858 314.544 94.6725 314.657 95.1925 314.884C95.7258 315.097 96.1792 315.411 96.5525 315.824C96.9258 316.237 97.2058 316.744 97.3925 317.344C97.5925 317.931 97.6925 318.597 97.6925 319.344C97.6925 319.557 97.6258 319.724 97.4925 319.844C97.3725 319.951 97.1925 320.004 96.9525 320.004H90.1125V318.844H96.4925L96.1525 319.124C96.1525 318.431 96.0458 317.844 95.8325 317.364C95.6325 316.871 95.3325 316.497 94.9325 316.244C94.5458 315.991 94.0592 315.864 93.4725 315.864C92.8325 315.864 92.2858 316.017 91.8325 316.324C91.3792 316.617 91.0325 317.037 90.7925 317.584C90.5525 318.117 90.4325 318.737 90.4325 319.444V319.564C90.4325 320.764 90.7192 321.671 91.2925 322.284C91.8658 322.897 92.6925 323.204 93.7725 323.204C94.1992 323.204 94.6325 323.151 95.0725 323.044C95.5258 322.937 95.9592 322.744 96.3725 322.464C96.5725 322.344 96.7525 322.291 96.9125 322.304C97.0858 322.304 97.2258 322.357 97.3325 322.464C97.4392 322.557 97.5058 322.677 97.5325 322.824C97.5592 322.957 97.5392 323.104 97.4725 323.264C97.4058 323.424 97.2792 323.564 97.0925 323.684C96.6525 323.991 96.1258 324.231 95.5125 324.404C94.9125 324.564 94.3325 324.644 93.7725 324.644ZM100.896 324.604C100.616 324.604 100.396 324.524 100.236 324.364C100.076 324.204 99.9961 323.971 99.9961 323.664V315.504C99.9961 315.197 100.076 314.971 100.236 314.824C100.396 314.664 100.616 314.584 100.896 314.584C101.176 314.584 101.389 314.664 101.536 314.824C101.696 314.971 101.776 315.197 101.776 315.504V317.204L101.556 316.844C101.809 316.111 102.216 315.544 102.776 315.144C103.349 314.744 104.029 314.544 104.816 314.544C105.643 314.544 106.309 314.744 106.816 315.144C107.323 315.531 107.663 316.124 107.836 316.924H107.556C107.796 316.191 108.223 315.611 108.836 315.184C109.463 314.757 110.189 314.544 111.016 314.544C111.749 314.544 112.349 314.691 112.816 314.984C113.296 315.264 113.656 315.691 113.896 316.264C114.136 316.824 114.256 317.544 114.256 318.424V323.664C114.256 323.971 114.176 324.204 114.016 324.364C113.856 324.524 113.636 324.604 113.356 324.604C113.063 324.604 112.836 324.524 112.676 324.364C112.516 324.204 112.436 323.971 112.436 323.664V318.504C112.436 317.651 112.289 317.024 111.996 316.624C111.703 316.224 111.209 316.024 110.516 316.024C109.756 316.024 109.149 316.291 108.696 316.824C108.256 317.344 108.036 318.064 108.036 318.984V323.664C108.036 323.971 107.956 324.204 107.796 324.364C107.649 324.524 107.429 324.604 107.136 324.604C106.843 324.604 106.616 324.524 106.456 324.364C106.296 324.204 106.216 323.971 106.216 323.664V318.504C106.216 317.651 106.069 317.024 105.776 316.624C105.483 316.224 104.989 316.024 104.296 316.024C103.536 316.024 102.929 316.291 102.476 316.824C102.036 317.344 101.816 318.064 101.816 318.984V323.664C101.816 324.291 101.509 324.604 100.896 324.604ZM123.298 324.564C123.018 324.564 122.798 324.477 122.638 324.304C122.478 324.131 122.398 323.891 122.398 323.584V315.604C122.398 315.284 122.478 315.044 122.638 314.884C122.798 314.711 123.018 314.624 123.298 314.624C123.591 314.624 123.818 314.711 123.978 314.884C124.138 315.044 124.218 315.284 124.218 315.604V323.584C124.218 323.891 124.138 324.131 123.978 324.304C123.831 324.477 123.604 324.564 123.298 324.564ZM123.298 312.464C122.938 312.464 122.651 312.371 122.438 312.184C122.238 311.984 122.138 311.724 122.138 311.404C122.138 311.057 122.238 310.797 122.438 310.624C122.651 310.437 122.938 310.344 123.298 310.344C123.684 310.344 123.971 310.437 124.158 310.624C124.358 310.797 124.458 311.057 124.458 311.404C124.458 311.724 124.358 311.984 124.158 312.184C123.971 312.371 123.684 312.464 123.298 312.464ZM128.044 328.204C127.764 328.204 127.544 328.124 127.384 327.964C127.224 327.804 127.144 327.577 127.144 327.284V315.504C127.144 315.197 127.224 314.971 127.384 314.824C127.544 314.664 127.764 314.584 128.044 314.584C128.337 314.584 128.557 314.664 128.704 314.824C128.864 314.971 128.944 315.197 128.944 315.504V317.324L128.724 316.964C128.937 316.231 129.357 315.644 129.984 315.204C130.61 314.764 131.364 314.544 132.244 314.544C133.11 314.544 133.864 314.751 134.504 315.164C135.144 315.564 135.644 316.144 136.004 316.904C136.364 317.651 136.544 318.544 136.544 319.584C136.544 320.611 136.364 321.511 136.004 322.284C135.657 323.044 135.157 323.631 134.504 324.044C133.864 324.444 133.11 324.644 132.244 324.644C131.377 324.644 130.63 324.424 130.004 323.984C129.377 323.544 128.957 322.964 128.744 322.244H128.964V327.284C128.964 327.577 128.884 327.804 128.724 327.964C128.564 328.124 128.337 328.204 128.044 328.204ZM131.824 323.204C132.397 323.204 132.897 323.064 133.324 322.784C133.764 322.504 134.104 322.097 134.344 321.564C134.584 321.031 134.704 320.371 134.704 319.584C134.704 318.411 134.444 317.517 133.924 316.904C133.404 316.291 132.704 315.984 131.824 315.984C131.237 315.984 130.724 316.124 130.284 316.404C129.857 316.671 129.524 317.071 129.284 317.604C129.057 318.137 128.944 318.797 128.944 319.584C128.944 320.757 129.204 321.657 129.724 322.284C130.244 322.897 130.944 323.204 131.824 323.204ZM142.242 324.644C141.642 324.644 141.035 324.577 140.422 324.444C139.822 324.297 139.255 324.051 138.722 323.704C138.575 323.611 138.469 323.497 138.402 323.364C138.349 323.217 138.329 323.077 138.342 322.944C138.369 322.797 138.429 322.671 138.522 322.564C138.615 322.457 138.729 322.397 138.862 322.384C139.009 322.357 139.162 322.391 139.322 322.484C139.842 322.777 140.342 322.984 140.822 323.104C141.315 323.224 141.802 323.284 142.282 323.284C143.015 323.284 143.569 323.151 143.942 322.884C144.315 322.617 144.502 322.264 144.502 321.824C144.502 321.451 144.375 321.164 144.122 320.964C143.882 320.751 143.502 320.591 142.982 320.484L141.122 320.104C140.295 319.917 139.669 319.611 139.242 319.184C138.829 318.744 138.622 318.184 138.622 317.504C138.622 316.904 138.782 316.384 139.102 315.944C139.435 315.491 139.895 315.144 140.482 314.904C141.069 314.664 141.742 314.544 142.502 314.544C143.089 314.544 143.642 314.624 144.162 314.784C144.695 314.931 145.175 315.157 145.602 315.464C145.762 315.557 145.862 315.677 145.902 315.824C145.955 315.957 145.962 316.097 145.922 316.244C145.895 316.377 145.835 316.491 145.742 316.584C145.649 316.677 145.529 316.737 145.382 316.764C145.235 316.777 145.075 316.737 144.902 316.644C144.515 316.377 144.115 316.191 143.702 316.084C143.302 315.964 142.902 315.904 142.502 315.904C141.782 315.904 141.235 316.044 140.862 316.324C140.502 316.604 140.322 316.971 140.322 317.424C140.322 317.771 140.429 318.057 140.642 318.284C140.869 318.511 141.222 318.677 141.702 318.784L143.562 319.164C144.429 319.351 145.082 319.651 145.522 320.064C145.962 320.464 146.182 321.011 146.182 321.704C146.182 322.611 145.822 323.331 145.102 323.864C144.395 324.384 143.442 324.644 142.242 324.644ZM152.03 324.644C151.243 324.644 150.583 324.497 150.05 324.204C149.53 323.911 149.143 323.477 148.89 322.904C148.637 322.331 148.51 321.611 148.51 320.744V315.504C148.51 315.197 148.583 314.971 148.73 314.824C148.89 314.664 149.117 314.584 149.41 314.584C149.703 314.584 149.93 314.664 150.09 314.824C150.25 314.971 150.33 315.197 150.33 315.504V320.744C150.33 321.571 150.497 322.184 150.83 322.584C151.163 322.971 151.69 323.164 152.41 323.164C153.21 323.164 153.857 322.897 154.35 322.364C154.857 321.831 155.11 321.124 155.11 320.244V315.504C155.11 315.197 155.183 314.971 155.33 314.824C155.49 314.664 155.717 314.584 156.01 314.584C156.303 314.584 156.53 314.664 156.69 314.824C156.85 314.971 156.93 315.197 156.93 315.504V323.664C156.93 324.291 156.637 324.604 156.05 324.604C155.757 324.604 155.53 324.524 155.37 324.364C155.223 324.204 155.15 323.971 155.15 323.664V321.924L155.41 322.264C155.143 323.037 154.71 323.631 154.11 324.044C153.523 324.444 152.83 324.644 152.03 324.644ZM160.798 324.604C160.518 324.604 160.298 324.524 160.138 324.364C159.978 324.204 159.898 323.971 159.898 323.664V315.504C159.898 315.197 159.978 314.971 160.138 314.824C160.298 314.664 160.518 314.584 160.798 314.584C161.078 314.584 161.292 314.664 161.438 314.824C161.598 314.971 161.678 315.197 161.678 315.504V317.204L161.458 316.844C161.712 316.111 162.118 315.544 162.678 315.144C163.252 314.744 163.932 314.544 164.718 314.544C165.545 314.544 166.212 314.744 166.718 315.144C167.225 315.531 167.565 316.124 167.738 316.924H167.458C167.698 316.191 168.125 315.611 168.738 315.184C169.365 314.757 170.092 314.544 170.918 314.544C171.652 314.544 172.252 314.691 172.718 314.984C173.198 315.264 173.558 315.691 173.798 316.264C174.038 316.824 174.158 317.544 174.158 318.424V323.664C174.158 323.971 174.078 324.204 173.918 324.364C173.758 324.524 173.538 324.604 173.258 324.604C172.965 324.604 172.738 324.524 172.578 324.364C172.418 324.204 172.338 323.971 172.338 323.664V318.504C172.338 317.651 172.192 317.024 171.898 316.624C171.605 316.224 171.112 316.024 170.418 316.024C169.658 316.024 169.052 316.291 168.598 316.824C168.158 317.344 167.938 318.064 167.938 318.984V323.664C167.938 323.971 167.858 324.204 167.698 324.364C167.552 324.524 167.332 324.604 167.038 324.604C166.745 324.604 166.518 324.524 166.358 324.364C166.198 324.204 166.118 323.971 166.118 323.664V318.504C166.118 317.651 165.972 317.024 165.678 316.624C165.385 316.224 164.892 316.024 164.198 316.024C163.438 316.024 162.832 316.291 162.378 316.824C161.938 317.344 161.718 318.064 161.718 318.984V323.664C161.718 324.291 161.412 324.604 160.798 324.604ZM177.965 324.544C177.618 324.544 177.332 324.431 177.105 324.204C176.878 323.977 176.765 323.691 176.765 323.344C176.765 322.997 176.878 322.717 177.105 322.504C177.332 322.291 177.618 322.184 177.965 322.184C178.338 322.184 178.625 322.291 178.825 322.504C179.038 322.717 179.145 322.997 179.145 323.344C179.145 323.691 179.038 323.977 178.825 324.204C178.625 324.431 178.338 324.544 177.965 324.544Z" fill="#F9FBFB"/>
</svg>
