<svg width="412" height="622" viewBox="0 0 412 622" fill="none" xmlns="http://www.w3.org/2000/svg">
<path d="M0 23.2675C0 10.4172 10.4172 0 23.2675 0H388.446C401.296 0 411.713 10.4172 411.713 23.2675V598.168C411.713 611.019 401.296 621.436 388.446 621.436H23.2675C10.4172 621.436 0 611.019 0 598.168V23.2675Z" fill="#7030A0"/>
<path d="M36.6021 61.6128C34.8702 61.6128 33.1074 61.3809 31.3136 60.917C29.5198 60.4221 27.958 59.6954 26.6282 58.7366C26.1334 58.4274 25.7932 58.0562 25.6076 57.6233C25.453 57.1594 25.422 56.7418 25.5148 56.3707C25.6076 55.9687 25.7932 55.6285 26.0715 55.3501C26.3808 55.0718 26.7519 54.9172 27.1849 54.8862C27.6178 54.8244 28.0972 54.9481 28.623 55.2574C29.9528 56.0615 31.2518 56.6491 32.5198 57.0202C33.7878 57.3604 35.1021 57.5305 36.4629 57.5305C37.9474 57.5305 39.1999 57.314 40.2205 56.881C41.2411 56.448 41.9988 55.814 42.4937 54.979C43.0194 54.144 43.2823 53.1389 43.2823 51.9637C43.2823 50.2008 42.6947 48.8864 41.5195 48.0205C40.3752 47.1236 38.7051 46.6752 36.5093 46.6752H33.3548C32.6435 46.6752 32.1022 46.5051 31.7311 46.1649C31.36 45.7938 31.1744 45.2835 31.1744 44.634C31.1744 44.0155 31.36 43.5361 31.7311 43.1959C32.1022 42.8248 32.6435 42.6392 33.3548 42.6392H36.0454C37.3753 42.6392 38.5041 42.4227 39.4319 41.9898C40.3597 41.5258 41.071 40.8918 41.5659 40.0878C42.0916 39.2527 42.3545 38.2476 42.3545 37.0724C42.3545 35.4951 41.8287 34.289 40.7772 33.4539C39.7566 32.588 38.2567 32.155 36.2774 32.155C35.0094 32.155 33.8032 32.3251 32.6589 32.6653C31.5456 33.0055 30.3858 33.6086 29.1797 34.4745C28.7158 34.7838 28.2673 34.923 27.8343 34.892C27.4323 34.8302 27.0766 34.6756 26.7674 34.4281C26.489 34.1498 26.288 33.8096 26.1643 33.4076C26.0715 33.0055 26.1024 32.588 26.2571 32.155C26.4117 31.722 26.721 31.3509 27.1849 31.0417C28.4838 30.0829 29.9528 29.3561 31.5919 28.8613C33.2311 28.3356 34.9166 28.0727 36.6485 28.0727C38.8134 28.0727 40.669 28.4129 42.2153 29.0933C43.7926 29.7737 44.9833 30.7478 45.7874 32.0158C46.6224 33.2838 47.0399 34.7993 47.0399 36.5621C47.0399 37.8919 46.7925 39.0981 46.2977 40.1805C45.8028 41.263 45.0915 42.1908 44.1637 42.9639C43.2668 43.7062 42.1689 44.2319 40.87 44.5412V44.0309C43.1277 44.402 44.875 45.3298 46.1121 46.8143C47.3492 48.2679 47.9677 50.0926 47.9677 52.2884C47.9677 54.2058 47.5038 55.8759 46.576 57.2985C45.6791 58.6902 44.3802 59.7572 42.6792 60.4995C40.9782 61.2417 38.9525 61.6128 36.6021 61.6128ZM64.9284 61.6128C61.1244 61.6128 58.2173 60.1747 56.207 57.2985C54.2277 54.3914 53.2381 50.2318 53.2381 44.8196C53.2381 41.1393 53.6865 38.062 54.5834 35.5879C55.4803 33.1138 56.7947 31.2427 58.5266 29.9747C60.2585 28.7067 62.3924 28.0727 64.9284 28.0727C68.7633 28.0727 71.6705 29.4953 73.6498 32.3406C75.6291 35.1549 76.6188 39.2991 76.6188 44.7732C76.6188 48.3916 76.1703 51.4534 75.2734 53.9584C74.3766 56.4635 73.0622 58.3655 71.3303 59.6644C69.5984 60.9634 67.4644 61.6128 64.9284 61.6128ZM64.9284 57.6233C67.3098 57.6233 69.0571 56.5872 70.1705 54.5151C71.3148 52.4121 71.8869 49.1648 71.8869 44.7732C71.8869 40.3506 71.3148 37.1342 70.1705 35.124C69.0571 33.0828 67.3098 32.0622 64.9284 32.0622C62.578 32.0622 60.8306 33.0828 59.6863 35.124C58.542 37.1342 57.9699 40.3506 57.9699 44.7732C57.9699 49.1648 58.542 52.4121 59.6863 54.5151C60.8306 56.5872 62.578 57.6233 64.9284 57.6233ZM93.3475 61.0561C93.1001 61.52 92.7754 61.8293 92.3733 61.9839C92.0022 62.1386 91.6311 62.1695 91.2599 62.0767C90.8888 61.9839 90.5796 61.7984 90.3321 61.52C90.0847 61.2417 89.9301 60.9015 89.8682 60.4995C89.8373 60.0974 89.9456 59.6644 90.193 59.2005L107.728 28.7221C107.976 28.2273 108.285 27.9026 108.656 27.7479C109.058 27.5933 109.429 27.5624 109.77 27.6552C110.141 27.7479 110.45 27.9335 110.697 28.2118C110.976 28.4902 111.146 28.8304 111.208 29.2324C111.27 29.6345 111.161 30.0675 110.883 30.5314L93.3475 61.0561ZM89.2188 48.0669C86.6828 48.0669 84.7035 47.1855 83.2808 45.4226C81.8582 43.6289 81.1469 41.1702 81.1469 38.0466C81.1469 35.9436 81.4716 34.1498 82.1211 32.6653C82.7705 31.1808 83.6983 30.052 84.9045 29.2788C86.1106 28.4747 87.5487 28.0727 89.2188 28.0727C91.7239 28.0727 93.6877 28.9541 95.1103 30.7169C96.5639 32.4798 97.2907 34.923 97.2907 38.0466C97.2907 40.1187 96.9659 41.9124 96.3165 43.4278C95.6979 44.9123 94.7856 46.0566 93.5795 46.8607C92.3733 47.6648 90.9198 48.0669 89.2188 48.0669ZM89.2188 44.7732C90.0847 44.7732 90.827 44.5258 91.4455 44.0309C92.064 43.5361 92.5279 42.7938 92.8372 41.8042C93.1774 40.8145 93.3475 39.562 93.3475 38.0466C93.3475 35.7889 92.9764 34.1034 92.2341 32.99C91.5228 31.8767 90.5177 31.32 89.2188 31.32C88.3528 31.32 87.6106 31.5674 86.992 32.0622C86.3735 32.5571 85.8941 33.2993 85.5539 34.289C85.2447 35.2786 85.09 36.5312 85.09 38.0466C85.09 40.3352 85.4457 42.0361 86.157 43.1495C86.8993 44.2319 87.9199 44.7732 89.2188 44.7732ZM111.904 61.6128C109.399 61.6128 107.435 60.7314 106.012 58.9686C104.589 57.2058 103.878 54.7471 103.878 51.5925C103.878 49.5204 104.187 47.7421 104.806 46.2577C105.455 44.7732 106.383 43.6289 107.589 42.8248C108.795 42.0207 110.234 41.6186 111.904 41.6186C114.44 41.6186 116.419 42.5155 117.842 44.3093C119.264 46.0721 119.976 48.4998 119.976 51.5925C119.976 53.6956 119.651 55.5048 119.001 57.0202C118.383 58.5047 117.47 59.649 116.264 60.4531C115.058 61.2262 113.605 61.6128 111.904 61.6128ZM111.904 58.3655C112.77 58.3655 113.512 58.1181 114.13 57.6233C114.749 57.1284 115.213 56.3862 115.522 55.3965C115.862 54.3759 116.032 53.1079 116.032 51.5925C116.032 49.3658 115.661 47.6958 114.919 46.5824C114.208 45.469 113.203 44.9123 111.904 44.9123C111.069 44.9123 110.326 45.1598 109.677 45.6546C109.058 46.1494 108.579 46.8917 108.239 47.8813C107.93 48.871 107.775 50.108 107.775 51.5925C107.775 53.8811 108.146 55.5821 108.888 56.6955C109.63 57.8088 110.636 58.3655 111.904 58.3655Z" fill="#F9FBFB"/>
<path d="M27.3873 517.733C26.918 517.733 26.5553 517.605 26.2993 517.349C26.0433 517.072 25.9153 516.688 25.9153 516.197V496.261C25.9153 495.749 26.0433 495.365 26.2993 495.109C26.5553 494.853 26.918 494.725 27.3873 494.725C27.878 494.725 28.2513 494.853 28.5073 495.109C28.7633 495.365 28.8913 495.749 28.8913 496.261V516.197C28.8913 516.688 28.7633 517.072 28.5073 517.349C28.2726 517.605 27.8993 517.733 27.3873 517.733ZM35.3463 517.733C34.8983 517.733 34.5463 517.605 34.2903 517.349C34.0343 517.093 33.9063 516.72 33.9063 516.229V503.173C33.9063 502.683 34.0343 502.32 34.2903 502.085C34.5463 501.829 34.8983 501.701 35.3463 501.701C35.7943 501.701 36.1356 501.829 36.3703 502.085C36.6263 502.32 36.7543 502.683 36.7543 503.173V505.797L36.4023 505.317C36.8503 504.101 37.5756 503.184 38.5783 502.565C39.6023 501.947 40.765 501.637 42.0663 501.637C43.325 501.637 44.3596 501.861 45.1703 502.309C45.981 502.757 46.589 503.44 46.9943 504.357C47.3996 505.275 47.6023 506.437 47.6023 507.845V516.229C47.6023 516.72 47.4743 517.093 47.2183 517.349C46.9836 517.605 46.6316 517.733 46.1623 517.733C45.693 517.733 45.3303 517.605 45.0743 517.349C44.8183 517.093 44.6903 516.72 44.6903 516.229V508.005C44.6903 506.619 44.4236 505.605 43.8903 504.965C43.357 504.325 42.5036 504.005 41.3303 504.005C39.965 504.005 38.8663 504.432 38.0343 505.285C37.2236 506.117 36.8183 507.248 36.8183 508.677V516.229C36.8183 517.232 36.3276 517.733 35.3463 517.733ZM58.1708 517.797C56.8055 517.797 55.6001 517.477 54.5548 516.837C53.5308 516.176 52.7308 515.237 52.1548 514.021C51.5788 512.784 51.2908 511.344 51.2908 509.701C51.2908 508.037 51.5681 506.608 52.1228 505.413C52.6988 504.197 53.4988 503.269 54.5228 502.629C55.5681 501.968 56.7841 501.637 58.1708 501.637C59.5575 501.637 60.7521 501.989 61.7548 502.693C62.7575 503.376 63.4295 504.293 63.7708 505.445H63.4188V496.197C63.4188 495.707 63.5361 495.344 63.7708 495.109C64.0268 494.853 64.3895 494.725 64.8588 494.725C65.3281 494.725 65.6908 494.853 65.9468 495.109C66.2028 495.344 66.3308 495.707 66.3308 496.197V516.229C66.3308 516.72 66.2028 517.093 65.9468 517.349C65.6908 517.605 65.3281 517.733 64.8588 517.733C64.4108 517.733 64.0588 517.605 63.8028 517.349C63.5468 517.093 63.4188 516.72 63.4188 516.229V513.317L63.7708 513.893C63.4508 515.088 62.7788 516.037 61.7548 516.741C60.7521 517.445 59.5575 517.797 58.1708 517.797ZM58.8428 515.493C59.7815 515.493 60.5921 515.269 61.2748 514.821C61.9788 514.373 62.5121 513.723 62.8748 512.869C63.2588 512.016 63.4508 510.96 63.4508 509.701C63.4508 507.824 63.0348 506.395 62.2028 505.413C61.3708 504.432 60.2508 503.941 58.8428 503.941C57.9255 503.941 57.1148 504.165 56.4108 504.613C55.7281 505.04 55.1948 505.68 54.8108 506.533C54.4268 507.387 54.2348 508.443 54.2348 509.701C54.2348 511.579 54.6508 513.019 55.4828 514.021C56.3361 515.003 57.4561 515.493 58.8428 515.493ZM72.4401 517.669C71.9921 517.669 71.6401 517.531 71.3841 517.253C71.1281 516.976 71.0001 516.592 71.0001 516.101V503.333C71.0001 502.821 71.1281 502.437 71.3841 502.181C71.6401 501.904 71.9921 501.765 72.4401 501.765C72.9094 501.765 73.2721 501.904 73.5281 502.181C73.7841 502.437 73.9121 502.821 73.9121 503.333V516.101C73.9121 516.592 73.7841 516.976 73.5281 517.253C73.2934 517.531 72.9307 517.669 72.4401 517.669ZM72.4401 498.309C71.8641 498.309 71.4054 498.16 71.0641 497.861C70.7441 497.541 70.5841 497.125 70.5841 496.613C70.5841 496.059 70.7441 495.643 71.0641 495.365C71.4054 495.067 71.8641 494.917 72.4401 494.917C73.0587 494.917 73.5174 495.067 73.8161 495.365C74.1361 495.643 74.2961 496.059 74.2961 496.613C74.2961 497.125 74.1361 497.541 73.8161 497.861C73.5174 498.16 73.0587 498.309 72.4401 498.309ZM85.3458 517.797C83.7671 517.797 82.4018 517.467 81.2498 516.805C80.0978 516.123 79.2125 515.173 78.5938 513.957C77.9751 512.72 77.6658 511.269 77.6658 509.605C77.6658 508.368 77.8365 507.259 78.1778 506.277C78.5405 505.296 79.0525 504.464 79.7138 503.781C80.3751 503.077 81.1751 502.544 82.1138 502.181C83.0738 501.819 84.1511 501.637 85.3458 501.637C86.0925 501.637 86.8818 501.755 87.7138 501.989C88.5458 502.224 89.3138 502.608 90.0178 503.141C90.2525 503.312 90.4018 503.515 90.4658 503.749C90.5298 503.963 90.5298 504.187 90.4658 504.421C90.4231 504.656 90.3165 504.859 90.1458 505.029C89.9965 505.179 89.7938 505.264 89.5378 505.285C89.3031 505.307 89.0471 505.232 88.7698 505.061C88.2578 504.677 87.7138 504.4 87.1378 504.229C86.5831 504.059 86.0498 503.973 85.5378 503.973C84.7485 503.973 84.0445 504.101 83.4258 504.357C82.8285 504.613 82.3165 504.987 81.8898 505.477C81.4845 505.947 81.1751 506.533 80.9618 507.237C80.7485 507.92 80.6418 508.72 80.6418 509.637C80.6418 511.451 81.0685 512.88 81.9218 513.925C82.7751 514.949 83.9805 515.461 85.5378 515.461C86.0498 515.461 86.5831 515.387 87.1378 515.237C87.6925 515.067 88.2365 514.789 88.7698 514.405C89.0471 514.235 89.3031 514.171 89.5378 514.213C89.7725 514.235 89.9645 514.331 90.1138 514.501C90.2845 514.651 90.3911 514.843 90.4338 515.077C90.4765 515.291 90.4551 515.515 90.3698 515.749C90.3058 515.984 90.1565 516.176 89.9218 516.325C89.2391 516.837 88.4925 517.211 87.6818 517.445C86.8711 517.68 86.0925 517.797 85.3458 517.797ZM98.3038 517.797C97.2371 517.797 96.2665 517.584 95.3918 517.157C94.5385 516.731 93.8665 516.155 93.3758 515.429C92.9065 514.704 92.6718 513.893 92.6718 512.997C92.6718 511.845 92.9598 510.939 93.5358 510.277C94.1118 509.616 95.0825 509.147 96.4478 508.869C97.8131 508.571 99.6478 508.421 101.952 508.421H103.456V510.277H102.016C100.373 510.277 99.0718 510.352 98.1118 510.501C97.1731 510.651 96.5118 510.917 96.1278 511.301C95.7438 511.664 95.5518 512.176 95.5518 512.837C95.5518 513.669 95.8398 514.352 96.4158 514.885C97.0131 515.419 97.8238 515.685 98.8478 515.685C99.6585 515.685 100.373 515.493 100.992 515.109C101.61 514.704 102.101 514.171 102.464 513.509C102.826 512.827 103.008 512.048 103.008 511.173V507.493C103.008 506.235 102.752 505.328 102.24 504.773C101.728 504.197 100.864 503.909 99.6478 503.909C98.9438 503.909 98.2185 504.005 97.4718 504.197C96.7251 504.389 95.9465 504.688 95.1358 505.093C94.8158 505.243 94.5385 505.296 94.3038 505.253C94.0691 505.189 93.8771 505.061 93.7278 504.869C93.5998 504.656 93.5251 504.432 93.5038 504.197C93.5038 503.941 93.5571 503.696 93.6638 503.461C93.7918 503.227 94.0051 503.056 94.3038 502.949C95.2425 502.48 96.1705 502.149 97.0878 501.957C98.0265 501.744 98.9011 501.637 99.7118 501.637C101.098 501.637 102.24 501.861 103.136 502.309C104.032 502.736 104.704 503.408 105.152 504.325C105.6 505.221 105.824 506.373 105.824 507.781V516.229C105.824 516.72 105.706 517.093 105.472 517.349C105.237 517.605 104.896 517.733 104.448 517.733C104.021 517.733 103.68 517.605 103.424 517.349C103.189 517.093 103.072 516.72 103.072 516.229V513.957H103.36C103.189 514.747 102.869 515.429 102.4 516.005C101.93 516.581 101.344 517.029 100.64 517.349C99.9571 517.648 99.1785 517.797 98.3038 517.797ZM116.87 517.797C115.612 517.797 114.556 517.573 113.702 517.125C112.87 516.677 112.241 516.027 111.814 515.173C111.409 514.32 111.206 513.275 111.206 512.037V504.165H109.158C108.774 504.165 108.476 504.069 108.262 503.877C108.049 503.664 107.942 503.387 107.942 503.045C107.942 502.683 108.049 502.405 108.262 502.213C108.476 502.021 108.774 501.925 109.158 501.925H111.206V498.437C111.206 497.947 111.334 497.584 111.59 497.349C111.846 497.093 112.209 496.965 112.678 496.965C113.148 496.965 113.5 497.093 113.734 497.349C113.99 497.584 114.118 497.947 114.118 498.437V501.925H117.99C118.396 501.925 118.705 502.021 118.918 502.213C119.132 502.405 119.238 502.683 119.238 503.045C119.238 503.387 119.132 503.664 118.918 503.877C118.705 504.069 118.396 504.165 117.99 504.165H114.118V511.781C114.118 512.955 114.364 513.84 114.854 514.437C115.345 515.035 116.156 515.333 117.286 515.333C117.692 515.333 118.033 515.301 118.31 515.237C118.588 515.152 118.833 515.109 119.046 515.109C119.238 515.088 119.398 515.152 119.526 515.301C119.676 515.451 119.75 515.728 119.75 516.133C119.75 516.432 119.697 516.709 119.59 516.965C119.505 517.2 119.324 517.36 119.046 517.445C118.79 517.531 118.449 517.605 118.022 517.669C117.596 517.755 117.212 517.797 116.87 517.797ZM128.343 517.797C126.807 517.797 125.473 517.467 124.343 516.805C123.212 516.144 122.337 515.205 121.719 513.989C121.1 512.773 120.791 511.344 120.791 509.701C120.791 508.464 120.961 507.355 121.303 506.373C121.665 505.371 122.177 504.517 122.839 503.813C123.5 503.109 124.289 502.576 125.207 502.213C126.145 501.829 127.191 501.637 128.343 501.637C129.879 501.637 131.212 501.968 132.343 502.629C133.473 503.291 134.348 504.229 134.967 505.445C135.585 506.64 135.895 508.059 135.895 509.701C135.895 510.939 135.713 512.059 135.351 513.061C135.009 514.064 134.508 514.917 133.847 515.621C133.185 516.325 132.385 516.869 131.447 517.253C130.529 517.616 129.495 517.797 128.343 517.797ZM128.343 515.493C129.281 515.493 130.092 515.269 130.775 514.821C131.479 514.373 132.012 513.723 132.375 512.869C132.759 512.016 132.951 510.96 132.951 509.701C132.951 507.824 132.535 506.395 131.703 505.413C130.871 504.432 129.751 503.941 128.343 503.941C127.425 503.941 126.615 504.165 125.911 504.613C125.228 505.04 124.695 505.68 124.311 506.533C123.927 507.387 123.735 508.443 123.735 509.701C123.735 511.579 124.151 513.019 124.983 514.021C125.836 515.003 126.956 515.493 128.343 515.493ZM141.129 517.733C140.638 517.733 140.265 517.605 140.009 517.349C139.753 517.093 139.625 516.72 139.625 516.229V503.173C139.625 502.683 139.753 502.32 140.009 502.085C140.265 501.829 140.617 501.701 141.065 501.701C141.513 501.701 141.854 501.829 142.089 502.085C142.345 502.32 142.473 502.683 142.473 503.173V505.637H142.153C142.494 504.357 143.134 503.387 144.073 502.725C145.012 502.064 146.196 501.691 147.625 501.605C147.966 501.584 148.244 501.669 148.457 501.861C148.67 502.032 148.788 502.331 148.809 502.757C148.83 503.163 148.734 503.493 148.521 503.749C148.308 503.984 147.977 504.123 147.529 504.165L146.953 504.197C145.545 504.347 144.457 504.805 143.689 505.573C142.942 506.341 142.569 507.397 142.569 508.741V516.229C142.569 516.72 142.441 517.093 142.185 517.349C141.95 517.605 141.598 517.733 141.129 517.733Z" fill="#F9FBFB"/>
<path d="M25.8153 560.381C25.522 560.381 25.2953 560.301 25.1353 560.141C24.9753 559.968 24.8953 559.728 24.8953 559.421V546.961C24.8953 546.641 24.9753 546.401 25.1353 546.241C25.2953 546.081 25.522 546.001 25.8153 546.001C26.122 546.001 26.3553 546.081 26.5153 546.241C26.6753 546.401 26.7553 546.641 26.7553 546.961V552.301H34.9153V546.961C34.9153 546.641 34.9953 546.401 35.1553 546.241C35.3153 546.081 35.5486 546.001 35.8553 546.001C36.1486 546.001 36.3753 546.081 36.5353 546.241C36.6953 546.401 36.7753 546.641 36.7753 546.961V559.421C36.7753 559.728 36.6953 559.968 36.5353 560.141C36.3753 560.301 36.1486 560.381 35.8553 560.381C35.5486 560.381 35.3153 560.301 35.1553 560.141C34.9953 559.968 34.9153 559.728 34.9153 559.421V553.881H26.7553V559.421C26.7553 559.728 26.6753 559.968 26.5153 560.141C26.3686 560.301 26.1353 560.381 25.8153 560.381ZM44.4288 560.421C43.3754 560.421 42.4688 560.221 41.7088 559.821C40.9621 559.408 40.3821 558.828 39.9688 558.081C39.5554 557.321 39.3488 556.428 39.3488 555.401C39.3488 554.388 39.5488 553.501 39.9488 552.741C40.3621 551.981 40.9221 551.388 41.6288 550.961C42.3488 550.535 43.1688 550.321 44.0888 550.321C44.7421 550.321 45.3288 550.435 45.8488 550.661C46.3821 550.875 46.8354 551.188 47.2088 551.601C47.5821 552.015 47.8621 552.521 48.0488 553.121C48.2488 553.708 48.3488 554.375 48.3488 555.121C48.3488 555.335 48.2821 555.501 48.1488 555.621C48.0288 555.728 47.8488 555.781 47.6088 555.781H40.7688V554.621H47.1488L46.8088 554.901C46.8088 554.208 46.7021 553.621 46.4888 553.141C46.2888 552.648 45.9888 552.275 45.5888 552.021C45.2021 551.768 44.7154 551.641 44.1288 551.641C43.4888 551.641 42.9421 551.795 42.4888 552.101C42.0354 552.395 41.6888 552.815 41.4488 553.361C41.2088 553.895 41.0888 554.515 41.0888 555.221V555.341C41.0888 556.541 41.3754 557.448 41.9488 558.061C42.5221 558.675 43.3488 558.981 44.4288 558.981C44.8554 558.981 45.2888 558.928 45.7288 558.821C46.1821 558.715 46.6154 558.521 47.0288 558.241C47.2288 558.121 47.4088 558.068 47.5688 558.081C47.7421 558.081 47.8821 558.135 47.9888 558.241C48.0954 558.335 48.1621 558.455 48.1888 558.601C48.2154 558.735 48.1954 558.881 48.1288 559.041C48.0621 559.201 47.9354 559.341 47.7488 559.461C47.3088 559.768 46.7821 560.008 46.1688 560.181C45.5688 560.341 44.9888 560.421 44.4288 560.421ZM51.5123 560.381C51.2323 560.381 51.0123 560.301 50.8523 560.141C50.6923 559.981 50.6123 559.748 50.6123 559.441V551.281C50.6123 550.975 50.6923 550.748 50.8523 550.601C51.0123 550.441 51.2323 550.361 51.5123 550.361C51.7923 550.361 52.0057 550.441 52.1523 550.601C52.3123 550.748 52.3923 550.975 52.3923 551.281V552.921L52.1723 552.621C52.4523 551.861 52.9057 551.288 53.5323 550.901C54.1723 550.515 54.899 550.321 55.7123 550.321C56.499 550.321 57.1457 550.461 57.6523 550.741C58.159 551.021 58.539 551.448 58.7923 552.021C59.0457 552.595 59.1723 553.321 59.1723 554.201V559.441C59.1723 559.748 59.0923 559.981 58.9323 560.141C58.7857 560.301 58.5657 560.381 58.2723 560.381C57.979 560.381 57.7523 560.301 57.5923 560.141C57.4323 559.981 57.3523 559.748 57.3523 559.441V554.301C57.3523 553.435 57.1857 552.801 56.8523 552.401C56.519 552.001 55.9857 551.801 55.2523 551.801C54.399 551.801 53.7123 552.068 53.1923 552.601C52.6857 553.121 52.4323 553.828 52.4323 554.721V559.441C52.4323 560.068 52.1257 560.381 51.5123 560.381ZM65.7777 560.421C64.9243 560.421 64.171 560.221 63.5177 559.821C62.8777 559.408 62.3777 558.821 62.0177 558.061C61.6577 557.288 61.4777 556.388 61.4777 555.361C61.4777 554.321 61.651 553.428 61.9977 552.681C62.3577 551.921 62.8577 551.341 63.4977 550.941C64.151 550.528 64.911 550.321 65.7777 550.321C66.6443 550.321 67.391 550.541 68.0177 550.981C68.6443 551.408 69.0643 551.981 69.2777 552.701H69.0577V546.921C69.0577 546.615 69.131 546.388 69.2777 546.241C69.4377 546.081 69.6643 546.001 69.9577 546.001C70.251 546.001 70.4777 546.081 70.6377 546.241C70.7977 546.388 70.8777 546.615 70.8777 546.921V559.441C70.8777 559.748 70.7977 559.981 70.6377 560.141C70.4777 560.301 70.251 560.381 69.9577 560.381C69.6777 560.381 69.4577 560.301 69.2977 560.141C69.1377 559.981 69.0577 559.748 69.0577 559.441V557.621L69.2777 557.981C69.0777 558.728 68.6577 559.321 68.0177 559.761C67.391 560.201 66.6443 560.421 65.7777 560.421ZM66.1977 558.981C66.7843 558.981 67.291 558.841 67.7177 558.561C68.1577 558.281 68.491 557.875 68.7177 557.341C68.9577 556.808 69.0777 556.148 69.0777 555.361C69.0777 554.188 68.8177 553.295 68.2977 552.681C67.7777 552.068 67.0777 551.761 66.1977 551.761C65.6243 551.761 65.1177 551.901 64.6777 552.181C64.251 552.448 63.9177 552.848 63.6777 553.381C63.4377 553.915 63.3177 554.575 63.3177 555.361C63.3177 556.535 63.5777 557.435 64.0977 558.061C64.631 558.675 65.331 558.981 66.1977 558.981ZM74.7359 560.381C74.4293 560.381 74.1959 560.301 74.0359 560.141C73.8759 559.981 73.7959 559.748 73.7959 559.441V551.281C73.7959 550.975 73.8759 550.748 74.0359 550.601C74.1959 550.441 74.4159 550.361 74.6959 550.361C74.9759 550.361 75.1893 550.441 75.3359 550.601C75.4959 550.748 75.5759 550.975 75.5759 551.281V552.821H75.3759C75.5893 552.021 75.9893 551.415 76.5759 551.001C77.1626 550.588 77.9026 550.355 78.7959 550.301C79.0093 550.288 79.1826 550.341 79.3159 550.461C79.4493 550.568 79.5226 550.755 79.5359 551.021C79.5493 551.275 79.4893 551.481 79.3559 551.641C79.2226 551.788 79.0159 551.875 78.7359 551.901L78.3759 551.921C77.4959 552.015 76.8159 552.301 76.3359 552.781C75.8693 553.261 75.6359 553.921 75.6359 554.761V559.441C75.6359 559.748 75.5559 559.981 75.3959 560.141C75.2493 560.301 75.0293 560.381 74.7359 560.381ZM85.4639 560.421C84.4106 560.421 83.5039 560.221 82.7439 559.821C81.9972 559.408 81.4172 558.828 81.0039 558.081C80.5906 557.321 80.3839 556.428 80.3839 555.401C80.3839 554.388 80.5839 553.501 80.9839 552.741C81.3972 551.981 81.9572 551.388 82.6639 550.961C83.3839 550.535 84.2039 550.321 85.1239 550.321C85.7772 550.321 86.3639 550.435 86.8839 550.661C87.4172 550.875 87.8706 551.188 88.2439 551.601C88.6172 552.015 88.8972 552.521 89.0839 553.121C89.2839 553.708 89.3839 554.375 89.3839 555.121C89.3839 555.335 89.3172 555.501 89.1839 555.621C89.0639 555.728 88.8839 555.781 88.6439 555.781H81.8039V554.621H88.1839L87.8439 554.901C87.8439 554.208 87.7372 553.621 87.5239 553.141C87.3239 552.648 87.0239 552.275 86.6239 552.021C86.2372 551.768 85.7506 551.641 85.1639 551.641C84.5239 551.641 83.9772 551.795 83.5239 552.101C83.0706 552.395 82.7239 552.815 82.4839 553.361C82.2439 553.895 82.1239 554.515 82.1239 555.221V555.341C82.1239 556.541 82.4106 557.448 82.9839 558.061C83.5572 558.675 84.3839 558.981 85.4639 558.981C85.8906 558.981 86.3239 558.928 86.7639 558.821C87.2172 558.715 87.6506 558.521 88.0639 558.241C88.2639 558.121 88.4439 558.068 88.6039 558.081C88.7772 558.081 88.9172 558.135 89.0239 558.241C89.1306 558.335 89.1972 558.455 89.2239 558.601C89.2506 558.735 89.2306 558.881 89.1639 559.041C89.0972 559.201 88.9706 559.341 88.7839 559.461C88.3439 559.768 87.8172 560.008 87.2039 560.181C86.6039 560.341 86.0239 560.421 85.4639 560.421ZM92.5875 560.381C92.2808 560.381 92.0475 560.301 91.8875 560.141C91.7275 559.981 91.6475 559.748 91.6475 559.441V551.281C91.6475 550.975 91.7275 550.748 91.8875 550.601C92.0475 550.441 92.2675 550.361 92.5475 550.361C92.8275 550.361 93.0408 550.441 93.1875 550.601C93.3475 550.748 93.4275 550.975 93.4275 551.281V552.821H93.2275C93.4408 552.021 93.8408 551.415 94.4275 551.001C95.0142 550.588 95.7542 550.355 96.6475 550.301C96.8608 550.288 97.0342 550.341 97.1675 550.461C97.3008 550.568 97.3742 550.755 97.3875 551.021C97.4008 551.275 97.3408 551.481 97.2075 551.641C97.0742 551.788 96.8675 551.875 96.5875 551.901L96.2275 551.921C95.3475 552.015 94.6675 552.301 94.1875 552.781C93.7208 553.261 93.4875 553.921 93.4875 554.761V559.441C93.4875 559.748 93.4075 559.981 93.2475 560.141C93.1008 560.301 92.8808 560.381 92.5875 560.381ZM99.8522 560.341C99.5722 560.341 99.3522 560.255 99.1922 560.081C99.0322 559.908 98.9522 559.668 98.9522 559.361V551.381C98.9522 551.061 99.0322 550.821 99.1922 550.661C99.3522 550.488 99.5722 550.401 99.8522 550.401C100.146 550.401 100.372 550.488 100.532 550.661C100.692 550.821 100.772 551.061 100.772 551.381V559.361C100.772 559.668 100.692 559.908 100.532 560.081C100.386 560.255 100.159 560.341 99.8522 560.341ZM99.8522 548.241C99.4922 548.241 99.2055 548.148 98.9922 547.961C98.7922 547.761 98.6922 547.501 98.6922 547.181C98.6922 546.835 98.7922 546.575 98.9922 546.401C99.2055 546.215 99.4922 546.121 99.8522 546.121C100.239 546.121 100.526 546.215 100.712 546.401C100.912 546.575 101.012 546.835 101.012 547.181C101.012 547.501 100.912 547.761 100.712 547.961C100.526 548.148 100.239 548.241 99.8522 548.241ZM107.738 560.421C106.952 560.421 106.292 560.281 105.758 560.001C105.238 559.721 104.845 559.315 104.578 558.781C104.325 558.248 104.198 557.595 104.198 556.821V551.901H102.918C102.678 551.901 102.492 551.841 102.358 551.721C102.225 551.588 102.158 551.415 102.158 551.201C102.158 550.975 102.225 550.801 102.358 550.681C102.492 550.561 102.678 550.501 102.918 550.501H104.198V548.321C104.198 548.015 104.278 547.788 104.438 547.641C104.598 547.481 104.825 547.401 105.118 547.401C105.412 547.401 105.632 547.481 105.778 547.641C105.938 547.788 106.018 548.015 106.018 548.321V550.501H108.438C108.692 550.501 108.885 550.561 109.018 550.681C109.152 550.801 109.218 550.975 109.218 551.201C109.218 551.415 109.152 551.588 109.018 551.721C108.885 551.841 108.692 551.901 108.438 551.901H106.018V556.661C106.018 557.395 106.172 557.948 106.478 558.321C106.785 558.695 107.292 558.881 107.998 558.881C108.252 558.881 108.465 558.861 108.638 558.821C108.812 558.768 108.965 558.741 109.098 558.741C109.218 558.728 109.318 558.768 109.398 558.861C109.492 558.955 109.538 559.128 109.538 559.381C109.538 559.568 109.505 559.741 109.438 559.901C109.385 560.048 109.272 560.148 109.098 560.201C108.938 560.255 108.725 560.301 108.458 560.341C108.192 560.395 107.952 560.421 107.738 560.421ZM119.801 560.421C118.948 560.421 118.194 560.221 117.541 559.821C116.901 559.408 116.401 558.821 116.041 558.061C115.681 557.288 115.501 556.388 115.501 555.361C115.501 554.321 115.674 553.428 116.021 552.681C116.381 551.921 116.881 551.341 117.521 550.941C118.174 550.528 118.934 550.321 119.801 550.321C120.668 550.321 121.414 550.541 122.041 550.981C122.668 551.408 123.088 551.981 123.301 552.701H123.081V546.921C123.081 546.615 123.154 546.388 123.301 546.241C123.461 546.081 123.688 546.001 123.981 546.001C124.274 546.001 124.501 546.081 124.661 546.241C124.821 546.388 124.901 546.615 124.901 546.921V559.441C124.901 559.748 124.821 559.981 124.661 560.141C124.501 560.301 124.274 560.381 123.981 560.381C123.701 560.381 123.481 560.301 123.321 560.141C123.161 559.981 123.081 559.748 123.081 559.441V557.621L123.301 557.981C123.101 558.728 122.681 559.321 122.041 559.761C121.414 560.201 120.668 560.421 119.801 560.421ZM120.221 558.981C120.808 558.981 121.314 558.841 121.741 558.561C122.181 558.281 122.514 557.875 122.741 557.341C122.981 556.808 123.101 556.148 123.101 555.361C123.101 554.188 122.841 553.295 122.321 552.681C121.801 552.068 121.101 551.761 120.221 551.761C119.648 551.761 119.141 551.901 118.701 552.181C118.274 552.448 117.941 552.848 117.701 553.381C117.461 553.915 117.341 554.575 117.341 555.361C117.341 556.535 117.601 557.435 118.121 558.061C118.654 558.675 119.354 558.981 120.221 558.981ZM131.959 560.421C130.999 560.421 130.166 560.215 129.459 559.801C128.753 559.388 128.206 558.801 127.819 558.041C127.433 557.281 127.239 556.388 127.239 555.361C127.239 554.588 127.346 553.895 127.559 553.281C127.786 552.655 128.106 552.121 128.519 551.681C128.933 551.241 129.426 550.908 129.999 550.681C130.586 550.441 131.239 550.321 131.959 550.321C132.919 550.321 133.753 550.528 134.459 550.941C135.166 551.355 135.713 551.941 136.099 552.701C136.486 553.448 136.679 554.335 136.679 555.361C136.679 556.135 136.566 556.835 136.339 557.461C136.126 558.088 135.813 558.621 135.399 559.061C134.986 559.501 134.486 559.841 133.899 560.081C133.326 560.308 132.679 560.421 131.959 560.421ZM131.959 558.981C132.546 558.981 133.053 558.841 133.479 558.561C133.919 558.281 134.253 557.875 134.479 557.341C134.719 556.808 134.839 556.148 134.839 555.361C134.839 554.188 134.579 553.295 134.059 552.681C133.539 552.068 132.839 551.761 131.959 551.761C131.386 551.761 130.879 551.901 130.439 552.181C130.013 552.448 129.679 552.848 129.439 553.381C129.199 553.915 129.079 554.575 129.079 555.361C129.079 556.535 129.339 557.435 129.859 558.061C130.393 558.675 131.093 558.981 131.959 558.981ZM139.911 560.381C139.631 560.381 139.411 560.301 139.251 560.141C139.091 559.981 139.011 559.748 139.011 559.441V551.281C139.011 550.975 139.091 550.748 139.251 550.601C139.411 550.441 139.631 550.361 139.911 550.361C140.191 550.361 140.404 550.441 140.551 550.601C140.711 550.748 140.791 550.975 140.791 551.281V552.921L140.571 552.621C140.851 551.861 141.304 551.288 141.931 550.901C142.571 550.515 143.297 550.321 144.111 550.321C144.897 550.321 145.544 550.461 146.051 550.741C146.557 551.021 146.937 551.448 147.191 552.021C147.444 552.595 147.571 553.321 147.571 554.201V559.441C147.571 559.748 147.491 559.981 147.331 560.141C147.184 560.301 146.964 560.381 146.671 560.381C146.377 560.381 146.151 560.301 145.991 560.141C145.831 559.981 145.751 559.748 145.751 559.441V554.301C145.751 553.435 145.584 552.801 145.251 552.401C144.917 552.001 144.384 551.801 143.651 551.801C142.797 551.801 142.111 552.068 141.591 552.601C141.084 553.121 140.831 553.828 140.831 554.721V559.441C140.831 560.068 140.524 560.381 139.911 560.381ZM154.956 560.421C153.903 560.421 152.996 560.221 152.236 559.821C151.489 559.408 150.909 558.828 150.496 558.081C150.083 557.321 149.876 556.428 149.876 555.401C149.876 554.388 150.076 553.501 150.476 552.741C150.889 551.981 151.449 551.388 152.156 550.961C152.876 550.535 153.696 550.321 154.616 550.321C155.269 550.321 155.856 550.435 156.376 550.661C156.909 550.875 157.363 551.188 157.736 551.601C158.109 552.015 158.389 552.521 158.576 553.121C158.776 553.708 158.876 554.375 158.876 555.121C158.876 555.335 158.809 555.501 158.676 555.621C158.556 555.728 158.376 555.781 158.136 555.781H151.296V554.621H157.676L157.336 554.901C157.336 554.208 157.229 553.621 157.016 553.141C156.816 552.648 156.516 552.275 156.116 552.021C155.729 551.768 155.243 551.641 154.656 551.641C154.016 551.641 153.469 551.795 153.016 552.101C152.563 552.395 152.216 552.815 151.976 553.361C151.736 553.895 151.616 554.515 151.616 555.221V555.341C151.616 556.541 151.903 557.448 152.476 558.061C153.049 558.675 153.876 558.981 154.956 558.981C155.383 558.981 155.816 558.928 156.256 558.821C156.709 558.715 157.143 558.521 157.556 558.241C157.756 558.121 157.936 558.068 158.096 558.081C158.269 558.081 158.409 558.135 158.516 558.241C158.623 558.335 158.689 558.455 158.716 558.601C158.743 558.735 158.723 558.881 158.656 559.041C158.589 559.201 158.463 559.341 158.276 559.461C157.836 559.768 157.309 560.008 156.696 560.181C156.096 560.341 155.516 560.421 154.956 560.421ZM165.36 560.421C164.373 560.421 163.52 560.215 162.8 559.801C162.08 559.375 161.526 558.781 161.14 558.021C160.753 557.248 160.56 556.341 160.56 555.301C160.56 554.528 160.666 553.835 160.88 553.221C161.106 552.608 161.426 552.088 161.84 551.661C162.253 551.221 162.753 550.888 163.34 550.661C163.94 550.435 164.613 550.321 165.36 550.321C165.826 550.321 166.32 550.395 166.84 550.541C167.36 550.688 167.84 550.928 168.28 551.261C168.426 551.368 168.52 551.495 168.56 551.641C168.6 551.775 168.6 551.915 168.56 552.061C168.533 552.208 168.466 552.335 168.36 552.441C168.266 552.535 168.14 552.588 167.98 552.601C167.833 552.615 167.673 552.568 167.5 552.461C167.18 552.221 166.84 552.048 166.48 551.941C166.133 551.835 165.8 551.781 165.48 551.781C164.986 551.781 164.546 551.861 164.16 552.021C163.786 552.181 163.466 552.415 163.2 552.721C162.946 553.015 162.753 553.381 162.62 553.821C162.486 554.248 162.42 554.748 162.42 555.321C162.42 556.455 162.686 557.348 163.22 558.001C163.753 558.641 164.506 558.961 165.48 558.961C165.8 558.961 166.133 558.915 166.48 558.821C166.826 558.715 167.166 558.541 167.5 558.301C167.673 558.195 167.833 558.155 167.98 558.181C168.126 558.195 168.246 558.255 168.34 558.361C168.446 558.455 168.513 558.575 168.54 558.721C168.566 558.855 168.553 558.995 168.5 559.141C168.46 559.288 168.366 559.408 168.22 559.501C167.793 559.821 167.326 560.055 166.82 560.201C166.313 560.348 165.826 560.421 165.36 560.421ZM177.131 560.381C176.838 560.381 176.611 560.301 176.451 560.141C176.291 559.981 176.211 559.748 176.211 559.441V551.901H175.011C174.771 551.901 174.585 551.841 174.451 551.721C174.318 551.588 174.251 551.415 174.251 551.201C174.251 550.975 174.318 550.801 174.451 550.681C174.585 550.561 174.771 550.501 175.011 550.501H176.711L176.211 550.981V550.241C176.211 548.948 176.525 547.968 177.151 547.301C177.791 546.621 178.725 546.228 179.951 546.121L180.571 546.081C180.771 546.055 180.931 546.088 181.051 546.181C181.171 546.261 181.251 546.368 181.291 546.501C181.331 546.635 181.331 546.775 181.291 546.921C181.265 547.055 181.205 547.175 181.111 547.281C181.018 547.388 180.898 547.448 180.751 547.461L180.311 547.481C179.511 547.548 178.931 547.788 178.571 548.201C178.211 548.601 178.031 549.201 178.031 550.001V550.801L177.771 550.501H180.071C180.325 550.501 180.518 550.561 180.651 550.681C180.785 550.801 180.851 550.975 180.851 551.201C180.851 551.415 180.785 551.588 180.651 551.721C180.518 551.841 180.325 551.901 180.071 551.901H178.031V559.441C178.031 560.068 177.731 560.381 177.131 560.381ZM185.928 560.421C185.142 560.421 184.482 560.275 183.948 559.981C183.428 559.688 183.042 559.255 182.788 558.681C182.535 558.108 182.408 557.388 182.408 556.521V551.281C182.408 550.975 182.482 550.748 182.628 550.601C182.788 550.441 183.015 550.361 183.308 550.361C183.602 550.361 183.828 550.441 183.988 550.601C184.148 550.748 184.228 550.975 184.228 551.281V556.521C184.228 557.348 184.395 557.961 184.728 558.361C185.062 558.748 185.588 558.941 186.308 558.941C187.108 558.941 187.755 558.675 188.248 558.141C188.755 557.608 189.008 556.901 189.008 556.021V551.281C189.008 550.975 189.082 550.748 189.228 550.601C189.388 550.441 189.615 550.361 189.908 550.361C190.202 550.361 190.428 550.441 190.588 550.601C190.748 550.748 190.828 550.975 190.828 551.281V559.441C190.828 560.068 190.535 560.381 189.948 560.381C189.655 560.381 189.428 560.301 189.268 560.141C189.122 559.981 189.048 559.748 189.048 559.441V557.701L189.308 558.041C189.042 558.815 188.608 559.408 188.008 559.821C187.422 560.221 186.728 560.421 185.928 560.421ZM197.117 560.421C196.517 560.421 195.91 560.355 195.297 560.221C194.697 560.075 194.13 559.828 193.597 559.481C193.45 559.388 193.344 559.275 193.277 559.141C193.224 558.995 193.204 558.855 193.217 558.721C193.244 558.575 193.304 558.448 193.397 558.341C193.49 558.235 193.604 558.175 193.737 558.161C193.884 558.135 194.037 558.168 194.197 558.261C194.717 558.555 195.217 558.761 195.697 558.881C196.19 559.001 196.677 559.061 197.157 559.061C197.89 559.061 198.444 558.928 198.817 558.661C199.19 558.395 199.377 558.041 199.377 557.601C199.377 557.228 199.25 556.941 198.997 556.741C198.757 556.528 198.377 556.368 197.857 556.261L195.997 555.881C195.17 555.695 194.544 555.388 194.117 554.961C193.704 554.521 193.497 553.961 193.497 553.281C193.497 552.681 193.657 552.161 193.977 551.721C194.31 551.268 194.77 550.921 195.357 550.681C195.944 550.441 196.617 550.321 197.377 550.321C197.964 550.321 198.517 550.401 199.037 550.561C199.57 550.708 200.05 550.935 200.477 551.241C200.637 551.335 200.737 551.455 200.777 551.601C200.83 551.735 200.837 551.875 200.797 552.021C200.77 552.155 200.71 552.268 200.617 552.361C200.524 552.455 200.404 552.515 200.257 552.541C200.11 552.555 199.95 552.515 199.777 552.421C199.39 552.155 198.99 551.968 198.577 551.861C198.177 551.741 197.777 551.681 197.377 551.681C196.657 551.681 196.11 551.821 195.737 552.101C195.377 552.381 195.197 552.748 195.197 553.201C195.197 553.548 195.304 553.835 195.517 554.061C195.744 554.288 196.097 554.455 196.577 554.561L198.437 554.941C199.304 555.128 199.957 555.428 200.397 555.841C200.837 556.241 201.057 556.788 201.057 557.481C201.057 558.388 200.697 559.108 199.977 559.641C199.27 560.161 198.317 560.421 197.117 560.421ZM207.645 560.421C206.658 560.421 205.805 560.215 205.085 559.801C204.365 559.375 203.812 558.781 203.425 558.021C203.038 557.248 202.845 556.341 202.845 555.301C202.845 554.528 202.952 553.835 203.165 553.221C203.392 552.608 203.712 552.088 204.125 551.661C204.538 551.221 205.038 550.888 205.625 550.661C206.225 550.435 206.898 550.321 207.645 550.321C208.112 550.321 208.605 550.395 209.125 550.541C209.645 550.688 210.125 550.928 210.565 551.261C210.712 551.368 210.805 551.495 210.845 551.641C210.885 551.775 210.885 551.915 210.845 552.061C210.818 552.208 210.752 552.335 210.645 552.441C210.552 552.535 210.425 552.588 210.265 552.601C210.118 552.615 209.958 552.568 209.785 552.461C209.465 552.221 209.125 552.048 208.765 551.941C208.418 551.835 208.085 551.781 207.765 551.781C207.272 551.781 206.832 551.861 206.445 552.021C206.072 552.181 205.752 552.415 205.485 552.721C205.232 553.015 205.038 553.381 204.905 553.821C204.772 554.248 204.705 554.748 204.705 555.321C204.705 556.455 204.972 557.348 205.505 558.001C206.038 558.641 206.792 558.961 207.765 558.961C208.085 558.961 208.418 558.915 208.765 558.821C209.112 558.715 209.452 558.541 209.785 558.301C209.958 558.195 210.118 558.155 210.265 558.181C210.412 558.195 210.532 558.255 210.625 558.361C210.732 558.455 210.798 558.575 210.825 558.721C210.852 558.855 210.838 558.995 210.785 559.141C210.745 559.288 210.652 559.408 210.505 559.501C210.078 559.821 209.612 560.055 209.105 560.201C208.598 560.348 208.112 560.421 207.645 560.421ZM217.026 560.421C215.973 560.421 215.066 560.221 214.306 559.821C213.56 559.408 212.98 558.828 212.566 558.081C212.153 557.321 211.946 556.428 211.946 555.401C211.946 554.388 212.146 553.501 212.546 552.741C212.96 551.981 213.52 551.388 214.226 550.961C214.946 550.535 215.766 550.321 216.686 550.321C217.34 550.321 217.926 550.435 218.446 550.661C218.98 550.875 219.433 551.188 219.806 551.601C220.18 552.015 220.46 552.521 220.646 553.121C220.846 553.708 220.946 554.375 220.946 555.121C220.946 555.335 220.88 555.501 220.746 555.621C220.626 555.728 220.446 555.781 220.206 555.781H213.366V554.621H219.746L219.406 554.901C219.406 554.208 219.3 553.621 219.086 553.141C218.886 552.648 218.586 552.275 218.186 552.021C217.8 551.768 217.313 551.641 216.726 551.641C216.086 551.641 215.54 551.795 215.086 552.101C214.633 552.395 214.286 552.815 214.046 553.361C213.806 553.895 213.686 554.515 213.686 555.221V555.341C213.686 556.541 213.973 557.448 214.546 558.061C215.12 558.675 215.946 558.981 217.026 558.981C217.453 558.981 217.886 558.928 218.326 558.821C218.78 558.715 219.213 558.521 219.626 558.241C219.826 558.121 220.006 558.068 220.166 558.081C220.34 558.081 220.48 558.135 220.586 558.241C220.693 558.335 220.76 558.455 220.786 558.601C220.813 558.735 220.793 558.881 220.726 559.041C220.66 559.201 220.533 559.341 220.346 559.461C219.906 559.768 219.38 560.008 218.766 560.181C218.166 560.341 217.586 560.421 217.026 560.421ZM231.525 560.421C230.858 560.421 230.252 560.288 229.705 560.021C229.172 559.755 228.752 559.395 228.445 558.941C228.152 558.488 228.005 557.981 228.005 557.421C228.005 556.701 228.185 556.135 228.545 555.721C228.905 555.308 229.512 555.015 230.365 554.841C231.218 554.655 232.365 554.561 233.805 554.561H234.745V555.721H233.845C232.818 555.721 232.005 555.768 231.405 555.861C230.818 555.955 230.405 556.121 230.165 556.361C229.925 556.588 229.805 556.908 229.805 557.321C229.805 557.841 229.985 558.268 230.345 558.601C230.718 558.935 231.225 559.101 231.865 559.101C232.372 559.101 232.818 558.981 233.205 558.741C233.592 558.488 233.898 558.155 234.125 557.741C234.352 557.315 234.465 556.828 234.465 556.281V553.981C234.465 553.195 234.305 552.628 233.985 552.281C233.665 551.921 233.125 551.741 232.365 551.741C231.925 551.741 231.472 551.801 231.005 551.921C230.538 552.041 230.052 552.228 229.545 552.481C229.345 552.575 229.172 552.608 229.025 552.581C228.878 552.541 228.758 552.461 228.665 552.341C228.585 552.208 228.538 552.068 228.525 551.921C228.525 551.761 228.558 551.608 228.625 551.461C228.705 551.315 228.838 551.208 229.025 551.141C229.612 550.848 230.192 550.641 230.765 550.521C231.352 550.388 231.898 550.321 232.405 550.321C233.272 550.321 233.985 550.461 234.545 550.741C235.105 551.008 235.525 551.428 235.805 552.001C236.085 552.561 236.225 553.281 236.225 554.161V559.441C236.225 559.748 236.152 559.981 236.005 560.141C235.858 560.301 235.645 560.381 235.365 560.381C235.098 560.381 234.885 560.301 234.725 560.141C234.578 559.981 234.505 559.748 234.505 559.441V558.021H234.685C234.578 558.515 234.378 558.941 234.085 559.301C233.792 559.661 233.425 559.941 232.985 560.141C232.558 560.328 232.072 560.421 231.525 560.421ZM243.309 560.421C242.322 560.421 241.469 560.215 240.749 559.801C240.029 559.375 239.476 558.781 239.089 558.021C238.702 557.248 238.509 556.341 238.509 555.301C238.509 554.528 238.616 553.835 238.829 553.221C239.056 552.608 239.376 552.088 239.789 551.661C240.202 551.221 240.702 550.888 241.289 550.661C241.889 550.435 242.562 550.321 243.309 550.321C243.776 550.321 244.269 550.395 244.789 550.541C245.309 550.688 245.789 550.928 246.229 551.261C246.376 551.368 246.469 551.495 246.509 551.641C246.549 551.775 246.549 551.915 246.509 552.061C246.482 552.208 246.416 552.335 246.309 552.441C246.216 552.535 246.089 552.588 245.929 552.601C245.782 552.615 245.622 552.568 245.449 552.461C245.129 552.221 244.789 552.048 244.429 551.941C244.082 551.835 243.749 551.781 243.429 551.781C242.936 551.781 242.496 551.861 242.109 552.021C241.736 552.181 241.416 552.415 241.149 552.721C240.896 553.015 240.702 553.381 240.569 553.821C240.436 554.248 240.369 554.748 240.369 555.321C240.369 556.455 240.636 557.348 241.169 558.001C241.702 558.641 242.456 558.961 243.429 558.961C243.749 558.961 244.082 558.915 244.429 558.821C244.776 558.715 245.116 558.541 245.449 558.301C245.622 558.195 245.782 558.155 245.929 558.181C246.076 558.195 246.196 558.255 246.289 558.361C246.396 558.455 246.462 558.575 246.489 558.721C246.516 558.855 246.502 558.995 246.449 559.141C246.409 559.288 246.316 559.408 246.169 559.501C245.742 559.821 245.276 560.055 244.769 560.201C244.262 560.348 243.776 560.421 243.309 560.421ZM257.741 560.421C256.781 560.421 255.947 560.215 255.241 559.801C254.534 559.388 253.987 558.801 253.601 558.041C253.214 557.281 253.021 556.388 253.021 555.361C253.021 554.588 253.127 553.895 253.341 553.281C253.567 552.655 253.887 552.121 254.301 551.681C254.714 551.241 255.207 550.908 255.781 550.681C256.367 550.441 257.021 550.321 257.741 550.321C258.701 550.321 259.534 550.528 260.241 550.941C260.947 551.355 261.494 551.941 261.881 552.701C262.267 553.448 262.461 554.335 262.461 555.361C262.461 556.135 262.347 556.835 262.121 557.461C261.907 558.088 261.594 558.621 261.181 559.061C260.767 559.501 260.267 559.841 259.681 560.081C259.107 560.308 258.461 560.421 257.741 560.421ZM257.741 558.981C258.327 558.981 258.834 558.841 259.261 558.561C259.701 558.281 260.034 557.875 260.261 557.341C260.501 556.808 260.621 556.148 260.621 555.361C260.621 554.188 260.361 553.295 259.841 552.681C259.321 552.068 258.621 551.761 257.741 551.761C257.167 551.761 256.661 551.901 256.221 552.181C255.794 552.448 255.461 552.848 255.221 553.381C254.981 553.915 254.861 554.575 254.861 555.361C254.861 556.535 255.121 557.435 255.641 558.061C256.174 558.675 256.874 558.981 257.741 558.981ZM265.732 560.381C265.425 560.381 265.192 560.301 265.032 560.141C264.872 559.981 264.792 559.748 264.792 559.441V551.281C264.792 550.975 264.872 550.748 265.032 550.601C265.192 550.441 265.412 550.361 265.692 550.361C265.972 550.361 266.185 550.441 266.332 550.601C266.492 550.748 266.572 550.975 266.572 551.281V552.821H266.372C266.585 552.021 266.985 551.415 267.572 551.001C268.159 550.588 268.899 550.355 269.792 550.301C270.005 550.288 270.179 550.341 270.312 550.461C270.445 550.568 270.519 550.755 270.532 551.021C270.545 551.275 270.485 551.481 270.352 551.641C270.219 551.788 270.012 551.875 269.732 551.901L269.372 551.921C268.492 552.015 267.812 552.301 267.332 552.781C266.865 553.261 266.632 553.921 266.632 554.761V559.441C266.632 559.748 266.552 559.981 266.392 560.141C266.245 560.301 266.025 560.381 265.732 560.381ZM276.46 560.421C275.407 560.421 274.5 560.221 273.74 559.821C272.993 559.408 272.413 558.828 272 558.081C271.587 557.321 271.38 556.428 271.38 555.401C271.38 554.388 271.58 553.501 271.98 552.741C272.393 551.981 272.953 551.388 273.66 550.961C274.38 550.535 275.2 550.321 276.12 550.321C276.773 550.321 277.36 550.435 277.88 550.661C278.413 550.875 278.867 551.188 279.24 551.601C279.613 552.015 279.893 552.521 280.08 553.121C280.28 553.708 280.38 554.375 280.38 555.121C280.38 555.335 280.313 555.501 280.18 555.621C280.06 555.728 279.88 555.781 279.64 555.781H272.8V554.621H279.18L278.84 554.901C278.84 554.208 278.733 553.621 278.52 553.141C278.32 552.648 278.02 552.275 277.62 552.021C277.233 551.768 276.747 551.641 276.16 551.641C275.52 551.641 274.973 551.795 274.52 552.101C274.067 552.395 273.72 552.815 273.48 553.361C273.24 553.895 273.12 554.515 273.12 555.221V555.341C273.12 556.541 273.407 557.448 273.98 558.061C274.553 558.675 275.38 558.981 276.46 558.981C276.887 558.981 277.32 558.928 277.76 558.821C278.213 558.715 278.647 558.521 279.06 558.241C279.26 558.121 279.44 558.068 279.6 558.081C279.773 558.081 279.913 558.135 280.02 558.241C280.127 558.335 280.193 558.455 280.22 558.601C280.247 558.735 280.227 558.881 280.16 559.041C280.093 559.201 279.967 559.341 279.78 559.461C279.34 559.768 278.813 560.008 278.2 560.181C277.6 560.341 277.02 560.421 276.46 560.421ZM292.078 560.421C291.092 560.421 290.238 560.215 289.518 559.801C288.798 559.375 288.245 558.781 287.858 558.021C287.472 557.248 287.278 556.341 287.278 555.301C287.278 554.528 287.385 553.835 287.598 553.221C287.825 552.608 288.145 552.088 288.558 551.661C288.972 551.221 289.472 550.888 290.058 550.661C290.658 550.435 291.332 550.321 292.078 550.321C292.545 550.321 293.038 550.395 293.558 550.541C294.078 550.688 294.558 550.928 294.998 551.261C295.145 551.368 295.238 551.495 295.278 551.641C295.318 551.775 295.318 551.915 295.278 552.061C295.252 552.208 295.185 552.335 295.078 552.441C294.985 552.535 294.858 552.588 294.698 552.601C294.552 552.615 294.392 552.568 294.218 552.461C293.898 552.221 293.558 552.048 293.198 551.941C292.852 551.835 292.518 551.781 292.198 551.781C291.705 551.781 291.265 551.861 290.878 552.021C290.505 552.181 290.185 552.415 289.918 552.721C289.665 553.015 289.472 553.381 289.338 553.821C289.205 554.248 289.138 554.748 289.138 555.321C289.138 556.455 289.405 557.348 289.938 558.001C290.472 558.641 291.225 558.961 292.198 558.961C292.518 558.961 292.852 558.915 293.198 558.821C293.545 558.715 293.885 558.541 294.218 558.301C294.392 558.195 294.552 558.155 294.698 558.181C294.845 558.195 294.965 558.255 295.058 558.361C295.165 558.455 295.232 558.575 295.258 558.721C295.285 558.855 295.272 558.995 295.218 559.141C295.178 559.288 295.085 559.408 294.938 559.501C294.512 559.821 294.045 560.055 293.538 560.201C293.032 560.348 292.545 560.421 292.078 560.421ZM301.1 560.421C300.14 560.421 299.307 560.215 298.6 559.801C297.893 559.388 297.347 558.801 296.96 558.041C296.573 557.281 296.38 556.388 296.38 555.361C296.38 554.588 296.487 553.895 296.7 553.281C296.927 552.655 297.247 552.121 297.66 551.681C298.073 551.241 298.567 550.908 299.14 550.681C299.727 550.441 300.38 550.321 301.1 550.321C302.06 550.321 302.893 550.528 303.6 550.941C304.307 551.355 304.853 551.941 305.24 552.701C305.627 553.448 305.82 554.335 305.82 555.361C305.82 556.135 305.707 556.835 305.48 557.461C305.267 558.088 304.953 558.621 304.54 559.061C304.127 559.501 303.627 559.841 303.04 560.081C302.467 560.308 301.82 560.421 301.1 560.421ZM301.1 558.981C301.687 558.981 302.193 558.841 302.62 558.561C303.06 558.281 303.393 557.875 303.62 557.341C303.86 556.808 303.98 556.148 303.98 555.361C303.98 554.188 303.72 553.295 303.2 552.681C302.68 552.068 301.98 551.761 301.1 551.761C300.527 551.761 300.02 551.901 299.58 552.181C299.153 552.448 298.82 552.848 298.58 553.381C298.34 553.915 298.22 554.575 298.22 555.361C298.22 556.535 298.48 557.435 299 558.061C299.533 558.675 300.233 558.981 301.1 558.981ZM309.051 560.381C308.771 560.381 308.551 560.301 308.391 560.141C308.231 559.981 308.151 559.748 308.151 559.441V551.281C308.151 550.975 308.231 550.748 308.391 550.601C308.551 550.441 308.771 550.361 309.051 550.361C309.331 550.361 309.545 550.441 309.691 550.601C309.851 550.748 309.931 550.975 309.931 551.281V552.921L309.711 552.621C309.991 551.861 310.445 551.288 311.071 550.901C311.711 550.515 312.438 550.321 313.251 550.321C314.038 550.321 314.685 550.461 315.191 550.741C315.698 551.021 316.078 551.448 316.331 552.021C316.585 552.595 316.711 553.321 316.711 554.201V559.441C316.711 559.748 316.631 559.981 316.471 560.141C316.325 560.301 316.105 560.381 315.811 560.381C315.518 560.381 315.291 560.301 315.131 560.141C314.971 559.981 314.891 559.748 314.891 559.441V554.301C314.891 553.435 314.725 552.801 314.391 552.401C314.058 552.001 313.525 551.801 312.791 551.801C311.938 551.801 311.251 552.068 310.731 552.601C310.225 553.121 309.971 553.828 309.971 554.721V559.441C309.971 560.068 309.665 560.381 309.051 560.381ZM323.199 560.381C322.946 560.381 322.726 560.315 322.539 560.181C322.352 560.048 322.192 559.835 322.059 559.541L318.659 551.621C318.566 551.395 318.532 551.188 318.559 551.001C318.586 550.815 318.672 550.661 318.819 550.541C318.979 550.421 319.192 550.361 319.459 550.361C319.686 550.361 319.866 550.415 319.999 550.521C320.132 550.628 320.259 550.815 320.379 551.081L323.519 558.821H322.959L326.179 551.081C326.286 550.815 326.406 550.628 326.539 550.521C326.686 550.415 326.886 550.361 327.139 550.361C327.366 550.361 327.539 550.421 327.659 550.541C327.792 550.661 327.872 550.815 327.899 551.001C327.926 551.188 327.886 551.388 327.779 551.601L324.359 559.541C324.239 559.835 324.079 560.048 323.879 560.181C323.692 560.315 323.466 560.381 323.199 560.381ZM332.755 560.421C332.089 560.421 331.482 560.288 330.935 560.021C330.402 559.755 329.982 559.395 329.675 558.941C329.382 558.488 329.235 557.981 329.235 557.421C329.235 556.701 329.415 556.135 329.775 555.721C330.135 555.308 330.742 555.015 331.595 554.841C332.449 554.655 333.595 554.561 335.035 554.561H335.975V555.721H335.075C334.049 555.721 333.235 555.768 332.635 555.861C332.049 555.955 331.635 556.121 331.395 556.361C331.155 556.588 331.035 556.908 331.035 557.321C331.035 557.841 331.215 558.268 331.575 558.601C331.949 558.935 332.455 559.101 333.095 559.101C333.602 559.101 334.049 558.981 334.435 558.741C334.822 558.488 335.129 558.155 335.355 557.741C335.582 557.315 335.695 556.828 335.695 556.281V553.981C335.695 553.195 335.535 552.628 335.215 552.281C334.895 551.921 334.355 551.741 333.595 551.741C333.155 551.741 332.702 551.801 332.235 551.921C331.769 552.041 331.282 552.228 330.775 552.481C330.575 552.575 330.402 552.608 330.255 552.581C330.109 552.541 329.989 552.461 329.895 552.341C329.815 552.208 329.769 552.068 329.755 551.921C329.755 551.761 329.789 551.608 329.855 551.461C329.935 551.315 330.069 551.208 330.255 551.141C330.842 550.848 331.422 550.641 331.995 550.521C332.582 550.388 333.129 550.321 333.635 550.321C334.502 550.321 335.215 550.461 335.775 550.741C336.335 551.008 336.755 551.428 337.035 552.001C337.315 552.561 337.455 553.281 337.455 554.161V559.441C337.455 559.748 337.382 559.981 337.235 560.141C337.089 560.301 336.875 560.381 336.595 560.381C336.329 560.381 336.115 560.301 335.955 560.141C335.809 559.981 335.735 559.748 335.735 559.441V558.021H335.915C335.809 558.515 335.609 558.941 335.315 559.301C335.022 559.661 334.655 559.941 334.215 560.141C333.789 560.328 333.302 560.421 332.755 560.421ZM343.379 560.421C342.379 560.421 341.619 560.128 341.099 559.541C340.579 558.941 340.319 558.081 340.319 556.961V546.921C340.319 546.615 340.399 546.388 340.559 546.241C340.719 546.081 340.939 546.001 341.219 546.001C341.513 546.001 341.739 546.081 341.899 546.241C342.059 546.388 342.139 546.615 342.139 546.921V556.821C342.139 557.515 342.279 558.035 342.559 558.381C342.853 558.715 343.266 558.881 343.799 558.881C343.919 558.881 344.026 558.881 344.119 558.881C344.213 558.868 344.306 558.855 344.399 558.841C344.546 558.828 344.653 558.868 344.719 558.961C344.786 559.055 344.819 559.241 344.819 559.521C344.819 559.775 344.759 559.975 344.639 560.121C344.533 560.255 344.353 560.341 344.099 560.381C343.979 560.395 343.859 560.401 343.739 560.401C343.619 560.415 343.499 560.421 343.379 560.421ZM349.395 560.421C348.395 560.421 347.635 560.128 347.115 559.541C346.595 558.941 346.335 558.081 346.335 556.961V546.921C346.335 546.615 346.415 546.388 346.575 546.241C346.735 546.081 346.955 546.001 347.235 546.001C347.528 546.001 347.755 546.081 347.915 546.241C348.075 546.388 348.155 546.615 348.155 546.921V556.821C348.155 557.515 348.295 558.035 348.575 558.381C348.868 558.715 349.282 558.881 349.815 558.881C349.935 558.881 350.042 558.881 350.135 558.881C350.228 558.868 350.322 558.855 350.415 558.841C350.562 558.828 350.668 558.868 350.735 558.961C350.802 559.055 350.835 559.241 350.835 559.521C350.835 559.775 350.775 559.975 350.655 560.121C350.548 560.255 350.368 560.341 350.115 560.381C349.995 560.395 349.875 560.401 349.755 560.401C349.635 560.415 349.515 560.421 349.395 560.421ZM353.251 560.341C352.971 560.341 352.751 560.255 352.591 560.081C352.431 559.908 352.351 559.668 352.351 559.361V551.381C352.351 551.061 352.431 550.821 352.591 550.661C352.751 550.488 352.971 550.401 353.251 550.401C353.544 550.401 353.771 550.488 353.931 550.661C354.091 550.821 354.171 551.061 354.171 551.381V559.361C354.171 559.668 354.091 559.908 353.931 560.081C353.784 560.255 353.557 560.341 353.251 560.341ZM353.251 548.241C352.891 548.241 352.604 548.148 352.391 547.961C352.191 547.761 352.091 547.501 352.091 547.181C352.091 546.835 352.191 546.575 352.391 546.401C352.604 546.215 352.891 546.121 353.251 546.121C353.637 546.121 353.924 546.215 354.111 546.401C354.311 546.575 354.411 546.835 354.411 547.181C354.411 547.501 354.311 547.761 354.111 547.961C353.924 548.148 353.637 548.241 353.251 548.241ZM360.457 560.421C359.857 560.421 359.25 560.355 358.637 560.221C358.037 560.075 357.47 559.828 356.937 559.481C356.79 559.388 356.683 559.275 356.617 559.141C356.563 558.995 356.543 558.855 356.557 558.721C356.583 558.575 356.643 558.448 356.737 558.341C356.83 558.235 356.943 558.175 357.077 558.161C357.223 558.135 357.377 558.168 357.537 558.261C358.057 558.555 358.557 558.761 359.037 558.881C359.53 559.001 360.017 559.061 360.497 559.061C361.23 559.061 361.783 558.928 362.157 558.661C362.53 558.395 362.717 558.041 362.717 557.601C362.717 557.228 362.59 556.941 362.337 556.741C362.097 556.528 361.717 556.368 361.197 556.261L359.337 555.881C358.51 555.695 357.883 555.388 357.457 554.961C357.043 554.521 356.837 553.961 356.837 553.281C356.837 552.681 356.997 552.161 357.317 551.721C357.65 551.268 358.11 550.921 358.697 550.681C359.283 550.441 359.957 550.321 360.717 550.321C361.303 550.321 361.857 550.401 362.377 550.561C362.91 550.708 363.39 550.935 363.817 551.241C363.977 551.335 364.077 551.455 364.117 551.601C364.17 551.735 364.177 551.875 364.137 552.021C364.11 552.155 364.05 552.268 363.957 552.361C363.863 552.455 363.743 552.515 363.597 552.541C363.45 552.555 363.29 552.515 363.117 552.421C362.73 552.155 362.33 551.968 361.917 551.861C361.517 551.741 361.117 551.681 360.717 551.681C359.997 551.681 359.45 551.821 359.077 552.101C358.717 552.381 358.537 552.748 358.537 553.201C358.537 553.548 358.643 553.835 358.857 554.061C359.083 554.288 359.437 554.455 359.917 554.561L361.777 554.941C362.643 555.128 363.297 555.428 363.737 555.841C364.177 556.241 364.397 556.788 364.397 557.481C364.397 558.388 364.037 559.108 363.317 559.641C362.61 560.161 361.657 560.421 360.457 560.421ZM28.1353 590.421C27.3486 590.421 26.6886 590.275 26.1553 589.981C25.6353 589.688 25.2486 589.255 24.9953 588.681C24.742 588.108 24.6153 587.388 24.6153 586.521V581.281C24.6153 580.975 24.6886 580.748 24.8353 580.601C24.9953 580.441 25.222 580.361 25.5153 580.361C25.8086 580.361 26.0353 580.441 26.1953 580.601C26.3553 580.748 26.4353 580.975 26.4353 581.281V586.521C26.4353 587.348 26.602 587.961 26.9353 588.361C27.2686 588.748 27.7953 588.941 28.5153 588.941C29.3153 588.941 29.962 588.675 30.4553 588.141C30.962 587.608 31.2153 586.901 31.2153 586.021V581.281C31.2153 580.975 31.2886 580.748 31.4353 580.601C31.5953 580.441 31.822 580.361 32.1153 580.361C32.4086 580.361 32.6353 580.441 32.7953 580.601C32.9553 580.748 33.0353 580.975 33.0353 581.281V589.441C33.0353 590.068 32.742 590.381 32.1553 590.381C31.862 590.381 31.6353 590.301 31.4753 590.141C31.3286 589.981 31.2553 589.748 31.2553 589.441V587.701L31.5153 588.041C31.2486 588.815 30.8153 589.408 30.2153 589.821C29.6286 590.221 28.9353 590.421 28.1353 590.421ZM36.9039 590.381C36.5972 590.381 36.3639 590.301 36.2039 590.141C36.0439 589.981 35.9639 589.748 35.9639 589.441V581.281C35.9639 580.975 36.0439 580.748 36.2039 580.601C36.3639 580.441 36.5839 580.361 36.8639 580.361C37.1439 580.361 37.3572 580.441 37.5039 580.601C37.6639 580.748 37.7439 580.975 37.7439 581.281V582.821H37.5439C37.7572 582.021 38.1572 581.415 38.7439 581.001C39.3306 580.588 40.0706 580.355 40.9639 580.301C41.1772 580.288 41.3506 580.341 41.4839 580.461C41.6172 580.568 41.6906 580.755 41.7039 581.021C41.7172 581.275 41.6572 581.481 41.5239 581.641C41.3906 581.788 41.1839 581.875 40.9039 581.901L40.5439 581.921C39.6639 582.015 38.9839 582.301 38.5039 582.781C38.0372 583.261 37.8039 583.921 37.8039 584.761V589.441C37.8039 589.748 37.7239 589.981 37.5639 590.141C37.4172 590.301 37.1972 590.381 36.9039 590.381ZM44.1686 590.381C43.8886 590.381 43.6686 590.301 43.5086 590.141C43.3486 589.981 43.2686 589.748 43.2686 589.441V581.281C43.2686 580.975 43.3486 580.748 43.5086 580.601C43.6686 580.441 43.8886 580.361 44.1686 580.361C44.4486 580.361 44.6619 580.441 44.8086 580.601C44.9686 580.748 45.0486 580.975 45.0486 581.281V582.921L44.8286 582.621C45.1086 581.861 45.5619 581.288 46.1886 580.901C46.8286 580.515 47.5553 580.321 48.3686 580.321C49.1553 580.321 49.8019 580.461 50.3086 580.741C50.8153 581.021 51.1953 581.448 51.4486 582.021C51.7019 582.595 51.8286 583.321 51.8286 584.201V589.441C51.8286 589.748 51.7486 589.981 51.5886 590.141C51.4419 590.301 51.2219 590.381 50.9286 590.381C50.6353 590.381 50.4086 590.301 50.2486 590.141C50.0886 589.981 50.0086 589.748 50.0086 589.441V584.301C50.0086 583.435 49.8419 582.801 49.5086 582.401C49.1753 582.001 48.6419 581.801 47.9086 581.801C47.0553 581.801 46.3686 582.068 45.8486 582.601C45.3419 583.121 45.0886 583.828 45.0886 584.721V589.441C45.0886 590.068 44.7819 590.381 44.1686 590.381ZM57.8139 590.421C57.1472 590.421 56.5406 590.288 55.9939 590.021C55.4606 589.755 55.0406 589.395 54.7339 588.941C54.4406 588.488 54.2939 587.981 54.2939 587.421C54.2939 586.701 54.4739 586.135 54.8339 585.721C55.1939 585.308 55.8006 585.015 56.6539 584.841C57.5072 584.655 58.6539 584.561 60.0939 584.561H61.0339V585.721H60.1339C59.1072 585.721 58.2939 585.768 57.6939 585.861C57.1072 585.955 56.6939 586.121 56.4539 586.361C56.2139 586.588 56.0939 586.908 56.0939 587.321C56.0939 587.841 56.2739 588.268 56.6339 588.601C57.0072 588.935 57.5139 589.101 58.1539 589.101C58.6606 589.101 59.1072 588.981 59.4939 588.741C59.8806 588.488 60.1872 588.155 60.4139 587.741C60.6406 587.315 60.7539 586.828 60.7539 586.281V583.981C60.7539 583.195 60.5939 582.628 60.2739 582.281C59.9539 581.921 59.4139 581.741 58.6539 581.741C58.2139 581.741 57.7606 581.801 57.2939 581.921C56.8272 582.041 56.3406 582.228 55.8339 582.481C55.6339 582.575 55.4606 582.608 55.3139 582.581C55.1672 582.541 55.0472 582.461 54.9539 582.341C54.8739 582.208 54.8272 582.068 54.8139 581.921C54.8139 581.761 54.8472 581.608 54.9139 581.461C54.9939 581.315 55.1272 581.208 55.3139 581.141C55.9006 580.848 56.4806 580.641 57.0539 580.521C57.6406 580.388 58.1872 580.321 58.6939 580.321C59.5606 580.321 60.2739 580.461 60.8339 580.741C61.3939 581.008 61.8139 581.428 62.0939 582.001C62.3739 582.561 62.5139 583.281 62.5139 584.161V589.441C62.5139 589.748 62.4406 589.981 62.2939 590.141C62.1472 590.301 61.9339 590.381 61.6539 590.381C61.3872 590.381 61.1739 590.301 61.0139 590.141C60.8672 589.981 60.7939 589.748 60.7939 589.441V588.021H60.9739C60.8672 588.515 60.6672 588.941 60.3739 589.301C60.0806 589.661 59.7139 589.941 59.2739 590.141C58.8472 590.328 58.3606 590.421 57.8139 590.421ZM74.7328 590.421C73.7728 590.421 72.9395 590.215 72.2328 589.801C71.5261 589.388 70.9795 588.801 70.5928 588.041C70.2061 587.281 70.0128 586.388 70.0128 585.361C70.0128 584.588 70.1195 583.895 70.3328 583.281C70.5595 582.655 70.8795 582.121 71.2928 581.681C71.7061 581.241 72.1995 580.908 72.7728 580.681C73.3595 580.441 74.0128 580.321 74.7328 580.321C75.6928 580.321 76.5261 580.528 77.2328 580.941C77.9395 581.355 78.4861 581.941 78.8728 582.701C79.2595 583.448 79.4528 584.335 79.4528 585.361C79.4528 586.135 79.3395 586.835 79.1128 587.461C78.8995 588.088 78.5861 588.621 78.1728 589.061C77.7595 589.501 77.2595 589.841 76.6728 590.081C76.0995 590.308 75.4528 590.421 74.7328 590.421ZM74.7328 588.981C75.3195 588.981 75.8261 588.841 76.2528 588.561C76.6928 588.281 77.0261 587.875 77.2528 587.341C77.4928 586.808 77.6128 586.148 77.6128 585.361C77.6128 584.188 77.3528 583.295 76.8328 582.681C76.3128 582.068 75.6128 581.761 74.7328 581.761C74.1595 581.761 73.6528 581.901 73.2128 582.181C72.7861 582.448 72.4528 582.848 72.2128 583.381C71.9728 583.915 71.8528 584.575 71.8528 585.361C71.8528 586.535 72.1128 587.435 72.6328 588.061C73.1661 588.675 73.8661 588.981 74.7328 588.981ZM82.7242 590.381C82.4176 590.381 82.1842 590.301 82.0242 590.141C81.8642 589.981 81.7842 589.748 81.7842 589.441V581.281C81.7842 580.975 81.8642 580.748 82.0242 580.601C82.1842 580.441 82.4042 580.361 82.6842 580.361C82.9642 580.361 83.1776 580.441 83.3242 580.601C83.4842 580.748 83.5642 580.975 83.5642 581.281V582.821H83.3642C83.5776 582.021 83.9776 581.415 84.5642 581.001C85.1509 580.588 85.8909 580.355 86.7842 580.301C86.9976 580.288 87.1709 580.341 87.3042 580.461C87.4376 580.568 87.5109 580.755 87.5242 581.021C87.5376 581.275 87.4776 581.481 87.3442 581.641C87.2109 581.788 87.0042 581.875 86.7242 581.901L86.3642 581.921C85.4842 582.015 84.8042 582.301 84.3242 582.781C83.8576 583.261 83.6242 583.921 83.6242 584.761V589.441C83.6242 589.748 83.5442 589.981 83.3842 590.141C83.2376 590.301 83.0176 590.381 82.7242 590.381ZM93.4522 590.421C92.3989 590.421 91.4922 590.221 90.7322 589.821C89.9855 589.408 89.4055 588.828 88.9922 588.081C88.5789 587.321 88.3722 586.428 88.3722 585.401C88.3722 584.388 88.5722 583.501 88.9722 582.741C89.3855 581.981 89.9455 581.388 90.6522 580.961C91.3722 580.535 92.1922 580.321 93.1122 580.321C93.7655 580.321 94.3522 580.435 94.8722 580.661C95.4055 580.875 95.8589 581.188 96.2322 581.601C96.6055 582.015 96.8855 582.521 97.0722 583.121C97.2722 583.708 97.3722 584.375 97.3722 585.121C97.3722 585.335 97.3055 585.501 97.1722 585.621C97.0522 585.728 96.8722 585.781 96.6322 585.781H89.7922V584.621H96.1722L95.8322 584.901C95.8322 584.208 95.7255 583.621 95.5122 583.141C95.3122 582.648 95.0122 582.275 94.6122 582.021C94.2255 581.768 93.7389 581.641 93.1522 581.641C92.5122 581.641 91.9655 581.795 91.5122 582.101C91.0589 582.395 90.7122 582.815 90.4722 583.361C90.2322 583.895 90.1122 584.515 90.1122 585.221V585.341C90.1122 586.541 90.3989 587.448 90.9722 588.061C91.5455 588.675 92.3722 588.981 93.4522 588.981C93.8789 588.981 94.3122 588.928 94.7522 588.821C95.2055 588.715 95.6389 588.521 96.0522 588.241C96.2522 588.121 96.4322 588.068 96.5922 588.081C96.7655 588.081 96.9055 588.135 97.0122 588.241C97.1189 588.335 97.1855 588.455 97.2122 588.601C97.2389 588.735 97.2189 588.881 97.1522 589.041C97.0855 589.201 96.9589 589.341 96.7722 589.461C96.3322 589.768 95.8055 590.008 95.1922 590.181C94.5922 590.341 94.0122 590.421 93.4522 590.421ZM100.576 590.381C100.296 590.381 100.076 590.301 99.9158 590.141C99.7558 589.981 99.6758 589.748 99.6758 589.441V581.281C99.6758 580.975 99.7558 580.748 99.9158 580.601C100.076 580.441 100.296 580.361 100.576 580.361C100.856 580.361 101.069 580.441 101.216 580.601C101.376 580.748 101.456 580.975 101.456 581.281V582.981L101.236 582.621C101.489 581.888 101.896 581.321 102.456 580.921C103.029 580.521 103.709 580.321 104.496 580.321C105.322 580.321 105.989 580.521 106.496 580.921C107.002 581.308 107.342 581.901 107.516 582.701H107.236C107.476 581.968 107.902 581.388 108.516 580.961C109.142 580.535 109.869 580.321 110.696 580.321C111.429 580.321 112.029 580.468 112.496 580.761C112.976 581.041 113.336 581.468 113.576 582.041C113.816 582.601 113.936 583.321 113.936 584.201V589.441C113.936 589.748 113.856 589.981 113.696 590.141C113.536 590.301 113.316 590.381 113.036 590.381C112.742 590.381 112.516 590.301 112.356 590.141C112.196 589.981 112.116 589.748 112.116 589.441V584.281C112.116 583.428 111.969 582.801 111.676 582.401C111.382 582.001 110.889 581.801 110.196 581.801C109.436 581.801 108.829 582.068 108.376 582.601C107.936 583.121 107.716 583.841 107.716 584.761V589.441C107.716 589.748 107.636 589.981 107.476 590.141C107.329 590.301 107.109 590.381 106.816 590.381C106.522 590.381 106.296 590.301 106.136 590.141C105.976 589.981 105.896 589.748 105.896 589.441V584.281C105.896 583.428 105.749 582.801 105.456 582.401C105.162 582.001 104.669 581.801 103.976 581.801C103.216 581.801 102.609 582.068 102.156 582.601C101.716 583.121 101.496 583.841 101.496 584.761V589.441C101.496 590.068 101.189 590.381 100.576 590.381ZM122.977 590.341C122.697 590.341 122.477 590.255 122.317 590.081C122.157 589.908 122.077 589.668 122.077 589.361V581.381C122.077 581.061 122.157 580.821 122.317 580.661C122.477 580.488 122.697 580.401 122.977 580.401C123.271 580.401 123.497 580.488 123.657 580.661C123.817 580.821 123.897 581.061 123.897 581.381V589.361C123.897 589.668 123.817 589.908 123.657 590.081C123.511 590.255 123.284 590.341 122.977 590.341ZM122.977 578.241C122.617 578.241 122.331 578.148 122.117 577.961C121.917 577.761 121.817 577.501 121.817 577.181C121.817 576.835 121.917 576.575 122.117 576.401C122.331 576.215 122.617 576.121 122.977 576.121C123.364 576.121 123.651 576.215 123.837 576.401C124.037 576.575 124.137 576.835 124.137 577.181C124.137 577.501 124.037 577.761 123.837 577.961C123.651 578.148 123.364 578.241 122.977 578.241ZM127.723 593.981C127.443 593.981 127.223 593.901 127.063 593.741C126.903 593.581 126.823 593.355 126.823 593.061V581.281C126.823 580.975 126.903 580.748 127.063 580.601C127.223 580.441 127.443 580.361 127.723 580.361C128.017 580.361 128.237 580.441 128.383 580.601C128.543 580.748 128.623 580.975 128.623 581.281V583.101L128.403 582.741C128.617 582.008 129.037 581.421 129.663 580.981C130.29 580.541 131.043 580.321 131.923 580.321C132.79 580.321 133.543 580.528 134.183 580.941C134.823 581.341 135.323 581.921 135.683 582.681C136.043 583.428 136.223 584.321 136.223 585.361C136.223 586.388 136.043 587.288 135.683 588.061C135.337 588.821 134.837 589.408 134.183 589.821C133.543 590.221 132.79 590.421 131.923 590.421C131.057 590.421 130.31 590.201 129.683 589.761C129.057 589.321 128.637 588.741 128.423 588.021H128.643V593.061C128.643 593.355 128.563 593.581 128.403 593.741C128.243 593.901 128.017 593.981 127.723 593.981ZM131.503 588.981C132.077 588.981 132.577 588.841 133.003 588.561C133.443 588.281 133.783 587.875 134.023 587.341C134.263 586.808 134.383 586.148 134.383 585.361C134.383 584.188 134.123 583.295 133.603 582.681C133.083 582.068 132.383 581.761 131.503 581.761C130.917 581.761 130.403 581.901 129.963 582.181C129.537 582.448 129.203 582.848 128.963 583.381C128.737 583.915 128.623 584.575 128.623 585.361C128.623 586.535 128.883 587.435 129.403 588.061C129.923 588.675 130.623 588.981 131.503 588.981ZM141.922 590.421C141.322 590.421 140.715 590.355 140.102 590.221C139.502 590.075 138.935 589.828 138.402 589.481C138.255 589.388 138.148 589.275 138.082 589.141C138.028 588.995 138.008 588.855 138.022 588.721C138.048 588.575 138.108 588.448 138.202 588.341C138.295 588.235 138.408 588.175 138.542 588.161C138.688 588.135 138.842 588.168 139.002 588.261C139.522 588.555 140.022 588.761 140.502 588.881C140.995 589.001 141.482 589.061 141.962 589.061C142.695 589.061 143.248 588.928 143.622 588.661C143.995 588.395 144.182 588.041 144.182 587.601C144.182 587.228 144.055 586.941 143.802 586.741C143.562 586.528 143.182 586.368 142.662 586.261L140.802 585.881C139.975 585.695 139.348 585.388 138.922 584.961C138.508 584.521 138.302 583.961 138.302 583.281C138.302 582.681 138.462 582.161 138.782 581.721C139.115 581.268 139.575 580.921 140.162 580.681C140.748 580.441 141.422 580.321 142.182 580.321C142.768 580.321 143.322 580.401 143.842 580.561C144.375 580.708 144.855 580.935 145.282 581.241C145.442 581.335 145.542 581.455 145.582 581.601C145.635 581.735 145.642 581.875 145.602 582.021C145.575 582.155 145.515 582.268 145.422 582.361C145.328 582.455 145.208 582.515 145.062 582.541C144.915 582.555 144.755 582.515 144.582 582.421C144.195 582.155 143.795 581.968 143.382 581.861C142.982 581.741 142.582 581.681 142.182 581.681C141.462 581.681 140.915 581.821 140.542 582.101C140.182 582.381 140.002 582.748 140.002 583.201C140.002 583.548 140.108 583.835 140.322 584.061C140.548 584.288 140.902 584.455 141.382 584.561L143.242 584.941C144.108 585.128 144.762 585.428 145.202 585.841C145.642 586.241 145.862 586.788 145.862 587.481C145.862 588.388 145.502 589.108 144.782 589.641C144.075 590.161 143.122 590.421 141.922 590.421ZM151.71 590.421C150.923 590.421 150.263 590.275 149.73 589.981C149.21 589.688 148.823 589.255 148.57 588.681C148.316 588.108 148.19 587.388 148.19 586.521V581.281C148.19 580.975 148.263 580.748 148.41 580.601C148.57 580.441 148.796 580.361 149.09 580.361C149.383 580.361 149.61 580.441 149.77 580.601C149.93 580.748 150.01 580.975 150.01 581.281V586.521C150.01 587.348 150.176 587.961 150.51 588.361C150.843 588.748 151.37 588.941 152.09 588.941C152.89 588.941 153.536 588.675 154.03 588.141C154.536 587.608 154.79 586.901 154.79 586.021V581.281C154.79 580.975 154.863 580.748 155.01 580.601C155.17 580.441 155.396 580.361 155.69 580.361C155.983 580.361 156.21 580.441 156.37 580.601C156.53 580.748 156.61 580.975 156.61 581.281V589.441C156.61 590.068 156.316 590.381 155.73 590.381C155.436 590.381 155.21 590.301 155.05 590.141C154.903 589.981 154.83 589.748 154.83 589.441V587.701L155.09 588.041C154.823 588.815 154.39 589.408 153.79 589.821C153.203 590.221 152.51 590.421 151.71 590.421ZM160.478 590.381C160.198 590.381 159.978 590.301 159.818 590.141C159.658 589.981 159.578 589.748 159.578 589.441V581.281C159.578 580.975 159.658 580.748 159.818 580.601C159.978 580.441 160.198 580.361 160.478 580.361C160.758 580.361 160.971 580.441 161.118 580.601C161.278 580.748 161.358 580.975 161.358 581.281V582.981L161.138 582.621C161.391 581.888 161.798 581.321 162.358 580.921C162.931 580.521 163.611 580.321 164.398 580.321C165.225 580.321 165.891 580.521 166.398 580.921C166.905 581.308 167.245 581.901 167.418 582.701H167.138C167.378 581.968 167.805 581.388 168.418 580.961C169.045 580.535 169.771 580.321 170.598 580.321C171.331 580.321 171.931 580.468 172.398 580.761C172.878 581.041 173.238 581.468 173.478 582.041C173.718 582.601 173.838 583.321 173.838 584.201V589.441C173.838 589.748 173.758 589.981 173.598 590.141C173.438 590.301 173.218 590.381 172.938 590.381C172.645 590.381 172.418 590.301 172.258 590.141C172.098 589.981 172.018 589.748 172.018 589.441V584.281C172.018 583.428 171.871 582.801 171.578 582.401C171.285 582.001 170.791 581.801 170.098 581.801C169.338 581.801 168.731 582.068 168.278 582.601C167.838 583.121 167.618 583.841 167.618 584.761V589.441C167.618 589.748 167.538 589.981 167.378 590.141C167.231 590.301 167.011 590.381 166.718 590.381C166.425 590.381 166.198 590.301 166.038 590.141C165.878 589.981 165.798 589.748 165.798 589.441V584.281C165.798 583.428 165.651 582.801 165.358 582.401C165.065 582.001 164.571 581.801 163.878 581.801C163.118 581.801 162.511 582.068 162.058 582.601C161.618 583.121 161.398 583.841 161.398 584.761V589.441C161.398 590.068 161.091 590.381 160.478 590.381ZM177.645 590.321C177.298 590.321 177.011 590.208 176.785 589.981C176.558 589.755 176.445 589.468 176.445 589.121C176.445 588.775 176.558 588.495 176.785 588.281C177.011 588.068 177.298 587.961 177.645 587.961C178.018 587.961 178.305 588.068 178.505 588.281C178.718 588.495 178.825 588.775 178.825 589.121C178.825 589.468 178.718 589.755 178.505 589.981C178.305 590.208 178.018 590.321 177.645 590.321Z" fill="#F9FBFB"/>
</svg>
