<svg width="453" height="407" viewBox="0 0 453 407" fill="none" xmlns="http://www.w3.org/2000/svg">
<g filter="url(#filter0_ddii_79_1432)">
<path d="M20.1768 31.4139C20.1768 18.5637 30.594 8.14648 43.4443 8.14648H409.589C422.439 8.14648 432.857 18.5637 432.857 31.414V351.169C432.857 364.019 422.439 374.436 409.589 374.436H43.4443C30.594 374.436 20.1768 364.019 20.1768 351.169V31.4139Z" fill="#F9FBFB" shape-rendering="crispEdges"/>
<path d="M56.7789 69.7593C55.0469 69.7593 53.2841 69.5274 51.4904 69.0635C49.6966 68.5686 48.1348 67.8418 46.8049 66.8831C46.3101 66.5738 45.9699 66.2027 45.7844 65.7697C45.6297 65.3058 45.5988 64.8883 45.6916 64.5172C45.7844 64.1152 45.9699 63.775 46.2483 63.4966C46.5575 63.2183 46.9287 63.0637 47.3616 63.0327C47.7946 62.9709 48.274 63.0946 48.7997 63.4038C50.1296 64.2079 51.4285 64.7956 52.6965 65.1667C53.9645 65.5069 55.2789 65.677 56.6397 65.677C58.1242 65.677 59.3767 65.4605 60.3973 65.0275C61.4179 64.5945 62.1756 63.9605 62.6704 63.1255C63.1962 62.2905 63.459 61.2854 63.459 60.1101C63.459 58.3473 62.8714 57.0329 61.6962 56.167C60.5519 55.2701 58.8819 54.8216 56.6861 54.8216H53.5315C52.8202 54.8216 52.279 54.6516 51.9079 54.3114C51.5368 53.9402 51.3512 53.4299 51.3512 52.7805C51.3512 52.1619 51.5368 51.6826 51.9079 51.3424C52.279 50.9713 52.8202 50.7857 53.5315 50.7857H56.2222C57.552 50.7857 58.6809 50.5692 59.6087 50.1362C60.5365 49.6723 61.2478 49.0383 61.7426 48.2342C62.2684 47.3992 62.5312 46.3941 62.5312 45.2189C62.5312 43.6416 62.0055 42.4355 60.954 41.6004C59.9334 40.7345 58.4334 40.3015 56.4541 40.3015C55.1861 40.3015 53.98 40.4716 52.8357 40.8118C51.7223 41.152 50.5626 41.7551 49.3564 42.621C48.8925 42.9303 48.4441 43.0695 48.0111 43.0385C47.609 42.9767 47.2534 42.822 46.9441 42.5746C46.6658 42.2963 46.4648 41.9561 46.341 41.554C46.2483 41.152 46.2792 40.7345 46.4338 40.3015C46.5885 39.8685 46.8977 39.4974 47.3616 39.1881C48.6606 38.2294 50.1296 37.5026 51.7687 37.0078C53.4078 36.482 55.0933 36.2192 56.8252 36.2192C58.9901 36.2192 60.8457 36.5594 62.3921 37.2397C63.9693 37.9201 65.16 38.8943 65.9641 40.1623C66.7991 41.4303 67.2167 42.9457 67.2167 44.7086C67.2167 46.0384 66.9692 47.2446 66.4744 48.327C65.9796 49.4095 65.2683 50.3373 64.3405 51.1104C63.4436 51.8527 62.3457 52.3784 61.0468 52.6877V52.1774C63.3044 52.5485 65.0518 53.4763 66.2889 54.9608C67.5259 56.4144 68.1445 58.2391 68.1445 60.4349C68.1445 62.3523 67.6806 64.0224 66.7528 65.445C65.8559 66.8367 64.5569 67.9037 62.856 68.6459C61.155 69.3882 59.1293 69.7593 56.7789 69.7593ZM85.1052 69.7593C81.3012 69.7593 78.394 68.3212 76.3838 65.445C74.4045 62.5379 73.4148 58.3782 73.4148 52.966C73.4148 49.2857 73.8633 46.2085 74.7601 43.7344C75.657 41.2602 76.9714 39.3892 78.7033 38.1212C80.4352 36.8532 82.5692 36.2192 85.1052 36.2192C88.9401 36.2192 91.8472 37.6418 93.8265 40.4871C95.8059 43.3014 96.7955 47.4456 96.7955 52.9197C96.7955 56.5381 96.3471 59.5998 95.4502 62.1049C94.5533 64.61 93.2389 66.512 91.507 67.8109C89.7751 69.1098 87.6412 69.7593 85.1052 69.7593ZM85.1052 65.7697C87.4865 65.7697 89.2339 64.7337 90.3473 62.6616C91.4916 60.5586 92.0637 57.3113 92.0637 52.9197C92.0637 48.4971 91.4916 45.2807 90.3473 43.2705C89.2339 41.2293 87.4865 40.2087 85.1052 40.2087C82.7547 40.2087 81.0074 41.2293 79.8631 43.2705C78.7188 45.2807 78.1466 48.4971 78.1466 52.9197C78.1466 57.3113 78.7188 60.5586 79.8631 62.6616C81.0074 64.7337 82.7547 65.7697 85.1052 65.7697ZM113.524 69.2026C113.277 69.6665 112.952 69.9758 112.55 70.1304C112.179 70.2851 111.808 70.316 111.437 70.2232C111.066 70.1304 110.756 69.9449 110.509 69.6665C110.261 69.3882 110.107 69.048 110.045 68.6459C110.014 68.2439 110.122 67.8109 110.37 67.347L127.905 36.8686C128.153 36.3738 128.462 36.0491 128.833 35.8944C129.235 35.7398 129.606 35.7089 129.946 35.8016C130.318 35.8944 130.627 36.08 130.874 36.3583C131.153 36.6367 131.323 36.9769 131.385 37.3789C131.446 37.781 131.338 38.2139 131.06 38.6778L113.524 69.2026ZM109.396 56.2134C106.86 56.2134 104.88 55.3319 103.458 53.5691C102.035 51.7754 101.324 49.3167 101.324 46.1931C101.324 44.09 101.648 42.2963 102.298 40.8118C102.947 39.3273 103.875 38.1985 105.081 37.4253C106.287 36.6212 107.725 36.2192 109.396 36.2192C111.901 36.2192 113.864 37.1006 115.287 38.8634C116.741 40.6262 117.467 43.0695 117.467 46.1931C117.467 48.2652 117.143 50.0589 116.493 51.5743C115.875 53.0588 114.962 54.2031 113.756 55.0072C112.55 55.8113 111.097 56.2134 109.396 56.2134ZM109.396 52.9197C110.261 52.9197 111.004 52.6722 111.622 52.1774C112.241 51.6826 112.705 50.9403 113.014 49.9507C113.354 48.961 113.524 47.7085 113.524 46.1931C113.524 43.9354 113.153 42.2499 112.411 41.1365C111.7 40.0232 110.694 39.4665 109.396 39.4665C108.53 39.4665 107.787 39.7139 107.169 40.2087C106.55 40.7036 106.071 41.4458 105.731 42.4355C105.421 43.4251 105.267 44.6776 105.267 46.1931C105.267 48.4817 105.622 50.1826 106.334 51.296C107.076 52.3784 108.097 52.9197 109.396 52.9197ZM132.08 69.7593C129.575 69.7593 127.611 68.8779 126.189 67.1151C124.766 65.3522 124.055 62.8936 124.055 59.739C124.055 57.6669 124.364 55.8886 124.983 54.4041C125.632 52.9197 126.56 51.7754 127.766 50.9713C128.972 50.1672 130.41 49.7651 132.08 49.7651C134.616 49.7651 136.596 50.662 138.018 52.4557C139.441 54.2186 140.152 56.6463 140.152 59.739C140.152 61.842 139.828 63.6513 139.178 65.1667C138.56 66.6512 137.647 67.7955 136.441 68.5996C135.235 69.3727 133.781 69.7593 132.08 69.7593ZM132.08 66.512C132.946 66.512 133.689 66.2646 134.307 65.7697C134.926 65.2749 135.39 64.5327 135.699 63.543C136.039 62.5224 136.209 61.2544 136.209 59.739C136.209 57.5123 135.838 55.8422 135.096 54.7289C134.384 53.6155 133.379 53.0588 132.08 53.0588C131.245 53.0588 130.503 53.3062 129.854 53.8011C129.235 54.2959 128.756 55.0381 128.416 56.0278C128.106 57.0175 127.952 58.2545 127.952 59.739C127.952 62.0276 128.323 63.7286 129.065 64.8419C129.807 65.9553 130.812 66.512 132.08 66.512Z" fill="#0F1415"/>
<path d="M47.5641 270.733C47.0947 270.733 46.7321 270.605 46.4761 270.349C46.2201 270.072 46.0921 269.688 46.0921 269.197V249.261C46.0921 248.749 46.2201 248.365 46.4761 248.109C46.7321 247.853 47.0947 247.725 47.5641 247.725C48.0547 247.725 48.4281 247.853 48.6841 248.109C48.9401 248.365 49.0681 248.749 49.0681 249.261V257.805H62.1241V249.261C62.1241 248.749 62.2521 248.365 62.5081 248.109C62.7641 247.853 63.1374 247.725 63.6281 247.725C64.0974 247.725 64.4601 247.853 64.7161 248.109C64.9721 248.365 65.1001 248.749 65.1001 249.261V269.197C65.1001 269.688 64.9721 270.072 64.7161 270.349C64.4601 270.605 64.0974 270.733 63.6281 270.733C63.1374 270.733 62.7641 270.605 62.5081 270.349C62.2521 270.072 62.1241 269.688 62.1241 269.197V260.333H49.0681V269.197C49.0681 269.688 48.9401 270.072 48.6841 270.349C48.4494 270.605 48.0761 270.733 47.5641 270.733ZM77.3456 270.797C75.6602 270.797 74.2096 270.477 72.9936 269.837C71.7989 269.176 70.8709 268.248 70.2096 267.053C69.5482 265.837 69.2176 264.408 69.2176 262.765C69.2176 261.144 69.5376 259.725 70.1776 258.509C70.8389 257.293 71.7349 256.344 72.8656 255.661C74.0176 254.979 75.3296 254.637 76.8016 254.637C77.8469 254.637 78.7856 254.819 79.6176 255.181C80.4709 255.523 81.1962 256.024 81.7936 256.685C82.3909 257.347 82.8389 258.157 83.1376 259.117C83.4576 260.056 83.6176 261.123 83.6176 262.317C83.6176 262.659 83.5109 262.925 83.2976 263.117C83.1056 263.288 82.8176 263.373 82.4336 263.373H71.4896V261.517H81.6976L81.1536 261.965C81.1536 260.856 80.9829 259.917 80.6416 259.149C80.3216 258.36 79.8416 257.763 79.2016 257.357C78.5829 256.952 77.8042 256.749 76.8656 256.749C75.8416 256.749 74.9669 256.995 74.2416 257.485C73.5162 257.955 72.9616 258.627 72.5776 259.501C72.1936 260.355 72.0016 261.347 72.0016 262.477V262.669C72.0016 264.589 72.4602 266.04 73.3776 267.021C74.2949 268.003 75.6176 268.493 77.3456 268.493C78.0282 268.493 78.7216 268.408 79.4256 268.237C80.1509 268.067 80.8442 267.757 81.5056 267.309C81.8256 267.117 82.1136 267.032 82.3696 267.053C82.6469 267.053 82.8709 267.139 83.0416 267.309C83.2122 267.459 83.3189 267.651 83.3616 267.885C83.4042 268.099 83.3722 268.333 83.2656 268.589C83.1589 268.845 82.9562 269.069 82.6576 269.261C81.9536 269.752 81.1109 270.136 80.1296 270.413C79.1696 270.669 78.2416 270.797 77.3456 270.797ZM88.6793 270.733C88.2313 270.733 87.8793 270.605 87.6233 270.349C87.3673 270.093 87.2393 269.72 87.2393 269.229V256.173C87.2393 255.683 87.3673 255.32 87.6233 255.085C87.8793 254.829 88.2313 254.701 88.6793 254.701C89.1273 254.701 89.4687 254.829 89.7033 255.085C89.9593 255.32 90.0873 255.683 90.0873 256.173V258.797L89.7353 258.317C90.1833 257.101 90.9087 256.184 91.9113 255.565C92.9353 254.947 94.098 254.637 95.3993 254.637C96.658 254.637 97.6927 254.861 98.5033 255.309C99.314 255.757 99.922 256.44 100.327 257.357C100.733 258.275 100.935 259.437 100.935 260.845V269.229C100.935 269.72 100.807 270.093 100.551 270.349C100.317 270.605 99.9647 270.733 99.4953 270.733C99.026 270.733 98.6633 270.605 98.4073 270.349C98.1513 270.093 98.0233 269.72 98.0233 269.229V261.005C98.0233 259.619 97.7567 258.605 97.2233 257.965C96.69 257.325 95.8367 257.005 94.6633 257.005C93.298 257.005 92.1993 257.432 91.3673 258.285C90.5567 259.117 90.1513 260.248 90.1513 261.677V269.229C90.1513 270.232 89.6607 270.733 88.6793 270.733ZM111.504 270.797C110.138 270.797 108.933 270.477 107.888 269.837C106.864 269.176 106.064 268.237 105.488 267.021C104.912 265.784 104.624 264.344 104.624 262.701C104.624 261.037 104.901 259.608 105.456 258.413C106.032 257.197 106.832 256.269 107.856 255.629C108.901 254.968 110.117 254.637 111.504 254.637C112.89 254.637 114.085 254.989 115.088 255.693C116.09 256.376 116.762 257.293 117.104 258.445H116.752V249.197C116.752 248.707 116.869 248.344 117.104 248.109C117.36 247.853 117.722 247.725 118.192 247.725C118.661 247.725 119.024 247.853 119.28 248.109C119.536 248.344 119.664 248.707 119.664 249.197V269.229C119.664 269.72 119.536 270.093 119.28 270.349C119.024 270.605 118.661 270.733 118.192 270.733C117.744 270.733 117.392 270.605 117.136 270.349C116.88 270.093 116.752 269.72 116.752 269.229V266.317L117.104 266.893C116.784 268.088 116.112 269.037 115.088 269.741C114.085 270.445 112.89 270.797 111.504 270.797ZM112.176 268.493C113.114 268.493 113.925 268.269 114.608 267.821C115.312 267.373 115.845 266.723 116.208 265.869C116.592 265.016 116.784 263.96 116.784 262.701C116.784 260.824 116.368 259.395 115.536 258.413C114.704 257.432 113.584 256.941 112.176 256.941C111.258 256.941 110.448 257.165 109.744 257.613C109.061 258.04 108.528 258.68 108.144 259.533C107.76 260.387 107.568 261.443 107.568 262.701C107.568 264.579 107.984 266.019 108.816 267.021C109.669 268.003 110.789 268.493 112.176 268.493ZM125.837 270.733C125.346 270.733 124.973 270.605 124.717 270.349C124.461 270.093 124.333 269.72 124.333 269.229V256.173C124.333 255.683 124.461 255.32 124.717 255.085C124.973 254.829 125.325 254.701 125.773 254.701C126.221 254.701 126.562 254.829 126.797 255.085C127.053 255.32 127.181 255.683 127.181 256.173V258.637H126.861C127.202 257.357 127.842 256.387 128.781 255.725C129.72 255.064 130.904 254.691 132.333 254.605C132.674 254.584 132.952 254.669 133.165 254.861C133.378 255.032 133.496 255.331 133.517 255.757C133.538 256.163 133.442 256.493 133.229 256.749C133.016 256.984 132.685 257.123 132.237 257.165L131.661 257.197C130.253 257.347 129.165 257.805 128.397 258.573C127.65 259.341 127.277 260.397 127.277 261.741V269.229C127.277 269.72 127.149 270.093 126.893 270.349C126.658 270.605 126.306 270.733 125.837 270.733ZM143.002 270.797C141.316 270.797 139.866 270.477 138.65 269.837C137.455 269.176 136.527 268.248 135.866 267.053C135.204 265.837 134.874 264.408 134.874 262.765C134.874 261.144 135.194 259.725 135.834 258.509C136.495 257.293 137.391 256.344 138.522 255.661C139.674 254.979 140.986 254.637 142.458 254.637C143.503 254.637 144.442 254.819 145.274 255.181C146.127 255.523 146.852 256.024 147.45 256.685C148.047 257.347 148.495 258.157 148.794 259.117C149.114 260.056 149.274 261.123 149.274 262.317C149.274 262.659 149.167 262.925 148.954 263.117C148.762 263.288 148.474 263.373 148.09 263.373H137.146V261.517H147.354L146.81 261.965C146.81 260.856 146.639 259.917 146.298 259.149C145.978 258.36 145.498 257.763 144.858 257.357C144.239 256.952 143.46 256.749 142.522 256.749C141.498 256.749 140.623 256.995 139.898 257.485C139.172 257.955 138.618 258.627 138.234 259.501C137.85 260.355 137.658 261.347 137.658 262.477V262.669C137.658 264.589 138.116 266.04 139.034 267.021C139.951 268.003 141.274 268.493 143.002 268.493C143.684 268.493 144.378 268.408 145.082 268.237C145.807 268.067 146.5 267.757 147.162 267.309C147.482 267.117 147.77 267.032 148.026 267.053C148.303 267.053 148.527 267.139 148.698 267.309C148.868 267.459 148.975 267.651 149.018 267.885C149.06 268.099 149.028 268.333 148.922 268.589C148.815 268.845 148.612 269.069 148.314 269.261C147.61 269.752 146.767 270.136 145.786 270.413C144.826 270.669 143.898 270.797 143.002 270.797ZM154.4 270.733C153.909 270.733 153.536 270.605 153.28 270.349C153.024 270.093 152.896 269.72 152.896 269.229V256.173C152.896 255.683 153.024 255.32 153.28 255.085C153.536 254.829 153.888 254.701 154.336 254.701C154.784 254.701 155.125 254.829 155.36 255.085C155.616 255.32 155.744 255.683 155.744 256.173V258.637H155.424C155.765 257.357 156.405 256.387 157.344 255.725C158.282 255.064 159.466 254.691 160.896 254.605C161.237 254.584 161.514 254.669 161.728 254.861C161.941 255.032 162.058 255.331 162.08 255.757C162.101 256.163 162.005 256.493 161.792 256.749C161.578 256.984 161.248 257.123 160.8 257.165L160.224 257.197C158.816 257.347 157.728 257.805 156.96 258.573C156.213 259.341 155.84 260.397 155.84 261.741V269.229C155.84 269.72 155.712 270.093 155.456 270.349C155.221 270.605 154.869 270.733 154.4 270.733ZM166.023 270.669C165.575 270.669 165.223 270.531 164.967 270.253C164.711 269.976 164.583 269.592 164.583 269.101V256.333C164.583 255.821 164.711 255.437 164.967 255.181C165.223 254.904 165.575 254.765 166.023 254.765C166.492 254.765 166.855 254.904 167.111 255.181C167.367 255.437 167.495 255.821 167.495 256.333V269.101C167.495 269.592 167.367 269.976 167.111 270.253C166.876 270.531 166.514 270.669 166.023 270.669ZM166.023 251.309C165.447 251.309 164.988 251.16 164.647 250.861C164.327 250.541 164.167 250.125 164.167 249.613C164.167 249.059 164.327 248.643 164.647 248.365C164.988 248.067 165.447 247.917 166.023 247.917C166.642 247.917 167.1 248.067 167.399 248.365C167.719 248.643 167.879 249.059 167.879 249.613C167.879 250.125 167.719 250.541 167.399 250.861C167.1 251.16 166.642 251.309 166.023 251.309ZM178.641 270.797C177.382 270.797 176.326 270.573 175.473 270.125C174.641 269.677 174.011 269.027 173.585 268.173C173.179 267.32 172.977 266.275 172.977 265.037V257.165H170.929C170.545 257.165 170.246 257.069 170.033 256.877C169.819 256.664 169.713 256.387 169.713 256.045C169.713 255.683 169.819 255.405 170.033 255.213C170.246 255.021 170.545 254.925 170.929 254.925H172.977V251.437C172.977 250.947 173.105 250.584 173.361 250.349C173.617 250.093 173.979 249.965 174.449 249.965C174.918 249.965 175.27 250.093 175.505 250.349C175.761 250.584 175.889 250.947 175.889 251.437V254.925H179.761C180.166 254.925 180.475 255.021 180.689 255.213C180.902 255.405 181.009 255.683 181.009 256.045C181.009 256.387 180.902 256.664 180.689 256.877C180.475 257.069 180.166 257.165 179.761 257.165H175.889V264.781C175.889 265.955 176.134 266.84 176.625 267.437C177.115 268.035 177.926 268.333 179.057 268.333C179.462 268.333 179.803 268.301 180.081 268.237C180.358 268.152 180.603 268.109 180.817 268.109C181.009 268.088 181.169 268.152 181.297 268.301C181.446 268.451 181.521 268.728 181.521 269.133C181.521 269.432 181.467 269.709 181.361 269.965C181.275 270.2 181.094 270.36 180.817 270.445C180.561 270.531 180.219 270.605 179.793 270.669C179.366 270.755 178.982 270.797 178.641 270.797ZM197.941 270.797C196.576 270.797 195.371 270.477 194.325 269.837C193.301 269.176 192.501 268.237 191.925 267.021C191.349 265.784 191.061 264.344 191.061 262.701C191.061 261.037 191.339 259.608 191.893 258.413C192.469 257.197 193.269 256.269 194.293 255.629C195.339 254.968 196.555 254.637 197.941 254.637C199.328 254.637 200.523 254.989 201.525 255.693C202.528 256.376 203.2 257.293 203.541 258.445H203.189V249.197C203.189 248.707 203.307 248.344 203.541 248.109C203.797 247.853 204.16 247.725 204.629 247.725C205.099 247.725 205.461 247.853 205.717 248.109C205.973 248.344 206.101 248.707 206.101 249.197V269.229C206.101 269.72 205.973 270.093 205.717 270.349C205.461 270.605 205.099 270.733 204.629 270.733C204.181 270.733 203.829 270.605 203.573 270.349C203.317 270.093 203.189 269.72 203.189 269.229V266.317L203.541 266.893C203.221 268.088 202.549 269.037 201.525 269.741C200.523 270.445 199.328 270.797 197.941 270.797ZM198.613 268.493C199.552 268.493 200.363 268.269 201.045 267.821C201.749 267.373 202.283 266.723 202.645 265.869C203.029 265.016 203.221 263.96 203.221 262.701C203.221 260.824 202.805 259.395 201.973 258.413C201.141 257.432 200.021 256.941 198.613 256.941C197.696 256.941 196.885 257.165 196.181 257.613C195.499 258.04 194.965 258.68 194.581 259.533C194.197 260.387 194.005 261.443 194.005 262.701C194.005 264.579 194.421 266.019 195.253 267.021C196.107 268.003 197.227 268.493 198.613 268.493ZM217.395 270.797C215.859 270.797 214.525 270.467 213.395 269.805C212.264 269.144 211.389 268.205 210.771 266.989C210.152 265.773 209.843 264.344 209.843 262.701C209.843 261.464 210.013 260.355 210.355 259.373C210.717 258.371 211.229 257.517 211.891 256.813C212.552 256.109 213.341 255.576 214.259 255.213C215.197 254.829 216.243 254.637 217.395 254.637C218.931 254.637 220.264 254.968 221.395 255.629C222.525 256.291 223.4 257.229 224.019 258.445C224.637 259.64 224.947 261.059 224.947 262.701C224.947 263.939 224.765 265.059 224.403 266.061C224.061 267.064 223.56 267.917 222.899 268.621C222.237 269.325 221.437 269.869 220.499 270.253C219.581 270.616 218.547 270.797 217.395 270.797ZM217.395 268.493C218.333 268.493 219.144 268.269 219.827 267.821C220.531 267.373 221.064 266.723 221.427 265.869C221.811 265.016 222.003 263.96 222.003 262.701C222.003 260.824 221.587 259.395 220.755 258.413C219.923 257.432 218.803 256.941 217.395 256.941C216.477 256.941 215.667 257.165 214.963 257.613C214.28 258.04 213.747 258.68 213.363 259.533C212.979 260.387 212.787 261.443 212.787 262.701C212.787 264.579 213.203 266.019 214.035 267.021C214.888 268.003 216.008 268.493 217.395 268.493ZM230.117 270.733C229.669 270.733 229.317 270.605 229.061 270.349C228.805 270.093 228.677 269.72 228.677 269.229V256.173C228.677 255.683 228.805 255.32 229.061 255.085C229.317 254.829 229.669 254.701 230.117 254.701C230.565 254.701 230.906 254.829 231.141 255.085C231.397 255.32 231.525 255.683 231.525 256.173V258.797L231.173 258.317C231.621 257.101 232.346 256.184 233.349 255.565C234.373 254.947 235.535 254.637 236.837 254.637C238.095 254.637 239.13 254.861 239.941 255.309C240.751 255.757 241.359 256.44 241.765 257.357C242.17 258.275 242.373 259.437 242.373 260.845V269.229C242.373 269.72 242.245 270.093 241.989 270.349C241.754 270.605 241.402 270.733 240.933 270.733C240.463 270.733 240.101 270.605 239.845 270.349C239.589 270.093 239.461 269.72 239.461 269.229V261.005C239.461 259.619 239.194 258.605 238.661 257.965C238.127 257.325 237.274 257.005 236.101 257.005C234.735 257.005 233.637 257.432 232.805 258.285C231.994 259.117 231.589 260.248 231.589 261.677V269.229C231.589 270.232 231.098 270.733 230.117 270.733ZM254.189 270.797C252.504 270.797 251.053 270.477 249.837 269.837C248.643 269.176 247.715 268.248 247.053 267.053C246.392 265.837 246.061 264.408 246.061 262.765C246.061 261.144 246.381 259.725 247.021 258.509C247.683 257.293 248.579 256.344 249.709 255.661C250.861 254.979 252.173 254.637 253.645 254.637C254.691 254.637 255.629 254.819 256.461 255.181C257.315 255.523 258.04 256.024 258.637 256.685C259.235 257.347 259.683 258.157 259.981 259.117C260.301 260.056 260.461 261.123 260.461 262.317C260.461 262.659 260.355 262.925 260.141 263.117C259.949 263.288 259.661 263.373 259.277 263.373H248.333V261.517H258.541L257.997 261.965C257.997 260.856 257.827 259.917 257.485 259.149C257.165 258.36 256.685 257.763 256.045 257.357C255.427 256.952 254.648 256.749 253.709 256.749C252.685 256.749 251.811 256.995 251.085 257.485C250.36 257.955 249.805 258.627 249.421 259.501C249.037 260.355 248.845 261.347 248.845 262.477V262.669C248.845 264.589 249.304 266.04 250.221 267.021C251.139 268.003 252.461 268.493 254.189 268.493C254.872 268.493 255.565 268.408 256.269 268.237C256.995 268.067 257.688 267.757 258.349 267.309C258.669 267.117 258.957 267.032 259.213 267.053C259.491 267.053 259.715 267.139 259.885 267.309C260.056 267.459 260.163 267.651 260.205 267.885C260.248 268.099 260.216 268.333 260.109 268.589C260.003 268.845 259.8 269.069 259.501 269.261C258.797 269.752 257.955 270.136 256.973 270.413C256.013 270.669 255.085 270.797 254.189 270.797ZM270.835 270.797C269.256 270.797 267.891 270.467 266.739 269.805C265.587 269.123 264.702 268.173 264.083 266.957C263.464 265.72 263.155 264.269 263.155 262.605C263.155 261.368 263.326 260.259 263.667 259.277C264.03 258.296 264.542 257.464 265.203 256.781C265.864 256.077 266.664 255.544 267.603 255.181C268.563 254.819 269.64 254.637 270.835 254.637C271.582 254.637 272.371 254.755 273.203 254.989C274.035 255.224 274.803 255.608 275.507 256.141C275.742 256.312 275.891 256.515 275.955 256.749C276.019 256.963 276.019 257.187 275.955 257.421C275.912 257.656 275.806 257.859 275.635 258.029C275.486 258.179 275.283 258.264 275.027 258.285C274.792 258.307 274.536 258.232 274.259 258.061C273.747 257.677 273.203 257.4 272.627 257.229C272.072 257.059 271.539 256.973 271.027 256.973C270.238 256.973 269.534 257.101 268.915 257.357C268.318 257.613 267.806 257.987 267.379 258.477C266.974 258.947 266.664 259.533 266.451 260.237C266.238 260.92 266.131 261.72 266.131 262.637C266.131 264.451 266.558 265.88 267.411 266.925C268.264 267.949 269.47 268.461 271.027 268.461C271.539 268.461 272.072 268.387 272.627 268.237C273.182 268.067 273.726 267.789 274.259 267.405C274.536 267.235 274.792 267.171 275.027 267.213C275.262 267.235 275.454 267.331 275.603 267.501C275.774 267.651 275.88 267.843 275.923 268.077C275.966 268.291 275.944 268.515 275.859 268.749C275.795 268.984 275.646 269.176 275.411 269.325C274.728 269.837 273.982 270.211 273.171 270.445C272.36 270.68 271.582 270.797 270.835 270.797ZM289.67 270.733C289.2 270.733 288.838 270.605 288.582 270.349C288.326 270.093 288.198 269.72 288.198 269.229V257.165H286.278C285.894 257.165 285.595 257.069 285.382 256.877C285.168 256.664 285.062 256.387 285.062 256.045C285.062 255.683 285.168 255.405 285.382 255.213C285.595 255.021 285.894 254.925 286.278 254.925H288.998L288.198 255.693V254.509C288.198 252.44 288.699 250.872 289.702 249.805C290.726 248.717 292.219 248.088 294.182 247.917L295.174 247.853C295.494 247.811 295.75 247.864 295.942 248.013C296.134 248.141 296.262 248.312 296.326 248.525C296.39 248.739 296.39 248.963 296.326 249.197C296.283 249.411 296.187 249.603 296.038 249.773C295.888 249.944 295.696 250.04 295.462 250.061L294.758 250.093C293.478 250.2 292.55 250.584 291.974 251.245C291.398 251.885 291.11 252.845 291.11 254.125V255.405L290.694 254.925H294.374C294.779 254.925 295.088 255.021 295.302 255.213C295.515 255.405 295.622 255.683 295.622 256.045C295.622 256.387 295.515 256.664 295.302 256.877C295.088 257.069 294.779 257.165 294.374 257.165H291.11V269.229C291.11 270.232 290.63 270.733 289.67 270.733ZM303.745 270.797C302.486 270.797 301.43 270.563 300.577 270.093C299.745 269.624 299.126 268.931 298.721 268.013C298.315 267.096 298.113 265.944 298.113 264.557V256.173C298.113 255.683 298.23 255.32 298.465 255.085C298.721 254.829 299.083 254.701 299.553 254.701C300.022 254.701 300.385 254.829 300.641 255.085C300.897 255.32 301.025 255.683 301.025 256.173V264.557C301.025 265.88 301.291 266.861 301.825 267.501C302.358 268.12 303.201 268.429 304.353 268.429C305.633 268.429 306.667 268.003 307.457 267.149C308.267 266.296 308.673 265.165 308.673 263.757V256.173C308.673 255.683 308.79 255.32 309.025 255.085C309.281 254.829 309.643 254.701 310.113 254.701C310.582 254.701 310.945 254.829 311.201 255.085C311.457 255.32 311.585 255.683 311.585 256.173V269.229C311.585 270.232 311.115 270.733 310.177 270.733C309.707 270.733 309.345 270.605 309.089 270.349C308.854 270.093 308.737 269.72 308.737 269.229V266.445L309.153 266.989C308.726 268.227 308.033 269.176 307.073 269.837C306.134 270.477 305.025 270.797 303.745 270.797ZM321.647 270.797C320.687 270.797 319.716 270.691 318.735 270.477C317.775 270.243 316.868 269.848 316.015 269.293C315.78 269.144 315.609 268.963 315.503 268.749C315.417 268.515 315.385 268.291 315.407 268.077C315.449 267.843 315.545 267.64 315.695 267.469C315.844 267.299 316.025 267.203 316.239 267.181C316.473 267.139 316.719 267.192 316.975 267.341C317.807 267.811 318.607 268.141 319.375 268.333C320.164 268.525 320.943 268.621 321.711 268.621C322.884 268.621 323.769 268.408 324.367 267.981C324.964 267.555 325.263 266.989 325.263 266.285C325.263 265.688 325.06 265.229 324.655 264.909C324.271 264.568 323.663 264.312 322.831 264.141L319.855 263.533C318.532 263.235 317.529 262.744 316.847 262.061C316.185 261.357 315.855 260.461 315.855 259.373C315.855 258.413 316.111 257.581 316.623 256.877C317.156 256.152 317.892 255.597 318.831 255.213C319.769 254.829 320.847 254.637 322.063 254.637C323.001 254.637 323.887 254.765 324.719 255.021C325.572 255.256 326.34 255.619 327.023 256.109C327.279 256.259 327.439 256.451 327.503 256.685C327.588 256.899 327.599 257.123 327.535 257.357C327.492 257.571 327.396 257.752 327.247 257.901C327.097 258.051 326.905 258.147 326.671 258.189C326.436 258.211 326.18 258.147 325.903 257.997C325.284 257.571 324.644 257.272 323.983 257.101C323.343 256.909 322.703 256.813 322.063 256.813C320.911 256.813 320.036 257.037 319.439 257.485C318.863 257.933 318.575 258.52 318.575 259.245C318.575 259.8 318.745 260.259 319.087 260.621C319.449 260.984 320.015 261.251 320.783 261.421L323.759 262.029C325.145 262.328 326.191 262.808 326.895 263.469C327.599 264.109 327.951 264.984 327.951 266.093C327.951 267.544 327.375 268.696 326.223 269.549C325.092 270.381 323.567 270.797 321.647 270.797ZM338.491 270.797C336.913 270.797 335.547 270.467 334.395 269.805C333.243 269.123 332.358 268.173 331.739 266.957C331.121 265.72 330.811 264.269 330.811 262.605C330.811 261.368 330.982 260.259 331.323 259.277C331.686 258.296 332.198 257.464 332.859 256.781C333.521 256.077 334.321 255.544 335.259 255.181C336.219 254.819 337.297 254.637 338.491 254.637C339.238 254.637 340.027 254.755 340.859 254.989C341.691 255.224 342.459 255.608 343.163 256.141C343.398 256.312 343.547 256.515 343.611 256.749C343.675 256.963 343.675 257.187 343.611 257.421C343.569 257.656 343.462 257.859 343.291 258.029C343.142 258.179 342.939 258.264 342.683 258.285C342.449 258.307 342.193 258.232 341.915 258.061C341.403 257.677 340.859 257.4 340.283 257.229C339.729 257.059 339.195 256.973 338.683 256.973C337.894 256.973 337.19 257.101 336.571 257.357C335.974 257.613 335.462 257.987 335.035 258.477C334.63 258.947 334.321 259.533 334.107 260.237C333.894 260.92 333.787 261.72 333.787 262.637C333.787 264.451 334.214 265.88 335.067 266.925C335.921 267.949 337.126 268.461 338.683 268.461C339.195 268.461 339.729 268.387 340.283 268.237C340.838 268.067 341.382 267.789 341.915 267.405C342.193 267.235 342.449 267.171 342.683 267.213C342.918 267.235 343.11 267.331 343.259 267.501C343.43 267.651 343.537 267.843 343.579 268.077C343.622 268.291 343.601 268.515 343.515 268.749C343.451 268.984 343.302 269.176 343.067 269.325C342.385 269.837 341.638 270.211 340.827 270.445C340.017 270.68 339.238 270.797 338.491 270.797ZM353.502 270.797C351.816 270.797 350.366 270.477 349.15 269.837C347.955 269.176 347.027 268.248 346.366 267.053C345.704 265.837 345.374 264.408 345.374 262.765C345.374 261.144 345.694 259.725 346.334 258.509C346.995 257.293 347.891 256.344 349.022 255.661C350.174 254.979 351.486 254.637 352.958 254.637C354.003 254.637 354.942 254.819 355.774 255.181C356.627 255.523 357.352 256.024 357.95 256.685C358.547 257.347 358.995 258.157 359.294 259.117C359.614 260.056 359.774 261.123 359.774 262.317C359.774 262.659 359.667 262.925 359.454 263.117C359.262 263.288 358.974 263.373 358.59 263.373H347.646V261.517H357.854L357.31 261.965C357.31 260.856 357.139 259.917 356.798 259.149C356.478 258.36 355.998 257.763 355.358 257.357C354.739 256.952 353.96 256.749 353.022 256.749C351.998 256.749 351.123 256.995 350.398 257.485C349.672 257.955 349.118 258.627 348.734 259.501C348.35 260.355 348.158 261.347 348.158 262.477V262.669C348.158 264.589 348.616 266.04 349.534 267.021C350.451 268.003 351.774 268.493 353.502 268.493C354.184 268.493 354.878 268.408 355.582 268.237C356.307 268.067 357 267.757 357.662 267.309C357.982 267.117 358.27 267.032 358.526 267.053C358.803 267.053 359.027 267.139 359.198 267.309C359.368 267.459 359.475 267.651 359.518 267.885C359.56 268.099 359.528 268.333 359.422 268.589C359.315 268.845 359.112 269.069 358.814 269.261C358.11 269.752 357.267 270.136 356.286 270.413C355.326 270.669 354.398 270.797 353.502 270.797Z" fill="#0F1415"/>
<path d="M45.9921 313.381C45.6987 313.381 45.4721 313.301 45.3121 313.141C45.1521 312.968 45.0721 312.728 45.0721 312.421V299.961C45.0721 299.641 45.1521 299.401 45.3121 299.241C45.4721 299.081 45.6987 299.001 45.9921 299.001C46.2987 299.001 46.5321 299.081 46.6921 299.241C46.8521 299.401 46.9321 299.641 46.9321 299.961V305.301H55.0921V299.961C55.0921 299.641 55.1721 299.401 55.3321 299.241C55.4921 299.081 55.7254 299.001 56.0321 299.001C56.3254 299.001 56.5521 299.081 56.7121 299.241C56.8721 299.401 56.9521 299.641 56.9521 299.961V312.421C56.9521 312.728 56.8721 312.968 56.7121 313.141C56.5521 313.301 56.3254 313.381 56.0321 313.381C55.7254 313.381 55.4921 313.301 55.3321 313.141C55.1721 312.968 55.0921 312.728 55.0921 312.421V306.881H46.9321V312.421C46.9321 312.728 46.8521 312.968 46.6921 313.141C46.5454 313.301 46.3121 313.381 45.9921 313.381ZM64.6055 313.421C63.5522 313.421 62.6455 313.221 61.8855 312.821C61.1388 312.408 60.5588 311.828 60.1455 311.081C59.7322 310.321 59.5255 309.428 59.5255 308.401C59.5255 307.388 59.7255 306.501 60.1255 305.741C60.5388 304.981 61.0988 304.388 61.8055 303.961C62.5255 303.535 63.3455 303.321 64.2655 303.321C64.9188 303.321 65.5055 303.435 66.0255 303.661C66.5588 303.875 67.0122 304.188 67.3855 304.601C67.7588 305.015 68.0388 305.521 68.2255 306.121C68.4255 306.708 68.5255 307.375 68.5255 308.121C68.5255 308.335 68.4588 308.501 68.3255 308.621C68.2055 308.728 68.0255 308.781 67.7855 308.781H60.9455V307.621H67.3255L66.9855 307.901C66.9855 307.208 66.8788 306.621 66.6655 306.141C66.4655 305.648 66.1655 305.275 65.7655 305.021C65.3788 304.768 64.8922 304.641 64.3055 304.641C63.6655 304.641 63.1188 304.795 62.6655 305.101C62.2122 305.395 61.8655 305.815 61.6255 306.361C61.3855 306.895 61.2655 307.515 61.2655 308.221V308.341C61.2655 309.541 61.5522 310.448 62.1255 311.061C62.6988 311.675 63.5255 311.981 64.6055 311.981C65.0322 311.981 65.4655 311.928 65.9055 311.821C66.3588 311.715 66.7922 311.521 67.2055 311.241C67.4055 311.121 67.5855 311.068 67.7455 311.081C67.9188 311.081 68.0588 311.135 68.1655 311.241C68.2722 311.335 68.3388 311.455 68.3655 311.601C68.3922 311.735 68.3722 311.881 68.3055 312.041C68.2388 312.201 68.1122 312.341 67.9255 312.461C67.4855 312.768 66.9588 313.008 66.3455 313.181C65.7455 313.341 65.1655 313.421 64.6055 313.421ZM71.6891 313.381C71.4091 313.381 71.1891 313.301 71.0291 313.141C70.8691 312.981 70.7891 312.748 70.7891 312.441V304.281C70.7891 303.975 70.8691 303.748 71.0291 303.601C71.1891 303.441 71.4091 303.361 71.6891 303.361C71.9691 303.361 72.1824 303.441 72.3291 303.601C72.4891 303.748 72.5691 303.975 72.5691 304.281V305.921L72.3491 305.621C72.6291 304.861 73.0824 304.288 73.7091 303.901C74.3491 303.515 75.0758 303.321 75.8891 303.321C76.6758 303.321 77.3224 303.461 77.8291 303.741C78.3358 304.021 78.7158 304.448 78.9691 305.021C79.2224 305.595 79.3491 306.321 79.3491 307.201V312.441C79.3491 312.748 79.2691 312.981 79.1091 313.141C78.9624 313.301 78.7424 313.381 78.4491 313.381C78.1558 313.381 77.9291 313.301 77.7691 313.141C77.6091 312.981 77.5291 312.748 77.5291 312.441V307.301C77.5291 306.435 77.3624 305.801 77.0291 305.401C76.6958 305.001 76.1624 304.801 75.4291 304.801C74.5758 304.801 73.8891 305.068 73.3691 305.601C72.8624 306.121 72.6091 306.828 72.6091 307.721V312.441C72.6091 313.068 72.3024 313.381 71.6891 313.381ZM85.9544 313.421C85.1011 313.421 84.3477 313.221 83.6944 312.821C83.0544 312.408 82.5544 311.821 82.1944 311.061C81.8344 310.288 81.6544 309.388 81.6544 308.361C81.6544 307.321 81.8277 306.428 82.1744 305.681C82.5344 304.921 83.0344 304.341 83.6744 303.941C84.3277 303.528 85.0877 303.321 85.9544 303.321C86.8211 303.321 87.5677 303.541 88.1944 303.981C88.8211 304.408 89.2411 304.981 89.4544 305.701H89.2344V299.921C89.2344 299.615 89.3077 299.388 89.4544 299.241C89.6144 299.081 89.8411 299.001 90.1344 299.001C90.4277 299.001 90.6544 299.081 90.8144 299.241C90.9744 299.388 91.0544 299.615 91.0544 299.921V312.441C91.0544 312.748 90.9744 312.981 90.8144 313.141C90.6544 313.301 90.4277 313.381 90.1344 313.381C89.8544 313.381 89.6344 313.301 89.4744 313.141C89.3144 312.981 89.2344 312.748 89.2344 312.441V310.621L89.4544 310.981C89.2544 311.728 88.8344 312.321 88.1944 312.761C87.5677 313.201 86.8211 313.421 85.9544 313.421ZM86.3744 311.981C86.9611 311.981 87.4677 311.841 87.8944 311.561C88.3344 311.281 88.6677 310.875 88.8944 310.341C89.1344 309.808 89.2544 309.148 89.2544 308.361C89.2544 307.188 88.9944 306.295 88.4744 305.681C87.9544 305.068 87.2544 304.761 86.3744 304.761C85.8011 304.761 85.2944 304.901 84.8544 305.181C84.4277 305.448 84.0944 305.848 83.8544 306.381C83.6144 306.915 83.4944 307.575 83.4944 308.361C83.4944 309.535 83.7544 310.435 84.2744 311.061C84.8077 311.675 85.5077 311.981 86.3744 311.981ZM94.9127 313.381C94.606 313.381 94.3727 313.301 94.2127 313.141C94.0527 312.981 93.9727 312.748 93.9727 312.441V304.281C93.9727 303.975 94.0527 303.748 94.2127 303.601C94.3727 303.441 94.5927 303.361 94.8727 303.361C95.1527 303.361 95.366 303.441 95.5127 303.601C95.6727 303.748 95.7527 303.975 95.7527 304.281V305.821H95.5527C95.766 305.021 96.166 304.415 96.7527 304.001C97.3394 303.588 98.0794 303.355 98.9727 303.301C99.186 303.288 99.3594 303.341 99.4927 303.461C99.626 303.568 99.6994 303.755 99.7127 304.021C99.726 304.275 99.666 304.481 99.5327 304.641C99.3994 304.788 99.1927 304.875 98.9127 304.901L98.5527 304.921C97.6727 305.015 96.9927 305.301 96.5127 305.781C96.046 306.261 95.8127 306.921 95.8127 307.761V312.441C95.8127 312.748 95.7327 312.981 95.5727 313.141C95.426 313.301 95.206 313.381 94.9127 313.381ZM105.641 313.421C104.587 313.421 103.681 313.221 102.921 312.821C102.174 312.408 101.594 311.828 101.181 311.081C100.767 310.321 100.561 309.428 100.561 308.401C100.561 307.388 100.761 306.501 101.161 305.741C101.574 304.981 102.134 304.388 102.841 303.961C103.561 303.535 104.381 303.321 105.301 303.321C105.954 303.321 106.541 303.435 107.061 303.661C107.594 303.875 108.047 304.188 108.421 304.601C108.794 305.015 109.074 305.521 109.261 306.121C109.461 306.708 109.561 307.375 109.561 308.121C109.561 308.335 109.494 308.501 109.361 308.621C109.241 308.728 109.061 308.781 108.821 308.781H101.981V307.621H108.361L108.021 307.901C108.021 307.208 107.914 306.621 107.701 306.141C107.501 305.648 107.201 305.275 106.801 305.021C106.414 304.768 105.927 304.641 105.341 304.641C104.701 304.641 104.154 304.795 103.701 305.101C103.247 305.395 102.901 305.815 102.661 306.361C102.421 306.895 102.301 307.515 102.301 308.221V308.341C102.301 309.541 102.587 310.448 103.161 311.061C103.734 311.675 104.561 311.981 105.641 311.981C106.067 311.981 106.501 311.928 106.941 311.821C107.394 311.715 107.827 311.521 108.241 311.241C108.441 311.121 108.621 311.068 108.781 311.081C108.954 311.081 109.094 311.135 109.201 311.241C109.307 311.335 109.374 311.455 109.401 311.601C109.427 311.735 109.407 311.881 109.341 312.041C109.274 312.201 109.147 312.341 108.961 312.461C108.521 312.768 107.994 313.008 107.381 313.181C106.781 313.341 106.201 313.421 105.641 313.421ZM112.764 313.381C112.458 313.381 112.224 313.301 112.064 313.141C111.904 312.981 111.824 312.748 111.824 312.441V304.281C111.824 303.975 111.904 303.748 112.064 303.601C112.224 303.441 112.444 303.361 112.724 303.361C113.004 303.361 113.218 303.441 113.364 303.601C113.524 303.748 113.604 303.975 113.604 304.281V305.821H113.404C113.618 305.021 114.018 304.415 114.604 304.001C115.191 303.588 115.931 303.355 116.824 303.301C117.038 303.288 117.211 303.341 117.344 303.461C117.478 303.568 117.551 303.755 117.564 304.021C117.578 304.275 117.518 304.481 117.384 304.641C117.251 304.788 117.044 304.875 116.764 304.901L116.404 304.921C115.524 305.015 114.844 305.301 114.364 305.781C113.898 306.261 113.664 306.921 113.664 307.761V312.441C113.664 312.748 113.584 312.981 113.424 313.141C113.278 313.301 113.058 313.381 112.764 313.381ZM120.029 313.341C119.749 313.341 119.529 313.255 119.369 313.081C119.209 312.908 119.129 312.668 119.129 312.361V304.381C119.129 304.061 119.209 303.821 119.369 303.661C119.529 303.488 119.749 303.401 120.029 303.401C120.322 303.401 120.549 303.488 120.709 303.661C120.869 303.821 120.949 304.061 120.949 304.381V312.361C120.949 312.668 120.869 312.908 120.709 313.081C120.562 313.255 120.336 313.341 120.029 313.341ZM120.029 301.241C119.669 301.241 119.382 301.148 119.169 300.961C118.969 300.761 118.869 300.501 118.869 300.181C118.869 299.835 118.969 299.575 119.169 299.401C119.382 299.215 119.669 299.121 120.029 299.121C120.416 299.121 120.702 299.215 120.889 299.401C121.089 299.575 121.189 299.835 121.189 300.181C121.189 300.501 121.089 300.761 120.889 300.961C120.702 301.148 120.416 301.241 120.029 301.241ZM127.915 313.421C127.128 313.421 126.468 313.281 125.935 313.001C125.415 312.721 125.022 312.315 124.755 311.781C124.502 311.248 124.375 310.595 124.375 309.821V304.901H123.095C122.855 304.901 122.668 304.841 122.535 304.721C122.402 304.588 122.335 304.415 122.335 304.201C122.335 303.975 122.402 303.801 122.535 303.681C122.668 303.561 122.855 303.501 123.095 303.501H124.375V301.321C124.375 301.015 124.455 300.788 124.615 300.641C124.775 300.481 125.002 300.401 125.295 300.401C125.588 300.401 125.808 300.481 125.955 300.641C126.115 300.788 126.195 301.015 126.195 301.321V303.501H128.615C128.868 303.501 129.062 303.561 129.195 303.681C129.328 303.801 129.395 303.975 129.395 304.201C129.395 304.415 129.328 304.588 129.195 304.721C129.062 304.841 128.868 304.901 128.615 304.901H126.195V309.661C126.195 310.395 126.348 310.948 126.655 311.321C126.962 311.695 127.468 311.881 128.175 311.881C128.428 311.881 128.642 311.861 128.815 311.821C128.988 311.768 129.142 311.741 129.275 311.741C129.395 311.728 129.495 311.768 129.575 311.861C129.668 311.955 129.715 312.128 129.715 312.381C129.715 312.568 129.682 312.741 129.615 312.901C129.562 313.048 129.448 313.148 129.275 313.201C129.115 313.255 128.902 313.301 128.635 313.341C128.368 313.395 128.128 313.421 127.915 313.421ZM139.978 313.421C139.125 313.421 138.371 313.221 137.718 312.821C137.078 312.408 136.578 311.821 136.218 311.061C135.858 310.288 135.678 309.388 135.678 308.361C135.678 307.321 135.851 306.428 136.198 305.681C136.558 304.921 137.058 304.341 137.698 303.941C138.351 303.528 139.111 303.321 139.978 303.321C140.845 303.321 141.591 303.541 142.218 303.981C142.845 304.408 143.265 304.981 143.478 305.701H143.258V299.921C143.258 299.615 143.331 299.388 143.478 299.241C143.638 299.081 143.865 299.001 144.158 299.001C144.451 299.001 144.678 299.081 144.838 299.241C144.998 299.388 145.078 299.615 145.078 299.921V312.441C145.078 312.748 144.998 312.981 144.838 313.141C144.678 313.301 144.451 313.381 144.158 313.381C143.878 313.381 143.658 313.301 143.498 313.141C143.338 312.981 143.258 312.748 143.258 312.441V310.621L143.478 310.981C143.278 311.728 142.858 312.321 142.218 312.761C141.591 313.201 140.845 313.421 139.978 313.421ZM140.398 311.981C140.985 311.981 141.491 311.841 141.918 311.561C142.358 311.281 142.691 310.875 142.918 310.341C143.158 309.808 143.278 309.148 143.278 308.361C143.278 307.188 143.018 306.295 142.498 305.681C141.978 305.068 141.278 304.761 140.398 304.761C139.825 304.761 139.318 304.901 138.878 305.181C138.451 305.448 138.118 305.848 137.878 306.381C137.638 306.915 137.518 307.575 137.518 308.361C137.518 309.535 137.778 310.435 138.298 311.061C138.831 311.675 139.531 311.981 140.398 311.981ZM152.136 313.421C151.176 313.421 150.343 313.215 149.636 312.801C148.929 312.388 148.383 311.801 147.996 311.041C147.609 310.281 147.416 309.388 147.416 308.361C147.416 307.588 147.523 306.895 147.736 306.281C147.963 305.655 148.283 305.121 148.696 304.681C149.109 304.241 149.603 303.908 150.176 303.681C150.763 303.441 151.416 303.321 152.136 303.321C153.096 303.321 153.929 303.528 154.636 303.941C155.343 304.355 155.889 304.941 156.276 305.701C156.663 306.448 156.856 307.335 156.856 308.361C156.856 309.135 156.743 309.835 156.516 310.461C156.303 311.088 155.989 311.621 155.576 312.061C155.163 312.501 154.663 312.841 154.076 313.081C153.503 313.308 152.856 313.421 152.136 313.421ZM152.136 311.981C152.723 311.981 153.229 311.841 153.656 311.561C154.096 311.281 154.429 310.875 154.656 310.341C154.896 309.808 155.016 309.148 155.016 308.361C155.016 307.188 154.756 306.295 154.236 305.681C153.716 305.068 153.016 304.761 152.136 304.761C151.563 304.761 151.056 304.901 150.616 305.181C150.189 305.448 149.856 305.848 149.616 306.381C149.376 306.915 149.256 307.575 149.256 308.361C149.256 309.535 149.516 310.435 150.036 311.061C150.569 311.675 151.269 311.981 152.136 311.981ZM160.088 313.381C159.808 313.381 159.588 313.301 159.428 313.141C159.268 312.981 159.188 312.748 159.188 312.441V304.281C159.188 303.975 159.268 303.748 159.428 303.601C159.588 303.441 159.808 303.361 160.088 303.361C160.368 303.361 160.581 303.441 160.728 303.601C160.888 303.748 160.968 303.975 160.968 304.281V305.921L160.748 305.621C161.028 304.861 161.481 304.288 162.108 303.901C162.748 303.515 163.474 303.321 164.288 303.321C165.074 303.321 165.721 303.461 166.228 303.741C166.734 304.021 167.114 304.448 167.368 305.021C167.621 305.595 167.748 306.321 167.748 307.201V312.441C167.748 312.748 167.668 312.981 167.508 313.141C167.361 313.301 167.141 313.381 166.848 313.381C166.554 313.381 166.328 313.301 166.168 313.141C166.008 312.981 165.928 312.748 165.928 312.441V307.301C165.928 306.435 165.761 305.801 165.428 305.401C165.094 305.001 164.561 304.801 163.828 304.801C162.974 304.801 162.288 305.068 161.768 305.601C161.261 306.121 161.008 306.828 161.008 307.721V312.441C161.008 313.068 160.701 313.381 160.088 313.381ZM175.133 313.421C174.08 313.421 173.173 313.221 172.413 312.821C171.666 312.408 171.086 311.828 170.673 311.081C170.26 310.321 170.053 309.428 170.053 308.401C170.053 307.388 170.253 306.501 170.653 305.741C171.066 304.981 171.626 304.388 172.333 303.961C173.053 303.535 173.873 303.321 174.793 303.321C175.446 303.321 176.033 303.435 176.553 303.661C177.086 303.875 177.54 304.188 177.913 304.601C178.286 305.015 178.566 305.521 178.753 306.121C178.953 306.708 179.053 307.375 179.053 308.121C179.053 308.335 178.986 308.501 178.853 308.621C178.733 308.728 178.553 308.781 178.313 308.781H171.473V307.621H177.853L177.513 307.901C177.513 307.208 177.406 306.621 177.193 306.141C176.993 305.648 176.693 305.275 176.293 305.021C175.906 304.768 175.42 304.641 174.833 304.641C174.193 304.641 173.646 304.795 173.193 305.101C172.74 305.395 172.393 305.815 172.153 306.361C171.913 306.895 171.793 307.515 171.793 308.221V308.341C171.793 309.541 172.08 310.448 172.653 311.061C173.226 311.675 174.053 311.981 175.133 311.981C175.56 311.981 175.993 311.928 176.433 311.821C176.886 311.715 177.32 311.521 177.733 311.241C177.933 311.121 178.113 311.068 178.273 311.081C178.446 311.081 178.586 311.135 178.693 311.241C178.8 311.335 178.866 311.455 178.893 311.601C178.92 311.735 178.9 311.881 178.833 312.041C178.766 312.201 178.64 312.341 178.453 312.461C178.013 312.768 177.486 313.008 176.873 313.181C176.273 313.341 175.693 313.421 175.133 313.421ZM185.536 313.421C184.55 313.421 183.696 313.215 182.976 312.801C182.256 312.375 181.703 311.781 181.316 311.021C180.93 310.248 180.736 309.341 180.736 308.301C180.736 307.528 180.843 306.835 181.056 306.221C181.283 305.608 181.603 305.088 182.016 304.661C182.43 304.221 182.93 303.888 183.516 303.661C184.116 303.435 184.79 303.321 185.536 303.321C186.003 303.321 186.496 303.395 187.016 303.541C187.536 303.688 188.016 303.928 188.456 304.261C188.603 304.368 188.696 304.495 188.736 304.641C188.776 304.775 188.776 304.915 188.736 305.061C188.71 305.208 188.643 305.335 188.536 305.441C188.443 305.535 188.316 305.588 188.156 305.601C188.01 305.615 187.85 305.568 187.676 305.461C187.356 305.221 187.016 305.048 186.656 304.941C186.31 304.835 185.976 304.781 185.656 304.781C185.163 304.781 184.723 304.861 184.336 305.021C183.963 305.181 183.643 305.415 183.376 305.721C183.123 306.015 182.93 306.381 182.796 306.821C182.663 307.248 182.596 307.748 182.596 308.321C182.596 309.455 182.863 310.348 183.396 311.001C183.93 311.641 184.683 311.961 185.656 311.961C185.976 311.961 186.31 311.915 186.656 311.821C187.003 311.715 187.343 311.541 187.676 311.301C187.85 311.195 188.01 311.155 188.156 311.181C188.303 311.195 188.423 311.255 188.516 311.361C188.623 311.455 188.69 311.575 188.716 311.721C188.743 311.855 188.73 311.995 188.676 312.141C188.636 312.288 188.543 312.408 188.396 312.501C187.97 312.821 187.503 313.055 186.996 313.201C186.49 313.348 186.003 313.421 185.536 313.421ZM197.308 313.381C197.015 313.381 196.788 313.301 196.628 313.141C196.468 312.981 196.388 312.748 196.388 312.441V304.901H195.188C194.948 304.901 194.761 304.841 194.628 304.721C194.495 304.588 194.428 304.415 194.428 304.201C194.428 303.975 194.495 303.801 194.628 303.681C194.761 303.561 194.948 303.501 195.188 303.501H196.888L196.388 303.981V303.241C196.388 301.948 196.701 300.968 197.328 300.301C197.968 299.621 198.901 299.228 200.128 299.121L200.748 299.081C200.948 299.055 201.108 299.088 201.228 299.181C201.348 299.261 201.428 299.368 201.468 299.501C201.508 299.635 201.508 299.775 201.468 299.921C201.441 300.055 201.381 300.175 201.288 300.281C201.195 300.388 201.075 300.448 200.928 300.461L200.488 300.481C199.688 300.548 199.108 300.788 198.748 301.201C198.388 301.601 198.208 302.201 198.208 303.001V303.801L197.948 303.501H200.248C200.501 303.501 200.695 303.561 200.828 303.681C200.961 303.801 201.028 303.975 201.028 304.201C201.028 304.415 200.961 304.588 200.828 304.721C200.695 304.841 200.501 304.901 200.248 304.901H198.208V312.441C198.208 313.068 197.908 313.381 197.308 313.381ZM206.105 313.421C205.318 313.421 204.658 313.275 204.125 312.981C203.605 312.688 203.218 312.255 202.965 311.681C202.712 311.108 202.585 310.388 202.585 309.521V304.281C202.585 303.975 202.658 303.748 202.805 303.601C202.965 303.441 203.192 303.361 203.485 303.361C203.778 303.361 204.005 303.441 204.165 303.601C204.325 303.748 204.405 303.975 204.405 304.281V309.521C204.405 310.348 204.572 310.961 204.905 311.361C205.238 311.748 205.765 311.941 206.485 311.941C207.285 311.941 207.932 311.675 208.425 311.141C208.932 310.608 209.185 309.901 209.185 309.021V304.281C209.185 303.975 209.258 303.748 209.405 303.601C209.565 303.441 209.792 303.361 210.085 303.361C210.378 303.361 210.605 303.441 210.765 303.601C210.925 303.748 211.005 303.975 211.005 304.281V312.441C211.005 313.068 210.712 313.381 210.125 313.381C209.832 313.381 209.605 313.301 209.445 313.141C209.298 312.981 209.225 312.748 209.225 312.441V310.701L209.485 311.041C209.218 311.815 208.785 312.408 208.185 312.821C207.598 313.221 206.905 313.421 206.105 313.421ZM217.294 313.421C216.694 313.421 216.087 313.355 215.474 313.221C214.874 313.075 214.307 312.828 213.774 312.481C213.627 312.388 213.52 312.275 213.454 312.141C213.4 311.995 213.38 311.855 213.394 311.721C213.42 311.575 213.48 311.448 213.574 311.341C213.667 311.235 213.78 311.175 213.914 311.161C214.06 311.135 214.214 311.168 214.374 311.261C214.894 311.555 215.394 311.761 215.874 311.881C216.367 312.001 216.854 312.061 217.334 312.061C218.067 312.061 218.62 311.928 218.994 311.661C219.367 311.395 219.554 311.041 219.554 310.601C219.554 310.228 219.427 309.941 219.174 309.741C218.934 309.528 218.554 309.368 218.034 309.261L216.174 308.881C215.347 308.695 214.72 308.388 214.294 307.961C213.88 307.521 213.674 306.961 213.674 306.281C213.674 305.681 213.834 305.161 214.154 304.721C214.487 304.268 214.947 303.921 215.534 303.681C216.12 303.441 216.794 303.321 217.554 303.321C218.14 303.321 218.694 303.401 219.214 303.561C219.747 303.708 220.227 303.935 220.654 304.241C220.814 304.335 220.914 304.455 220.954 304.601C221.007 304.735 221.014 304.875 220.974 305.021C220.947 305.155 220.887 305.268 220.794 305.361C220.7 305.455 220.58 305.515 220.434 305.541C220.287 305.555 220.127 305.515 219.954 305.421C219.567 305.155 219.167 304.968 218.754 304.861C218.354 304.741 217.954 304.681 217.554 304.681C216.834 304.681 216.287 304.821 215.914 305.101C215.554 305.381 215.374 305.748 215.374 306.201C215.374 306.548 215.48 306.835 215.694 307.061C215.92 307.288 216.274 307.455 216.754 307.561L218.614 307.941C219.48 308.128 220.134 308.428 220.574 308.841C221.014 309.241 221.234 309.788 221.234 310.481C221.234 311.388 220.874 312.108 220.154 312.641C219.447 313.161 218.494 313.421 217.294 313.421ZM227.822 313.421C226.835 313.421 225.982 313.215 225.262 312.801C224.542 312.375 223.988 311.781 223.602 311.021C223.215 310.248 223.022 309.341 223.022 308.301C223.022 307.528 223.128 306.835 223.342 306.221C223.568 305.608 223.888 305.088 224.302 304.661C224.715 304.221 225.215 303.888 225.802 303.661C226.402 303.435 227.075 303.321 227.822 303.321C228.288 303.321 228.782 303.395 229.302 303.541C229.822 303.688 230.302 303.928 230.742 304.261C230.888 304.368 230.982 304.495 231.022 304.641C231.062 304.775 231.062 304.915 231.022 305.061C230.995 305.208 230.928 305.335 230.822 305.441C230.728 305.535 230.602 305.588 230.442 305.601C230.295 305.615 230.135 305.568 229.962 305.461C229.642 305.221 229.302 305.048 228.942 304.941C228.595 304.835 228.262 304.781 227.942 304.781C227.448 304.781 227.008 304.861 226.622 305.021C226.248 305.181 225.928 305.415 225.662 305.721C225.408 306.015 225.215 306.381 225.082 306.821C224.948 307.248 224.882 307.748 224.882 308.321C224.882 309.455 225.148 310.348 225.682 311.001C226.215 311.641 226.968 311.961 227.942 311.961C228.262 311.961 228.595 311.915 228.942 311.821C229.288 311.715 229.628 311.541 229.962 311.301C230.135 311.195 230.295 311.155 230.442 311.181C230.588 311.195 230.708 311.255 230.802 311.361C230.908 311.455 230.975 311.575 231.002 311.721C231.028 311.855 231.015 311.995 230.962 312.141C230.922 312.288 230.828 312.408 230.682 312.501C230.255 312.821 229.788 313.055 229.282 313.201C228.775 313.348 228.288 313.421 227.822 313.421ZM237.203 313.421C236.15 313.421 235.243 313.221 234.483 312.821C233.736 312.408 233.156 311.828 232.743 311.081C232.33 310.321 232.123 309.428 232.123 308.401C232.123 307.388 232.323 306.501 232.723 305.741C233.136 304.981 233.696 304.388 234.403 303.961C235.123 303.535 235.943 303.321 236.863 303.321C237.516 303.321 238.103 303.435 238.623 303.661C239.156 303.875 239.61 304.188 239.983 304.601C240.356 305.015 240.636 305.521 240.823 306.121C241.023 306.708 241.123 307.375 241.123 308.121C241.123 308.335 241.056 308.501 240.923 308.621C240.803 308.728 240.623 308.781 240.383 308.781H233.543V307.621H239.923L239.583 307.901C239.583 307.208 239.476 306.621 239.263 306.141C239.063 305.648 238.763 305.275 238.363 305.021C237.976 304.768 237.49 304.641 236.903 304.641C236.263 304.641 235.716 304.795 235.263 305.101C234.81 305.395 234.463 305.815 234.223 306.361C233.983 306.895 233.863 307.515 233.863 308.221V308.341C233.863 309.541 234.15 310.448 234.723 311.061C235.296 311.675 236.123 311.981 237.203 311.981C237.63 311.981 238.063 311.928 238.503 311.821C238.956 311.715 239.39 311.521 239.803 311.241C240.003 311.121 240.183 311.068 240.343 311.081C240.516 311.081 240.656 311.135 240.763 311.241C240.87 311.335 240.936 311.455 240.963 311.601C240.99 311.735 240.97 311.881 240.903 312.041C240.836 312.201 240.71 312.341 240.523 312.461C240.083 312.768 239.556 313.008 238.943 313.181C238.343 313.341 237.763 313.421 237.203 313.421ZM251.702 313.421C251.035 313.421 250.428 313.288 249.882 313.021C249.348 312.755 248.928 312.395 248.622 311.941C248.328 311.488 248.182 310.981 248.182 310.421C248.182 309.701 248.362 309.135 248.722 308.721C249.082 308.308 249.688 308.015 250.542 307.841C251.395 307.655 252.542 307.561 253.982 307.561H254.922V308.721H254.022C252.995 308.721 252.182 308.768 251.582 308.861C250.995 308.955 250.582 309.121 250.342 309.361C250.102 309.588 249.982 309.908 249.982 310.321C249.982 310.841 250.162 311.268 250.522 311.601C250.895 311.935 251.402 312.101 252.042 312.101C252.548 312.101 252.995 311.981 253.382 311.741C253.768 311.488 254.075 311.155 254.302 310.741C254.528 310.315 254.642 309.828 254.642 309.281V306.981C254.642 306.195 254.482 305.628 254.162 305.281C253.842 304.921 253.302 304.741 252.542 304.741C252.102 304.741 251.648 304.801 251.182 304.921C250.715 305.041 250.228 305.228 249.722 305.481C249.522 305.575 249.348 305.608 249.202 305.581C249.055 305.541 248.935 305.461 248.842 305.341C248.762 305.208 248.715 305.068 248.702 304.921C248.702 304.761 248.735 304.608 248.802 304.461C248.882 304.315 249.015 304.208 249.202 304.141C249.788 303.848 250.368 303.641 250.942 303.521C251.528 303.388 252.075 303.321 252.582 303.321C253.448 303.321 254.162 303.461 254.722 303.741C255.282 304.008 255.702 304.428 255.982 305.001C256.262 305.561 256.402 306.281 256.402 307.161V312.441C256.402 312.748 256.328 312.981 256.182 313.141C256.035 313.301 255.822 313.381 255.542 313.381C255.275 313.381 255.062 313.301 254.902 313.141C254.755 312.981 254.682 312.748 254.682 312.441V311.021H254.862C254.755 311.515 254.555 311.941 254.262 312.301C253.968 312.661 253.602 312.941 253.162 313.141C252.735 313.328 252.248 313.421 251.702 313.421ZM263.486 313.421C262.499 313.421 261.646 313.215 260.926 312.801C260.206 312.375 259.652 311.781 259.266 311.021C258.879 310.248 258.686 309.341 258.686 308.301C258.686 307.528 258.792 306.835 259.006 306.221C259.232 305.608 259.552 305.088 259.966 304.661C260.379 304.221 260.879 303.888 261.466 303.661C262.066 303.435 262.739 303.321 263.486 303.321C263.952 303.321 264.446 303.395 264.966 303.541C265.486 303.688 265.966 303.928 266.406 304.261C266.552 304.368 266.646 304.495 266.686 304.641C266.726 304.775 266.726 304.915 266.686 305.061C266.659 305.208 266.592 305.335 266.486 305.441C266.392 305.535 266.266 305.588 266.106 305.601C265.959 305.615 265.799 305.568 265.626 305.461C265.306 305.221 264.966 305.048 264.606 304.941C264.259 304.835 263.926 304.781 263.606 304.781C263.112 304.781 262.672 304.861 262.286 305.021C261.912 305.181 261.592 305.415 261.326 305.721C261.072 306.015 260.879 306.381 260.746 306.821C260.612 307.248 260.546 307.748 260.546 308.321C260.546 309.455 260.812 310.348 261.346 311.001C261.879 311.641 262.632 311.961 263.606 311.961C263.926 311.961 264.259 311.915 264.606 311.821C264.952 311.715 265.292 311.541 265.626 311.301C265.799 311.195 265.959 311.155 266.106 311.181C266.252 311.195 266.372 311.255 266.466 311.361C266.572 311.455 266.639 311.575 266.666 311.721C266.692 311.855 266.679 311.995 266.626 312.141C266.586 312.288 266.492 312.408 266.346 312.501C265.919 312.821 265.452 313.055 264.946 313.201C264.439 313.348 263.952 313.421 263.486 313.421ZM277.917 313.421C276.957 313.421 276.124 313.215 275.417 312.801C274.711 312.388 274.164 311.801 273.777 311.041C273.391 310.281 273.197 309.388 273.197 308.361C273.197 307.588 273.304 306.895 273.517 306.281C273.744 305.655 274.064 305.121 274.477 304.681C274.891 304.241 275.384 303.908 275.957 303.681C276.544 303.441 277.197 303.321 277.917 303.321C278.877 303.321 279.711 303.528 280.417 303.941C281.124 304.355 281.671 304.941 282.057 305.701C282.444 306.448 282.637 307.335 282.637 308.361C282.637 309.135 282.524 309.835 282.297 310.461C282.084 311.088 281.771 311.621 281.357 312.061C280.944 312.501 280.444 312.841 279.857 313.081C279.284 313.308 278.637 313.421 277.917 313.421ZM277.917 311.981C278.504 311.981 279.011 311.841 279.437 311.561C279.877 311.281 280.211 310.875 280.437 310.341C280.677 309.808 280.797 309.148 280.797 308.361C280.797 307.188 280.537 306.295 280.017 305.681C279.497 305.068 278.797 304.761 277.917 304.761C277.344 304.761 276.837 304.901 276.397 305.181C275.971 305.448 275.637 305.848 275.397 306.381C275.157 306.915 275.037 307.575 275.037 308.361C275.037 309.535 275.297 310.435 275.817 311.061C276.351 311.675 277.051 311.981 277.917 311.981ZM285.909 313.381C285.602 313.381 285.369 313.301 285.209 313.141C285.049 312.981 284.969 312.748 284.969 312.441V304.281C284.969 303.975 285.049 303.748 285.209 303.601C285.369 303.441 285.589 303.361 285.869 303.361C286.149 303.361 286.362 303.441 286.509 303.601C286.669 303.748 286.749 303.975 286.749 304.281V305.821H286.549C286.762 305.021 287.162 304.415 287.749 304.001C288.335 303.588 289.075 303.355 289.969 303.301C290.182 303.288 290.355 303.341 290.489 303.461C290.622 303.568 290.695 303.755 290.709 304.021C290.722 304.275 290.662 304.481 290.529 304.641C290.395 304.788 290.189 304.875 289.909 304.901L289.549 304.921C288.669 305.015 287.989 305.301 287.509 305.781C287.042 306.261 286.809 306.921 286.809 307.761V312.441C286.809 312.748 286.729 312.981 286.569 313.141C286.422 313.301 286.202 313.381 285.909 313.381ZM296.637 313.421C295.583 313.421 294.677 313.221 293.917 312.821C293.17 312.408 292.59 311.828 292.177 311.081C291.763 310.321 291.557 309.428 291.557 308.401C291.557 307.388 291.757 306.501 292.157 305.741C292.57 304.981 293.13 304.388 293.837 303.961C294.557 303.535 295.377 303.321 296.297 303.321C296.95 303.321 297.537 303.435 298.057 303.661C298.59 303.875 299.043 304.188 299.417 304.601C299.79 305.015 300.07 305.521 300.257 306.121C300.457 306.708 300.557 307.375 300.557 308.121C300.557 308.335 300.49 308.501 300.357 308.621C300.237 308.728 300.057 308.781 299.817 308.781H292.977V307.621H299.357L299.017 307.901C299.017 307.208 298.91 306.621 298.697 306.141C298.497 305.648 298.197 305.275 297.797 305.021C297.41 304.768 296.923 304.641 296.337 304.641C295.697 304.641 295.15 304.795 294.697 305.101C294.243 305.395 293.897 305.815 293.657 306.361C293.417 306.895 293.297 307.515 293.297 308.221V308.341C293.297 309.541 293.583 310.448 294.157 311.061C294.73 311.675 295.557 311.981 296.637 311.981C297.063 311.981 297.497 311.928 297.937 311.821C298.39 311.715 298.823 311.521 299.237 311.241C299.437 311.121 299.617 311.068 299.777 311.081C299.95 311.081 300.09 311.135 300.197 311.241C300.303 311.335 300.37 311.455 300.397 311.601C300.423 311.735 300.403 311.881 300.337 312.041C300.27 312.201 300.143 312.341 299.957 312.461C299.517 312.768 298.99 313.008 298.377 313.181C297.777 313.341 297.197 313.421 296.637 313.421ZM312.255 313.421C311.269 313.421 310.415 313.215 309.695 312.801C308.975 312.375 308.422 311.781 308.035 311.021C307.649 310.248 307.455 309.341 307.455 308.301C307.455 307.528 307.562 306.835 307.775 306.221C308.002 305.608 308.322 305.088 308.735 304.661C309.149 304.221 309.649 303.888 310.235 303.661C310.835 303.435 311.509 303.321 312.255 303.321C312.722 303.321 313.215 303.395 313.735 303.541C314.255 303.688 314.735 303.928 315.175 304.261C315.322 304.368 315.415 304.495 315.455 304.641C315.495 304.775 315.495 304.915 315.455 305.061C315.429 305.208 315.362 305.335 315.255 305.441C315.162 305.535 315.035 305.588 314.875 305.601C314.729 305.615 314.569 305.568 314.395 305.461C314.075 305.221 313.735 305.048 313.375 304.941C313.029 304.835 312.695 304.781 312.375 304.781C311.882 304.781 311.442 304.861 311.055 305.021C310.682 305.181 310.362 305.415 310.095 305.721C309.842 306.015 309.649 306.381 309.515 306.821C309.382 307.248 309.315 307.748 309.315 308.321C309.315 309.455 309.582 310.348 310.115 311.001C310.649 311.641 311.402 311.961 312.375 311.961C312.695 311.961 313.029 311.915 313.375 311.821C313.722 311.715 314.062 311.541 314.395 311.301C314.569 311.195 314.729 311.155 314.875 311.181C315.022 311.195 315.142 311.255 315.235 311.361C315.342 311.455 315.409 311.575 315.435 311.721C315.462 311.855 315.449 311.995 315.395 312.141C315.355 312.288 315.262 312.408 315.115 312.501C314.689 312.821 314.222 313.055 313.715 313.201C313.209 313.348 312.722 313.421 312.255 313.421ZM321.277 313.421C320.317 313.421 319.483 313.215 318.777 312.801C318.07 312.388 317.523 311.801 317.137 311.041C316.75 310.281 316.557 309.388 316.557 308.361C316.557 307.588 316.663 306.895 316.877 306.281C317.103 305.655 317.423 305.121 317.837 304.681C318.25 304.241 318.743 303.908 319.317 303.681C319.903 303.441 320.557 303.321 321.277 303.321C322.237 303.321 323.07 303.528 323.777 303.941C324.483 304.355 325.03 304.941 325.417 305.701C325.803 306.448 325.997 307.335 325.997 308.361C325.997 309.135 325.883 309.835 325.657 310.461C325.443 311.088 325.13 311.621 324.717 312.061C324.303 312.501 323.803 312.841 323.217 313.081C322.643 313.308 321.997 313.421 321.277 313.421ZM321.277 311.981C321.863 311.981 322.37 311.841 322.797 311.561C323.237 311.281 323.57 310.875 323.797 310.341C324.037 309.808 324.157 309.148 324.157 308.361C324.157 307.188 323.897 306.295 323.377 305.681C322.857 305.068 322.157 304.761 321.277 304.761C320.703 304.761 320.197 304.901 319.757 305.181C319.33 305.448 318.997 305.848 318.757 306.381C318.517 306.915 318.397 307.575 318.397 308.361C318.397 309.535 318.657 310.435 319.177 311.061C319.71 311.675 320.41 311.981 321.277 311.981ZM329.228 313.381C328.948 313.381 328.728 313.301 328.568 313.141C328.408 312.981 328.328 312.748 328.328 312.441V304.281C328.328 303.975 328.408 303.748 328.568 303.601C328.728 303.441 328.948 303.361 329.228 303.361C329.508 303.361 329.721 303.441 329.868 303.601C330.028 303.748 330.108 303.975 330.108 304.281V305.921L329.888 305.621C330.168 304.861 330.621 304.288 331.248 303.901C331.888 303.515 332.615 303.321 333.428 303.321C334.215 303.321 334.861 303.461 335.368 303.741C335.875 304.021 336.255 304.448 336.508 305.021C336.761 305.595 336.888 306.321 336.888 307.201V312.441C336.888 312.748 336.808 312.981 336.648 313.141C336.501 313.301 336.281 313.381 335.988 313.381C335.695 313.381 335.468 313.301 335.308 313.141C335.148 312.981 335.068 312.748 335.068 312.441V307.301C335.068 306.435 334.901 305.801 334.568 305.401C334.235 305.001 333.701 304.801 332.968 304.801C332.115 304.801 331.428 305.068 330.908 305.601C330.401 306.121 330.148 306.828 330.148 307.721V312.441C330.148 313.068 329.841 313.381 329.228 313.381ZM343.376 313.381C343.122 313.381 342.902 313.315 342.716 313.181C342.529 313.048 342.369 312.835 342.236 312.541L338.836 304.621C338.742 304.395 338.709 304.188 338.736 304.001C338.762 303.815 338.849 303.661 338.996 303.541C339.156 303.421 339.369 303.361 339.636 303.361C339.862 303.361 340.042 303.415 340.176 303.521C340.309 303.628 340.436 303.815 340.556 304.081L343.696 311.821H343.136L346.356 304.081C346.462 303.815 346.582 303.628 346.716 303.521C346.862 303.415 347.062 303.361 347.316 303.361C347.542 303.361 347.716 303.421 347.836 303.541C347.969 303.661 348.049 303.815 348.076 304.001C348.102 304.188 348.062 304.388 347.956 304.601L344.536 312.541C344.416 312.835 344.256 313.048 344.056 313.181C343.869 313.315 343.642 313.381 343.376 313.381ZM352.932 313.421C352.265 313.421 351.659 313.288 351.112 313.021C350.579 312.755 350.159 312.395 349.852 311.941C349.559 311.488 349.412 310.981 349.412 310.421C349.412 309.701 349.592 309.135 349.952 308.721C350.312 308.308 350.919 308.015 351.772 307.841C352.625 307.655 353.772 307.561 355.212 307.561H356.152V308.721H355.252C354.225 308.721 353.412 308.768 352.812 308.861C352.225 308.955 351.812 309.121 351.572 309.361C351.332 309.588 351.212 309.908 351.212 310.321C351.212 310.841 351.392 311.268 351.752 311.601C352.125 311.935 352.632 312.101 353.272 312.101C353.779 312.101 354.225 311.981 354.612 311.741C354.999 311.488 355.305 311.155 355.532 310.741C355.759 310.315 355.872 309.828 355.872 309.281V306.981C355.872 306.195 355.712 305.628 355.392 305.281C355.072 304.921 354.532 304.741 353.772 304.741C353.332 304.741 352.879 304.801 352.412 304.921C351.945 305.041 351.459 305.228 350.952 305.481C350.752 305.575 350.579 305.608 350.432 305.581C350.285 305.541 350.165 305.461 350.072 305.341C349.992 305.208 349.945 305.068 349.932 304.921C349.932 304.761 349.965 304.608 350.032 304.461C350.112 304.315 350.245 304.208 350.432 304.141C351.019 303.848 351.599 303.641 352.172 303.521C352.759 303.388 353.305 303.321 353.812 303.321C354.679 303.321 355.392 303.461 355.952 303.741C356.512 304.008 356.932 304.428 357.212 305.001C357.492 305.561 357.632 306.281 357.632 307.161V312.441C357.632 312.748 357.559 312.981 357.412 313.141C357.265 313.301 357.052 313.381 356.772 313.381C356.505 313.381 356.292 313.301 356.132 313.141C355.985 312.981 355.912 312.748 355.912 312.441V311.021H356.092C355.985 311.515 355.785 311.941 355.492 312.301C355.199 312.661 354.832 312.941 354.392 313.141C353.965 313.328 353.479 313.421 352.932 313.421ZM363.556 313.421C362.556 313.421 361.796 313.128 361.276 312.541C360.756 311.941 360.496 311.081 360.496 309.961V299.921C360.496 299.615 360.576 299.388 360.736 299.241C360.896 299.081 361.116 299.001 361.396 299.001C361.689 299.001 361.916 299.081 362.076 299.241C362.236 299.388 362.316 299.615 362.316 299.921V309.821C362.316 310.515 362.456 311.035 362.736 311.381C363.029 311.715 363.443 311.881 363.976 311.881C364.096 311.881 364.203 311.881 364.296 311.881C364.389 311.868 364.483 311.855 364.576 311.841C364.723 311.828 364.829 311.868 364.896 311.961C364.963 312.055 364.996 312.241 364.996 312.521C364.996 312.775 364.936 312.975 364.816 313.121C364.709 313.255 364.529 313.341 364.276 313.381C364.156 313.395 364.036 313.401 363.916 313.401C363.796 313.415 363.676 313.421 363.556 313.421ZM369.572 313.421C368.572 313.421 367.812 313.128 367.292 312.541C366.772 311.941 366.512 311.081 366.512 309.961V299.921C366.512 299.615 366.592 299.388 366.752 299.241C366.912 299.081 367.132 299.001 367.412 299.001C367.705 299.001 367.932 299.081 368.092 299.241C368.252 299.388 368.332 299.615 368.332 299.921V309.821C368.332 310.515 368.472 311.035 368.752 311.381C369.045 311.715 369.458 311.881 369.992 311.881C370.112 311.881 370.218 311.881 370.312 311.881C370.405 311.868 370.498 311.855 370.592 311.841C370.738 311.828 370.845 311.868 370.912 311.961C370.978 312.055 371.012 312.241 371.012 312.521C371.012 312.775 370.952 312.975 370.832 313.121C370.725 313.255 370.545 313.341 370.292 313.381C370.172 313.395 370.052 313.401 369.932 313.401C369.812 313.415 369.692 313.421 369.572 313.421ZM373.427 313.341C373.147 313.341 372.927 313.255 372.767 313.081C372.607 312.908 372.527 312.668 372.527 312.361V304.381C372.527 304.061 372.607 303.821 372.767 303.661C372.927 303.488 373.147 303.401 373.427 303.401C373.721 303.401 373.947 303.488 374.107 303.661C374.267 303.821 374.347 304.061 374.347 304.381V312.361C374.347 312.668 374.267 312.908 374.107 313.081C373.961 313.255 373.734 313.341 373.427 313.341ZM373.427 301.241C373.067 301.241 372.781 301.148 372.567 300.961C372.367 300.761 372.267 300.501 372.267 300.181C372.267 299.835 372.367 299.575 372.567 299.401C372.781 299.215 373.067 299.121 373.427 299.121C373.814 299.121 374.101 299.215 374.287 299.401C374.487 299.575 374.587 299.835 374.587 300.181C374.587 300.501 374.487 300.761 374.287 300.961C374.101 301.148 373.814 301.241 373.427 301.241ZM380.633 313.421C380.033 313.421 379.427 313.355 378.813 313.221C378.213 313.075 377.647 312.828 377.113 312.481C376.967 312.388 376.86 312.275 376.793 312.141C376.74 311.995 376.72 311.855 376.733 311.721C376.76 311.575 376.82 311.448 376.913 311.341C377.007 311.235 377.12 311.175 377.253 311.161C377.4 311.135 377.553 311.168 377.713 311.261C378.233 311.555 378.733 311.761 379.213 311.881C379.707 312.001 380.193 312.061 380.673 312.061C381.407 312.061 381.96 311.928 382.333 311.661C382.707 311.395 382.893 311.041 382.893 310.601C382.893 310.228 382.767 309.941 382.513 309.741C382.273 309.528 381.893 309.368 381.373 309.261L379.513 308.881C378.687 308.695 378.06 308.388 377.633 307.961C377.22 307.521 377.013 306.961 377.013 306.281C377.013 305.681 377.173 305.161 377.493 304.721C377.827 304.268 378.287 303.921 378.873 303.681C379.46 303.441 380.133 303.321 380.893 303.321C381.48 303.321 382.033 303.401 382.553 303.561C383.087 303.708 383.567 303.935 383.993 304.241C384.153 304.335 384.253 304.455 384.293 304.601C384.347 304.735 384.353 304.875 384.313 305.021C384.287 305.155 384.227 305.268 384.133 305.361C384.04 305.455 383.92 305.515 383.773 305.541C383.627 305.555 383.467 305.515 383.293 305.421C382.907 305.155 382.507 304.968 382.093 304.861C381.693 304.741 381.293 304.681 380.893 304.681C380.173 304.681 379.627 304.821 379.253 305.101C378.893 305.381 378.713 305.748 378.713 306.201C378.713 306.548 378.82 306.835 379.033 307.061C379.26 307.288 379.613 307.455 380.093 307.561L381.953 307.941C382.82 308.128 383.473 308.428 383.913 308.841C384.353 309.241 384.573 309.788 384.573 310.481C384.573 311.388 384.213 312.108 383.493 312.641C382.787 313.161 381.833 313.421 380.633 313.421ZM48.3121 343.421C47.5254 343.421 46.8654 343.275 46.3321 342.981C45.8121 342.688 45.4254 342.255 45.1721 341.681C44.9187 341.108 44.7921 340.388 44.7921 339.521V334.281C44.7921 333.975 44.8654 333.748 45.0121 333.601C45.1721 333.441 45.3987 333.361 45.6921 333.361C45.9854 333.361 46.2121 333.441 46.3721 333.601C46.5321 333.748 46.6121 333.975 46.6121 334.281V339.521C46.6121 340.348 46.7787 340.961 47.1121 341.361C47.4454 341.748 47.9721 341.941 48.6921 341.941C49.4921 341.941 50.1387 341.675 50.6321 341.141C51.1387 340.608 51.3921 339.901 51.3921 339.021V334.281C51.3921 333.975 51.4654 333.748 51.6121 333.601C51.7721 333.441 51.9987 333.361 52.2921 333.361C52.5854 333.361 52.8121 333.441 52.9721 333.601C53.1321 333.748 53.2121 333.975 53.2121 334.281V342.441C53.2121 343.068 52.9187 343.381 52.3321 343.381C52.0387 343.381 51.8121 343.301 51.6521 343.141C51.5054 342.981 51.4321 342.748 51.4321 342.441V340.701L51.6921 341.041C51.4254 341.815 50.9921 342.408 50.3921 342.821C49.8054 343.221 49.1121 343.421 48.3121 343.421ZM57.0807 343.381C56.774 343.381 56.5407 343.301 56.3807 343.141C56.2207 342.981 56.1407 342.748 56.1407 342.441V334.281C56.1407 333.975 56.2207 333.748 56.3807 333.601C56.5407 333.441 56.7607 333.361 57.0407 333.361C57.3207 333.361 57.534 333.441 57.6807 333.601C57.8407 333.748 57.9207 333.975 57.9207 334.281V335.821H57.7207C57.934 335.021 58.334 334.415 58.9207 334.001C59.5073 333.588 60.2473 333.355 61.1407 333.301C61.354 333.288 61.5273 333.341 61.6607 333.461C61.794 333.568 61.8673 333.755 61.8807 334.021C61.894 334.275 61.834 334.481 61.7007 334.641C61.5673 334.788 61.3607 334.875 61.0807 334.901L60.7207 334.921C59.8407 335.015 59.1607 335.301 58.6807 335.781C58.214 336.261 57.9807 336.921 57.9807 337.761V342.441C57.9807 342.748 57.9007 342.981 57.7407 343.141C57.594 343.301 57.374 343.381 57.0807 343.381ZM64.3454 343.381C64.0654 343.381 63.8454 343.301 63.6854 343.141C63.5254 342.981 63.4454 342.748 63.4454 342.441V334.281C63.4454 333.975 63.5254 333.748 63.6854 333.601C63.8454 333.441 64.0654 333.361 64.3454 333.361C64.6254 333.361 64.8387 333.441 64.9854 333.601C65.1454 333.748 65.2254 333.975 65.2254 334.281V335.921L65.0054 335.621C65.2854 334.861 65.7387 334.288 66.3654 333.901C67.0054 333.515 67.732 333.321 68.5454 333.321C69.332 333.321 69.9787 333.461 70.4854 333.741C70.992 334.021 71.372 334.448 71.6254 335.021C71.8787 335.595 72.0054 336.321 72.0054 337.201V342.441C72.0054 342.748 71.9254 342.981 71.7654 343.141C71.6187 343.301 71.3987 343.381 71.1054 343.381C70.812 343.381 70.5854 343.301 70.4254 343.141C70.2654 342.981 70.1854 342.748 70.1854 342.441V337.301C70.1854 336.435 70.0187 335.801 69.6854 335.401C69.352 335.001 68.8187 334.801 68.0854 334.801C67.232 334.801 66.5454 335.068 66.0254 335.601C65.5187 336.121 65.2654 336.828 65.2654 337.721V342.441C65.2654 343.068 64.9587 343.381 64.3454 343.381ZM77.9907 343.421C77.324 343.421 76.7173 343.288 76.1707 343.021C75.6373 342.755 75.2173 342.395 74.9107 341.941C74.6173 341.488 74.4707 340.981 74.4707 340.421C74.4707 339.701 74.6507 339.135 75.0107 338.721C75.3707 338.308 75.9773 338.015 76.8307 337.841C77.684 337.655 78.8307 337.561 80.2707 337.561H81.2107V338.721H80.3107C79.284 338.721 78.4707 338.768 77.8707 338.861C77.284 338.955 76.8707 339.121 76.6307 339.361C76.3907 339.588 76.2707 339.908 76.2707 340.321C76.2707 340.841 76.4507 341.268 76.8107 341.601C77.184 341.935 77.6907 342.101 78.3307 342.101C78.8373 342.101 79.284 341.981 79.6707 341.741C80.0573 341.488 80.364 341.155 80.5907 340.741C80.8173 340.315 80.9307 339.828 80.9307 339.281V336.981C80.9307 336.195 80.7707 335.628 80.4507 335.281C80.1307 334.921 79.5907 334.741 78.8307 334.741C78.3907 334.741 77.9373 334.801 77.4707 334.921C77.004 335.041 76.5173 335.228 76.0107 335.481C75.8107 335.575 75.6373 335.608 75.4907 335.581C75.344 335.541 75.224 335.461 75.1307 335.341C75.0507 335.208 75.004 335.068 74.9907 334.921C74.9907 334.761 75.024 334.608 75.0907 334.461C75.1707 334.315 75.304 334.208 75.4907 334.141C76.0773 333.848 76.6573 333.641 77.2307 333.521C77.8173 333.388 78.364 333.321 78.8707 333.321C79.7373 333.321 80.4507 333.461 81.0107 333.741C81.5707 334.008 81.9907 334.428 82.2707 335.001C82.5507 335.561 82.6907 336.281 82.6907 337.161V342.441C82.6907 342.748 82.6173 342.981 82.4707 343.141C82.324 343.301 82.1107 343.381 81.8307 343.381C81.564 343.381 81.3507 343.301 81.1907 343.141C81.044 342.981 80.9707 342.748 80.9707 342.441V341.021H81.1507C81.044 341.515 80.844 341.941 80.5507 342.301C80.2573 342.661 79.8907 342.941 79.4507 343.141C79.024 343.328 78.5373 343.421 77.9907 343.421ZM94.9096 343.421C93.9496 343.421 93.1162 343.215 92.4096 342.801C91.7029 342.388 91.1562 341.801 90.7696 341.041C90.3829 340.281 90.1896 339.388 90.1896 338.361C90.1896 337.588 90.2962 336.895 90.5096 336.281C90.7362 335.655 91.0562 335.121 91.4696 334.681C91.8829 334.241 92.3762 333.908 92.9496 333.681C93.5362 333.441 94.1896 333.321 94.9096 333.321C95.8696 333.321 96.7029 333.528 97.4096 333.941C98.1162 334.355 98.6629 334.941 99.0496 335.701C99.4362 336.448 99.6296 337.335 99.6296 338.361C99.6296 339.135 99.5162 339.835 99.2896 340.461C99.0762 341.088 98.7629 341.621 98.3496 342.061C97.9362 342.501 97.4362 342.841 96.8496 343.081C96.2762 343.308 95.6296 343.421 94.9096 343.421ZM94.9096 341.981C95.4962 341.981 96.0029 341.841 96.4296 341.561C96.8696 341.281 97.2029 340.875 97.4296 340.341C97.6696 339.808 97.7896 339.148 97.7896 338.361C97.7896 337.188 97.5296 336.295 97.0096 335.681C96.4896 335.068 95.7896 334.761 94.9096 334.761C94.3362 334.761 93.8296 334.901 93.3896 335.181C92.9629 335.448 92.6296 335.848 92.3896 336.381C92.1496 336.915 92.0296 337.575 92.0296 338.361C92.0296 339.535 92.2896 340.435 92.8096 341.061C93.3429 341.675 94.0429 341.981 94.9096 341.981ZM102.901 343.381C102.594 343.381 102.361 343.301 102.201 343.141C102.041 342.981 101.961 342.748 101.961 342.441V334.281C101.961 333.975 102.041 333.748 102.201 333.601C102.361 333.441 102.581 333.361 102.861 333.361C103.141 333.361 103.354 333.441 103.501 333.601C103.661 333.748 103.741 333.975 103.741 334.281V335.821H103.541C103.754 335.021 104.154 334.415 104.741 334.001C105.328 333.588 106.068 333.355 106.961 333.301C107.174 333.288 107.348 333.341 107.481 333.461C107.614 333.568 107.688 333.755 107.701 334.021C107.714 334.275 107.654 334.481 107.521 334.641C107.388 334.788 107.181 334.875 106.901 334.901L106.541 334.921C105.661 335.015 104.981 335.301 104.501 335.781C104.034 336.261 103.801 336.921 103.801 337.761V342.441C103.801 342.748 103.721 342.981 103.561 343.141C103.414 343.301 103.194 343.381 102.901 343.381ZM113.629 343.421C112.576 343.421 111.669 343.221 110.909 342.821C110.162 342.408 109.582 341.828 109.169 341.081C108.756 340.321 108.549 339.428 108.549 338.401C108.549 337.388 108.749 336.501 109.149 335.741C109.562 334.981 110.122 334.388 110.829 333.961C111.549 333.535 112.369 333.321 113.289 333.321C113.942 333.321 114.529 333.435 115.049 333.661C115.582 333.875 116.036 334.188 116.409 334.601C116.782 335.015 117.062 335.521 117.249 336.121C117.449 336.708 117.549 337.375 117.549 338.121C117.549 338.335 117.482 338.501 117.349 338.621C117.229 338.728 117.049 338.781 116.809 338.781H109.969V337.621H116.349L116.009 337.901C116.009 337.208 115.902 336.621 115.689 336.141C115.489 335.648 115.189 335.275 114.789 335.021C114.402 334.768 113.916 334.641 113.329 334.641C112.689 334.641 112.142 334.795 111.689 335.101C111.236 335.395 110.889 335.815 110.649 336.361C110.409 336.895 110.289 337.515 110.289 338.221V338.341C110.289 339.541 110.576 340.448 111.149 341.061C111.722 341.675 112.549 341.981 113.629 341.981C114.056 341.981 114.489 341.928 114.929 341.821C115.382 341.715 115.816 341.521 116.229 341.241C116.429 341.121 116.609 341.068 116.769 341.081C116.942 341.081 117.082 341.135 117.189 341.241C117.296 341.335 117.362 341.455 117.389 341.601C117.416 341.735 117.396 341.881 117.329 342.041C117.262 342.201 117.136 342.341 116.949 342.461C116.509 342.768 115.982 343.008 115.369 343.181C114.769 343.341 114.189 343.421 113.629 343.421ZM120.753 343.381C120.473 343.381 120.253 343.301 120.093 343.141C119.933 342.981 119.853 342.748 119.853 342.441V334.281C119.853 333.975 119.933 333.748 120.093 333.601C120.253 333.441 120.473 333.361 120.753 333.361C121.033 333.361 121.246 333.441 121.393 333.601C121.553 333.748 121.633 333.975 121.633 334.281V335.981L121.413 335.621C121.666 334.888 122.073 334.321 122.633 333.921C123.206 333.521 123.886 333.321 124.673 333.321C125.499 333.321 126.166 333.521 126.673 333.921C127.179 334.308 127.519 334.901 127.693 335.701H127.413C127.653 334.968 128.079 334.388 128.693 333.961C129.319 333.535 130.046 333.321 130.873 333.321C131.606 333.321 132.206 333.468 132.673 333.761C133.153 334.041 133.513 334.468 133.753 335.041C133.993 335.601 134.113 336.321 134.113 337.201V342.441C134.113 342.748 134.033 342.981 133.873 343.141C133.713 343.301 133.493 343.381 133.213 343.381C132.919 343.381 132.693 343.301 132.533 343.141C132.373 342.981 132.293 342.748 132.293 342.441V337.281C132.293 336.428 132.146 335.801 131.853 335.401C131.559 335.001 131.066 334.801 130.373 334.801C129.613 334.801 129.006 335.068 128.553 335.601C128.113 336.121 127.893 336.841 127.893 337.761V342.441C127.893 342.748 127.813 342.981 127.653 343.141C127.506 343.301 127.286 343.381 126.993 343.381C126.699 343.381 126.473 343.301 126.313 343.141C126.153 342.981 126.073 342.748 126.073 342.441V337.281C126.073 336.428 125.926 335.801 125.633 335.401C125.339 335.001 124.846 334.801 124.153 334.801C123.393 334.801 122.786 335.068 122.333 335.601C121.893 336.121 121.673 336.841 121.673 337.761V342.441C121.673 343.068 121.366 343.381 120.753 343.381ZM143.154 343.341C142.874 343.341 142.654 343.255 142.494 343.081C142.334 342.908 142.254 342.668 142.254 342.361V334.381C142.254 334.061 142.334 333.821 142.494 333.661C142.654 333.488 142.874 333.401 143.154 333.401C143.447 333.401 143.674 333.488 143.834 333.661C143.994 333.821 144.074 334.061 144.074 334.381V342.361C144.074 342.668 143.994 342.908 143.834 343.081C143.687 343.255 143.461 343.341 143.154 343.341ZM143.154 331.241C142.794 331.241 142.507 331.148 142.294 330.961C142.094 330.761 141.994 330.501 141.994 330.181C141.994 329.835 142.094 329.575 142.294 329.401C142.507 329.215 142.794 329.121 143.154 329.121C143.541 329.121 143.827 329.215 144.014 329.401C144.214 329.575 144.314 329.835 144.314 330.181C144.314 330.501 144.214 330.761 144.014 330.961C143.827 331.148 143.541 331.241 143.154 331.241ZM147.9 346.981C147.62 346.981 147.4 346.901 147.24 346.741C147.08 346.581 147 346.355 147 346.061V334.281C147 333.975 147.08 333.748 147.24 333.601C147.4 333.441 147.62 333.361 147.9 333.361C148.193 333.361 148.413 333.441 148.56 333.601C148.72 333.748 148.8 333.975 148.8 334.281V336.101L148.58 335.741C148.793 335.008 149.213 334.421 149.84 333.981C150.467 333.541 151.22 333.321 152.1 333.321C152.967 333.321 153.72 333.528 154.36 333.941C155 334.341 155.5 334.921 155.86 335.681C156.22 336.428 156.4 337.321 156.4 338.361C156.4 339.388 156.22 340.288 155.86 341.061C155.513 341.821 155.013 342.408 154.36 342.821C153.72 343.221 152.967 343.421 152.1 343.421C151.233 343.421 150.487 343.201 149.86 342.761C149.233 342.321 148.813 341.741 148.6 341.021H148.82V346.061C148.82 346.355 148.74 346.581 148.58 346.741C148.42 346.901 148.193 346.981 147.9 346.981ZM151.68 341.981C152.253 341.981 152.753 341.841 153.18 341.561C153.62 341.281 153.96 340.875 154.2 340.341C154.44 339.808 154.56 339.148 154.56 338.361C154.56 337.188 154.3 336.295 153.78 335.681C153.26 335.068 152.56 334.761 151.68 334.761C151.093 334.761 150.58 334.901 150.14 335.181C149.713 335.448 149.38 335.848 149.14 336.381C148.913 336.915 148.8 337.575 148.8 338.361C148.8 339.535 149.06 340.435 149.58 341.061C150.1 341.675 150.8 341.981 151.68 341.981ZM162.098 343.421C161.498 343.421 160.892 343.355 160.278 343.221C159.678 343.075 159.112 342.828 158.578 342.481C158.432 342.388 158.325 342.275 158.258 342.141C158.205 341.995 158.185 341.855 158.198 341.721C158.225 341.575 158.285 341.448 158.378 341.341C158.472 341.235 158.585 341.175 158.718 341.161C158.865 341.135 159.018 341.168 159.178 341.261C159.698 341.555 160.198 341.761 160.678 341.881C161.172 342.001 161.658 342.061 162.138 342.061C162.872 342.061 163.425 341.928 163.798 341.661C164.172 341.395 164.358 341.041 164.358 340.601C164.358 340.228 164.232 339.941 163.978 339.741C163.738 339.528 163.358 339.368 162.838 339.261L160.978 338.881C160.152 338.695 159.525 338.388 159.098 337.961C158.685 337.521 158.478 336.961 158.478 336.281C158.478 335.681 158.638 335.161 158.958 334.721C159.292 334.268 159.752 333.921 160.338 333.681C160.925 333.441 161.598 333.321 162.358 333.321C162.945 333.321 163.498 333.401 164.018 333.561C164.552 333.708 165.032 333.935 165.458 334.241C165.618 334.335 165.718 334.455 165.758 334.601C165.812 334.735 165.818 334.875 165.778 335.021C165.752 335.155 165.692 335.268 165.598 335.361C165.505 335.455 165.385 335.515 165.238 335.541C165.092 335.555 164.932 335.515 164.758 335.421C164.372 335.155 163.972 334.968 163.558 334.861C163.158 334.741 162.758 334.681 162.358 334.681C161.638 334.681 161.092 334.821 160.718 335.101C160.358 335.381 160.178 335.748 160.178 336.201C160.178 336.548 160.285 336.835 160.498 337.061C160.725 337.288 161.078 337.455 161.558 337.561L163.418 337.941C164.285 338.128 164.938 338.428 165.378 338.841C165.818 339.241 166.038 339.788 166.038 340.481C166.038 341.388 165.678 342.108 164.958 342.641C164.252 343.161 163.298 343.421 162.098 343.421ZM171.886 343.421C171.1 343.421 170.44 343.275 169.906 342.981C169.386 342.688 169 342.255 168.746 341.681C168.493 341.108 168.366 340.388 168.366 339.521V334.281C168.366 333.975 168.44 333.748 168.586 333.601C168.746 333.441 168.973 333.361 169.266 333.361C169.56 333.361 169.786 333.441 169.946 333.601C170.106 333.748 170.186 333.975 170.186 334.281V339.521C170.186 340.348 170.353 340.961 170.686 341.361C171.02 341.748 171.546 341.941 172.266 341.941C173.066 341.941 173.713 341.675 174.206 341.141C174.713 340.608 174.966 339.901 174.966 339.021V334.281C174.966 333.975 175.04 333.748 175.186 333.601C175.346 333.441 175.573 333.361 175.866 333.361C176.16 333.361 176.386 333.441 176.546 333.601C176.706 333.748 176.786 333.975 176.786 334.281V342.441C176.786 343.068 176.493 343.381 175.906 343.381C175.613 343.381 175.386 343.301 175.226 343.141C175.08 342.981 175.006 342.748 175.006 342.441V340.701L175.266 341.041C175 341.815 174.566 342.408 173.966 342.821C173.38 343.221 172.686 343.421 171.886 343.421ZM180.655 343.381C180.375 343.381 180.155 343.301 179.995 343.141C179.835 342.981 179.755 342.748 179.755 342.441V334.281C179.755 333.975 179.835 333.748 179.995 333.601C180.155 333.441 180.375 333.361 180.655 333.361C180.935 333.361 181.148 333.441 181.295 333.601C181.455 333.748 181.535 333.975 181.535 334.281V335.981L181.315 335.621C181.568 334.888 181.975 334.321 182.535 333.921C183.108 333.521 183.788 333.321 184.575 333.321C185.402 333.321 186.068 333.521 186.575 333.921C187.082 334.308 187.422 334.901 187.595 335.701H187.315C187.555 334.968 187.982 334.388 188.595 333.961C189.222 333.535 189.948 333.321 190.775 333.321C191.508 333.321 192.108 333.468 192.575 333.761C193.055 334.041 193.415 334.468 193.655 335.041C193.895 335.601 194.015 336.321 194.015 337.201V342.441C194.015 342.748 193.935 342.981 193.775 343.141C193.615 343.301 193.395 343.381 193.115 343.381C192.822 343.381 192.595 343.301 192.435 343.141C192.275 342.981 192.195 342.748 192.195 342.441V337.281C192.195 336.428 192.048 335.801 191.755 335.401C191.462 335.001 190.968 334.801 190.275 334.801C189.515 334.801 188.908 335.068 188.455 335.601C188.015 336.121 187.795 336.841 187.795 337.761V342.441C187.795 342.748 187.715 342.981 187.555 343.141C187.408 343.301 187.188 343.381 186.895 343.381C186.602 343.381 186.375 343.301 186.215 343.141C186.055 342.981 185.975 342.748 185.975 342.441V337.281C185.975 336.428 185.828 335.801 185.535 335.401C185.242 335.001 184.748 334.801 184.055 334.801C183.295 334.801 182.688 335.068 182.235 335.601C181.795 336.121 181.575 336.841 181.575 337.761V342.441C181.575 343.068 181.268 343.381 180.655 343.381ZM197.821 343.321C197.475 343.321 197.188 343.208 196.961 342.981C196.735 342.755 196.621 342.468 196.621 342.121C196.621 341.775 196.735 341.495 196.961 341.281C197.188 341.068 197.475 340.961 197.821 340.961C198.195 340.961 198.481 341.068 198.681 341.281C198.895 341.495 199.001 341.775 199.001 342.121C199.001 342.468 198.895 342.755 198.681 342.981C198.481 343.208 198.195 343.321 197.821 343.321Z" fill="#344346"/>
</g>
<defs>
<filter id="filter0_ddii_79_1432" x="0.176758" y="0.146484" width="452.68" height="406.29" filterUnits="userSpaceOnUse" color-interpolation-filters="sRGB">
<feFlood flood-opacity="0" result="BackgroundImageFix"/>
<feColorMatrix in="SourceAlpha" type="matrix" values="0 0 0 0 0 0 0 0 0 0 0 0 0 0 0 0 0 0 127 0" result="hardAlpha"/>
<feOffset dy="4"/>
<feGaussianBlur stdDeviation="2"/>
<feComposite in2="hardAlpha" operator="out"/>
<feColorMatrix type="matrix" values="0 0 0 0 0 0 0 0 0 0 0 0 0 0 0 0 0 0 0.1 0"/>
<feBlend mode="normal" in2="BackgroundImageFix" result="effect1_dropShadow_79_1432"/>
<feColorMatrix in="SourceAlpha" type="matrix" values="0 0 0 0 0 0 0 0 0 0 0 0 0 0 0 0 0 0 127 0" result="hardAlpha"/>
<feMorphology radius="12" operator="erode" in="SourceAlpha" result="effect2_dropShadow_79_1432"/>
<feOffset dy="12"/>
<feGaussianBlur stdDeviation="16"/>
<feComposite in2="hardAlpha" operator="out"/>
<feColorMatrix type="matrix" values="0 0 0 0 0 0 0 0 0 0 0 0 0 0 0 0 0 0 0.1 0"/>
<feBlend mode="normal" in2="effect1_dropShadow_79_1432" result="effect2_dropShadow_79_1432"/>
<feBlend mode="normal" in="SourceGraphic" in2="effect2_dropShadow_79_1432" result="shape"/>
<feColorMatrix in="SourceAlpha" type="matrix" values="0 0 0 0 0 0 0 0 0 0 0 0 0 0 0 0 0 0 127 0" result="hardAlpha"/>
<feOffset dy="6"/>
<feGaussianBlur stdDeviation="6"/>
<feComposite in2="hardAlpha" operator="arithmetic" k2="-1" k3="1"/>
<feColorMatrix type="matrix" values="0 0 0 0 1 0 0 0 0 1 0 0 0 0 1 0 0 0 0.04 0"/>
<feBlend mode="normal" in2="shape" result="effect3_innerShadow_79_1432"/>
<feColorMatrix in="SourceAlpha" type="matrix" values="0 0 0 0 0 0 0 0 0 0 0 0 0 0 0 0 0 0 127 0" result="hardAlpha"/>
<feOffset dy="1"/>
<feGaussianBlur stdDeviation="0.5"/>
<feComposite in2="hardAlpha" operator="arithmetic" k2="-1" k3="1"/>
<feColorMatrix type="matrix" values="0 0 0 0 1 0 0 0 0 1 0 0 0 0 1 0 0 0 0.2 0"/>
<feBlend mode="normal" in2="effect3_innerShadow_79_1432" result="effect4_innerShadow_79_1432"/>
</filter>
</defs>
</svg>
