<svg width="294" height="437" viewBox="0 0 294 437" fill="none" xmlns="http://www.w3.org/2000/svg">
<path d="M0.227539 22.3907C0.227539 10.0247 10.2522 0 22.6183 0H270.626C282.992 0 293.016 10.0247 293.016 22.3907V414.013C293.016 426.379 282.992 436.404 270.626 436.404H22.6182C10.2522 436.404 0.227539 426.379 0.227539 414.013V22.3907Z" fill="#7030A0"/>
<path d="M33.4943 59.6376C32.1898 59.6376 30.8259 59.4152 29.4027 58.9705C28.0092 58.4961 26.7343 57.7993 25.5779 56.8802C25.1925 56.6133 24.9405 56.2872 24.8219 55.9017C24.7329 55.4866 24.7329 55.1012 24.8219 54.7454C24.9108 54.36 25.0887 54.0338 25.3555 53.767C25.6224 53.4705 25.9485 53.3074 26.334 53.2778C26.7491 53.2185 27.179 53.3371 27.6237 53.6335C28.6318 54.3748 29.6251 54.9085 30.6035 55.2346C31.6116 55.5608 32.6049 55.7238 33.5833 55.7238C35.4216 55.7238 36.9782 55.2791 38.2531 54.3896C39.528 53.5001 40.4916 52.1659 41.1439 50.3869C41.7962 48.608 42.1223 46.3991 42.1223 43.7603V39.9799H42.6116C42.404 41.5514 41.9 42.9301 41.0994 44.1161C40.3286 45.302 39.3205 46.2063 38.0752 46.829C36.8299 47.4516 35.4512 47.7629 33.9391 47.7629C32.1305 47.7629 30.5146 47.333 29.0914 46.4732C27.6682 45.6134 26.5564 44.4274 25.7558 42.9152C24.9553 41.4031 24.555 39.6983 24.555 37.8007C24.555 35.7845 24.9849 34.0056 25.8448 32.4638C26.7046 30.8924 27.8906 29.6767 29.4027 28.8169C30.9445 27.9274 32.7086 27.4827 34.6951 27.4827C37.245 27.4827 39.3946 28.0905 41.1439 29.3061C42.8932 30.4921 44.2275 32.2414 45.1466 34.5541C46.0954 36.8667 46.5698 39.639 46.5698 42.8708C46.5698 45.5689 46.2733 47.9557 45.6803 50.0311C45.0873 52.1066 44.2275 53.8559 43.1008 55.2791C41.9741 56.7023 40.5954 57.7845 38.9647 58.5257C37.3636 59.267 35.5402 59.6376 33.4943 59.6376ZM35.0065 43.9826C36.1924 43.9826 37.245 43.7158 38.1641 43.1821C39.0833 42.6484 39.7949 41.8923 40.2989 40.9139C40.8326 39.9355 41.0994 38.8236 41.0994 37.5783C41.0994 36.3034 40.8326 35.1916 40.2989 34.2428C39.7949 33.2643 39.0833 32.5083 38.1641 31.9746C37.245 31.4409 36.1924 31.174 35.0065 31.174C33.7908 31.174 32.7235 31.4409 31.8043 31.9746C30.9148 32.5083 30.2032 33.2643 29.6696 34.2428C29.1655 35.1916 28.9135 36.3034 28.9135 37.5783C28.9135 38.8236 29.1655 39.9355 29.6696 40.9139C30.2032 41.8923 30.9148 42.6484 31.8043 43.1821C32.7235 43.7158 33.7908 43.9826 35.0065 43.9826ZM62.9634 59.6376C61.3327 59.6376 59.6871 59.4152 58.0268 58.9705C56.3664 58.4961 54.8543 57.7697 53.4904 56.7912C53.0456 56.5244 52.7491 56.1834 52.6009 55.7683C52.4527 55.3532 52.423 54.953 52.512 54.5675C52.6009 54.1524 52.7788 53.8114 53.0456 53.5446C53.3421 53.2778 53.6979 53.1295 54.113 53.0999C54.5281 53.0406 54.9729 53.1592 55.4473 53.4556C56.6036 54.1969 57.7896 54.7602 59.0052 55.1457C60.2505 55.5311 61.5402 55.7238 62.8745 55.7238C64.2383 55.7238 65.4095 55.4718 66.3879 54.9678C67.3664 54.4637 68.1076 53.767 68.6116 52.8775C69.1453 51.9583 69.4122 50.891 69.4122 49.6753C69.4122 47.8074 68.8637 46.2805 67.7666 45.0945C66.6696 43.9085 65.1426 43.3155 63.1858 43.3155C62.0591 43.3155 61.0065 43.5231 60.0281 43.9382C59.0497 44.3236 58.1157 44.9759 57.2262 45.895C57.0187 46.1322 56.737 46.3546 56.3812 46.5621C56.0551 46.74 55.6845 46.829 55.2694 46.829C54.6467 46.829 54.1723 46.6659 53.8462 46.3398C53.52 46.0136 53.357 45.5689 53.357 45.0055V29.9288C53.357 29.2765 53.5349 28.7724 53.8907 28.4166C54.2464 28.0608 54.7505 27.8829 55.4028 27.8829H70.3017C70.9539 27.8829 71.458 28.046 71.8138 28.3722C72.1696 28.6983 72.3475 29.1727 72.3475 29.7953C72.3475 30.418 72.1696 30.9072 71.8138 31.263C71.458 31.5891 70.9539 31.7522 70.3017 31.7522H57.8489V43.0487H56.6036C57.4041 41.922 58.4567 41.0473 59.7613 40.4247C61.0955 39.802 62.5631 39.4907 64.1642 39.4907C66.1507 39.4907 67.8704 39.9058 69.3232 40.736C70.7761 41.5662 71.9027 42.7374 72.7033 44.2495C73.5038 45.732 73.9041 47.4664 73.9041 49.453C73.9041 51.4691 73.4593 53.2481 72.5698 54.7899C71.6804 56.302 70.4203 57.488 68.7895 58.3478C67.1588 59.2077 65.2168 59.6376 62.9634 59.6376ZM89.7195 59.1039C89.4823 59.5486 89.171 59.8451 88.7856 59.9934C88.4298 60.1416 88.074 60.1713 87.7182 60.0823C87.3624 59.9934 87.0659 59.8155 86.8287 59.5486C86.5915 59.2818 86.4433 58.9556 86.384 58.5702C86.3543 58.1847 86.4581 57.7697 86.6953 57.3249L103.507 28.1053C103.744 27.6309 104.04 27.3196 104.396 27.1714C104.781 27.0231 105.137 26.9935 105.463 27.0824C105.819 27.1714 106.116 27.3493 106.353 27.6161C106.62 27.8829 106.783 28.2091 106.842 28.5945C106.901 28.98 106.798 29.3951 106.531 29.8398L89.7195 59.1039ZM85.7613 46.6511C83.3301 46.6511 81.4325 45.8061 80.0686 44.1161C78.7047 42.3964 78.0228 40.0392 78.0228 37.0446C78.0228 35.0285 78.3341 33.3088 78.9568 31.8856C79.5794 30.4625 80.4689 29.3802 81.6252 28.639C82.7816 27.8681 84.1603 27.4827 85.7613 27.4827C88.1629 27.4827 90.0457 28.3277 91.4096 30.0177C92.8031 31.7077 93.4999 34.05 93.4999 37.0446C93.4999 39.0312 93.1885 40.7508 92.5659 42.2037C91.9729 43.6268 91.0982 44.7239 89.9419 45.4948C88.7856 46.2656 87.3921 46.6511 85.7613 46.6511ZM85.7613 43.4934C86.5915 43.4934 87.3031 43.2562 87.8961 42.7818C88.4891 42.3074 88.9338 41.5958 89.2303 40.6471C89.5565 39.6983 89.7195 38.4975 89.7195 37.0446C89.7195 34.8802 89.3637 33.2643 88.6522 32.1969C87.9702 31.1296 87.0066 30.5959 85.7613 30.5959C84.9311 30.5959 84.2196 30.8331 83.6266 31.3075C83.0336 31.7819 82.574 32.4934 82.2479 33.4422C81.9514 34.391 81.8031 35.5918 81.8031 37.0446C81.8031 39.2387 82.1441 40.8694 82.826 41.9368C83.5376 42.9745 84.5161 43.4934 85.7613 43.4934ZM107.509 59.6376C105.108 59.6376 103.225 58.7926 101.861 57.1025C100.497 55.4125 99.8152 53.0554 99.8152 50.0311C99.8152 48.0446 100.112 46.3398 100.705 44.9166C101.327 43.4934 102.217 42.3964 103.373 41.6255C104.529 40.8546 105.908 40.4692 107.509 40.4692C109.941 40.4692 111.838 41.329 113.202 43.0487C114.566 44.7387 115.248 47.0662 115.248 50.0311C115.248 52.0473 114.936 53.7818 114.314 55.2346C113.721 56.6578 112.846 57.7548 111.69 58.5257C110.533 59.267 109.14 59.6376 107.509 59.6376ZM107.509 56.5244C108.339 56.5244 109.051 56.2872 109.644 55.8128C110.237 55.3384 110.682 54.6268 110.978 53.678C111.304 52.6996 111.467 51.484 111.467 50.0311C111.467 47.8964 111.112 46.2953 110.4 45.2279C109.718 44.1605 108.755 43.6268 107.509 43.6268C106.709 43.6268 105.997 43.864 105.374 44.3384C104.781 44.8128 104.322 45.5244 103.996 46.4732C103.699 47.422 103.551 48.608 103.551 50.0311C103.551 52.2252 103.907 53.8559 104.618 54.9233C105.33 55.9907 106.294 56.5244 107.509 56.5244Z" fill="#F9FBFB"/>
<path d="M26.5927 303.978C26.1661 303.978 25.8354 303.85 25.6007 303.594C25.3661 303.338 25.2487 302.997 25.2487 302.57V282.378C25.2487 281.93 25.3661 281.589 25.6007 281.354C25.8567 281.098 26.1981 280.97 26.6247 280.97C27.0087 280.97 27.3074 281.045 27.5207 281.194C27.7554 281.343 27.9687 281.599 28.1607 281.962L36.7367 298.058H35.7447L44.3207 281.962C44.5127 281.599 44.7154 281.343 44.9287 281.194C45.1421 281.045 45.4407 280.97 45.8247 280.97C46.2514 280.97 46.5821 281.098 46.8167 281.354C47.0514 281.589 47.1687 281.93 47.1687 282.378V302.57C47.1687 302.997 47.0514 303.338 46.8167 303.594C46.6034 303.85 46.2727 303.978 45.8247 303.978C45.3767 303.978 45.0354 303.85 44.8007 303.594C44.5874 303.338 44.4807 302.997 44.4807 302.57V285.322H45.1847L37.5047 299.69C37.3341 299.967 37.1527 300.181 36.9607 300.33C36.7901 300.458 36.5447 300.522 36.2247 300.522C35.9261 300.522 35.6701 300.447 35.4567 300.298C35.2647 300.149 35.0941 299.946 34.9447 299.69L27.1687 285.29H27.9367V302.57C27.9367 302.997 27.8194 303.338 27.5847 303.594C27.3714 303.85 27.0407 303.978 26.5927 303.978ZM58.8935 304.042C57.3575 304.042 56.0241 303.711 54.8935 303.05C53.7628 302.389 52.8881 301.45 52.2695 300.234C51.6508 299.018 51.3415 297.589 51.3415 295.946C51.3415 294.709 51.5121 293.599 51.8535 292.618C52.2161 291.615 52.7281 290.762 53.3895 290.058C54.0508 289.354 54.8401 288.821 55.7575 288.458C56.6961 288.074 57.7415 287.882 58.8935 287.882C60.4295 287.882 61.7628 288.213 62.8935 288.874C64.0241 289.535 64.8988 290.474 65.5175 291.69C66.1361 292.885 66.4455 294.303 66.4455 295.946C66.4455 297.183 66.2641 298.303 65.9015 299.306C65.5601 300.309 65.0588 301.162 64.3975 301.866C63.7361 302.57 62.9361 303.114 61.9975 303.498C61.0801 303.861 60.0455 304.042 58.8935 304.042ZM58.8935 301.738C59.8321 301.738 60.6428 301.514 61.3255 301.066C62.0295 300.618 62.5628 299.967 62.9255 299.114C63.3095 298.261 63.5015 297.205 63.5015 295.946C63.5015 294.069 63.0855 292.639 62.2535 291.658C61.4215 290.677 60.3015 290.186 58.8935 290.186C57.9761 290.186 57.1655 290.41 56.4615 290.858C55.7788 291.285 55.2455 291.925 54.8615 292.778C54.4775 293.631 54.2855 294.687 54.2855 295.946C54.2855 297.823 54.7015 299.263 55.5335 300.266C56.3868 301.247 57.5068 301.738 58.8935 301.738ZM71.6797 303.978C71.1891 303.978 70.8157 303.85 70.5597 303.594C70.3037 303.338 70.1757 302.965 70.1757 302.474V289.418C70.1757 288.927 70.3037 288.565 70.5597 288.33C70.8157 288.074 71.1677 287.946 71.6157 287.946C72.0637 287.946 72.4051 288.074 72.6397 288.33C72.8957 288.565 73.0237 288.927 73.0237 289.418V291.882H72.7037C73.0451 290.602 73.6851 289.631 74.6237 288.97C75.5624 288.309 76.7464 287.935 78.1757 287.85C78.5171 287.829 78.7944 287.914 79.0077 288.106C79.2211 288.277 79.3384 288.575 79.3597 289.002C79.3811 289.407 79.2851 289.738 79.0717 289.994C78.8584 290.229 78.5277 290.367 78.0797 290.41L77.5037 290.442C76.0957 290.591 75.0077 291.05 74.2397 291.818C73.4931 292.586 73.1197 293.642 73.1197 294.986V302.474C73.1197 302.965 72.9917 303.338 72.7357 303.594C72.5011 303.85 72.1491 303.978 71.6797 303.978ZM88.8445 304.042C87.1591 304.042 85.7085 303.722 84.4925 303.082C83.2978 302.421 82.3698 301.493 81.7085 300.298C81.0471 299.082 80.7165 297.653 80.7165 296.01C80.7165 294.389 81.0365 292.97 81.6765 291.754C82.3378 290.538 83.2338 289.589 84.3645 288.906C85.5165 288.223 86.8285 287.882 88.3005 287.882C89.3458 287.882 90.2845 288.063 91.1165 288.426C91.9698 288.767 92.6951 289.269 93.2925 289.93C93.8898 290.591 94.3378 291.402 94.6365 292.362C94.9565 293.301 95.1165 294.367 95.1165 295.562C95.1165 295.903 95.0098 296.17 94.7965 296.362C94.6045 296.533 94.3165 296.618 93.9325 296.618H82.9885V294.762H93.1965L92.6525 295.21C92.6525 294.101 92.4818 293.162 92.1405 292.394C91.8205 291.605 91.3405 291.007 90.7005 290.602C90.0818 290.197 89.3031 289.994 88.3645 289.994C87.3405 289.994 86.4658 290.239 85.7405 290.73C85.0151 291.199 84.4605 291.871 84.0765 292.746C83.6925 293.599 83.5005 294.591 83.5005 295.722V295.914C83.5005 297.834 83.9591 299.285 84.8765 300.266C85.7938 301.247 87.1165 301.738 88.8445 301.738C89.5271 301.738 90.2205 301.653 90.9245 301.482C91.6498 301.311 92.3431 301.002 93.0045 300.554C93.3245 300.362 93.6125 300.277 93.8685 300.298C94.1458 300.298 94.3698 300.383 94.5405 300.554C94.7111 300.703 94.8178 300.895 94.8605 301.13C94.9031 301.343 94.8711 301.578 94.7645 301.834C94.6578 302.09 94.4551 302.314 94.1565 302.506C93.4525 302.997 92.6098 303.381 91.6285 303.658C90.6685 303.914 89.7405 304.042 88.8445 304.042Z" fill="#F9FBFB"/>
<path d="M27.6247 346.306C27.3714 346.306 27.1514 346.239 26.9647 346.106C26.7781 345.973 26.6181 345.759 26.4847 345.466L23.0847 337.546C22.9914 337.319 22.9581 337.113 22.9847 336.926C23.0114 336.739 23.0981 336.586 23.2447 336.466C23.4047 336.346 23.6181 336.286 23.8847 336.286C24.1114 336.286 24.2914 336.339 24.4247 336.446C24.5581 336.553 24.6847 336.739 24.8047 337.006L27.9447 344.746H27.3847L30.6047 337.006C30.7114 336.739 30.8314 336.553 30.9647 336.446C31.1114 336.339 31.3114 336.286 31.5647 336.286C31.7914 336.286 31.9647 336.346 32.0847 336.466C32.2181 336.586 32.2981 336.739 32.3247 336.926C32.3514 337.113 32.3114 337.313 32.2047 337.526L28.7847 345.466C28.6647 345.759 28.5047 345.973 28.3047 346.106C28.1181 346.239 27.8914 346.306 27.6247 346.306ZM35.1763 346.266C34.8963 346.266 34.6763 346.179 34.5163 346.006C34.3563 345.833 34.2763 345.593 34.2763 345.286V337.306C34.2763 336.986 34.3563 336.746 34.5163 336.586C34.6763 336.413 34.8963 336.326 35.1763 336.326C35.4696 336.326 35.6963 336.413 35.8563 336.586C36.0163 336.746 36.0963 336.986 36.0963 337.306V345.286C36.0963 345.593 36.0163 345.833 35.8563 346.006C35.7096 346.179 35.483 346.266 35.1763 346.266ZM35.1763 334.166C34.8163 334.166 34.5296 334.073 34.3163 333.886C34.1163 333.686 34.0163 333.426 34.0163 333.106C34.0163 332.759 34.1163 332.499 34.3163 332.326C34.5296 332.139 34.8163 332.046 35.1763 332.046C35.563 332.046 35.8496 332.139 36.0363 332.326C36.2363 332.499 36.3363 332.759 36.3363 333.106C36.3363 333.426 36.2363 333.686 36.0363 333.886C35.8496 334.073 35.563 334.166 35.1763 334.166ZM42.3824 346.346C41.7824 346.346 41.1757 346.279 40.5624 346.146C39.9624 345.999 39.3957 345.753 38.8624 345.406C38.7157 345.313 38.609 345.199 38.5424 345.066C38.489 344.919 38.469 344.779 38.4824 344.646C38.509 344.499 38.569 344.373 38.6624 344.266C38.7557 344.159 38.869 344.099 39.0024 344.086C39.149 344.059 39.3024 344.093 39.4624 344.186C39.9824 344.479 40.4824 344.686 40.9624 344.806C41.4557 344.926 41.9424 344.986 42.4224 344.986C43.1557 344.986 43.709 344.853 44.0824 344.586C44.4557 344.319 44.6424 343.966 44.6424 343.526C44.6424 343.153 44.5157 342.866 44.2624 342.666C44.0224 342.453 43.6424 342.293 43.1224 342.186L41.2624 341.806C40.4357 341.619 39.809 341.313 39.3824 340.886C38.969 340.446 38.7624 339.886 38.7624 339.206C38.7624 338.606 38.9224 338.086 39.2424 337.646C39.5757 337.193 40.0357 336.846 40.6224 336.606C41.209 336.366 41.8824 336.246 42.6424 336.246C43.229 336.246 43.7824 336.326 44.3024 336.486C44.8357 336.633 45.3157 336.859 45.7424 337.166C45.9024 337.259 46.0024 337.379 46.0424 337.526C46.0957 337.659 46.1024 337.799 46.0624 337.946C46.0357 338.079 45.9757 338.193 45.8824 338.286C45.789 338.379 45.669 338.439 45.5224 338.466C45.3757 338.479 45.2157 338.439 45.0424 338.346C44.6557 338.079 44.2557 337.893 43.8424 337.786C43.4424 337.666 43.0424 337.606 42.6424 337.606C41.9224 337.606 41.3757 337.746 41.0024 338.026C40.6424 338.306 40.4624 338.673 40.4624 339.126C40.4624 339.473 40.569 339.759 40.7824 339.986C41.009 340.213 41.3624 340.379 41.8424 340.486L43.7024 340.866C44.569 341.053 45.2224 341.353 45.6624 341.766C46.1024 342.166 46.3224 342.713 46.3224 343.406C46.3224 344.313 45.9624 345.033 45.2424 345.566C44.5357 346.086 43.5824 346.346 42.3824 346.346ZM49.5903 346.266C49.3103 346.266 49.0903 346.179 48.9303 346.006C48.7703 345.833 48.6903 345.593 48.6903 345.286V337.306C48.6903 336.986 48.7703 336.746 48.9303 336.586C49.0903 336.413 49.3103 336.326 49.5903 336.326C49.8837 336.326 50.1103 336.413 50.2703 336.586C50.4303 336.746 50.5103 336.986 50.5103 337.306V345.286C50.5103 345.593 50.4303 345.833 50.2703 346.006C50.1237 346.179 49.897 346.266 49.5903 346.266ZM49.5903 334.166C49.2303 334.166 48.9437 334.073 48.7303 333.886C48.5303 333.686 48.4303 333.426 48.4303 333.106C48.4303 332.759 48.5303 332.499 48.7303 332.326C48.9437 332.139 49.2303 332.046 49.5903 332.046C49.977 332.046 50.2637 332.139 50.4503 332.326C50.6503 332.499 50.7503 332.759 50.7503 333.106C50.7503 333.426 50.6503 333.686 50.4503 333.886C50.2637 334.073 49.977 334.166 49.5903 334.166ZM58.5364 346.346C57.6564 346.346 56.9031 346.126 56.2764 345.686C55.6498 345.246 55.2298 344.653 55.0164 343.906L55.2364 343.606V345.366C55.2364 345.673 55.1564 345.906 54.9964 346.066C54.8498 346.226 54.6298 346.306 54.3364 346.306C54.0564 346.306 53.8364 346.226 53.6764 346.066C53.5164 345.906 53.4364 345.673 53.4364 345.366V332.846C53.4364 332.539 53.5164 332.313 53.6764 332.166C53.8364 332.006 54.0564 331.926 54.3364 331.926C54.6298 331.926 54.8564 332.006 55.0164 332.166C55.1764 332.313 55.2564 332.539 55.2564 332.846V338.626H55.0364C55.2498 337.906 55.6698 337.333 56.2964 336.906C56.9231 336.466 57.6698 336.246 58.5364 336.246C59.4031 336.246 60.1564 336.453 60.7964 336.866C61.4498 337.266 61.9498 337.846 62.2964 338.606C62.6564 339.353 62.8364 340.246 62.8364 341.286C62.8364 342.313 62.6564 343.213 62.2964 343.986C61.9364 344.746 61.4364 345.333 60.7964 345.746C60.1564 346.146 59.4031 346.346 58.5364 346.346ZM58.1164 344.906C58.6898 344.906 59.1898 344.766 59.6164 344.486C60.0564 344.206 60.3964 343.799 60.6364 343.266C60.8764 342.733 60.9964 342.073 60.9964 341.286C60.9964 340.113 60.7364 339.219 60.2164 338.606C59.6964 337.993 58.9964 337.686 58.1164 337.686C57.5298 337.686 57.0164 337.826 56.5764 338.106C56.1498 338.373 55.8164 338.773 55.5764 339.306C55.3498 339.839 55.2364 340.499 55.2364 341.286C55.2364 342.459 55.4964 343.359 56.0164 343.986C56.5364 344.599 57.2364 344.906 58.1164 344.906ZM66.0747 346.266C65.7947 346.266 65.5747 346.179 65.4147 346.006C65.2547 345.833 65.1747 345.593 65.1747 345.286V337.306C65.1747 336.986 65.2547 336.746 65.4147 336.586C65.5747 336.413 65.7947 336.326 66.0747 336.326C66.3681 336.326 66.5947 336.413 66.7547 336.586C66.9147 336.746 66.9947 336.986 66.9947 337.306V345.286C66.9947 345.593 66.9147 345.833 66.7547 346.006C66.6081 346.179 66.3814 346.266 66.0747 346.266ZM66.0747 334.166C65.7147 334.166 65.4281 334.073 65.2147 333.886C65.0147 333.686 64.9147 333.426 64.9147 333.106C64.9147 332.759 65.0147 332.499 65.2147 332.326C65.4281 332.139 65.7147 332.046 66.0747 332.046C66.4614 332.046 66.7481 332.139 66.9347 332.326C67.1347 332.499 67.2347 332.759 67.2347 333.106C67.2347 333.426 67.1347 333.686 66.9347 333.886C66.7481 334.073 66.4614 334.166 66.0747 334.166ZM72.9808 346.346C71.9808 346.346 71.2208 346.053 70.7008 345.466C70.1808 344.866 69.9208 344.006 69.9208 342.886V332.846C69.9208 332.539 70.0008 332.313 70.1608 332.166C70.3208 332.006 70.5408 331.926 70.8208 331.926C71.1141 331.926 71.3408 332.006 71.5008 332.166C71.6608 332.313 71.7408 332.539 71.7408 332.846V342.746C71.7408 343.439 71.8808 343.959 72.1608 344.306C72.4541 344.639 72.8675 344.806 73.4008 344.806C73.5208 344.806 73.6275 344.806 73.7208 344.806C73.8141 344.793 73.9075 344.779 74.0008 344.766C74.1475 344.753 74.2541 344.793 74.3208 344.886C74.3875 344.979 74.4208 345.166 74.4208 345.446C74.4208 345.699 74.3608 345.899 74.2408 346.046C74.1341 346.179 73.9541 346.266 73.7008 346.306C73.5808 346.319 73.4608 346.326 73.3408 346.326C73.2208 346.339 73.1008 346.346 72.9808 346.346ZM76.8364 346.266C76.5564 346.266 76.3364 346.179 76.1764 346.006C76.0164 345.833 75.9364 345.593 75.9364 345.286V337.306C75.9364 336.986 76.0164 336.746 76.1764 336.586C76.3364 336.413 76.5564 336.326 76.8364 336.326C77.1298 336.326 77.3564 336.413 77.5164 336.586C77.6764 336.746 77.7564 336.986 77.7564 337.306V345.286C77.7564 345.593 77.6764 345.833 77.5164 346.006C77.3698 346.179 77.1431 346.266 76.8364 346.266ZM76.8364 334.166C76.4764 334.166 76.1898 334.073 75.9764 333.886C75.7764 333.686 75.6764 333.426 75.6764 333.106C75.6764 332.759 75.7764 332.499 75.9764 332.326C76.1898 332.139 76.4764 332.046 76.8364 332.046C77.2231 332.046 77.5098 332.139 77.6964 332.326C77.8964 332.499 77.9964 332.759 77.9964 333.106C77.9964 333.426 77.8964 333.686 77.6964 333.886C77.5098 334.073 77.2231 334.166 76.8364 334.166ZM84.7225 346.346C83.9359 346.346 83.2759 346.206 82.7425 345.926C82.2225 345.646 81.8292 345.239 81.5625 344.706C81.3092 344.173 81.1825 343.519 81.1825 342.746V337.826H79.9025C79.6625 337.826 79.4759 337.766 79.3425 337.646C79.2092 337.513 79.1425 337.339 79.1425 337.126C79.1425 336.899 79.2092 336.726 79.3425 336.606C79.4759 336.486 79.6625 336.426 79.9025 336.426H81.1825V334.246C81.1825 333.939 81.2625 333.713 81.4225 333.566C81.5825 333.406 81.8092 333.326 82.1025 333.326C82.3959 333.326 82.6159 333.406 82.7625 333.566C82.9225 333.713 83.0025 333.939 83.0025 334.246V336.426H85.4225C85.6759 336.426 85.8692 336.486 86.0025 336.606C86.1359 336.726 86.2025 336.899 86.2025 337.126C86.2025 337.339 86.1359 337.513 86.0025 337.646C85.8692 337.766 85.6759 337.826 85.4225 337.826H83.0025V342.586C83.0025 343.319 83.1559 343.873 83.4625 344.246C83.7692 344.619 84.2759 344.806 84.9825 344.806C85.2359 344.806 85.4492 344.786 85.6225 344.746C85.7959 344.693 85.9492 344.666 86.0825 344.666C86.2025 344.653 86.3025 344.693 86.3825 344.786C86.4759 344.879 86.5225 345.053 86.5225 345.306C86.5225 345.493 86.4892 345.666 86.4225 345.826C86.3692 345.973 86.2559 346.073 86.0825 346.126C85.9225 346.179 85.7092 346.226 85.4425 346.266C85.1759 346.319 84.9359 346.346 84.7225 346.346ZM90.2272 349.906C90.0139 349.906 89.8339 349.846 89.6872 349.726C89.5539 349.619 89.4739 349.466 89.4472 349.266C89.4339 349.079 89.4739 348.879 89.5672 348.666L90.9272 345.586V346.346L87.1472 337.546C87.0539 337.319 87.0206 337.113 87.0472 336.926C87.0739 336.739 87.1606 336.586 87.3072 336.466C87.4672 336.346 87.6806 336.286 87.9472 336.286C88.1739 336.286 88.3539 336.339 88.4872 336.446C88.6206 336.553 88.7472 336.739 88.8672 337.006L92.0072 344.746H91.4472L94.6472 337.006C94.7539 336.739 94.8806 336.553 95.0272 336.446C95.1739 336.339 95.3739 336.286 95.6272 336.286C95.8539 336.286 96.0272 336.346 96.1472 336.466C96.2806 336.586 96.3606 336.739 96.3872 336.926C96.4139 337.113 96.3739 337.313 96.2672 337.526L91.2272 349.186C91.0939 349.466 90.9539 349.653 90.8072 349.746C90.6739 349.853 90.4806 349.906 90.2272 349.906ZM104.434 346.266C104.154 346.266 103.934 346.179 103.774 346.006C103.614 345.833 103.534 345.593 103.534 345.286V337.306C103.534 336.986 103.614 336.746 103.774 336.586C103.934 336.413 104.154 336.326 104.434 336.326C104.727 336.326 104.954 336.413 105.114 336.586C105.274 336.746 105.354 336.986 105.354 337.306V345.286C105.354 345.593 105.274 345.833 105.114 346.006C104.967 346.179 104.741 346.266 104.434 346.266ZM104.434 334.166C104.074 334.166 103.787 334.073 103.574 333.886C103.374 333.686 103.274 333.426 103.274 333.106C103.274 332.759 103.374 332.499 103.574 332.326C103.787 332.139 104.074 332.046 104.434 332.046C104.821 332.046 105.107 332.139 105.294 332.326C105.494 332.499 105.594 332.759 105.594 333.106C105.594 333.426 105.494 333.686 105.294 333.886C105.107 334.073 104.821 334.166 104.434 334.166ZM109.18 346.306C108.9 346.306 108.68 346.226 108.52 346.066C108.36 345.906 108.28 345.673 108.28 345.366V337.206C108.28 336.899 108.36 336.673 108.52 336.526C108.68 336.366 108.9 336.286 109.18 336.286C109.46 336.286 109.674 336.366 109.82 336.526C109.98 336.673 110.06 336.899 110.06 337.206V338.846L109.84 338.546C110.12 337.786 110.574 337.213 111.2 336.826C111.84 336.439 112.567 336.246 113.38 336.246C114.167 336.246 114.814 336.386 115.32 336.666C115.827 336.946 116.207 337.373 116.46 337.946C116.714 338.519 116.84 339.246 116.84 340.126V345.366C116.84 345.673 116.76 345.906 116.6 346.066C116.454 346.226 116.234 346.306 115.94 346.306C115.647 346.306 115.42 346.226 115.26 346.066C115.1 345.906 115.02 345.673 115.02 345.366V340.226C115.02 339.359 114.854 338.726 114.52 338.326C114.187 337.926 113.654 337.726 112.92 337.726C112.067 337.726 111.38 337.993 110.86 338.526C110.354 339.046 110.1 339.753 110.1 340.646V345.366C110.1 345.993 109.794 346.306 109.18 346.306ZM123.766 346.346C122.979 346.346 122.319 346.206 121.786 345.926C121.266 345.646 120.872 345.239 120.606 344.706C120.352 344.173 120.226 343.519 120.226 342.746V337.826H118.946C118.706 337.826 118.519 337.766 118.386 337.646C118.252 337.513 118.186 337.339 118.186 337.126C118.186 336.899 118.252 336.726 118.386 336.606C118.519 336.486 118.706 336.426 118.946 336.426H120.226V334.246C120.226 333.939 120.306 333.713 120.466 333.566C120.626 333.406 120.852 333.326 121.146 333.326C121.439 333.326 121.659 333.406 121.806 333.566C121.966 333.713 122.046 333.939 122.046 334.246V336.426H124.466C124.719 336.426 124.912 336.486 125.046 336.606C125.179 336.726 125.246 336.899 125.246 337.126C125.246 337.339 125.179 337.513 125.046 337.646C124.912 337.766 124.719 337.826 124.466 337.826H122.046V342.586C122.046 343.319 122.199 343.873 122.506 344.246C122.812 344.619 123.319 344.806 124.026 344.806C124.279 344.806 124.492 344.786 124.666 344.746C124.839 344.693 124.992 344.666 125.126 344.666C125.246 344.653 125.346 344.693 125.426 344.786C125.519 344.879 125.566 345.053 125.566 345.306C125.566 345.493 125.532 345.666 125.466 345.826C125.412 345.973 125.299 346.073 125.126 346.126C124.966 346.179 124.752 346.226 124.486 346.266C124.219 346.319 123.979 346.346 123.766 346.346ZM130.936 346.346C129.976 346.346 129.142 346.139 128.436 345.726C127.729 345.313 127.182 344.726 126.796 343.966C126.409 343.206 126.216 342.313 126.216 341.286C126.216 340.513 126.322 339.819 126.536 339.206C126.762 338.579 127.082 338.046 127.496 337.606C127.909 337.166 128.402 336.833 128.976 336.606C129.562 336.366 130.216 336.246 130.936 336.246C131.896 336.246 132.729 336.453 133.436 336.866C134.142 337.279 134.689 337.866 135.076 338.626C135.462 339.373 135.656 340.259 135.656 341.286C135.656 342.059 135.542 342.759 135.316 343.386C135.102 344.013 134.789 344.546 134.376 344.986C133.962 345.426 133.462 345.766 132.876 346.006C132.302 346.233 131.656 346.346 130.936 346.346ZM130.936 344.906C131.522 344.906 132.029 344.766 132.456 344.486C132.896 344.206 133.229 343.799 133.456 343.266C133.696 342.733 133.816 342.073 133.816 341.286C133.816 340.113 133.556 339.219 133.036 338.606C132.516 337.993 131.816 337.686 130.936 337.686C130.362 337.686 129.856 337.826 129.416 338.106C128.989 338.373 128.656 338.773 128.416 339.306C128.176 339.839 128.056 340.499 128.056 341.286C128.056 342.459 128.316 343.359 128.836 343.986C129.369 344.599 130.069 344.906 130.936 344.906ZM145.442 349.906C145.229 349.906 145.049 349.846 144.902 349.726C144.769 349.619 144.689 349.466 144.662 349.266C144.649 349.079 144.689 348.879 144.782 348.666L146.142 345.586V346.346L142.362 337.546C142.269 337.319 142.235 337.113 142.262 336.926C142.289 336.739 142.375 336.586 142.522 336.466C142.682 336.346 142.895 336.286 143.162 336.286C143.389 336.286 143.569 336.339 143.702 336.446C143.835 336.553 143.962 336.739 144.082 337.006L147.222 344.746H146.662L149.862 337.006C149.969 336.739 150.095 336.553 150.242 336.446C150.389 336.339 150.589 336.286 150.842 336.286C151.069 336.286 151.242 336.346 151.362 336.466C151.495 336.586 151.575 336.739 151.602 336.926C151.629 337.113 151.589 337.313 151.482 337.526L146.442 349.186C146.309 349.466 146.169 349.653 146.022 349.746C145.889 349.853 145.695 349.906 145.442 349.906ZM157.518 346.346C156.558 346.346 155.725 346.139 155.018 345.726C154.311 345.313 153.765 344.726 153.378 343.966C152.991 343.206 152.798 342.313 152.798 341.286C152.798 340.513 152.905 339.819 153.118 339.206C153.345 338.579 153.665 338.046 154.078 337.606C154.491 337.166 154.985 336.833 155.558 336.606C156.145 336.366 156.798 336.246 157.518 336.246C158.478 336.246 159.311 336.453 160.018 336.866C160.725 337.279 161.271 337.866 161.658 338.626C162.045 339.373 162.238 340.259 162.238 341.286C162.238 342.059 162.125 342.759 161.898 343.386C161.685 344.013 161.371 344.546 160.958 344.986C160.545 345.426 160.045 345.766 159.458 346.006C158.885 346.233 158.238 346.346 157.518 346.346ZM157.518 344.906C158.105 344.906 158.611 344.766 159.038 344.486C159.478 344.206 159.811 343.799 160.038 343.266C160.278 342.733 160.398 342.073 160.398 341.286C160.398 340.113 160.138 339.219 159.618 338.606C159.098 337.993 158.398 337.686 157.518 337.686C156.945 337.686 156.438 337.826 155.998 338.106C155.571 338.373 155.238 338.773 154.998 339.306C154.758 339.839 154.638 340.499 154.638 341.286C154.638 342.459 154.898 343.359 155.418 343.986C155.951 344.599 156.651 344.906 157.518 344.906ZM168.049 346.346C167.263 346.346 166.603 346.199 166.069 345.906C165.549 345.613 165.163 345.179 164.909 344.606C164.656 344.033 164.529 343.313 164.529 342.446V337.206C164.529 336.899 164.603 336.673 164.749 336.526C164.909 336.366 165.136 336.286 165.429 336.286C165.723 336.286 165.949 336.366 166.109 336.526C166.269 336.673 166.349 336.899 166.349 337.206V342.446C166.349 343.273 166.516 343.886 166.849 344.286C167.183 344.673 167.709 344.866 168.429 344.866C169.229 344.866 169.876 344.599 170.369 344.066C170.876 343.533 171.129 342.826 171.129 341.946V337.206C171.129 336.899 171.203 336.673 171.349 336.526C171.509 336.366 171.736 336.286 172.029 336.286C172.323 336.286 172.549 336.366 172.709 336.526C172.869 336.673 172.949 336.899 172.949 337.206V345.366C172.949 345.993 172.656 346.306 172.069 346.306C171.776 346.306 171.549 346.226 171.389 346.066C171.243 345.906 171.169 345.673 171.169 345.366V343.626L171.429 343.966C171.163 344.739 170.729 345.333 170.129 345.746C169.543 346.146 168.849 346.346 168.049 346.346ZM176.818 346.306C176.511 346.306 176.278 346.226 176.118 346.066C175.958 345.906 175.878 345.673 175.878 345.366V337.206C175.878 336.899 175.958 336.673 176.118 336.526C176.278 336.366 176.498 336.286 176.778 336.286C177.058 336.286 177.271 336.366 177.418 336.526C177.578 336.673 177.658 336.899 177.658 337.206V338.746H177.458C177.671 337.946 178.071 337.339 178.658 336.926C179.245 336.513 179.985 336.279 180.878 336.226C181.091 336.213 181.265 336.266 181.398 336.386C181.531 336.493 181.605 336.679 181.618 336.946C181.631 337.199 181.571 337.406 181.438 337.566C181.305 337.713 181.098 337.799 180.818 337.826L180.458 337.846C179.578 337.939 178.898 338.226 178.418 338.706C177.951 339.186 177.718 339.846 177.718 340.686V345.366C177.718 345.673 177.638 345.906 177.478 346.066C177.331 346.226 177.111 346.306 176.818 346.306ZM192.437 346.346C191.651 346.346 190.991 346.206 190.457 345.926C189.937 345.646 189.544 345.239 189.277 344.706C189.024 344.173 188.897 343.519 188.897 342.746V337.826H187.617C187.377 337.826 187.191 337.766 187.057 337.646C186.924 337.513 186.857 337.339 186.857 337.126C186.857 336.899 186.924 336.726 187.057 336.606C187.191 336.486 187.377 336.426 187.617 336.426H188.897V334.246C188.897 333.939 188.977 333.713 189.137 333.566C189.297 333.406 189.524 333.326 189.817 333.326C190.111 333.326 190.331 333.406 190.477 333.566C190.637 333.713 190.717 333.939 190.717 334.246V336.426H193.137C193.391 336.426 193.584 336.486 193.717 336.606C193.851 336.726 193.917 336.899 193.917 337.126C193.917 337.339 193.851 337.513 193.717 337.646C193.584 337.766 193.391 337.826 193.137 337.826H190.717V342.586C190.717 343.319 190.871 343.873 191.177 344.246C191.484 344.619 191.991 344.806 192.697 344.806C192.951 344.806 193.164 344.786 193.337 344.746C193.511 344.693 193.664 344.666 193.797 344.666C193.917 344.653 194.017 344.693 194.097 344.786C194.191 344.879 194.237 345.053 194.237 345.306C194.237 345.493 194.204 345.666 194.137 345.826C194.084 345.973 193.971 346.073 193.797 346.126C193.637 346.179 193.424 346.226 193.157 346.266C192.891 346.319 192.651 346.346 192.437 346.346ZM198.665 346.346C197.999 346.346 197.392 346.213 196.845 345.946C196.312 345.679 195.892 345.319 195.585 344.866C195.292 344.413 195.145 343.906 195.145 343.346C195.145 342.626 195.325 342.059 195.685 341.646C196.045 341.233 196.652 340.939 197.505 340.766C198.359 340.579 199.505 340.486 200.945 340.486H201.885V341.646H200.985C199.959 341.646 199.145 341.693 198.545 341.786C197.959 341.879 197.545 342.046 197.305 342.286C197.065 342.513 196.945 342.833 196.945 343.246C196.945 343.766 197.125 344.193 197.485 344.526C197.859 344.859 198.365 345.026 199.005 345.026C199.512 345.026 199.959 344.906 200.345 344.666C200.732 344.413 201.039 344.079 201.265 343.666C201.492 343.239 201.605 342.753 201.605 342.206V339.906C201.605 339.119 201.445 338.553 201.125 338.206C200.805 337.846 200.265 337.666 199.505 337.666C199.065 337.666 198.612 337.726 198.145 337.846C197.679 337.966 197.192 338.153 196.685 338.406C196.485 338.499 196.312 338.533 196.165 338.506C196.019 338.466 195.899 338.386 195.805 338.266C195.725 338.133 195.679 337.993 195.665 337.846C195.665 337.686 195.699 337.533 195.765 337.386C195.845 337.239 195.979 337.133 196.165 337.066C196.752 336.773 197.332 336.566 197.905 336.446C198.492 336.313 199.039 336.246 199.545 336.246C200.412 336.246 201.125 336.386 201.685 336.666C202.245 336.933 202.665 337.353 202.945 337.926C203.225 338.486 203.365 339.206 203.365 340.086V345.366C203.365 345.673 203.292 345.906 203.145 346.066C202.999 346.226 202.785 346.306 202.505 346.306C202.239 346.306 202.025 346.226 201.865 346.066C201.719 345.906 201.645 345.673 201.645 345.366V343.946H201.825C201.719 344.439 201.519 344.866 201.225 345.226C200.932 345.586 200.565 345.866 200.125 346.066C199.699 346.253 199.212 346.346 198.665 346.346ZM209.289 346.346C208.289 346.346 207.529 346.053 207.009 345.466C206.489 344.866 206.229 344.006 206.229 342.886V332.846C206.229 332.539 206.309 332.313 206.469 332.166C206.629 332.006 206.849 331.926 207.129 331.926C207.423 331.926 207.649 332.006 207.809 332.166C207.969 332.313 208.049 332.539 208.049 332.846V342.746C208.049 343.439 208.189 343.959 208.469 344.306C208.763 344.639 209.176 344.806 209.709 344.806C209.829 344.806 209.936 344.806 210.029 344.806C210.123 344.793 210.216 344.779 210.309 344.766C210.456 344.753 210.563 344.793 210.629 344.886C210.696 344.979 210.729 345.166 210.729 345.446C210.729 345.699 210.669 345.899 210.549 346.046C210.443 346.179 210.263 346.266 210.009 346.306C209.889 346.319 209.769 346.326 209.649 346.326C209.529 346.339 209.409 346.346 209.289 346.346ZM216.647 346.346C215.594 346.346 214.687 346.146 213.927 345.746C213.181 345.333 212.601 344.753 212.187 344.006C211.774 343.246 211.567 342.353 211.567 341.326C211.567 340.313 211.767 339.426 212.167 338.666C212.581 337.906 213.141 337.313 213.847 336.886C214.567 336.459 215.387 336.246 216.307 336.246C216.961 336.246 217.547 336.359 218.067 336.586C218.601 336.799 219.054 337.113 219.427 337.526C219.801 337.939 220.081 338.446 220.267 339.046C220.467 339.633 220.567 340.299 220.567 341.046C220.567 341.259 220.501 341.426 220.367 341.546C220.247 341.653 220.067 341.706 219.827 341.706H212.987V340.546H219.367L219.027 340.826C219.027 340.133 218.921 339.546 218.707 339.066C218.507 338.573 218.207 338.199 217.807 337.946C217.421 337.693 216.934 337.566 216.347 337.566C215.707 337.566 215.161 337.719 214.707 338.026C214.254 338.319 213.907 338.739 213.667 339.286C213.427 339.819 213.307 340.439 213.307 341.146V341.266C213.307 342.466 213.594 343.373 214.167 343.986C214.741 344.599 215.567 344.906 216.647 344.906C217.074 344.906 217.507 344.853 217.947 344.746C218.401 344.639 218.834 344.446 219.247 344.166C219.447 344.046 219.627 343.993 219.787 344.006C219.961 344.006 220.101 344.059 220.207 344.166C220.314 344.259 220.381 344.379 220.407 344.526C220.434 344.659 220.414 344.806 220.347 344.966C220.281 345.126 220.154 345.266 219.967 345.386C219.527 345.693 219.001 345.933 218.387 346.106C217.787 346.266 217.207 346.346 216.647 346.346ZM223.731 346.306C223.451 346.306 223.231 346.226 223.071 346.066C222.911 345.906 222.831 345.673 222.831 345.366V337.206C222.831 336.899 222.911 336.673 223.071 336.526C223.231 336.366 223.451 336.286 223.731 336.286C224.011 336.286 224.224 336.366 224.371 336.526C224.531 336.673 224.611 336.899 224.611 337.206V338.846L224.391 338.546C224.671 337.786 225.124 337.213 225.751 336.826C226.391 336.439 227.118 336.246 227.931 336.246C228.718 336.246 229.364 336.386 229.871 336.666C230.378 336.946 230.758 337.373 231.011 337.946C231.264 338.519 231.391 339.246 231.391 340.126V345.366C231.391 345.673 231.311 345.906 231.151 346.066C231.004 346.226 230.784 346.306 230.491 346.306C230.198 346.306 229.971 346.226 229.811 346.066C229.651 345.906 229.571 345.673 229.571 345.366V340.226C229.571 339.359 229.404 338.726 229.071 338.326C228.738 337.926 228.204 337.726 227.471 337.726C226.618 337.726 225.931 337.993 225.411 338.526C224.904 339.046 224.651 339.753 224.651 340.646V345.366C224.651 345.993 224.344 346.306 223.731 346.306ZM238.316 346.346C237.53 346.346 236.87 346.206 236.336 345.926C235.816 345.646 235.423 345.239 235.156 344.706C234.903 344.173 234.776 343.519 234.776 342.746V337.826H233.496C233.256 337.826 233.07 337.766 232.936 337.646C232.803 337.513 232.736 337.339 232.736 337.126C232.736 336.899 232.803 336.726 232.936 336.606C233.07 336.486 233.256 336.426 233.496 336.426H234.776V334.246C234.776 333.939 234.856 333.713 235.016 333.566C235.176 333.406 235.403 333.326 235.696 333.326C235.99 333.326 236.21 333.406 236.356 333.566C236.516 333.713 236.596 333.939 236.596 334.246V336.426H239.016C239.27 336.426 239.463 336.486 239.596 336.606C239.73 336.726 239.796 336.899 239.796 337.126C239.796 337.339 239.73 337.513 239.596 337.646C239.463 337.766 239.27 337.826 239.016 337.826H236.596V342.586C236.596 343.319 236.75 343.873 237.056 344.246C237.363 344.619 237.87 344.806 238.576 344.806C238.83 344.806 239.043 344.786 239.216 344.746C239.39 344.693 239.543 344.666 239.676 344.666C239.796 344.653 239.896 344.693 239.976 344.786C240.07 344.879 240.116 345.053 240.116 345.306C240.116 345.493 240.083 345.666 240.016 345.826C239.963 345.973 239.85 346.073 239.676 346.126C239.516 346.179 239.303 346.226 239.036 346.266C238.77 346.319 238.53 346.346 238.316 346.346ZM27.6447 376.346C26.7914 376.346 26.0381 376.146 25.3847 375.746C24.7447 375.333 24.2447 374.746 23.8847 373.986C23.5247 373.213 23.3447 372.313 23.3447 371.286C23.3447 370.246 23.5181 369.353 23.8647 368.606C24.2247 367.846 24.7247 367.266 25.3647 366.866C26.0181 366.453 26.7781 366.246 27.6447 366.246C28.5114 366.246 29.2581 366.466 29.8847 366.906C30.5114 367.333 30.9314 367.906 31.1447 368.626H30.9247V362.846C30.9247 362.539 30.9981 362.313 31.1447 362.166C31.3047 362.006 31.5314 361.926 31.8247 361.926C32.1181 361.926 32.3447 362.006 32.5047 362.166C32.6647 362.313 32.7447 362.539 32.7447 362.846V375.366C32.7447 375.673 32.6647 375.906 32.5047 376.066C32.3447 376.226 32.1181 376.306 31.8247 376.306C31.5447 376.306 31.3247 376.226 31.1647 376.066C31.0047 375.906 30.9247 375.673 30.9247 375.366V373.546L31.1447 373.906C30.9447 374.653 30.5247 375.246 29.8847 375.686C29.2581 376.126 28.5114 376.346 27.6447 376.346ZM28.0647 374.906C28.6514 374.906 29.1581 374.766 29.5847 374.486C30.0247 374.206 30.3581 373.799 30.5847 373.266C30.8247 372.733 30.9447 372.073 30.9447 371.286C30.9447 370.113 30.6847 369.219 30.1647 368.606C29.6447 367.993 28.9447 367.686 28.0647 367.686C27.4914 367.686 26.9847 367.826 26.5447 368.106C26.1181 368.373 25.7847 368.773 25.5447 369.306C25.3047 369.839 25.1847 370.499 25.1847 371.286C25.1847 372.459 25.4447 373.359 25.9647 373.986C26.4981 374.599 27.1981 374.906 28.0647 374.906ZM40.163 376.346C39.1097 376.346 38.203 376.146 37.443 375.746C36.6963 375.333 36.1163 374.753 35.703 374.006C35.2897 373.246 35.083 372.353 35.083 371.326C35.083 370.313 35.283 369.426 35.683 368.666C36.0963 367.906 36.6563 367.313 37.363 366.886C38.083 366.459 38.903 366.246 39.823 366.246C40.4763 366.246 41.063 366.359 41.583 366.586C42.1163 366.799 42.5697 367.113 42.943 367.526C43.3163 367.939 43.5963 368.446 43.783 369.046C43.983 369.633 44.083 370.299 44.083 371.046C44.083 371.259 44.0163 371.426 43.883 371.546C43.763 371.653 43.583 371.706 43.343 371.706H36.503V370.546H42.883L42.543 370.826C42.543 370.133 42.4363 369.546 42.223 369.066C42.023 368.573 41.723 368.199 41.323 367.946C40.9363 367.693 40.4497 367.566 39.863 367.566C39.223 367.566 38.6763 367.719 38.223 368.026C37.7697 368.319 37.423 368.739 37.183 369.286C36.943 369.819 36.823 370.439 36.823 371.146V371.266C36.823 372.466 37.1097 373.373 37.683 373.986C38.2563 374.599 39.083 374.906 40.163 374.906C40.5897 374.906 41.023 374.853 41.463 374.746C41.9163 374.639 42.3497 374.446 42.763 374.166C42.963 374.046 43.143 373.993 43.303 374.006C43.4763 374.006 43.6163 374.059 43.723 374.166C43.8297 374.259 43.8963 374.379 43.923 374.526C43.9497 374.659 43.9297 374.806 43.863 374.966C43.7963 375.126 43.6697 375.266 43.483 375.386C43.043 375.693 42.5163 375.933 41.903 376.106C41.303 376.266 40.723 376.346 40.163 376.346ZM49.9099 376.306C49.6565 376.306 49.4365 376.239 49.2499 376.106C49.0632 375.973 48.9032 375.759 48.7699 375.466L45.3699 367.546C45.2765 367.319 45.2432 367.113 45.2699 366.926C45.2965 366.739 45.3832 366.586 45.5299 366.466C45.6899 366.346 45.9032 366.286 46.1699 366.286C46.3965 366.286 46.5765 366.339 46.7099 366.446C46.8432 366.553 46.9699 366.739 47.0899 367.006L50.2299 374.746H49.6699L52.8899 367.006C52.9965 366.739 53.1165 366.553 53.2499 366.446C53.3965 366.339 53.5965 366.286 53.8499 366.286C54.0765 366.286 54.2499 366.346 54.3699 366.466C54.5032 366.586 54.5832 366.739 54.6099 366.926C54.6365 367.113 54.5965 367.313 54.4899 367.526L51.0699 375.466C50.9499 375.759 50.7899 375.973 50.5899 376.106C50.4032 376.239 50.1765 376.306 49.9099 376.306ZM60.9052 376.346C59.8519 376.346 58.9452 376.146 58.1852 375.746C57.4385 375.333 56.8585 374.753 56.4452 374.006C56.0319 373.246 55.8252 372.353 55.8252 371.326C55.8252 370.313 56.0252 369.426 56.4252 368.666C56.8385 367.906 57.3985 367.313 58.1052 366.886C58.8252 366.459 59.6452 366.246 60.5652 366.246C61.2185 366.246 61.8052 366.359 62.3252 366.586C62.8585 366.799 63.3119 367.113 63.6852 367.526C64.0585 367.939 64.3385 368.446 64.5252 369.046C64.7252 369.633 64.8252 370.299 64.8252 371.046C64.8252 371.259 64.7585 371.426 64.6252 371.546C64.5052 371.653 64.3252 371.706 64.0852 371.706H57.2452V370.546H63.6252L63.2852 370.826C63.2852 370.133 63.1785 369.546 62.9652 369.066C62.7652 368.573 62.4652 368.199 62.0652 367.946C61.6785 367.693 61.1919 367.566 60.6052 367.566C59.9652 367.566 59.4185 367.719 58.9652 368.026C58.5119 368.319 58.1652 368.739 57.9252 369.286C57.6852 369.819 57.5652 370.439 57.5652 371.146V371.266C57.5652 372.466 57.8519 373.373 58.4252 373.986C58.9985 374.599 59.8252 374.906 60.9052 374.906C61.3319 374.906 61.7652 374.853 62.2052 374.746C62.6585 374.639 63.0919 374.446 63.5052 374.166C63.7052 374.046 63.8852 373.993 64.0452 374.006C64.2185 374.006 64.3585 374.059 64.4652 374.166C64.5719 374.259 64.6385 374.379 64.6652 374.526C64.6919 374.659 64.6719 374.806 64.6052 374.966C64.5385 375.126 64.4119 375.266 64.2252 375.386C63.7852 375.693 63.2585 375.933 62.6452 376.106C62.0452 376.266 61.4652 376.346 60.9052 376.346ZM70.1488 376.346C69.1488 376.346 68.3888 376.053 67.8688 375.466C67.3488 374.866 67.0888 374.006 67.0888 372.886V362.846C67.0888 362.539 67.1688 362.313 67.3288 362.166C67.4888 362.006 67.7088 361.926 67.9888 361.926C68.2821 361.926 68.5088 362.006 68.6688 362.166C68.8288 362.313 68.9088 362.539 68.9088 362.846V372.746C68.9088 373.439 69.0488 373.959 69.3288 374.306C69.6221 374.639 70.0355 374.806 70.5688 374.806C70.6888 374.806 70.7955 374.806 70.8888 374.806C70.9821 374.793 71.0755 374.779 71.1688 374.766C71.3155 374.753 71.4221 374.793 71.4888 374.886C71.5555 374.979 71.5888 375.166 71.5888 375.446C71.5888 375.699 71.5288 375.899 71.4088 376.046C71.3021 376.179 71.1221 376.266 70.8688 376.306C70.7488 376.319 70.6288 376.326 70.5088 376.326C70.3888 376.339 70.2688 376.346 70.1488 376.346ZM77.1468 376.346C76.1868 376.346 75.3534 376.139 74.6468 375.726C73.9401 375.313 73.3934 374.726 73.0068 373.966C72.6201 373.206 72.4268 372.313 72.4268 371.286C72.4268 370.513 72.5334 369.819 72.7468 369.206C72.9734 368.579 73.2934 368.046 73.7068 367.606C74.1201 367.166 74.6134 366.833 75.1868 366.606C75.7734 366.366 76.4268 366.246 77.1468 366.246C78.1068 366.246 78.9401 366.453 79.6468 366.866C80.3534 367.279 80.9001 367.866 81.2868 368.626C81.6734 369.373 81.8668 370.259 81.8668 371.286C81.8668 372.059 81.7534 372.759 81.5268 373.386C81.3134 374.013 81.0001 374.546 80.5868 374.986C80.1734 375.426 79.6734 375.766 79.0868 376.006C78.5134 376.233 77.8668 376.346 77.1468 376.346ZM77.1468 374.906C77.7334 374.906 78.2401 374.766 78.6668 374.486C79.1068 374.206 79.4401 373.799 79.6668 373.266C79.9068 372.733 80.0268 372.073 80.0268 371.286C80.0268 370.113 79.7668 369.219 79.2468 368.606C78.7268 367.993 78.0268 367.686 77.1468 367.686C76.5734 367.686 76.0668 367.826 75.6268 368.106C75.2001 368.373 74.8668 368.773 74.6268 369.306C74.3868 369.839 74.2668 370.499 74.2668 371.286C74.2668 372.459 74.5268 373.359 75.0468 373.986C75.5801 374.599 76.2801 374.906 77.1468 374.906ZM85.0982 379.906C84.8182 379.906 84.5982 379.826 84.4382 379.666C84.2782 379.506 84.1982 379.279 84.1982 378.986V367.206C84.1982 366.899 84.2782 366.673 84.4382 366.526C84.5982 366.366 84.8182 366.286 85.0982 366.286C85.3915 366.286 85.6115 366.366 85.7582 366.526C85.9182 366.673 85.9982 366.899 85.9982 367.206V369.026L85.7782 368.666C85.9915 367.933 86.4115 367.346 87.0382 366.906C87.6648 366.466 88.4182 366.246 89.2982 366.246C90.1648 366.246 90.9182 366.453 91.5582 366.866C92.1982 367.266 92.6982 367.846 93.0582 368.606C93.4182 369.353 93.5982 370.246 93.5982 371.286C93.5982 372.313 93.4182 373.213 93.0582 373.986C92.7115 374.746 92.2115 375.333 91.5582 375.746C90.9182 376.146 90.1648 376.346 89.2982 376.346C88.4315 376.346 87.6848 376.126 87.0582 375.686C86.4315 375.246 86.0115 374.666 85.7982 373.946H86.0182V378.986C86.0182 379.279 85.9382 379.506 85.7782 379.666C85.6182 379.826 85.3915 379.906 85.0982 379.906ZM88.8782 374.906C89.4515 374.906 89.9515 374.766 90.3782 374.486C90.8182 374.206 91.1582 373.799 91.3982 373.266C91.6382 372.733 91.7582 372.073 91.7582 371.286C91.7582 370.113 91.4982 369.219 90.9782 368.606C90.4582 367.993 89.7582 367.686 88.8782 367.686C88.2915 367.686 87.7782 367.826 87.3382 368.106C86.9115 368.373 86.5782 368.773 86.3382 369.306C86.1115 369.839 85.9982 370.499 85.9982 371.286C85.9982 372.459 86.2582 373.359 86.7782 373.986C87.2982 374.599 87.9982 374.906 88.8782 374.906ZM96.8764 376.306C96.5964 376.306 96.3764 376.226 96.2164 376.066C96.0564 375.906 95.9764 375.673 95.9764 375.366V367.206C95.9764 366.899 96.0564 366.673 96.2164 366.526C96.3764 366.366 96.5964 366.286 96.8764 366.286C97.1564 366.286 97.3698 366.366 97.5164 366.526C97.6764 366.673 97.7564 366.899 97.7564 367.206V368.906L97.5364 368.546C97.7898 367.813 98.1964 367.246 98.7564 366.846C99.3298 366.446 100.01 366.246 100.796 366.246C101.623 366.246 102.29 366.446 102.796 366.846C103.303 367.233 103.643 367.826 103.816 368.626H103.536C103.776 367.893 104.203 367.313 104.816 366.886C105.443 366.459 106.17 366.246 106.996 366.246C107.73 366.246 108.33 366.393 108.796 366.686C109.276 366.966 109.636 367.393 109.876 367.966C110.116 368.526 110.236 369.246 110.236 370.126V375.366C110.236 375.673 110.156 375.906 109.996 376.066C109.836 376.226 109.616 376.306 109.336 376.306C109.043 376.306 108.816 376.226 108.656 376.066C108.496 375.906 108.416 375.673 108.416 375.366V370.206C108.416 369.353 108.27 368.726 107.976 368.326C107.683 367.926 107.19 367.726 106.496 367.726C105.736 367.726 105.13 367.993 104.676 368.526C104.236 369.046 104.016 369.766 104.016 370.686V375.366C104.016 375.673 103.936 375.906 103.776 376.066C103.63 376.226 103.41 376.306 103.116 376.306C102.823 376.306 102.596 376.226 102.436 376.066C102.276 375.906 102.196 375.673 102.196 375.366V370.206C102.196 369.353 102.05 368.726 101.756 368.326C101.463 367.926 100.97 367.726 100.276 367.726C99.5164 367.726 98.9098 367.993 98.4564 368.526C98.0164 369.046 97.7964 369.766 97.7964 370.686V375.366C97.7964 375.993 97.4898 376.306 96.8764 376.306ZM117.663 376.346C116.61 376.346 115.703 376.146 114.943 375.746C114.196 375.333 113.616 374.753 113.203 374.006C112.79 373.246 112.583 372.353 112.583 371.326C112.583 370.313 112.783 369.426 113.183 368.666C113.596 367.906 114.156 367.313 114.863 366.886C115.583 366.459 116.403 366.246 117.323 366.246C117.976 366.246 118.563 366.359 119.083 366.586C119.616 366.799 120.07 367.113 120.443 367.526C120.816 367.939 121.096 368.446 121.283 369.046C121.483 369.633 121.583 370.299 121.583 371.046C121.583 371.259 121.516 371.426 121.383 371.546C121.263 371.653 121.083 371.706 120.843 371.706H114.003V370.546H120.383L120.043 370.826C120.043 370.133 119.936 369.546 119.723 369.066C119.523 368.573 119.223 368.199 118.823 367.946C118.436 367.693 117.95 367.566 117.363 367.566C116.723 367.566 116.176 367.719 115.723 368.026C115.27 368.319 114.923 368.739 114.683 369.286C114.443 369.819 114.323 370.439 114.323 371.146V371.266C114.323 372.466 114.61 373.373 115.183 373.986C115.756 374.599 116.583 374.906 117.663 374.906C118.09 374.906 118.523 374.853 118.963 374.746C119.416 374.639 119.85 374.446 120.263 374.166C120.463 374.046 120.643 373.993 120.803 374.006C120.976 374.006 121.116 374.059 121.223 374.166C121.33 374.259 121.396 374.379 121.423 374.526C121.45 374.659 121.43 374.806 121.363 374.966C121.296 375.126 121.17 375.266 120.983 375.386C120.543 375.693 120.016 375.933 119.403 376.106C118.803 376.266 118.223 376.346 117.663 376.346ZM124.747 376.306C124.467 376.306 124.247 376.226 124.087 376.066C123.927 375.906 123.847 375.673 123.847 375.366V367.206C123.847 366.899 123.927 366.673 124.087 366.526C124.247 366.366 124.467 366.286 124.747 366.286C125.027 366.286 125.24 366.366 125.387 366.526C125.547 366.673 125.627 366.899 125.627 367.206V368.846L125.407 368.546C125.687 367.786 126.14 367.213 126.767 366.826C127.407 366.439 128.133 366.246 128.947 366.246C129.733 366.246 130.38 366.386 130.887 366.666C131.393 366.946 131.773 367.373 132.027 367.946C132.28 368.519 132.407 369.246 132.407 370.126V375.366C132.407 375.673 132.327 375.906 132.167 376.066C132.02 376.226 131.8 376.306 131.507 376.306C131.213 376.306 130.987 376.226 130.827 376.066C130.667 375.906 130.587 375.673 130.587 375.366V370.226C130.587 369.359 130.42 368.726 130.087 368.326C129.753 367.926 129.22 367.726 128.487 367.726C127.633 367.726 126.947 367.993 126.427 368.526C125.92 369.046 125.667 369.753 125.667 370.646V375.366C125.667 375.993 125.36 376.306 124.747 376.306ZM139.332 376.346C138.545 376.346 137.885 376.206 137.352 375.926C136.832 375.646 136.439 375.239 136.172 374.706C135.919 374.173 135.792 373.519 135.792 372.746V367.826H134.512C134.272 367.826 134.085 367.766 133.952 367.646C133.819 367.513 133.752 367.339 133.752 367.126C133.752 366.899 133.819 366.726 133.952 366.606C134.085 366.486 134.272 366.426 134.512 366.426H135.792V364.246C135.792 363.939 135.872 363.713 136.032 363.566C136.192 363.406 136.419 363.326 136.712 363.326C137.005 363.326 137.225 363.406 137.372 363.566C137.532 363.713 137.612 363.939 137.612 364.246V366.426H140.032C140.285 366.426 140.479 366.486 140.612 366.606C140.745 366.726 140.812 366.899 140.812 367.126C140.812 367.339 140.745 367.513 140.612 367.646C140.479 367.766 140.285 367.826 140.032 367.826H137.612V372.586C137.612 373.319 137.765 373.873 138.072 374.246C138.379 374.619 138.885 374.806 139.592 374.806C139.845 374.806 140.059 374.786 140.232 374.746C140.405 374.693 140.559 374.666 140.692 374.666C140.812 374.653 140.912 374.693 140.992 374.786C141.085 374.879 141.132 375.053 141.132 375.306C141.132 375.493 141.099 375.666 141.032 375.826C140.979 375.973 140.865 376.073 140.692 376.126C140.532 376.179 140.319 376.226 140.052 376.266C139.785 376.319 139.545 376.346 139.332 376.346ZM148.575 379.906C148.295 379.906 148.075 379.826 147.915 379.666C147.755 379.506 147.675 379.279 147.675 378.986V367.206C147.675 366.899 147.755 366.673 147.915 366.526C148.075 366.366 148.295 366.286 148.575 366.286C148.868 366.286 149.088 366.366 149.235 366.526C149.395 366.673 149.475 366.899 149.475 367.206V369.026L149.255 368.666C149.468 367.933 149.888 367.346 150.515 366.906C151.141 366.466 151.895 366.246 152.775 366.246C153.641 366.246 154.395 366.453 155.035 366.866C155.675 367.266 156.175 367.846 156.535 368.606C156.895 369.353 157.075 370.246 157.075 371.286C157.075 372.313 156.895 373.213 156.535 373.986C156.188 374.746 155.688 375.333 155.035 375.746C154.395 376.146 153.641 376.346 152.775 376.346C151.908 376.346 151.161 376.126 150.535 375.686C149.908 375.246 149.488 374.666 149.275 373.946H149.495V378.986C149.495 379.279 149.415 379.506 149.255 379.666C149.095 379.826 148.868 379.906 148.575 379.906ZM152.355 374.906C152.928 374.906 153.428 374.766 153.855 374.486C154.295 374.206 154.635 373.799 154.875 373.266C155.115 372.733 155.235 372.073 155.235 371.286C155.235 370.113 154.975 369.219 154.455 368.606C153.935 367.993 153.235 367.686 152.355 367.686C151.768 367.686 151.255 367.826 150.815 368.106C150.388 368.373 150.055 368.773 149.815 369.306C149.588 369.839 149.475 370.499 149.475 371.286C149.475 372.459 149.735 373.359 150.255 373.986C150.775 374.599 151.475 374.906 152.355 374.906ZM160.353 376.306C160.046 376.306 159.813 376.226 159.653 376.066C159.493 375.906 159.413 375.673 159.413 375.366V367.206C159.413 366.899 159.493 366.673 159.653 366.526C159.813 366.366 160.033 366.286 160.313 366.286C160.593 366.286 160.806 366.366 160.953 366.526C161.113 366.673 161.193 366.899 161.193 367.206V368.746H160.993C161.206 367.946 161.606 367.339 162.193 366.926C162.78 366.513 163.52 366.279 164.413 366.226C164.626 366.213 164.8 366.266 164.933 366.386C165.066 366.493 165.14 366.679 165.153 366.946C165.166 367.199 165.106 367.406 164.973 367.566C164.84 367.713 164.633 367.799 164.353 367.826L163.993 367.846C163.113 367.939 162.433 368.226 161.953 368.706C161.486 369.186 161.253 369.846 161.253 370.686V375.366C161.253 375.673 161.173 375.906 161.013 376.066C160.866 376.226 160.646 376.306 160.353 376.306ZM170.721 376.346C169.761 376.346 168.928 376.139 168.221 375.726C167.514 375.313 166.968 374.726 166.581 373.966C166.194 373.206 166.001 372.313 166.001 371.286C166.001 370.513 166.108 369.819 166.321 369.206C166.548 368.579 166.868 368.046 167.281 367.606C167.694 367.166 168.188 366.833 168.761 366.606C169.348 366.366 170.001 366.246 170.721 366.246C171.681 366.246 172.514 366.453 173.221 366.866C173.928 367.279 174.474 367.866 174.861 368.626C175.248 369.373 175.441 370.259 175.441 371.286C175.441 372.059 175.328 372.759 175.101 373.386C174.888 374.013 174.574 374.546 174.161 374.986C173.748 375.426 173.248 375.766 172.661 376.006C172.088 376.233 171.441 376.346 170.721 376.346ZM170.721 374.906C171.308 374.906 171.814 374.766 172.241 374.486C172.681 374.206 173.014 373.799 173.241 373.266C173.481 372.733 173.601 372.073 173.601 371.286C173.601 370.113 173.341 369.219 172.821 368.606C172.301 367.993 171.601 367.686 170.721 367.686C170.148 367.686 169.641 367.826 169.201 368.106C168.774 368.373 168.441 368.773 168.201 369.306C167.961 369.839 167.841 370.499 167.841 371.286C167.841 372.459 168.101 373.359 168.621 373.986C169.154 374.599 169.854 374.906 170.721 374.906ZM181.992 376.346C181.006 376.346 180.152 376.139 179.432 375.726C178.712 375.299 178.159 374.706 177.772 373.946C177.386 373.173 177.192 372.266 177.192 371.226C177.192 370.453 177.299 369.759 177.512 369.146C177.739 368.533 178.059 368.013 178.472 367.586C178.886 367.146 179.386 366.813 179.972 366.586C180.572 366.359 181.246 366.246 181.992 366.246C182.459 366.246 182.952 366.319 183.472 366.466C183.992 366.613 184.472 366.853 184.912 367.186C185.059 367.293 185.152 367.419 185.192 367.566C185.232 367.699 185.232 367.839 185.192 367.986C185.166 368.133 185.099 368.259 184.992 368.366C184.899 368.459 184.772 368.513 184.612 368.526C184.466 368.539 184.306 368.493 184.132 368.386C183.812 368.146 183.472 367.973 183.112 367.866C182.766 367.759 182.432 367.706 182.112 367.706C181.619 367.706 181.179 367.786 180.792 367.946C180.419 368.106 180.099 368.339 179.832 368.646C179.579 368.939 179.386 369.306 179.252 369.746C179.119 370.173 179.052 370.673 179.052 371.246C179.052 372.379 179.319 373.273 179.852 373.926C180.386 374.566 181.139 374.886 182.112 374.886C182.432 374.886 182.766 374.839 183.112 374.746C183.459 374.639 183.799 374.466 184.132 374.226C184.306 374.119 184.466 374.079 184.612 374.106C184.759 374.119 184.879 374.179 184.972 374.286C185.079 374.379 185.146 374.499 185.172 374.646C185.199 374.779 185.186 374.919 185.132 375.066C185.092 375.213 184.999 375.333 184.852 375.426C184.426 375.746 183.959 375.979 183.452 376.126C182.946 376.273 182.459 376.346 181.992 376.346ZM191.374 376.346C190.321 376.346 189.414 376.146 188.654 375.746C187.907 375.333 187.327 374.753 186.914 374.006C186.501 373.246 186.294 372.353 186.294 371.326C186.294 370.313 186.494 369.426 186.894 368.666C187.307 367.906 187.867 367.313 188.574 366.886C189.294 366.459 190.114 366.246 191.034 366.246C191.687 366.246 192.274 366.359 192.794 366.586C193.327 366.799 193.781 367.113 194.154 367.526C194.527 367.939 194.807 368.446 194.994 369.046C195.194 369.633 195.294 370.299 195.294 371.046C195.294 371.259 195.227 371.426 195.094 371.546C194.974 371.653 194.794 371.706 194.554 371.706H187.714V370.546H194.094L193.754 370.826C193.754 370.133 193.647 369.546 193.434 369.066C193.234 368.573 192.934 368.199 192.534 367.946C192.147 367.693 191.661 367.566 191.074 367.566C190.434 367.566 189.887 367.719 189.434 368.026C188.981 368.319 188.634 368.739 188.394 369.286C188.154 369.819 188.034 370.439 188.034 371.146V371.266C188.034 372.466 188.321 373.373 188.894 373.986C189.467 374.599 190.294 374.906 191.374 374.906C191.801 374.906 192.234 374.853 192.674 374.746C193.127 374.639 193.561 374.446 193.974 374.166C194.174 374.046 194.354 373.993 194.514 374.006C194.687 374.006 194.827 374.059 194.934 374.166C195.041 374.259 195.107 374.379 195.134 374.526C195.161 374.659 195.141 374.806 195.074 374.966C195.007 375.126 194.881 375.266 194.694 375.386C194.254 375.693 193.727 375.933 193.114 376.106C192.514 376.266 191.934 376.346 191.374 376.346ZM200.918 376.346C200.318 376.346 199.711 376.279 199.098 376.146C198.498 375.999 197.931 375.753 197.398 375.406C197.251 375.313 197.144 375.199 197.078 375.066C197.024 374.919 197.004 374.779 197.018 374.646C197.044 374.499 197.104 374.373 197.198 374.266C197.291 374.159 197.404 374.099 197.538 374.086C197.684 374.059 197.838 374.093 197.998 374.186C198.518 374.479 199.018 374.686 199.498 374.806C199.991 374.926 200.478 374.986 200.958 374.986C201.691 374.986 202.244 374.853 202.618 374.586C202.991 374.319 203.178 373.966 203.178 373.526C203.178 373.153 203.051 372.866 202.798 372.666C202.558 372.453 202.178 372.293 201.658 372.186L199.798 371.806C198.971 371.619 198.344 371.313 197.918 370.886C197.504 370.446 197.298 369.886 197.298 369.206C197.298 368.606 197.458 368.086 197.778 367.646C198.111 367.193 198.571 366.846 199.158 366.606C199.744 366.366 200.418 366.246 201.178 366.246C201.764 366.246 202.318 366.326 202.838 366.486C203.371 366.633 203.851 366.859 204.278 367.166C204.438 367.259 204.538 367.379 204.578 367.526C204.631 367.659 204.638 367.799 204.598 367.946C204.571 368.079 204.511 368.193 204.418 368.286C204.324 368.379 204.204 368.439 204.058 368.466C203.911 368.479 203.751 368.439 203.578 368.346C203.191 368.079 202.791 367.893 202.378 367.786C201.978 367.666 201.578 367.606 201.178 367.606C200.458 367.606 199.911 367.746 199.538 368.026C199.178 368.306 198.998 368.673 198.998 369.126C198.998 369.473 199.104 369.759 199.318 369.986C199.544 370.213 199.898 370.379 200.378 370.486L202.238 370.866C203.104 371.053 203.758 371.353 204.198 371.766C204.638 372.166 204.858 372.713 204.858 373.406C204.858 374.313 204.498 375.033 203.778 375.566C203.071 376.086 202.118 376.346 200.918 376.346ZM210.586 376.346C209.986 376.346 209.379 376.279 208.766 376.146C208.166 375.999 207.599 375.753 207.066 375.406C206.919 375.313 206.812 375.199 206.746 375.066C206.692 374.919 206.672 374.779 206.686 374.646C206.712 374.499 206.772 374.373 206.866 374.266C206.959 374.159 207.072 374.099 207.206 374.086C207.352 374.059 207.506 374.093 207.666 374.186C208.186 374.479 208.686 374.686 209.166 374.806C209.659 374.926 210.146 374.986 210.626 374.986C211.359 374.986 211.912 374.853 212.286 374.586C212.659 374.319 212.846 373.966 212.846 373.526C212.846 373.153 212.719 372.866 212.466 372.666C212.226 372.453 211.846 372.293 211.326 372.186L209.466 371.806C208.639 371.619 208.012 371.313 207.586 370.886C207.172 370.446 206.966 369.886 206.966 369.206C206.966 368.606 207.126 368.086 207.446 367.646C207.779 367.193 208.239 366.846 208.826 366.606C209.412 366.366 210.086 366.246 210.846 366.246C211.432 366.246 211.986 366.326 212.506 366.486C213.039 366.633 213.519 366.859 213.946 367.166C214.106 367.259 214.206 367.379 214.246 367.526C214.299 367.659 214.306 367.799 214.266 367.946C214.239 368.079 214.179 368.193 214.086 368.286C213.992 368.379 213.872 368.439 213.726 368.466C213.579 368.479 213.419 368.439 213.246 368.346C212.859 368.079 212.459 367.893 212.046 367.786C211.646 367.666 211.246 367.606 210.846 367.606C210.126 367.606 209.579 367.746 209.206 368.026C208.846 368.306 208.666 368.673 208.666 369.126C208.666 369.473 208.772 369.759 208.986 369.986C209.212 370.213 209.566 370.379 210.046 370.486L211.906 370.866C212.772 371.053 213.426 371.353 213.866 371.766C214.306 372.166 214.526 372.713 214.526 373.406C214.526 374.313 214.166 375.033 213.446 375.566C212.739 376.086 211.786 376.346 210.586 376.346ZM221.393 376.346C220.34 376.346 219.433 376.146 218.673 375.746C217.927 375.333 217.347 374.753 216.933 374.006C216.52 373.246 216.313 372.353 216.313 371.326C216.313 370.313 216.513 369.426 216.913 368.666C217.327 367.906 217.887 367.313 218.593 366.886C219.313 366.459 220.133 366.246 221.053 366.246C221.707 366.246 222.293 366.359 222.813 366.586C223.347 366.799 223.8 367.113 224.173 367.526C224.547 367.939 224.827 368.446 225.013 369.046C225.213 369.633 225.313 370.299 225.313 371.046C225.313 371.259 225.247 371.426 225.113 371.546C224.993 371.653 224.813 371.706 224.573 371.706H217.733V370.546H224.113L223.773 370.826C223.773 370.133 223.667 369.546 223.453 369.066C223.253 368.573 222.953 368.199 222.553 367.946C222.167 367.693 221.68 367.566 221.093 367.566C220.453 367.566 219.907 367.719 219.453 368.026C219 368.319 218.653 368.739 218.413 369.286C218.173 369.819 218.053 370.439 218.053 371.146V371.266C218.053 372.466 218.34 373.373 218.913 373.986C219.487 374.599 220.313 374.906 221.393 374.906C221.82 374.906 222.253 374.853 222.693 374.746C223.147 374.639 223.58 374.446 223.993 374.166C224.193 374.046 224.373 373.993 224.533 374.006C224.707 374.006 224.847 374.059 224.953 374.166C225.06 374.259 225.127 374.379 225.153 374.526C225.18 374.659 225.16 374.806 225.093 374.966C225.027 375.126 224.9 375.266 224.713 375.386C224.273 375.693 223.747 375.933 223.133 376.106C222.533 376.266 221.953 376.346 221.393 376.346ZM230.937 376.346C230.337 376.346 229.73 376.279 229.117 376.146C228.517 375.999 227.95 375.753 227.417 375.406C227.27 375.313 227.164 375.199 227.097 375.066C227.044 374.919 227.024 374.779 227.037 374.646C227.064 374.499 227.124 374.373 227.217 374.266C227.31 374.159 227.424 374.099 227.557 374.086C227.704 374.059 227.857 374.093 228.017 374.186C228.537 374.479 229.037 374.686 229.517 374.806C230.01 374.926 230.497 374.986 230.977 374.986C231.71 374.986 232.264 374.853 232.637 374.586C233.01 374.319 233.197 373.966 233.197 373.526C233.197 373.153 233.07 372.866 232.817 372.666C232.577 372.453 232.197 372.293 231.677 372.186L229.817 371.806C228.99 371.619 228.364 371.313 227.937 370.886C227.524 370.446 227.317 369.886 227.317 369.206C227.317 368.606 227.477 368.086 227.797 367.646C228.13 367.193 228.59 366.846 229.177 366.606C229.764 366.366 230.437 366.246 231.197 366.246C231.784 366.246 232.337 366.326 232.857 366.486C233.39 366.633 233.87 366.859 234.297 367.166C234.457 367.259 234.557 367.379 234.597 367.526C234.65 367.659 234.657 367.799 234.617 367.946C234.59 368.079 234.53 368.193 234.437 368.286C234.344 368.379 234.224 368.439 234.077 368.466C233.93 368.479 233.77 368.439 233.597 368.346C233.21 368.079 232.81 367.893 232.397 367.786C231.997 367.666 231.597 367.606 231.197 367.606C230.477 367.606 229.93 367.746 229.557 368.026C229.197 368.306 229.017 368.673 229.017 369.126C229.017 369.473 229.124 369.759 229.337 369.986C229.564 370.213 229.917 370.379 230.397 370.486L232.257 370.866C233.124 371.053 233.777 371.353 234.217 371.766C234.657 372.166 234.877 372.713 234.877 373.406C234.877 374.313 234.517 375.033 233.797 375.566C233.09 376.086 232.137 376.346 230.937 376.346ZM27.0247 406.346C26.3581 406.346 25.7514 406.213 25.2047 405.946C24.6714 405.679 24.2514 405.319 23.9447 404.866C23.6514 404.413 23.5047 403.906 23.5047 403.346C23.5047 402.626 23.6847 402.059 24.0447 401.646C24.4047 401.233 25.0114 400.939 25.8647 400.766C26.7181 400.579 27.8647 400.486 29.3047 400.486H30.2447V401.646H29.3447C28.3181 401.646 27.5047 401.693 26.9047 401.786C26.3181 401.879 25.9047 402.046 25.6647 402.286C25.4247 402.513 25.3047 402.833 25.3047 403.246C25.3047 403.766 25.4847 404.193 25.8447 404.526C26.2181 404.859 26.7247 405.026 27.3647 405.026C27.8714 405.026 28.3181 404.906 28.7047 404.666C29.0914 404.413 29.3981 404.079 29.6247 403.666C29.8514 403.239 29.9647 402.753 29.9647 402.206V399.906C29.9647 399.119 29.8047 398.553 29.4847 398.206C29.1647 397.846 28.6247 397.666 27.8647 397.666C27.4247 397.666 26.9714 397.726 26.5047 397.846C26.0381 397.966 25.5514 398.153 25.0447 398.406C24.8447 398.499 24.6714 398.533 24.5247 398.506C24.3781 398.466 24.2581 398.386 24.1647 398.266C24.0847 398.133 24.0381 397.993 24.0247 397.846C24.0247 397.686 24.0581 397.533 24.1247 397.386C24.2047 397.239 24.3381 397.133 24.5247 397.066C25.1114 396.773 25.6914 396.566 26.2647 396.446C26.8514 396.313 27.3981 396.246 27.9047 396.246C28.7714 396.246 29.4847 396.386 30.0447 396.666C30.6047 396.933 31.0247 397.353 31.3047 397.926C31.5847 398.486 31.7247 399.206 31.7247 400.086V405.366C31.7247 405.673 31.6514 405.906 31.5047 406.066C31.3581 406.226 31.1447 406.306 30.8647 406.306C30.5981 406.306 30.3847 406.226 30.2247 406.066C30.0781 405.906 30.0047 405.673 30.0047 405.366V403.946H30.1847C30.0781 404.439 29.8781 404.866 29.5847 405.226C29.2914 405.586 28.9247 405.866 28.4847 406.066C28.0581 406.253 27.5714 406.346 27.0247 406.346ZM35.4888 406.306C35.2088 406.306 34.9888 406.226 34.8288 406.066C34.6688 405.906 34.5888 405.673 34.5888 405.366V397.206C34.5888 396.899 34.6688 396.673 34.8288 396.526C34.9888 396.366 35.2088 396.286 35.4888 396.286C35.7688 396.286 35.9821 396.366 36.1288 396.526C36.2888 396.673 36.3688 396.899 36.3688 397.206V398.846L36.1488 398.546C36.4288 397.786 36.8821 397.213 37.5088 396.826C38.1488 396.439 38.8755 396.246 39.6888 396.246C40.4755 396.246 41.1221 396.386 41.6288 396.666C42.1355 396.946 42.5155 397.373 42.7688 397.946C43.0221 398.519 43.1488 399.246 43.1488 400.126V405.366C43.1488 405.673 43.0688 405.906 42.9088 406.066C42.7621 406.226 42.5421 406.306 42.2488 406.306C41.9555 406.306 41.7288 406.226 41.5688 406.066C41.4088 405.906 41.3288 405.673 41.3288 405.366V400.226C41.3288 399.359 41.1621 398.726 40.8288 398.326C40.4955 397.926 39.9621 397.726 39.2288 397.726C38.3755 397.726 37.6888 397.993 37.1688 398.526C36.6621 399.046 36.4088 399.753 36.4088 400.646V405.366C36.4088 405.993 36.1021 406.306 35.4888 406.306ZM49.7541 406.346C48.9008 406.346 48.1474 406.146 47.4941 405.746C46.8541 405.333 46.3541 404.746 45.9941 403.986C45.6341 403.213 45.4541 402.313 45.4541 401.286C45.4541 400.246 45.6274 399.353 45.9741 398.606C46.3341 397.846 46.8341 397.266 47.4741 396.866C48.1274 396.453 48.8874 396.246 49.7541 396.246C50.6208 396.246 51.3674 396.466 51.9941 396.906C52.6208 397.333 53.0408 397.906 53.2541 398.626H53.0341V392.846C53.0341 392.539 53.1074 392.313 53.2541 392.166C53.4141 392.006 53.6408 391.926 53.9341 391.926C54.2274 391.926 54.4541 392.006 54.6141 392.166C54.7741 392.313 54.8541 392.539 54.8541 392.846V405.366C54.8541 405.673 54.7741 405.906 54.6141 406.066C54.4541 406.226 54.2274 406.306 53.9341 406.306C53.6541 406.306 53.4341 406.226 53.2741 406.066C53.1141 405.906 53.0341 405.673 53.0341 405.366V403.546L53.2541 403.906C53.0541 404.653 52.6341 405.246 51.9941 405.686C51.3674 406.126 50.6208 406.346 49.7541 406.346ZM50.1741 404.906C50.7608 404.906 51.2674 404.766 51.6941 404.486C52.1341 404.206 52.4674 403.799 52.6941 403.266C52.9341 402.733 53.0541 402.073 53.0541 401.286C53.0541 400.113 52.7941 399.219 52.2741 398.606C51.7541 397.993 51.0541 397.686 50.1741 397.686C49.6008 397.686 49.0941 397.826 48.6541 398.106C48.2274 398.373 47.8941 398.773 47.6541 399.306C47.4141 399.839 47.2941 400.499 47.2941 401.286C47.2941 402.459 47.5541 403.359 48.0741 403.986C48.6074 404.599 49.3074 404.906 50.1741 404.906ZM67.2072 406.346C66.2206 406.346 65.3672 406.139 64.6472 405.726C63.9272 405.299 63.3739 404.706 62.9872 403.946C62.6006 403.173 62.4072 402.266 62.4072 401.226C62.4072 400.453 62.5139 399.759 62.7272 399.146C62.9539 398.533 63.2739 398.013 63.6872 397.586C64.1006 397.146 64.6006 396.813 65.1872 396.586C65.7872 396.359 66.4606 396.246 67.2072 396.246C67.6739 396.246 68.1672 396.319 68.6872 396.466C69.2072 396.613 69.6872 396.853 70.1272 397.186C70.2739 397.293 70.3672 397.419 70.4072 397.566C70.4472 397.699 70.4472 397.839 70.4072 397.986C70.3806 398.133 70.3139 398.259 70.2072 398.366C70.1139 398.459 69.9872 398.513 69.8272 398.526C69.6806 398.539 69.5206 398.493 69.3472 398.386C69.0272 398.146 68.6872 397.973 68.3272 397.866C67.9806 397.759 67.6472 397.706 67.3272 397.706C66.8339 397.706 66.3939 397.786 66.0072 397.946C65.6339 398.106 65.3139 398.339 65.0472 398.646C64.7939 398.939 64.6006 399.306 64.4672 399.746C64.3339 400.173 64.2672 400.673 64.2672 401.246C64.2672 402.379 64.5339 403.273 65.0672 403.926C65.6006 404.566 66.3539 404.886 67.3272 404.886C67.6472 404.886 67.9806 404.839 68.3272 404.746C68.6739 404.639 69.0139 404.466 69.3472 404.226C69.5206 404.119 69.6806 404.079 69.8272 404.106C69.9739 404.119 70.0939 404.179 70.1872 404.286C70.2939 404.379 70.3606 404.499 70.3872 404.646C70.4139 404.779 70.4006 404.919 70.3472 405.066C70.3072 405.213 70.2139 405.333 70.0672 405.426C69.6406 405.746 69.1739 405.979 68.6672 406.126C68.1606 406.273 67.6739 406.346 67.2072 406.346ZM76.2288 406.346C75.2688 406.346 74.4355 406.139 73.7288 405.726C73.0221 405.313 72.4755 404.726 72.0888 403.966C71.7021 403.206 71.5088 402.313 71.5088 401.286C71.5088 400.513 71.6155 399.819 71.8288 399.206C72.0555 398.579 72.3755 398.046 72.7888 397.606C73.2021 397.166 73.6955 396.833 74.2688 396.606C74.8555 396.366 75.5088 396.246 76.2288 396.246C77.1888 396.246 78.0221 396.453 78.7288 396.866C79.4355 397.279 79.9821 397.866 80.3688 398.626C80.7555 399.373 80.9488 400.259 80.9488 401.286C80.9488 402.059 80.8355 402.759 80.6088 403.386C80.3955 404.013 80.0821 404.546 79.6688 404.986C79.2555 405.426 78.7555 405.766 78.1688 406.006C77.5955 406.233 76.9488 406.346 76.2288 406.346ZM76.2288 404.906C76.8155 404.906 77.3221 404.766 77.7488 404.486C78.1888 404.206 78.5221 403.799 78.7488 403.266C78.9888 402.733 79.1088 402.073 79.1088 401.286C79.1088 400.113 78.8488 399.219 78.3288 398.606C77.8088 397.993 77.1088 397.686 76.2288 397.686C75.6555 397.686 75.1488 397.826 74.7088 398.106C74.2821 398.373 73.9488 398.773 73.7088 399.306C73.4688 399.839 73.3488 400.499 73.3488 401.286C73.3488 402.459 73.6088 403.359 74.1288 403.986C74.6621 404.599 75.3621 404.906 76.2288 404.906ZM84.2202 406.306C83.9402 406.306 83.7202 406.226 83.5602 406.066C83.4002 405.906 83.3202 405.673 83.3202 405.366V397.206C83.3202 396.899 83.4002 396.673 83.5602 396.526C83.7202 396.366 83.9402 396.286 84.2202 396.286C84.5002 396.286 84.7135 396.366 84.8602 396.526C85.0202 396.673 85.1002 396.899 85.1002 397.206V398.906L84.8802 398.546C85.1335 397.813 85.5402 397.246 86.1002 396.846C86.6735 396.446 87.3535 396.246 88.1402 396.246C88.9669 396.246 89.6335 396.446 90.1402 396.846C90.6469 397.233 90.9869 397.826 91.1602 398.626H90.8802C91.1202 397.893 91.5469 397.313 92.1602 396.886C92.7869 396.459 93.5135 396.246 94.3402 396.246C95.0735 396.246 95.6735 396.393 96.1402 396.686C96.6202 396.966 96.9802 397.393 97.2202 397.966C97.4602 398.526 97.5802 399.246 97.5802 400.126V405.366C97.5802 405.673 97.5002 405.906 97.3402 406.066C97.1802 406.226 96.9602 406.306 96.6802 406.306C96.3869 406.306 96.1602 406.226 96.0002 406.066C95.8402 405.906 95.7602 405.673 95.7602 405.366V400.206C95.7602 399.353 95.6135 398.726 95.3202 398.326C95.0269 397.926 94.5335 397.726 93.8402 397.726C93.0802 397.726 92.4735 397.993 92.0202 398.526C91.5802 399.046 91.3602 399.766 91.3602 400.686V405.366C91.3602 405.673 91.2802 405.906 91.1202 406.066C90.9735 406.226 90.7535 406.306 90.4602 406.306C90.1669 406.306 89.9402 406.226 89.7802 406.066C89.6202 405.906 89.5402 405.673 89.5402 405.366V400.206C89.5402 399.353 89.3935 398.726 89.1002 398.326C88.8069 397.926 88.3135 397.726 87.6202 397.726C86.8602 397.726 86.2535 397.993 85.8002 398.526C85.3602 399.046 85.1402 399.766 85.1402 400.686V405.366C85.1402 405.993 84.8335 406.306 84.2202 406.306ZM101.407 409.906C101.127 409.906 100.907 409.826 100.747 409.666C100.587 409.506 100.507 409.279 100.507 408.986V397.206C100.507 396.899 100.587 396.673 100.747 396.526C100.907 396.366 101.127 396.286 101.407 396.286C101.7 396.286 101.92 396.366 102.067 396.526C102.227 396.673 102.307 396.899 102.307 397.206V399.026L102.087 398.666C102.3 397.933 102.72 397.346 103.347 396.906C103.973 396.466 104.727 396.246 105.607 396.246C106.473 396.246 107.227 396.453 107.867 396.866C108.507 397.266 109.007 397.846 109.367 398.606C109.727 399.353 109.907 400.246 109.907 401.286C109.907 402.313 109.727 403.213 109.367 403.986C109.02 404.746 108.52 405.333 107.867 405.746C107.227 406.146 106.473 406.346 105.607 406.346C104.74 406.346 103.993 406.126 103.367 405.686C102.74 405.246 102.32 404.666 102.107 403.946H102.327V408.986C102.327 409.279 102.247 409.506 102.087 409.666C101.927 409.826 101.7 409.906 101.407 409.906ZM105.187 404.906C105.76 404.906 106.26 404.766 106.687 404.486C107.127 404.206 107.467 403.799 107.707 403.266C107.947 402.733 108.067 402.073 108.067 401.286C108.067 400.113 107.807 399.219 107.287 398.606C106.767 397.993 106.067 397.686 105.187 397.686C104.6 397.686 104.087 397.826 103.647 398.106C103.22 398.373 102.887 398.773 102.647 399.306C102.42 399.839 102.307 400.499 102.307 401.286C102.307 402.459 102.567 403.359 103.087 403.986C103.607 404.599 104.307 404.906 105.187 404.906ZM115.305 406.346C114.305 406.346 113.545 406.053 113.025 405.466C112.505 404.866 112.245 404.006 112.245 402.886V392.846C112.245 392.539 112.325 392.313 112.485 392.166C112.645 392.006 112.865 391.926 113.145 391.926C113.438 391.926 113.665 392.006 113.825 392.166C113.985 392.313 114.065 392.539 114.065 392.846V402.746C114.065 403.439 114.205 403.959 114.485 404.306C114.778 404.639 115.192 404.806 115.725 404.806C115.845 404.806 115.952 404.806 116.045 404.806C116.138 404.793 116.232 404.779 116.325 404.766C116.472 404.753 116.578 404.793 116.645 404.886C116.712 404.979 116.745 405.166 116.745 405.446C116.745 405.699 116.685 405.899 116.565 406.046C116.458 406.179 116.278 406.266 116.025 406.306C115.905 406.319 115.785 406.326 115.665 406.326C115.545 406.339 115.425 406.346 115.305 406.346ZM122.663 406.346C121.61 406.346 120.703 406.146 119.943 405.746C119.196 405.333 118.616 404.753 118.203 404.006C117.79 403.246 117.583 402.353 117.583 401.326C117.583 400.313 117.783 399.426 118.183 398.666C118.596 397.906 119.156 397.313 119.863 396.886C120.583 396.459 121.403 396.246 122.323 396.246C122.976 396.246 123.563 396.359 124.083 396.586C124.616 396.799 125.07 397.113 125.443 397.526C125.816 397.939 126.096 398.446 126.283 399.046C126.483 399.633 126.583 400.299 126.583 401.046C126.583 401.259 126.516 401.426 126.383 401.546C126.263 401.653 126.083 401.706 125.843 401.706H119.003V400.546H125.383L125.043 400.826C125.043 400.133 124.936 399.546 124.723 399.066C124.523 398.573 124.223 398.199 123.823 397.946C123.436 397.693 122.95 397.566 122.363 397.566C121.723 397.566 121.176 397.719 120.723 398.026C120.27 398.319 119.923 398.739 119.683 399.286C119.443 399.819 119.323 400.439 119.323 401.146V401.266C119.323 402.466 119.61 403.373 120.183 403.986C120.756 404.599 121.583 404.906 122.663 404.906C123.09 404.906 123.523 404.853 123.963 404.746C124.416 404.639 124.85 404.446 125.263 404.166C125.463 404.046 125.643 403.993 125.803 404.006C125.976 404.006 126.116 404.059 126.223 404.166C126.33 404.259 126.396 404.379 126.423 404.526C126.45 404.659 126.43 404.806 126.363 404.966C126.296 405.126 126.17 405.266 125.983 405.386C125.543 405.693 125.016 405.933 124.403 406.106C123.803 406.266 123.223 406.346 122.663 406.346ZM132.867 406.346C132.08 406.346 131.42 406.206 130.887 405.926C130.367 405.646 129.974 405.239 129.707 404.706C129.454 404.173 129.327 403.519 129.327 402.746V397.826H128.047C127.807 397.826 127.62 397.766 127.487 397.646C127.354 397.513 127.287 397.339 127.287 397.126C127.287 396.899 127.354 396.726 127.487 396.606C127.62 396.486 127.807 396.426 128.047 396.426H129.327V394.246C129.327 393.939 129.407 393.713 129.567 393.566C129.727 393.406 129.954 393.326 130.247 393.326C130.54 393.326 130.76 393.406 130.907 393.566C131.067 393.713 131.147 393.939 131.147 394.246V396.426H133.567C133.82 396.426 134.014 396.486 134.147 396.606C134.28 396.726 134.347 396.899 134.347 397.126C134.347 397.339 134.28 397.513 134.147 397.646C134.014 397.766 133.82 397.826 133.567 397.826H131.147V402.586C131.147 403.319 131.3 403.873 131.607 404.246C131.914 404.619 132.42 404.806 133.127 404.806C133.38 404.806 133.594 404.786 133.767 404.746C133.94 404.693 134.094 404.666 134.227 404.666C134.347 404.653 134.447 404.693 134.527 404.786C134.62 404.879 134.667 405.053 134.667 405.306C134.667 405.493 134.634 405.666 134.567 405.826C134.514 405.973 134.4 406.073 134.227 406.126C134.067 406.179 133.854 406.226 133.587 406.266C133.32 406.319 133.08 406.346 132.867 406.346ZM137.051 406.266C136.771 406.266 136.551 406.179 136.391 406.006C136.231 405.833 136.151 405.593 136.151 405.286V397.306C136.151 396.986 136.231 396.746 136.391 396.586C136.551 396.413 136.771 396.326 137.051 396.326C137.345 396.326 137.571 396.413 137.731 396.586C137.891 396.746 137.971 396.986 137.971 397.306V405.286C137.971 405.593 137.891 405.833 137.731 406.006C137.585 406.179 137.358 406.266 137.051 406.266ZM137.051 394.166C136.691 394.166 136.405 394.073 136.191 393.886C135.991 393.686 135.891 393.426 135.891 393.106C135.891 392.759 135.991 392.499 136.191 392.326C136.405 392.139 136.691 392.046 137.051 392.046C137.438 392.046 137.725 392.139 137.911 392.326C138.111 392.499 138.211 392.759 138.211 393.106C138.211 393.426 138.111 393.686 137.911 393.886C137.725 394.073 137.438 394.166 137.051 394.166ZM145.037 406.346C144.077 406.346 143.244 406.139 142.537 405.726C141.831 405.313 141.284 404.726 140.897 403.966C140.511 403.206 140.317 402.313 140.317 401.286C140.317 400.513 140.424 399.819 140.637 399.206C140.864 398.579 141.184 398.046 141.597 397.606C142.011 397.166 142.504 396.833 143.077 396.606C143.664 396.366 144.317 396.246 145.037 396.246C145.997 396.246 146.831 396.453 147.537 396.866C148.244 397.279 148.791 397.866 149.177 398.626C149.564 399.373 149.757 400.259 149.757 401.286C149.757 402.059 149.644 402.759 149.417 403.386C149.204 404.013 148.891 404.546 148.477 404.986C148.064 405.426 147.564 405.766 146.977 406.006C146.404 406.233 145.757 406.346 145.037 406.346ZM145.037 404.906C145.624 404.906 146.131 404.766 146.557 404.486C146.997 404.206 147.331 403.799 147.557 403.266C147.797 402.733 147.917 402.073 147.917 401.286C147.917 400.113 147.657 399.219 147.137 398.606C146.617 397.993 145.917 397.686 145.037 397.686C144.464 397.686 143.957 397.826 143.517 398.106C143.091 398.373 142.757 398.773 142.517 399.306C142.277 399.839 142.157 400.499 142.157 401.286C142.157 402.459 142.417 403.359 142.937 403.986C143.471 404.599 144.171 404.906 145.037 404.906ZM152.989 406.306C152.709 406.306 152.489 406.226 152.329 406.066C152.169 405.906 152.089 405.673 152.089 405.366V397.206C152.089 396.899 152.169 396.673 152.329 396.526C152.489 396.366 152.709 396.286 152.989 396.286C153.269 396.286 153.482 396.366 153.629 396.526C153.789 396.673 153.869 396.899 153.869 397.206V398.846L153.649 398.546C153.929 397.786 154.382 397.213 155.009 396.826C155.649 396.439 156.375 396.246 157.189 396.246C157.975 396.246 158.622 396.386 159.129 396.666C159.635 396.946 160.015 397.373 160.269 397.946C160.522 398.519 160.649 399.246 160.649 400.126V405.366C160.649 405.673 160.569 405.906 160.409 406.066C160.262 406.226 160.042 406.306 159.749 406.306C159.455 406.306 159.229 406.226 159.069 406.066C158.909 405.906 158.829 405.673 158.829 405.366V400.226C158.829 399.359 158.662 398.726 158.329 398.326C157.995 397.926 157.462 397.726 156.729 397.726C155.875 397.726 155.189 397.993 154.669 398.526C154.162 399.046 153.909 399.753 153.909 400.646V405.366C153.909 405.993 153.602 406.306 152.989 406.306ZM169.689 406.306C169.382 406.306 169.149 406.226 168.989 406.066C168.829 405.906 168.749 405.673 168.749 405.366V397.206C168.749 396.899 168.829 396.673 168.989 396.526C169.149 396.366 169.369 396.286 169.649 396.286C169.929 396.286 170.142 396.366 170.289 396.526C170.449 396.673 170.529 396.899 170.529 397.206V398.746H170.329C170.542 397.946 170.942 397.339 171.529 396.926C172.116 396.513 172.856 396.279 173.749 396.226C173.962 396.213 174.136 396.266 174.269 396.386C174.402 396.493 174.476 396.679 174.489 396.946C174.502 397.199 174.442 397.406 174.309 397.566C174.176 397.713 173.969 397.799 173.689 397.826L173.329 397.846C172.449 397.939 171.769 398.226 171.289 398.706C170.822 399.186 170.589 399.846 170.589 400.686V405.366C170.589 405.673 170.509 405.906 170.349 406.066C170.202 406.226 169.982 406.306 169.689 406.306ZM179.056 406.346C178.389 406.346 177.783 406.213 177.236 405.946C176.703 405.679 176.283 405.319 175.976 404.866C175.683 404.413 175.536 403.906 175.536 403.346C175.536 402.626 175.716 402.059 176.076 401.646C176.436 401.233 177.043 400.939 177.896 400.766C178.749 400.579 179.896 400.486 181.336 400.486H182.276V401.646H181.376C180.349 401.646 179.536 401.693 178.936 401.786C178.349 401.879 177.936 402.046 177.696 402.286C177.456 402.513 177.336 402.833 177.336 403.246C177.336 403.766 177.516 404.193 177.876 404.526C178.249 404.859 178.756 405.026 179.396 405.026C179.903 405.026 180.349 404.906 180.736 404.666C181.123 404.413 181.429 404.079 181.656 403.666C181.883 403.239 181.996 402.753 181.996 402.206V399.906C181.996 399.119 181.836 398.553 181.516 398.206C181.196 397.846 180.656 397.666 179.896 397.666C179.456 397.666 179.003 397.726 178.536 397.846C178.069 397.966 177.583 398.153 177.076 398.406C176.876 398.499 176.703 398.533 176.556 398.506C176.409 398.466 176.289 398.386 176.196 398.266C176.116 398.133 176.069 397.993 176.056 397.846C176.056 397.686 176.089 397.533 176.156 397.386C176.236 397.239 176.369 397.133 176.556 397.066C177.143 396.773 177.723 396.566 178.296 396.446C178.883 396.313 179.429 396.246 179.936 396.246C180.803 396.246 181.516 396.386 182.076 396.666C182.636 396.933 183.056 397.353 183.336 397.926C183.616 398.486 183.756 399.206 183.756 400.086V405.366C183.756 405.673 183.683 405.906 183.536 406.066C183.389 406.226 183.176 406.306 182.896 406.306C182.629 406.306 182.416 406.226 182.256 406.066C182.109 405.906 182.036 405.673 182.036 405.366V403.946H182.216C182.109 404.439 181.909 404.866 181.616 405.226C181.323 405.586 180.956 405.866 180.516 406.066C180.089 406.253 179.603 406.346 179.056 406.346ZM190.66 406.346C189.873 406.346 189.213 406.206 188.68 405.926C188.16 405.646 187.767 405.239 187.5 404.706C187.247 404.173 187.12 403.519 187.12 402.746V397.826H185.84C185.6 397.826 185.413 397.766 185.28 397.646C185.147 397.513 185.08 397.339 185.08 397.126C185.08 396.899 185.147 396.726 185.28 396.606C185.413 396.486 185.6 396.426 185.84 396.426H187.12V394.246C187.12 393.939 187.2 393.713 187.36 393.566C187.52 393.406 187.747 393.326 188.04 393.326C188.333 393.326 188.553 393.406 188.7 393.566C188.86 393.713 188.94 393.939 188.94 394.246V396.426H191.36C191.613 396.426 191.807 396.486 191.94 396.606C192.073 396.726 192.14 396.899 192.14 397.126C192.14 397.339 192.073 397.513 191.94 397.646C191.807 397.766 191.613 397.826 191.36 397.826H188.94V402.586C188.94 403.319 189.093 403.873 189.4 404.246C189.707 404.619 190.213 404.806 190.92 404.806C191.173 404.806 191.387 404.786 191.56 404.746C191.733 404.693 191.887 404.666 192.02 404.666C192.14 404.653 192.24 404.693 192.32 404.786C192.413 404.879 192.46 405.053 192.46 405.306C192.46 405.493 192.427 405.666 192.36 405.826C192.307 405.973 192.193 406.073 192.02 406.126C191.86 406.179 191.647 406.226 191.38 406.266C191.113 406.319 190.873 406.346 190.66 406.346ZM198.19 406.346C197.137 406.346 196.23 406.146 195.47 405.746C194.724 405.333 194.144 404.753 193.73 404.006C193.317 403.246 193.11 402.353 193.11 401.326C193.11 400.313 193.31 399.426 193.71 398.666C194.124 397.906 194.684 397.313 195.39 396.886C196.11 396.459 196.93 396.246 197.85 396.246C198.504 396.246 199.09 396.359 199.61 396.586C200.144 396.799 200.597 397.113 200.97 397.526C201.344 397.939 201.624 398.446 201.81 399.046C202.01 399.633 202.11 400.299 202.11 401.046C202.11 401.259 202.044 401.426 201.91 401.546C201.79 401.653 201.61 401.706 201.37 401.706H194.53V400.546H200.91L200.57 400.826C200.57 400.133 200.464 399.546 200.25 399.066C200.05 398.573 199.75 398.199 199.35 397.946C198.964 397.693 198.477 397.566 197.89 397.566C197.25 397.566 196.704 397.719 196.25 398.026C195.797 398.319 195.45 398.739 195.21 399.286C194.97 399.819 194.85 400.439 194.85 401.146V401.266C194.85 402.466 195.137 403.373 195.71 403.986C196.284 404.599 197.11 404.906 198.19 404.906C198.617 404.906 199.05 404.853 199.49 404.746C199.944 404.639 200.377 404.446 200.79 404.166C200.99 404.046 201.17 403.993 201.33 404.006C201.504 404.006 201.644 404.059 201.75 404.166C201.857 404.259 201.924 404.379 201.95 404.526C201.977 404.659 201.957 404.806 201.89 404.966C201.824 405.126 201.697 405.266 201.51 405.386C201.07 405.693 200.544 405.933 199.93 406.106C199.33 406.266 198.75 406.346 198.19 406.346ZM207.734 406.346C207.134 406.346 206.527 406.279 205.914 406.146C205.314 405.999 204.747 405.753 204.214 405.406C204.067 405.313 203.961 405.199 203.894 405.066C203.841 404.919 203.821 404.779 203.834 404.646C203.861 404.499 203.921 404.373 204.014 404.266C204.107 404.159 204.221 404.099 204.354 404.086C204.501 404.059 204.654 404.093 204.814 404.186C205.334 404.479 205.834 404.686 206.314 404.806C206.807 404.926 207.294 404.986 207.774 404.986C208.507 404.986 209.061 404.853 209.434 404.586C209.807 404.319 209.994 403.966 209.994 403.526C209.994 403.153 209.867 402.866 209.614 402.666C209.374 402.453 208.994 402.293 208.474 402.186L206.614 401.806C205.787 401.619 205.161 401.313 204.734 400.886C204.321 400.446 204.114 399.886 204.114 399.206C204.114 398.606 204.274 398.086 204.594 397.646C204.927 397.193 205.387 396.846 205.974 396.606C206.561 396.366 207.234 396.246 207.994 396.246C208.581 396.246 209.134 396.326 209.654 396.486C210.187 396.633 210.667 396.859 211.094 397.166C211.254 397.259 211.354 397.379 211.394 397.526C211.447 397.659 211.454 397.799 211.414 397.946C211.387 398.079 211.327 398.193 211.234 398.286C211.141 398.379 211.021 398.439 210.874 398.466C210.727 398.479 210.567 398.439 210.394 398.346C210.007 398.079 209.607 397.893 209.194 397.786C208.794 397.666 208.394 397.606 207.994 397.606C207.274 397.606 206.727 397.746 206.354 398.026C205.994 398.306 205.814 398.673 205.814 399.126C205.814 399.473 205.921 399.759 206.134 399.986C206.361 400.213 206.714 400.379 207.194 400.486L209.054 400.866C209.921 401.053 210.574 401.353 211.014 401.766C211.454 402.166 211.674 402.713 211.674 403.406C211.674 404.313 211.314 405.033 210.594 405.566C209.887 406.086 208.934 406.346 207.734 406.346ZM214.824 406.246C214.478 406.246 214.191 406.133 213.964 405.906C213.738 405.679 213.624 405.393 213.624 405.046C213.624 404.699 213.738 404.419 213.964 404.206C214.191 403.993 214.478 403.886 214.824 403.886C215.198 403.886 215.484 403.993 215.684 404.206C215.898 404.419 216.004 404.699 216.004 405.046C216.004 405.393 215.898 405.679 215.684 405.906C215.484 406.133 215.198 406.246 214.824 406.246Z" fill="#F9FBFB"/>
</svg>
