<svg width="334" height="178" viewBox="0 0 334 178" fill="none" xmlns="http://www.w3.org/2000/svg">
<g filter="url(#filter0_ddii_125_1092)">
<path d="M20.4199 30.8946C20.4199 18.5286 30.4446 8.50391 42.8107 8.50391H290.818C303.184 8.50391 313.209 18.5286 313.209 30.8946V123.147C313.209 135.513 303.184 145.537 290.818 145.537H42.8106C30.4446 145.537 20.4199 135.513 20.4199 123.147V30.8946Z" fill="#F9FBFB" shape-rendering="crispEdges"/>
<path d="M44.7531 47.8532C44.5184 47.8532 44.3371 47.7892 44.2091 47.6612C44.0811 47.5225 44.0171 47.3305 44.0171 47.0852V37.1172C44.0171 36.8612 44.0811 36.6692 44.2091 36.5412C44.3371 36.4132 44.5184 36.3492 44.7531 36.3492C44.9984 36.3492 45.1851 36.4132 45.3131 36.5412C45.4411 36.6692 45.5051 36.8612 45.5051 37.1172V47.0852C45.5051 47.3305 45.4411 47.5225 45.3131 47.6612C45.1958 47.7892 45.0091 47.8532 44.7531 47.8532ZM49.0046 47.7412C48.7486 47.7412 48.5513 47.6719 48.4126 47.5332C48.2739 47.3945 48.2046 47.1972 48.2046 46.9412V37.2612C48.2046 37.0052 48.2739 36.8079 48.4126 36.6692C48.5513 36.5305 48.7486 36.4612 49.0046 36.4612H52.0926C53.9379 36.4612 55.3566 36.9465 56.3486 37.9172C57.3513 38.8772 57.8526 40.2692 57.8526 42.0932C57.8526 42.9999 57.7246 43.8052 57.4686 44.5092C57.2126 45.2132 56.8393 45.8052 56.3486 46.2852C55.8579 46.7545 55.2553 47.1172 54.5406 47.3732C53.8366 47.6185 53.0206 47.7412 52.0926 47.7412H49.0046ZM49.6926 46.4772H51.9966C52.7219 46.4772 53.3513 46.3865 53.8846 46.2052C54.4179 46.0239 54.8606 45.7519 55.2126 45.3892C55.5753 45.0265 55.8473 44.5732 56.0286 44.0292C56.2099 43.4745 56.3006 42.8292 56.3006 42.0932C56.3006 40.6319 55.9379 39.5385 55.2126 38.8132C54.4979 38.0879 53.4259 37.7252 51.9966 37.7252H49.6926V46.4772ZM60.8937 47.8532C60.6591 47.8532 60.4777 47.7892 60.3497 47.6612C60.2217 47.5225 60.1577 47.3305 60.1577 47.0852V37.2132C60.1577 36.9679 60.2217 36.7812 60.3497 36.6532C60.4884 36.5252 60.6751 36.4612 60.9097 36.4612H64.7177C65.9337 36.4612 66.8671 36.7599 67.5177 37.3572C68.1791 37.9545 68.5097 38.7919 68.5097 39.8692C68.5097 40.9572 68.1791 41.7999 67.5177 42.3972C66.8671 42.9945 65.9337 43.2932 64.7177 43.2932H61.6457V47.0852C61.6457 47.3305 61.5817 47.5225 61.4537 47.6612C61.3364 47.7892 61.1497 47.8532 60.8937 47.8532ZM61.6457 42.0932H64.5257C65.3577 42.0932 65.9817 41.9065 66.3977 41.5332C66.8244 41.1492 67.0377 40.5945 67.0377 39.8692C67.0377 39.1439 66.8244 38.5999 66.3977 38.2372C65.9817 37.8639 65.3577 37.6772 64.5257 37.6772H61.6457V42.0932ZM75.3171 47.7412C75.0611 47.7412 74.8638 47.6719 74.7251 47.5332C74.5864 47.3945 74.5171 47.1972 74.5171 46.9412V37.2612C74.5171 37.0052 74.5864 36.8079 74.7251 36.6692C74.8638 36.5305 75.0611 36.4612 75.3171 36.4612H78.4051C80.2504 36.4612 81.6691 36.9465 82.6611 37.9172C83.6638 38.8772 84.1651 40.2692 84.1651 42.0932C84.1651 42.9999 84.0371 43.8052 83.7811 44.5092C83.5251 45.2132 83.1518 45.8052 82.6611 46.2852C82.1704 46.7545 81.5678 47.1172 80.8531 47.3732C80.1491 47.6185 79.3331 47.7412 78.4051 47.7412H75.3171ZM76.0051 46.4772H78.3091C79.0344 46.4772 79.6638 46.3865 80.1971 46.2052C80.7304 46.0239 81.1731 45.7519 81.5251 45.3892C81.8878 45.0265 82.1598 44.5732 82.3411 44.0292C82.5224 43.4745 82.6131 42.8292 82.6131 42.0932C82.6131 40.6319 82.2504 39.5385 81.5251 38.8132C80.8104 38.0879 79.7384 37.7252 78.3091 37.7252H76.0051V46.4772ZM89.8782 47.8852C89.0356 47.8852 88.3102 47.7252 87.7022 47.4052C87.1049 47.0745 86.6409 46.6105 86.3102 46.0132C85.9796 45.4052 85.8142 44.6905 85.8142 43.8692C85.8142 43.0585 85.9742 42.3492 86.2942 41.7412C86.6249 41.1332 87.0729 40.6585 87.6382 40.3172C88.2142 39.9759 88.8702 39.8052 89.6062 39.8052C90.1289 39.8052 90.5982 39.8959 91.0142 40.0772C91.4409 40.2479 91.8036 40.4985 92.1022 40.8292C92.4009 41.1599 92.6249 41.5652 92.7742 42.0452C92.9342 42.5145 93.0142 43.0479 93.0142 43.6452C93.0142 43.8159 92.9609 43.9492 92.8542 44.0452C92.7582 44.1305 92.6142 44.1732 92.4222 44.1732H86.9502V43.2452H92.0542L91.7822 43.4692C91.7822 42.9145 91.6969 42.4452 91.5262 42.0612C91.3662 41.6665 91.1262 41.3679 90.8062 41.1652C90.4969 40.9625 90.1076 40.8612 89.6382 40.8612C89.1262 40.8612 88.6889 40.9839 88.3262 41.2292C87.9636 41.4639 87.6862 41.7999 87.4942 42.2372C87.3022 42.6639 87.2062 43.1599 87.2062 43.7252V43.8212C87.2062 44.7812 87.4356 45.5065 87.8942 45.9972C88.3529 46.4879 89.0142 46.7332 89.8782 46.7332C90.2196 46.7332 90.5662 46.6905 90.9182 46.6052C91.2809 46.5199 91.6276 46.3652 91.9582 46.1412C92.1182 46.0452 92.2622 46.0025 92.3902 46.0132C92.5289 46.0132 92.6409 46.0559 92.7262 46.1412C92.8116 46.2159 92.8649 46.3119 92.8862 46.4292C92.9076 46.5359 92.8916 46.6532 92.8382 46.7812C92.7849 46.9092 92.6836 47.0212 92.5342 47.1172C92.1822 47.3625 91.7609 47.5545 91.2702 47.6932C90.7902 47.8212 90.3262 47.8852 89.8782 47.8852ZM97.6757 47.8532C97.4731 47.8532 97.2971 47.7999 97.1477 47.6932C96.9984 47.5865 96.8704 47.4159 96.7637 47.1812L94.0437 40.8452C93.9691 40.6639 93.9424 40.4985 93.9637 40.3492C93.9851 40.1999 94.0544 40.0772 94.1717 39.9812C94.2997 39.8852 94.4704 39.8372 94.6837 39.8372C94.8651 39.8372 95.0091 39.8799 95.1157 39.9652C95.2224 40.0505 95.3237 40.1999 95.4197 40.4132L97.9317 46.6052H97.4837L100.06 40.4132C100.145 40.1999 100.241 40.0505 100.348 39.9652C100.465 39.8799 100.625 39.8372 100.828 39.8372C101.009 39.8372 101.148 39.8852 101.244 39.9812C101.35 40.0772 101.414 40.1999 101.436 40.3492C101.457 40.4985 101.425 40.6585 101.34 40.8292L98.6037 47.1812C98.5077 47.4159 98.3797 47.5865 98.2197 47.6932C98.0704 47.7999 97.8891 47.8532 97.6757 47.8532ZM106.472 47.8852C105.629 47.8852 104.904 47.7252 104.296 47.4052C103.699 47.0745 103.235 46.6105 102.904 46.0132C102.573 45.4052 102.408 44.6905 102.408 43.8692C102.408 43.0585 102.568 42.3492 102.888 41.7412C103.219 41.1332 103.667 40.6585 104.232 40.3172C104.808 39.9759 105.464 39.8052 106.2 39.8052C106.723 39.8052 107.192 39.8959 107.608 40.0772C108.035 40.2479 108.397 40.4985 108.696 40.8292C108.995 41.1599 109.219 41.5652 109.368 42.0452C109.528 42.5145 109.608 43.0479 109.608 43.6452C109.608 43.8159 109.555 43.9492 109.448 44.0452C109.352 44.1305 109.208 44.1732 109.016 44.1732H103.544V43.2452H108.648L108.376 43.4692C108.376 42.9145 108.291 42.4452 108.12 42.0612C107.96 41.6665 107.72 41.3679 107.4 41.1652C107.091 40.9625 106.701 40.8612 106.232 40.8612C105.72 40.8612 105.283 40.9839 104.92 41.2292C104.557 41.4639 104.28 41.7999 104.088 42.2372C103.896 42.6639 103.8 43.1599 103.8 43.7252V43.8212C103.8 44.7812 104.029 45.5065 104.488 45.9972C104.947 46.4879 105.608 46.7332 106.472 46.7332C106.813 46.7332 107.16 46.6905 107.512 46.6052C107.875 46.5199 108.221 46.3652 108.552 46.1412C108.712 46.0452 108.856 46.0025 108.984 46.0132C109.123 46.0132 109.235 46.0559 109.32 46.1412C109.405 46.2159 109.459 46.3119 109.48 46.4292C109.501 46.5359 109.485 46.6532 109.432 46.7812C109.379 46.9092 109.277 47.0212 109.128 47.1172C108.776 47.3625 108.355 47.5545 107.864 47.6932C107.384 47.8212 106.92 47.8852 106.472 47.8852ZM113.867 47.8852C113.067 47.8852 112.459 47.6505 112.043 47.1812C111.627 46.7012 111.419 46.0132 111.419 45.1172V37.0852C111.419 36.8399 111.483 36.6585 111.611 36.5412C111.739 36.4132 111.915 36.3492 112.139 36.3492C112.374 36.3492 112.555 36.4132 112.683 36.5412C112.811 36.6585 112.875 36.8399 112.875 37.0852V45.0052C112.875 45.5599 112.987 45.9759 113.211 46.2532C113.446 46.5199 113.776 46.6532 114.203 46.6532C114.299 46.6532 114.384 46.6532 114.459 46.6532C114.534 46.6425 114.608 46.6319 114.683 46.6212C114.8 46.6105 114.886 46.6425 114.939 46.7172C114.992 46.7919 115.019 46.9412 115.019 47.1652C115.019 47.3679 114.971 47.5279 114.875 47.6452C114.79 47.7519 114.646 47.8212 114.443 47.8532C114.347 47.8639 114.251 47.8692 114.155 47.8692C114.059 47.8799 113.963 47.8852 113.867 47.8852ZM119.465 47.8852C118.697 47.8852 118.031 47.7199 117.465 47.3892C116.9 47.0585 116.463 46.5892 116.153 45.9812C115.844 45.3732 115.689 44.6585 115.689 43.8372C115.689 43.2185 115.775 42.6639 115.945 42.1732C116.127 41.6719 116.383 41.2452 116.713 40.8932C117.044 40.5412 117.439 40.2745 117.897 40.0932C118.367 39.9012 118.889 39.8052 119.465 39.8052C120.233 39.8052 120.9 39.9705 121.465 40.3012C122.031 40.6319 122.468 41.1012 122.777 41.7092C123.087 42.3065 123.241 43.0159 123.241 43.8372C123.241 44.4559 123.151 45.0159 122.969 45.5172C122.799 46.0185 122.548 46.4452 122.217 46.7972C121.887 47.1492 121.487 47.4212 121.017 47.6132C120.559 47.7945 120.041 47.8852 119.465 47.8852ZM119.465 46.7332C119.935 46.7332 120.34 46.6212 120.681 46.3972C121.033 46.1732 121.3 45.8479 121.481 45.4212C121.673 44.9945 121.769 44.4665 121.769 43.8372C121.769 42.8985 121.561 42.1839 121.145 41.6932C120.729 41.2025 120.169 40.9572 119.465 40.9572C119.007 40.9572 118.601 41.0692 118.249 41.2932C117.908 41.5065 117.641 41.8265 117.449 42.2532C117.257 42.6799 117.161 43.2079 117.161 43.8372C117.161 44.7759 117.369 45.4959 117.785 45.9972C118.212 46.4879 118.772 46.7332 119.465 46.7332ZM125.826 50.7332C125.602 50.7332 125.426 50.6692 125.298 50.5412C125.17 50.4132 125.106 50.2319 125.106 49.9972V40.5732C125.106 40.3279 125.17 40.1465 125.298 40.0292C125.426 39.9012 125.602 39.8372 125.826 39.8372C126.061 39.8372 126.237 39.9012 126.354 40.0292C126.482 40.1465 126.546 40.3279 126.546 40.5732V42.0292L126.37 41.7412C126.541 41.1545 126.877 40.6852 127.378 40.3332C127.88 39.9812 128.482 39.8052 129.186 39.8052C129.88 39.8052 130.482 39.9705 130.994 40.3012C131.506 40.6212 131.906 41.0852 132.194 41.6932C132.482 42.2905 132.626 43.0052 132.626 43.8372C132.626 44.6585 132.482 45.3785 132.194 45.9972C131.917 46.6052 131.517 47.0745 130.994 47.4052C130.482 47.7252 129.88 47.8852 129.186 47.8852C128.493 47.8852 127.896 47.7092 127.394 47.3572C126.893 47.0052 126.557 46.5412 126.386 45.9652H126.562V49.9972C126.562 50.2319 126.498 50.4132 126.37 50.5412C126.242 50.6692 126.061 50.7332 125.826 50.7332ZM128.85 46.7332C129.309 46.7332 129.709 46.6212 130.05 46.3972C130.402 46.1732 130.674 45.8479 130.866 45.4212C131.058 44.9945 131.154 44.4665 131.154 43.8372C131.154 42.8985 130.946 42.1839 130.53 41.6932C130.114 41.2025 129.554 40.9572 128.85 40.9572C128.381 40.9572 127.97 41.0692 127.618 41.2932C127.277 41.5065 127.01 41.8265 126.818 42.2532C126.637 42.6799 126.546 43.2079 126.546 43.8372C126.546 44.7759 126.754 45.4959 127.17 45.9972C127.586 46.4879 128.146 46.7332 128.85 46.7332ZM135.249 47.8532C135.025 47.8532 134.849 47.7892 134.721 47.6612C134.593 47.5332 134.529 47.3465 134.529 47.1012V40.5732C134.529 40.3279 134.593 40.1465 134.721 40.0292C134.849 39.9012 135.025 39.8372 135.249 39.8372C135.473 39.8372 135.644 39.9012 135.761 40.0292C135.889 40.1465 135.953 40.3279 135.953 40.5732V41.9332L135.777 41.6452C135.98 41.0585 136.305 40.6052 136.753 40.2852C137.212 39.9652 137.756 39.8052 138.385 39.8052C139.046 39.8052 139.58 39.9652 139.985 40.2852C140.39 40.5945 140.662 41.0692 140.801 41.7092H140.577C140.769 41.1225 141.11 40.6585 141.601 40.3172C142.102 39.9759 142.684 39.8052 143.345 39.8052C143.932 39.8052 144.412 39.9225 144.785 40.1572C145.169 40.3812 145.457 40.7225 145.649 41.1812C145.841 41.6292 145.937 42.2052 145.937 42.9092V47.1012C145.937 47.3465 145.873 47.5332 145.745 47.6612C145.617 47.7892 145.441 47.8532 145.217 47.8532C144.982 47.8532 144.801 47.7892 144.673 47.6612C144.545 47.5332 144.481 47.3465 144.481 47.1012V42.9732C144.481 42.2905 144.364 41.7892 144.129 41.4692C143.894 41.1492 143.5 40.9892 142.945 40.9892C142.337 40.9892 141.852 41.2025 141.489 41.6292C141.137 42.0452 140.961 42.6212 140.961 43.3572V47.1012C140.961 47.3465 140.897 47.5332 140.769 47.6612C140.652 47.7892 140.476 47.8532 140.241 47.8532C140.006 47.8532 139.825 47.7892 139.697 47.6612C139.569 47.5332 139.505 47.3465 139.505 47.1012V42.9732C139.505 42.2905 139.388 41.7892 139.153 41.4692C138.918 41.1492 138.524 40.9892 137.969 40.9892C137.361 40.9892 136.876 41.2025 136.513 41.6292C136.161 42.0452 135.985 42.6212 135.985 43.3572V47.1012C135.985 47.6025 135.74 47.8532 135.249 47.8532ZM151.878 47.8852C151.036 47.8852 150.31 47.7252 149.702 47.4052C149.105 47.0745 148.641 46.6105 148.31 46.0132C147.98 45.4052 147.814 44.6905 147.814 43.8692C147.814 43.0585 147.974 42.3492 148.294 41.7412C148.625 41.1332 149.073 40.6585 149.638 40.3172C150.214 39.9759 150.87 39.8052 151.606 39.8052C152.129 39.8052 152.598 39.8959 153.014 40.0772C153.441 40.2479 153.804 40.4985 154.102 40.8292C154.401 41.1599 154.625 41.5652 154.774 42.0452C154.934 42.5145 155.014 43.0479 155.014 43.6452C155.014 43.8159 154.961 43.9492 154.854 44.0452C154.758 44.1305 154.614 44.1732 154.422 44.1732H148.95V43.2452H154.054L153.782 43.4692C153.782 42.9145 153.697 42.4452 153.526 42.0612C153.366 41.6665 153.126 41.3679 152.806 41.1652C152.497 40.9625 152.108 40.8612 151.638 40.8612C151.126 40.8612 150.689 40.9839 150.326 41.2292C149.964 41.4639 149.686 41.7999 149.494 42.2372C149.302 42.6639 149.206 43.1599 149.206 43.7252V43.8212C149.206 44.7812 149.436 45.5065 149.894 45.9972C150.353 46.4879 151.014 46.7332 151.878 46.7332C152.22 46.7332 152.566 46.6905 152.918 46.6052C153.281 46.5199 153.628 46.3652 153.958 46.1412C154.118 46.0452 154.262 46.0025 154.39 46.0132C154.529 46.0132 154.641 46.0559 154.726 46.1412C154.812 46.2159 154.865 46.3119 154.886 46.4292C154.908 46.5359 154.892 46.6532 154.838 46.7812C154.785 46.9092 154.684 47.0212 154.534 47.1172C154.182 47.3625 153.761 47.5545 153.27 47.6932C152.79 47.8212 152.326 47.8852 151.878 47.8852ZM157.545 47.8532C157.321 47.8532 157.145 47.7892 157.017 47.6612C156.889 47.5332 156.825 47.3465 156.825 47.1012V40.5732C156.825 40.3279 156.889 40.1465 157.017 40.0292C157.145 39.9012 157.321 39.8372 157.545 39.8372C157.769 39.8372 157.94 39.9012 158.057 40.0292C158.185 40.1465 158.249 40.3279 158.249 40.5732V41.8852L158.073 41.6452C158.297 41.0372 158.66 40.5785 159.161 40.2692C159.673 39.9599 160.254 39.8052 160.905 39.8052C161.534 39.8052 162.052 39.9172 162.457 40.1412C162.862 40.3652 163.166 40.7065 163.369 41.1652C163.572 41.6239 163.673 42.2052 163.673 42.9092V47.1012C163.673 47.3465 163.609 47.5332 163.481 47.6612C163.364 47.7892 163.188 47.8532 162.953 47.8532C162.718 47.8532 162.537 47.7892 162.409 47.6612C162.281 47.5332 162.217 47.3465 162.217 47.1012V42.9892C162.217 42.2959 162.084 41.7892 161.817 41.4692C161.55 41.1492 161.124 40.9892 160.537 40.9892C159.854 40.9892 159.305 41.2025 158.889 41.6292C158.484 42.0452 158.281 42.6105 158.281 43.3252V47.1012C158.281 47.6025 158.036 47.8532 157.545 47.8532ZM169.213 47.8852C168.584 47.8852 168.056 47.7732 167.629 47.5492C167.213 47.3252 166.899 46.9999 166.685 46.5732C166.483 46.1465 166.381 45.6239 166.381 45.0052V41.0692H165.357C165.165 41.0692 165.016 41.0212 164.909 40.9252C164.803 40.8185 164.749 40.6799 164.749 40.5092C164.749 40.3279 164.803 40.1892 164.909 40.0932C165.016 39.9972 165.165 39.9492 165.357 39.9492H166.381V38.2052C166.381 37.9599 166.445 37.7785 166.573 37.6612C166.701 37.5332 166.883 37.4692 167.117 37.4692C167.352 37.4692 167.528 37.5332 167.645 37.6612C167.773 37.7785 167.837 37.9599 167.837 38.2052V39.9492H169.773C169.976 39.9492 170.131 39.9972 170.237 40.0932C170.344 40.1892 170.397 40.3279 170.397 40.5092C170.397 40.6799 170.344 40.8185 170.237 40.9252C170.131 41.0212 169.976 41.0692 169.773 41.0692H167.837V44.8772C167.837 45.4639 167.96 45.9065 168.205 46.2052C168.451 46.5039 168.856 46.6532 169.421 46.6532C169.624 46.6532 169.795 46.6372 169.933 46.6052C170.072 46.5625 170.195 46.5412 170.301 46.5412C170.397 46.5305 170.477 46.5625 170.541 46.6372C170.616 46.7119 170.653 46.8505 170.653 47.0532C170.653 47.2025 170.627 47.3412 170.573 47.4692C170.531 47.5865 170.44 47.6665 170.301 47.7092C170.173 47.7519 170.003 47.7892 169.789 47.8212C169.576 47.8639 169.384 47.8852 169.213 47.8852Z" fill="#0F1415"/>
<path d="M46.9131 75.3983C46.6984 75.3983 46.5351 75.3423 46.4231 75.2303C46.3111 75.109 46.2551 74.941 46.2551 74.7263V66.5363H43.1891C43.0118 66.5363 42.8718 66.4896 42.7691 66.3963C42.6664 66.2936 42.6151 66.1536 42.6151 65.9763C42.6151 65.799 42.6664 65.6636 42.7691 65.5703C42.8718 65.477 43.0118 65.4303 43.1891 65.4303H50.6231C50.8098 65.4303 50.9498 65.477 51.0431 65.5703C51.1458 65.6636 51.1971 65.799 51.1971 65.9763C51.1971 66.1536 51.1458 66.2936 51.0431 66.3963C50.9498 66.4896 50.8098 66.5363 50.6231 66.5363H47.5571V74.7263C47.5571 74.941 47.5011 75.109 47.3891 75.2303C47.2864 75.3423 47.1278 75.3983 46.9131 75.3983ZM51.7609 75.3983C51.5463 75.3983 51.3829 75.3423 51.2709 75.2303C51.1589 75.1183 51.1029 74.955 51.1029 74.7403V69.0283C51.1029 68.8136 51.1589 68.655 51.2709 68.5523C51.3829 68.4403 51.5369 68.3843 51.7329 68.3843C51.9289 68.3843 52.0783 68.4403 52.1809 68.5523C52.2929 68.655 52.3489 68.8136 52.3489 69.0283V70.1063H52.2089C52.3583 69.5463 52.6383 69.1216 53.0489 68.8323C53.4596 68.543 53.9776 68.3796 54.6029 68.3423C54.7523 68.333 54.8736 68.3703 54.9669 68.4543C55.0603 68.529 55.1116 68.6596 55.1209 68.8463C55.1303 69.0236 55.0883 69.1683 54.9949 69.2803C54.9016 69.383 54.7569 69.4436 54.5609 69.4623L54.3089 69.4763C53.6929 69.5416 53.2169 69.7423 52.8809 70.0783C52.5543 70.4143 52.3909 70.8763 52.3909 71.4643V74.7403C52.3909 74.955 52.3349 75.1183 52.2229 75.2303C52.1203 75.3423 51.9663 75.3983 51.7609 75.3983ZM58.3179 75.4263C57.8512 75.4263 57.4265 75.333 57.0439 75.1463C56.6705 74.9596 56.3765 74.7076 56.1619 74.3903C55.9565 74.073 55.8539 73.7183 55.8539 73.3263C55.8539 72.8223 55.9799 72.4256 56.2319 72.1363C56.4839 71.847 56.9085 71.6416 57.5059 71.5203C58.1032 71.3896 58.9059 71.3243 59.9139 71.3243H60.5719V72.1363H59.9419C59.2232 72.1363 58.6539 72.169 58.2339 72.2343C57.8232 72.2996 57.5339 72.4163 57.3659 72.5843C57.1979 72.743 57.1139 72.967 57.1139 73.2563C57.1139 73.6203 57.2399 73.919 57.4919 74.1523C57.7532 74.3856 58.1079 74.5023 58.5559 74.5023C58.9105 74.5023 59.2232 74.4183 59.4939 74.2503C59.7645 74.073 59.9792 73.8396 60.1379 73.5503C60.2965 73.2516 60.3759 72.911 60.3759 72.5283V70.9183C60.3759 70.3676 60.2639 69.971 60.0399 69.7283C59.8159 69.4763 59.4379 69.3503 58.9059 69.3503C58.5979 69.3503 58.2805 69.3923 57.9539 69.4763C57.6272 69.5603 57.2865 69.691 56.9319 69.8683C56.7919 69.9336 56.6705 69.957 56.5679 69.9383C56.4652 69.9103 56.3812 69.8543 56.3159 69.7703C56.2599 69.677 56.2272 69.579 56.2179 69.4763C56.2179 69.3643 56.2412 69.257 56.2879 69.1543C56.3439 69.0516 56.4372 68.977 56.5679 68.9303C56.9785 68.725 57.3845 68.5803 57.7859 68.4963C58.1965 68.403 58.5792 68.3563 58.9339 68.3563C59.5405 68.3563 60.0399 68.4543 60.4319 68.6503C60.8239 68.837 61.1179 69.131 61.3139 69.5323C61.5099 69.9243 61.6079 70.4283 61.6079 71.0443V74.7403C61.6079 74.955 61.5565 75.1183 61.4539 75.2303C61.3512 75.3423 61.2019 75.3983 61.0059 75.3983C60.8192 75.3983 60.6699 75.3423 60.5579 75.2303C60.4552 75.1183 60.4039 74.955 60.4039 74.7403V73.7463H60.5299C60.4552 74.0916 60.3152 74.3903 60.1099 74.6423C59.9045 74.8943 59.6479 75.0903 59.3399 75.2303C59.0412 75.361 58.7005 75.4263 58.3179 75.4263ZM66.5667 75.4263C65.876 75.4263 65.2787 75.2816 64.7747 74.9923C64.2707 74.6936 63.8834 74.2783 63.6127 73.7463C63.342 73.205 63.2067 72.5703 63.2067 71.8423C63.2067 71.301 63.2814 70.8156 63.4307 70.3863C63.5894 69.957 63.8134 69.593 64.1027 69.2943C64.392 68.9863 64.742 68.753 65.1527 68.5943C65.5727 68.4356 66.044 68.3563 66.5667 68.3563C66.8934 68.3563 67.2387 68.4076 67.6027 68.5103C67.9667 68.613 68.3027 68.781 68.6107 69.0143C68.7134 69.089 68.7787 69.1776 68.8067 69.2803C68.8347 69.3736 68.8347 69.4716 68.8067 69.5743C68.788 69.677 68.7414 69.7656 68.6667 69.8403C68.6014 69.9056 68.5127 69.943 68.4007 69.9523C68.298 69.9616 68.186 69.929 68.0647 69.8543C67.8407 69.6863 67.6027 69.565 67.3507 69.4903C67.108 69.4156 66.8747 69.3783 66.6507 69.3783C66.3054 69.3783 65.9974 69.4343 65.7267 69.5463C65.4654 69.6583 65.2414 69.8216 65.0547 70.0363C64.8774 70.2416 64.742 70.4983 64.6487 70.8063C64.5554 71.105 64.5087 71.455 64.5087 71.8563C64.5087 72.6496 64.6954 73.275 65.0687 73.7323C65.442 74.1803 65.9694 74.4043 66.6507 74.4043C66.8747 74.4043 67.108 74.3716 67.3507 74.3063C67.5934 74.2316 67.8314 74.1103 68.0647 73.9423C68.186 73.8676 68.298 73.8396 68.4007 73.8583C68.5034 73.8676 68.5874 73.9096 68.6527 73.9843C68.7274 74.0496 68.774 74.1336 68.7927 74.2363C68.8114 74.3296 68.802 74.4276 68.7647 74.5303C68.7367 74.633 68.6714 74.717 68.5687 74.7823C68.27 75.0063 67.9434 75.1696 67.5887 75.2723C67.234 75.375 66.8934 75.4263 66.5667 75.4263ZM70.7505 75.3983C70.5545 75.3983 70.4005 75.3423 70.2885 75.2303C70.1765 75.1183 70.1205 74.955 70.1205 74.7403V65.9763C70.1205 65.7616 70.1765 65.603 70.2885 65.5003C70.4005 65.3883 70.5545 65.3323 70.7505 65.3323C70.9558 65.3323 71.1145 65.3883 71.2265 65.5003C71.3385 65.603 71.3945 65.7616 71.3945 65.9763V71.4923H71.4225L74.1665 68.8183C74.3065 68.6783 74.4325 68.571 74.5445 68.4963C74.6565 68.4216 74.8012 68.3843 74.9785 68.3843C75.1558 68.3843 75.2912 68.431 75.3845 68.5243C75.4778 68.6083 75.5245 68.7203 75.5245 68.8603C75.5245 68.991 75.4592 69.1216 75.3285 69.2523L72.4165 72.0803V71.4503L75.5945 74.5163C75.7252 74.647 75.7858 74.7823 75.7765 74.9223C75.7765 75.0623 75.7252 75.179 75.6225 75.2723C75.5292 75.3563 75.4032 75.3983 75.2445 75.3983C75.0578 75.3983 74.9038 75.361 74.7825 75.2863C74.6705 75.2116 74.5398 75.095 74.3905 74.9363L71.4225 72.1363H71.3945V74.7403C71.3945 75.179 71.1798 75.3983 70.7505 75.3983ZM81.5103 75.3703C81.3143 75.3703 81.1603 75.3096 81.0483 75.1883C80.9363 75.067 80.8803 74.899 80.8803 74.6843V69.0983C80.8803 68.8743 80.9363 68.7063 81.0483 68.5943C81.1603 68.473 81.3143 68.4123 81.5103 68.4123C81.7156 68.4123 81.8743 68.473 81.9863 68.5943C82.0983 68.7063 82.1543 68.8743 82.1543 69.0983V74.6843C82.1543 74.899 82.0983 75.067 81.9863 75.1883C81.8836 75.3096 81.7249 75.3703 81.5103 75.3703ZM81.5103 66.9003C81.2583 66.9003 81.0576 66.835 80.9083 66.7043C80.7683 66.5643 80.6983 66.3823 80.6983 66.1583C80.6983 65.9156 80.7683 65.7336 80.9083 65.6123C81.0576 65.4816 81.2583 65.4163 81.5103 65.4163C81.7809 65.4163 81.9816 65.4816 82.1123 65.6123C82.2523 65.7336 82.3223 65.9156 82.3223 66.1583C82.3223 66.3823 82.2523 66.5643 82.1123 66.7043C81.9816 66.835 81.7809 66.9003 81.5103 66.9003ZM84.8325 75.3983C84.6365 75.3983 84.4825 75.3423 84.3705 75.2303C84.2585 75.1183 84.2025 74.955 84.2025 74.7403V69.0283C84.2025 68.8136 84.2585 68.655 84.3705 68.5523C84.4825 68.4403 84.6365 68.3843 84.8325 68.3843C85.0285 68.3843 85.1779 68.4403 85.2805 68.5523C85.3925 68.655 85.4485 68.8136 85.4485 69.0283V70.1763L85.2945 69.9663C85.4905 69.4343 85.8079 69.033 86.2465 68.7623C86.6945 68.4916 87.2032 68.3563 87.7725 68.3563C88.3232 68.3563 88.7759 68.4543 89.1305 68.6503C89.4852 68.8463 89.7512 69.145 89.9285 69.5463C90.1059 69.9476 90.1945 70.4563 90.1945 71.0723V74.7403C90.1945 74.955 90.1385 75.1183 90.0265 75.2303C89.9239 75.3423 89.7699 75.3983 89.5645 75.3983C89.3592 75.3983 89.2005 75.3423 89.0885 75.2303C88.9765 75.1183 88.9205 74.955 88.9205 74.7403V71.1423C88.9205 70.5356 88.8039 70.0923 88.5705 69.8123C88.3372 69.5323 87.9639 69.3923 87.4505 69.3923C86.8532 69.3923 86.3725 69.579 86.0085 69.9523C85.6539 70.3163 85.4765 70.811 85.4765 71.4363V74.7403C85.4765 75.179 85.2619 75.3983 84.8325 75.3983ZM94.8183 75.4263C94.2209 75.4263 93.6936 75.2863 93.2363 75.0063C92.7883 74.717 92.4383 74.3063 92.1863 73.7743C91.9343 73.233 91.8083 72.603 91.8083 71.8843C91.8083 71.1563 91.9296 70.531 92.1723 70.0083C92.4243 69.4763 92.7743 69.0703 93.2223 68.7903C93.6796 68.501 94.2116 68.3563 94.8183 68.3563C95.4249 68.3563 95.9476 68.5103 96.3863 68.8183C96.8249 69.117 97.1189 69.5183 97.2683 70.0223H97.1143V65.9763C97.1143 65.7616 97.1656 65.603 97.2683 65.5003C97.3803 65.3883 97.5389 65.3323 97.7443 65.3323C97.9496 65.3323 98.1083 65.3883 98.2203 65.5003C98.3323 65.603 98.3883 65.7616 98.3883 65.9763V74.7403C98.3883 74.955 98.3323 75.1183 98.2203 75.2303C98.1083 75.3423 97.9496 75.3983 97.7443 75.3983C97.5483 75.3983 97.3943 75.3423 97.2823 75.2303C97.1703 75.1183 97.1143 74.955 97.1143 74.7403V73.4663L97.2683 73.7183C97.1283 74.241 96.8343 74.6563 96.3863 74.9643C95.9476 75.2723 95.4249 75.4263 94.8183 75.4263ZM95.1123 74.4183C95.5229 74.4183 95.8776 74.3203 96.1763 74.1243C96.4843 73.9283 96.7176 73.6436 96.8763 73.2703C97.0443 72.897 97.1283 72.435 97.1283 71.8843C97.1283 71.063 96.9463 70.4376 96.5823 70.0083C96.2183 69.579 95.7283 69.3643 95.1123 69.3643C94.7109 69.3643 94.3563 69.4623 94.0483 69.6583C93.7496 69.845 93.5163 70.125 93.3483 70.4983C93.1803 70.8716 93.0963 71.3336 93.0963 71.8843C93.0963 72.7056 93.2783 73.3356 93.6423 73.7743C94.0156 74.2036 94.5056 74.4183 95.1123 74.4183ZM101.061 75.3703C100.865 75.3703 100.711 75.3096 100.599 75.1883C100.487 75.067 100.431 74.899 100.431 74.6843V69.0983C100.431 68.8743 100.487 68.7063 100.599 68.5943C100.711 68.473 100.865 68.4123 101.061 68.4123C101.266 68.4123 101.425 68.473 101.537 68.5943C101.649 68.7063 101.705 68.8743 101.705 69.0983V74.6843C101.705 74.899 101.649 75.067 101.537 75.1883C101.434 75.3096 101.276 75.3703 101.061 75.3703ZM101.061 66.9003C100.809 66.9003 100.608 66.835 100.459 66.7043C100.319 66.5643 100.249 66.3823 100.249 66.1583C100.249 65.9156 100.319 65.7336 100.459 65.6123C100.608 65.4816 100.809 65.4163 101.061 65.4163C101.332 65.4163 101.532 65.4816 101.663 65.6123C101.803 65.7336 101.873 65.9156 101.873 66.1583C101.873 66.3823 101.803 66.5643 101.663 66.7043C101.532 66.835 101.332 66.9003 101.061 66.9003ZM106.343 75.3983C106.166 75.3983 106.012 75.3516 105.881 75.2583C105.751 75.165 105.639 75.0156 105.545 74.8103L103.165 69.2663C103.1 69.1076 103.077 68.963 103.095 68.8323C103.114 68.7016 103.175 68.5943 103.277 68.5103C103.389 68.4263 103.539 68.3843 103.725 68.3843C103.884 68.3843 104.01 68.4216 104.103 68.4963C104.197 68.571 104.285 68.7016 104.369 68.8883L106.567 74.3063H106.175L108.429 68.8883C108.504 68.7016 108.588 68.571 108.681 68.4963C108.784 68.4216 108.924 68.3843 109.101 68.3843C109.26 68.3843 109.381 68.4263 109.465 68.5103C109.559 68.5943 109.615 68.7016 109.633 68.8323C109.652 68.963 109.624 69.103 109.549 69.2523L107.155 74.8103C107.071 75.0156 106.959 75.165 106.819 75.2583C106.689 75.3516 106.53 75.3983 106.343 75.3983ZM111.629 75.3703C111.433 75.3703 111.279 75.3096 111.167 75.1883C111.055 75.067 110.999 74.899 110.999 74.6843V69.0983C110.999 68.8743 111.055 68.7063 111.167 68.5943C111.279 68.473 111.433 68.4123 111.629 68.4123C111.835 68.4123 111.993 68.473 112.105 68.5943C112.217 68.7063 112.273 68.8743 112.273 69.0983V74.6843C112.273 74.899 112.217 75.067 112.105 75.1883C112.003 75.3096 111.844 75.3703 111.629 75.3703ZM111.629 66.9003C111.377 66.9003 111.177 66.835 111.027 66.7043C110.887 66.5643 110.817 66.3823 110.817 66.1583C110.817 65.9156 110.887 65.7336 111.027 65.6123C111.177 65.4816 111.377 65.4163 111.629 65.4163C111.9 65.4163 112.101 65.4816 112.231 65.6123C112.371 65.7336 112.441 65.9156 112.441 66.1583C112.441 66.3823 112.371 66.5643 112.231 66.7043C112.101 66.835 111.9 66.9003 111.629 66.9003ZM116.926 75.4263C116.328 75.4263 115.801 75.2863 115.344 75.0063C114.896 74.717 114.546 74.3063 114.294 73.7743C114.042 73.233 113.916 72.603 113.916 71.8843C113.916 71.1563 114.037 70.531 114.28 70.0083C114.532 69.4763 114.882 69.0703 115.33 68.7903C115.787 68.501 116.319 68.3563 116.926 68.3563C117.532 68.3563 118.055 68.5103 118.494 68.8183C118.932 69.117 119.226 69.5183 119.376 70.0223H119.222V65.9763C119.222 65.7616 119.273 65.603 119.376 65.5003C119.488 65.3883 119.646 65.3323 119.852 65.3323C120.057 65.3323 120.216 65.3883 120.328 65.5003C120.44 65.603 120.496 65.7616 120.496 65.9763V74.7403C120.496 74.955 120.44 75.1183 120.328 75.2303C120.216 75.3423 120.057 75.3983 119.852 75.3983C119.656 75.3983 119.502 75.3423 119.39 75.2303C119.278 75.1183 119.222 74.955 119.222 74.7403V73.4663L119.376 73.7183C119.236 74.241 118.942 74.6563 118.494 74.9643C118.055 75.2723 117.532 75.4263 116.926 75.4263ZM117.22 74.4183C117.63 74.4183 117.985 74.3203 118.284 74.1243C118.592 73.9283 118.825 73.6436 118.984 73.2703C119.152 72.897 119.236 72.435 119.236 71.8843C119.236 71.063 119.054 70.4376 118.69 70.0083C118.326 69.579 117.836 69.3643 117.22 69.3643C116.818 69.3643 116.464 69.4623 116.156 69.6583C115.857 69.845 115.624 70.125 115.456 70.4983C115.288 70.8716 115.204 71.3336 115.204 71.8843C115.204 72.7056 115.386 73.3356 115.75 73.7743C116.123 74.2036 116.613 74.4183 117.22 74.4183ZM124.974 75.4263C124.424 75.4263 123.962 75.3236 123.588 75.1183C123.224 74.913 122.954 74.6096 122.776 74.2083C122.599 73.807 122.51 73.303 122.51 72.6963V69.0283C122.51 68.8136 122.562 68.655 122.664 68.5523C122.776 68.4403 122.935 68.3843 123.14 68.3843C123.346 68.3843 123.504 68.4403 123.616 68.5523C123.728 68.655 123.784 68.8136 123.784 69.0283V72.6963C123.784 73.275 123.901 73.7043 124.134 73.9843C124.368 74.255 124.736 74.3903 125.24 74.3903C125.8 74.3903 126.253 74.2036 126.598 73.8303C126.953 73.457 127.13 72.9623 127.13 72.3463V69.0283C127.13 68.8136 127.182 68.655 127.284 68.5523C127.396 68.4403 127.555 68.3843 127.76 68.3843C127.966 68.3843 128.124 68.4403 128.236 68.5523C128.348 68.655 128.404 68.8136 128.404 69.0283V74.7403C128.404 75.179 128.199 75.3983 127.788 75.3983C127.583 75.3983 127.424 75.3423 127.312 75.2303C127.21 75.1183 127.158 74.955 127.158 74.7403V73.5223L127.34 73.7603C127.154 74.3016 126.85 74.717 126.43 75.0063C126.02 75.2863 125.534 75.4263 124.974 75.4263ZM132.624 75.4263C132.158 75.4263 131.733 75.333 131.35 75.1463C130.977 74.9596 130.683 74.7076 130.468 74.3903C130.263 74.073 130.16 73.7183 130.16 73.3263C130.16 72.8223 130.286 72.4256 130.538 72.1363C130.79 71.847 131.215 71.6416 131.812 71.5203C132.41 71.3896 133.212 71.3243 134.22 71.3243H134.878V72.1363H134.248C133.53 72.1363 132.96 72.169 132.54 72.2343C132.13 72.2996 131.84 72.4163 131.672 72.5843C131.504 72.743 131.42 72.967 131.42 73.2563C131.42 73.6203 131.546 73.919 131.798 74.1523C132.06 74.3856 132.414 74.5023 132.862 74.5023C133.217 74.5023 133.53 74.4183 133.8 74.2503C134.071 74.073 134.286 73.8396 134.444 73.5503C134.603 73.2516 134.682 72.911 134.682 72.5283V70.9183C134.682 70.3676 134.57 69.971 134.346 69.7283C134.122 69.4763 133.744 69.3503 133.212 69.3503C132.904 69.3503 132.587 69.3923 132.26 69.4763C131.934 69.5603 131.593 69.691 131.238 69.8683C131.098 69.9336 130.977 69.957 130.874 69.9383C130.772 69.9103 130.688 69.8543 130.622 69.7703C130.566 69.677 130.534 69.579 130.524 69.4763C130.524 69.3643 130.548 69.257 130.594 69.1543C130.65 69.0516 130.744 68.977 130.874 68.9303C131.285 68.725 131.691 68.5803 132.092 68.4963C132.503 68.403 132.886 68.3563 133.24 68.3563C133.847 68.3563 134.346 68.4543 134.738 68.6503C135.13 68.837 135.424 69.131 135.62 69.5323C135.816 69.9243 135.914 70.4283 135.914 71.0443V74.7403C135.914 74.955 135.863 75.1183 135.76 75.2303C135.658 75.3423 135.508 75.3983 135.312 75.3983C135.126 75.3983 134.976 75.3423 134.864 75.2303C134.762 75.1183 134.71 74.955 134.71 74.7403V73.7463H134.836C134.762 74.0916 134.622 74.3903 134.416 74.6423C134.211 74.8943 133.954 75.0903 133.646 75.2303C133.348 75.361 133.007 75.4263 132.624 75.4263ZM140.061 75.4263C139.361 75.4263 138.829 75.221 138.465 74.8103C138.101 74.3903 137.919 73.7883 137.919 73.0043V65.9763C137.919 65.7616 137.975 65.603 138.087 65.5003C138.199 65.3883 138.353 65.3323 138.549 65.3323C138.755 65.3323 138.913 65.3883 139.025 65.5003C139.137 65.603 139.193 65.7616 139.193 65.9763V72.9063C139.193 73.3916 139.291 73.7556 139.487 73.9983C139.693 74.2316 139.982 74.3483 140.355 74.3483C140.439 74.3483 140.514 74.3483 140.579 74.3483C140.645 74.339 140.71 74.3296 140.775 74.3203C140.878 74.311 140.953 74.339 140.999 74.4043C141.046 74.4696 141.069 74.6003 141.069 74.7963C141.069 74.9736 141.027 75.1136 140.943 75.2163C140.869 75.3096 140.743 75.3703 140.565 75.3983C140.481 75.4076 140.397 75.4123 140.313 75.4123C140.229 75.4216 140.145 75.4263 140.061 75.4263ZM148.385 75.4263C147.787 75.4263 147.26 75.2863 146.803 75.0063C146.355 74.717 146.005 74.3063 145.753 73.7743C145.501 73.233 145.375 72.603 145.375 71.8843C145.375 71.1563 145.496 70.531 145.739 70.0083C145.991 69.4763 146.341 69.0703 146.789 68.7903C147.246 68.501 147.778 68.3563 148.385 68.3563C148.991 68.3563 149.514 68.5103 149.953 68.8183C150.391 69.117 150.685 69.5183 150.835 70.0223H150.681V65.9763C150.681 65.7616 150.732 65.603 150.835 65.5003C150.947 65.3883 151.105 65.3323 151.311 65.3323C151.516 65.3323 151.675 65.3883 151.787 65.5003C151.899 65.603 151.955 65.7616 151.955 65.9763V74.7403C151.955 74.955 151.899 75.1183 151.787 75.2303C151.675 75.3423 151.516 75.3983 151.311 75.3983C151.115 75.3983 150.961 75.3423 150.849 75.2303C150.737 75.1183 150.681 74.955 150.681 74.7403V73.4663L150.835 73.7183C150.695 74.241 150.401 74.6563 149.953 74.9643C149.514 75.2723 148.991 75.4263 148.385 75.4263ZM148.679 74.4183C149.089 74.4183 149.444 74.3203 149.743 74.1243C150.051 73.9283 150.284 73.6436 150.443 73.2703C150.611 72.897 150.695 72.435 150.695 71.8843C150.695 71.063 150.513 70.4376 150.149 70.0083C149.785 69.579 149.295 69.3643 148.679 69.3643C148.277 69.3643 147.923 69.4623 147.615 69.6583C147.316 69.845 147.083 70.125 146.915 70.4983C146.747 70.8716 146.663 71.3336 146.663 71.8843C146.663 72.7056 146.845 73.3356 147.209 73.7743C147.582 74.2036 148.072 74.4183 148.679 74.4183ZM157.147 75.4263C156.41 75.4263 155.775 75.2863 155.243 75.0063C154.721 74.717 154.315 74.311 154.025 73.7883C153.736 73.2563 153.591 72.631 153.591 71.9123C153.591 71.203 153.731 70.5823 154.011 70.0503C154.301 69.5183 154.693 69.103 155.187 68.8043C155.691 68.5056 156.265 68.3563 156.909 68.3563C157.367 68.3563 157.777 68.4356 158.141 68.5943C158.515 68.7436 158.832 68.963 159.093 69.2523C159.355 69.5416 159.551 69.8963 159.681 70.3163C159.821 70.727 159.891 71.1936 159.891 71.7163C159.891 71.8656 159.845 71.9823 159.751 72.0663C159.667 72.141 159.541 72.1783 159.373 72.1783H154.585V71.3663H159.051L158.813 71.5623C158.813 71.077 158.739 70.6663 158.589 70.3303C158.449 69.985 158.239 69.7236 157.959 69.5463C157.689 69.369 157.348 69.2803 156.937 69.2803C156.489 69.2803 156.107 69.3876 155.789 69.6023C155.472 69.8076 155.229 70.1016 155.061 70.4843C154.893 70.8576 154.809 71.2916 154.809 71.7863V71.8703C154.809 72.7103 155.01 73.345 155.411 73.7743C155.813 74.2036 156.391 74.4183 157.147 74.4183C157.446 74.4183 157.749 74.381 158.057 74.3063C158.375 74.2316 158.678 74.0963 158.967 73.9003C159.107 73.8163 159.233 73.779 159.345 73.7883C159.467 73.7883 159.565 73.8256 159.639 73.9003C159.714 73.9656 159.761 74.0496 159.779 74.1523C159.798 74.2456 159.784 74.3483 159.737 74.4603C159.691 74.5723 159.602 74.6703 159.471 74.7543C159.163 74.969 158.795 75.137 158.365 75.2583C157.945 75.3703 157.539 75.4263 157.147 75.4263ZM163.97 75.3983C163.793 75.3983 163.639 75.3516 163.508 75.2583C163.378 75.165 163.266 75.0156 163.172 74.8103L160.792 69.2663C160.727 69.1076 160.704 68.963 160.722 68.8323C160.741 68.7016 160.802 68.5943 160.904 68.5103C161.016 68.4263 161.166 68.3843 161.352 68.3843C161.511 68.3843 161.637 68.4216 161.73 68.4963C161.824 68.571 161.912 68.7016 161.996 68.8883L164.194 74.3063H163.802L166.056 68.8883C166.131 68.7016 166.215 68.571 166.308 68.4963C166.411 68.4216 166.551 68.3843 166.728 68.3843C166.887 68.3843 167.008 68.4263 167.092 68.5103C167.186 68.5943 167.242 68.7016 167.26 68.8323C167.279 68.963 167.251 69.103 167.176 69.2523L164.782 74.8103C164.698 75.0156 164.586 75.165 164.446 75.2583C164.316 75.3516 164.157 75.3983 163.97 75.3983ZM171.667 75.4263C170.93 75.4263 170.295 75.2863 169.763 75.0063C169.24 74.717 168.834 74.311 168.545 73.7883C168.256 73.2563 168.111 72.631 168.111 71.9123C168.111 71.203 168.251 70.5823 168.531 70.0503C168.82 69.5183 169.212 69.103 169.707 68.8043C170.211 68.5056 170.785 68.3563 171.429 68.3563C171.886 68.3563 172.297 68.4356 172.661 68.5943C173.034 68.7436 173.352 68.963 173.613 69.2523C173.874 69.5416 174.07 69.8963 174.201 70.3163C174.341 70.727 174.411 71.1936 174.411 71.7163C174.411 71.8656 174.364 71.9823 174.271 72.0663C174.187 72.141 174.061 72.1783 173.893 72.1783H169.105V71.3663H173.571L173.333 71.5623C173.333 71.077 173.258 70.6663 173.109 70.3303C172.969 69.985 172.759 69.7236 172.479 69.5463C172.208 69.369 171.868 69.2803 171.457 69.2803C171.009 69.2803 170.626 69.3876 170.309 69.6023C169.992 69.8076 169.749 70.1016 169.581 70.4843C169.413 70.8576 169.329 71.2916 169.329 71.7863V71.8703C169.329 72.7103 169.53 73.345 169.931 73.7743C170.332 74.2036 170.911 74.4183 171.667 74.4183C171.966 74.4183 172.269 74.381 172.577 74.3063C172.894 74.2316 173.198 74.0963 173.487 73.9003C173.627 73.8163 173.753 73.779 173.865 73.7883C173.986 73.7883 174.084 73.8256 174.159 73.9003C174.234 73.9656 174.28 74.0496 174.299 74.1523C174.318 74.2456 174.304 74.3483 174.257 74.4603C174.21 74.5723 174.122 74.6703 173.991 74.7543C173.683 74.969 173.314 75.137 172.885 75.2583C172.465 75.3703 172.059 75.4263 171.667 75.4263ZM178.137 75.4263C177.437 75.4263 176.905 75.221 176.541 74.8103C176.177 74.3903 175.995 73.7883 175.995 73.0043V65.9763C175.995 65.7616 176.051 65.603 176.163 65.5003C176.275 65.3883 176.429 65.3323 176.625 65.3323C176.831 65.3323 176.989 65.3883 177.101 65.5003C177.213 65.603 177.269 65.7616 177.269 65.9763V72.9063C177.269 73.3916 177.367 73.7556 177.563 73.9983C177.769 74.2316 178.058 74.3483 178.431 74.3483C178.515 74.3483 178.59 74.3483 178.655 74.3483C178.721 74.339 178.786 74.3296 178.851 74.3203C178.954 74.311 179.029 74.339 179.075 74.4043C179.122 74.4696 179.145 74.6003 179.145 74.7963C179.145 74.9736 179.103 75.1136 179.019 75.2163C178.945 75.3096 178.819 75.3703 178.641 75.3983C178.557 75.4076 178.473 75.4123 178.389 75.4123C178.305 75.4216 178.221 75.4263 178.137 75.4263ZM183.036 75.4263C182.364 75.4263 181.781 75.2816 181.286 74.9923C180.791 74.703 180.409 74.2923 180.138 73.7603C179.867 73.2283 179.732 72.603 179.732 71.8843C179.732 71.343 179.807 70.8576 179.956 70.4283C180.115 69.9896 180.339 69.6163 180.628 69.3083C180.917 69.0003 181.263 68.767 181.664 68.6083C182.075 68.4403 182.532 68.3563 183.036 68.3563C183.708 68.3563 184.291 68.501 184.786 68.7903C185.281 69.0796 185.663 69.4903 185.934 70.0223C186.205 70.545 186.34 71.1656 186.34 71.8843C186.34 72.4256 186.261 72.9156 186.102 73.3543C185.953 73.793 185.733 74.1663 185.444 74.4743C185.155 74.7823 184.805 75.0203 184.394 75.1883C183.993 75.347 183.54 75.4263 183.036 75.4263ZM183.036 74.4183C183.447 74.4183 183.801 74.3203 184.1 74.1243C184.408 73.9283 184.641 73.6436 184.8 73.2703C184.968 72.897 185.052 72.435 185.052 71.8843C185.052 71.063 184.87 70.4376 184.506 70.0083C184.142 69.579 183.652 69.3643 183.036 69.3643C182.635 69.3643 182.28 69.4623 181.972 69.6583C181.673 69.845 181.44 70.125 181.272 70.4983C181.104 70.8716 181.02 71.3336 181.02 71.8843C181.02 72.7056 181.202 73.3356 181.566 73.7743C181.939 74.2036 182.429 74.4183 183.036 74.4183ZM188.602 77.9183C188.406 77.9183 188.252 77.8623 188.14 77.7503C188.028 77.6383 187.972 77.4796 187.972 77.2743V69.0283C187.972 68.8136 188.028 68.655 188.14 68.5523C188.252 68.4403 188.406 68.3843 188.602 68.3843C188.807 68.3843 188.961 68.4403 189.064 68.5523C189.176 68.655 189.232 68.8136 189.232 69.0283V70.3023L189.078 70.0503C189.227 69.537 189.521 69.1263 189.96 68.8183C190.399 68.5103 190.926 68.3563 191.542 68.3563C192.149 68.3563 192.676 68.501 193.124 68.7903C193.572 69.0703 193.922 69.4763 194.174 70.0083C194.426 70.531 194.552 71.1563 194.552 71.8843C194.552 72.603 194.426 73.233 194.174 73.7743C193.931 74.3063 193.581 74.717 193.124 75.0063C192.676 75.2863 192.149 75.4263 191.542 75.4263C190.935 75.4263 190.413 75.2723 189.974 74.9643C189.535 74.6563 189.241 74.2503 189.092 73.7463H189.246V77.2743C189.246 77.4796 189.19 77.6383 189.078 77.7503C188.966 77.8623 188.807 77.9183 188.602 77.9183ZM191.248 74.4183C191.649 74.4183 191.999 74.3203 192.298 74.1243C192.606 73.9283 192.844 73.6436 193.012 73.2703C193.18 72.897 193.264 72.435 193.264 71.8843C193.264 71.063 193.082 70.4376 192.718 70.0083C192.354 69.579 191.864 69.3643 191.248 69.3643C190.837 69.3643 190.478 69.4623 190.17 69.6583C189.871 69.845 189.638 70.125 189.47 70.4983C189.311 70.8716 189.232 71.3336 189.232 71.8843C189.232 72.7056 189.414 73.3356 189.778 73.7743C190.142 74.2036 190.632 74.4183 191.248 74.4183ZM196.847 75.3983C196.651 75.3983 196.497 75.3423 196.385 75.2303C196.273 75.1183 196.217 74.955 196.217 74.7403V69.0283C196.217 68.8136 196.273 68.655 196.385 68.5523C196.497 68.4403 196.651 68.3843 196.847 68.3843C197.043 68.3843 197.192 68.4403 197.295 68.5523C197.407 68.655 197.463 68.8136 197.463 69.0283V70.2183L197.309 69.9663C197.486 69.453 197.771 69.0563 198.163 68.7763C198.564 68.4963 199.04 68.3563 199.591 68.3563C200.17 68.3563 200.636 68.4963 200.991 68.7763C201.346 69.047 201.584 69.4623 201.705 70.0223H201.509C201.677 69.509 201.976 69.103 202.405 68.8043C202.844 68.5056 203.352 68.3563 203.931 68.3563C204.444 68.3563 204.864 68.459 205.191 68.6643C205.527 68.8603 205.779 69.159 205.947 69.5603C206.115 69.9523 206.199 70.4563 206.199 71.0723V74.7403C206.199 74.955 206.143 75.1183 206.031 75.2303C205.919 75.3423 205.765 75.3983 205.569 75.3983C205.364 75.3983 205.205 75.3423 205.093 75.2303C204.981 75.1183 204.925 74.955 204.925 74.7403V71.1283C204.925 70.531 204.822 70.0923 204.617 69.8123C204.412 69.5323 204.066 69.3923 203.581 69.3923C203.049 69.3923 202.624 69.579 202.307 69.9523C201.999 70.3163 201.845 70.8203 201.845 71.4643V74.7403C201.845 74.955 201.789 75.1183 201.677 75.2303C201.574 75.3423 201.42 75.3983 201.215 75.3983C201.01 75.3983 200.851 75.3423 200.739 75.2303C200.627 75.1183 200.571 74.955 200.571 74.7403V71.1283C200.571 70.531 200.468 70.0923 200.263 69.8123C200.058 69.5323 199.712 69.3923 199.227 69.3923C198.695 69.3923 198.27 69.579 197.953 69.9523C197.645 70.3163 197.491 70.8203 197.491 71.4643V74.7403C197.491 75.179 197.276 75.3983 196.847 75.3983ZM211.397 75.4263C210.66 75.4263 210.025 75.2863 209.493 75.0063C208.971 74.717 208.565 74.311 208.275 73.7883C207.986 73.2563 207.841 72.631 207.841 71.9123C207.841 71.203 207.981 70.5823 208.261 70.0503C208.551 69.5183 208.943 69.103 209.437 68.8043C209.941 68.5056 210.515 68.3563 211.159 68.3563C211.617 68.3563 212.027 68.4356 212.391 68.5943C212.765 68.7436 213.082 68.963 213.343 69.2523C213.605 69.5416 213.801 69.8963 213.931 70.3163C214.071 70.727 214.141 71.1936 214.141 71.7163C214.141 71.8656 214.095 71.9823 214.001 72.0663C213.917 72.141 213.791 72.1783 213.623 72.1783H208.835V71.3663H213.301L213.063 71.5623C213.063 71.077 212.989 70.6663 212.839 70.3303C212.699 69.985 212.489 69.7236 212.209 69.5463C211.939 69.369 211.598 69.2803 211.187 69.2803C210.739 69.2803 210.357 69.3876 210.039 69.6023C209.722 69.8076 209.479 70.1016 209.311 70.4843C209.143 70.8576 209.059 71.2916 209.059 71.7863V71.8703C209.059 72.7103 209.26 73.345 209.661 73.7743C210.063 74.2036 210.641 74.4183 211.397 74.4183C211.696 74.4183 211.999 74.381 212.307 74.3063C212.625 74.2316 212.928 74.0963 213.217 73.9003C213.357 73.8163 213.483 73.779 213.595 73.7883C213.717 73.7883 213.815 73.8256 213.889 73.9003C213.964 73.9656 214.011 74.0496 214.029 74.1523C214.048 74.2456 214.034 74.3483 213.987 74.4603C213.941 74.5723 213.852 74.6703 213.721 74.7543C213.413 74.969 213.045 75.137 212.615 75.2583C212.195 75.3703 211.789 75.4263 211.397 75.4263ZM216.356 75.3983C216.16 75.3983 216.006 75.3423 215.894 75.2303C215.782 75.1183 215.726 74.955 215.726 74.7403V69.0283C215.726 68.8136 215.782 68.655 215.894 68.5523C216.006 68.4403 216.16 68.3843 216.356 68.3843C216.552 68.3843 216.701 68.4403 216.804 68.5523C216.916 68.655 216.972 68.8136 216.972 69.0283V70.1763L216.818 69.9663C217.014 69.4343 217.331 69.033 217.77 68.7623C218.218 68.4916 218.727 68.3563 219.296 68.3563C219.847 68.3563 220.299 68.4543 220.654 68.6503C221.009 68.8463 221.275 69.145 221.452 69.5463C221.629 69.9476 221.718 70.4563 221.718 71.0723V74.7403C221.718 74.955 221.662 75.1183 221.55 75.2303C221.447 75.3423 221.293 75.3983 221.088 75.3983C220.883 75.3983 220.724 75.3423 220.612 75.2303C220.5 75.1183 220.444 74.955 220.444 74.7403V71.1423C220.444 70.5356 220.327 70.0923 220.094 69.8123C219.861 69.5323 219.487 69.3923 218.974 69.3923C218.377 69.3923 217.896 69.579 217.532 69.9523C217.177 70.3163 217 70.811 217 71.4363V74.7403C217 75.179 216.785 75.3983 216.356 75.3983ZM226.566 75.4263C226.015 75.4263 225.553 75.3283 225.18 75.1323C224.816 74.9363 224.54 74.6516 224.354 74.2783C224.176 73.905 224.088 73.4476 224.088 72.9063V69.4623H223.192C223.024 69.4623 222.893 69.4203 222.8 69.3363C222.706 69.243 222.66 69.1216 222.66 68.9723C222.66 68.8136 222.706 68.6923 222.8 68.6083C222.893 68.5243 223.024 68.4823 223.192 68.4823H224.088V66.9563C224.088 66.7416 224.144 66.583 224.256 66.4803C224.368 66.3683 224.526 66.3123 224.732 66.3123C224.937 66.3123 225.091 66.3683 225.194 66.4803C225.306 66.583 225.362 66.7416 225.362 66.9563V68.4823H227.056C227.233 68.4823 227.368 68.5243 227.462 68.6083C227.555 68.6923 227.602 68.8136 227.602 68.9723C227.602 69.1216 227.555 69.243 227.462 69.3363C227.368 69.4203 227.233 69.4623 227.056 69.4623H225.362V72.7943C225.362 73.3076 225.469 73.695 225.684 73.9563C225.898 74.2176 226.253 74.3483 226.748 74.3483C226.925 74.3483 227.074 74.3343 227.196 74.3063C227.317 74.269 227.424 74.2503 227.518 74.2503C227.602 74.241 227.672 74.269 227.728 74.3343C227.793 74.3996 227.826 74.521 227.826 74.6983C227.826 74.829 227.802 74.9503 227.756 75.0623C227.718 75.165 227.639 75.235 227.518 75.2723C227.406 75.3096 227.256 75.3423 227.07 75.3703C226.883 75.4076 226.715 75.4263 226.566 75.4263ZM233.036 77.9183C232.84 77.9183 232.686 77.8623 232.574 77.7503C232.462 77.6383 232.406 77.4796 232.406 77.2743V69.0283C232.406 68.8136 232.462 68.655 232.574 68.5523C232.686 68.4403 232.84 68.3843 233.036 68.3843C233.241 68.3843 233.395 68.4403 233.498 68.5523C233.61 68.655 233.666 68.8136 233.666 69.0283V70.3023L233.512 70.0503C233.661 69.537 233.955 69.1263 234.394 68.8183C234.832 68.5103 235.36 68.3563 235.976 68.3563C236.582 68.3563 237.11 68.501 237.558 68.7903C238.006 69.0703 238.356 69.4763 238.608 70.0083C238.86 70.531 238.986 71.1563 238.986 71.8843C238.986 72.603 238.86 73.233 238.608 73.7743C238.365 74.3063 238.015 74.717 237.558 75.0063C237.11 75.2863 236.582 75.4263 235.976 75.4263C235.369 75.4263 234.846 75.2723 234.408 74.9643C233.969 74.6563 233.675 74.2503 233.526 73.7463H233.68V77.2743C233.68 77.4796 233.624 77.6383 233.512 77.7503C233.4 77.8623 233.241 77.9183 233.036 77.9183ZM235.682 74.4183C236.083 74.4183 236.433 74.3203 236.732 74.1243C237.04 73.9283 237.278 73.6436 237.446 73.2703C237.614 72.897 237.698 72.435 237.698 71.8843C237.698 71.063 237.516 70.4376 237.152 70.0083C236.788 69.579 236.298 69.3643 235.682 69.3643C235.271 69.3643 234.912 69.4623 234.604 69.6583C234.305 69.845 234.072 70.125 233.904 70.4983C233.745 70.8716 233.666 71.3336 233.666 71.8843C233.666 72.7056 233.848 73.3356 234.212 73.7743C234.576 74.2036 235.066 74.4183 235.682 74.4183ZM242.764 75.4263C242.064 75.4263 241.532 75.221 241.168 74.8103C240.804 74.3903 240.622 73.7883 240.622 73.0043V65.9763C240.622 65.7616 240.678 65.603 240.79 65.5003C240.902 65.3883 241.056 65.3323 241.252 65.3323C241.458 65.3323 241.616 65.3883 241.728 65.5003C241.84 65.603 241.896 65.7616 241.896 65.9763V72.9063C241.896 73.3916 241.994 73.7556 242.19 73.9983C242.396 74.2316 242.685 74.3483 243.058 74.3483C243.142 74.3483 243.217 74.3483 243.282 74.3483C243.348 74.339 243.413 74.3296 243.478 74.3203C243.581 74.311 243.656 74.339 243.702 74.4043C243.749 74.4696 243.772 74.6003 243.772 74.7963C243.772 74.9736 243.73 75.1136 243.646 75.2163C243.572 75.3096 243.446 75.3703 243.268 75.3983C243.184 75.4076 243.1 75.4123 243.016 75.4123C242.932 75.4216 242.848 75.4263 242.764 75.4263ZM247.003 75.4263C246.537 75.4263 246.112 75.333 245.729 75.1463C245.356 74.9596 245.062 74.7076 244.847 74.3903C244.642 74.073 244.539 73.7183 244.539 73.3263C244.539 72.8223 244.665 72.4256 244.917 72.1363C245.169 71.847 245.594 71.6416 246.191 71.5203C246.789 71.3896 247.591 71.3243 248.599 71.3243H249.257V72.1363H248.627C247.909 72.1363 247.339 72.169 246.919 72.2343C246.509 72.2996 246.219 72.4163 246.051 72.5843C245.883 72.743 245.799 72.967 245.799 73.2563C245.799 73.6203 245.925 73.919 246.177 74.1523C246.439 74.3856 246.793 74.5023 247.241 74.5023C247.596 74.5023 247.909 74.4183 248.179 74.2503C248.45 74.073 248.665 73.8396 248.823 73.5503C248.982 73.2516 249.061 72.911 249.061 72.5283V70.9183C249.061 70.3676 248.949 69.971 248.725 69.7283C248.501 69.4763 248.123 69.3503 247.591 69.3503C247.283 69.3503 246.966 69.3923 246.639 69.4763C246.313 69.5603 245.972 69.691 245.617 69.8683C245.477 69.9336 245.356 69.957 245.253 69.9383C245.151 69.9103 245.067 69.8543 245.001 69.7703C244.945 69.677 244.913 69.579 244.903 69.4763C244.903 69.3643 244.927 69.257 244.973 69.1543C245.029 69.0516 245.123 68.977 245.253 68.9303C245.664 68.725 246.07 68.5803 246.471 68.4963C246.882 68.403 247.265 68.3563 247.619 68.3563C248.226 68.3563 248.725 68.4543 249.117 68.6503C249.509 68.837 249.803 69.131 249.999 69.5323C250.195 69.9243 250.293 70.4283 250.293 71.0443V74.7403C250.293 74.955 250.242 75.1183 250.139 75.2303C250.037 75.3423 249.887 75.3983 249.691 75.3983C249.505 75.3983 249.355 75.3423 249.243 75.2303C249.141 75.1183 249.089 74.955 249.089 74.7403V73.7463H249.215C249.141 74.0916 249.001 74.3903 248.795 74.6423C248.59 74.8943 248.333 75.0903 248.025 75.2303C247.727 75.361 247.386 75.4263 247.003 75.4263ZM252.928 75.3983C252.732 75.3983 252.578 75.3423 252.466 75.2303C252.354 75.1183 252.298 74.955 252.298 74.7403V69.0283C252.298 68.8136 252.354 68.655 252.466 68.5523C252.578 68.4403 252.732 68.3843 252.928 68.3843C253.124 68.3843 253.274 68.4403 253.376 68.5523C253.488 68.655 253.544 68.8136 253.544 69.0283V70.1763L253.39 69.9663C253.586 69.4343 253.904 69.033 254.342 68.7623C254.79 68.4916 255.299 68.3563 255.868 68.3563C256.419 68.3563 256.872 68.4543 257.226 68.6503C257.581 68.8463 257.847 69.145 258.024 69.5463C258.202 69.9476 258.29 70.4563 258.29 71.0723V74.7403C258.29 74.955 258.234 75.1183 258.122 75.2303C258.02 75.3423 257.866 75.3983 257.66 75.3983C257.455 75.3983 257.296 75.3423 257.184 75.2303C257.072 75.1183 257.016 74.955 257.016 74.7403V71.1423C257.016 70.5356 256.9 70.0923 256.666 69.8123C256.433 69.5323 256.06 69.3923 255.546 69.3923C254.949 69.3923 254.468 69.579 254.104 69.9523C253.75 70.3163 253.572 70.811 253.572 71.4363V74.7403C253.572 75.179 253.358 75.3983 252.928 75.3983ZM262.662 75.4263C262.242 75.4263 261.817 75.3796 261.388 75.2863C260.968 75.1836 260.571 75.011 260.198 74.7683C260.095 74.703 260.021 74.6236 259.974 74.5303C259.937 74.4276 259.923 74.3296 259.932 74.2363C259.951 74.1336 259.993 74.045 260.058 73.9703C260.123 73.8956 260.203 73.8536 260.296 73.8443C260.399 73.8256 260.506 73.849 260.618 73.9143C260.982 74.1196 261.332 74.2643 261.668 74.3483C262.013 74.4323 262.354 74.4743 262.69 74.4743C263.203 74.4743 263.591 74.381 263.852 74.1943C264.113 74.0076 264.244 73.7603 264.244 73.4523C264.244 73.191 264.155 72.9903 263.978 72.8503C263.81 72.701 263.544 72.589 263.18 72.5143L261.878 72.2483C261.299 72.1176 260.861 71.903 260.562 71.6043C260.273 71.2963 260.128 70.9043 260.128 70.4283C260.128 70.0083 260.24 69.6443 260.464 69.3363C260.697 69.019 261.019 68.7763 261.43 68.6083C261.841 68.4403 262.312 68.3563 262.844 68.3563C263.255 68.3563 263.642 68.4123 264.006 68.5243C264.379 68.627 264.715 68.7856 265.014 69.0003C265.126 69.0656 265.196 69.1496 265.224 69.2523C265.261 69.3456 265.266 69.4436 265.238 69.5463C265.219 69.6396 265.177 69.719 265.112 69.7843C265.047 69.8496 264.963 69.8916 264.86 69.9103C264.757 69.9196 264.645 69.8916 264.524 69.8263C264.253 69.6396 263.973 69.509 263.684 69.4343C263.404 69.3503 263.124 69.3083 262.844 69.3083C262.34 69.3083 261.957 69.4063 261.696 69.6023C261.444 69.7983 261.318 70.055 261.318 70.3723C261.318 70.615 261.393 70.8156 261.542 70.9743C261.701 71.133 261.948 71.2496 262.284 71.3243L263.586 71.5903C264.193 71.721 264.65 71.931 264.958 72.2203C265.266 72.5003 265.42 72.883 265.42 73.3683C265.42 74.003 265.168 74.507 264.664 74.8803C264.169 75.2443 263.502 75.4263 262.662 75.4263ZM45.6111 98.6523C45.0884 97.691 44.7011 96.7063 44.4491 95.6983C44.2064 94.681 44.0851 93.6543 44.0851 92.6183C44.0851 91.9276 44.1364 91.2416 44.2391 90.5603C44.3511 89.879 44.5191 89.207 44.7431 88.5443C44.9764 87.8723 45.2658 87.219 45.6111 86.5843C45.6858 86.4536 45.7884 86.3743 45.9191 86.3463C46.0498 86.309 46.1711 86.3183 46.2831 86.3743C46.4044 86.421 46.4931 86.5096 46.5491 86.6403C46.6051 86.771 46.6004 86.9296 46.5351 87.1163C46.2924 87.7323 46.0871 88.3436 45.9191 88.9503C45.7604 89.557 45.6391 90.1636 45.5551 90.7703C45.4804 91.377 45.4431 91.993 45.4431 92.6183C45.4431 93.2436 45.4804 93.8596 45.5551 94.4663C45.6391 95.073 45.7651 95.6796 45.9331 96.2863C46.1011 96.8836 46.3018 97.495 46.5351 98.1203C46.6098 98.307 46.6144 98.4656 46.5491 98.5963C46.4931 98.727 46.4044 98.8156 46.2831 98.8623C46.1711 98.909 46.0498 98.9136 45.9191 98.8763C45.7884 98.8483 45.6858 98.7736 45.6111 98.6523ZM49.0575 96.3983C48.8522 96.3983 48.6935 96.3423 48.5815 96.2303C48.4695 96.109 48.4135 95.941 48.4135 95.7263V87.0043C48.4135 86.7803 48.4695 86.6123 48.5815 86.5003C48.6935 86.3883 48.8522 86.3323 49.0575 86.3323C49.2722 86.3323 49.4355 86.3883 49.5475 86.5003C49.6595 86.6123 49.7155 86.7803 49.7155 87.0043V95.7263C49.7155 95.941 49.6595 96.109 49.5475 96.2303C49.4448 96.3423 49.2815 96.3983 49.0575 96.3983ZM52.7776 96.3003C52.5536 96.3003 52.3809 96.2396 52.2596 96.1183C52.1382 95.997 52.0776 95.8243 52.0776 95.6003V87.1303C52.0776 86.9063 52.1382 86.7336 52.2596 86.6123C52.3809 86.491 52.5536 86.4303 52.7776 86.4303H55.4796C57.0942 86.4303 58.3356 86.855 59.2036 87.7043C60.0809 88.5443 60.5196 89.7623 60.5196 91.3583C60.5196 92.1516 60.4076 92.8563 60.1836 93.4723C59.9596 94.0883 59.6329 94.6063 59.2036 95.0263C58.7742 95.437 58.2469 95.7543 57.6216 95.9783C57.0056 96.193 56.2916 96.3003 55.4796 96.3003H52.7776ZM53.3796 95.1943H55.3956C56.0302 95.1943 56.5809 95.115 57.0476 94.9563C57.5142 94.7976 57.9016 94.5596 58.2096 94.2423C58.5269 93.925 58.7649 93.5283 58.9236 93.0523C59.0822 92.567 59.1616 92.0023 59.1616 91.3583C59.1616 90.0796 58.8442 89.123 58.2096 88.4883C57.5842 87.8536 56.6462 87.5363 55.3956 87.5363H53.3796V95.1943ZM63.1806 96.3983C62.9752 96.3983 62.8166 96.3423 62.7046 96.2303C62.5926 96.109 62.5366 95.941 62.5366 95.7263V87.0883C62.5366 86.8736 62.5926 86.7103 62.7046 86.5983C62.8259 86.4863 62.9892 86.4303 63.1946 86.4303H66.5266C67.5906 86.4303 68.4072 86.6916 68.9766 87.2143C69.5552 87.737 69.8446 88.4696 69.8446 89.4123C69.8446 90.3643 69.5552 91.1016 68.9766 91.6243C68.4072 92.147 67.5906 92.4083 66.5266 92.4083H63.8386V95.7263C63.8386 95.941 63.7826 96.109 63.6706 96.2303C63.5679 96.3423 63.4046 96.3983 63.1806 96.3983ZM63.8386 91.3583H66.3586C67.0866 91.3583 67.6326 91.195 67.9966 90.8683C68.3699 90.5323 68.5566 90.047 68.5566 89.4123C68.5566 88.7776 68.3699 88.3016 67.9966 87.9843C67.6326 87.6576 67.0866 87.4943 66.3586 87.4943H63.8386V91.3583ZM73.3612 96.4263C72.9412 96.4263 72.5165 96.3796 72.0872 96.2863C71.6672 96.1836 71.2705 96.011 70.8972 95.7683C70.7945 95.703 70.7198 95.6236 70.6732 95.5303C70.6358 95.4276 70.6218 95.3296 70.6312 95.2363C70.6498 95.1336 70.6918 95.045 70.7572 94.9703C70.8225 94.8956 70.9018 94.8536 70.9952 94.8443C71.0978 94.8256 71.2052 94.849 71.3172 94.9143C71.6812 95.1196 72.0312 95.2643 72.3672 95.3483C72.7125 95.4323 73.0532 95.4743 73.3892 95.4743C73.9025 95.4743 74.2898 95.381 74.5512 95.1943C74.8125 95.0076 74.9432 94.7603 74.9432 94.4523C74.9432 94.191 74.8545 93.9903 74.6772 93.8503C74.5092 93.701 74.2432 93.589 73.8792 93.5143L72.5772 93.2483C71.9985 93.1176 71.5598 92.903 71.2612 92.6043C70.9718 92.2963 70.8272 91.9043 70.8272 91.4283C70.8272 91.0083 70.9392 90.6443 71.1632 90.3363C71.3965 90.019 71.7185 89.7763 72.1292 89.6083C72.5398 89.4403 73.0112 89.3563 73.5432 89.3563C73.9538 89.3563 74.3412 89.4123 74.7052 89.5243C75.0785 89.627 75.4145 89.7856 75.7132 90.0003C75.8252 90.0656 75.8952 90.1496 75.9232 90.2523C75.9605 90.3456 75.9652 90.4436 75.9372 90.5463C75.9185 90.6396 75.8765 90.719 75.8112 90.7843C75.7458 90.8496 75.6618 90.8916 75.5592 90.9103C75.4565 90.9196 75.3445 90.8916 75.2232 90.8263C74.9525 90.6396 74.6725 90.509 74.3832 90.4343C74.1032 90.3503 73.8232 90.3083 73.5432 90.3083C73.0392 90.3083 72.6565 90.4063 72.3952 90.6023C72.1432 90.7983 72.0172 91.055 72.0172 91.3723C72.0172 91.615 72.0918 91.8156 72.2412 91.9743C72.3998 92.133 72.6472 92.2496 72.9832 92.3243L74.2852 92.5903C74.8918 92.721 75.3492 92.931 75.6572 93.2203C75.9652 93.5003 76.1192 93.883 76.1192 94.3683C76.1192 95.003 75.8672 95.507 75.3632 95.8803C74.8685 96.2443 74.2012 96.4263 73.3612 96.4263ZM78.3648 98.6523C78.2901 98.7736 78.1874 98.8483 78.0568 98.8763C77.9261 98.9136 77.8001 98.9043 77.6788 98.8483C77.5668 98.8016 77.4828 98.713 77.4268 98.5823C77.3708 98.461 77.3801 98.307 77.4548 98.1203C77.7068 97.495 77.9121 96.8836 78.0708 96.2863C78.2294 95.6796 78.3461 95.073 78.4208 94.4663C78.5048 93.8596 78.5468 93.2436 78.5468 92.6183C78.5468 91.993 78.5048 91.377 78.4208 90.7703C78.3368 90.1636 78.2108 89.5616 78.0428 88.9643C77.8841 88.3576 77.6881 87.7416 77.4548 87.1163C77.3801 86.9296 77.3708 86.771 77.4268 86.6403C77.4828 86.5096 77.5714 86.421 77.6928 86.3743C77.8141 86.3183 77.9354 86.309 78.0568 86.3463C78.1874 86.3743 78.2901 86.4536 78.3648 86.5843C78.8968 87.5363 79.2841 88.521 79.5268 89.5383C79.7788 90.5463 79.9048 91.573 79.9048 92.6183C79.9048 93.309 79.8488 93.9996 79.7368 94.6903C79.6248 95.3716 79.4568 96.0436 79.2328 96.7063C79.0088 97.369 78.7194 98.0176 78.3648 98.6523ZM88.1636 96.4263C87.6969 96.4263 87.2722 96.333 86.8896 96.1463C86.5162 95.9596 86.2222 95.7076 86.0076 95.3903C85.8022 95.073 85.6996 94.7183 85.6996 94.3263C85.6996 93.8223 85.8256 93.4256 86.0776 93.1363C86.3296 92.847 86.7542 92.6416 87.3516 92.5203C87.9489 92.3896 88.7516 92.3243 89.7596 92.3243H90.4176V93.1363H89.7876C89.0689 93.1363 88.4996 93.169 88.0796 93.2343C87.6689 93.2996 87.3796 93.4163 87.2116 93.5843C87.0436 93.743 86.9596 93.967 86.9596 94.2563C86.9596 94.6203 87.0856 94.919 87.3376 95.1523C87.5989 95.3856 87.9536 95.5023 88.4016 95.5023C88.7562 95.5023 89.0689 95.4183 89.3396 95.2503C89.6102 95.073 89.8249 94.8396 89.9836 94.5503C90.1422 94.2516 90.2216 93.911 90.2216 93.5283V91.9183C90.2216 91.3676 90.1096 90.971 89.8856 90.7283C89.6616 90.4763 89.2836 90.3503 88.7516 90.3503C88.4436 90.3503 88.1262 90.3923 87.7996 90.4763C87.4729 90.5603 87.1322 90.691 86.7776 90.8683C86.6376 90.9336 86.5162 90.957 86.4136 90.9383C86.3109 90.9103 86.2269 90.8543 86.1616 90.7703C86.1056 90.677 86.0729 90.579 86.0636 90.4763C86.0636 90.3643 86.0869 90.257 86.1336 90.1543C86.1896 90.0516 86.2829 89.977 86.4136 89.9303C86.8242 89.725 87.2302 89.5803 87.6316 89.4963C88.0422 89.403 88.4249 89.3563 88.7796 89.3563C89.3862 89.3563 89.8856 89.4543 90.2776 89.6503C90.6696 89.837 90.9636 90.131 91.1596 90.5323C91.3556 90.9243 91.4536 91.4283 91.4536 92.0443V95.7403C91.4536 95.955 91.4022 96.1183 91.2996 96.2303C91.1969 96.3423 91.0476 96.3983 90.8516 96.3983C90.6649 96.3983 90.5156 96.3423 90.4036 96.2303C90.3009 96.1183 90.2496 95.955 90.2496 95.7403V94.7463H90.3756C90.3009 95.0916 90.1609 95.3903 89.9556 95.6423C89.7502 95.8943 89.4936 96.0903 89.1856 96.2303C88.8869 96.361 88.5462 96.4263 88.1636 96.4263ZM94.0884 96.3983C93.8924 96.3983 93.7384 96.3423 93.6264 96.2303C93.5144 96.1183 93.4584 95.955 93.4584 95.7403V90.0283C93.4584 89.8136 93.5144 89.655 93.6264 89.5523C93.7384 89.4403 93.8924 89.3843 94.0884 89.3843C94.2844 89.3843 94.4337 89.4403 94.5364 89.5523C94.6484 89.655 94.7044 89.8136 94.7044 90.0283V91.1763L94.5504 90.9663C94.7464 90.4343 95.0637 90.033 95.5024 89.7623C95.9504 89.4916 96.4591 89.3563 97.0284 89.3563C97.5791 89.3563 98.0317 89.4543 98.3864 89.6503C98.7411 89.8463 99.0071 90.145 99.1844 90.5463C99.3617 90.9476 99.4504 91.4563 99.4504 92.0723V95.7403C99.4504 95.955 99.3944 96.1183 99.2824 96.2303C99.1797 96.3423 99.0257 96.3983 98.8204 96.3983C98.6151 96.3983 98.4564 96.3423 98.3444 96.2303C98.2324 96.1183 98.1764 95.955 98.1764 95.7403V92.1423C98.1764 91.5356 98.0597 91.0923 97.8264 90.8123C97.5931 90.5323 97.2197 90.3923 96.7064 90.3923C96.1091 90.3923 95.6284 90.579 95.2644 90.9523C94.9097 91.3163 94.7324 91.811 94.7324 92.4363V95.7403C94.7324 96.179 94.5177 96.3983 94.0884 96.3983ZM104.074 96.4263C103.477 96.4263 102.949 96.2863 102.492 96.0063C102.044 95.717 101.694 95.3063 101.442 94.7743C101.19 94.233 101.064 93.603 101.064 92.8843C101.064 92.1563 101.185 91.531 101.428 91.0083C101.68 90.4763 102.03 90.0703 102.478 89.7903C102.935 89.501 103.467 89.3563 104.074 89.3563C104.681 89.3563 105.203 89.5103 105.642 89.8183C106.081 90.117 106.375 90.5183 106.524 91.0223H106.37V86.9763C106.37 86.7616 106.421 86.603 106.524 86.5003C106.636 86.3883 106.795 86.3323 107 86.3323C107.205 86.3323 107.364 86.3883 107.476 86.5003C107.588 86.603 107.644 86.7616 107.644 86.9763V95.7403C107.644 95.955 107.588 96.1183 107.476 96.2303C107.364 96.3423 107.205 96.3983 107 96.3983C106.804 96.3983 106.65 96.3423 106.538 96.2303C106.426 96.1183 106.37 95.955 106.37 95.7403V94.4663L106.524 94.7183C106.384 95.241 106.09 95.6563 105.642 95.9643C105.203 96.2723 104.681 96.4263 104.074 96.4263ZM104.368 95.4183C104.779 95.4183 105.133 95.3203 105.432 95.1243C105.74 94.9283 105.973 94.6436 106.132 94.2703C106.3 93.897 106.384 93.435 106.384 92.8843C106.384 92.063 106.202 91.4376 105.838 91.0083C105.474 90.579 104.984 90.3643 104.368 90.3643C103.967 90.3643 103.612 90.4623 103.304 90.6583C103.005 90.845 102.772 91.125 102.604 91.4983C102.436 91.8716 102.352 92.3336 102.352 92.8843C102.352 93.7056 102.534 94.3356 102.898 94.7743C103.271 95.2036 103.761 95.4183 104.368 95.4183ZM115.941 96.4263C115.344 96.4263 114.817 96.2863 114.359 96.0063C113.911 95.717 113.561 95.3063 113.309 94.7743C113.057 94.233 112.931 93.603 112.931 92.8843C112.931 92.1563 113.053 91.531 113.295 91.0083C113.547 90.4763 113.897 90.0703 114.345 89.7903C114.803 89.501 115.335 89.3563 115.941 89.3563C116.548 89.3563 117.071 89.5103 117.509 89.8183C117.948 90.117 118.242 90.5183 118.391 91.0223H118.237V86.9763C118.237 86.7616 118.289 86.603 118.391 86.5003C118.503 86.3883 118.662 86.3323 118.867 86.3323C119.073 86.3323 119.231 86.3883 119.343 86.5003C119.455 86.603 119.511 86.7616 119.511 86.9763V95.7403C119.511 95.955 119.455 96.1183 119.343 96.2303C119.231 96.3423 119.073 96.3983 118.867 96.3983C118.671 96.3983 118.517 96.3423 118.405 96.2303C118.293 96.1183 118.237 95.955 118.237 95.7403V94.4663L118.391 94.7183C118.251 95.241 117.957 95.6563 117.509 95.9643C117.071 96.2723 116.548 96.4263 115.941 96.4263ZM116.235 95.4183C116.646 95.4183 117.001 95.3203 117.299 95.1243C117.607 94.9283 117.841 94.6436 117.999 94.2703C118.167 93.897 118.251 93.435 118.251 92.8843C118.251 92.063 118.069 91.4376 117.705 91.0083C117.341 90.579 116.851 90.3643 116.235 90.3643C115.834 90.3643 115.479 90.4623 115.171 90.6583C114.873 90.845 114.639 91.125 114.471 91.4983C114.303 91.8716 114.219 92.3336 114.219 92.8843C114.219 93.7056 114.401 94.3356 114.765 94.7743C115.139 95.2036 115.629 95.4183 116.235 95.4183ZM124.704 96.4263C123.967 96.4263 123.332 96.2863 122.8 96.0063C122.277 95.717 121.871 95.311 121.582 94.7883C121.293 94.2563 121.148 93.631 121.148 92.9123C121.148 92.203 121.288 91.5823 121.568 91.0503C121.857 90.5183 122.249 90.103 122.744 89.8043C123.248 89.5056 123.822 89.3563 124.466 89.3563C124.923 89.3563 125.334 89.4356 125.698 89.5943C126.071 89.7436 126.389 89.963 126.65 90.2523C126.911 90.5416 127.107 90.8963 127.238 91.3163C127.378 91.727 127.448 92.1936 127.448 92.7163C127.448 92.8656 127.401 92.9823 127.308 93.0663C127.224 93.141 127.098 93.1783 126.93 93.1783H122.142V92.3663H126.608L126.37 92.5623C126.37 92.077 126.295 91.6663 126.146 91.3303C126.006 90.985 125.796 90.7236 125.516 90.5463C125.245 90.369 124.905 90.2803 124.494 90.2803C124.046 90.2803 123.663 90.3876 123.346 90.6023C123.029 90.8076 122.786 91.1016 122.618 91.4843C122.45 91.8576 122.366 92.2916 122.366 92.7863V92.8703C122.366 93.7103 122.567 94.345 122.968 94.7743C123.369 95.2036 123.948 95.4183 124.704 95.4183C125.003 95.4183 125.306 95.381 125.614 95.3063C125.931 95.2316 126.235 95.0963 126.524 94.9003C126.664 94.8163 126.79 94.779 126.902 94.7883C127.023 94.7883 127.121 94.8256 127.196 94.9003C127.271 94.9656 127.317 95.0496 127.336 95.1523C127.355 95.2456 127.341 95.3483 127.294 95.4603C127.247 95.5723 127.159 95.6703 127.028 95.7543C126.72 95.969 126.351 96.137 125.922 96.2583C125.502 96.3703 125.096 96.4263 124.704 96.4263ZM131.385 96.4263C130.965 96.4263 130.54 96.3796 130.111 96.2863C129.691 96.1836 129.294 96.011 128.921 95.7683C128.818 95.703 128.743 95.6236 128.697 95.5303C128.659 95.4276 128.645 95.3296 128.655 95.2363C128.673 95.1336 128.715 95.045 128.781 94.9703C128.846 94.8956 128.925 94.8536 129.019 94.8443C129.121 94.8256 129.229 94.849 129.341 94.9143C129.705 95.1196 130.055 95.2643 130.391 95.3483C130.736 95.4323 131.077 95.4743 131.413 95.4743C131.926 95.4743 132.313 95.381 132.575 95.1943C132.836 95.0076 132.967 94.7603 132.967 94.4523C132.967 94.191 132.878 93.9903 132.701 93.8503C132.533 93.701 132.267 93.589 131.903 93.5143L130.601 93.2483C130.022 93.1176 129.583 92.903 129.285 92.6043C128.995 92.2963 128.851 91.9043 128.851 91.4283C128.851 91.0083 128.963 90.6443 129.187 90.3363C129.42 90.019 129.742 89.7763 130.153 89.6083C130.563 89.4403 131.035 89.3563 131.567 89.3563C131.977 89.3563 132.365 89.4123 132.729 89.5243C133.102 89.627 133.438 89.7856 133.737 90.0003C133.849 90.0656 133.919 90.1496 133.947 90.2523C133.984 90.3456 133.989 90.4436 133.961 90.5463C133.942 90.6396 133.9 90.719 133.835 90.7843C133.769 90.8496 133.685 90.8916 133.583 90.9103C133.48 90.9196 133.368 90.8916 133.247 90.8263C132.976 90.6396 132.696 90.509 132.407 90.4343C132.127 90.3503 131.847 90.3083 131.567 90.3083C131.063 90.3083 130.68 90.4063 130.419 90.6023C130.167 90.7983 130.041 91.055 130.041 91.3723C130.041 91.615 130.115 91.8156 130.265 91.9743C130.423 92.133 130.671 92.2496 131.007 92.3243L132.309 92.5903C132.915 92.721 133.373 92.931 133.681 93.2203C133.989 93.5003 134.143 93.883 134.143 94.3683C134.143 95.003 133.891 95.507 133.387 95.8803C132.892 96.2443 132.225 96.4263 131.385 96.4263ZM136.43 96.3703C136.234 96.3703 136.08 96.3096 135.968 96.1883C135.856 96.067 135.8 95.899 135.8 95.6843V90.0983C135.8 89.8743 135.856 89.7063 135.968 89.5943C136.08 89.473 136.234 89.4123 136.43 89.4123C136.636 89.4123 136.794 89.473 136.906 89.5943C137.018 89.7063 137.074 89.8743 137.074 90.0983V95.6843C137.074 95.899 137.018 96.067 136.906 96.1883C136.804 96.3096 136.645 96.3703 136.43 96.3703ZM136.43 87.9003C136.178 87.9003 135.978 87.835 135.828 87.7043C135.688 87.5643 135.618 87.3823 135.618 87.1583C135.618 86.9156 135.688 86.7336 135.828 86.6123C135.978 86.4816 136.178 86.4163 136.43 86.4163C136.701 86.4163 136.902 86.4816 137.032 86.6123C137.172 86.7336 137.242 86.9156 137.242 87.1583C137.242 87.3823 137.172 87.5643 137.032 87.7043C136.902 87.835 136.701 87.9003 136.43 87.9003ZM142.188 98.9463C141.684 98.9463 141.194 98.8903 140.718 98.7783C140.252 98.6663 139.827 98.4936 139.444 98.2603C139.323 98.1856 139.239 98.097 139.192 97.9943C139.155 97.901 139.146 97.803 139.164 97.7003C139.192 97.5976 139.239 97.5043 139.304 97.4203C139.379 97.3456 139.463 97.2943 139.556 97.2663C139.659 97.2476 139.762 97.271 139.864 97.3363C140.275 97.5696 140.667 97.7283 141.04 97.8123C141.414 97.8963 141.768 97.9383 142.104 97.9383C142.767 97.9383 143.262 97.7656 143.588 97.4203C143.924 97.0843 144.092 96.5896 144.092 95.9363V94.4243H144.218C144.088 94.947 143.794 95.3623 143.336 95.6703C142.888 95.9783 142.366 96.1323 141.768 96.1323C141.152 96.1323 140.616 95.9923 140.158 95.7123C139.701 95.423 139.346 95.0263 139.094 94.5223C138.842 94.009 138.716 93.4163 138.716 92.7443C138.716 92.231 138.786 91.769 138.926 91.3583C139.076 90.9383 139.281 90.5836 139.542 90.2943C139.813 89.9956 140.135 89.767 140.508 89.6083C140.882 89.4403 141.302 89.3563 141.768 89.3563C142.375 89.3563 142.902 89.5103 143.35 89.8183C143.798 90.1263 144.088 90.5416 144.218 91.0643L144.064 91.2603V90.0283C144.064 89.8136 144.12 89.655 144.232 89.5523C144.344 89.4403 144.503 89.3843 144.708 89.3843C144.904 89.3843 145.058 89.4403 145.17 89.5523C145.282 89.655 145.338 89.8136 145.338 90.0283V95.7683C145.338 96.823 145.068 97.6163 144.526 98.1483C143.994 98.6803 143.215 98.9463 142.188 98.9463ZM142.048 95.1243C142.468 95.1243 142.828 95.031 143.126 94.8443C143.434 94.6483 143.668 94.373 143.826 94.0183C143.994 93.6543 144.078 93.2296 144.078 92.7443C144.078 92.007 143.896 91.4283 143.532 91.0083C143.168 90.579 142.674 90.3643 142.048 90.3643C141.628 90.3643 141.264 90.4623 140.956 90.6583C140.658 90.845 140.424 91.1156 140.256 91.4703C140.088 91.825 140.004 92.2496 140.004 92.7443C140.004 93.4723 140.186 94.051 140.55 94.4803C140.924 94.9096 141.423 95.1243 142.048 95.1243ZM148.01 96.3983C147.814 96.3983 147.66 96.3423 147.548 96.2303C147.436 96.1183 147.38 95.955 147.38 95.7403V90.0283C147.38 89.8136 147.436 89.655 147.548 89.5523C147.66 89.4403 147.814 89.3843 148.01 89.3843C148.206 89.3843 148.356 89.4403 148.458 89.5523C148.57 89.655 148.626 89.8136 148.626 90.0283V91.1763L148.472 90.9663C148.668 90.4343 148.986 90.033 149.424 89.7623C149.872 89.4916 150.381 89.3563 150.95 89.3563C151.501 89.3563 151.954 89.4543 152.308 89.6503C152.663 89.8463 152.929 90.145 153.106 90.5463C153.284 90.9476 153.372 91.4563 153.372 92.0723V95.7403C153.372 95.955 153.316 96.1183 153.204 96.2303C153.102 96.3423 152.948 96.3983 152.742 96.3983C152.537 96.3983 152.378 96.3423 152.266 96.2303C152.154 96.1183 152.098 95.955 152.098 95.7403V92.1423C152.098 91.5356 151.982 91.0923 151.748 90.8123C151.515 90.5323 151.142 90.3923 150.628 90.3923C150.031 90.3923 149.55 90.579 149.186 90.9523C148.832 91.3163 148.654 91.811 148.654 92.4363V95.7403C148.654 96.179 148.44 96.3983 148.01 96.3983ZM161.996 96.4263C161.306 96.4263 160.708 96.2816 160.204 95.9923C159.7 95.6936 159.313 95.2783 159.042 94.7463C158.772 94.205 158.636 93.5703 158.636 92.8423C158.636 92.301 158.711 91.8156 158.86 91.3863C159.019 90.957 159.243 90.593 159.532 90.2943C159.822 89.9863 160.172 89.753 160.582 89.5943C161.002 89.4356 161.474 89.3563 161.996 89.3563C162.323 89.3563 162.668 89.4076 163.032 89.5103C163.396 89.613 163.732 89.781 164.04 90.0143C164.143 90.089 164.208 90.1776 164.236 90.2803C164.264 90.3736 164.264 90.4716 164.236 90.5743C164.218 90.677 164.171 90.7656 164.096 90.8403C164.031 90.9056 163.942 90.943 163.83 90.9523C163.728 90.9616 163.616 90.929 163.494 90.8543C163.27 90.6863 163.032 90.565 162.78 90.4903C162.538 90.4156 162.304 90.3783 162.08 90.3783C161.735 90.3783 161.427 90.4343 161.156 90.5463C160.895 90.6583 160.671 90.8216 160.484 91.0363C160.307 91.2416 160.172 91.4983 160.078 91.8063C159.985 92.105 159.938 92.455 159.938 92.8563C159.938 93.6496 160.125 94.275 160.498 94.7323C160.872 95.1803 161.399 95.4043 162.08 95.4043C162.304 95.4043 162.538 95.3716 162.78 95.3063C163.023 95.2316 163.261 95.1103 163.494 94.9423C163.616 94.8676 163.728 94.8396 163.83 94.8583C163.933 94.8676 164.017 94.9096 164.082 94.9843C164.157 95.0496 164.204 95.1336 164.222 95.2363C164.241 95.3296 164.232 95.4276 164.194 95.5303C164.166 95.633 164.101 95.717 163.998 95.7823C163.7 96.0063 163.373 96.1696 163.018 96.2723C162.664 96.375 162.323 96.4263 161.996 96.4263ZM167.986 96.4263C167.436 96.4263 166.974 96.3236 166.6 96.1183C166.236 95.913 165.966 95.6096 165.788 95.2083C165.611 94.807 165.522 94.303 165.522 93.6963V90.0283C165.522 89.8136 165.574 89.655 165.676 89.5523C165.788 89.4403 165.947 89.3843 166.152 89.3843C166.358 89.3843 166.516 89.4403 166.628 89.5523C166.74 89.655 166.796 89.8136 166.796 90.0283V93.6963C166.796 94.275 166.913 94.7043 167.146 94.9843C167.38 95.255 167.748 95.3903 168.252 95.3903C168.812 95.3903 169.265 95.2036 169.61 94.8303C169.965 94.457 170.142 93.9623 170.142 93.3463V90.0283C170.142 89.8136 170.194 89.655 170.296 89.5523C170.408 89.4403 170.567 89.3843 170.772 89.3843C170.978 89.3843 171.136 89.4403 171.248 89.5523C171.36 89.655 171.416 89.8136 171.416 90.0283V95.7403C171.416 96.179 171.211 96.3983 170.8 96.3983C170.595 96.3983 170.436 96.3423 170.324 96.2303C170.222 96.1183 170.17 95.955 170.17 95.7403V94.5223L170.352 94.7603C170.166 95.3016 169.862 95.717 169.442 96.0063C169.032 96.2863 168.546 96.4263 167.986 96.4263ZM175.818 96.4263C175.398 96.4263 174.974 96.3796 174.544 96.2863C174.124 96.1836 173.728 96.011 173.354 95.7683C173.252 95.703 173.177 95.6236 173.13 95.5303C173.093 95.4276 173.079 95.3296 173.088 95.2363C173.107 95.1336 173.149 95.045 173.214 94.9703C173.28 94.8956 173.359 94.8536 173.452 94.8443C173.555 94.8256 173.662 94.849 173.774 94.9143C174.138 95.1196 174.488 95.2643 174.824 95.3483C175.17 95.4323 175.51 95.4743 175.846 95.4743C176.36 95.4743 176.747 95.381 177.008 95.1943C177.27 95.0076 177.4 94.7603 177.4 94.4523C177.4 94.191 177.312 93.9903 177.134 93.8503C176.966 93.701 176.7 93.589 176.336 93.5143L175.034 93.2483C174.456 93.1176 174.017 92.903 173.718 92.6043C173.429 92.2963 173.284 91.9043 173.284 91.4283C173.284 91.0083 173.396 90.6443 173.62 90.3363C173.854 90.019 174.176 89.7763 174.586 89.6083C174.997 89.4403 175.468 89.3563 176 89.3563C176.411 89.3563 176.798 89.4123 177.162 89.5243C177.536 89.627 177.872 89.7856 178.17 90.0003C178.282 90.0656 178.352 90.1496 178.38 90.2523C178.418 90.3456 178.422 90.4436 178.394 90.5463C178.376 90.6396 178.334 90.719 178.268 90.7843C178.203 90.8496 178.119 90.8916 178.016 90.9103C177.914 90.9196 177.802 90.8916 177.68 90.8263C177.41 90.6396 177.13 90.509 176.84 90.4343C176.56 90.3503 176.28 90.3083 176 90.3083C175.496 90.3083 175.114 90.4063 174.852 90.6023C174.6 90.7983 174.474 91.055 174.474 91.3723C174.474 91.615 174.549 91.8156 174.698 91.9743C174.857 92.133 175.104 92.2496 175.44 92.3243L176.742 92.5903C177.349 92.721 177.806 92.931 178.114 93.2203C178.422 93.5003 178.576 93.883 178.576 94.3683C178.576 95.003 178.324 95.507 177.82 95.8803C177.326 96.2443 176.658 96.4263 175.818 96.4263ZM182.993 96.4263C182.443 96.4263 181.981 96.3283 181.607 96.1323C181.243 95.9363 180.968 95.6516 180.781 95.2783C180.604 94.905 180.515 94.4476 180.515 93.9063V90.4623H179.619C179.451 90.4623 179.321 90.4203 179.227 90.3363C179.134 90.243 179.087 90.1216 179.087 89.9723C179.087 89.8136 179.134 89.6923 179.227 89.6083C179.321 89.5243 179.451 89.4823 179.619 89.4823H180.515V87.9563C180.515 87.7416 180.571 87.583 180.683 87.4803C180.795 87.3683 180.954 87.3123 181.159 87.3123C181.365 87.3123 181.519 87.3683 181.621 87.4803C181.733 87.583 181.789 87.7416 181.789 87.9563V89.4823H183.483C183.661 89.4823 183.796 89.5243 183.889 89.6083C183.983 89.6923 184.029 89.8136 184.029 89.9723C184.029 90.1216 183.983 90.243 183.889 90.3363C183.796 90.4203 183.661 90.4623 183.483 90.4623H181.789V93.7943C181.789 94.3076 181.897 94.695 182.111 94.9563C182.326 95.2176 182.681 95.3483 183.175 95.3483C183.353 95.3483 183.502 95.3343 183.623 95.3063C183.745 95.269 183.852 95.2503 183.945 95.2503C184.029 95.241 184.099 95.269 184.155 95.3343C184.221 95.3996 184.253 95.521 184.253 95.6983C184.253 95.829 184.23 95.9503 184.183 96.0623C184.146 96.165 184.067 96.235 183.945 96.2723C183.833 96.3096 183.684 96.3423 183.497 96.3703C183.311 96.4076 183.143 96.4263 182.993 96.4263ZM188.013 96.4263C187.341 96.4263 186.757 96.2816 186.263 95.9923C185.768 95.703 185.385 95.2923 185.115 94.7603C184.844 94.2283 184.709 93.603 184.709 92.8843C184.709 92.343 184.783 91.8576 184.933 91.4283C185.091 90.9896 185.315 90.6163 185.605 90.3083C185.894 90.0003 186.239 89.767 186.641 89.6083C187.051 89.4403 187.509 89.3563 188.013 89.3563C188.685 89.3563 189.268 89.501 189.763 89.7903C190.257 90.0796 190.64 90.4903 190.911 91.0223C191.181 91.545 191.317 92.1656 191.317 92.8843C191.317 93.4256 191.237 93.9156 191.079 94.3543C190.929 94.793 190.71 95.1663 190.421 95.4743C190.131 95.7823 189.781 96.0203 189.371 96.1883C188.969 96.347 188.517 96.4263 188.013 96.4263ZM188.013 95.4183C188.423 95.4183 188.778 95.3203 189.077 95.1243C189.385 94.9283 189.618 94.6436 189.777 94.2703C189.945 93.897 190.029 93.435 190.029 92.8843C190.029 92.063 189.847 91.4376 189.483 91.0083C189.119 90.579 188.629 90.3643 188.013 90.3643C187.611 90.3643 187.257 90.4623 186.949 90.6583C186.65 90.845 186.417 91.125 186.249 91.4983C186.081 91.8716 185.997 92.3336 185.997 92.8843C185.997 93.7056 186.179 94.3356 186.543 94.7743C186.916 95.2036 187.406 95.4183 188.013 95.4183ZM193.607 96.3983C193.411 96.3983 193.257 96.3423 193.145 96.2303C193.033 96.1183 192.977 95.955 192.977 95.7403V90.0283C192.977 89.8136 193.033 89.655 193.145 89.5523C193.257 89.4403 193.411 89.3843 193.607 89.3843C193.803 89.3843 193.952 89.4403 194.055 89.5523C194.167 89.655 194.223 89.8136 194.223 90.0283V91.2183L194.069 90.9663C194.246 90.453 194.531 90.0563 194.923 89.7763C195.324 89.4963 195.8 89.3563 196.351 89.3563C196.929 89.3563 197.396 89.4963 197.751 89.7763C198.105 90.047 198.343 90.4623 198.465 91.0223H198.269C198.437 90.509 198.735 90.103 199.165 89.8043C199.603 89.5056 200.112 89.3563 200.691 89.3563C201.204 89.3563 201.624 89.459 201.951 89.6643C202.287 89.8603 202.539 90.159 202.707 90.5603C202.875 90.9523 202.959 91.4563 202.959 92.0723V95.7403C202.959 95.955 202.903 96.1183 202.791 96.2303C202.679 96.3423 202.525 96.3983 202.329 96.3983C202.123 96.3983 201.965 96.3423 201.853 96.2303C201.741 96.1183 201.685 95.955 201.685 95.7403V92.1283C201.685 91.531 201.582 91.0923 201.377 90.8123C201.171 90.5323 200.826 90.3923 200.341 90.3923C199.809 90.3923 199.384 90.579 199.067 90.9523C198.759 91.3163 198.605 91.8203 198.605 92.4643V95.7403C198.605 95.955 198.549 96.1183 198.437 96.2303C198.334 96.3423 198.18 96.3983 197.975 96.3983C197.769 96.3983 197.611 96.3423 197.499 96.2303C197.387 96.1183 197.331 95.955 197.331 95.7403V92.1283C197.331 91.531 197.228 91.0923 197.023 90.8123C196.817 90.5323 196.472 90.3923 195.987 90.3923C195.455 90.3923 195.03 90.579 194.713 90.9523C194.405 91.3163 194.251 91.8203 194.251 92.4643V95.7403C194.251 96.179 194.036 96.3983 193.607 96.3983ZM211.486 96.4263C210.935 96.4263 210.473 96.3283 210.1 96.1323C209.736 95.9363 209.46 95.6516 209.274 95.2783C209.096 94.905 209.008 94.4476 209.008 93.9063V90.4623H208.112C207.944 90.4623 207.813 90.4203 207.72 90.3363C207.626 90.243 207.58 90.1216 207.58 89.9723C207.58 89.8136 207.626 89.6923 207.72 89.6083C207.813 89.5243 207.944 89.4823 208.112 89.4823H209.008V87.9563C209.008 87.7416 209.064 87.583 209.176 87.4803C209.288 87.3683 209.446 87.3123 209.652 87.3123C209.857 87.3123 210.011 87.3683 210.114 87.4803C210.226 87.583 210.282 87.7416 210.282 87.9563V89.4823H211.976C212.153 89.4823 212.288 89.5243 212.382 89.6083C212.475 89.6923 212.522 89.8136 212.522 89.9723C212.522 90.1216 212.475 90.243 212.382 90.3363C212.288 90.4203 212.153 90.4623 211.976 90.4623H210.282V93.7943C210.282 94.3076 210.389 94.695 210.604 94.9563C210.818 95.2176 211.173 95.3483 211.668 95.3483C211.845 95.3483 211.994 95.3343 212.116 95.3063C212.237 95.269 212.344 95.2503 212.438 95.2503C212.522 95.241 212.592 95.269 212.648 95.3343C212.713 95.3996 212.746 95.521 212.746 95.6983C212.746 95.829 212.722 95.9503 212.676 96.0623C212.638 96.165 212.559 96.235 212.438 96.2723C212.326 96.3096 212.176 96.3423 211.99 96.3703C211.803 96.4076 211.635 96.4263 211.486 96.4263ZM215.845 96.4263C215.379 96.4263 214.954 96.333 214.571 96.1463C214.198 95.9596 213.904 95.7076 213.689 95.3903C213.484 95.073 213.381 94.7183 213.381 94.3263C213.381 93.8223 213.507 93.4256 213.759 93.1363C214.011 92.847 214.436 92.6416 215.033 92.5203C215.631 92.3896 216.433 92.3243 217.441 92.3243H218.099V93.1363H217.469C216.751 93.1363 216.181 93.169 215.761 93.2343C215.351 93.2996 215.061 93.4163 214.893 93.5843C214.725 93.743 214.641 93.967 214.641 94.2563C214.641 94.6203 214.767 94.919 215.019 95.1523C215.281 95.3856 215.635 95.5023 216.083 95.5023C216.438 95.5023 216.751 95.4183 217.021 95.2503C217.292 95.073 217.507 94.8396 217.665 94.5503C217.824 94.2516 217.903 93.911 217.903 93.5283V91.9183C217.903 91.3676 217.791 90.971 217.567 90.7283C217.343 90.4763 216.965 90.3503 216.433 90.3503C216.125 90.3503 215.808 90.3923 215.481 90.4763C215.155 90.5603 214.814 90.691 214.459 90.8683C214.319 90.9336 214.198 90.957 214.095 90.9383C213.993 90.9103 213.909 90.8543 213.843 90.7703C213.787 90.677 213.755 90.579 213.745 90.4763C213.745 90.3643 213.769 90.257 213.815 90.1543C213.871 90.0516 213.965 89.977 214.095 89.9303C214.506 89.725 214.912 89.5803 215.313 89.4963C215.724 89.403 216.107 89.3563 216.461 89.3563C217.068 89.3563 217.567 89.4543 217.959 89.6503C218.351 89.837 218.645 90.131 218.841 90.5323C219.037 90.9243 219.135 91.4283 219.135 92.0443V95.7403C219.135 95.955 219.084 96.1183 218.981 96.2303C218.879 96.3423 218.729 96.3983 218.533 96.3983C218.347 96.3983 218.197 96.3423 218.085 96.2303C217.983 96.1183 217.931 95.955 217.931 95.7403V94.7463H218.057C217.983 95.0916 217.843 95.3903 217.637 95.6423C217.432 95.8943 217.175 96.0903 216.867 96.2303C216.569 96.361 216.228 96.4263 215.845 96.4263ZM223.282 96.4263C222.582 96.4263 222.05 96.221 221.686 95.8103C221.322 95.3903 221.14 94.7883 221.14 94.0043V86.9763C221.14 86.7616 221.196 86.603 221.308 86.5003C221.42 86.3883 221.574 86.3323 221.77 86.3323C221.975 86.3323 222.134 86.3883 222.246 86.5003C222.358 86.603 222.414 86.7616 222.414 86.9763V93.9063C222.414 94.3916 222.512 94.7556 222.708 94.9983C222.913 95.2316 223.203 95.3483 223.576 95.3483C223.66 95.3483 223.735 95.3483 223.8 95.3483C223.865 95.339 223.931 95.3296 223.996 95.3203C224.099 95.311 224.173 95.339 224.22 95.4043C224.267 95.4696 224.29 95.6003 224.29 95.7963C224.29 95.9736 224.248 96.1136 224.164 96.2163C224.089 96.3096 223.963 96.3703 223.786 96.3983C223.702 96.4076 223.618 96.4123 223.534 96.4123C223.45 96.4216 223.366 96.4263 223.282 96.4263ZM228.433 96.4263C227.695 96.4263 227.061 96.2863 226.529 96.0063C226.006 95.717 225.6 95.311 225.311 94.7883C225.021 94.2563 224.877 93.631 224.877 92.9123C224.877 92.203 225.017 91.5823 225.297 91.0503C225.586 90.5183 225.978 90.103 226.473 89.8043C226.977 89.5056 227.551 89.3563 228.195 89.3563C228.652 89.3563 229.063 89.4356 229.427 89.5943C229.8 89.7436 230.117 89.963 230.379 90.2523C230.64 90.5416 230.836 90.8963 230.967 91.3163C231.107 91.727 231.177 92.1936 231.177 92.7163C231.177 92.8656 231.13 92.9823 231.037 93.0663C230.953 93.141 230.827 93.1783 230.659 93.1783H225.871V92.3663H230.337L230.099 92.5623C230.099 92.077 230.024 91.6663 229.875 91.3303C229.735 90.985 229.525 90.7236 229.245 90.5463C228.974 90.369 228.633 90.2803 228.223 90.2803C227.775 90.2803 227.392 90.3876 227.075 90.6023C226.757 90.8076 226.515 91.1016 226.347 91.4843C226.179 91.8576 226.095 92.2916 226.095 92.7863V92.8703C226.095 93.7103 226.295 94.345 226.697 94.7743C227.098 95.2036 227.677 95.4183 228.433 95.4183C228.731 95.4183 229.035 95.381 229.343 95.3063C229.66 95.2316 229.963 95.0963 230.253 94.9003C230.393 94.8163 230.519 94.779 230.631 94.7883C230.752 94.7883 230.85 94.8256 230.925 94.9003C230.999 94.9656 231.046 95.0496 231.065 95.1523C231.083 95.2456 231.069 95.3483 231.023 95.4603C230.976 95.5723 230.887 95.6703 230.757 95.7543C230.449 95.969 230.08 96.137 229.651 96.2583C229.231 96.3703 228.825 96.4263 228.433 96.4263ZM233.391 96.3983C233.195 96.3983 233.041 96.3423 232.929 96.2303C232.817 96.1183 232.761 95.955 232.761 95.7403V90.0283C232.761 89.8136 232.817 89.655 232.929 89.5523C233.041 89.4403 233.195 89.3843 233.391 89.3843C233.587 89.3843 233.736 89.4403 233.839 89.5523C233.951 89.655 234.007 89.8136 234.007 90.0283V91.1763L233.853 90.9663C234.049 90.4343 234.366 90.033 234.805 89.7623C235.253 89.4916 235.762 89.3563 236.331 89.3563C236.882 89.3563 237.334 89.4543 237.689 89.6503C238.044 89.8463 238.31 90.145 238.487 90.5463C238.664 90.9476 238.753 91.4563 238.753 92.0723V95.7403C238.753 95.955 238.697 96.1183 238.585 96.2303C238.482 96.3423 238.328 96.3983 238.123 96.3983C237.918 96.3983 237.759 96.3423 237.647 96.2303C237.535 96.1183 237.479 95.955 237.479 95.7403V92.1423C237.479 91.5356 237.362 91.0923 237.129 90.8123C236.896 90.5323 236.522 90.3923 236.009 90.3923C235.412 90.3923 234.931 90.579 234.567 90.9523C234.212 91.3163 234.035 91.811 234.035 92.4363V95.7403C234.035 96.179 233.82 96.3983 233.391 96.3983ZM243.601 96.4263C243.05 96.4263 242.588 96.3283 242.215 96.1323C241.851 95.9363 241.576 95.6516 241.389 95.2783C241.212 94.905 241.123 94.4476 241.123 93.9063V90.4623H240.227C240.059 90.4623 239.928 90.4203 239.835 90.3363C239.742 90.243 239.695 90.1216 239.695 89.9723C239.695 89.8136 239.742 89.6923 239.835 89.6083C239.928 89.5243 240.059 89.4823 240.227 89.4823H241.123V87.9563C241.123 87.7416 241.179 87.583 241.291 87.4803C241.403 87.3683 241.562 87.3123 241.767 87.3123C241.972 87.3123 242.126 87.3683 242.229 87.4803C242.341 87.583 242.397 87.7416 242.397 87.9563V89.4823H244.091C244.268 89.4823 244.404 89.5243 244.497 89.6083C244.59 89.6923 244.637 89.8136 244.637 89.9723C244.637 90.1216 244.59 90.243 244.497 90.3363C244.404 90.4203 244.268 90.4623 244.091 90.4623H242.397V93.7943C242.397 94.3076 242.504 94.695 242.719 94.9563C242.934 95.2176 243.288 95.3483 243.783 95.3483C243.96 95.3483 244.11 95.3343 244.231 95.3063C244.352 95.269 244.46 95.2503 244.553 95.2503C244.637 95.241 244.707 95.269 244.763 95.3343C244.828 95.3996 244.861 95.521 244.861 95.6983C244.861 95.829 244.838 95.9503 244.791 96.0623C244.754 96.165 244.674 96.235 244.553 96.2723C244.441 96.3096 244.292 96.3423 244.105 96.3703C243.918 96.4076 243.75 96.4263 243.601 96.4263ZM42.4891 119.96C42.3398 119.97 42.2138 119.946 42.1111 119.89C42.0084 119.834 41.9384 119.755 41.9011 119.652C41.8638 119.559 41.8544 119.461 41.8731 119.358C41.8918 119.265 41.9384 119.181 42.0131 119.106C42.0784 119.041 42.1718 119.004 42.2931 118.994C42.7878 118.966 43.1518 118.831 43.3851 118.588C43.6184 118.355 43.7351 117.986 43.7351 117.482V111.028C43.7351 110.814 43.7911 110.655 43.9031 110.552C44.0151 110.44 44.1738 110.384 44.3791 110.384C44.5751 110.384 44.7291 110.44 44.8411 110.552C44.9531 110.655 45.0091 110.814 45.0091 111.028V117.384C45.0091 117.963 44.9111 118.434 44.7151 118.798C44.5284 119.172 44.2484 119.452 43.8751 119.638C43.5018 119.825 43.0398 119.932 42.4891 119.96ZM44.3651 108.9C44.1131 108.9 43.9124 108.835 43.7631 108.704C43.6231 108.564 43.5531 108.382 43.5531 108.158C43.5531 107.916 43.6231 107.734 43.7631 107.612C43.9124 107.482 44.1131 107.416 44.3651 107.416C44.6264 107.416 44.8271 107.482 44.9671 107.612C45.1071 107.734 45.1771 107.916 45.1771 108.158C45.1771 108.382 45.1071 108.564 44.9671 108.704C44.8271 108.835 44.6264 108.9 44.3651 108.9ZM49.9541 117.426C49.2821 117.426 48.6987 117.282 48.2041 116.992C47.7094 116.703 47.3267 116.292 47.0561 115.76C46.7854 115.228 46.6501 114.603 46.6501 113.884C46.6501 113.343 46.7247 112.858 46.8741 112.428C47.0327 111.99 47.2567 111.616 47.5461 111.308C47.8354 111 48.1807 110.767 48.5821 110.608C48.9927 110.44 49.4501 110.356 49.9541 110.356C50.6261 110.356 51.2094 110.501 51.7041 110.79C52.1987 111.08 52.5814 111.49 52.8521 112.022C53.1227 112.545 53.2581 113.166 53.2581 113.884C53.2581 114.426 53.1787 114.916 53.0201 115.354C52.8707 115.793 52.6514 116.166 52.3621 116.474C52.0727 116.782 51.7227 117.02 51.3121 117.188C50.9107 117.347 50.4581 117.426 49.9541 117.426ZM49.9541 116.418C50.3647 116.418 50.7194 116.32 51.0181 116.124C51.3261 115.928 51.5594 115.644 51.7181 115.27C51.8861 114.897 51.9701 114.435 51.9701 113.884C51.9701 113.063 51.7881 112.438 51.4241 112.008C51.0601 111.579 50.5701 111.364 49.9541 111.364C49.5527 111.364 49.1981 111.462 48.8901 111.658C48.5914 111.845 48.3581 112.125 48.1901 112.498C48.0221 112.872 47.9381 113.334 47.9381 113.884C47.9381 114.706 48.1201 115.336 48.4841 115.774C48.8574 116.204 49.3474 116.418 49.9541 116.418ZM57.326 117.426C56.7754 117.426 56.3134 117.324 55.94 117.118C55.576 116.913 55.3054 116.61 55.128 116.208C54.9507 115.807 54.862 115.303 54.862 114.696V111.028C54.862 110.814 54.9134 110.655 55.016 110.552C55.128 110.44 55.2867 110.384 55.492 110.384C55.6974 110.384 55.856 110.44 55.968 110.552C56.08 110.655 56.136 110.814 56.136 111.028V114.696C56.136 115.275 56.2527 115.704 56.486 115.984C56.7194 116.255 57.088 116.39 57.592 116.39C58.152 116.39 58.6047 116.204 58.95 115.83C59.3047 115.457 59.482 114.962 59.482 114.346V111.028C59.482 110.814 59.5334 110.655 59.636 110.552C59.748 110.44 59.9067 110.384 60.112 110.384C60.3174 110.384 60.476 110.44 60.588 110.552C60.7 110.655 60.756 110.814 60.756 111.028V116.74C60.756 117.179 60.5507 117.398 60.14 117.398C59.9347 117.398 59.776 117.342 59.664 117.23C59.5614 117.118 59.51 116.955 59.51 116.74V115.522L59.692 115.76C59.5054 116.302 59.202 116.717 58.782 117.006C58.3714 117.286 57.886 117.426 57.326 117.426ZM63.4641 117.398C63.2494 117.398 63.0861 117.342 62.9741 117.23C62.8621 117.118 62.8061 116.955 62.8061 116.74V111.028C62.8061 110.814 62.8621 110.655 62.9741 110.552C63.0861 110.44 63.2401 110.384 63.4361 110.384C63.6321 110.384 63.7814 110.44 63.8841 110.552C63.9961 110.655 64.0521 110.814 64.0521 111.028V112.106H63.9121C64.0614 111.546 64.3414 111.122 64.7521 110.832C65.1627 110.543 65.6807 110.38 66.3061 110.342C66.4554 110.333 66.5767 110.37 66.6701 110.454C66.7634 110.529 66.8147 110.66 66.8241 110.846C66.8334 111.024 66.7914 111.168 66.6981 111.28C66.6047 111.383 66.4601 111.444 66.2641 111.462L66.0121 111.476C65.3961 111.542 64.9201 111.742 64.5841 112.078C64.2574 112.414 64.0941 112.876 64.0941 113.464V116.74C64.0941 116.955 64.0381 117.118 63.9261 117.23C63.8234 117.342 63.6694 117.398 63.4641 117.398ZM68.5493 117.398C68.3533 117.398 68.1993 117.342 68.0873 117.23C67.9753 117.118 67.9193 116.955 67.9193 116.74V111.028C67.9193 110.814 67.9753 110.655 68.0873 110.552C68.1993 110.44 68.3533 110.384 68.5493 110.384C68.7453 110.384 68.8947 110.44 68.9973 110.552C69.1093 110.655 69.1653 110.814 69.1653 111.028V112.176L69.0113 111.966C69.2073 111.434 69.5247 111.033 69.9633 110.762C70.4113 110.492 70.92 110.356 71.4893 110.356C72.04 110.356 72.4927 110.454 72.8473 110.65C73.202 110.846 73.468 111.145 73.6453 111.546C73.8227 111.948 73.9113 112.456 73.9113 113.072V116.74C73.9113 116.955 73.8553 117.118 73.7433 117.23C73.6407 117.342 73.4867 117.398 73.2813 117.398C73.076 117.398 72.9173 117.342 72.8053 117.23C72.6933 117.118 72.6373 116.955 72.6373 116.74V113.142C72.6373 112.536 72.5207 112.092 72.2873 111.812C72.054 111.532 71.6807 111.392 71.1673 111.392C70.57 111.392 70.0893 111.579 69.7253 111.952C69.3707 112.316 69.1933 112.811 69.1933 113.436V116.74C69.1933 117.179 68.9787 117.398 68.5493 117.398ZM79.0811 117.426C78.3437 117.426 77.7091 117.286 77.1771 117.006C76.6544 116.717 76.2484 116.311 75.9591 115.788C75.6697 115.256 75.5251 114.631 75.5251 113.912C75.5251 113.203 75.6651 112.582 75.9451 112.05C76.2344 111.518 76.6264 111.103 77.1211 110.804C77.6251 110.506 78.1991 110.356 78.8431 110.356C79.3004 110.356 79.7111 110.436 80.0751 110.594C80.4484 110.744 80.7657 110.963 81.0271 111.252C81.2884 111.542 81.4844 111.896 81.6151 112.316C81.7551 112.727 81.8251 113.194 81.8251 113.716C81.8251 113.866 81.7784 113.982 81.6851 114.066C81.6011 114.141 81.4751 114.178 81.3071 114.178H76.5191V113.366H80.9851L80.7471 113.562C80.7471 113.077 80.6724 112.666 80.5231 112.33C80.3831 111.985 80.1731 111.724 79.8931 111.546C79.6224 111.369 79.2817 111.28 78.8711 111.28C78.4231 111.28 78.0404 111.388 77.7231 111.602C77.4057 111.808 77.1631 112.102 76.9951 112.484C76.8271 112.858 76.7431 113.292 76.7431 113.786V113.87C76.7431 114.71 76.9437 115.345 77.3451 115.774C77.7464 116.204 78.3251 116.418 79.0811 116.418C79.3797 116.418 79.6831 116.381 79.9911 116.306C80.3084 116.232 80.6117 116.096 80.9011 115.9C81.0411 115.816 81.1671 115.779 81.2791 115.788C81.4004 115.788 81.4984 115.826 81.5731 115.9C81.6477 115.966 81.6944 116.05 81.7131 116.152C81.7317 116.246 81.7177 116.348 81.6711 116.46C81.6244 116.572 81.5357 116.67 81.4051 116.754C81.0971 116.969 80.7284 117.137 80.2991 117.258C79.8791 117.37 79.4731 117.426 79.0811 117.426ZM84.8819 119.918C84.7325 119.918 84.6065 119.876 84.5039 119.792C84.4105 119.718 84.3545 119.61 84.3359 119.47C84.3265 119.34 84.3545 119.2 84.4199 119.05L85.3719 116.894V117.426L82.7259 111.266C82.6605 111.108 82.6372 110.963 82.6559 110.832C82.6745 110.702 82.7352 110.594 82.8379 110.51C82.9499 110.426 83.0992 110.384 83.2859 110.384C83.4445 110.384 83.5705 110.422 83.6639 110.496C83.7572 110.571 83.8459 110.702 83.9299 110.888L86.1279 116.306H85.7359L87.9759 110.888C88.0505 110.702 88.1392 110.571 88.2419 110.496C88.3445 110.422 88.4845 110.384 88.6619 110.384C88.8205 110.384 88.9419 110.426 89.0259 110.51C89.1192 110.594 89.1752 110.702 89.1939 110.832C89.2125 110.963 89.1845 111.103 89.1099 111.252L85.5819 119.414C85.4885 119.61 85.3905 119.741 85.2879 119.806C85.1945 119.881 85.0592 119.918 84.8819 119.918ZM92.7616 117.426C92.3416 117.426 91.9169 117.38 91.4876 117.286C91.0676 117.184 90.6709 117.011 90.2976 116.768C90.1949 116.703 90.1202 116.624 90.0736 116.53C90.0362 116.428 90.0222 116.33 90.0316 116.236C90.0502 116.134 90.0922 116.045 90.1576 115.97C90.2229 115.896 90.3022 115.854 90.3956 115.844C90.4982 115.826 90.6056 115.849 90.7176 115.914C91.0816 116.12 91.4316 116.264 91.7676 116.348C92.1129 116.432 92.4536 116.474 92.7896 116.474C93.3029 116.474 93.6902 116.381 93.9516 116.194C94.2129 116.008 94.3436 115.76 94.3436 115.452C94.3436 115.191 94.2549 114.99 94.0776 114.85C93.9096 114.701 93.6436 114.589 93.2796 114.514L91.9776 114.248C91.3989 114.118 90.9602 113.903 90.6616 113.604C90.3722 113.296 90.2276 112.904 90.2276 112.428C90.2276 112.008 90.3396 111.644 90.5636 111.336C90.7969 111.019 91.1189 110.776 91.5296 110.608C91.9402 110.44 92.4116 110.356 92.9436 110.356C93.3542 110.356 93.7416 110.412 94.1056 110.524C94.4789 110.627 94.8149 110.786 95.1136 111C95.2256 111.066 95.2956 111.15 95.3236 111.252C95.3609 111.346 95.3656 111.444 95.3376 111.546C95.3189 111.64 95.2769 111.719 95.2116 111.784C95.1462 111.85 95.0622 111.892 94.9596 111.91C94.8569 111.92 94.7449 111.892 94.6236 111.826C94.3529 111.64 94.0729 111.509 93.7836 111.434C93.5036 111.35 93.2236 111.308 92.9436 111.308C92.4396 111.308 92.0569 111.406 91.7956 111.602C91.5436 111.798 91.4176 112.055 91.4176 112.372C91.4176 112.615 91.4922 112.816 91.6416 112.974C91.8002 113.133 92.0476 113.25 92.3836 113.324L93.6856 113.59C94.2922 113.721 94.7496 113.931 95.0576 114.22C95.3656 114.5 95.5196 114.883 95.5196 115.368C95.5196 116.003 95.2676 116.507 94.7636 116.88C94.2689 117.244 93.6016 117.426 92.7616 117.426ZM97.7248 117.356C97.4821 117.356 97.2815 117.277 97.1228 117.118C96.9641 116.96 96.8848 116.759 96.8848 116.516C96.8848 116.274 96.9641 116.078 97.1228 115.928C97.2815 115.779 97.4821 115.704 97.7248 115.704C97.9861 115.704 98.1868 115.779 98.3268 115.928C98.4761 116.078 98.5508 116.274 98.5508 116.516C98.5508 116.759 98.4761 116.96 98.3268 117.118C98.1868 117.277 97.9861 117.356 97.7248 117.356Z" fill="#6C8184"/>
</g>
<defs>
<filter id="filter0_ddii_125_1092" x="0.419922" y="0.503906" width="332.789" height="177.034" filterUnits="userSpaceOnUse" color-interpolation-filters="sRGB">
<feFlood flood-opacity="0" result="BackgroundImageFix"/>
<feColorMatrix in="SourceAlpha" type="matrix" values="0 0 0 0 0 0 0 0 0 0 0 0 0 0 0 0 0 0 127 0" result="hardAlpha"/>
<feOffset dy="4"/>
<feGaussianBlur stdDeviation="2"/>
<feComposite in2="hardAlpha" operator="out"/>
<feColorMatrix type="matrix" values="0 0 0 0 0 0 0 0 0 0 0 0 0 0 0 0 0 0 0.1 0"/>
<feBlend mode="normal" in2="BackgroundImageFix" result="effect1_dropShadow_125_1092"/>
<feColorMatrix in="SourceAlpha" type="matrix" values="0 0 0 0 0 0 0 0 0 0 0 0 0 0 0 0 0 0 127 0" result="hardAlpha"/>
<feMorphology radius="12" operator="erode" in="SourceAlpha" result="effect2_dropShadow_125_1092"/>
<feOffset dy="12"/>
<feGaussianBlur stdDeviation="16"/>
<feComposite in2="hardAlpha" operator="out"/>
<feColorMatrix type="matrix" values="0 0 0 0 0 0 0 0 0 0 0 0 0 0 0 0 0 0 0.1 0"/>
<feBlend mode="normal" in2="effect1_dropShadow_125_1092" result="effect2_dropShadow_125_1092"/>
<feBlend mode="normal" in="SourceGraphic" in2="effect2_dropShadow_125_1092" result="shape"/>
<feColorMatrix in="SourceAlpha" type="matrix" values="0 0 0 0 0 0 0 0 0 0 0 0 0 0 0 0 0 0 127 0" result="hardAlpha"/>
<feOffset dy="6"/>
<feGaussianBlur stdDeviation="6"/>
<feComposite in2="hardAlpha" operator="arithmetic" k2="-1" k3="1"/>
<feColorMatrix type="matrix" values="0 0 0 0 1 0 0 0 0 1 0 0 0 0 1 0 0 0 0.04 0"/>
<feBlend mode="normal" in2="shape" result="effect3_innerShadow_125_1092"/>
<feColorMatrix in="SourceAlpha" type="matrix" values="0 0 0 0 0 0 0 0 0 0 0 0 0 0 0 0 0 0 127 0" result="hardAlpha"/>
<feOffset dy="1"/>
<feGaussianBlur stdDeviation="0.5"/>
<feComposite in2="hardAlpha" operator="arithmetic" k2="-1" k3="1"/>
<feColorMatrix type="matrix" values="0 0 0 0 1 0 0 0 0 1 0 0 0 0 1 0 0 0 0.2 0"/>
<feBlend mode="normal" in2="effect3_innerShadow_125_1092" result="effect4_innerShadow_125_1092"/>
</filter>
</defs>
</svg>
