<svg width="607" height="78" viewBox="0 0 607 78" fill="none" xmlns="http://www.w3.org/2000/svg">
<mask id="path-1-outside-1_78_756" maskUnits="userSpaceOnUse" x="-1" y="0" width="609" height="79" fill="black">
<rect fill="white" x="-1" width="609" height="79"/>
<path d="M65.3191 76H43.8411L29.8167 51.6779H19.6171V76H0.198691V2.4453H31.2878C37.6626 2.4453 43.0893 3.40968 47.5679 5.33845C52.0466 7.26722 55.4628 10.0786 57.8165 13.7727C60.203 17.4341 61.3962 21.8637 61.3962 27.0616C61.3962 31.9326 60.3501 36.1334 58.2579 39.664C56.1656 43.1946 53.1417 45.9733 49.1861 48.0002L65.3191 76ZM19.6171 36.7218H29.7677C33.6579 36.7218 36.5838 36.0026 38.5452 34.5642C40.5394 33.0931 41.5364 30.9191 41.5364 28.0423C41.5364 25.1655 40.5394 23.0079 38.5452 21.5695C36.5838 20.0984 33.6579 19.3629 29.7677 19.3629H19.6171V36.7218ZM71.2035 76V2.4453H120.24V19.3629H90.6219V30.7393H118.279V47.6569H90.6219V59.0824H120.73V76H71.2035ZM126.124 67.5657L135.245 52.7567C137.632 54.6201 139.855 56.1402 141.914 57.3171C144.006 58.494 146.033 59.3603 147.995 59.916C149.989 60.4391 152.016 60.7006 154.075 60.7006C156.102 60.7006 157.835 60.4718 159.273 60.0141C160.711 59.5237 161.807 58.8372 162.558 57.9546C163.343 57.0392 163.735 55.9604 163.735 54.7182C163.735 53.149 163.18 51.8087 162.068 50.6972C160.957 49.5857 159.469 48.5886 157.606 47.706C155.775 46.8233 153.765 45.9406 151.574 45.058C149.221 44.1099 146.818 43.0638 144.366 41.9197C141.914 40.7428 139.658 39.3207 137.599 37.6535C135.539 35.9862 133.872 33.9594 132.597 31.573C131.322 29.1538 130.685 26.2116 130.685 22.7464C130.685 18.1697 131.829 14.2631 134.117 11.0267C136.438 7.75758 139.593 5.27307 143.581 3.57313C147.602 1.84051 152.146 0.974202 157.213 0.974202C160.908 0.974202 164.814 1.46457 168.933 2.4453C173.052 3.42603 177.22 4.9625 181.437 7.05472L173.886 22.6483C171.532 21.2099 168.95 20.0657 166.138 19.2158C163.359 18.3331 160.809 17.8918 158.488 17.8918C156.887 17.8918 155.481 18.1043 154.271 18.5293C153.094 18.9542 152.179 19.5754 151.525 20.3926C150.871 21.1772 150.545 22.1089 150.545 23.1877C150.545 24.6261 151.1 25.9011 152.212 27.0126C153.323 28.0914 154.794 29.0884 156.625 30.0038C158.456 30.9191 160.45 31.8508 162.607 32.7989C164.961 33.8123 167.364 34.9401 169.816 36.1824C172.3 37.4246 174.572 38.8957 176.632 40.5957C178.724 42.2956 180.408 44.3388 181.683 46.7252C182.958 49.079 183.595 51.9067 183.595 55.2085C183.595 59.6218 182.386 63.512 179.966 66.8792C177.58 70.2137 174.229 72.8126 169.914 74.676C165.631 76.5394 160.646 77.4711 154.958 77.4711C149.662 77.4711 144.562 76.6211 139.658 74.9212C134.755 73.2213 130.243 70.7694 126.124 67.5657ZM228.022 77.4711C222.399 77.4711 217.201 76.5231 212.429 74.627C207.688 72.6982 203.553 70.0176 200.022 66.585C196.524 63.1198 193.811 59.0661 191.882 54.424C189.953 49.7818 188.989 44.7147 188.989 39.2226C188.989 33.7306 189.953 28.6635 191.882 24.0213C193.811 19.3792 196.524 15.3419 200.022 11.9093C203.553 8.44409 207.688 5.76343 212.429 3.86735C217.201 1.93859 222.399 0.974202 228.022 0.974202C233.678 0.974202 238.876 1.93859 243.616 3.86735C248.356 5.76343 252.459 8.44409 255.924 11.9093C259.422 15.3419 262.135 19.3792 264.064 24.0213C265.993 28.6635 266.957 33.7306 266.957 39.2226C266.957 44.7147 265.993 49.7818 264.064 54.424C262.135 59.0661 259.422 63.1198 255.924 66.585C252.459 70.0176 248.356 72.6982 243.616 74.627C238.876 76.5231 233.678 77.4711 228.022 77.4711ZM228.022 60.5535C230.735 60.5535 233.253 60.0141 235.574 58.9353C237.895 57.8565 239.905 56.3527 241.605 54.424C243.338 52.4625 244.678 50.1905 245.626 47.6079C246.607 45.0253 247.097 42.2302 247.097 39.2226C247.097 36.2151 246.607 33.42 245.626 30.8374C244.678 28.2548 243.338 25.9991 241.605 24.0704C239.905 22.1089 237.895 20.5888 235.574 19.51C233.253 18.4312 230.735 17.8918 228.022 17.8918C225.309 17.8918 222.775 18.4312 220.421 19.51C218.1 20.5888 216.074 22.1089 214.341 24.0704C212.608 25.9991 211.252 28.2548 210.271 30.8374C209.323 33.42 208.849 36.2151 208.849 39.2226C208.849 42.2302 209.323 45.0253 210.271 47.6079C211.252 50.1905 212.608 52.4625 214.341 54.424C216.074 56.3527 218.1 57.8565 220.421 58.9353C222.775 60.0141 225.309 60.5535 228.022 60.5535ZM340.708 2.4453V42.8023C340.708 49.9943 339.384 56.1893 336.736 61.3871C334.121 66.5523 330.345 70.5243 325.409 73.303C320.505 76.0817 314.621 77.4711 307.755 77.4711C300.923 77.4711 295.039 76.0817 290.102 73.303C285.166 70.5243 281.374 66.5523 278.726 61.3871C276.111 56.1893 274.803 49.9943 274.803 42.8023V2.4453H294.221V40.1543C294.221 44.8292 294.695 48.6703 295.643 51.6779C296.624 54.6855 298.112 56.9248 300.106 58.3959C302.1 59.8343 304.65 60.5535 307.755 60.5535C310.861 60.5535 313.411 59.8343 315.405 58.3959C317.399 56.9248 318.87 54.6855 319.818 51.6779C320.799 48.6703 321.289 44.8292 321.289 40.1543V2.4453H340.708ZM415.636 76H394.158L380.133 51.6779H369.934V76H350.515V2.4453H381.604C387.979 2.4453 393.406 3.40968 397.884 5.33845C402.363 7.26722 405.779 10.0786 408.133 13.7727C410.52 17.4341 411.713 21.8637 411.713 27.0616C411.713 31.9326 410.667 36.1334 408.574 39.664C406.482 43.1946 403.458 45.9733 399.503 48.0002L415.636 76ZM369.934 36.7218H380.084C383.974 36.7218 386.9 36.0026 388.862 34.5642C390.856 33.0931 391.853 30.9191 391.853 28.0423C391.853 25.1655 390.856 23.0079 388.862 21.5695C386.9 20.0984 383.974 19.3629 380.084 19.3629H369.934V36.7218ZM486.297 66.8792C482.832 70.2137 478.729 72.8126 473.989 74.676C469.282 76.5394 464.149 77.4711 458.592 77.4711C453.001 77.4711 447.82 76.5231 443.047 74.627C438.307 72.6982 434.171 70.0176 430.641 66.585C427.143 63.1198 424.413 59.0661 422.452 54.424C420.523 49.7818 419.559 44.7147 419.559 39.2226C419.559 33.7306 420.523 28.6635 422.452 24.0213C424.413 19.3792 427.143 15.3419 430.641 11.9093C434.171 8.44409 438.307 5.76343 443.047 3.86735C447.82 1.93859 453.001 0.974202 458.592 0.974202C464.116 0.974202 469.216 1.92224 473.891 3.81832C478.598 5.6817 482.685 8.28064 486.15 11.6151L472.616 25.2473C470.916 22.9589 468.824 21.1609 466.339 19.8532C463.888 18.5456 461.207 17.8918 458.297 17.8918C455.617 17.8918 453.132 18.4312 450.844 19.51C448.555 20.5888 446.545 22.0926 444.812 24.0213C443.112 25.9501 441.788 28.2058 440.84 30.7884C439.892 33.371 439.418 36.166 439.418 39.1736C439.418 42.2139 439.892 45.0253 440.84 47.6079C441.788 50.1905 443.112 52.4625 444.812 54.424C446.545 56.3527 448.555 57.8565 450.844 58.9353C453.132 60.0141 455.617 60.5535 458.297 60.5535C461.207 60.5535 463.888 59.8997 466.339 58.5921C468.791 57.2844 470.867 55.4864 472.567 53.198L486.297 66.8792ZM493.702 76V2.4453H542.738V19.3629H513.12V30.7393H540.777V47.6569H513.12V59.0824H543.229V76H493.702ZM548.623 67.5657L557.743 52.7567C560.13 54.6201 562.353 56.1402 564.412 57.3171C566.505 58.494 568.531 59.3603 570.493 59.916C572.487 60.4391 574.514 60.7006 576.573 60.7006C578.6 60.7006 580.333 60.4718 581.771 60.0141C583.21 59.5237 584.305 58.8372 585.057 57.9546C585.841 57.0392 586.234 55.9604 586.234 54.7182C586.234 53.149 585.678 51.8087 584.566 50.6972C583.455 49.5857 581.967 48.5886 580.104 47.706C578.273 46.8233 576.263 45.9406 574.073 45.058C571.719 44.1099 569.316 43.0638 566.864 41.9197C564.412 40.7428 562.157 39.3207 560.097 37.6535C558.038 35.9862 556.37 33.9594 555.095 31.573C553.82 29.1538 553.183 26.2116 553.183 22.7464C553.183 18.1697 554.327 14.2631 556.616 11.0267C558.937 7.75758 562.091 5.27307 566.08 3.57313C570.101 1.84051 574.645 0.974202 579.712 0.974202C583.406 0.974202 587.312 1.46457 591.431 2.4453C595.55 3.42603 599.719 4.9625 603.936 7.05472L596.384 22.6483C594.03 21.2099 591.448 20.0657 588.636 19.2158C585.858 18.3331 583.308 17.8918 580.987 17.8918C579.385 17.8918 577.979 18.1043 576.77 18.5293C575.593 18.9542 574.677 19.5754 574.023 20.3926C573.37 21.1772 573.043 22.1089 573.043 23.1877C573.043 24.6261 573.598 25.9011 574.71 27.0126C575.821 28.0914 577.293 29.0884 579.123 30.0038C580.954 30.9191 582.948 31.8508 585.106 32.7989C587.459 33.8123 589.862 34.9401 592.314 36.1824C594.799 37.4246 597.071 38.8957 599.13 40.5957C601.222 42.2956 602.906 44.3388 604.181 46.7252C605.456 49.079 606.093 51.9067 606.093 55.2085C606.093 59.6218 604.884 63.512 602.465 66.8792C600.078 70.2137 596.727 72.8126 592.412 74.676C588.13 76.5394 583.144 77.4711 577.456 77.4711C572.16 77.4711 567.06 76.6211 562.157 74.9212C557.253 73.2213 552.742 70.7694 548.623 67.5657Z"/>
</mask>
<path d="M65.3191 76V76.9146H66.9017L66.1116 75.5434L65.3191 76ZM43.8412 76L43.0488 76.4569L43.3127 76.9146H43.8412V76ZM29.8167 51.6779L30.6091 51.221L30.3451 50.7633H29.8167V51.6779ZM19.6171 51.6779V50.7633H18.7025V51.6779H19.6171ZM19.6171 76V76.9146H20.5318V76H19.6171ZM0.198685 76H-0.715942V76.9146H0.198685V76ZM0.198685 2.4453V1.53066H-0.715942V2.4453H0.198685ZM57.8165 13.7727L57.0451 14.2642L57.0503 14.2721L57.8165 13.7727ZM49.1861 48.0002L48.769 47.1862L47.914 47.6243L48.3936 48.4568L49.1861 48.0002ZM19.6171 36.7218H18.7025V37.6364H19.6171V36.7218ZM38.5452 34.5642L39.0861 35.3018L39.0882 35.3002L38.5452 34.5642ZM38.5452 21.5695L37.9964 22.3012L38.0032 22.3063L38.0101 22.3113L38.5452 21.5695ZM19.6171 19.3629V18.4482H18.7025V19.3629H19.6171ZM65.3191 75.0854H43.8412V76.9146H65.3191V75.0854ZM44.6335 75.5431L30.6091 51.221L29.0244 52.1348L43.0488 76.4569L44.6335 75.5431ZM29.8167 50.7633H19.6171V52.5925H29.8167V50.7633ZM18.7025 51.6779V76H20.5318V51.6779H18.7025ZM19.6171 75.0854H0.198685V76.9146H19.6171V75.0854ZM1.11333 76V2.4453H-0.715942V76H1.11333ZM0.198685 3.35993H31.2878V1.53066H0.198685V3.35993ZM31.2878 3.35993C37.5746 3.35993 42.871 4.31155 47.2061 6.17849L47.9297 4.4984C43.3075 2.50781 37.7505 1.53066 31.2878 1.53066V3.35993ZM47.2061 6.17849C51.5363 8.04329 54.8009 10.742 57.0452 14.2642L58.5879 13.2812C56.1246 9.41528 52.5569 6.49114 47.9297 4.4984L47.2061 6.17849ZM57.0503 14.2721C59.3228 17.7588 60.4816 22.007 60.4816 27.0616H62.3108C62.3108 21.7205 61.0831 17.1094 58.5828 13.2733L57.0503 14.2721ZM60.4816 27.0616C60.4816 31.7994 59.4651 35.8326 57.471 39.1977L59.0447 40.1303C61.235 36.4341 62.3108 32.0658 62.3108 27.0616H60.4816ZM57.471 39.1977C55.4741 42.5675 52.5843 45.2312 48.769 47.1862L49.6032 48.8142C53.6992 46.7154 56.8572 43.8217 59.0447 40.1303L57.471 39.1977ZM48.3936 48.4568L64.5266 76.4566L66.1116 75.5434L49.9786 47.5436L48.3936 48.4568ZM19.6171 37.6364H29.7677V35.8072H19.6171V37.6364ZM29.7677 37.6364C33.7447 37.6364 36.8988 36.9057 39.0861 35.3018L38.0043 33.8266C36.2687 35.0994 33.5711 35.8072 29.7677 35.8072V37.6364ZM39.0882 35.3002C41.3558 33.6274 42.4511 31.1563 42.4511 28.0423H40.6218C40.6218 30.6819 39.7229 32.5588 38.0022 33.8282L39.0882 35.3002ZM42.4511 28.0423C42.4511 24.9287 41.3555 22.4689 39.0803 20.8277L38.0101 22.3113C39.7232 23.547 40.6218 25.4024 40.6218 28.0423H42.4511ZM39.094 20.8378C36.9055 19.1964 33.7479 18.4482 29.7677 18.4482V20.2775C33.5679 20.2775 36.262 21.0004 37.9964 22.3012L39.094 20.8378ZM29.7677 18.4482H19.6171V20.2775H29.7677V18.4482ZM18.7025 19.3629V36.7218H20.5318V19.3629H18.7025ZM71.2035 76H70.2889V76.9146H71.2035V76ZM71.2035 2.4453V1.53066H70.2889V2.4453H71.2035ZM120.24 2.4453H121.155V1.53066H120.24V2.4453ZM120.24 19.3629V20.2775H121.155V19.3629H120.24ZM90.6219 19.3629V18.4482H89.7073V19.3629H90.6219ZM90.6219 30.7393H89.7073V31.654H90.6219V30.7393ZM118.279 30.7393H119.193V29.8247H118.279V30.7393ZM118.279 47.6569V48.5716H119.193V47.6569H118.279ZM90.6219 47.6569V46.7423H89.7073V47.6569H90.6219ZM90.6219 59.0824H89.7073V59.997H90.6219V59.0824ZM120.73 59.0824H121.645V58.1678H120.73V59.0824ZM120.73 76V76.9146H121.645V76H120.73ZM72.1181 76V2.4453H70.2889V76H72.1181ZM71.2035 3.35993H120.24V1.53066H71.2035V3.35993ZM119.325 2.4453V19.3629H121.155V2.4453H119.325ZM120.24 18.4482H90.6219V20.2775H120.24V18.4482ZM89.7073 19.3629V30.7393H91.5366V19.3629H89.7073ZM90.6219 31.654H118.279V29.8247H90.6219V31.654ZM117.364 30.7393V47.6569H119.193V30.7393H117.364ZM118.279 46.7423H90.6219V48.5716H118.279V46.7423ZM89.7073 47.6569V59.0824H91.5366V47.6569H89.7073ZM90.6219 59.997H120.73V58.1678H90.6219V59.997ZM119.816 59.0824V76H121.645V59.0824H119.816ZM120.73 75.0854H71.2035V76.9146H120.73V75.0854ZM126.124 67.5657L125.346 67.0861L124.916 67.7843L125.563 68.2877L126.124 67.5657ZM135.245 52.7567L135.808 52.0358L135.002 51.4067L134.466 52.2771L135.245 52.7567ZM141.914 57.3171L141.46 58.1112L141.466 58.1143L141.914 57.3171ZM147.995 59.916L147.745 60.796L147.754 60.7985L147.763 60.8007L147.995 59.916ZM159.273 60.0141L159.55 60.8857L159.559 60.8828L159.568 60.8798L159.273 60.0141ZM162.558 57.9546L161.864 57.3593L161.862 57.3615L162.558 57.9546ZM157.606 47.706L157.209 48.5298L157.214 48.5325L157.606 47.706ZM151.574 45.058L151.916 44.2096L151.916 44.2096L151.574 45.058ZM144.366 41.9197L143.97 42.7443L143.979 42.7485L144.366 41.9197ZM132.597 31.573L131.788 31.9994L131.79 32.0039L132.597 31.573ZM134.117 11.0267L133.372 10.4972L133.37 10.4986L134.117 11.0267ZM143.581 3.57314L143.94 4.41453L143.943 4.41311L143.581 3.57314ZM181.438 7.05473L182.261 7.45337L182.656 6.63802L181.844 6.23539L181.438 7.05473ZM173.886 22.6483L173.409 23.4288L174.27 23.9547L174.709 23.047L173.886 22.6483ZM166.138 19.2158L165.861 20.0876L165.873 20.0913L166.138 19.2158ZM154.271 18.5293L153.968 17.6663L153.961 17.669L154.271 18.5293ZM151.525 20.3926L152.228 20.9782L152.234 20.9712L152.239 20.964L151.525 20.3926ZM152.212 27.0126L151.565 27.6594L151.575 27.6689L152.212 27.0126ZM162.607 32.7989L162.24 33.6363L162.246 33.6389L162.607 32.7989ZM169.816 36.1824L169.402 36.9983L169.407 37.0005L169.816 36.1824ZM176.632 40.5957L176.05 41.3011L176.055 41.3055L176.632 40.5957ZM181.683 46.7252L180.876 47.1562L180.878 47.1609L181.683 46.7252ZM179.966 66.8792L179.224 66.3456L179.223 66.3469L179.966 66.8792ZM169.914 74.676L169.551 73.8363L169.549 73.8373L169.914 74.676ZM126.903 68.0454L136.024 53.2364L134.466 52.2771L125.346 67.0861L126.903 68.0454ZM134.682 53.4776C137.094 55.361 139.354 56.9076 141.46 58.1112L142.368 56.523C140.355 55.3728 138.169 53.8792 135.808 52.0358L134.682 53.4776ZM141.466 58.1143C143.61 59.3204 145.703 60.2175 147.745 60.796L148.244 59.036C146.363 58.5031 144.403 57.6675 142.363 56.5199L141.466 58.1143ZM147.763 60.8007C149.832 61.3437 151.937 61.6153 154.075 61.6153V59.786C152.094 59.786 150.145 59.5345 148.227 59.0313L147.763 60.8007ZM154.075 61.6153C156.166 61.6153 157.997 61.3798 159.55 60.8857L158.996 59.1425C157.672 59.5638 156.038 59.786 154.075 59.786V61.6153ZM159.568 60.8798C161.115 60.3524 162.368 59.5888 163.255 58.5477L161.862 57.3615C161.245 58.0856 160.308 58.6951 158.978 59.1484L159.568 60.8798ZM163.253 58.5498C164.184 57.4633 164.65 56.1715 164.65 54.7182H162.821C162.821 55.7494 162.502 56.6152 161.864 57.3593L163.253 58.5498ZM164.65 54.7182C164.65 52.906 163.998 51.3331 162.715 50.0504L161.421 51.3439C162.362 52.2842 162.821 53.3921 162.821 54.7182H164.65ZM162.715 50.0504C161.51 48.8458 159.928 47.7937 157.997 46.8794L157.214 48.5325C159.011 49.3835 160.403 50.3256 161.421 51.3439L162.715 50.0504ZM158.003 46.8821C156.151 45.9894 154.122 45.0987 151.916 44.2096L151.232 45.9063C153.407 46.7826 155.399 47.6572 157.209 48.5298L158.003 46.8821ZM151.916 44.2096C149.578 43.2681 147.191 42.2285 144.753 41.0908L143.979 42.7485C146.445 43.8991 148.863 44.9518 151.233 45.9064L151.916 44.2096ZM144.762 41.0951C142.372 39.9482 140.177 38.5639 138.174 36.9426L137.023 38.3644C139.14 40.0775 141.456 41.5374 143.97 42.7442L144.762 41.0951ZM138.174 36.9426C136.212 35.3539 134.622 33.4229 133.404 31.142L131.79 32.0039C133.122 34.4959 134.867 36.6186 137.023 38.3644L138.174 36.9426ZM133.406 31.1465C132.217 28.8893 131.599 26.1018 131.599 22.7464H129.77C129.77 26.3215 130.428 29.4183 131.788 31.9994L133.406 31.1465ZM131.599 22.7464C131.599 18.3286 132.701 14.6137 134.864 11.5547L133.37 10.4986C130.957 13.9124 129.77 18.0108 129.77 22.7464H131.599ZM134.863 11.5562C137.078 8.43598 140.094 6.05383 143.94 4.41453L143.223 2.73174C139.092 4.49231 135.798 7.07918 133.372 10.4972L134.863 11.5562ZM143.943 4.41311C147.833 2.73688 152.251 1.88884 157.213 1.88884V0.0595703C152.041 0.0595703 147.371 0.944145 143.219 2.73316L143.943 4.41311ZM157.213 1.88884C160.827 1.88884 164.662 2.3685 168.721 3.33506L169.145 1.55553C164.966 0.560635 160.988 0.0595703 157.213 0.0595703V1.88884ZM168.721 3.33506C172.766 4.29808 176.869 5.80923 181.031 7.87406L181.844 6.23539C177.572 4.11578 173.338 2.55397 169.145 1.55553L168.721 3.33506ZM180.614 6.65607L173.063 22.2497L174.709 23.047L182.261 7.45337L180.614 6.65607ZM174.363 21.8679C171.938 20.3864 169.284 19.2113 166.403 18.3403L165.873 20.0913C168.615 20.9202 171.126 22.0335 173.409 23.4288L174.363 21.8679ZM166.415 18.3441C163.569 17.4399 160.924 16.9771 158.488 16.9771V18.8064C160.695 18.8064 163.15 19.2263 165.861 20.0875L166.415 18.3441ZM158.488 16.9771C156.808 16.9771 155.296 17.1998 153.968 17.6663L154.574 19.3922C155.666 19.0088 156.965 18.8064 158.488 18.8064V16.9771ZM153.961 17.669C152.656 18.14 151.589 18.8486 150.811 19.8213L152.239 20.964C152.769 20.3021 153.532 19.7685 154.582 19.3895L153.961 17.669ZM150.823 19.8071C150.024 20.7658 149.63 21.908 149.63 23.1877H151.459C151.459 22.3099 151.719 21.5886 152.228 20.9782L150.823 19.8071ZM149.63 23.1877C149.63 24.8924 150.299 26.3938 151.565 27.6593L152.858 26.3658C151.901 25.4083 151.459 24.3598 151.459 23.1877H149.63ZM151.575 27.6689C152.771 28.8301 154.327 29.8772 156.216 30.8219L157.034 29.1857C155.262 28.2997 153.875 27.3526 152.849 26.3562L151.575 27.6689ZM156.216 30.8219C158.062 31.7449 160.07 32.683 162.24 33.6362L162.975 31.9615C160.83 31.0187 158.849 30.0934 157.034 29.1857L156.216 30.8219ZM162.246 33.6389C164.581 34.6443 166.966 35.764 169.402 36.9983L170.229 35.3665C167.762 34.1163 165.342 32.9803 162.969 31.9588L162.246 33.6389ZM169.407 37.0005C171.832 38.2131 174.046 39.6468 176.05 41.3011L177.214 39.8903C175.099 38.1446 172.769 36.6362 170.225 35.3643L169.407 37.0005ZM176.055 41.3055C178.053 42.9284 179.658 44.8767 180.876 47.1562L182.489 46.2942C181.157 43.8009 179.396 41.6628 177.209 39.8858L176.055 41.3055ZM180.878 47.1609C182.066 49.3531 182.68 52.0238 182.68 55.2085H184.51C184.51 51.7897 183.849 48.8049 182.487 46.2896L180.878 47.1609ZM182.68 55.2085C182.68 59.4434 181.524 63.1442 179.224 66.3456L180.709 67.4129C183.247 63.8799 184.51 59.8002 184.51 55.2085H182.68ZM179.223 66.3469C176.946 69.5274 173.737 72.029 169.551 73.8363L170.277 75.5157C174.722 73.5962 178.214 70.9 180.71 67.4115L179.223 66.3469ZM169.549 73.8373C165.404 75.641 160.547 76.5565 154.958 76.5565V78.3857C160.745 78.3857 165.859 77.4378 170.279 75.5147L169.549 73.8373ZM154.958 76.5565C149.762 76.5565 144.763 75.7229 139.958 74.057L139.359 75.7854C144.361 77.5194 149.562 78.3857 154.958 78.3857V76.5565ZM139.958 74.057C135.149 72.39 130.726 69.9864 126.686 66.8438L125.563 68.2877C129.76 71.5525 134.36 74.0525 139.359 75.7854L139.958 74.057ZM212.429 74.627L212.084 75.4742L212.091 75.477L212.429 74.627ZM200.022 66.585L199.379 67.2348L199.385 67.2408L200.022 66.585ZM200.022 11.9093L200.663 12.5621L200.663 12.5621L200.022 11.9093ZM212.429 3.86736L212.768 4.71658L212.771 4.71536L212.429 3.86736ZM243.616 3.86736L243.271 4.71455L243.276 4.71657L243.616 3.86736ZM255.924 11.9093L255.277 12.5561L255.283 12.5621L255.924 11.9093ZM255.924 66.585L256.568 67.2348L256.568 67.2348L255.924 66.585ZM243.616 74.627L243.955 75.4762L243.96 75.4742L243.616 74.627ZM241.605 54.424L240.92 53.8184L240.919 53.8192L241.605 54.424ZM245.626 47.6079L244.771 47.2832L244.768 47.2927L245.626 47.6079ZM245.626 30.8374L244.768 31.1526L244.771 31.1621L245.626 30.8374ZM241.605 24.0704L240.914 24.6694L240.919 24.6755L240.925 24.6816L241.605 24.0704ZM220.421 19.51L220.04 18.6785L220.036 18.6806L220.421 19.51ZM214.341 24.0704L215.021 24.6816L215.026 24.6759L214.341 24.0704ZM210.271 30.8374L209.416 30.5127L209.412 30.5222L210.271 30.8374ZM210.271 47.6079L209.412 47.9231L209.416 47.9326L210.271 47.6079ZM214.341 54.424L213.655 55.0295L213.661 55.0352L214.341 54.424ZM220.421 58.9353L220.036 59.7647L220.04 59.7668L220.421 58.9353ZM228.022 76.5565C222.504 76.5565 217.422 75.6265 212.766 73.777L212.091 75.477C216.981 77.4196 222.295 78.3857 228.022 78.3857V76.5565ZM212.773 73.7798C208.138 71.8936 204.103 69.2765 200.66 65.9292L199.385 67.2408C203.003 70.7586 207.239 73.5028 212.084 75.4742L212.773 73.7798ZM200.666 65.9352C197.256 62.5571 194.61 58.6056 192.727 54.073L191.038 54.7749C193.012 59.5266 195.793 63.6824 199.379 67.2348L200.666 65.9352ZM192.727 54.073C190.848 49.552 189.904 44.6055 189.904 39.2226H188.074C188.074 44.824 189.059 50.0116 191.038 54.7749L192.727 54.073ZM189.904 39.2226C189.904 33.8398 190.848 28.8933 192.727 24.3723L191.038 23.6704C189.059 28.4337 188.074 33.6213 188.074 39.2226H189.904ZM192.727 24.3723C194.61 19.8405 197.255 15.9065 200.663 12.5621L199.382 11.2565C195.794 14.7772 193.012 18.918 191.038 23.6704L192.727 24.3723ZM200.663 12.5621C204.104 9.18433 208.137 6.56918 212.768 4.71657L212.089 3.01814C207.24 4.95768 203.001 7.70386 199.382 11.2566L200.663 12.5621ZM212.771 4.71536C217.426 2.8345 222.506 1.88884 228.022 1.88884V0.0595703C222.293 0.0595703 216.977 1.04267 212.086 3.01934L212.771 4.71536ZM228.022 1.88884C233.572 1.88884 238.651 2.83477 243.271 4.71454L243.96 3.02017C239.1 1.0424 233.783 0.0595703 228.022 0.0595703V1.88884ZM243.276 4.71657C247.906 6.5686 251.903 9.18208 255.277 12.5561L256.571 11.2626C253.014 7.7061 248.806 4.95826 243.955 3.01814L243.276 4.71657ZM255.283 12.5621C258.691 15.9065 261.336 19.8405 263.219 24.3723L264.909 23.6704C262.934 18.918 260.152 14.7772 256.564 11.2565L255.283 12.5621ZM263.219 24.3723C265.098 28.8933 266.042 33.8398 266.042 39.2226H267.872C267.872 33.6213 266.888 28.4337 264.909 23.6704L263.219 24.3723ZM266.042 39.2226C266.042 44.6055 265.098 49.552 263.219 54.073L264.909 54.7749C266.888 50.0116 267.872 44.824 267.872 39.2226H266.042ZM263.219 54.073C261.336 58.6056 258.69 62.5571 255.28 65.9352L256.568 67.2348C260.153 63.6824 262.934 59.5266 264.909 54.7749L263.219 54.073ZM255.28 65.9352C251.905 69.2787 247.905 71.8942 243.271 73.7798L243.96 75.4742C248.807 73.5022 253.012 70.7564 256.568 67.2348L255.28 65.9352ZM243.276 73.7778C238.655 75.6262 233.574 76.5565 228.022 76.5565V78.3857C233.781 78.3857 239.096 77.4199 243.955 75.4762L243.276 73.7778ZM228.022 61.4681C230.86 61.4681 233.51 60.903 235.959 59.7647L235.188 58.1059C232.995 59.1252 230.61 59.6389 228.022 59.6389V61.4681ZM235.959 59.7647C238.396 58.6324 240.508 57.0519 242.291 55.0287L240.919 53.8192C239.302 55.6535 237.394 57.0806 235.188 58.1059L235.959 59.7647ZM242.291 55.0295C244.102 52.9785 245.5 50.6068 246.485 47.9231L244.768 47.2927C243.857 49.7741 242.573 51.9465 240.92 53.8184L242.291 55.0295ZM246.481 47.9326C247.505 45.2374 248.012 42.3313 248.012 39.2226H246.183C246.183 42.1291 245.709 44.8132 244.771 47.2832L246.481 47.9326ZM248.012 39.2226C248.012 36.114 247.505 33.2079 246.481 30.5127L244.771 31.1621C245.709 33.6321 246.183 36.3162 246.183 39.2226H248.012ZM246.485 30.5222C245.499 27.8373 244.101 25.4796 242.286 23.4592L240.925 24.6816C242.575 26.5187 243.857 28.6724 244.768 31.1526L246.485 30.5222ZM242.296 23.4714C240.513 21.4138 238.399 19.8145 235.959 18.6806L235.188 20.3394C237.391 21.363 239.297 22.804 240.914 24.6694L242.296 23.4714ZM235.959 18.6806C233.51 17.5423 230.86 16.9771 228.022 16.9771V18.8064C230.61 18.8064 232.995 19.3201 235.188 20.3394L235.959 18.6806ZM228.022 16.9771C225.184 16.9771 222.519 17.5423 220.04 18.6785L220.803 20.3414C223.031 19.3201 225.434 18.8064 228.022 18.8064V16.9771ZM220.036 18.6806C217.598 19.8137 215.47 21.4111 213.655 23.4649L215.026 24.6759C216.677 22.8068 218.603 21.3638 220.807 20.3394L220.036 18.6806ZM213.661 23.4592C211.848 25.4772 210.434 27.8316 209.416 30.5127L211.126 31.1621C212.069 28.678 213.369 26.5211 215.021 24.6816L213.661 23.4592ZM209.412 30.5222C208.424 33.2148 207.934 36.1176 207.934 39.2226H209.763C209.763 36.3126 210.222 33.6252 211.13 31.1526L209.412 30.5222ZM207.934 39.2226C207.934 42.3277 208.424 45.2305 209.412 47.9231L211.13 47.2927C210.222 44.8201 209.763 42.1327 209.763 39.2226H207.934ZM209.416 47.9326C210.434 50.6124 211.846 52.9809 213.655 55.0295L215.026 53.8184C213.371 51.9441 212.07 49.7685 211.126 47.2832L209.416 47.9326ZM213.661 55.0352C215.475 57.0546 217.601 58.6332 220.036 59.7647L220.807 58.1059C218.599 57.0798 216.673 55.6508 215.021 53.8127L213.661 55.0352ZM220.04 59.7668C222.519 60.903 225.184 61.4681 228.022 61.4681V59.6389C225.434 59.6389 223.031 59.1252 220.803 58.1039L220.04 59.7668ZM340.708 2.4453H341.623V1.53066H340.708V2.4453ZM336.736 61.3871L335.921 60.972L335.92 60.974L336.736 61.3871ZM325.409 73.303L324.96 72.506L324.958 72.5072L325.409 73.303ZM278.726 61.3871L277.909 61.7982L277.912 61.8044L278.726 61.3871ZM274.803 2.4453V1.53066H273.888V2.4453H274.803ZM294.221 2.4453H295.136V1.53066H294.221V2.4453ZM295.643 51.6779L294.771 51.9529L294.774 51.9615L295.643 51.6779ZM300.106 58.3959L299.563 59.132L299.571 59.1377L300.106 58.3959ZM315.405 58.3959L315.94 59.1377L315.948 59.1319L315.405 58.3959ZM319.818 51.6779L318.949 51.3943L318.946 51.4029L319.818 51.6779ZM321.289 2.4453V1.53066H320.375V2.4453H321.289ZM339.793 2.4453V42.8023H341.623V2.4453H339.793ZM339.793 42.8023C339.793 49.883 338.49 55.9292 335.921 60.972L337.551 61.8023C340.278 56.4493 341.623 50.1056 341.623 42.8023H339.793ZM335.92 60.974C333.385 65.9814 329.735 69.8181 324.96 72.506L325.857 74.1C330.955 71.2304 334.857 67.1232 337.552 61.8003L335.92 60.974ZM324.958 72.5072C320.219 75.1927 314.497 76.5565 307.755 76.5565V78.3857C314.744 78.3857 320.791 76.9707 325.859 74.0987L324.958 72.5072ZM307.755 76.5565C301.048 76.5565 295.325 75.1932 290.551 72.506L289.654 74.1C294.753 76.9703 300.798 78.3857 307.755 78.3857V76.5565ZM290.551 72.506C285.775 69.8175 282.108 65.9795 279.54 60.9699L277.912 61.8044C280.64 67.1251 284.557 71.231 289.654 74.1L290.551 72.506ZM279.543 60.976C277.005 55.9323 275.718 49.8846 275.718 42.8023H273.888C273.888 50.104 275.216 56.4463 277.909 61.7982L279.543 60.976ZM275.718 42.8023V2.4453H273.888V42.8023H275.718ZM274.803 3.35993H294.221V1.53066H274.803V3.35993ZM293.307 2.4453V40.1543H295.136V2.4453H293.307ZM293.307 40.1543C293.307 44.882 293.785 48.8246 294.771 51.9529L296.516 51.4029C295.606 48.5161 295.136 44.7763 295.136 40.1543H293.307ZM294.774 51.9615C295.797 55.1 297.378 57.52 299.563 59.1319L300.649 57.6599C298.846 56.3297 297.451 54.271 296.513 51.3944L294.774 51.9615ZM299.571 59.1377C301.757 60.715 304.509 61.4681 307.755 61.4681V59.6389C304.791 59.6389 302.442 58.9537 300.641 57.6541L299.571 59.1377ZM307.755 61.4681C311.002 61.4681 313.754 60.715 315.94 59.1377L314.87 57.6541C313.068 58.9537 310.72 59.6389 307.755 59.6389V61.4681ZM315.948 59.1319C318.136 57.518 319.7 55.0945 320.691 51.9529L318.946 51.4029C318.04 54.2765 316.663 56.3317 314.862 57.6599L315.948 59.1319ZM320.688 51.9615C321.709 48.8298 322.204 44.884 322.204 40.1543H320.375C320.375 44.7743 319.889 48.5108 318.949 51.3944L320.688 51.9615ZM322.204 40.1543V2.4453H320.375V40.1543H322.204ZM321.289 3.35993H340.708V1.53066H321.289V3.35993ZM415.636 76V76.9146H417.218L416.428 75.5434L415.636 76ZM394.158 76L393.365 76.4569L393.629 76.9146H394.158V76ZM380.133 51.6779L380.926 51.221L380.662 50.7633H380.133V51.6779ZM369.934 51.6779V50.7633H369.019V51.6779H369.934ZM369.934 76V76.9146H370.848V76H369.934ZM350.515 76H349.601V76.9146H350.515V76ZM350.515 2.4453V1.53066H349.601V2.4453H350.515ZM408.133 13.7727L407.362 14.2642L407.367 14.2721L408.133 13.7727ZM399.503 48.0002L399.086 47.1862L398.23 47.6243L398.71 48.4568L399.503 48.0002ZM369.934 36.7218H369.019V37.6364H369.934V36.7218ZM388.862 34.5642L389.403 35.3018L389.405 35.3002L388.862 34.5642ZM388.862 21.5695L388.313 22.3012L388.32 22.3063L388.327 22.3113L388.862 21.5695ZM369.934 19.3629V18.4482H369.019V19.3629H369.934ZM415.636 75.0854H394.158V76.9146H415.636V75.0854ZM394.95 75.5431L380.926 51.221L379.341 52.1348L393.365 76.4569L394.95 75.5431ZM380.133 50.7633H369.934V52.5925H380.133V50.7633ZM369.019 51.6779V76H370.848V51.6779H369.019ZM369.934 75.0854H350.515V76.9146H369.934V75.0854ZM351.43 76V2.4453H349.601V76H351.43ZM350.515 3.35993H381.604V1.53066H350.515V3.35993ZM381.604 3.35993C387.891 3.35993 393.188 4.31155 397.523 6.17849L398.246 4.4984C393.624 2.50781 388.067 1.53066 381.604 1.53066V3.35993ZM397.523 6.17849C401.853 8.04329 405.117 10.742 407.362 14.2642L408.904 13.2812C406.441 9.41528 402.873 6.49114 398.246 4.4984L397.523 6.17849ZM407.367 14.2721C409.639 17.7588 410.798 22.007 410.798 27.0616H412.627C412.627 21.7205 411.4 17.1094 408.899 13.2733L407.367 14.2721ZM410.798 27.0616C410.798 31.7994 409.782 35.8326 407.788 39.1977L409.361 40.1303C411.552 36.4341 412.627 32.0658 412.627 27.0616H410.798ZM407.788 39.1977C405.791 42.5675 402.901 45.2312 399.086 47.1862L399.92 48.8142C404.016 46.7154 407.174 43.8217 409.361 40.1303L407.788 39.1977ZM398.71 48.4568L414.843 76.4566L416.428 75.5434L400.295 47.5436L398.71 48.4568ZM369.934 37.6364H380.084V35.8072H369.934V37.6364ZM380.084 37.6364C384.061 37.6364 387.215 36.9057 389.403 35.3018L388.321 33.8266C386.585 35.0994 383.888 35.8072 380.084 35.8072V37.6364ZM389.405 35.3002C391.672 33.6274 392.768 31.1563 392.768 28.0423H390.938C390.938 30.6819 390.039 32.5588 388.319 33.8282L389.405 35.3002ZM392.768 28.0423C392.768 24.9287 391.672 22.4689 389.397 20.8277L388.327 22.3113C390.04 23.547 390.938 25.4024 390.938 28.0423H392.768ZM389.411 20.8378C387.222 19.1964 384.064 18.4482 380.084 18.4482V20.2775C383.884 20.2775 386.579 21.0004 388.313 22.3012L389.411 20.8378ZM380.084 18.4482H369.934V20.2775H380.084V18.4482ZM369.019 19.3629V36.7218H370.848V19.3629H369.019ZM486.297 66.8792L486.931 67.5383L487.604 66.8906L486.943 66.2313L486.297 66.8792ZM473.989 74.676L473.654 73.8248L473.652 73.8256L473.989 74.676ZM443.047 74.627L442.702 75.4742L442.709 75.477L443.047 74.627ZM430.641 66.585L429.997 67.2348L430.003 67.2408L430.641 66.585ZM422.452 54.424L421.607 54.7749L421.609 54.7799L422.452 54.424ZM422.452 24.0213L421.609 23.6653L421.607 23.6704L422.452 24.0213ZM430.641 11.9093L431.281 12.5621L431.281 12.5621L430.641 11.9093ZM443.047 3.86736L443.387 4.71658L443.39 4.71536L443.047 3.86736ZM473.891 3.81832L473.547 4.66592L473.554 4.66875L473.891 3.81832ZM486.15 11.6151L486.799 12.2595L487.454 11.6002L486.784 10.9561L486.15 11.6151ZM472.616 25.2473L471.882 25.7927L472.516 26.6463L473.265 25.8917L472.616 25.2473ZM466.339 19.8532L465.909 20.6603L465.913 20.6626L466.339 19.8532ZM444.812 24.0213L444.132 23.4101L444.126 23.4166L444.812 24.0213ZM440.84 30.7884L439.982 30.4732L440.84 30.7884ZM440.84 47.6079L439.982 47.9231L440.84 47.6079ZM444.812 54.424L444.121 55.023L444.127 55.0291L444.132 55.0352L444.812 54.424ZM472.567 53.198L473.213 52.5501L472.463 51.8037L471.833 52.6526L472.567 53.198ZM485.663 66.2202C482.289 69.4667 478.29 72.0026 473.654 73.8248L474.324 75.5272C479.169 73.6227 483.375 70.9606 486.931 67.5383L485.663 66.2202ZM473.652 73.8256C469.062 75.6426 464.045 76.5565 458.592 76.5565V78.3857C464.253 78.3857 469.501 77.4362 474.326 75.5264L473.652 73.8256ZM458.592 76.5565C453.107 76.5565 448.041 75.6267 443.385 73.777L442.709 75.477C447.599 77.4194 452.896 78.3857 458.592 78.3857V76.5565ZM443.392 73.7798C438.756 71.8936 434.721 69.2765 431.278 65.9292L430.003 67.2408C433.622 70.7586 437.857 73.5028 442.702 75.4742L443.392 73.7798ZM431.285 65.9352C427.873 62.556 425.21 58.6028 423.294 54.068L421.609 54.7799C423.616 59.5294 426.412 63.6835 429.997 67.2348L431.285 65.9352ZM423.296 54.073C421.418 49.552 420.473 44.6055 420.473 39.2226H418.644C418.644 44.824 419.628 50.0116 421.607 54.7749L423.296 54.073ZM420.473 39.2226C420.473 33.8398 421.418 28.8933 423.296 24.3723L421.607 23.6704C419.628 28.4337 418.644 33.6213 418.644 39.2226H420.473ZM423.294 24.3773C425.21 19.8433 427.872 15.9077 431.281 12.5621L430 11.2565C426.414 14.7761 423.616 18.9151 421.609 23.6654L423.294 24.3773ZM431.281 12.5621C434.723 9.18433 438.755 6.56918 443.387 4.71657L442.707 3.01814C437.859 4.95768 433.62 7.70386 430 11.2566L431.281 12.5621ZM443.39 4.71536C448.045 2.83425 453.109 1.88884 458.592 1.88884V0.0595703C452.894 0.0595703 447.595 1.04292 442.704 3.01934L443.39 4.71536ZM458.592 1.88884C464.01 1.88884 468.992 2.81815 473.547 4.66589L474.235 2.97075C469.441 1.02634 464.223 0.0595703 458.592 0.0595703V1.88884ZM473.554 4.66875C478.157 6.49067 482.141 9.02656 485.516 12.2742L486.784 10.9561C483.229 7.53471 479.04 4.87274 474.228 2.96788L473.554 4.66875ZM485.501 10.9707L471.967 24.6029L473.265 25.8917L486.799 12.2595L485.501 10.9707ZM473.35 24.7018C471.57 22.3053 469.373 20.4163 466.765 19.0439L465.913 20.6626C468.275 21.9055 470.262 23.6125 471.882 25.7927L473.35 24.7018ZM466.77 19.0462C464.179 17.6646 461.35 16.9771 458.297 16.9771V18.8064C461.064 18.8064 463.596 19.4266 465.909 20.6603L466.77 19.0462ZM458.297 16.9771C455.49 16.9771 452.871 17.543 450.454 18.6827L451.234 20.3373C453.393 19.3194 455.743 18.8064 458.297 18.8064V16.9771ZM450.454 18.6827C448.052 19.8148 445.944 21.393 444.132 23.4101L445.493 24.6326C447.146 22.7921 449.058 21.3628 451.234 20.3373L450.454 18.6827ZM444.126 23.4166C442.346 25.4362 440.966 27.7917 439.982 30.4732L441.699 31.1036C442.611 28.6198 443.879 26.4641 445.499 24.6261L444.126 23.4166ZM439.982 30.4732C438.993 33.1657 438.504 36.0685 438.504 39.1736H440.333C440.333 36.2636 440.791 33.5762 441.699 31.1036L439.982 30.4732ZM438.504 39.1736C438.504 42.3101 438.993 45.2295 439.982 47.9231L441.699 47.2927C440.792 44.8211 440.333 42.1176 440.333 39.1736H438.504ZM439.982 47.9231C440.966 50.6033 442.344 52.9729 444.121 55.023L445.504 53.8249C443.88 51.9521 442.611 49.7776 441.699 47.2927L439.982 47.9231ZM444.132 55.0352C445.944 57.0523 448.052 58.6305 450.454 59.7626L451.234 58.108C449.058 57.0825 447.146 55.6532 445.493 53.8127L444.132 55.0352ZM450.454 59.7626C452.871 60.9023 455.49 61.4681 458.297 61.4681V59.6389C455.743 59.6389 453.393 59.1259 451.234 58.108L450.454 59.7626ZM458.297 61.4681C461.35 61.4681 464.179 60.7807 466.77 59.3991L465.909 57.785C463.596 59.0187 461.064 59.6389 458.297 59.6389V61.4681ZM466.77 59.3991C469.344 58.0261 471.523 56.1375 473.301 53.7435L471.833 52.6526C470.211 54.8353 468.238 56.5427 465.909 57.785L466.77 59.3991ZM471.921 53.8459L485.652 67.5271L486.943 66.2313L473.213 52.5501L471.921 53.8459ZM493.702 76H492.787V76.9146H493.702V76ZM493.702 2.4453V1.53066H492.787V2.4453H493.702ZM542.738 2.4453H543.653V1.53066H542.738V2.4453ZM542.738 19.3629V20.2775H543.653V19.3629H542.738ZM513.12 19.3629V18.4482H512.206V19.3629H513.12ZM513.12 30.7393H512.206V31.654H513.12V30.7393ZM540.777 30.7393H541.691V29.8247H540.777V30.7393ZM540.777 47.6569V48.5716H541.691V47.6569H540.777ZM513.12 47.6569V46.7423H512.206V47.6569H513.12ZM513.12 59.0824H512.206V59.997H513.12V59.0824ZM543.229 59.0824H544.143V58.1678H543.229V59.0824ZM543.229 76V76.9146H544.143V76H543.229ZM494.616 76V2.4453H492.787V76H494.616ZM493.702 3.35993H542.738V1.53066H493.702V3.35993ZM541.824 2.4453V19.3629H543.653V2.4453H541.824ZM542.738 18.4482H513.12V20.2775H542.738V18.4482ZM512.206 19.3629V30.7393H514.035V19.3629H512.206ZM513.12 31.654H540.777V29.8247H513.12V31.654ZM539.862 30.7393V47.6569H541.691V30.7393H539.862ZM540.777 46.7423H513.12V48.5716H540.777V46.7423ZM512.206 47.6569V59.0824H514.035V47.6569H512.206ZM513.12 59.997H543.229V58.1678H513.12V59.997ZM542.314 59.0824V76H544.143V59.0824H542.314ZM543.229 75.0854H493.702V76.9146H543.229V75.0854ZM548.623 67.5657L547.844 67.0861L547.414 67.7843L548.061 68.2877L548.623 67.5657ZM557.743 52.7567L558.306 52.0358L557.501 51.4067L556.965 52.2771L557.743 52.7567ZM564.412 57.3171L563.959 58.1112L563.964 58.1143L564.412 57.3171ZM570.493 59.916L570.244 60.796L570.252 60.7985L570.261 60.8007L570.493 59.916ZM581.771 60.0141L582.049 60.8857L582.057 60.8828L582.066 60.8798L581.771 60.0141ZM585.057 57.9546L584.362 57.3593L584.36 57.3615L585.057 57.9546ZM580.104 47.706L579.707 48.5298L579.712 48.5325L580.104 47.706ZM574.073 45.058L574.414 44.2096L574.414 44.2096L574.073 45.058ZM566.864 41.9197L566.468 42.7443L566.477 42.7485L566.864 41.9197ZM555.095 31.573L554.286 31.9994L554.289 32.0039L555.095 31.573ZM556.616 11.0267L555.87 10.4972L555.869 10.4986L556.616 11.0267ZM566.08 3.57314L566.438 4.41453L566.442 4.41311L566.08 3.57314ZM603.936 7.05473L604.759 7.45337L605.154 6.63802L604.342 6.23539L603.936 7.05473ZM596.384 22.6483L595.907 23.4288L596.768 23.9547L597.207 23.047L596.384 22.6483ZM588.636 19.2158L588.359 20.0876L588.372 20.0913L588.636 19.2158ZM576.77 18.5293L576.466 17.6663L576.459 17.669L576.77 18.5293ZM574.023 20.3926L574.726 20.9782L574.732 20.9712L574.738 20.964L574.023 20.3926ZM574.71 27.0126L574.063 27.6594L574.073 27.6689L574.71 27.0126ZM585.106 32.7989L584.738 33.6363L584.744 33.6389L585.106 32.7989ZM592.314 36.1824L591.901 36.9983L591.905 37.0005L592.314 36.1824ZM599.13 40.5957L598.548 41.3011L598.553 41.3055L599.13 40.5957ZM604.181 46.7252L603.374 47.1562L603.377 47.1609L604.181 46.7252ZM602.465 66.8792L601.722 66.3456L601.721 66.3469L602.465 66.8792ZM592.412 74.676L592.05 73.8363L592.047 73.8373L592.412 74.676ZM549.401 68.0454L558.522 53.2364L556.965 52.2771L547.844 67.0861L549.401 68.0454ZM557.18 53.4776C559.593 55.361 561.852 56.9076 563.959 58.1112L564.866 56.523C562.853 55.3728 560.667 53.8792 558.306 52.0358L557.18 53.4776ZM563.964 58.1143C566.108 59.3204 568.202 60.2175 570.244 60.796L570.742 59.036C568.861 58.5031 566.901 57.6675 564.861 56.5199L563.964 58.1143ZM570.261 60.8007C572.331 61.3437 574.435 61.6153 576.573 61.6153V59.786C574.592 59.786 572.643 59.5345 570.725 59.0313L570.261 60.8007ZM576.573 61.6153C578.664 61.6153 580.496 61.3798 582.049 60.8857L581.494 59.1425C580.17 59.5638 578.536 59.786 576.573 59.786V61.6153ZM582.066 60.8798C583.613 60.3524 584.866 59.5888 585.753 58.5477L584.36 57.3615C583.744 58.0856 582.806 58.6951 581.476 59.1484L582.066 60.8798ZM585.751 58.5498C586.682 57.4633 587.148 56.1715 587.148 54.7182H585.319C585.319 55.7494 585 56.6152 584.362 57.3593L585.751 58.5498ZM587.148 54.7182C587.148 52.906 586.496 51.3331 585.213 50.0504L583.92 51.3439C584.86 52.2842 585.319 53.3921 585.319 54.7182H587.148ZM585.213 50.0504C584.008 48.8458 582.426 47.7937 580.496 46.8794L579.712 48.5325C581.509 49.3835 582.901 50.3256 583.92 51.3439L585.213 50.0504ZM580.501 46.8821C578.65 45.9894 576.62 45.0987 574.414 44.2096L573.731 45.9063C575.905 46.7826 577.897 47.6572 579.707 48.5298L580.501 46.8821ZM574.414 44.2096C572.077 43.2681 569.689 42.2285 567.251 41.0908L566.477 42.7485C568.943 43.8991 571.361 44.9518 573.731 45.9064L574.414 44.2096ZM567.26 41.0951C564.871 39.9482 562.675 38.5639 560.673 36.9426L559.522 38.3644C561.638 40.0775 563.954 41.5374 566.468 42.7442L567.26 41.0951ZM560.673 36.9426C558.71 35.3539 557.121 33.4229 555.902 31.142L554.289 32.0039C555.62 34.4959 557.365 36.6186 559.522 38.3644L560.673 36.9426ZM555.905 31.1465C554.715 28.8893 554.098 26.1018 554.098 22.7464H552.268C552.268 26.3215 552.926 29.4183 554.286 31.9994L555.905 31.1465ZM554.098 22.7464C554.098 18.3286 555.199 14.6137 557.362 11.5547L555.869 10.4986C553.455 13.9124 552.268 18.0108 552.268 22.7464H554.098ZM557.361 11.5562C559.577 8.43598 562.592 6.05383 566.438 4.41453L565.721 2.73174C561.59 4.49231 558.297 7.07918 555.87 10.4972L557.361 11.5562ZM566.442 4.41311C570.332 2.73688 574.75 1.88884 579.712 1.88884V0.0595703C574.54 0.0595703 569.87 0.944145 565.718 2.73316L566.442 4.41311ZM579.712 1.88884C583.325 1.88884 587.16 2.3685 591.22 3.33506L591.643 1.55553C587.465 0.560635 583.487 0.0595703 579.712 0.0595703V1.88884ZM591.22 3.33506C595.264 4.29808 599.367 5.80923 603.529 7.87406L604.342 6.23539C600.07 4.11578 595.837 2.55397 591.643 1.55553L591.22 3.33506ZM603.113 6.65607L595.561 22.2497L597.207 23.047L604.759 7.45337L603.113 6.65607ZM596.861 21.8679C594.437 20.3864 591.782 19.2113 588.901 18.3403L588.372 20.0913C591.113 20.9202 593.624 22.0335 595.907 23.4288L596.861 21.8679ZM588.913 18.3441C586.067 17.4399 583.422 16.9771 580.987 16.9771V18.8064C583.193 18.8064 585.648 19.2263 588.359 20.0875L588.913 18.3441ZM580.987 16.9771C579.306 16.9771 577.794 17.1998 576.466 17.6663L577.073 19.3922C578.164 19.0088 579.463 18.8064 580.987 18.8064V16.9771ZM576.459 17.669C575.155 18.14 574.087 18.8486 573.309 19.8213L574.738 20.964C575.267 20.3021 576.031 19.7685 577.08 19.3895L576.459 17.669ZM573.321 19.8071C572.522 20.7658 572.128 21.908 572.128 23.1877H573.957C573.957 22.3099 574.217 21.5886 574.726 20.9782L573.321 19.8071ZM572.128 23.1877C572.128 24.8924 572.798 26.3938 574.063 27.6593L575.357 26.3658C574.399 25.4083 573.957 24.3598 573.957 23.1877H572.128ZM574.073 27.6689C575.269 28.8301 576.825 29.8772 578.714 30.8219L579.532 29.1857C577.76 28.2997 576.374 27.3526 575.347 26.3562L574.073 27.6689ZM578.714 30.8219C580.56 31.7449 582.568 32.683 584.738 33.6362L585.474 31.9615C583.328 31.0187 581.348 30.0934 579.532 29.1857L578.714 30.8219ZM584.744 33.6389C587.079 34.6443 589.465 35.764 591.901 36.9983L592.727 35.3665C590.26 34.1163 587.84 32.9803 585.467 31.9588L584.744 33.6389ZM591.905 37.0005C594.33 38.2131 596.544 39.6468 598.548 41.3011L599.712 39.8903C597.597 38.1446 595.267 36.6362 592.723 35.3643L591.905 37.0005ZM598.553 41.3055C600.551 42.9284 602.156 44.8767 603.374 47.1562L604.988 46.2942C603.656 43.8009 601.894 41.6628 599.707 39.8858L598.553 41.3055ZM603.377 47.1609C604.564 49.3531 605.179 52.0238 605.179 55.2085H607.008C607.008 51.7897 606.348 48.8049 604.985 46.2896L603.377 47.1609ZM605.179 55.2085C605.179 59.4434 604.022 63.1442 601.722 66.3456L603.207 67.4129C605.746 63.8799 607.008 59.8002 607.008 55.2085H605.179ZM601.721 66.3469C599.445 69.5274 596.235 72.029 592.05 73.8363L592.775 75.5157C597.22 73.5962 600.712 70.9 603.208 67.4115L601.721 66.3469ZM592.047 73.8373C587.902 75.641 583.045 76.5565 577.456 76.5565V78.3857C583.243 78.3857 588.357 77.4378 592.777 75.5147L592.047 73.8373ZM577.456 76.5565C572.26 76.5565 567.262 75.7229 562.456 74.057L561.857 75.7854C566.859 77.5194 572.06 78.3857 577.456 78.3857V76.5565ZM562.456 74.057C557.648 72.39 553.225 69.9864 549.184 66.8438L548.061 68.2877C552.259 71.5525 556.858 74.0525 561.857 75.7854L562.456 74.057Z" fill="black" fill-opacity="0.15" mask="url(#path-1-outside-1_78_756)"/>
</svg>
