<svg width="334" height="157" viewBox="0 0 334 157" fill="none" xmlns="http://www.w3.org/2000/svg">
<g filter="url(#filter0_ddii_90_2341)">
<path d="M20.8418 30.9884C20.8418 18.6223 30.8665 8.59766 43.2325 8.59766H291.24C303.606 8.59766 313.631 18.6223 313.631 30.9884V102.24C313.631 114.607 303.606 124.631 291.24 124.631H43.2325C30.8664 124.631 20.8418 114.607 20.8418 102.24V30.9884Z" fill="#F9FBFB" shape-rendering="crispEdges"/>
<path d="M45.2389 47.8347C44.9829 47.8347 44.7855 47.7654 44.6469 47.6267C44.5082 47.4881 44.4389 47.2907 44.4389 47.0347V37.3547C44.4389 37.0987 44.5082 36.9014 44.6469 36.7627C44.7855 36.624 44.9829 36.5547 45.2389 36.5547H51.1269C51.3295 36.5547 51.4842 36.608 51.5909 36.7147C51.7082 36.8107 51.7669 36.9547 51.7669 37.1467C51.7669 37.3494 51.7082 37.504 51.5909 37.6107C51.4842 37.7174 51.3295 37.7707 51.1269 37.7707H45.8789V41.4987H50.7909C50.9935 41.4987 51.1482 41.552 51.2549 41.6587C51.3615 41.7654 51.4149 41.9147 51.4149 42.1067C51.4149 42.3094 51.3615 42.464 51.2549 42.5707C51.1482 42.6667 50.9935 42.7147 50.7909 42.7147H45.8789V46.6187H51.1269C51.3295 46.6187 51.4842 46.6721 51.5909 46.7787C51.7082 46.8747 51.7669 47.0241 51.7669 47.2267C51.7669 47.4294 51.7082 47.5841 51.5909 47.6907C51.4842 47.7867 51.3295 47.8347 51.1269 47.8347H45.2389ZM54.3419 47.9467C54.1179 47.9467 53.9419 47.8827 53.8139 47.7547C53.6859 47.6267 53.6219 47.4401 53.6219 47.1947V40.6667C53.6219 40.4214 53.6859 40.24 53.8139 40.1227C53.9419 39.9947 54.1179 39.9307 54.3419 39.9307C54.5659 39.9307 54.7365 39.9947 54.8539 40.1227C54.9819 40.24 55.0459 40.4214 55.0459 40.6667V41.9787L54.8699 41.7387C55.0939 41.1307 55.4565 40.672 55.9579 40.3627C56.4699 40.0534 57.0512 39.8987 57.7019 39.8987C58.3312 39.8987 58.8485 40.0107 59.2539 40.2347C59.6592 40.4587 59.9632 40.8 60.1659 41.2587C60.3685 41.7174 60.4699 42.2987 60.4699 43.0027V47.1947C60.4699 47.4401 60.4059 47.6267 60.2779 47.7547C60.1605 47.8827 59.9845 47.9467 59.7499 47.9467C59.5152 47.9467 59.3339 47.8827 59.2059 47.7547C59.0779 47.6267 59.0139 47.4401 59.0139 47.1947V43.0827C59.0139 42.3894 58.8805 41.8827 58.6139 41.5627C58.3472 41.2427 57.9205 41.0827 57.3339 41.0827C56.6512 41.0827 56.1019 41.296 55.6859 41.7227C55.2805 42.1387 55.0779 42.704 55.0779 43.4187V47.1947C55.0779 47.6961 54.8325 47.9467 54.3419 47.9467ZM66.2821 50.8587C65.7061 50.8587 65.1461 50.7947 64.6021 50.6667C64.0688 50.5387 63.5834 50.3414 63.1461 50.0747C63.0074 49.9894 62.9114 49.8881 62.8581 49.7707C62.8154 49.6641 62.8048 49.5521 62.8261 49.4347C62.8581 49.3174 62.9114 49.2107 62.9861 49.1147C63.0714 49.0294 63.1674 48.9707 63.2741 48.9387C63.3914 48.9174 63.5088 48.9441 63.6261 49.0187C64.0954 49.2854 64.5434 49.4667 64.9701 49.5627C65.3968 49.6587 65.8021 49.7067 66.1861 49.7067C66.9434 49.7067 67.5088 49.5094 67.8821 49.1147C68.2661 48.7307 68.4581 48.1654 68.4581 47.4187V45.6907H68.6021C68.4528 46.2881 68.1168 46.7627 67.5941 47.1147C67.0821 47.4667 66.4848 47.6427 65.8021 47.6427C65.0981 47.6427 64.4848 47.4827 63.9621 47.1627C63.4394 46.8321 63.0341 46.3787 62.7461 45.8027C62.4581 45.216 62.3141 44.5387 62.3141 43.7707C62.3141 43.184 62.3941 42.656 62.5541 42.1867C62.7248 41.7067 62.9594 41.3014 63.2581 40.9707C63.5674 40.6294 63.9354 40.368 64.3621 40.1867C64.7888 39.9947 65.2688 39.8987 65.8021 39.8987C66.4954 39.8987 67.0981 40.0747 67.6101 40.4267C68.1221 40.7787 68.4528 41.2534 68.6021 41.8507L68.4261 42.0747V40.6667C68.4261 40.4214 68.4901 40.24 68.6181 40.1227C68.7461 39.9947 68.9274 39.9307 69.1621 39.9307C69.3861 39.9307 69.5621 39.9947 69.6901 40.1227C69.8181 40.24 69.8821 40.4214 69.8821 40.6667V47.2267C69.8821 48.4321 69.5728 49.3387 68.9541 49.9467C68.3461 50.5547 67.4554 50.8587 66.2821 50.8587ZM66.1221 46.4907C66.6021 46.4907 67.0128 46.3841 67.3541 46.1707C67.7061 45.9467 67.9728 45.6321 68.1541 45.2267C68.3461 44.8107 68.4421 44.3254 68.4421 43.7707C68.4421 42.9281 68.2341 42.2667 67.8181 41.7867C67.4021 41.296 66.8368 41.0507 66.1221 41.0507C65.6421 41.0507 65.2261 41.1627 64.8741 41.3867C64.5328 41.6 64.2661 41.9094 64.0741 42.3147C63.8821 42.72 63.7861 43.2054 63.7861 43.7707C63.7861 44.6027 63.9941 45.264 64.4101 45.7547C64.8368 46.2454 65.4074 46.4907 66.1221 46.4907ZM74.6956 47.9787C74.1623 47.9787 73.6769 47.8721 73.2396 47.6587C72.8129 47.4454 72.4769 47.1574 72.2316 46.7947C71.9969 46.4321 71.8796 46.0267 71.8796 45.5787C71.8796 45.0027 72.0236 44.5494 72.3116 44.2187C72.5996 43.8881 73.0849 43.6534 73.7676 43.5147C74.4503 43.3654 75.3676 43.2907 76.5196 43.2907H77.2716V44.2187H76.5516C75.7303 44.2187 75.0796 44.256 74.5996 44.3307C74.1303 44.4054 73.7996 44.5387 73.6076 44.7307C73.4156 44.9121 73.3196 45.1681 73.3196 45.4987C73.3196 45.9147 73.4636 46.2561 73.7516 46.5227C74.0503 46.7894 74.4556 46.9227 74.9676 46.9227C75.3729 46.9227 75.7303 46.8267 76.0396 46.6347C76.3489 46.4321 76.5943 46.1654 76.7756 45.8347C76.9569 45.4934 77.0476 45.1041 77.0476 44.6667V42.8267C77.0476 42.1974 76.9196 41.744 76.6636 41.4667C76.4076 41.1787 75.9756 41.0347 75.3676 41.0347C75.0156 41.0347 74.6529 41.0827 74.2796 41.1787C73.9063 41.2747 73.5169 41.4241 73.1116 41.6267C72.9516 41.7014 72.8129 41.728 72.6956 41.7067C72.5783 41.6747 72.4823 41.6107 72.4076 41.5147C72.3436 41.408 72.3063 41.296 72.2956 41.1787C72.2956 41.0507 72.3223 40.928 72.3756 40.8107C72.4396 40.6934 72.5463 40.608 72.6956 40.5547C73.1649 40.32 73.6289 40.1547 74.0876 40.0587C74.5569 39.952 74.9943 39.8987 75.3996 39.8987C76.0929 39.8987 76.6636 40.0107 77.1116 40.2347C77.5596 40.448 77.8956 40.784 78.1196 41.2427C78.3436 41.6907 78.4556 42.2667 78.4556 42.9707V47.1947C78.4556 47.4401 78.3969 47.6267 78.2796 47.7547C78.1623 47.8827 77.9916 47.9467 77.7676 47.9467C77.5543 47.9467 77.3836 47.8827 77.2556 47.7547C77.1383 47.6267 77.0796 47.4401 77.0796 47.1947V46.0587H77.2236C77.1383 46.4534 76.9783 46.7947 76.7436 47.0827C76.5089 47.3707 76.2156 47.5947 75.8636 47.7547C75.5223 47.9041 75.1329 47.9787 74.6956 47.9787ZM84.2509 50.8587C83.6749 50.8587 83.1149 50.7947 82.5709 50.6667C82.0375 50.5387 81.5522 50.3414 81.1149 50.0747C80.9762 49.9894 80.8802 49.8881 80.8269 49.7707C80.7842 49.6641 80.7735 49.5521 80.7949 49.4347C80.8269 49.3174 80.8802 49.2107 80.9549 49.1147C81.0402 49.0294 81.1362 48.9707 81.2429 48.9387C81.3602 48.9174 81.4775 48.9441 81.5949 49.0187C82.0642 49.2854 82.5122 49.4667 82.9389 49.5627C83.3655 49.6587 83.7709 49.7067 84.1549 49.7067C84.9122 49.7067 85.4775 49.5094 85.8509 49.1147C86.2349 48.7307 86.4269 48.1654 86.4269 47.4187V45.6907H86.5709C86.4215 46.2881 86.0855 46.7627 85.5629 47.1147C85.0509 47.4667 84.4535 47.6427 83.7709 47.6427C83.0669 47.6427 82.4535 47.4827 81.9309 47.1627C81.4082 46.8321 81.0029 46.3787 80.7149 45.8027C80.4269 45.216 80.2829 44.5387 80.2829 43.7707C80.2829 43.184 80.3629 42.656 80.5229 42.1867C80.6935 41.7067 80.9282 41.3014 81.2269 40.9707C81.5362 40.6294 81.9042 40.368 82.3309 40.1867C82.7575 39.9947 83.2375 39.8987 83.7709 39.8987C84.4642 39.8987 85.0669 40.0747 85.5789 40.4267C86.0909 40.7787 86.4215 41.2534 86.5709 41.8507L86.3949 42.0747V40.6667C86.3949 40.4214 86.4589 40.24 86.5869 40.1227C86.7149 39.9947 86.8962 39.9307 87.1309 39.9307C87.3549 39.9307 87.5309 39.9947 87.6589 40.1227C87.7869 40.24 87.8509 40.4214 87.8509 40.6667V47.2267C87.8509 48.4321 87.5415 49.3387 86.9229 49.9467C86.3149 50.5547 85.4242 50.8587 84.2509 50.8587ZM84.0909 46.4907C84.5709 46.4907 84.9815 46.3841 85.3229 46.1707C85.6749 45.9467 85.9415 45.6321 86.1229 45.2267C86.3149 44.8107 86.4109 44.3254 86.4109 43.7707C86.4109 42.9281 86.2029 42.2667 85.7869 41.7867C85.3709 41.296 84.8055 41.0507 84.0909 41.0507C83.6109 41.0507 83.1949 41.1627 82.8429 41.3867C82.5015 41.6 82.2349 41.9094 82.0429 42.3147C81.8509 42.72 81.7549 43.2054 81.7549 43.7707C81.7549 44.6027 81.9629 45.264 82.3789 45.7547C82.8055 46.2454 83.3762 46.4907 84.0909 46.4907ZM93.7844 47.9787C92.9417 47.9787 92.2164 47.8187 91.6084 47.4987C91.011 47.1681 90.547 46.7041 90.2164 46.1067C89.8857 45.4987 89.7204 44.784 89.7204 43.9627C89.7204 43.152 89.8804 42.4427 90.2004 41.8347C90.531 41.2267 90.979 40.752 91.5444 40.4107C92.1204 40.0694 92.7764 39.8987 93.5124 39.8987C94.035 39.8987 94.5044 39.9894 94.9204 40.1707C95.347 40.3414 95.7097 40.592 96.0084 40.9227C96.307 41.2534 96.531 41.6587 96.6804 42.1387C96.8404 42.6081 96.9204 43.1414 96.9204 43.7387C96.9204 43.9094 96.867 44.0427 96.7604 44.1387C96.6644 44.2241 96.5204 44.2667 96.3284 44.2667H90.8564V43.3387H95.9604L95.6884 43.5627C95.6884 43.008 95.603 42.5387 95.4324 42.1547C95.2724 41.76 95.0324 41.4614 94.7124 41.2587C94.403 41.056 94.0137 40.9547 93.5444 40.9547C93.0324 40.9547 92.595 41.0774 92.2324 41.3227C91.8697 41.5574 91.5924 41.8934 91.4004 42.3307C91.2084 42.7574 91.1124 43.2534 91.1124 43.8187V43.9147C91.1124 44.8747 91.3417 45.6001 91.8004 46.0907C92.259 46.5814 92.9204 46.8267 93.7844 46.8267C94.1257 46.8267 94.4724 46.7841 94.8244 46.6987C95.187 46.6134 95.5337 46.4587 95.8644 46.2347C96.0244 46.1387 96.1684 46.0961 96.2964 46.1067C96.435 46.1067 96.547 46.1494 96.6324 46.2347C96.7177 46.3094 96.771 46.4054 96.7924 46.5227C96.8137 46.6294 96.7977 46.7467 96.7444 46.8747C96.691 47.0027 96.5897 47.1147 96.4404 47.2107C96.0884 47.4561 95.667 47.6481 95.1764 47.7867C94.6964 47.9147 94.2324 47.9787 93.7844 47.9787ZM99.4832 47.9467C99.2592 47.9467 99.0832 47.8827 98.9552 47.7547C98.8272 47.6267 98.7632 47.4401 98.7632 47.1947V40.6667C98.7632 40.4214 98.8272 40.24 98.9552 40.1227C99.0832 39.9947 99.2592 39.9307 99.4832 39.9307C99.7072 39.9307 99.8779 39.9947 99.9952 40.1227C100.123 40.24 100.187 40.4214 100.187 40.6667V42.0267L100.011 41.7387C100.214 41.152 100.539 40.6987 100.987 40.3787C101.446 40.0587 101.99 39.8987 102.619 39.8987C103.281 39.8987 103.814 40.0587 104.219 40.3787C104.625 40.688 104.897 41.1627 105.035 41.8027H104.811C105.003 41.216 105.345 40.752 105.835 40.4107C106.337 40.0694 106.918 39.8987 107.579 39.8987C108.166 39.8987 108.646 40.016 109.019 40.2507C109.403 40.4747 109.691 40.816 109.883 41.2747C110.075 41.7227 110.171 42.2987 110.171 43.0027V47.1947C110.171 47.4401 110.107 47.6267 109.979 47.7547C109.851 47.8827 109.675 47.9467 109.451 47.9467C109.217 47.9467 109.035 47.8827 108.907 47.7547C108.779 47.6267 108.715 47.4401 108.715 47.1947V43.0667C108.715 42.384 108.598 41.8827 108.363 41.5627C108.129 41.2427 107.734 41.0827 107.179 41.0827C106.571 41.0827 106.086 41.296 105.723 41.7227C105.371 42.1387 105.195 42.7147 105.195 43.4507V47.1947C105.195 47.4401 105.131 47.6267 105.003 47.7547C104.886 47.8827 104.71 47.9467 104.475 47.9467C104.241 47.9467 104.059 47.8827 103.931 47.7547C103.803 47.6267 103.739 47.4401 103.739 47.1947V43.0667C103.739 42.384 103.622 41.8827 103.387 41.5627C103.153 41.2427 102.758 41.0827 102.203 41.0827C101.595 41.0827 101.11 41.296 100.747 41.7227C100.395 42.1387 100.219 42.7147 100.219 43.4507V47.1947C100.219 47.6961 99.9739 47.9467 99.4832 47.9467ZM116.112 47.9787C115.27 47.9787 114.544 47.8187 113.936 47.4987C113.339 47.1681 112.875 46.7041 112.544 46.1067C112.214 45.4987 112.048 44.784 112.048 43.9627C112.048 43.152 112.208 42.4427 112.528 41.8347C112.859 41.2267 113.307 40.752 113.872 40.4107C114.448 40.0694 115.104 39.8987 115.84 39.8987C116.363 39.8987 116.832 39.9894 117.248 40.1707C117.675 40.3414 118.038 40.592 118.336 40.9227C118.635 41.2534 118.859 41.6587 119.008 42.1387C119.168 42.6081 119.248 43.1414 119.248 43.7387C119.248 43.9094 119.195 44.0427 119.088 44.1387C118.992 44.2241 118.848 44.2667 118.656 44.2667H113.184V43.3387H118.288L118.016 43.5627C118.016 43.008 117.931 42.5387 117.76 42.1547C117.6 41.76 117.36 41.4614 117.04 41.2587C116.731 41.056 116.342 40.9547 115.872 40.9547C115.36 40.9547 114.923 41.0774 114.56 41.3227C114.198 41.5574 113.92 41.8934 113.728 42.3307C113.536 42.7574 113.44 43.2534 113.44 43.8187V43.9147C113.44 44.8747 113.67 45.6001 114.128 46.0907C114.587 46.5814 115.248 46.8267 116.112 46.8267C116.454 46.8267 116.8 46.7841 117.152 46.6987C117.515 46.6134 117.862 46.4587 118.192 46.2347C118.352 46.1387 118.496 46.0961 118.624 46.1067C118.763 46.1067 118.875 46.1494 118.96 46.2347C119.046 46.3094 119.099 46.4054 119.12 46.5227C119.142 46.6294 119.126 46.7467 119.072 46.8747C119.019 47.0027 118.918 47.1147 118.768 47.2107C118.416 47.4561 117.995 47.6481 117.504 47.7867C117.024 47.9147 116.56 47.9787 116.112 47.9787ZM121.779 47.9467C121.555 47.9467 121.379 47.8827 121.251 47.7547C121.123 47.6267 121.059 47.4401 121.059 47.1947V40.6667C121.059 40.4214 121.123 40.24 121.251 40.1227C121.379 39.9947 121.555 39.9307 121.779 39.9307C122.003 39.9307 122.174 39.9947 122.291 40.1227C122.419 40.24 122.483 40.4214 122.483 40.6667V41.9787L122.307 41.7387C122.531 41.1307 122.894 40.672 123.395 40.3627C123.907 40.0534 124.489 39.8987 125.139 39.8987C125.769 39.8987 126.286 40.0107 126.691 40.2347C127.097 40.4587 127.401 40.8 127.603 41.2587C127.806 41.7174 127.907 42.2987 127.907 43.0027V47.1947C127.907 47.4401 127.843 47.6267 127.715 47.7547C127.598 47.8827 127.422 47.9467 127.187 47.9467C126.953 47.9467 126.771 47.8827 126.643 47.7547C126.515 47.6267 126.451 47.4401 126.451 47.1947V43.0827C126.451 42.3894 126.318 41.8827 126.051 41.5627C125.785 41.2427 125.358 41.0827 124.771 41.0827C124.089 41.0827 123.539 41.296 123.123 41.7227C122.718 42.1387 122.515 42.704 122.515 43.4187V47.1947C122.515 47.6961 122.27 47.9467 121.779 47.9467ZM133.448 47.9787C132.818 47.9787 132.29 47.8667 131.864 47.6427C131.448 47.4187 131.133 47.0934 130.92 46.6667C130.717 46.2401 130.616 45.7174 130.616 45.0987V41.1627H129.592C129.4 41.1627 129.25 41.1147 129.144 41.0187C129.037 40.912 128.984 40.7734 128.984 40.6027C128.984 40.4214 129.037 40.2827 129.144 40.1867C129.25 40.0907 129.4 40.0427 129.592 40.0427H130.616V38.2987C130.616 38.0534 130.68 37.872 130.808 37.7547C130.936 37.6267 131.117 37.5627 131.352 37.5627C131.586 37.5627 131.762 37.6267 131.88 37.7547C132.008 37.872 132.072 38.0534 132.072 38.2987V40.0427H134.008C134.21 40.0427 134.365 40.0907 134.472 40.1867C134.578 40.2827 134.632 40.4214 134.632 40.6027C134.632 40.7734 134.578 40.912 134.472 41.0187C134.365 41.1147 134.21 41.1627 134.008 41.1627H132.072V44.9707C132.072 45.5574 132.194 46.0001 132.44 46.2987C132.685 46.5974 133.09 46.7467 133.656 46.7467C133.858 46.7467 134.029 46.7307 134.168 46.6987C134.306 46.6561 134.429 46.6347 134.536 46.6347C134.632 46.6241 134.712 46.6561 134.776 46.7307C134.85 46.8054 134.888 46.9441 134.888 47.1467C134.888 47.2961 134.861 47.4347 134.808 47.5627C134.765 47.6801 134.674 47.7601 134.536 47.8027C134.408 47.8454 134.237 47.8827 134.024 47.9147C133.81 47.9574 133.618 47.9787 133.448 47.9787Z" fill="#0F1415"/>
<path d="M48.6089 75.52C47.6289 75.52 46.7889 75.3147 46.0889 74.904C45.3889 74.4934 44.8475 73.91 44.4649 73.154C44.0915 72.3887 43.9049 71.488 43.9049 70.452C43.9049 69.6774 44.0122 68.982 44.2269 68.366C44.4415 67.7407 44.7495 67.2087 45.1509 66.77C45.5522 66.322 46.0422 65.9814 46.6209 65.748C47.2089 65.5147 47.8715 65.398 48.6089 65.398C49.1689 65.398 49.7055 65.4774 50.2189 65.636C50.7415 65.7947 51.1895 66.0187 51.5629 66.308C51.7122 66.4107 51.8102 66.5274 51.8569 66.658C51.9035 66.7887 51.9082 66.9147 51.8709 67.036C51.8429 67.148 51.7822 67.246 51.6889 67.33C51.6049 67.4047 51.4975 67.4467 51.3669 67.456C51.2362 67.456 51.0962 67.4047 50.9469 67.302C50.6202 67.05 50.2609 66.868 49.8689 66.756C49.4862 66.6347 49.0755 66.574 48.6369 66.574C47.9182 66.574 47.3069 66.728 46.8029 67.036C46.3082 67.3347 45.9302 67.7734 45.6689 68.352C45.4169 68.9214 45.2909 69.6214 45.2909 70.452C45.2909 71.2734 45.4169 71.978 45.6689 72.566C45.9302 73.1447 46.3082 73.588 46.8029 73.896C47.3069 74.1947 47.9182 74.344 48.6369 74.344C49.0755 74.344 49.4909 74.2834 49.8829 74.162C50.2842 74.0407 50.6529 73.854 50.9889 73.602C51.1382 73.4994 51.2735 73.4527 51.3949 73.462C51.5255 73.4714 51.6329 73.5134 51.7169 73.588C51.8009 73.6534 51.8569 73.7467 51.8849 73.868C51.9222 73.98 51.9222 74.0967 51.8849 74.218C51.8475 74.3394 51.7635 74.4467 51.6329 74.54C51.2502 74.8667 50.7929 75.114 50.2609 75.282C49.7382 75.4407 49.1875 75.52 48.6089 75.52ZM54.2061 75.492C53.9915 75.492 53.8281 75.436 53.7161 75.324C53.6041 75.212 53.5481 75.0487 53.5481 74.834V69.122C53.5481 68.9074 53.6041 68.7487 53.7161 68.646C53.8281 68.534 53.9821 68.478 54.1781 68.478C54.3741 68.478 54.5235 68.534 54.6261 68.646C54.7381 68.7487 54.7941 68.9074 54.7941 69.122V70.2H54.6541C54.8035 69.64 55.0835 69.2154 55.4941 68.926C55.9048 68.6367 56.4228 68.4734 57.0481 68.436C57.1975 68.4267 57.3188 68.464 57.4121 68.548C57.5055 68.6227 57.5568 68.7534 57.5661 68.94C57.5755 69.1174 57.5335 69.262 57.4401 69.374C57.3468 69.4767 57.2021 69.5374 57.0061 69.556L56.7541 69.57C56.1381 69.6354 55.6621 69.836 55.3261 70.172C54.9995 70.508 54.8361 70.97 54.8361 71.558V74.834C54.8361 75.0487 54.7801 75.212 54.6681 75.324C54.5655 75.436 54.4115 75.492 54.2061 75.492ZM61.7157 75.52C60.9784 75.52 60.3437 75.38 59.8117 75.1C59.289 74.8107 58.883 74.4047 58.5937 73.882C58.3044 73.35 58.1597 72.7247 58.1597 72.006C58.1597 71.2967 58.2997 70.676 58.5797 70.144C58.869 69.612 59.261 69.1967 59.7557 68.898C60.2597 68.5994 60.8337 68.45 61.4777 68.45C61.935 68.45 62.3457 68.5294 62.7097 68.688C63.083 68.8374 63.4004 69.0567 63.6617 69.346C63.923 69.6354 64.119 69.99 64.2497 70.41C64.3897 70.8207 64.4597 71.2874 64.4597 71.81C64.4597 71.9594 64.413 72.076 64.3197 72.16C64.2357 72.2347 64.1097 72.272 63.9417 72.272H59.1537V71.46H63.6197L63.3817 71.656C63.3817 71.1707 63.307 70.76 63.1577 70.424C63.0177 70.0787 62.8077 69.8174 62.5277 69.64C62.257 69.4627 61.9164 69.374 61.5057 69.374C61.0577 69.374 60.675 69.4814 60.3577 69.696C60.0404 69.9014 59.7977 70.1954 59.6297 70.578C59.4617 70.9514 59.3777 71.3854 59.3777 71.88V71.964C59.3777 72.804 59.5784 73.4387 59.9797 73.868C60.381 74.2974 60.9597 74.512 61.7157 74.512C62.0144 74.512 62.3177 74.4747 62.6257 74.4C62.943 74.3254 63.2464 74.19 63.5357 73.994C63.6757 73.91 63.8017 73.8727 63.9137 73.882C64.035 73.882 64.133 73.9194 64.2077 73.994C64.2824 74.0594 64.329 74.1434 64.3477 74.246C64.3664 74.3394 64.3524 74.442 64.3057 74.554C64.259 74.666 64.1704 74.764 64.0397 74.848C63.7317 75.0627 63.363 75.2307 62.9337 75.352C62.5137 75.464 62.1077 75.52 61.7157 75.52ZM68.2142 75.52C67.7475 75.52 67.3229 75.4267 66.9402 75.24C66.5669 75.0534 66.2729 74.8014 66.0582 74.484C65.8529 74.1667 65.7502 73.812 65.7502 73.42C65.7502 72.916 65.8762 72.5194 66.1282 72.23C66.3802 71.9407 66.8049 71.7354 67.4022 71.614C67.9995 71.4834 68.8022 71.418 69.8102 71.418H70.4682V72.23H69.8382C69.1195 72.23 68.5502 72.2627 68.1302 72.328C67.7195 72.3934 67.4302 72.51 67.2622 72.678C67.0942 72.8367 67.0102 73.0607 67.0102 73.35C67.0102 73.714 67.1362 74.0127 67.3882 74.246C67.6495 74.4794 68.0042 74.596 68.4522 74.596C68.8069 74.596 69.1195 74.512 69.3902 74.344C69.6609 74.1667 69.8755 73.9334 70.0342 73.644C70.1929 73.3454 70.2722 73.0047 70.2722 72.622V71.012C70.2722 70.4614 70.1602 70.0647 69.9362 69.822C69.7122 69.57 69.3342 69.444 68.8022 69.444C68.4942 69.444 68.1769 69.486 67.8502 69.57C67.5235 69.654 67.1829 69.7847 66.8282 69.962C66.6882 70.0274 66.5669 70.0507 66.4642 70.032C66.3615 70.004 66.2775 69.948 66.2122 69.864C66.1562 69.7707 66.1235 69.6727 66.1142 69.57C66.1142 69.458 66.1375 69.3507 66.1842 69.248C66.2402 69.1454 66.3335 69.0707 66.4642 69.024C66.8749 68.8187 67.2809 68.674 67.6822 68.59C68.0929 68.4967 68.4755 68.45 68.8302 68.45C69.4369 68.45 69.9362 68.548 70.3282 68.744C70.7202 68.9307 71.0142 69.2247 71.2102 69.626C71.4062 70.018 71.5042 70.522 71.5042 71.138V74.834C71.5042 75.0487 71.4529 75.212 71.3502 75.324C71.2475 75.436 71.0982 75.492 70.9022 75.492C70.7155 75.492 70.5662 75.436 70.4542 75.324C70.3515 75.212 70.3002 75.0487 70.3002 74.834V73.84H70.4262C70.3515 74.1854 70.2115 74.484 70.0062 74.736C69.8009 74.988 69.5442 75.184 69.2362 75.324C68.9375 75.4547 68.5969 75.52 68.2142 75.52ZM76.3371 75.52C75.7864 75.52 75.3244 75.422 74.9511 75.226C74.5871 75.03 74.3117 74.7454 74.1251 74.372C73.9477 73.9987 73.8591 73.5414 73.8591 73V69.556H72.9631C72.7951 69.556 72.6644 69.514 72.5711 69.43C72.4777 69.3367 72.4311 69.2154 72.4311 69.066C72.4311 68.9074 72.4777 68.786 72.5711 68.702C72.6644 68.618 72.7951 68.576 72.9631 68.576H73.8591V67.05C73.8591 66.8354 73.9151 66.6767 74.0271 66.574C74.1391 66.462 74.2977 66.406 74.5031 66.406C74.7084 66.406 74.8624 66.462 74.9651 66.574C75.0771 66.6767 75.1331 66.8354 75.1331 67.05V68.576H76.8271C77.0044 68.576 77.1397 68.618 77.2331 68.702C77.3264 68.786 77.3731 68.9074 77.3731 69.066C77.3731 69.2154 77.3264 69.3367 77.2331 69.43C77.1397 69.514 77.0044 69.556 76.8271 69.556H75.1331V72.888C75.1331 73.4014 75.2404 73.7887 75.4551 74.05C75.6697 74.3114 76.0244 74.442 76.5191 74.442C76.6964 74.442 76.8457 74.428 76.9671 74.4C77.0884 74.3627 77.1957 74.344 77.2891 74.344C77.3731 74.3347 77.4431 74.3627 77.4991 74.428C77.5644 74.4934 77.5971 74.6147 77.5971 74.792C77.5971 74.9227 77.5737 75.044 77.5271 75.156C77.4897 75.2587 77.4104 75.3287 77.2891 75.366C77.1771 75.4034 77.0277 75.436 76.8411 75.464C76.6544 75.5014 76.4864 75.52 76.3371 75.52ZM81.6083 75.52C80.8709 75.52 80.2363 75.38 79.7043 75.1C79.1816 74.8107 78.7756 74.4047 78.4863 73.882C78.1969 73.35 78.0523 72.7247 78.0523 72.006C78.0523 71.2967 78.1923 70.676 78.4723 70.144C78.7616 69.612 79.1536 69.1967 79.6483 68.898C80.1523 68.5994 80.7263 68.45 81.3703 68.45C81.8276 68.45 82.2383 68.5294 82.6023 68.688C82.9756 68.8374 83.2929 69.0567 83.5543 69.346C83.8156 69.6354 84.0116 69.99 84.1423 70.41C84.2823 70.8207 84.3523 71.2874 84.3523 71.81C84.3523 71.9594 84.3056 72.076 84.2123 72.16C84.1283 72.2347 84.0023 72.272 83.8343 72.272H79.0463V71.46H83.5123L83.2743 71.656C83.2743 71.1707 83.1996 70.76 83.0503 70.424C82.9103 70.0787 82.7003 69.8174 82.4203 69.64C82.1496 69.4627 81.8089 69.374 81.3983 69.374C80.9503 69.374 80.5676 69.4814 80.2503 69.696C79.9329 69.9014 79.6903 70.1954 79.5223 70.578C79.3543 70.9514 79.2703 71.3854 79.2703 71.88V71.964C79.2703 72.804 79.4709 73.4387 79.8723 73.868C80.2736 74.2974 80.8523 74.512 81.6083 74.512C81.9069 74.512 82.2103 74.4747 82.5183 74.4C82.8356 74.3254 83.1389 74.19 83.4283 73.994C83.5683 73.91 83.6943 73.8727 83.8063 73.882C83.9276 73.882 84.0256 73.9194 84.1003 73.994C84.1749 74.0594 84.2216 74.1434 84.2403 74.246C84.2589 74.3394 84.2449 74.442 84.1983 74.554C84.1516 74.666 84.0629 74.764 83.9323 74.848C83.6243 75.0627 83.2556 75.2307 82.8263 75.352C82.4063 75.464 82.0003 75.52 81.6083 75.52ZM90.2172 75.492C90.0212 75.492 89.8672 75.436 89.7552 75.324C89.6432 75.212 89.5872 75.0487 89.5872 74.834V66.07C89.5872 65.8554 89.6432 65.6967 89.7552 65.594C89.8672 65.482 90.0212 65.426 90.2172 65.426C90.4225 65.426 90.5812 65.482 90.6932 65.594C90.8052 65.6967 90.8612 65.8554 90.8612 66.07V70.06H90.6792C90.8752 69.528 91.1925 69.1267 91.6312 68.856C92.0792 68.5854 92.5878 68.45 93.1572 68.45C93.7078 68.45 94.1605 68.5527 94.5152 68.758C94.8698 68.954 95.1358 69.2527 95.3132 69.654C95.4905 70.0554 95.5792 70.5594 95.5792 71.166V74.834C95.5792 75.0487 95.5232 75.212 95.4112 75.324C95.3085 75.436 95.1545 75.492 94.9492 75.492C94.7438 75.492 94.5852 75.436 94.4732 75.324C94.3612 75.212 94.3052 75.0487 94.3052 74.834V71.236C94.3052 70.6294 94.1885 70.186 93.9552 69.906C93.7218 69.626 93.3485 69.486 92.8352 69.486C92.2378 69.486 91.7572 69.6727 91.3932 70.046C91.0385 70.41 90.8612 70.9047 90.8612 71.53V74.834C90.8612 75.2727 90.6465 75.492 90.2172 75.492ZM98.2289 75.464C98.0329 75.464 97.8789 75.4034 97.7669 75.282C97.6549 75.1607 97.5989 74.9927 97.5989 74.778V69.192C97.5989 68.968 97.6549 68.8 97.7669 68.688C97.8789 68.5667 98.0329 68.506 98.2289 68.506C98.4342 68.506 98.5929 68.5667 98.7049 68.688C98.8169 68.8 98.8729 68.968 98.8729 69.192V74.778C98.8729 74.9927 98.8169 75.1607 98.7049 75.282C98.6022 75.4034 98.4436 75.464 98.2289 75.464ZM98.2289 66.994C97.9769 66.994 97.7762 66.9287 97.6269 66.798C97.4869 66.658 97.4169 66.476 97.4169 66.252C97.4169 66.0094 97.4869 65.8274 97.6269 65.706C97.7762 65.5754 97.9769 65.51 98.2289 65.51C98.4996 65.51 98.7002 65.5754 98.8309 65.706C98.9709 65.8274 99.0409 66.0094 99.0409 66.252C99.0409 66.476 98.9709 66.658 98.8309 66.798C98.7002 66.9287 98.4996 66.994 98.2289 66.994ZM103.987 78.04C103.483 78.04 102.993 77.984 102.517 77.872C102.05 77.76 101.626 77.5874 101.243 77.354C101.122 77.2794 101.038 77.1907 100.991 77.088C100.954 76.9947 100.944 76.8967 100.963 76.794C100.991 76.6914 101.038 76.598 101.103 76.514C101.178 76.4394 101.262 76.388 101.355 76.36C101.458 76.3414 101.56 76.3647 101.663 76.43C102.074 76.6634 102.466 76.822 102.839 76.906C103.212 76.99 103.567 77.032 103.903 77.032C104.566 77.032 105.06 76.8594 105.387 76.514C105.723 76.178 105.891 75.6834 105.891 75.03V73.518H106.017C105.886 74.0407 105.592 74.456 105.135 74.764C104.687 75.072 104.164 75.226 103.567 75.226C102.951 75.226 102.414 75.086 101.957 74.806C101.5 74.5167 101.145 74.12 100.893 73.616C100.641 73.1027 100.515 72.51 100.515 71.838C100.515 71.3247 100.585 70.8627 100.725 70.452C100.874 70.032 101.08 69.6774 101.341 69.388C101.612 69.0894 101.934 68.8607 102.307 68.702C102.68 68.534 103.1 68.45 103.567 68.45C104.174 68.45 104.701 68.604 105.149 68.912C105.597 69.22 105.886 69.6354 106.017 70.158L105.863 70.354V69.122C105.863 68.9074 105.919 68.7487 106.031 68.646C106.143 68.534 106.302 68.478 106.507 68.478C106.703 68.478 106.857 68.534 106.969 68.646C107.081 68.7487 107.137 68.9074 107.137 69.122V74.862C107.137 75.9167 106.866 76.71 106.325 77.242C105.793 77.774 105.014 78.04 103.987 78.04ZM103.847 74.218C104.267 74.218 104.626 74.1247 104.925 73.938C105.233 73.742 105.466 73.4667 105.625 73.112C105.793 72.748 105.877 72.3234 105.877 71.838C105.877 71.1007 105.695 70.522 105.331 70.102C104.967 69.6727 104.472 69.458 103.847 69.458C103.427 69.458 103.063 69.556 102.755 69.752C102.456 69.9387 102.223 70.2094 102.055 70.564C101.887 70.9187 101.803 71.3434 101.803 71.838C101.803 72.566 101.985 73.1447 102.349 73.574C102.722 74.0034 103.222 74.218 103.847 74.218ZM109.809 75.492C109.613 75.492 109.459 75.436 109.347 75.324C109.235 75.212 109.179 75.0487 109.179 74.834V66.07C109.179 65.8554 109.235 65.6967 109.347 65.594C109.459 65.482 109.613 65.426 109.809 65.426C110.014 65.426 110.173 65.482 110.285 65.594C110.397 65.6967 110.453 65.8554 110.453 66.07V70.06H110.271C110.467 69.528 110.784 69.1267 111.223 68.856C111.671 68.5854 112.18 68.45 112.749 68.45C113.3 68.45 113.752 68.5527 114.107 68.758C114.462 68.954 114.728 69.2527 114.905 69.654C115.082 70.0554 115.171 70.5594 115.171 71.166V74.834C115.171 75.0487 115.115 75.212 115.003 75.324C114.9 75.436 114.746 75.492 114.541 75.492C114.336 75.492 114.177 75.436 114.065 75.324C113.953 75.212 113.897 75.0487 113.897 74.834V71.236C113.897 70.6294 113.78 70.186 113.547 69.906C113.314 69.626 112.94 69.486 112.427 69.486C111.83 69.486 111.349 69.6727 110.985 70.046C110.63 70.41 110.453 70.9047 110.453 71.53V74.834C110.453 75.2727 110.238 75.492 109.809 75.492ZM119.333 75.52C118.633 75.52 118.101 75.3147 117.737 74.904C117.373 74.484 117.191 73.882 117.191 73.098V66.07C117.191 65.8554 117.247 65.6967 117.359 65.594C117.471 65.482 117.625 65.426 117.821 65.426C118.026 65.426 118.185 65.482 118.297 65.594C118.409 65.6967 118.465 65.8554 118.465 66.07V73C118.465 73.4854 118.563 73.8494 118.759 74.092C118.964 74.3254 119.253 74.442 119.627 74.442C119.711 74.442 119.785 74.442 119.851 74.442C119.916 74.4327 119.981 74.4234 120.047 74.414C120.149 74.4047 120.224 74.4327 120.271 74.498C120.317 74.5634 120.341 74.694 120.341 74.89C120.341 75.0674 120.299 75.2074 120.215 75.31C120.14 75.4034 120.014 75.464 119.837 75.492C119.753 75.5014 119.669 75.506 119.585 75.506C119.501 75.5154 119.417 75.52 119.333 75.52ZM122.806 78.012C122.656 78.012 122.53 77.97 122.428 77.886C122.334 77.8114 122.278 77.704 122.26 77.564C122.25 77.4334 122.278 77.2934 122.344 77.144L123.296 74.988V75.52L120.65 69.36C120.584 69.2014 120.561 69.0567 120.58 68.926C120.598 68.7954 120.659 68.688 120.762 68.604C120.874 68.52 121.023 68.478 121.21 68.478C121.368 68.478 121.494 68.5154 121.588 68.59C121.681 68.6647 121.77 68.7954 121.854 68.982L124.052 74.4H123.66L125.9 68.982C125.974 68.7954 126.063 68.6647 126.166 68.59C126.268 68.5154 126.408 68.478 126.586 68.478C126.744 68.478 126.866 68.52 126.95 68.604C127.043 68.688 127.099 68.7954 127.118 68.926C127.136 69.0567 127.108 69.1967 127.034 69.346L123.506 77.508C123.412 77.704 123.314 77.8347 123.212 77.9C123.118 77.9747 122.983 78.012 122.806 78.012ZM135.27 75.52C134.533 75.52 133.898 75.38 133.366 75.1C132.844 74.8107 132.438 74.4047 132.148 73.882C131.859 73.35 131.714 72.7247 131.714 72.006C131.714 71.2967 131.854 70.676 132.134 70.144C132.424 69.612 132.816 69.1967 133.31 68.898C133.814 68.5994 134.388 68.45 135.032 68.45C135.49 68.45 135.9 68.5294 136.264 68.688C136.638 68.8374 136.955 69.0567 137.216 69.346C137.478 69.6354 137.674 69.99 137.804 70.41C137.944 70.8207 138.014 71.2874 138.014 71.81C138.014 71.9594 137.968 72.076 137.874 72.16C137.79 72.2347 137.664 72.272 137.496 72.272H132.708V71.46H137.174L136.936 71.656C136.936 71.1707 136.862 70.76 136.712 70.424C136.572 70.0787 136.362 69.8174 136.082 69.64C135.812 69.4627 135.471 69.374 135.06 69.374C134.612 69.374 134.23 69.4814 133.912 69.696C133.595 69.9014 133.352 70.1954 133.184 70.578C133.016 70.9514 132.932 71.3854 132.932 71.88V71.964C132.932 72.804 133.133 73.4387 133.534 73.868C133.936 74.2974 134.514 74.512 135.27 74.512C135.569 74.512 135.872 74.4747 136.18 74.4C136.498 74.3254 136.801 74.19 137.09 73.994C137.23 73.91 137.356 73.8727 137.468 73.882C137.59 73.882 137.688 73.9194 137.762 73.994C137.837 74.0594 137.884 74.1434 137.902 74.246C137.921 74.3394 137.907 74.442 137.86 74.554C137.814 74.666 137.725 74.764 137.594 74.848C137.286 75.0627 136.918 75.2307 136.488 75.352C136.068 75.464 135.662 75.52 135.27 75.52ZM140.229 75.492C140.033 75.492 139.879 75.436 139.767 75.324C139.655 75.212 139.599 75.0487 139.599 74.834V69.122C139.599 68.9074 139.655 68.7487 139.767 68.646C139.879 68.534 140.033 68.478 140.229 68.478C140.425 68.478 140.574 68.534 140.677 68.646C140.789 68.7487 140.845 68.9074 140.845 69.122V70.27L140.691 70.06C140.887 69.528 141.204 69.1267 141.643 68.856C142.091 68.5854 142.6 68.45 143.169 68.45C143.72 68.45 144.172 68.548 144.527 68.744C144.882 68.94 145.148 69.2387 145.325 69.64C145.502 70.0414 145.591 70.55 145.591 71.166V74.834C145.591 75.0487 145.535 75.212 145.423 75.324C145.32 75.436 145.166 75.492 144.961 75.492C144.756 75.492 144.597 75.436 144.485 75.324C144.373 75.212 144.317 75.0487 144.317 74.834V71.236C144.317 70.6294 144.2 70.186 143.967 69.906C143.734 69.626 143.36 69.486 142.847 69.486C142.25 69.486 141.769 69.6727 141.405 70.046C141.05 70.41 140.873 70.9047 140.873 71.53V74.834C140.873 75.2727 140.658 75.492 140.229 75.492ZM150.677 78.04C150.173 78.04 149.683 77.984 149.207 77.872C148.74 77.76 148.315 77.5874 147.933 77.354C147.811 77.2794 147.727 77.1907 147.681 77.088C147.643 76.9947 147.634 76.8967 147.653 76.794C147.681 76.6914 147.727 76.598 147.793 76.514C147.867 76.4394 147.951 76.388 148.045 76.36C148.147 76.3414 148.25 76.3647 148.353 76.43C148.763 76.6634 149.155 76.822 149.529 76.906C149.902 76.99 150.257 77.032 150.593 77.032C151.255 77.032 151.75 76.8594 152.077 76.514C152.413 76.178 152.581 75.6834 152.581 75.03V73.518H152.707C152.576 74.0407 152.282 74.456 151.825 74.764C151.377 75.072 150.854 75.226 150.257 75.226C149.641 75.226 149.104 75.086 148.647 74.806C148.189 74.5167 147.835 74.12 147.583 73.616C147.331 73.1027 147.205 72.51 147.205 71.838C147.205 71.3247 147.275 70.8627 147.415 70.452C147.564 70.032 147.769 69.6774 148.031 69.388C148.301 69.0894 148.623 68.8607 148.997 68.702C149.37 68.534 149.79 68.45 150.257 68.45C150.863 68.45 151.391 68.604 151.839 68.912C152.287 69.22 152.576 69.6354 152.707 70.158L152.553 70.354V69.122C152.553 68.9074 152.609 68.7487 152.721 68.646C152.833 68.534 152.991 68.478 153.197 68.478C153.393 68.478 153.547 68.534 153.659 68.646C153.771 68.7487 153.827 68.9074 153.827 69.122V74.862C153.827 75.9167 153.556 76.71 153.015 77.242C152.483 77.774 151.703 78.04 150.677 78.04ZM150.537 74.218C150.957 74.218 151.316 74.1247 151.615 73.938C151.923 73.742 152.156 73.4667 152.315 73.112C152.483 72.748 152.567 72.3234 152.567 71.838C152.567 71.1007 152.385 70.522 152.021 70.102C151.657 69.6727 151.162 69.458 150.537 69.458C150.117 69.458 149.753 69.556 149.445 69.752C149.146 69.9387 148.913 70.2094 148.745 70.564C148.577 70.9187 148.493 71.3434 148.493 71.838C148.493 72.566 148.675 73.1447 149.039 73.574C149.412 74.0034 149.911 74.218 150.537 74.218ZM158.038 75.52C157.572 75.52 157.147 75.4267 156.764 75.24C156.391 75.0534 156.097 74.8014 155.882 74.484C155.677 74.1667 155.574 73.812 155.574 73.42C155.574 72.916 155.7 72.5194 155.952 72.23C156.204 71.9407 156.629 71.7354 157.226 71.614C157.824 71.4834 158.626 71.418 159.634 71.418H160.292V72.23H159.662C158.944 72.23 158.374 72.2627 157.954 72.328C157.544 72.3934 157.254 72.51 157.086 72.678C156.918 72.8367 156.834 73.0607 156.834 73.35C156.834 73.714 156.96 74.0127 157.212 74.246C157.474 74.4794 157.828 74.596 158.276 74.596C158.631 74.596 158.944 74.512 159.214 74.344C159.485 74.1667 159.7 73.9334 159.858 73.644C160.017 73.3454 160.096 73.0047 160.096 72.622V71.012C160.096 70.4614 159.984 70.0647 159.76 69.822C159.536 69.57 159.158 69.444 158.626 69.444C158.318 69.444 158.001 69.486 157.674 69.57C157.348 69.654 157.007 69.7847 156.652 69.962C156.512 70.0274 156.391 70.0507 156.288 70.032C156.186 70.004 156.102 69.948 156.036 69.864C155.98 69.7707 155.948 69.6727 155.938 69.57C155.938 69.458 155.962 69.3507 156.008 69.248C156.064 69.1454 156.158 69.0707 156.288 69.024C156.699 68.8187 157.105 68.674 157.506 68.59C157.917 68.4967 158.3 68.45 158.654 68.45C159.261 68.45 159.76 68.548 160.152 68.744C160.544 68.9307 160.838 69.2247 161.034 69.626C161.23 70.018 161.328 70.522 161.328 71.138V74.834C161.328 75.0487 161.277 75.212 161.174 75.324C161.072 75.436 160.922 75.492 160.726 75.492C160.54 75.492 160.39 75.436 160.278 75.324C160.176 75.212 160.124 75.0487 160.124 74.834V73.84H160.25C160.176 74.1854 160.036 74.484 159.83 74.736C159.625 74.988 159.368 75.184 159.06 75.324C158.762 75.4547 158.421 75.52 158.038 75.52ZM166.399 78.04C165.895 78.04 165.405 77.984 164.929 77.872C164.463 77.76 164.038 77.5874 163.655 77.354C163.534 77.2794 163.45 77.1907 163.403 77.088C163.366 76.9947 163.357 76.8967 163.375 76.794C163.403 76.6914 163.45 76.598 163.515 76.514C163.59 76.4394 163.674 76.388 163.767 76.36C163.87 76.3414 163.973 76.3647 164.075 76.43C164.486 76.6634 164.878 76.822 165.251 76.906C165.625 76.99 165.979 77.032 166.315 77.032C166.978 77.032 167.473 76.8594 167.799 76.514C168.135 76.178 168.303 75.6834 168.303 75.03V73.518H168.429C168.299 74.0407 168.005 74.456 167.547 74.764C167.099 75.072 166.577 75.226 165.979 75.226C165.363 75.226 164.827 75.086 164.369 74.806C163.912 74.5167 163.557 74.12 163.305 73.616C163.053 73.1027 162.927 72.51 162.927 71.838C162.927 71.3247 162.997 70.8627 163.137 70.452C163.287 70.032 163.492 69.6774 163.753 69.388C164.024 69.0894 164.346 68.8607 164.719 68.702C165.093 68.534 165.513 68.45 165.979 68.45C166.586 68.45 167.113 68.604 167.561 68.912C168.009 69.22 168.299 69.6354 168.429 70.158L168.275 70.354V69.122C168.275 68.9074 168.331 68.7487 168.443 68.646C168.555 68.534 168.714 68.478 168.919 68.478C169.115 68.478 169.269 68.534 169.381 68.646C169.493 68.7487 169.549 68.9074 169.549 69.122V74.862C169.549 75.9167 169.279 76.71 168.737 77.242C168.205 77.774 167.426 78.04 166.399 78.04ZM166.259 74.218C166.679 74.218 167.039 74.1247 167.337 73.938C167.645 73.742 167.879 73.4667 168.037 73.112C168.205 72.748 168.289 72.3234 168.289 71.838C168.289 71.1007 168.107 70.522 167.743 70.102C167.379 69.6727 166.885 69.458 166.259 69.458C165.839 69.458 165.475 69.556 165.167 69.752C164.869 69.9387 164.635 70.2094 164.467 70.564C164.299 70.9187 164.215 71.3434 164.215 71.838C164.215 72.566 164.397 73.1447 164.761 73.574C165.135 74.0034 165.634 74.218 166.259 74.218ZM172.221 75.464C172.025 75.464 171.871 75.4034 171.759 75.282C171.647 75.1607 171.591 74.9927 171.591 74.778V69.192C171.591 68.968 171.647 68.8 171.759 68.688C171.871 68.5667 172.025 68.506 172.221 68.506C172.426 68.506 172.585 68.5667 172.697 68.688C172.809 68.8 172.865 68.968 172.865 69.192V74.778C172.865 74.9927 172.809 75.1607 172.697 75.282C172.594 75.4034 172.436 75.464 172.221 75.464ZM172.221 66.994C171.969 66.994 171.768 66.9287 171.619 66.798C171.479 66.658 171.409 66.476 171.409 66.252C171.409 66.0094 171.479 65.8274 171.619 65.706C171.768 65.5754 171.969 65.51 172.221 65.51C172.492 65.51 172.692 65.5754 172.823 65.706C172.963 65.8274 173.033 66.0094 173.033 66.252C173.033 66.476 172.963 66.658 172.823 66.798C172.692 66.9287 172.492 66.994 172.221 66.994ZM175.543 75.492C175.347 75.492 175.193 75.436 175.081 75.324C174.969 75.212 174.913 75.0487 174.913 74.834V69.122C174.913 68.9074 174.969 68.7487 175.081 68.646C175.193 68.534 175.347 68.478 175.543 68.478C175.739 68.478 175.889 68.534 175.991 68.646C176.103 68.7487 176.159 68.9074 176.159 69.122V70.27L176.005 70.06C176.201 69.528 176.519 69.1267 176.957 68.856C177.405 68.5854 177.914 68.45 178.483 68.45C179.034 68.45 179.487 68.548 179.841 68.744C180.196 68.94 180.462 69.2387 180.639 69.64C180.817 70.0414 180.905 70.55 180.905 71.166V74.834C180.905 75.0487 180.849 75.212 180.737 75.324C180.635 75.436 180.481 75.492 180.275 75.492C180.07 75.492 179.911 75.436 179.799 75.324C179.687 75.212 179.631 75.0487 179.631 74.834V71.236C179.631 70.6294 179.515 70.186 179.281 69.906C179.048 69.626 178.675 69.486 178.161 69.486C177.564 69.486 177.083 69.6727 176.719 70.046C176.365 70.41 176.187 70.9047 176.187 71.53V74.834C176.187 75.2727 175.973 75.492 175.543 75.492ZM185.991 78.04C185.487 78.04 184.997 77.984 184.521 77.872C184.054 77.76 183.63 77.5874 183.247 77.354C183.126 77.2794 183.042 77.1907 182.995 77.088C182.958 76.9947 182.948 76.8967 182.967 76.794C182.995 76.6914 183.042 76.598 183.107 76.514C183.182 76.4394 183.266 76.388 183.359 76.36C183.462 76.3414 183.564 76.3647 183.667 76.43C184.078 76.6634 184.47 76.822 184.843 76.906C185.216 76.99 185.571 77.032 185.907 77.032C186.57 77.032 187.064 76.8594 187.391 76.514C187.727 76.178 187.895 75.6834 187.895 75.03V73.518H188.021C187.89 74.0407 187.596 74.456 187.139 74.764C186.691 75.072 186.168 75.226 185.571 75.226C184.955 75.226 184.418 75.086 183.961 74.806C183.504 74.5167 183.149 74.12 182.897 73.616C182.645 73.1027 182.519 72.51 182.519 71.838C182.519 71.3247 182.589 70.8627 182.729 70.452C182.878 70.032 183.084 69.6774 183.345 69.388C183.616 69.0894 183.938 68.8607 184.311 68.702C184.684 68.534 185.104 68.45 185.571 68.45C186.178 68.45 186.705 68.604 187.153 68.912C187.601 69.22 187.89 69.6354 188.021 70.158L187.867 70.354V69.122C187.867 68.9074 187.923 68.7487 188.035 68.646C188.147 68.534 188.306 68.478 188.511 68.478C188.707 68.478 188.861 68.534 188.973 68.646C189.085 68.7487 189.141 68.9074 189.141 69.122V74.862C189.141 75.9167 188.87 76.71 188.329 77.242C187.797 77.774 187.018 78.04 185.991 78.04ZM185.851 74.218C186.271 74.218 186.63 74.1247 186.929 73.938C187.237 73.742 187.47 73.4667 187.629 73.112C187.797 72.748 187.881 72.3234 187.881 71.838C187.881 71.1007 187.699 70.522 187.335 70.102C186.971 69.6727 186.476 69.458 185.851 69.458C185.431 69.458 185.067 69.556 184.759 69.752C184.46 69.9387 184.227 70.2094 184.059 70.564C183.891 70.9187 183.807 71.3434 183.807 71.838C183.807 72.566 183.989 73.1447 184.353 73.574C184.726 74.0034 185.226 74.218 185.851 74.218ZM196.975 75.52C196.275 75.52 195.743 75.3147 195.379 74.904C195.015 74.484 194.833 73.882 194.833 73.098V66.07C194.833 65.8554 194.889 65.6967 195.001 65.594C195.113 65.482 195.267 65.426 195.463 65.426C195.669 65.426 195.827 65.482 195.939 65.594C196.051 65.6967 196.107 65.8554 196.107 66.07V73C196.107 73.4854 196.205 73.8494 196.401 74.092C196.607 74.3254 196.896 74.442 197.269 74.442C197.353 74.442 197.428 74.442 197.493 74.442C197.559 74.4327 197.624 74.4234 197.689 74.414C197.792 74.4047 197.867 74.4327 197.913 74.498C197.96 74.5634 197.983 74.694 197.983 74.89C197.983 75.0674 197.941 75.2074 197.857 75.31C197.783 75.4034 197.657 75.464 197.479 75.492C197.395 75.5014 197.311 75.506 197.227 75.506C197.143 75.5154 197.059 75.52 196.975 75.52ZM202.126 75.52C201.389 75.52 200.754 75.38 200.222 75.1C199.699 74.8107 199.293 74.4047 199.004 73.882C198.715 73.35 198.57 72.7247 198.57 72.006C198.57 71.2967 198.71 70.676 198.99 70.144C199.279 69.612 199.671 69.1967 200.166 68.898C200.67 68.5994 201.244 68.45 201.888 68.45C202.345 68.45 202.756 68.5294 203.12 68.688C203.493 68.8374 203.811 69.0567 204.072 69.346C204.333 69.6354 204.529 69.99 204.66 70.41C204.8 70.8207 204.87 71.2874 204.87 71.81C204.87 71.9594 204.823 72.076 204.73 72.16C204.646 72.2347 204.52 72.272 204.352 72.272H199.564V71.46H204.03L203.792 71.656C203.792 71.1707 203.717 70.76 203.568 70.424C203.428 70.0787 203.218 69.8174 202.938 69.64C202.667 69.4627 202.327 69.374 201.916 69.374C201.468 69.374 201.085 69.4814 200.768 69.696C200.451 69.9014 200.208 70.1954 200.04 70.578C199.872 70.9514 199.788 71.3854 199.788 71.88V71.964C199.788 72.804 199.989 73.4387 200.39 73.868C200.791 74.2974 201.37 74.512 202.126 74.512C202.425 74.512 202.728 74.4747 203.036 74.4C203.353 74.3254 203.657 74.19 203.946 73.994C204.086 73.91 204.212 73.8727 204.324 73.882C204.445 73.882 204.543 73.9194 204.618 73.994C204.693 74.0594 204.739 74.1434 204.758 74.246C204.777 74.3394 204.763 74.442 204.716 74.554C204.669 74.666 204.581 74.764 204.45 74.848C204.142 75.0627 203.773 75.2307 203.344 75.352C202.924 75.464 202.518 75.52 202.126 75.52ZM208.624 75.52C208.158 75.52 207.733 75.4267 207.35 75.24C206.977 75.0534 206.683 74.8014 206.468 74.484C206.263 74.1667 206.16 73.812 206.16 73.42C206.16 72.916 206.286 72.5194 206.538 72.23C206.79 71.9407 207.215 71.7354 207.812 71.614C208.41 71.4834 209.212 71.418 210.22 71.418H210.878V72.23H210.248C209.53 72.23 208.96 72.2627 208.54 72.328C208.13 72.3934 207.84 72.51 207.672 72.678C207.504 72.8367 207.42 73.0607 207.42 73.35C207.42 73.714 207.546 74.0127 207.798 74.246C208.06 74.4794 208.414 74.596 208.862 74.596C209.217 74.596 209.53 74.512 209.8 74.344C210.071 74.1667 210.286 73.9334 210.444 73.644C210.603 73.3454 210.682 73.0047 210.682 72.622V71.012C210.682 70.4614 210.57 70.0647 210.346 69.822C210.122 69.57 209.744 69.444 209.212 69.444C208.904 69.444 208.587 69.486 208.26 69.57C207.934 69.654 207.593 69.7847 207.238 69.962C207.098 70.0274 206.977 70.0507 206.874 70.032C206.772 70.004 206.688 69.948 206.622 69.864C206.566 69.7707 206.534 69.6727 206.524 69.57C206.524 69.458 206.548 69.3507 206.594 69.248C206.65 69.1454 206.744 69.0707 206.874 69.024C207.285 68.8187 207.691 68.674 208.092 68.59C208.503 68.4967 208.886 68.45 209.24 68.45C209.847 68.45 210.346 68.548 210.738 68.744C211.13 68.9307 211.424 69.2247 211.62 69.626C211.816 70.018 211.914 70.522 211.914 71.138V74.834C211.914 75.0487 211.863 75.212 211.76 75.324C211.658 75.436 211.508 75.492 211.312 75.492C211.126 75.492 210.976 75.436 210.864 75.324C210.762 75.212 210.71 75.0487 210.71 74.834V73.84H210.836C210.762 74.1854 210.622 74.484 210.416 74.736C210.211 74.988 209.954 75.184 209.646 75.324C209.348 75.4547 209.007 75.52 208.624 75.52ZM214.577 75.492C214.363 75.492 214.199 75.436 214.087 75.324C213.975 75.212 213.919 75.0487 213.919 74.834V69.122C213.919 68.9074 213.975 68.7487 214.087 68.646C214.199 68.534 214.353 68.478 214.549 68.478C214.745 68.478 214.895 68.534 214.997 68.646C215.109 68.7487 215.165 68.9074 215.165 69.122V70.2H215.025C215.175 69.64 215.455 69.2154 215.865 68.926C216.276 68.6367 216.794 68.4734 217.419 68.436C217.569 68.4267 217.69 68.464 217.783 68.548C217.877 68.6227 217.928 68.7534 217.937 68.94C217.947 69.1174 217.905 69.262 217.811 69.374C217.718 69.4767 217.573 69.5374 217.377 69.556L217.125 69.57C216.509 69.6354 216.033 69.836 215.697 70.172C215.371 70.508 215.207 70.97 215.207 71.558V74.834C215.207 75.0487 215.151 75.212 215.039 75.324C214.937 75.436 214.783 75.492 214.577 75.492ZM219.662 75.492C219.466 75.492 219.312 75.436 219.2 75.324C219.088 75.212 219.032 75.0487 219.032 74.834V69.122C219.032 68.9074 219.088 68.7487 219.2 68.646C219.312 68.534 219.466 68.478 219.662 68.478C219.858 68.478 220.008 68.534 220.11 68.646C220.222 68.7487 220.278 68.9074 220.278 69.122V70.27L220.124 70.06C220.32 69.528 220.638 69.1267 221.076 68.856C221.524 68.5854 222.033 68.45 222.602 68.45C223.153 68.45 223.606 68.548 223.96 68.744C224.315 68.94 224.581 69.2387 224.758 69.64C224.936 70.0414 225.024 70.55 225.024 71.166V74.834C225.024 75.0487 224.968 75.212 224.856 75.324C224.754 75.436 224.6 75.492 224.394 75.492C224.189 75.492 224.03 75.436 223.918 75.324C223.806 75.212 223.75 75.0487 223.75 74.834V71.236C223.75 70.6294 223.634 70.186 223.4 69.906C223.167 69.626 222.794 69.486 222.28 69.486C221.683 69.486 221.202 69.6727 220.838 70.046C220.484 70.41 220.306 70.9047 220.306 71.53V74.834C220.306 75.2727 220.092 75.492 219.662 75.492ZM227.674 75.464C227.478 75.464 227.324 75.4034 227.212 75.282C227.1 75.1607 227.044 74.9927 227.044 74.778V69.192C227.044 68.968 227.1 68.8 227.212 68.688C227.324 68.5667 227.478 68.506 227.674 68.506C227.88 68.506 228.038 68.5667 228.15 68.688C228.262 68.8 228.318 68.968 228.318 69.192V74.778C228.318 74.9927 228.262 75.1607 228.15 75.282C228.048 75.4034 227.889 75.464 227.674 75.464ZM227.674 66.994C227.422 66.994 227.222 66.9287 227.072 66.798C226.932 66.658 226.862 66.476 226.862 66.252C226.862 66.0094 226.932 65.8274 227.072 65.706C227.222 65.5754 227.422 65.51 227.674 65.51C227.945 65.51 228.146 65.5754 228.276 65.706C228.416 65.8274 228.486 66.0094 228.486 66.252C228.486 66.476 228.416 66.658 228.276 66.798C228.146 66.9287 227.945 66.994 227.674 66.994ZM230.996 75.492C230.8 75.492 230.646 75.436 230.534 75.324C230.422 75.212 230.366 75.0487 230.366 74.834V69.122C230.366 68.9074 230.422 68.7487 230.534 68.646C230.646 68.534 230.8 68.478 230.996 68.478C231.192 68.478 231.342 68.534 231.444 68.646C231.556 68.7487 231.612 68.9074 231.612 69.122V70.27L231.458 70.06C231.654 69.528 231.972 69.1267 232.41 68.856C232.858 68.5854 233.367 68.45 233.936 68.45C234.487 68.45 234.94 68.548 235.294 68.744C235.649 68.94 235.915 69.2387 236.092 69.64C236.27 70.0414 236.358 70.55 236.358 71.166V74.834C236.358 75.0487 236.302 75.212 236.19 75.324C236.088 75.436 235.934 75.492 235.728 75.492C235.523 75.492 235.364 75.436 235.252 75.324C235.14 75.212 235.084 75.0487 235.084 74.834V71.236C235.084 70.6294 234.968 70.186 234.734 69.906C234.501 69.626 234.128 69.486 233.614 69.486C233.017 69.486 232.536 69.6727 232.172 70.046C231.818 70.41 231.64 70.9047 231.64 71.53V74.834C231.64 75.2727 231.426 75.492 230.996 75.492ZM241.444 78.04C240.94 78.04 240.45 77.984 239.974 77.872C239.508 77.76 239.083 77.5874 238.7 77.354C238.579 77.2794 238.495 77.1907 238.448 77.088C238.411 76.9947 238.402 76.8967 238.42 76.794C238.448 76.6914 238.495 76.598 238.56 76.514C238.635 76.4394 238.719 76.388 238.812 76.36C238.915 76.3414 239.018 76.3647 239.12 76.43C239.531 76.6634 239.923 76.822 240.296 76.906C240.67 76.99 241.024 77.032 241.36 77.032C242.023 77.032 242.518 76.8594 242.844 76.514C243.18 76.178 243.348 75.6834 243.348 75.03V73.518H243.474C243.344 74.0407 243.05 74.456 242.592 74.764C242.144 75.072 241.622 75.226 241.024 75.226C240.408 75.226 239.872 75.086 239.414 74.806C238.957 74.5167 238.602 74.12 238.35 73.616C238.098 73.1027 237.972 72.51 237.972 71.838C237.972 71.3247 238.042 70.8627 238.182 70.452C238.332 70.032 238.537 69.6774 238.798 69.388C239.069 69.0894 239.391 68.8607 239.764 68.702C240.138 68.534 240.558 68.45 241.024 68.45C241.631 68.45 242.158 68.604 242.606 68.912C243.054 69.22 243.344 69.6354 243.474 70.158L243.32 70.354V69.122C243.32 68.9074 243.376 68.7487 243.488 68.646C243.6 68.534 243.759 68.478 243.964 68.478C244.16 68.478 244.314 68.534 244.426 68.646C244.538 68.7487 244.594 68.9074 244.594 69.122V74.862C244.594 75.9167 244.324 76.71 243.782 77.242C243.25 77.774 242.471 78.04 241.444 78.04ZM241.304 74.218C241.724 74.218 242.084 74.1247 242.382 73.938C242.69 73.742 242.924 73.4667 243.082 73.112C243.25 72.748 243.334 72.3234 243.334 71.838C243.334 71.1007 243.152 70.522 242.788 70.102C242.424 69.6727 241.93 69.458 241.304 69.458C240.884 69.458 240.52 69.556 240.212 69.752C239.914 69.9387 239.68 70.2094 239.512 70.564C239.344 70.9187 239.26 71.3434 239.26 71.838C239.26 72.566 239.442 73.1447 239.806 73.574C240.18 74.0034 240.679 74.218 241.304 74.218ZM47.2509 96.52C46.5135 96.52 45.8789 96.38 45.3469 96.1C44.8242 95.8107 44.4182 95.4047 44.1289 94.882C43.8395 94.35 43.6949 93.7247 43.6949 93.006C43.6949 92.2967 43.8349 91.676 44.1149 91.144C44.4042 90.612 44.7962 90.1967 45.2909 89.898C45.7949 89.5994 46.3689 89.45 47.0129 89.45C47.4702 89.45 47.8809 89.5294 48.2449 89.688C48.6182 89.8374 48.9355 90.0567 49.1969 90.346C49.4582 90.6354 49.6542 90.99 49.7849 91.41C49.9249 91.8207 49.9949 92.2874 49.9949 92.81C49.9949 92.9594 49.9482 93.076 49.8549 93.16C49.7709 93.2347 49.6449 93.272 49.4769 93.272H44.6889V92.46H49.1549L48.9169 92.656C48.9169 92.1707 48.8422 91.76 48.6929 91.424C48.5529 91.0787 48.3429 90.8174 48.0629 90.64C47.7922 90.4627 47.4515 90.374 47.0409 90.374C46.5929 90.374 46.2102 90.4814 45.8929 90.696C45.5755 90.9014 45.3329 91.1954 45.1649 91.578C44.9969 91.9514 44.9129 92.3854 44.9129 92.88V92.964C44.9129 93.804 45.1135 94.4387 45.5149 94.868C45.9162 95.2974 46.4949 95.512 47.2509 95.512C47.5495 95.512 47.8529 95.4747 48.1609 95.4C48.4782 95.3254 48.7815 95.19 49.0709 94.994C49.2109 94.91 49.3369 94.8727 49.4489 94.882C49.5702 94.882 49.6682 94.9194 49.7429 94.994C49.8175 95.0594 49.8642 95.1434 49.8829 95.246C49.9015 95.3394 49.8875 95.442 49.8409 95.554C49.7942 95.666 49.7055 95.764 49.5749 95.848C49.2669 96.0627 48.8982 96.2307 48.4689 96.352C48.0489 96.464 47.6429 96.52 47.2509 96.52ZM52.2094 96.492C52.0134 96.492 51.8594 96.436 51.7474 96.324C51.6354 96.212 51.5794 96.0487 51.5794 95.834V90.122C51.5794 89.9074 51.6354 89.7487 51.7474 89.646C51.8594 89.534 52.0134 89.478 52.2094 89.478C52.4054 89.478 52.5547 89.534 52.6574 89.646C52.7694 89.7487 52.8254 89.9074 52.8254 90.122V91.27L52.6714 91.06C52.8674 90.528 53.1847 90.1267 53.6234 89.856C54.0714 89.5854 54.58 89.45 55.1494 89.45C55.7 89.45 56.1527 89.548 56.5074 89.744C56.862 89.94 57.128 90.2387 57.3054 90.64C57.4827 91.0414 57.5714 91.55 57.5714 92.166V95.834C57.5714 96.0487 57.5154 96.212 57.4034 96.324C57.3007 96.436 57.1467 96.492 56.9414 96.492C56.736 96.492 56.5774 96.436 56.4654 96.324C56.3534 96.212 56.2974 96.0487 56.2974 95.834V92.236C56.2974 91.6294 56.1807 91.186 55.9474 90.906C55.714 90.626 55.3407 90.486 54.8274 90.486C54.23 90.486 53.7494 90.6727 53.3854 91.046C53.0307 91.41 52.8534 91.9047 52.8534 92.53V95.834C52.8534 96.2727 52.6387 96.492 52.2094 96.492ZM62.1127 96.492C61.9354 96.492 61.7814 96.4454 61.6507 96.352C61.5201 96.2587 61.4081 96.1094 61.3147 95.904L58.9347 90.36C58.8694 90.2014 58.8461 90.0567 58.8647 89.926C58.8834 89.7954 58.9441 89.688 59.0467 89.604C59.1587 89.52 59.3081 89.478 59.4947 89.478C59.6534 89.478 59.7794 89.5154 59.8727 89.59C59.9661 89.6647 60.0547 89.7954 60.1387 89.982L62.3367 95.4H61.9447L64.1987 89.982C64.2734 89.7954 64.3574 89.6647 64.4507 89.59C64.5534 89.5154 64.6934 89.478 64.8707 89.478C65.0294 89.478 65.1507 89.52 65.2347 89.604C65.3281 89.688 65.3841 89.7954 65.4027 89.926C65.4214 90.0567 65.3934 90.1967 65.3187 90.346L62.9247 95.904C62.8407 96.1094 62.7287 96.2587 62.5887 96.352C62.4581 96.4454 62.2994 96.492 62.1127 96.492ZM67.3988 96.464C67.2028 96.464 67.0488 96.4034 66.9368 96.282C66.8248 96.1607 66.7688 95.9927 66.7688 95.778V90.192C66.7688 89.968 66.8248 89.8 66.9368 89.688C67.0488 89.5667 67.2028 89.506 67.3988 89.506C67.6042 89.506 67.7628 89.5667 67.8748 89.688C67.9868 89.8 68.0428 89.968 68.0428 90.192V95.778C68.0428 95.9927 67.9868 96.1607 67.8748 96.282C67.7722 96.4034 67.6135 96.464 67.3988 96.464ZM67.3988 87.994C67.1468 87.994 66.9462 87.9287 66.7968 87.798C66.6568 87.658 66.5868 87.476 66.5868 87.252C66.5868 87.0094 66.6568 86.8274 66.7968 86.706C66.9462 86.5754 67.1468 86.51 67.3988 86.51C67.6695 86.51 67.8702 86.5754 68.0008 86.706C68.1408 86.8274 68.2108 87.0094 68.2108 87.252C68.2108 87.476 68.1408 87.658 68.0008 87.798C67.8702 87.9287 67.6695 87.994 67.3988 87.994ZM70.7491 96.492C70.5344 96.492 70.3711 96.436 70.2591 96.324C70.1471 96.212 70.0911 96.0487 70.0911 95.834V90.122C70.0911 89.9074 70.1471 89.7487 70.2591 89.646C70.3711 89.534 70.5251 89.478 70.7211 89.478C70.9171 89.478 71.0664 89.534 71.1691 89.646C71.2811 89.7487 71.3371 89.9074 71.3371 90.122V91.2H71.1971C71.3464 90.64 71.6264 90.2154 72.0371 89.926C72.4478 89.6367 72.9658 89.4734 73.5911 89.436C73.7404 89.4267 73.8618 89.464 73.9551 89.548C74.0484 89.6227 74.0998 89.7534 74.1091 89.94C74.1184 90.1174 74.0764 90.262 73.9831 90.374C73.8898 90.4767 73.7451 90.5374 73.5491 90.556L73.2971 90.57C72.6811 90.6354 72.2051 90.836 71.8691 91.172C71.5424 91.508 71.3791 91.97 71.3791 92.558V95.834C71.3791 96.0487 71.3231 96.212 71.2111 96.324C71.1084 96.436 70.9544 96.492 70.7491 96.492ZM78.0067 96.52C77.3347 96.52 76.7513 96.3754 76.2567 96.086C75.762 95.7967 75.3793 95.386 75.1087 94.854C74.838 94.322 74.7027 93.6967 74.7027 92.978C74.7027 92.4367 74.7773 91.9514 74.9267 91.522C75.0853 91.0834 75.3093 90.71 75.5987 90.402C75.888 90.094 76.2333 89.8607 76.6347 89.702C77.0453 89.534 77.5027 89.45 78.0067 89.45C78.6787 89.45 79.262 89.5947 79.7567 89.884C80.2513 90.1734 80.634 90.584 80.9047 91.116C81.1753 91.6387 81.3107 92.2594 81.3107 92.978C81.3107 93.5194 81.2313 94.0094 81.0727 94.448C80.9233 94.8867 80.704 95.26 80.4147 95.568C80.1253 95.876 79.7753 96.114 79.3647 96.282C78.9633 96.4407 78.5107 96.52 78.0067 96.52ZM78.0067 95.512C78.4173 95.512 78.772 95.414 79.0707 95.218C79.3787 95.022 79.612 94.7374 79.7707 94.364C79.9387 93.9907 80.0227 93.5287 80.0227 92.978C80.0227 92.1567 79.8407 91.5314 79.4767 91.102C79.1127 90.6727 78.6227 90.458 78.0067 90.458C77.6053 90.458 77.2507 90.556 76.9427 90.752C76.644 90.9387 76.4107 91.2187 76.2427 91.592C76.0747 91.9654 75.9907 92.4274 75.9907 92.978C75.9907 93.7994 76.1727 94.4294 76.5367 94.868C76.91 95.2974 77.4 95.512 78.0067 95.512ZM83.5727 96.492C83.3767 96.492 83.2227 96.436 83.1107 96.324C82.9987 96.212 82.9427 96.0487 82.9427 95.834V90.122C82.9427 89.9074 82.9987 89.7487 83.1107 89.646C83.2227 89.534 83.3767 89.478 83.5727 89.478C83.7687 89.478 83.918 89.534 84.0207 89.646C84.1327 89.7487 84.1887 89.9074 84.1887 90.122V91.27L84.0347 91.06C84.2307 90.528 84.548 90.1267 84.9867 89.856C85.4347 89.5854 85.9433 89.45 86.5127 89.45C87.0633 89.45 87.516 89.548 87.8707 89.744C88.2253 89.94 88.4913 90.2387 88.6687 90.64C88.846 91.0414 88.9347 91.55 88.9347 92.166V95.834C88.9347 96.0487 88.8787 96.212 88.7667 96.324C88.664 96.436 88.51 96.492 88.3047 96.492C88.0993 96.492 87.9407 96.436 87.8287 96.324C87.7167 96.212 87.6607 96.0487 87.6607 95.834V92.236C87.6607 91.6294 87.544 91.186 87.3107 90.906C87.0773 90.626 86.704 90.486 86.1907 90.486C85.5933 90.486 85.1127 90.6727 84.7487 91.046C84.394 91.41 84.2167 91.9047 84.2167 92.53V95.834C84.2167 96.2727 84.002 96.492 83.5727 96.492ZM91.6124 96.492C91.4164 96.492 91.2624 96.436 91.1504 96.324C91.0384 96.212 90.9824 96.0487 90.9824 95.834V90.122C90.9824 89.9074 91.0384 89.7487 91.1504 89.646C91.2624 89.534 91.4164 89.478 91.6124 89.478C91.8084 89.478 91.9577 89.534 92.0604 89.646C92.1724 89.7487 92.2284 89.9074 92.2284 90.122V91.312L92.0744 91.06C92.2517 90.5467 92.5364 90.15 92.9284 89.87C93.3297 89.59 93.8057 89.45 94.3564 89.45C94.935 89.45 95.4017 89.59 95.7564 89.87C96.111 90.1407 96.349 90.556 96.4704 91.116H96.2744C96.4424 90.6027 96.741 90.1967 97.1704 89.898C97.609 89.5994 98.1177 89.45 98.6964 89.45C99.2097 89.45 99.6297 89.5527 99.9564 89.758C100.292 89.954 100.544 90.2527 100.712 90.654C100.88 91.046 100.964 91.55 100.964 92.166V95.834C100.964 96.0487 100.908 96.212 100.796 96.324C100.684 96.436 100.53 96.492 100.334 96.492C100.129 96.492 99.9704 96.436 99.8584 96.324C99.7464 96.212 99.6904 96.0487 99.6904 95.834V92.222C99.6904 91.6247 99.5877 91.186 99.3824 90.906C99.177 90.626 98.8317 90.486 98.3464 90.486C97.8144 90.486 97.3897 90.6727 97.0724 91.046C96.7644 91.41 96.6104 91.914 96.6104 92.558V95.834C96.6104 96.0487 96.5544 96.212 96.4424 96.324C96.3397 96.436 96.1857 96.492 95.9804 96.492C95.775 96.492 95.6164 96.436 95.5044 96.324C95.3924 96.212 95.3364 96.0487 95.3364 95.834V92.222C95.3364 91.6247 95.2337 91.186 95.0284 90.906C94.823 90.626 94.4777 90.486 93.9924 90.486C93.4604 90.486 93.0357 90.6727 92.7184 91.046C92.4104 91.41 92.2564 91.914 92.2564 92.558V95.834C92.2564 96.2727 92.0417 96.492 91.6124 96.492ZM106.163 96.52C105.426 96.52 104.791 96.38 104.259 96.1C103.736 95.8107 103.33 95.4047 103.041 94.882C102.752 94.35 102.607 93.7247 102.607 93.006C102.607 92.2967 102.747 91.676 103.027 91.144C103.316 90.612 103.708 90.1967 104.203 89.898C104.707 89.5994 105.281 89.45 105.925 89.45C106.382 89.45 106.793 89.5294 107.157 89.688C107.53 89.8374 107.848 90.0567 108.109 90.346C108.37 90.6354 108.566 90.99 108.697 91.41C108.837 91.8207 108.907 92.2874 108.907 92.81C108.907 92.9594 108.86 93.076 108.767 93.16C108.683 93.2347 108.557 93.272 108.389 93.272H103.601V92.46H108.067L107.829 92.656C107.829 92.1707 107.754 91.76 107.605 91.424C107.465 91.0787 107.255 90.8174 106.975 90.64C106.704 90.4627 106.364 90.374 105.953 90.374C105.505 90.374 105.122 90.4814 104.805 90.696C104.488 90.9014 104.245 91.1954 104.077 91.578C103.909 91.9514 103.825 92.3854 103.825 92.88V92.964C103.825 93.804 104.026 94.4387 104.427 94.868C104.828 95.2974 105.407 95.512 106.163 95.512C106.462 95.512 106.765 95.4747 107.073 95.4C107.39 95.3254 107.694 95.19 107.983 94.994C108.123 94.91 108.249 94.8727 108.361 94.882C108.482 94.882 108.58 94.9194 108.655 94.994C108.73 95.0594 108.776 95.1434 108.795 95.246C108.814 95.3394 108.8 95.442 108.753 95.554C108.706 95.666 108.618 95.764 108.487 95.848C108.179 96.0627 107.81 96.2307 107.381 96.352C106.961 96.464 106.555 96.52 106.163 96.52ZM111.121 96.492C110.925 96.492 110.771 96.436 110.659 96.324C110.547 96.212 110.491 96.0487 110.491 95.834V90.122C110.491 89.9074 110.547 89.7487 110.659 89.646C110.771 89.534 110.925 89.478 111.121 89.478C111.317 89.478 111.467 89.534 111.569 89.646C111.681 89.7487 111.737 89.9074 111.737 90.122V91.27L111.583 91.06C111.779 90.528 112.097 90.1267 112.535 89.856C112.983 89.5854 113.492 89.45 114.061 89.45C114.612 89.45 115.065 89.548 115.419 89.744C115.774 89.94 116.04 90.2387 116.217 90.64C116.395 91.0414 116.483 91.55 116.483 92.166V95.834C116.483 96.0487 116.427 96.212 116.315 96.324C116.213 96.436 116.059 96.492 115.853 96.492C115.648 96.492 115.489 96.436 115.377 96.324C115.265 96.212 115.209 96.0487 115.209 95.834V92.236C115.209 91.6294 115.093 91.186 114.859 90.906C114.626 90.626 114.253 90.486 113.739 90.486C113.142 90.486 112.661 90.6727 112.297 91.046C111.943 91.41 111.765 91.9047 111.765 92.53V95.834C111.765 96.2727 111.551 96.492 111.121 96.492ZM121.331 96.52C120.781 96.52 120.319 96.422 119.945 96.226C119.581 96.03 119.306 95.7454 119.119 95.372C118.942 94.9987 118.853 94.5414 118.853 94V90.556H117.957C117.789 90.556 117.659 90.514 117.565 90.43C117.472 90.3367 117.425 90.2154 117.425 90.066C117.425 89.9074 117.472 89.786 117.565 89.702C117.659 89.618 117.789 89.576 117.957 89.576H118.853V88.05C118.853 87.8354 118.909 87.6767 119.021 87.574C119.133 87.462 119.292 87.406 119.497 87.406C119.703 87.406 119.857 87.462 119.959 87.574C120.071 87.6767 120.127 87.8354 120.127 88.05V89.576H121.821C121.999 89.576 122.134 89.618 122.227 89.702C122.321 89.786 122.367 89.9074 122.367 90.066C122.367 90.2154 122.321 90.3367 122.227 90.43C122.134 90.514 121.999 90.556 121.821 90.556H120.127V93.888C120.127 94.4014 120.235 94.7887 120.449 95.05C120.664 95.3114 121.019 95.442 121.513 95.442C121.691 95.442 121.84 95.428 121.961 95.4C122.083 95.3627 122.19 95.344 122.283 95.344C122.367 95.3347 122.437 95.3627 122.493 95.428C122.559 95.4934 122.591 95.6147 122.591 95.792C122.591 95.9227 122.568 96.044 122.521 96.156C122.484 96.2587 122.405 96.3287 122.283 96.366C122.171 96.4034 122.022 96.436 121.835 96.464C121.649 96.5014 121.481 96.52 121.331 96.52ZM125.873 96.52C125.453 96.52 125.028 96.4734 124.599 96.38C124.179 96.2774 123.782 96.1047 123.409 95.862C123.306 95.7967 123.231 95.7174 123.185 95.624C123.147 95.5214 123.133 95.4234 123.143 95.33C123.161 95.2274 123.203 95.1387 123.269 95.064C123.334 94.9894 123.413 94.9474 123.507 94.938C123.609 94.9194 123.717 94.9427 123.829 95.008C124.193 95.2134 124.543 95.358 124.879 95.442C125.224 95.526 125.565 95.568 125.901 95.568C126.414 95.568 126.801 95.4747 127.063 95.288C127.324 95.1014 127.455 94.854 127.455 94.546C127.455 94.2847 127.366 94.084 127.189 93.944C127.021 93.7947 126.755 93.6827 126.391 93.608L125.089 93.342C124.51 93.2114 124.071 92.9967 123.773 92.698C123.483 92.39 123.339 91.998 123.339 91.522C123.339 91.102 123.451 90.738 123.675 90.43C123.908 90.1127 124.23 89.87 124.641 89.702C125.051 89.534 125.523 89.45 126.055 89.45C126.465 89.45 126.853 89.506 127.217 89.618C127.59 89.7207 127.926 89.8794 128.225 90.094C128.337 90.1594 128.407 90.2434 128.435 90.346C128.472 90.4394 128.477 90.5374 128.449 90.64C128.43 90.7334 128.388 90.8127 128.323 90.878C128.257 90.9434 128.173 90.9854 128.071 91.004C127.968 91.0134 127.856 90.9854 127.735 90.92C127.464 90.7334 127.184 90.6027 126.895 90.528C126.615 90.444 126.335 90.402 126.055 90.402C125.551 90.402 125.168 90.5 124.907 90.696C124.655 90.892 124.529 91.1487 124.529 91.466C124.529 91.7087 124.603 91.9094 124.753 92.068C124.911 92.2267 125.159 92.3434 125.495 92.418L126.797 92.684C127.403 92.8147 127.861 93.0247 128.169 93.314C128.477 93.594 128.631 93.9767 128.631 94.462C128.631 95.0967 128.379 95.6007 127.875 95.974C127.38 96.338 126.713 96.52 125.873 96.52ZM134.975 96.492C134.769 96.492 134.611 96.436 134.499 96.324C134.387 96.212 134.331 96.0487 134.331 95.834V90.556H133.491C133.323 90.556 133.192 90.514 133.099 90.43C133.005 90.3367 132.959 90.2154 132.959 90.066C132.959 89.9074 133.005 89.786 133.099 89.702C133.192 89.618 133.323 89.576 133.491 89.576H134.681L134.331 89.912V89.394C134.331 88.4887 134.55 87.8027 134.989 87.336C135.437 86.86 136.09 86.5847 136.949 86.51L137.383 86.482C137.523 86.4634 137.635 86.4867 137.719 86.552C137.803 86.608 137.859 86.6827 137.887 86.776C137.915 86.8694 137.915 86.9674 137.887 87.07C137.868 87.1634 137.826 87.2474 137.761 87.322C137.695 87.3967 137.611 87.4387 137.509 87.448L137.201 87.462C136.641 87.5087 136.235 87.6767 135.983 87.966C135.731 88.246 135.605 88.666 135.605 89.226V89.786L135.423 89.576H137.033C137.21 89.576 137.345 89.618 137.439 89.702C137.532 89.786 137.579 89.9074 137.579 90.066C137.579 90.2154 137.532 90.3367 137.439 90.43C137.345 90.514 137.21 90.556 137.033 90.556H135.605V95.834C135.605 96.2727 135.395 96.492 134.975 96.492ZM141.403 96.52C140.731 96.52 140.148 96.3754 139.653 96.086C139.158 95.7967 138.776 95.386 138.505 94.854C138.234 94.322 138.099 93.6967 138.099 92.978C138.099 92.4367 138.174 91.9514 138.323 91.522C138.482 91.0834 138.706 90.71 138.995 90.402C139.284 90.094 139.63 89.8607 140.031 89.702C140.442 89.534 140.899 89.45 141.403 89.45C142.075 89.45 142.658 89.5947 143.153 89.884C143.648 90.1734 144.03 90.584 144.301 91.116C144.572 91.6387 144.707 92.2594 144.707 92.978C144.707 93.5194 144.628 94.0094 144.469 94.448C144.32 94.8867 144.1 95.26 143.811 95.568C143.522 95.876 143.172 96.114 142.761 96.282C142.36 96.4407 141.907 96.52 141.403 96.52ZM141.403 95.512C141.814 95.512 142.168 95.414 142.467 95.218C142.775 95.022 143.008 94.7374 143.167 94.364C143.335 93.9907 143.419 93.5287 143.419 92.978C143.419 92.1567 143.237 91.5314 142.873 91.102C142.509 90.6727 142.019 90.458 141.403 90.458C141.002 90.458 140.647 90.556 140.339 90.752C140.04 90.9387 139.807 91.2187 139.639 91.592C139.471 91.9654 139.387 92.4274 139.387 92.978C139.387 93.7994 139.569 94.4294 139.933 94.868C140.306 95.2974 140.796 95.512 141.403 95.512ZM146.997 96.492C146.782 96.492 146.619 96.436 146.507 96.324C146.395 96.212 146.339 96.0487 146.339 95.834V90.122C146.339 89.9074 146.395 89.7487 146.507 89.646C146.619 89.534 146.773 89.478 146.969 89.478C147.165 89.478 147.314 89.534 147.417 89.646C147.529 89.7487 147.585 89.9074 147.585 90.122V91.2H147.445C147.594 90.64 147.874 90.2154 148.285 89.926C148.696 89.6367 149.214 89.4734 149.839 89.436C149.988 89.4267 150.11 89.464 150.203 89.548C150.296 89.6227 150.348 89.7534 150.357 89.94C150.366 90.1174 150.324 90.262 150.231 90.374C150.138 90.4767 149.993 90.5374 149.797 90.556L149.545 90.57C148.929 90.6354 148.453 90.836 148.117 91.172C147.79 91.508 147.627 91.97 147.627 92.558V95.834C147.627 96.0487 147.571 96.212 147.459 96.324C147.356 96.436 147.202 96.492 146.997 96.492ZM155.761 96.492C155.565 96.492 155.411 96.436 155.299 96.324C155.187 96.212 155.131 96.0487 155.131 95.834V90.122C155.131 89.9074 155.187 89.7487 155.299 89.646C155.411 89.534 155.565 89.478 155.761 89.478C155.957 89.478 156.106 89.534 156.209 89.646C156.321 89.7487 156.377 89.9074 156.377 90.122V91.312L156.223 91.06C156.4 90.5467 156.685 90.15 157.077 89.87C157.478 89.59 157.954 89.45 158.505 89.45C159.083 89.45 159.55 89.59 159.905 89.87C160.259 90.1407 160.497 90.556 160.619 91.116H160.423C160.591 90.6027 160.889 90.1967 161.319 89.898C161.757 89.5994 162.266 89.45 162.845 89.45C163.358 89.45 163.778 89.5527 164.105 89.758C164.441 89.954 164.693 90.2527 164.861 90.654C165.029 91.046 165.113 91.55 165.113 92.166V95.834C165.113 96.0487 165.057 96.212 164.945 96.324C164.833 96.436 164.679 96.492 164.483 96.492C164.277 96.492 164.119 96.436 164.007 96.324C163.895 96.212 163.839 96.0487 163.839 95.834V92.222C163.839 91.6247 163.736 91.186 163.531 90.906C163.325 90.626 162.98 90.486 162.495 90.486C161.963 90.486 161.538 90.6727 161.221 91.046C160.913 91.41 160.759 91.914 160.759 92.558V95.834C160.759 96.0487 160.703 96.212 160.591 96.324C160.488 96.436 160.334 96.492 160.129 96.492C159.923 96.492 159.765 96.436 159.653 96.324C159.541 96.212 159.485 96.0487 159.485 95.834V92.222C159.485 91.6247 159.382 91.186 159.177 90.906C158.971 90.626 158.626 90.486 158.141 90.486C157.609 90.486 157.184 90.6727 156.867 91.046C156.559 91.41 156.405 91.914 156.405 92.558V95.834C156.405 96.2727 156.19 96.492 155.761 96.492ZM169.331 96.52C168.865 96.52 168.44 96.4267 168.057 96.24C167.684 96.0534 167.39 95.8014 167.175 95.484C166.97 95.1667 166.867 94.812 166.867 94.42C166.867 93.916 166.993 93.5194 167.245 93.23C167.497 92.9407 167.922 92.7354 168.519 92.614C169.117 92.4834 169.919 92.418 170.927 92.418H171.585V93.23H170.955C170.237 93.23 169.667 93.2627 169.247 93.328C168.837 93.3934 168.547 93.51 168.379 93.678C168.211 93.8367 168.127 94.0607 168.127 94.35C168.127 94.714 168.253 95.0127 168.505 95.246C168.767 95.4794 169.121 95.596 169.569 95.596C169.924 95.596 170.237 95.512 170.507 95.344C170.778 95.1667 170.993 94.9334 171.151 94.644C171.31 94.3454 171.389 94.0047 171.389 93.622V92.012C171.389 91.4614 171.277 91.0647 171.053 90.822C170.829 90.57 170.451 90.444 169.919 90.444C169.611 90.444 169.294 90.486 168.967 90.57C168.641 90.654 168.3 90.7847 167.945 90.962C167.805 91.0274 167.684 91.0507 167.581 91.032C167.479 91.004 167.395 90.948 167.329 90.864C167.273 90.7707 167.241 90.6727 167.231 90.57C167.231 90.458 167.255 90.3507 167.301 90.248C167.357 90.1454 167.451 90.0707 167.581 90.024C167.992 89.8187 168.398 89.674 168.799 89.59C169.21 89.4967 169.593 89.45 169.947 89.45C170.554 89.45 171.053 89.548 171.445 89.744C171.837 89.9307 172.131 90.2247 172.327 90.626C172.523 91.018 172.621 91.522 172.621 92.138V95.834C172.621 96.0487 172.57 96.212 172.467 96.324C172.365 96.436 172.215 96.492 172.019 96.492C171.833 96.492 171.683 96.436 171.571 96.324C171.469 96.212 171.417 96.0487 171.417 95.834V94.84H171.543C171.469 95.1854 171.329 95.484 171.123 95.736C170.918 95.988 170.661 96.184 170.353 96.324C170.055 96.4547 169.714 96.52 169.331 96.52ZM174.766 96.478C174.626 96.478 174.505 96.436 174.402 96.352C174.3 96.268 174.244 96.156 174.234 96.016C174.234 95.876 174.295 95.7267 174.416 95.568L176.838 92.558V93.188L174.57 90.388C174.44 90.2294 174.379 90.08 174.388 89.94C174.398 89.8 174.449 89.688 174.542 89.604C174.645 89.52 174.771 89.478 174.92 89.478C175.079 89.478 175.21 89.506 175.312 89.562C175.424 89.618 175.527 89.7067 175.62 89.828L177.552 92.278H177.104L179.036 89.828C179.13 89.7067 179.228 89.618 179.33 89.562C179.442 89.506 179.573 89.478 179.722 89.478C179.872 89.478 179.993 89.52 180.086 89.604C180.189 89.688 180.24 89.8 180.24 89.94C180.25 90.08 180.194 90.2294 180.072 90.388L177.818 93.16V92.6L180.226 95.568C180.357 95.7174 180.418 95.862 180.408 96.002C180.399 96.142 180.343 96.2587 180.24 96.352C180.147 96.436 180.026 96.478 179.876 96.478C179.718 96.478 179.582 96.45 179.47 96.394C179.368 96.338 179.27 96.2494 179.176 96.128L177.09 93.51H177.524L175.466 96.128C175.373 96.24 175.27 96.3287 175.158 96.394C175.056 96.45 174.925 96.478 174.766 96.478ZM182.68 96.464C182.484 96.464 182.33 96.4034 182.218 96.282C182.106 96.1607 182.05 95.9927 182.05 95.778V90.192C182.05 89.968 182.106 89.8 182.218 89.688C182.33 89.5667 182.484 89.506 182.68 89.506C182.885 89.506 183.044 89.5667 183.156 89.688C183.268 89.8 183.324 89.968 183.324 90.192V95.778C183.324 95.9927 183.268 96.1607 183.156 96.282C183.053 96.4034 182.895 96.464 182.68 96.464ZM182.68 87.994C182.428 87.994 182.227 87.9287 182.078 87.798C181.938 87.658 181.868 87.476 181.868 87.252C181.868 87.0094 181.938 86.8274 182.078 86.706C182.227 86.5754 182.428 86.51 182.68 86.51C182.951 86.51 183.151 86.5754 183.282 86.706C183.422 86.8274 183.492 87.0094 183.492 87.252C183.492 87.476 183.422 87.658 183.282 87.798C183.151 87.9287 182.951 87.994 182.68 87.994ZM186.03 96.492C185.834 96.492 185.68 96.436 185.568 96.324C185.456 96.212 185.4 96.0487 185.4 95.834V90.122C185.4 89.9074 185.456 89.7487 185.568 89.646C185.68 89.534 185.834 89.478 186.03 89.478C186.226 89.478 186.376 89.534 186.478 89.646C186.59 89.7487 186.646 89.9074 186.646 90.122V91.312L186.492 91.06C186.67 90.5467 186.954 90.15 187.346 89.87C187.748 89.59 188.224 89.45 188.774 89.45C189.353 89.45 189.82 89.59 190.174 89.87C190.529 90.1407 190.767 90.556 190.888 91.116H190.692C190.86 90.6027 191.159 90.1967 191.588 89.898C192.027 89.5994 192.536 89.45 193.114 89.45C193.628 89.45 194.048 89.5527 194.374 89.758C194.71 89.954 194.962 90.2527 195.13 90.654C195.298 91.046 195.382 91.55 195.382 92.166V95.834C195.382 96.0487 195.326 96.212 195.214 96.324C195.102 96.436 194.948 96.492 194.752 96.492C194.547 96.492 194.388 96.436 194.276 96.324C194.164 96.212 194.108 96.0487 194.108 95.834V92.222C194.108 91.6247 194.006 91.186 193.8 90.906C193.595 90.626 193.25 90.486 192.764 90.486C192.232 90.486 191.808 90.6727 191.49 91.046C191.182 91.41 191.028 91.914 191.028 92.558V95.834C191.028 96.0487 190.972 96.212 190.86 96.324C190.758 96.436 190.604 96.492 190.398 96.492C190.193 96.492 190.034 96.436 189.922 96.324C189.81 96.212 189.754 96.0487 189.754 95.834V92.222C189.754 91.6247 189.652 91.186 189.446 90.906C189.241 90.626 188.896 90.486 188.41 90.486C187.878 90.486 187.454 90.6727 187.136 91.046C186.828 91.41 186.674 91.914 186.674 92.558V95.834C186.674 96.2727 186.46 96.492 186.03 96.492ZM199.867 96.52C199.316 96.52 198.854 96.4174 198.481 96.212C198.117 96.0067 197.846 95.7034 197.669 95.302C197.492 94.9007 197.403 94.3967 197.403 93.79V90.122C197.403 89.9074 197.454 89.7487 197.557 89.646C197.669 89.534 197.828 89.478 198.033 89.478C198.238 89.478 198.397 89.534 198.509 89.646C198.621 89.7487 198.677 89.9074 198.677 90.122V93.79C198.677 94.3687 198.794 94.798 199.027 95.078C199.26 95.3487 199.629 95.484 200.133 95.484C200.693 95.484 201.146 95.2974 201.491 94.924C201.846 94.5507 202.023 94.056 202.023 93.44V90.122C202.023 89.9074 202.074 89.7487 202.177 89.646C202.289 89.534 202.448 89.478 202.653 89.478C202.858 89.478 203.017 89.534 203.129 89.646C203.241 89.7487 203.297 89.9074 203.297 90.122V95.834C203.297 96.2727 203.092 96.492 202.681 96.492C202.476 96.492 202.317 96.436 202.205 96.324C202.102 96.212 202.051 96.0487 202.051 95.834V94.616L202.233 94.854C202.046 95.3954 201.743 95.8107 201.323 96.1C200.912 96.38 200.427 96.52 199.867 96.52ZM206.005 96.492C205.809 96.492 205.655 96.436 205.543 96.324C205.431 96.212 205.375 96.0487 205.375 95.834V90.122C205.375 89.9074 205.431 89.7487 205.543 89.646C205.655 89.534 205.809 89.478 206.005 89.478C206.201 89.478 206.35 89.534 206.453 89.646C206.565 89.7487 206.621 89.9074 206.621 90.122V91.312L206.467 91.06C206.644 90.5467 206.929 90.15 207.321 89.87C207.722 89.59 208.198 89.45 208.749 89.45C209.328 89.45 209.794 89.59 210.149 89.87C210.504 90.1407 210.742 90.556 210.863 91.116H210.667C210.835 90.6027 211.134 90.1967 211.563 89.898C212.002 89.5994 212.51 89.45 213.089 89.45C213.602 89.45 214.022 89.5527 214.349 89.758C214.685 89.954 214.937 90.2527 215.105 90.654C215.273 91.046 215.357 91.55 215.357 92.166V95.834C215.357 96.0487 215.301 96.212 215.189 96.324C215.077 96.436 214.923 96.492 214.727 96.492C214.522 96.492 214.363 96.436 214.251 96.324C214.139 96.212 214.083 96.0487 214.083 95.834V92.222C214.083 91.6247 213.98 91.186 213.775 90.906C213.57 90.626 213.224 90.486 212.739 90.486C212.207 90.486 211.782 90.6727 211.465 91.046C211.157 91.41 211.003 91.914 211.003 92.558V95.834C211.003 96.0487 210.947 96.212 210.835 96.324C210.732 96.436 210.578 96.492 210.373 96.492C210.168 96.492 210.009 96.436 209.897 96.324C209.785 96.212 209.729 96.0487 209.729 95.834V92.222C209.729 91.6247 209.626 91.186 209.421 90.906C209.216 90.626 208.87 90.486 208.385 90.486C207.853 90.486 207.428 90.6727 207.111 91.046C206.803 91.41 206.649 91.914 206.649 92.558V95.834C206.649 96.2727 206.434 96.492 206.005 96.492ZM221.714 96.492C221.499 96.492 221.336 96.436 221.224 96.324C221.112 96.212 221.056 96.0487 221.056 95.834V90.122C221.056 89.9074 221.112 89.7487 221.224 89.646C221.336 89.534 221.49 89.478 221.686 89.478C221.882 89.478 222.031 89.534 222.134 89.646C222.246 89.7487 222.302 89.9074 222.302 90.122V91.2H222.162C222.311 90.64 222.591 90.2154 223.002 89.926C223.413 89.6367 223.931 89.4734 224.556 89.436C224.705 89.4267 224.827 89.464 224.92 89.548C225.013 89.6227 225.065 89.7534 225.074 89.94C225.083 90.1174 225.041 90.262 224.948 90.374C224.855 90.4767 224.71 90.5374 224.514 90.556L224.262 90.57C223.646 90.6354 223.17 90.836 222.834 91.172C222.507 91.508 222.344 91.97 222.344 92.558V95.834C222.344 96.0487 222.288 96.212 222.176 96.324C222.073 96.436 221.919 96.492 221.714 96.492ZM229.223 96.52C228.486 96.52 227.851 96.38 227.319 96.1C226.797 95.8107 226.391 95.4047 226.101 94.882C225.812 94.35 225.667 93.7247 225.667 93.006C225.667 92.2967 225.807 91.676 226.087 91.144C226.377 90.612 226.769 90.1967 227.263 89.898C227.767 89.5994 228.341 89.45 228.985 89.45C229.443 89.45 229.853 89.5294 230.217 89.688C230.591 89.8374 230.908 90.0567 231.169 90.346C231.431 90.6354 231.627 90.99 231.757 91.41C231.897 91.8207 231.967 92.2874 231.967 92.81C231.967 92.9594 231.921 93.076 231.827 93.16C231.743 93.2347 231.617 93.272 231.449 93.272H226.661V92.46H231.127L230.889 92.656C230.889 92.1707 230.815 91.76 230.665 91.424C230.525 91.0787 230.315 90.8174 230.035 90.64C229.765 90.4627 229.424 90.374 229.013 90.374C228.565 90.374 228.183 90.4814 227.865 90.696C227.548 90.9014 227.305 91.1954 227.137 91.578C226.969 91.9514 226.885 92.3854 226.885 92.88V92.964C226.885 93.804 227.086 94.4387 227.487 94.868C227.889 95.2974 228.467 95.512 229.223 95.512C229.522 95.512 229.825 95.4747 230.133 95.4C230.451 95.3254 230.754 95.19 231.043 94.994C231.183 94.91 231.309 94.8727 231.421 94.882C231.543 94.882 231.641 94.9194 231.715 94.994C231.79 95.0594 231.837 95.1434 231.855 95.246C231.874 95.3394 231.86 95.442 231.813 95.554C231.767 95.666 231.678 95.764 231.547 95.848C231.239 96.0627 230.871 96.2307 230.441 96.352C230.021 96.464 229.615 96.52 229.223 96.52ZM236.366 96.52C235.816 96.52 235.354 96.422 234.98 96.226C234.616 96.03 234.341 95.7454 234.154 95.372C233.977 94.9987 233.888 94.5414 233.888 94V90.556H232.992C232.824 90.556 232.694 90.514 232.6 90.43C232.507 90.3367 232.46 90.2154 232.46 90.066C232.46 89.9074 232.507 89.786 232.6 89.702C232.694 89.618 232.824 89.576 232.992 89.576H233.888V88.05C233.888 87.8354 233.944 87.6767 234.056 87.574C234.168 87.462 234.327 87.406 234.532 87.406C234.738 87.406 234.892 87.462 234.994 87.574C235.106 87.6767 235.162 87.8354 235.162 88.05V89.576H236.856C237.034 89.576 237.169 89.618 237.262 89.702C237.356 89.786 237.402 89.9074 237.402 90.066C237.402 90.2154 237.356 90.3367 237.262 90.43C237.169 90.514 237.034 90.556 236.856 90.556H235.162V93.888C235.162 94.4014 235.27 94.7887 235.484 95.05C235.699 95.3114 236.054 95.442 236.548 95.442C236.726 95.442 236.875 95.428 236.996 95.4C237.118 95.3627 237.225 95.344 237.318 95.344C237.402 95.3347 237.472 95.3627 237.528 95.428C237.594 95.4934 237.626 95.6147 237.626 95.792C237.626 95.9227 237.603 96.044 237.556 96.156C237.519 96.2587 237.44 96.3287 237.318 96.366C237.206 96.4034 237.057 96.436 236.87 96.464C236.684 96.5014 236.516 96.52 236.366 96.52ZM241.638 96.52C240.9 96.52 240.266 96.38 239.734 96.1C239.211 95.8107 238.805 95.4047 238.516 94.882C238.226 94.35 238.082 93.7247 238.082 93.006C238.082 92.2967 238.222 91.676 238.502 91.144C238.791 90.612 239.183 90.1967 239.678 89.898C240.182 89.5994 240.756 89.45 241.4 89.45C241.857 89.45 242.268 89.5294 242.632 89.688C243.005 89.8374 243.322 90.0567 243.584 90.346C243.845 90.6354 244.041 90.99 244.172 91.41C244.312 91.8207 244.382 92.2874 244.382 92.81C244.382 92.9594 244.335 93.076 244.242 93.16C244.158 93.2347 244.032 93.272 243.864 93.272H239.076V92.46H243.542L243.304 92.656C243.304 92.1707 243.229 91.76 243.08 91.424C242.94 91.0787 242.73 90.8174 242.45 90.64C242.179 90.4627 241.838 90.374 241.428 90.374C240.98 90.374 240.597 90.4814 240.28 90.696C239.962 90.9014 239.72 91.1954 239.552 91.578C239.384 91.9514 239.3 92.3854 239.3 92.88V92.964C239.3 93.804 239.5 94.4387 239.902 94.868C240.303 95.2974 240.882 95.512 241.638 95.512C241.936 95.512 242.24 95.4747 242.548 95.4C242.865 95.3254 243.168 95.19 243.458 94.994C243.598 94.91 243.724 94.8727 243.836 94.882C243.957 94.882 244.055 94.9194 244.13 94.994C244.204 95.0594 244.251 95.1434 244.27 95.246C244.288 95.3394 244.274 95.442 244.228 95.554C244.181 95.666 244.092 95.764 243.962 95.848C243.654 96.0627 243.285 96.2307 242.856 96.352C242.436 96.464 242.03 96.52 241.638 96.52ZM246.596 96.492C246.4 96.492 246.246 96.436 246.134 96.324C246.022 96.212 245.966 96.0487 245.966 95.834V90.122C245.966 89.9074 246.022 89.7487 246.134 89.646C246.246 89.534 246.4 89.478 246.596 89.478C246.792 89.478 246.941 89.534 247.044 89.646C247.156 89.7487 247.212 89.9074 247.212 90.122V91.27L247.058 91.06C247.254 90.528 247.571 90.1267 248.01 89.856C248.458 89.5854 248.967 89.45 249.536 89.45C250.087 89.45 250.539 89.548 250.894 89.744C251.249 89.94 251.515 90.2387 251.692 90.64C251.869 91.0414 251.958 91.55 251.958 92.166V95.834C251.958 96.0487 251.902 96.212 251.79 96.324C251.687 96.436 251.533 96.492 251.328 96.492C251.123 96.492 250.964 96.436 250.852 96.324C250.74 96.212 250.684 96.0487 250.684 95.834V92.236C250.684 91.6294 250.567 91.186 250.334 90.906C250.101 90.626 249.727 90.486 249.214 90.486C248.617 90.486 248.136 90.6727 247.772 91.046C247.417 91.41 247.24 91.9047 247.24 92.53V95.834C247.24 96.2727 247.025 96.492 246.596 96.492ZM256.806 96.52C256.255 96.52 255.793 96.422 255.42 96.226C255.056 96.03 254.78 95.7454 254.594 95.372C254.416 94.9987 254.328 94.5414 254.328 94V90.556H253.432C253.264 90.556 253.133 90.514 253.04 90.43C252.946 90.3367 252.9 90.2154 252.9 90.066C252.9 89.9074 252.946 89.786 253.04 89.702C253.133 89.618 253.264 89.576 253.432 89.576H254.328V88.05C254.328 87.8354 254.384 87.6767 254.496 87.574C254.608 87.462 254.766 87.406 254.972 87.406C255.177 87.406 255.331 87.462 255.434 87.574C255.546 87.6767 255.602 87.8354 255.602 88.05V89.576H257.296C257.473 89.576 257.608 89.618 257.702 89.702C257.795 89.786 257.842 89.9074 257.842 90.066C257.842 90.2154 257.795 90.3367 257.702 90.43C257.608 90.514 257.473 90.556 257.296 90.556H255.602V93.888C255.602 94.4014 255.709 94.7887 255.924 95.05C256.138 95.3114 256.493 95.442 256.988 95.442C257.165 95.442 257.314 95.428 257.436 95.4C257.557 95.3627 257.664 95.344 257.758 95.344C257.842 95.3347 257.912 95.3627 257.968 95.428C258.033 95.4934 258.066 95.6147 258.066 95.792C258.066 95.9227 258.042 96.044 257.996 96.156C257.958 96.2587 257.879 96.3287 257.758 96.366C257.646 96.4034 257.496 96.436 257.31 96.464C257.123 96.5014 256.955 96.52 256.806 96.52ZM259.735 96.464C259.539 96.464 259.385 96.4034 259.273 96.282C259.161 96.1607 259.105 95.9927 259.105 95.778V90.192C259.105 89.968 259.161 89.8 259.273 89.688C259.385 89.5667 259.539 89.506 259.735 89.506C259.94 89.506 260.099 89.5667 260.211 89.688C260.323 89.8 260.379 89.968 260.379 90.192V95.778C260.379 95.9927 260.323 96.1607 260.211 96.282C260.108 96.4034 259.949 96.464 259.735 96.464ZM259.735 87.994C259.483 87.994 259.282 87.9287 259.133 87.798C258.993 87.658 258.923 87.476 258.923 87.252C258.923 87.0094 258.993 86.8274 259.133 86.706C259.282 86.5754 259.483 86.51 259.735 86.51C260.005 86.51 260.206 86.5754 260.337 86.706C260.477 86.8274 260.547 87.0094 260.547 87.252C260.547 87.476 260.477 87.658 260.337 87.798C260.206 87.9287 260.005 87.994 259.735 87.994ZM265.325 96.52C264.653 96.52 264.07 96.3754 263.575 96.086C263.08 95.7967 262.698 95.386 262.427 94.854C262.156 94.322 262.021 93.6967 262.021 92.978C262.021 92.4367 262.096 91.9514 262.245 91.522C262.404 91.0834 262.628 90.71 262.917 90.402C263.206 90.094 263.552 89.8607 263.953 89.702C264.364 89.534 264.821 89.45 265.325 89.45C265.997 89.45 266.58 89.5947 267.075 89.884C267.57 90.1734 267.952 90.584 268.223 91.116C268.494 91.6387 268.629 92.2594 268.629 92.978C268.629 93.5194 268.55 94.0094 268.391 94.448C268.242 94.8867 268.022 95.26 267.733 95.568C267.444 95.876 267.094 96.114 266.683 96.282C266.282 96.4407 265.829 96.52 265.325 96.52ZM265.325 95.512C265.736 95.512 266.09 95.414 266.389 95.218C266.697 95.022 266.93 94.7374 267.089 94.364C267.257 93.9907 267.341 93.5287 267.341 92.978C267.341 92.1567 267.159 91.5314 266.795 91.102C266.431 90.6727 265.941 90.458 265.325 90.458C264.924 90.458 264.569 90.556 264.261 90.752C263.962 90.9387 263.729 91.2187 263.561 91.592C263.393 91.9654 263.309 92.4274 263.309 92.978C263.309 93.7994 263.491 94.4294 263.855 94.868C264.228 95.2974 264.718 95.512 265.325 95.512ZM270.891 96.492C270.695 96.492 270.541 96.436 270.429 96.324C270.317 96.212 270.261 96.0487 270.261 95.834V90.122C270.261 89.9074 270.317 89.7487 270.429 89.646C270.541 89.534 270.695 89.478 270.891 89.478C271.087 89.478 271.236 89.534 271.339 89.646C271.451 89.7487 271.507 89.9074 271.507 90.122V91.27L271.353 91.06C271.549 90.528 271.866 90.1267 272.305 89.856C272.753 89.5854 273.262 89.45 273.831 89.45C274.382 89.45 274.834 89.548 275.189 89.744C275.544 89.94 275.81 90.2387 275.987 90.64C276.164 91.0414 276.253 91.55 276.253 92.166V95.834C276.253 96.0487 276.197 96.212 276.085 96.324C275.982 96.436 275.828 96.492 275.623 96.492C275.418 96.492 275.259 96.436 275.147 96.324C275.035 96.212 274.979 96.0487 274.979 95.834V92.236C274.979 91.6294 274.862 91.186 274.629 90.906C274.396 90.626 274.022 90.486 273.509 90.486C272.912 90.486 272.431 90.6727 272.067 91.046C271.712 91.41 271.535 91.9047 271.535 92.53V95.834C271.535 96.2727 271.32 96.492 270.891 96.492ZM278.889 96.45C278.646 96.45 278.445 96.3707 278.287 96.212C278.128 96.0534 278.049 95.8527 278.049 95.61C278.049 95.3674 278.128 95.1714 278.287 95.022C278.445 94.8727 278.646 94.798 278.889 94.798C279.15 94.798 279.351 94.8727 279.491 95.022C279.64 95.1714 279.715 95.3674 279.715 95.61C279.715 95.8527 279.64 96.0534 279.491 96.212C279.351 96.3707 279.15 96.45 278.889 96.45Z" fill="#6C8184"/>
</g>
<defs>
<filter id="filter0_ddii_90_2341" x="0.841797" y="0.597656" width="332.789" height="156.033" filterUnits="userSpaceOnUse" color-interpolation-filters="sRGB">
<feFlood flood-opacity="0" result="BackgroundImageFix"/>
<feColorMatrix in="SourceAlpha" type="matrix" values="0 0 0 0 0 0 0 0 0 0 0 0 0 0 0 0 0 0 127 0" result="hardAlpha"/>
<feOffset dy="4"/>
<feGaussianBlur stdDeviation="2"/>
<feComposite in2="hardAlpha" operator="out"/>
<feColorMatrix type="matrix" values="0 0 0 0 0 0 0 0 0 0 0 0 0 0 0 0 0 0 0.1 0"/>
<feBlend mode="normal" in2="BackgroundImageFix" result="effect1_dropShadow_90_2341"/>
<feColorMatrix in="SourceAlpha" type="matrix" values="0 0 0 0 0 0 0 0 0 0 0 0 0 0 0 0 0 0 127 0" result="hardAlpha"/>
<feMorphology radius="12" operator="erode" in="SourceAlpha" result="effect2_dropShadow_90_2341"/>
<feOffset dy="12"/>
<feGaussianBlur stdDeviation="16"/>
<feComposite in2="hardAlpha" operator="out"/>
<feColorMatrix type="matrix" values="0 0 0 0 0 0 0 0 0 0 0 0 0 0 0 0 0 0 0.1 0"/>
<feBlend mode="normal" in2="effect1_dropShadow_90_2341" result="effect2_dropShadow_90_2341"/>
<feBlend mode="normal" in="SourceGraphic" in2="effect2_dropShadow_90_2341" result="shape"/>
<feColorMatrix in="SourceAlpha" type="matrix" values="0 0 0 0 0 0 0 0 0 0 0 0 0 0 0 0 0 0 127 0" result="hardAlpha"/>
<feOffset dy="6"/>
<feGaussianBlur stdDeviation="6"/>
<feComposite in2="hardAlpha" operator="arithmetic" k2="-1" k3="1"/>
<feColorMatrix type="matrix" values="0 0 0 0 1 0 0 0 0 1 0 0 0 0 1 0 0 0 0.04 0"/>
<feBlend mode="normal" in2="shape" result="effect3_innerShadow_90_2341"/>
<feColorMatrix in="SourceAlpha" type="matrix" values="0 0 0 0 0 0 0 0 0 0 0 0 0 0 0 0 0 0 127 0" result="hardAlpha"/>
<feOffset dy="1"/>
<feGaussianBlur stdDeviation="0.5"/>
<feComposite in2="hardAlpha" operator="arithmetic" k2="-1" k3="1"/>
<feColorMatrix type="matrix" values="0 0 0 0 1 0 0 0 0 1 0 0 0 0 1 0 0 0 0.2 0"/>
<feBlend mode="normal" in2="effect3_innerShadow_90_2341" result="effect4_innerShadow_90_2341"/>
</filter>
</defs>
</svg>
