<svg width="331" height="154" viewBox="0 0 331 154" fill="none" xmlns="http://www.w3.org/2000/svg">
<g filter="url(#filter0_ddii_90_2340)">
<path d="M19.4199 29.8947C19.4199 17.5286 29.4446 7.50391 41.8107 7.50391H289.818C302.184 7.50391 312.209 17.5286 312.209 29.8946V101.147C312.209 113.513 302.184 123.537 289.818 123.537H41.8106C29.4446 123.537 19.4199 113.513 19.4199 101.147V29.8947Z" fill="#F9FBFB" shape-rendering="crispEdges"/>
<path d="M46.713 46.885C46.2116 46.885 45.7263 46.8423 45.257 46.757C44.7876 46.6823 44.345 46.565 43.929 46.405C43.513 46.245 43.1396 46.0476 42.809 45.813C42.6703 45.717 42.569 45.5996 42.505 45.461C42.4516 45.3223 42.4356 45.189 42.457 45.061C42.489 44.9223 42.5476 44.805 42.633 44.709C42.729 44.613 42.841 44.5543 42.969 44.533C43.097 44.5116 43.2356 44.5543 43.385 44.661C43.8756 44.9916 44.3876 45.2316 44.921 45.381C45.465 45.5303 46.0623 45.605 46.713 45.605C47.6516 45.605 48.3396 45.4343 48.777 45.093C49.225 44.7516 49.449 44.3036 49.449 43.749C49.449 43.2903 49.289 42.933 48.969 42.677C48.649 42.4103 48.1103 42.2023 47.353 42.053L45.657 41.701C44.6543 41.4876 43.9023 41.1356 43.401 40.645C42.9103 40.1543 42.665 39.4983 42.665 38.677C42.665 38.1756 42.7663 37.7223 42.969 37.317C43.1716 36.901 43.4596 36.5436 43.833 36.245C44.2063 35.9463 44.6436 35.717 45.145 35.557C45.657 35.397 46.2223 35.317 46.841 35.317C47.5023 35.317 48.121 35.4076 48.697 35.589C49.2836 35.7703 49.8116 36.037 50.281 36.389C50.409 36.485 50.4943 36.6023 50.537 36.741C50.5796 36.869 50.585 36.997 50.553 37.125C50.5316 37.253 50.473 37.3596 50.377 37.445C50.2916 37.5303 50.1796 37.5783 50.041 37.589C49.913 37.5996 49.769 37.5516 49.609 37.445C49.1823 37.1463 48.745 36.933 48.297 36.805C47.849 36.6663 47.3583 36.597 46.825 36.597C46.281 36.597 45.8063 36.6823 45.401 36.853C45.0063 37.0236 44.697 37.2636 44.473 37.573C44.2596 37.8716 44.153 38.2236 44.153 38.629C44.153 39.1196 44.3023 39.5036 44.601 39.781C44.8996 40.0583 45.401 40.2716 46.105 40.421L47.785 40.757C48.8516 40.981 49.641 41.3276 50.153 41.797C50.6756 42.2556 50.937 42.8743 50.937 43.653C50.937 44.1436 50.8356 44.5863 50.633 44.981C50.441 45.3756 50.1636 45.717 49.801 46.005C49.4383 46.2823 48.9956 46.501 48.473 46.661C47.9503 46.8103 47.3636 46.885 46.713 46.885ZM56.0916 46.885C55.3023 46.885 54.6196 46.7196 54.0436 46.389C53.4676 46.0476 53.0249 45.573 52.7156 44.965C52.4063 44.3463 52.2516 43.621 52.2516 42.789C52.2516 42.1703 52.3369 41.6156 52.5076 41.125C52.6889 40.6343 52.9449 40.2183 53.2756 39.877C53.6063 39.525 54.0063 39.2583 54.4756 39.077C54.9556 38.8956 55.4943 38.805 56.0916 38.805C56.4649 38.805 56.8596 38.8636 57.2756 38.981C57.6916 39.0983 58.0756 39.2903 58.4276 39.557C58.5449 39.6423 58.6196 39.7436 58.6516 39.861C58.6836 39.9676 58.6836 40.0796 58.6516 40.197C58.6303 40.3143 58.5769 40.4156 58.4916 40.501C58.4169 40.5756 58.3156 40.6183 58.1876 40.629C58.0703 40.6396 57.9423 40.6023 57.8036 40.517C57.5476 40.325 57.2756 40.1863 56.9876 40.101C56.7103 40.0156 56.4436 39.973 56.1876 39.973C55.7929 39.973 55.4409 40.037 55.1316 40.165C54.8329 40.293 54.5769 40.4796 54.3636 40.725C54.1609 40.9596 54.0063 41.253 53.8996 41.605C53.7929 41.9463 53.7396 42.3463 53.7396 42.805C53.7396 43.7116 53.9529 44.4263 54.3796 44.949C54.8063 45.461 55.4089 45.717 56.1876 45.717C56.4436 45.717 56.7103 45.6796 56.9876 45.605C57.2649 45.5196 57.5369 45.381 57.8036 45.189C57.9423 45.1036 58.0703 45.0716 58.1876 45.093C58.3049 45.1036 58.4009 45.1516 58.4756 45.237C58.5609 45.3116 58.6143 45.4076 58.6356 45.525C58.6569 45.6316 58.6463 45.7436 58.6036 45.861C58.5716 45.9783 58.4969 46.0743 58.3796 46.149C58.0383 46.405 57.6649 46.5916 57.2596 46.709C56.8543 46.8263 56.4649 46.885 56.0916 46.885ZM62.5706 46.885C62.0373 46.885 61.5519 46.7783 61.1146 46.565C60.6879 46.3516 60.3519 46.0636 60.1066 45.701C59.8719 45.3383 59.7546 44.933 59.7546 44.485C59.7546 43.909 59.8986 43.4556 60.1866 43.125C60.4746 42.7943 60.9599 42.5596 61.6426 42.421C62.3253 42.2716 63.2426 42.197 64.3946 42.197H65.1466V43.125H64.4266C63.6053 43.125 62.9546 43.1623 62.4746 43.237C62.0053 43.3116 61.6746 43.445 61.4826 43.637C61.2906 43.8183 61.1946 44.0743 61.1946 44.405C61.1946 44.821 61.3386 45.1623 61.6266 45.429C61.9253 45.6956 62.3306 45.829 62.8426 45.829C63.2479 45.829 63.6053 45.733 63.9146 45.541C64.2239 45.3383 64.4693 45.0716 64.6506 44.741C64.8319 44.3996 64.9226 44.0103 64.9226 43.573V41.733C64.9226 41.1036 64.7946 40.6503 64.5386 40.373C64.2826 40.085 63.8506 39.941 63.2426 39.941C62.8906 39.941 62.5279 39.989 62.1546 40.085C61.7813 40.181 61.3919 40.3303 60.9866 40.533C60.8266 40.6076 60.6879 40.6343 60.5706 40.613C60.4533 40.581 60.3573 40.517 60.2826 40.421C60.2186 40.3143 60.1813 40.2023 60.1706 40.085C60.1706 39.957 60.1973 39.8343 60.2506 39.717C60.3146 39.5996 60.4213 39.5143 60.5706 39.461C61.0399 39.2263 61.5039 39.061 61.9626 38.965C62.4319 38.8583 62.8693 38.805 63.2746 38.805C63.9679 38.805 64.5386 38.917 64.9866 39.141C65.4346 39.3543 65.7706 39.6903 65.9946 40.149C66.2186 40.597 66.3306 41.173 66.3306 41.877V46.101C66.3306 46.3463 66.2719 46.533 66.1546 46.661C66.0373 46.789 65.8666 46.853 65.6426 46.853C65.4293 46.853 65.2586 46.789 65.1306 46.661C65.0133 46.533 64.9546 46.3463 64.9546 46.101V44.965H65.0986C65.0133 45.3596 64.8533 45.701 64.6186 45.989C64.3839 46.277 64.0906 46.501 63.7386 46.661C63.3973 46.8103 63.0079 46.885 62.5706 46.885ZM71.0699 46.885C70.2699 46.885 69.6619 46.6503 69.2459 46.181C68.8299 45.701 68.6219 45.013 68.6219 44.117V36.085C68.6219 35.8396 68.6859 35.6583 68.8139 35.541C68.9419 35.413 69.1179 35.349 69.3419 35.349C69.5765 35.349 69.7579 35.413 69.8859 35.541C70.0139 35.6583 70.0779 35.8396 70.0779 36.085V44.005C70.0779 44.5596 70.1899 44.9756 70.4139 45.253C70.6485 45.5196 70.9792 45.653 71.4059 45.653C71.5019 45.653 71.5872 45.653 71.6619 45.653C71.7365 45.6423 71.8112 45.6316 71.8859 45.621C72.0032 45.6103 72.0885 45.6423 72.1419 45.717C72.1952 45.7916 72.2219 45.941 72.2219 46.165C72.2219 46.3676 72.1739 46.5276 72.0779 46.645C71.9925 46.7516 71.8485 46.821 71.6459 46.853C71.5499 46.8636 71.4539 46.869 71.3579 46.869C71.2619 46.8796 71.1659 46.885 71.0699 46.885ZM75.9144 46.885C75.381 46.885 74.8957 46.7783 74.4584 46.565C74.0317 46.3516 73.6957 46.0636 73.4504 45.701C73.2157 45.3383 73.0984 44.933 73.0984 44.485C73.0984 43.909 73.2424 43.4556 73.5304 43.125C73.8184 42.7943 74.3037 42.5596 74.9864 42.421C75.669 42.2716 76.5864 42.197 77.7384 42.197H78.4904V43.125H77.7704C76.949 43.125 76.2984 43.1623 75.8184 43.237C75.349 43.3116 75.0184 43.445 74.8264 43.637C74.6344 43.8183 74.5384 44.0743 74.5384 44.405C74.5384 44.821 74.6824 45.1623 74.9704 45.429C75.269 45.6956 75.6744 45.829 76.1864 45.829C76.5917 45.829 76.949 45.733 77.2584 45.541C77.5677 45.3383 77.813 45.0716 77.9944 44.741C78.1757 44.3996 78.2664 44.0103 78.2664 43.573V41.733C78.2664 41.1036 78.1384 40.6503 77.8824 40.373C77.6264 40.085 77.1944 39.941 76.5864 39.941C76.2344 39.941 75.8717 39.989 75.4984 40.085C75.125 40.181 74.7357 40.3303 74.3304 40.533C74.1704 40.6076 74.0317 40.6343 73.9144 40.613C73.797 40.581 73.701 40.517 73.6264 40.421C73.5624 40.3143 73.525 40.2023 73.5144 40.085C73.5144 39.957 73.541 39.8343 73.5944 39.717C73.6584 39.5996 73.765 39.5143 73.9144 39.461C74.3837 39.2263 74.8477 39.061 75.3064 38.965C75.7757 38.8583 76.213 38.805 76.6184 38.805C77.3117 38.805 77.8824 38.917 78.3304 39.141C78.7784 39.3543 79.1144 39.6903 79.3384 40.149C79.5624 40.597 79.6744 41.173 79.6744 41.877V46.101C79.6744 46.3463 79.6157 46.533 79.4984 46.661C79.381 46.789 79.2104 46.853 78.9864 46.853C78.773 46.853 78.6024 46.789 78.4744 46.661C78.357 46.533 78.2984 46.3463 78.2984 46.101V44.965H78.4424C78.357 45.3596 78.197 45.701 77.9624 45.989C77.7277 46.277 77.4344 46.501 77.0824 46.661C76.741 46.8103 76.3517 46.885 75.9144 46.885ZM86.0456 46.885C85.3416 46.885 84.7389 46.709 84.2376 46.357C83.7363 46.005 83.4003 45.5303 83.2296 44.933L83.4056 44.693V46.101C83.4056 46.3463 83.3416 46.533 83.2136 46.661C83.0963 46.789 82.9203 46.853 82.6856 46.853C82.4616 46.853 82.2856 46.789 82.1576 46.661C82.0296 46.533 81.9656 46.3463 81.9656 46.101V36.085C81.9656 35.8396 82.0296 35.6583 82.1576 35.541C82.2856 35.413 82.4616 35.349 82.6856 35.349C82.9203 35.349 83.1016 35.413 83.2296 35.541C83.3576 35.6583 83.4216 35.8396 83.4216 36.085V40.709H83.2456C83.4163 40.133 83.7523 39.6743 84.2536 39.333C84.7549 38.981 85.3523 38.805 86.0456 38.805C86.7389 38.805 87.3416 38.9703 87.8536 39.301C88.3763 39.621 88.7763 40.085 89.0536 40.693C89.3416 41.2903 89.4856 42.005 89.4856 42.837C89.4856 43.6583 89.3416 44.3783 89.0536 44.997C88.7656 45.605 88.3656 46.0743 87.8536 46.405C87.3416 46.725 86.7389 46.885 86.0456 46.885ZM85.7096 45.733C86.1683 45.733 86.5683 45.621 86.9096 45.397C87.2616 45.173 87.5336 44.8476 87.7256 44.421C87.9176 43.9943 88.0136 43.4663 88.0136 42.837C88.0136 41.8983 87.8056 41.1836 87.3896 40.693C86.9736 40.2023 86.4136 39.957 85.7096 39.957C85.2403 39.957 84.8296 40.069 84.4776 40.293C84.1363 40.5063 83.8696 40.8263 83.6776 41.253C83.4963 41.6796 83.4056 42.2076 83.4056 42.837C83.4056 43.7756 83.6136 44.4956 84.0296 44.997C84.4456 45.4876 85.0056 45.733 85.7096 45.733ZM92.0762 46.821C91.8522 46.821 91.6762 46.7516 91.5482 46.613C91.4202 46.4743 91.3562 46.2823 91.3562 46.037V39.653C91.3562 39.397 91.4202 39.205 91.5482 39.077C91.6762 38.9383 91.8522 38.869 92.0762 38.869C92.3109 38.869 92.4922 38.9383 92.6202 39.077C92.7482 39.205 92.8122 39.397 92.8122 39.653V46.037C92.8122 46.2823 92.7482 46.4743 92.6202 46.613C92.5029 46.7516 92.3216 46.821 92.0762 46.821ZM92.0762 37.141C91.7882 37.141 91.5589 37.0663 91.3882 36.917C91.2282 36.757 91.1482 36.549 91.1482 36.293C91.1482 36.0156 91.2282 35.8076 91.3882 35.669C91.5589 35.5196 91.7882 35.445 92.0762 35.445C92.3856 35.445 92.6149 35.5196 92.7642 35.669C92.9242 35.8076 93.0042 36.0156 93.0042 36.293C93.0042 36.549 92.9242 36.757 92.7642 36.917C92.6149 37.0663 92.3856 37.141 92.0762 37.141ZM97.6011 46.885C96.8011 46.885 96.1931 46.6503 95.7771 46.181C95.3611 45.701 95.1531 45.013 95.1531 44.117V36.085C95.1531 35.8396 95.2171 35.6583 95.3451 35.541C95.4731 35.413 95.6491 35.349 95.8731 35.349C96.1078 35.349 96.2891 35.413 96.4171 35.541C96.5451 35.6583 96.6091 35.8396 96.6091 36.085V44.005C96.6091 44.5596 96.7211 44.9756 96.9451 45.253C97.1798 45.5196 97.5104 45.653 97.9371 45.653C98.0331 45.653 98.1184 45.653 98.1931 45.653C98.2678 45.6423 98.3424 45.6316 98.4171 45.621C98.5344 45.6103 98.6198 45.6423 98.6731 45.717C98.7264 45.7916 98.7531 45.941 98.7531 46.165C98.7531 46.3676 98.7051 46.5276 98.6091 46.645C98.5238 46.7516 98.3798 46.821 98.1771 46.853C98.0811 46.8636 97.9851 46.869 97.8891 46.869C97.7931 46.8796 97.6971 46.885 97.6011 46.885ZM100.686 46.821C100.462 46.821 100.286 46.7516 100.158 46.613C100.03 46.4743 99.9656 46.2823 99.9656 46.037V39.653C99.9656 39.397 100.03 39.205 100.158 39.077C100.286 38.9383 100.462 38.869 100.686 38.869C100.92 38.869 101.102 38.9383 101.23 39.077C101.358 39.205 101.422 39.397 101.422 39.653V46.037C101.422 46.2823 101.358 46.4743 101.23 46.613C101.112 46.7516 100.931 46.821 100.686 46.821ZM100.686 37.141C100.398 37.141 100.168 37.0663 99.9976 36.917C99.8376 36.757 99.7576 36.549 99.7576 36.293C99.7576 36.0156 99.8376 35.8076 99.9976 35.669C100.168 35.5196 100.398 35.445 100.686 35.445C100.995 35.445 101.224 35.5196 101.374 35.669C101.534 35.8076 101.614 36.0156 101.614 36.293C101.614 36.549 101.534 36.757 101.374 36.917C101.224 37.0663 100.995 37.141 100.686 37.141ZM106.994 46.885C106.365 46.885 105.837 46.773 105.41 46.549C104.994 46.325 104.68 45.9996 104.466 45.573C104.264 45.1463 104.162 44.6236 104.162 44.005V40.069H103.138C102.946 40.069 102.797 40.021 102.69 39.925C102.584 39.8183 102.53 39.6796 102.53 39.509C102.53 39.3276 102.584 39.189 102.69 39.093C102.797 38.997 102.946 38.949 103.138 38.949H104.162V37.205C104.162 36.9596 104.226 36.7783 104.354 36.661C104.482 36.533 104.664 36.469 104.898 36.469C105.133 36.469 105.309 36.533 105.426 36.661C105.554 36.7783 105.618 36.9596 105.618 37.205V38.949H107.554C107.757 38.949 107.912 38.997 108.018 39.093C108.125 39.189 108.178 39.3276 108.178 39.509C108.178 39.6796 108.125 39.8183 108.018 39.925C107.912 40.021 107.757 40.069 107.554 40.069H105.618V43.877C105.618 44.4636 105.741 44.9063 105.986 45.205C106.232 45.5036 106.637 45.653 107.202 45.653C107.405 45.653 107.576 45.637 107.714 45.605C107.853 45.5623 107.976 45.541 108.082 45.541C108.178 45.5303 108.258 45.5623 108.322 45.637C108.397 45.7116 108.434 45.8503 108.434 46.053C108.434 46.2023 108.408 46.341 108.354 46.469C108.312 46.5863 108.221 46.6663 108.082 46.709C107.954 46.7516 107.784 46.789 107.57 46.821C107.357 46.8636 107.165 46.885 106.994 46.885ZM111.398 49.733C111.228 49.733 111.084 49.685 110.966 49.589C110.86 49.5036 110.796 49.381 110.774 49.221C110.764 49.0716 110.796 48.9116 110.87 48.741L111.958 46.277V46.885L108.934 39.845C108.86 39.6636 108.833 39.4983 108.854 39.349C108.876 39.1996 108.945 39.077 109.062 38.981C109.19 38.885 109.361 38.837 109.574 38.837C109.756 38.837 109.9 38.8796 110.006 38.965C110.113 39.0503 110.214 39.1996 110.31 39.413L112.822 45.605H112.374L114.934 39.413C115.02 39.1996 115.121 39.0503 115.238 38.965C115.356 38.8796 115.516 38.837 115.718 38.837C115.9 38.837 116.038 38.885 116.134 38.981C116.241 39.077 116.305 39.1996 116.326 39.349C116.348 39.4983 116.316 39.6583 116.23 39.829L112.198 49.157C112.092 49.381 111.98 49.5303 111.862 49.605C111.756 49.6903 111.601 49.733 111.398 49.733Z" fill="#0F1415"/>
<path d="M46.081 74.4263C45.6423 74.4263 45.2176 74.389 44.807 74.3143C44.3963 74.249 44.009 74.1463 43.645 74.0063C43.281 73.8663 42.9543 73.6936 42.665 73.4883C42.5436 73.4043 42.455 73.3016 42.399 73.1803C42.3523 73.059 42.3383 72.9423 42.357 72.8303C42.385 72.709 42.4363 72.6063 42.511 72.5223C42.595 72.4383 42.693 72.387 42.805 72.3683C42.917 72.3496 43.0383 72.387 43.169 72.4803C43.5983 72.7696 44.0463 72.9796 44.513 73.1103C44.989 73.241 45.5116 73.3063 46.081 73.3063C46.9023 73.3063 47.5043 73.157 47.887 72.8583C48.279 72.5596 48.475 72.1676 48.475 71.6823C48.475 71.281 48.335 70.9683 48.055 70.7443C47.775 70.511 47.3036 70.329 46.641 70.1983L45.157 69.8903C44.2796 69.7036 43.6216 69.3956 43.183 68.9663C42.7536 68.537 42.539 67.963 42.539 67.2443C42.539 66.8056 42.6276 66.409 42.805 66.0543C42.9823 65.6903 43.2343 65.3776 43.561 65.1163C43.8876 64.855 44.2703 64.6543 44.709 64.5143C45.157 64.3743 45.6516 64.3043 46.193 64.3043C46.7716 64.3043 47.313 64.3836 47.817 64.5423C48.3303 64.701 48.7923 64.9343 49.203 65.2423C49.315 65.3263 49.3896 65.429 49.427 65.5503C49.4643 65.6623 49.469 65.7743 49.441 65.8863C49.4223 65.9983 49.371 66.0916 49.287 66.1663C49.2123 66.241 49.1143 66.283 48.993 66.2923C48.881 66.3016 48.755 66.2596 48.615 66.1663C48.2416 65.905 47.859 65.7183 47.467 65.6063C47.075 65.485 46.6456 65.4243 46.179 65.4243C45.703 65.4243 45.2876 65.499 44.933 65.6483C44.5876 65.7976 44.317 66.0076 44.121 66.2783C43.9343 66.5396 43.841 66.8476 43.841 67.2023C43.841 67.6316 43.9716 67.9676 44.233 68.2103C44.4943 68.453 44.933 68.6396 45.549 68.7703L47.019 69.0643C47.9523 69.2603 48.643 69.5636 49.091 69.9743C49.5483 70.3756 49.777 70.917 49.777 71.5983C49.777 72.0276 49.6883 72.415 49.511 72.7603C49.343 73.1056 49.1003 73.4043 48.783 73.6563C48.4656 73.899 48.0783 74.0903 47.621 74.2303C47.1636 74.361 46.6503 74.4263 46.081 74.4263ZM54.2873 74.4263C53.5966 74.4263 52.9993 74.2816 52.4953 73.9923C51.9913 73.6936 51.6039 73.2783 51.3333 72.7463C51.0626 72.205 50.9273 71.5703 50.9273 70.8423C50.9273 70.301 51.0019 69.8156 51.1513 69.3863C51.3099 68.957 51.5339 68.593 51.8233 68.2943C52.1126 67.9863 52.4626 67.753 52.8733 67.5943C53.2933 67.4356 53.7646 67.3563 54.2873 67.3563C54.6139 67.3563 54.9593 67.4076 55.3233 67.5103C55.6873 67.613 56.0233 67.781 56.3313 68.0143C56.4339 68.089 56.4993 68.1776 56.5273 68.2803C56.5553 68.3736 56.5553 68.4716 56.5273 68.5743C56.5086 68.677 56.4619 68.7656 56.3873 68.8403C56.3219 68.9056 56.2333 68.943 56.1213 68.9523C56.0186 68.9616 55.9066 68.929 55.7853 68.8543C55.5613 68.6863 55.3233 68.565 55.0713 68.4903C54.8286 68.4156 54.5953 68.3783 54.3713 68.3783C54.0259 68.3783 53.7179 68.4343 53.4473 68.5463C53.1859 68.6583 52.9619 68.8216 52.7753 69.0363C52.5979 69.2416 52.4626 69.4983 52.3693 69.8063C52.2759 70.105 52.2293 70.455 52.2293 70.8563C52.2293 71.6496 52.4159 72.275 52.7893 72.7323C53.1626 73.1803 53.6899 73.4043 54.3713 73.4043C54.5953 73.4043 54.8286 73.3716 55.0713 73.3063C55.3139 73.2316 55.5519 73.1103 55.7853 72.9423C55.9066 72.8676 56.0186 72.8396 56.1213 72.8583C56.2239 72.8676 56.3079 72.9096 56.3733 72.9843C56.4479 73.0496 56.4946 73.1336 56.5133 73.2363C56.5319 73.3296 56.5226 73.4276 56.4853 73.5303C56.4573 73.633 56.3919 73.717 56.2893 73.7823C55.9906 74.0063 55.6639 74.1696 55.3093 74.2723C54.9546 74.375 54.6139 74.4263 54.2873 74.4263ZM59.9564 74.4263C59.4897 74.4263 59.0651 74.333 58.6824 74.1463C58.3091 73.9596 58.0151 73.7076 57.8004 73.3903C57.5951 73.073 57.4924 72.7183 57.4924 72.3263C57.4924 71.8223 57.6184 71.4256 57.8704 71.1363C58.1224 70.847 58.5471 70.6416 59.1444 70.5203C59.7417 70.3896 60.5444 70.3243 61.5524 70.3243H62.2104V71.1363H61.5804C60.8617 71.1363 60.2924 71.169 59.8724 71.2343C59.4617 71.2996 59.1724 71.4163 59.0044 71.5843C58.8364 71.743 58.7524 71.967 58.7524 72.2563C58.7524 72.6203 58.8784 72.919 59.1304 73.1523C59.3917 73.3856 59.7464 73.5023 60.1944 73.5023C60.5491 73.5023 60.8617 73.4183 61.1324 73.2503C61.4031 73.073 61.6177 72.8396 61.7764 72.5503C61.9351 72.2516 62.0144 71.911 62.0144 71.5283V69.9183C62.0144 69.3676 61.9024 68.971 61.6784 68.7283C61.4544 68.4763 61.0764 68.3503 60.5444 68.3503C60.2364 68.3503 59.9191 68.3923 59.5924 68.4763C59.2657 68.5603 58.9251 68.691 58.5704 68.8683C58.4304 68.9336 58.3091 68.957 58.2064 68.9383C58.1037 68.9103 58.0197 68.8543 57.9544 68.7703C57.8984 68.677 57.8657 68.579 57.8564 68.4763C57.8564 68.3643 57.8797 68.257 57.9264 68.1543C57.9824 68.0516 58.0757 67.977 58.2064 67.9303C58.6171 67.725 59.0231 67.5803 59.4244 67.4963C59.8351 67.403 60.2177 67.3563 60.5724 67.3563C61.1791 67.3563 61.6784 67.4543 62.0704 67.6503C62.4624 67.837 62.7564 68.131 62.9524 68.5323C63.1484 68.9243 63.2464 69.4283 63.2464 70.0443V73.7403C63.2464 73.955 63.1951 74.1183 63.0924 74.2303C62.9897 74.3423 62.8404 74.3983 62.6444 74.3983C62.4577 74.3983 62.3084 74.3423 62.1964 74.2303C62.0937 74.1183 62.0424 73.955 62.0424 73.7403V72.7463H62.1684C62.0937 73.0916 61.9537 73.3903 61.7484 73.6423C61.5431 73.8943 61.2864 74.0903 60.9784 74.2303C60.6797 74.361 60.3391 74.4263 59.9564 74.4263ZM67.3932 74.4263C66.6932 74.4263 66.1612 74.221 65.7972 73.8103C65.4332 73.3903 65.2512 72.7883 65.2512 72.0043V64.9763C65.2512 64.7616 65.3072 64.603 65.4192 64.5003C65.5312 64.3883 65.6852 64.3323 65.8812 64.3323C66.0866 64.3323 66.2452 64.3883 66.3572 64.5003C66.4692 64.603 66.5252 64.7616 66.5252 64.9763V71.9063C66.5252 72.3916 66.6232 72.7556 66.8192 72.9983C67.0246 73.2316 67.3139 73.3483 67.6872 73.3483C67.7712 73.3483 67.8459 73.3483 67.9112 73.3483C67.9766 73.339 68.0419 73.3296 68.1072 73.3203C68.2099 73.311 68.2846 73.339 68.3312 73.4043C68.3779 73.4696 68.4012 73.6003 68.4012 73.7963C68.4012 73.9736 68.3592 74.1136 68.2752 74.2163C68.2006 74.3096 68.0746 74.3703 67.8972 74.3983C67.8132 74.4076 67.7292 74.4123 67.6452 74.4123C67.5612 74.4216 67.4772 74.4263 67.3932 74.4263ZM71.6322 74.4263C71.1655 74.4263 70.7409 74.333 70.3582 74.1463C69.9849 73.9596 69.6909 73.7076 69.4762 73.3903C69.2709 73.073 69.1682 72.7183 69.1682 72.3263C69.1682 71.8223 69.2942 71.4256 69.5462 71.1363C69.7982 70.847 70.2229 70.6416 70.8202 70.5203C71.4175 70.3896 72.2202 70.3243 73.2282 70.3243H73.8862V71.1363H73.2562C72.5375 71.1363 71.9682 71.169 71.5482 71.2343C71.1375 71.2996 70.8482 71.4163 70.6802 71.5843C70.5122 71.743 70.4282 71.967 70.4282 72.2563C70.4282 72.6203 70.5542 72.919 70.8062 73.1523C71.0675 73.3856 71.4222 73.5023 71.8702 73.5023C72.2249 73.5023 72.5375 73.4183 72.8082 73.2503C73.0789 73.073 73.2935 72.8396 73.4522 72.5503C73.6109 72.2516 73.6902 71.911 73.6902 71.5283V69.9183C73.6902 69.3676 73.5782 68.971 73.3542 68.7283C73.1302 68.4763 72.7522 68.3503 72.2202 68.3503C71.9122 68.3503 71.5949 68.3923 71.2682 68.4763C70.9415 68.5603 70.6009 68.691 70.2462 68.8683C70.1062 68.9336 69.9849 68.957 69.8822 68.9383C69.7795 68.9103 69.6955 68.8543 69.6302 68.7703C69.5742 68.677 69.5415 68.579 69.5322 68.4763C69.5322 68.3643 69.5555 68.257 69.6022 68.1543C69.6582 68.0516 69.7515 67.977 69.8822 67.9303C70.2929 67.725 70.6989 67.5803 71.1002 67.4963C71.5109 67.403 71.8935 67.3563 72.2482 67.3563C72.8549 67.3563 73.3542 67.4543 73.7462 67.6503C74.1382 67.837 74.4322 68.131 74.6282 68.5323C74.8242 68.9243 74.9222 69.4283 74.9222 70.0443V73.7403C74.9222 73.955 74.8709 74.1183 74.7682 74.2303C74.6655 74.3423 74.5162 74.3983 74.3202 74.3983C74.1335 74.3983 73.9842 74.3423 73.8722 74.2303C73.7695 74.1183 73.7182 73.955 73.7182 73.7403V72.7463H73.8442C73.7695 73.0916 73.6295 73.3903 73.4242 73.6423C73.2189 73.8943 72.9622 74.0903 72.6542 74.2303C72.3555 74.361 72.0149 74.4263 71.6322 74.4263ZM80.497 74.4263C79.881 74.4263 79.3537 74.2723 78.915 73.9643C78.4764 73.6563 78.1824 73.241 78.033 72.7183L78.187 72.5083V73.7403C78.187 73.955 78.131 74.1183 78.019 74.2303C77.9164 74.3423 77.7624 74.3983 77.557 74.3983C77.361 74.3983 77.207 74.3423 77.095 74.2303C76.983 74.1183 76.927 73.955 76.927 73.7403V64.9763C76.927 64.7616 76.983 64.603 77.095 64.5003C77.207 64.3883 77.361 64.3323 77.557 64.3323C77.7624 64.3323 77.921 64.3883 78.033 64.5003C78.145 64.603 78.201 64.7616 78.201 64.9763V69.0223H78.047C78.1964 68.5183 78.4904 68.117 78.929 67.8183C79.3677 67.5103 79.8904 67.3563 80.497 67.3563C81.1037 67.3563 81.631 67.501 82.079 67.7903C82.5364 68.0703 82.8864 68.4763 83.129 69.0083C83.381 69.531 83.507 70.1563 83.507 70.8843C83.507 71.603 83.381 72.233 83.129 72.7743C82.877 73.3063 82.527 73.717 82.079 74.0063C81.631 74.2863 81.1037 74.4263 80.497 74.4263ZM80.203 73.4183C80.6044 73.4183 80.9544 73.3203 81.253 73.1243C81.561 72.9283 81.799 72.6436 81.967 72.2703C82.135 71.897 82.219 71.435 82.219 70.8843C82.219 70.063 82.037 69.4376 81.673 69.0083C81.309 68.579 80.819 68.3643 80.203 68.3643C79.7924 68.3643 79.433 68.4623 79.125 68.6583C78.8264 68.845 78.593 69.125 78.425 69.4983C78.2664 69.8716 78.187 70.3336 78.187 70.8843C78.187 71.7056 78.369 72.3356 78.733 72.7743C79.097 73.2036 79.587 73.4183 80.203 73.4183ZM87.2858 74.4263C86.5858 74.4263 86.0538 74.221 85.6898 73.8103C85.3258 73.3903 85.1438 72.7883 85.1438 72.0043V64.9763C85.1438 64.7616 85.1998 64.603 85.3118 64.5003C85.4238 64.3883 85.5778 64.3323 85.7738 64.3323C85.9792 64.3323 86.1378 64.3883 86.2498 64.5003C86.3618 64.603 86.4178 64.7616 86.4178 64.9763V71.9063C86.4178 72.3916 86.5158 72.7556 86.7118 72.9983C86.9172 73.2316 87.2065 73.3483 87.5798 73.3483C87.6638 73.3483 87.7385 73.3483 87.8038 73.3483C87.8692 73.339 87.9345 73.3296 87.9998 73.3203C88.1025 73.311 88.1772 73.339 88.2238 73.4043C88.2705 73.4696 88.2938 73.6003 88.2938 73.7963C88.2938 73.9736 88.2518 74.1136 88.1678 74.2163C88.0932 74.3096 87.9672 74.3703 87.7898 74.3983C87.7058 74.4076 87.6218 74.4123 87.5378 74.4123C87.4538 74.4216 87.3698 74.4263 87.2858 74.4263ZM92.4364 74.4263C91.6991 74.4263 91.0644 74.2863 90.5324 74.0063C90.0097 73.717 89.6037 73.311 89.3144 72.7883C89.0251 72.2563 88.8804 71.631 88.8804 70.9123C88.8804 70.203 89.0204 69.5823 89.3004 69.0503C89.5897 68.5183 89.9817 68.103 90.4764 67.8043C90.9804 67.5056 91.5544 67.3563 92.1984 67.3563C92.6557 67.3563 93.0664 67.4356 93.4304 67.5943C93.8037 67.7436 94.1211 67.963 94.3824 68.2523C94.6437 68.5416 94.8397 68.8963 94.9704 69.3163C95.1104 69.727 95.1804 70.1936 95.1804 70.7163C95.1804 70.8656 95.1337 70.9823 95.0404 71.0663C94.9564 71.141 94.8304 71.1783 94.6624 71.1783H89.8744V70.3663H94.3404L94.1024 70.5623C94.1024 70.077 94.0277 69.6663 93.8784 69.3303C93.7384 68.985 93.5284 68.7236 93.2484 68.5463C92.9777 68.369 92.6371 68.2803 92.2264 68.2803C91.7784 68.2803 91.3957 68.3876 91.0784 68.6023C90.7611 68.8076 90.5184 69.1016 90.3504 69.4843C90.1824 69.8576 90.0984 70.2916 90.0984 70.7863V70.8703C90.0984 71.7103 90.2991 72.345 90.7004 72.7743C91.1017 73.2036 91.6804 73.4183 92.4364 73.4183C92.7351 73.4183 93.0384 73.381 93.3464 73.3063C93.6637 73.2316 93.9671 73.0963 94.2564 72.9003C94.3964 72.8163 94.5224 72.779 94.6344 72.7883C94.7557 72.7883 94.8537 72.8256 94.9284 72.9003C95.0031 72.9656 95.0497 73.0496 95.0684 73.1523C95.0871 73.2456 95.0731 73.3483 95.0264 73.4603C94.9797 73.5723 94.8911 73.6703 94.7604 73.7543C94.4524 73.969 94.0837 74.137 93.6544 74.2583C93.2344 74.3703 92.8284 74.4263 92.4364 74.4263ZM102.557 74.4263C101.857 74.4263 101.325 74.221 100.961 73.8103C100.597 73.3903 100.415 72.7883 100.415 72.0043V64.9763C100.415 64.7616 100.471 64.603 100.583 64.5003C100.695 64.3883 100.849 64.3323 101.045 64.3323C101.251 64.3323 101.409 64.3883 101.521 64.5003C101.633 64.603 101.689 64.7616 101.689 64.9763V71.9063C101.689 72.3916 101.787 72.7556 101.983 72.9983C102.189 73.2316 102.478 73.3483 102.851 73.3483C102.935 73.3483 103.01 73.3483 103.075 73.3483C103.141 73.339 103.206 73.3296 103.271 73.3203C103.374 73.311 103.449 73.339 103.495 73.4043C103.542 73.4696 103.565 73.6003 103.565 73.7963C103.565 73.9736 103.523 74.1136 103.439 74.2163C103.365 74.3096 103.239 74.3703 103.061 74.3983C102.977 74.4076 102.893 74.4123 102.809 74.4123C102.725 74.4216 102.641 74.4263 102.557 74.4263ZM107.708 74.4263C106.971 74.4263 106.336 74.2863 105.804 74.0063C105.281 73.717 104.875 73.311 104.586 72.7883C104.297 72.2563 104.152 71.631 104.152 70.9123C104.152 70.203 104.292 69.5823 104.572 69.0503C104.861 68.5183 105.253 68.103 105.748 67.8043C106.252 67.5056 106.826 67.3563 107.47 67.3563C107.927 67.3563 108.338 67.4356 108.702 67.5943C109.075 67.7436 109.393 67.963 109.654 68.2523C109.915 68.5416 110.111 68.8963 110.242 69.3163C110.382 69.727 110.452 70.1936 110.452 70.7163C110.452 70.8656 110.405 70.9823 110.312 71.0663C110.228 71.141 110.102 71.1783 109.934 71.1783H105.146V70.3663H109.612L109.374 70.5623C109.374 70.077 109.299 69.6663 109.15 69.3303C109.01 68.985 108.8 68.7236 108.52 68.5463C108.249 68.369 107.909 68.2803 107.498 68.2803C107.05 68.2803 106.667 68.3876 106.35 68.6023C106.033 68.8076 105.79 69.1016 105.622 69.4843C105.454 69.8576 105.37 70.2916 105.37 70.7863V70.8703C105.37 71.7103 105.571 72.345 105.972 72.7743C106.373 73.2036 106.952 73.4183 107.708 73.4183C108.007 73.4183 108.31 73.381 108.618 73.3063C108.935 73.2316 109.239 73.0963 109.528 72.9003C109.668 72.8163 109.794 72.779 109.906 72.7883C110.027 72.7883 110.125 72.8256 110.2 72.9003C110.275 72.9656 110.321 73.0496 110.34 73.1523C110.359 73.2456 110.345 73.3483 110.298 73.4603C110.251 73.5723 110.163 73.6703 110.032 73.7543C109.724 73.969 109.355 74.137 108.926 74.2583C108.506 74.3703 108.1 74.4263 107.708 74.4263ZM114.206 74.4263C113.74 74.4263 113.315 74.333 112.932 74.1463C112.559 73.9596 112.265 73.7076 112.05 73.3903C111.845 73.073 111.742 72.7183 111.742 72.3263C111.742 71.8223 111.868 71.4256 112.12 71.1363C112.372 70.847 112.797 70.6416 113.394 70.5203C113.992 70.3896 114.794 70.3243 115.802 70.3243H116.46V71.1363H115.83C115.112 71.1363 114.542 71.169 114.122 71.2343C113.712 71.2996 113.422 71.4163 113.254 71.5843C113.086 71.743 113.002 71.967 113.002 72.2563C113.002 72.6203 113.128 72.919 113.38 73.1523C113.642 73.3856 113.996 73.5023 114.444 73.5023C114.799 73.5023 115.112 73.4183 115.382 73.2503C115.653 73.073 115.868 72.8396 116.026 72.5503C116.185 72.2516 116.264 71.911 116.264 71.5283V69.9183C116.264 69.3676 116.152 68.971 115.928 68.7283C115.704 68.4763 115.326 68.3503 114.794 68.3503C114.486 68.3503 114.169 68.3923 113.842 68.4763C113.516 68.5603 113.175 68.691 112.82 68.8683C112.68 68.9336 112.559 68.957 112.456 68.9383C112.354 68.9103 112.27 68.8543 112.204 68.7703C112.148 68.677 112.116 68.579 112.106 68.4763C112.106 68.3643 112.13 68.257 112.176 68.1543C112.232 68.0516 112.326 67.977 112.456 67.9303C112.867 67.725 113.273 67.5803 113.674 67.4963C114.085 67.403 114.468 67.3563 114.822 67.3563C115.429 67.3563 115.928 67.4543 116.32 67.6503C116.712 67.837 117.006 68.131 117.202 68.5323C117.398 68.9243 117.496 69.4283 117.496 70.0443V73.7403C117.496 73.955 117.445 74.1183 117.342 74.2303C117.24 74.3423 117.09 74.3983 116.894 74.3983C116.708 74.3983 116.558 74.3423 116.446 74.2303C116.344 74.1183 116.292 73.955 116.292 73.7403V72.7463H116.418C116.344 73.0916 116.204 73.3903 115.998 73.6423C115.793 73.8943 115.536 74.0903 115.228 74.2303C114.93 74.361 114.589 74.4263 114.206 74.4263ZM120.159 74.3983C119.945 74.3983 119.781 74.3423 119.669 74.2303C119.557 74.1183 119.501 73.955 119.501 73.7403V68.0283C119.501 67.8136 119.557 67.655 119.669 67.5523C119.781 67.4403 119.935 67.3843 120.131 67.3843C120.327 67.3843 120.477 67.4403 120.579 67.5523C120.691 67.655 120.747 67.8136 120.747 68.0283V69.1063H120.607C120.757 68.5463 121.037 68.1216 121.447 67.8323C121.858 67.543 122.376 67.3796 123.001 67.3423C123.151 67.333 123.272 67.3703 123.365 67.4543C123.459 67.529 123.51 67.6596 123.519 67.8463C123.529 68.0236 123.487 68.1683 123.393 68.2803C123.3 68.383 123.155 68.4436 122.959 68.4623L122.707 68.4763C122.091 68.5416 121.615 68.7423 121.279 69.0783C120.953 69.4143 120.789 69.8763 120.789 70.4643V73.7403C120.789 73.955 120.733 74.1183 120.621 74.2303C120.519 74.3423 120.365 74.3983 120.159 74.3983ZM125.245 74.3983C125.049 74.3983 124.895 74.3423 124.783 74.2303C124.671 74.1183 124.615 73.955 124.615 73.7403V68.0283C124.615 67.8136 124.671 67.655 124.783 67.5523C124.895 67.4403 125.049 67.3843 125.245 67.3843C125.441 67.3843 125.59 67.4403 125.693 67.5523C125.805 67.655 125.861 67.8136 125.861 68.0283V69.1763L125.707 68.9663C125.903 68.4343 126.22 68.033 126.659 67.7623C127.107 67.4916 127.615 67.3563 128.185 67.3563C128.735 67.3563 129.188 67.4543 129.543 67.6503C129.897 67.8463 130.163 68.145 130.341 68.5463C130.518 68.9476 130.607 69.4563 130.607 70.0723V73.7403C130.607 73.955 130.551 74.1183 130.439 74.2303C130.336 74.3423 130.182 74.3983 129.977 74.3983C129.771 74.3983 129.613 74.3423 129.501 74.2303C129.389 74.1183 129.333 73.955 129.333 73.7403V70.1423C129.333 69.5356 129.216 69.0923 128.983 68.8123C128.749 68.5323 128.376 68.3923 127.863 68.3923C127.265 68.3923 126.785 68.579 126.421 68.9523C126.066 69.3163 125.889 69.811 125.889 70.4363V73.7403C125.889 74.179 125.674 74.3983 125.245 74.3983ZM133.256 74.3703C133.06 74.3703 132.906 74.3096 132.794 74.1883C132.682 74.067 132.626 73.899 132.626 73.6843V68.0983C132.626 67.8743 132.682 67.7063 132.794 67.5943C132.906 67.473 133.06 67.4123 133.256 67.4123C133.462 67.4123 133.62 67.473 133.732 67.5943C133.844 67.7063 133.9 67.8743 133.9 68.0983V73.6843C133.9 73.899 133.844 74.067 133.732 74.1883C133.63 74.3096 133.471 74.3703 133.256 74.3703ZM133.256 65.9003C133.004 65.9003 132.804 65.835 132.654 65.7043C132.514 65.5643 132.444 65.3823 132.444 65.1583C132.444 64.9156 132.514 64.7336 132.654 64.6123C132.804 64.4816 133.004 64.4163 133.256 64.4163C133.527 64.4163 133.728 64.4816 133.858 64.6123C133.998 64.7336 134.068 64.9156 134.068 65.1583C134.068 65.3823 133.998 65.5643 133.858 65.7043C133.728 65.835 133.527 65.9003 133.256 65.9003ZM136.579 74.3983C136.383 74.3983 136.229 74.3423 136.117 74.2303C136.005 74.1183 135.949 73.955 135.949 73.7403V68.0283C135.949 67.8136 136.005 67.655 136.117 67.5523C136.229 67.4403 136.383 67.3843 136.579 67.3843C136.775 67.3843 136.924 67.4403 137.027 67.5523C137.139 67.655 137.195 67.8136 137.195 68.0283V69.1763L137.041 68.9663C137.237 68.4343 137.554 68.033 137.993 67.7623C138.441 67.4916 138.949 67.3563 139.519 67.3563C140.069 67.3563 140.522 67.4543 140.877 67.6503C141.231 67.8463 141.497 68.145 141.675 68.5463C141.852 68.9476 141.941 69.4563 141.941 70.0723V73.7403C141.941 73.955 141.885 74.1183 141.773 74.2303C141.67 74.3423 141.516 74.3983 141.311 74.3983C141.105 74.3983 140.947 74.3423 140.835 74.2303C140.723 74.1183 140.667 73.955 140.667 73.7403V70.1423C140.667 69.5356 140.55 69.0923 140.317 68.8123C140.083 68.5323 139.71 68.3923 139.197 68.3923C138.599 68.3923 138.119 68.579 137.755 68.9523C137.4 69.3163 137.223 69.811 137.223 70.4363V73.7403C137.223 74.179 137.008 74.3983 136.579 74.3983ZM147.026 76.9463C146.522 76.9463 146.032 76.8903 145.556 76.7783C145.09 76.6663 144.665 76.4936 144.282 76.2603C144.161 76.1856 144.077 76.097 144.03 75.9943C143.993 75.901 143.984 75.803 144.002 75.7003C144.03 75.5976 144.077 75.5043 144.142 75.4203C144.217 75.3456 144.301 75.2943 144.394 75.2663C144.497 75.2476 144.6 75.271 144.702 75.3363C145.113 75.5696 145.505 75.7283 145.878 75.8123C146.252 75.8963 146.606 75.9383 146.942 75.9383C147.605 75.9383 148.1 75.7656 148.426 75.4203C148.762 75.0843 148.93 74.5896 148.93 73.9363V72.4243H149.056C148.926 72.947 148.632 73.3623 148.174 73.6703C147.726 73.9783 147.204 74.1323 146.606 74.1323C145.99 74.1323 145.454 73.9923 144.996 73.7123C144.539 73.423 144.184 73.0263 143.932 72.5223C143.68 72.009 143.554 71.4163 143.554 70.7443C143.554 70.231 143.624 69.769 143.764 69.3583C143.914 68.9383 144.119 68.5836 144.38 68.2943C144.651 67.9956 144.973 67.767 145.346 67.6083C145.72 67.4403 146.14 67.3563 146.606 67.3563C147.213 67.3563 147.74 67.5103 148.188 67.8183C148.636 68.1263 148.926 68.5416 149.056 69.0643L148.902 69.2603V68.0283C148.902 67.8136 148.958 67.655 149.07 67.5523C149.182 67.4403 149.341 67.3843 149.546 67.3843C149.742 67.3843 149.896 67.4403 150.008 67.5523C150.12 67.655 150.176 67.8136 150.176 68.0283V73.7683C150.176 74.823 149.906 75.6163 149.364 76.1483C148.832 76.6803 148.053 76.9463 147.026 76.9463ZM146.886 73.1243C147.306 73.1243 147.666 73.031 147.964 72.8443C148.272 72.6483 148.506 72.373 148.664 72.0183C148.832 71.6543 148.916 71.2296 148.916 70.7443C148.916 70.007 148.734 69.4283 148.37 69.0083C148.006 68.579 147.512 68.3643 146.886 68.3643C146.466 68.3643 146.102 68.4623 145.794 68.6583C145.496 68.845 145.262 69.1156 145.094 69.4703C144.926 69.825 144.842 70.2496 144.842 70.7443C144.842 71.4723 145.024 72.051 145.388 72.4803C145.762 72.9096 146.261 73.1243 146.886 73.1243ZM156.498 76.9183C156.302 76.9183 156.148 76.8623 156.036 76.7503C155.924 76.6383 155.868 76.4796 155.868 76.2743V68.0283C155.868 67.8136 155.924 67.655 156.036 67.5523C156.148 67.4403 156.302 67.3843 156.498 67.3843C156.704 67.3843 156.858 67.4403 156.96 67.5523C157.072 67.655 157.128 67.8136 157.128 68.0283V69.3023L156.974 69.0503C157.124 68.537 157.418 68.1263 157.856 67.8183C158.295 67.5103 158.822 67.3563 159.438 67.3563C160.045 67.3563 160.572 67.501 161.02 67.7903C161.468 68.0703 161.818 68.4763 162.07 69.0083C162.322 69.531 162.448 70.1563 162.448 70.8843C162.448 71.603 162.322 72.233 162.07 72.7743C161.828 73.3063 161.478 73.717 161.02 74.0063C160.572 74.2863 160.045 74.4263 159.438 74.4263C158.832 74.4263 158.309 74.2723 157.87 73.9643C157.432 73.6563 157.138 73.2503 156.988 72.7463H157.142V76.2743C157.142 76.4796 157.086 76.6383 156.974 76.7503C156.862 76.8623 156.704 76.9183 156.498 76.9183ZM159.144 73.4183C159.546 73.4183 159.896 73.3203 160.194 73.1243C160.502 72.9283 160.74 72.6436 160.908 72.2703C161.076 71.897 161.16 71.435 161.16 70.8843C161.16 70.063 160.978 69.4376 160.614 69.0083C160.25 68.579 159.76 68.3643 159.144 68.3643C158.734 68.3643 158.374 68.4623 158.066 68.6583C157.768 68.845 157.534 69.125 157.366 69.4983C157.208 69.8716 157.128 70.3336 157.128 70.8843C157.128 71.7056 157.31 72.3356 157.674 72.7743C158.038 73.2036 158.528 73.4183 159.144 73.4183ZM164.743 74.3983C164.529 74.3983 164.365 74.3423 164.253 74.2303C164.141 74.1183 164.085 73.955 164.085 73.7403V68.0283C164.085 67.8136 164.141 67.655 164.253 67.5523C164.365 67.4403 164.519 67.3843 164.715 67.3843C164.911 67.3843 165.061 67.4403 165.163 67.5523C165.275 67.655 165.331 67.8136 165.331 68.0283V69.1063H165.191C165.341 68.5463 165.621 68.1216 166.031 67.8323C166.442 67.543 166.96 67.3796 167.585 67.3423C167.735 67.333 167.856 67.3703 167.949 67.4543C168.043 67.529 168.094 67.6596 168.103 67.8463C168.113 68.0236 168.071 68.1683 167.977 68.2803C167.884 68.383 167.739 68.4436 167.543 68.4623L167.291 68.4763C166.675 68.5416 166.199 68.7423 165.863 69.0783C165.537 69.4143 165.373 69.8763 165.373 70.4643V73.7403C165.373 73.955 165.317 74.1183 165.205 74.2303C165.103 74.3423 164.949 74.3983 164.743 74.3983ZM172.001 74.4263C171.329 74.4263 170.745 74.2816 170.251 73.9923C169.756 73.703 169.373 73.2923 169.103 72.7603C168.832 72.2283 168.697 71.603 168.697 70.8843C168.697 70.343 168.771 69.8576 168.921 69.4283C169.079 68.9896 169.303 68.6163 169.593 68.3083C169.882 68.0003 170.227 67.767 170.629 67.6083C171.039 67.4403 171.497 67.3563 172.001 67.3563C172.673 67.3563 173.256 67.501 173.751 67.7903C174.245 68.0796 174.628 68.4903 174.899 69.0223C175.169 69.545 175.305 70.1656 175.305 70.8843C175.305 71.4256 175.225 71.9156 175.067 72.3543C174.917 72.793 174.698 73.1663 174.409 73.4743C174.119 73.7823 173.769 74.0203 173.359 74.1883C172.957 74.347 172.505 74.4263 172.001 74.4263ZM172.001 73.4183C172.411 73.4183 172.766 73.3203 173.065 73.1243C173.373 72.9283 173.606 72.6436 173.765 72.2703C173.933 71.897 174.017 71.435 174.017 70.8843C174.017 70.063 173.835 69.4376 173.471 69.0083C173.107 68.579 172.617 68.3643 172.001 68.3643C171.599 68.3643 171.245 68.4623 170.937 68.6583C170.638 68.845 170.405 69.125 170.237 69.4983C170.069 69.8716 169.985 70.3336 169.985 70.8843C169.985 71.7056 170.167 72.3356 170.531 72.7743C170.904 73.2036 171.394 73.4183 172.001 73.4183ZM180.003 76.9463C179.499 76.9463 179.009 76.8903 178.533 76.7783C178.066 76.6663 177.641 76.4936 177.259 76.2603C177.137 76.1856 177.053 76.097 177.007 75.9943C176.969 75.901 176.96 75.803 176.979 75.7003C177.007 75.5976 177.053 75.5043 177.119 75.4203C177.193 75.3456 177.277 75.2943 177.371 75.2663C177.473 75.2476 177.576 75.271 177.679 75.3363C178.089 75.5696 178.481 75.7283 178.855 75.8123C179.228 75.8963 179.583 75.9383 179.919 75.9383C180.581 75.9383 181.076 75.7656 181.403 75.4203C181.739 75.0843 181.907 74.5896 181.907 73.9363V72.4243H182.033C181.902 72.947 181.608 73.3623 181.151 73.6703C180.703 73.9783 180.18 74.1323 179.583 74.1323C178.967 74.1323 178.43 73.9923 177.973 73.7123C177.515 73.423 177.161 73.0263 176.909 72.5223C176.657 72.009 176.531 71.4163 176.531 70.7443C176.531 70.231 176.601 69.769 176.741 69.3583C176.89 68.9383 177.095 68.5836 177.357 68.2943C177.627 67.9956 177.949 67.767 178.323 67.6083C178.696 67.4403 179.116 67.3563 179.583 67.3563C180.189 67.3563 180.717 67.5103 181.165 67.8183C181.613 68.1263 181.902 68.5416 182.033 69.0643L181.879 69.2603V68.0283C181.879 67.8136 181.935 67.655 182.047 67.5523C182.159 67.4403 182.317 67.3843 182.523 67.3843C182.719 67.3843 182.873 67.4403 182.985 67.5523C183.097 67.655 183.153 67.8136 183.153 68.0283V73.7683C183.153 74.823 182.882 75.6163 182.341 76.1483C181.809 76.6803 181.029 76.9463 180.003 76.9463ZM179.863 73.1243C180.283 73.1243 180.642 73.031 180.941 72.8443C181.249 72.6483 181.482 72.373 181.641 72.0183C181.809 71.6543 181.893 71.2296 181.893 70.7443C181.893 70.007 181.711 69.4283 181.347 69.0083C180.983 68.579 180.488 68.3643 179.863 68.3643C179.443 68.3643 179.079 68.4623 178.771 68.6583C178.472 68.845 178.239 69.1156 178.071 69.4703C177.903 69.825 177.819 70.2496 177.819 70.7443C177.819 71.4723 178.001 72.051 178.365 72.4803C178.738 72.9096 179.237 73.1243 179.863 73.1243ZM185.853 74.3983C185.638 74.3983 185.475 74.3423 185.363 74.2303C185.251 74.1183 185.195 73.955 185.195 73.7403V68.0283C185.195 67.8136 185.251 67.655 185.363 67.5523C185.475 67.4403 185.629 67.3843 185.825 67.3843C186.021 67.3843 186.17 67.4403 186.273 67.5523C186.385 67.655 186.441 67.8136 186.441 68.0283V69.1063H186.301C186.45 68.5463 186.73 68.1216 187.141 67.8323C187.551 67.543 188.069 67.3796 188.695 67.3423C188.844 67.333 188.965 67.3703 189.059 67.4543C189.152 67.529 189.203 67.6596 189.213 67.8463C189.222 68.0236 189.18 68.1683 189.087 68.2803C188.993 68.383 188.849 68.4436 188.653 68.4623L188.401 68.4763C187.785 68.5416 187.309 68.7423 186.973 69.0783C186.646 69.4143 186.483 69.8763 186.483 70.4643V73.7403C186.483 73.955 186.427 74.1183 186.315 74.2303C186.212 74.3423 186.058 74.3983 185.853 74.3983ZM192.41 74.4263C191.943 74.4263 191.518 74.333 191.136 74.1463C190.762 73.9596 190.468 73.7076 190.254 73.3903C190.048 73.073 189.946 72.7183 189.946 72.3263C189.946 71.8223 190.072 71.4256 190.324 71.1363C190.576 70.847 191 70.6416 191.598 70.5203C192.195 70.3896 192.998 70.3243 194.006 70.3243H194.664V71.1363H194.034C193.315 71.1363 192.746 71.169 192.326 71.2343C191.915 71.2996 191.626 71.4163 191.458 71.5843C191.29 71.743 191.206 71.967 191.206 72.2563C191.206 72.6203 191.332 72.919 191.584 73.1523C191.845 73.3856 192.2 73.5023 192.648 73.5023C193.002 73.5023 193.315 73.4183 193.586 73.2503C193.856 73.073 194.071 72.8396 194.23 72.5503C194.388 72.2516 194.468 71.911 194.468 71.5283V69.9183C194.468 69.3676 194.356 68.971 194.132 68.7283C193.908 68.4763 193.53 68.3503 192.998 68.3503C192.69 68.3503 192.372 68.3923 192.046 68.4763C191.719 68.5603 191.378 68.691 191.024 68.8683C190.884 68.9336 190.762 68.957 190.66 68.9383C190.557 68.9103 190.473 68.8543 190.408 68.7703C190.352 68.677 190.319 68.579 190.31 68.4763C190.31 68.3643 190.333 68.257 190.38 68.1543C190.436 68.0516 190.529 67.977 190.66 67.9303C191.07 67.725 191.476 67.5803 191.878 67.4963C192.288 67.403 192.671 67.3563 193.026 67.3563C193.632 67.3563 194.132 67.4543 194.524 67.6503C194.916 67.837 195.21 68.131 195.406 68.5323C195.602 68.9243 195.7 69.4283 195.7 70.0443V73.7403C195.7 73.955 195.648 74.1183 195.546 74.2303C195.443 74.3423 195.294 74.3983 195.098 74.3983C194.911 74.3983 194.762 74.3423 194.65 74.2303C194.547 74.1183 194.496 73.955 194.496 73.7403V72.7463H194.622C194.547 73.0916 194.407 73.3903 194.202 73.6423C193.996 73.8943 193.74 74.0903 193.432 74.2303C193.133 74.361 192.792 74.4263 192.41 74.4263ZM198.362 74.3983C198.166 74.3983 198.012 74.3423 197.9 74.2303C197.788 74.1183 197.732 73.955 197.732 73.7403V68.0283C197.732 67.8136 197.788 67.655 197.9 67.5523C198.012 67.4403 198.166 67.3843 198.362 67.3843C198.558 67.3843 198.708 67.4403 198.81 67.5523C198.922 67.655 198.978 67.8136 198.978 68.0283V69.2183L198.824 68.9663C199.002 68.453 199.286 68.0563 199.678 67.7763C200.08 67.4963 200.556 67.3563 201.106 67.3563C201.685 67.3563 202.152 67.4963 202.506 67.7763C202.861 68.047 203.099 68.4623 203.22 69.0223H203.024C203.192 68.509 203.491 68.103 203.92 67.8043C204.359 67.5056 204.868 67.3563 205.446 67.3563C205.96 67.3563 206.38 67.459 206.706 67.6643C207.042 67.8603 207.294 68.159 207.462 68.5603C207.63 68.9523 207.714 69.4563 207.714 70.0723V73.7403C207.714 73.955 207.658 74.1183 207.546 74.2303C207.434 74.3423 207.28 74.3983 207.084 74.3983C206.879 74.3983 206.72 74.3423 206.608 74.2303C206.496 74.1183 206.44 73.955 206.44 73.7403V70.1283C206.44 69.531 206.338 69.0923 206.132 68.8123C205.927 68.5323 205.582 68.3923 205.096 68.3923C204.564 68.3923 204.14 68.579 203.822 68.9523C203.514 69.3163 203.36 69.8203 203.36 70.4643V73.7403C203.36 73.955 203.304 74.1183 203.192 74.2303C203.09 74.3423 202.936 74.3983 202.73 74.3983C202.525 74.3983 202.366 74.3423 202.254 74.2303C202.142 74.1183 202.086 73.955 202.086 73.7403V70.1283C202.086 69.531 201.984 69.0923 201.778 68.8123C201.573 68.5323 201.228 68.3923 200.742 68.3923C200.21 68.3923 199.786 68.579 199.468 68.9523C199.16 69.3163 199.006 69.8203 199.006 70.4643V73.7403C199.006 74.179 198.792 74.3983 198.362 74.3983ZM212.115 74.4263C211.695 74.4263 211.27 74.3796 210.841 74.2863C210.421 74.1836 210.024 74.011 209.651 73.7683C209.548 73.703 209.474 73.6236 209.427 73.5303C209.39 73.4276 209.376 73.3296 209.385 73.2363C209.404 73.1336 209.446 73.045 209.511 72.9703C209.576 72.8956 209.656 72.8536 209.749 72.8443C209.852 72.8256 209.959 72.849 210.071 72.9143C210.435 73.1196 210.785 73.2643 211.121 73.3483C211.466 73.4323 211.807 73.4743 212.143 73.4743C212.656 73.4743 213.044 73.381 213.305 73.1943C213.566 73.0076 213.697 72.7603 213.697 72.4523C213.697 72.191 213.608 71.9903 213.431 71.8503C213.263 71.701 212.997 71.589 212.633 71.5143L211.331 71.2483C210.752 71.1176 210.314 70.903 210.015 70.6043C209.726 70.2963 209.581 69.9043 209.581 69.4283C209.581 69.0083 209.693 68.6443 209.917 68.3363C210.15 68.019 210.472 67.7763 210.883 67.6083C211.294 67.4403 211.765 67.3563 212.297 67.3563C212.708 67.3563 213.095 67.4123 213.459 67.5243C213.832 67.627 214.168 67.7856 214.467 68.0003C214.579 68.0656 214.649 68.1496 214.677 68.2523C214.714 68.3456 214.719 68.4436 214.691 68.5463C214.672 68.6396 214.63 68.719 214.565 68.7843C214.5 68.8496 214.416 68.8916 214.313 68.9103C214.21 68.9196 214.098 68.8916 213.977 68.8263C213.706 68.6396 213.426 68.509 213.137 68.4343C212.857 68.3503 212.577 68.3083 212.297 68.3083C211.793 68.3083 211.41 68.4063 211.149 68.6023C210.897 68.7983 210.771 69.055 210.771 69.3723C210.771 69.615 210.846 69.8156 210.995 69.9743C211.154 70.133 211.401 70.2496 211.737 70.3243L213.039 70.5903C213.646 70.721 214.103 70.931 214.411 71.2203C214.719 71.5003 214.873 71.883 214.873 72.3683C214.873 73.003 214.621 73.507 214.117 73.8803C213.622 74.2443 212.955 74.4263 212.115 74.4263ZM223.009 74.4263C222.458 74.4263 221.996 74.3283 221.623 74.1323C221.259 73.9363 220.984 73.6516 220.797 73.2783C220.62 72.905 220.531 72.4476 220.531 71.9063V68.4623H219.635C219.467 68.4623 219.336 68.4203 219.243 68.3363C219.15 68.243 219.103 68.1216 219.103 67.9723C219.103 67.8136 219.15 67.6923 219.243 67.6083C219.336 67.5243 219.467 67.4823 219.635 67.4823H220.531V65.9563C220.531 65.7416 220.587 65.583 220.699 65.4803C220.811 65.3683 220.97 65.3123 221.175 65.3123C221.38 65.3123 221.534 65.3683 221.637 65.4803C221.749 65.583 221.805 65.7416 221.805 65.9563V67.4823H223.499C223.676 67.4823 223.812 67.5243 223.905 67.6083C223.998 67.6923 224.045 67.8136 224.045 67.9723C224.045 68.1216 223.998 68.243 223.905 68.3363C223.812 68.4203 223.676 68.4623 223.499 68.4623H221.805V71.7943C221.805 72.3076 221.912 72.695 222.127 72.9563C222.342 73.2176 222.696 73.3483 223.191 73.3483C223.368 73.3483 223.518 73.3343 223.639 73.3063C223.76 73.269 223.868 73.2503 223.961 73.2503C224.045 73.241 224.115 73.269 224.171 73.3343C224.236 73.3996 224.269 73.521 224.269 73.6983C224.269 73.829 224.246 73.9503 224.199 74.0623C224.162 74.165 224.082 74.235 223.961 74.2723C223.849 74.3096 223.7 74.3423 223.513 74.3703C223.326 74.4076 223.158 74.4263 223.009 74.4263ZM225.938 74.3983C225.742 74.3983 225.588 74.3423 225.476 74.2303C225.364 74.1183 225.308 73.955 225.308 73.7403V64.9763C225.308 64.7616 225.364 64.603 225.476 64.5003C225.588 64.3883 225.742 64.3323 225.938 64.3323C226.143 64.3323 226.302 64.3883 226.414 64.5003C226.526 64.603 226.582 64.7616 226.582 64.9763V68.9663H226.4C226.596 68.4343 226.913 68.033 227.352 67.7623C227.8 67.4916 228.309 67.3563 228.878 67.3563C229.429 67.3563 229.881 67.459 230.236 67.6643C230.591 67.8603 230.857 68.159 231.034 68.5603C231.211 68.9616 231.3 69.4656 231.3 70.0723V73.7403C231.3 73.955 231.244 74.1183 231.132 74.2303C231.029 74.3423 230.875 74.3983 230.67 74.3983C230.465 74.3983 230.306 74.3423 230.194 74.2303C230.082 74.1183 230.026 73.955 230.026 73.7403V70.1423C230.026 69.5356 229.909 69.0923 229.676 68.8123C229.443 68.5323 229.069 68.3923 228.556 68.3923C227.959 68.3923 227.478 68.579 227.114 68.9523C226.759 69.3163 226.582 69.811 226.582 70.4363V73.7403C226.582 74.179 226.367 74.3983 225.938 74.3983ZM235.49 74.4263C235.023 74.4263 234.598 74.333 234.216 74.1463C233.842 73.9596 233.548 73.7076 233.334 73.3903C233.128 73.073 233.026 72.7183 233.026 72.3263C233.026 71.8223 233.152 71.4256 233.404 71.1363C233.656 70.847 234.08 70.6416 234.678 70.5203C235.275 70.3896 236.078 70.3243 237.086 70.3243H237.744V71.1363H237.114C236.395 71.1363 235.826 71.169 235.406 71.2343C234.995 71.2996 234.706 71.4163 234.538 71.5843C234.37 71.743 234.286 71.967 234.286 72.2563C234.286 72.6203 234.412 72.919 234.664 73.1523C234.925 73.3856 235.28 73.5023 235.728 73.5023C236.082 73.5023 236.395 73.4183 236.666 73.2503C236.936 73.073 237.151 72.8396 237.31 72.5503C237.468 72.2516 237.548 71.911 237.548 71.5283V69.9183C237.548 69.3676 237.436 68.971 237.212 68.7283C236.988 68.4763 236.61 68.3503 236.078 68.3503C235.77 68.3503 235.452 68.3923 235.126 68.4763C234.799 68.5603 234.458 68.691 234.104 68.8683C233.964 68.9336 233.842 68.957 233.74 68.9383C233.637 68.9103 233.553 68.8543 233.488 68.7703C233.432 68.677 233.399 68.579 233.39 68.4763C233.39 68.3643 233.413 68.257 233.46 68.1543C233.516 68.0516 233.609 67.977 233.74 67.9303C234.15 67.725 234.556 67.5803 234.958 67.4963C235.368 67.403 235.751 67.3563 236.106 67.3563C236.712 67.3563 237.212 67.4543 237.604 67.6503C237.996 67.837 238.29 68.131 238.486 68.5323C238.682 68.9243 238.78 69.4283 238.78 70.0443V73.7403C238.78 73.955 238.728 74.1183 238.626 74.2303C238.523 74.3423 238.374 74.3983 238.178 74.3983C237.991 74.3983 237.842 74.3423 237.73 74.2303C237.627 74.1183 237.576 73.955 237.576 73.7403V72.7463H237.702C237.627 73.0916 237.487 73.3903 237.282 73.6423C237.076 73.8943 236.82 74.0903 236.512 74.2303C236.213 74.361 235.872 74.4263 235.49 74.4263ZM243.612 74.4263C243.062 74.4263 242.6 74.3283 242.226 74.1323C241.862 73.9363 241.587 73.6516 241.4 73.2783C241.223 72.905 241.134 72.4476 241.134 71.9063V68.4623H240.238C240.07 68.4623 239.94 68.4203 239.846 68.3363C239.753 68.243 239.706 68.1216 239.706 67.9723C239.706 67.8136 239.753 67.6923 239.846 67.6083C239.94 67.5243 240.07 67.4823 240.238 67.4823H241.134V65.9563C241.134 65.7416 241.19 65.583 241.302 65.4803C241.414 65.3683 241.573 65.3123 241.778 65.3123C241.984 65.3123 242.138 65.3683 242.24 65.4803C242.352 65.583 242.408 65.7416 242.408 65.9563V67.4823H244.102C244.28 67.4823 244.415 67.5243 244.508 67.6083C244.602 67.6923 244.648 67.8136 244.648 67.9723C244.648 68.1216 244.602 68.243 244.508 68.3363C244.415 68.4203 244.28 68.4623 244.102 68.4623H242.408V71.7943C242.408 72.3076 242.516 72.695 242.73 72.9563C242.945 73.2176 243.3 73.3483 243.794 73.3483C243.972 73.3483 244.121 73.3343 244.242 73.3063C244.364 73.269 244.471 73.2503 244.564 73.2503C244.648 73.241 244.718 73.269 244.774 73.3343C244.84 73.3996 244.872 73.521 244.872 73.6983C244.872 73.829 244.849 73.9503 244.802 74.0623C244.765 74.165 244.686 74.235 244.564 74.2723C244.452 74.3096 244.303 74.3423 244.116 74.3703C243.93 74.4076 243.762 74.4263 243.612 74.4263ZM252.518 76.9463C252.014 76.9463 251.524 76.8903 251.048 76.7783C250.582 76.6663 250.157 76.4936 249.774 76.2603C249.653 76.1856 249.569 76.097 249.522 75.9943C249.485 75.901 249.476 75.803 249.494 75.7003C249.522 75.5976 249.569 75.5043 249.634 75.4203C249.709 75.3456 249.793 75.2943 249.886 75.2663C249.989 75.2476 250.092 75.271 250.194 75.3363C250.605 75.5696 250.997 75.7283 251.37 75.8123C251.744 75.8963 252.098 75.9383 252.434 75.9383C253.097 75.9383 253.592 75.7656 253.918 75.4203C254.254 75.0843 254.422 74.5896 254.422 73.9363V72.4243H254.548C254.418 72.947 254.124 73.3623 253.666 73.6703C253.218 73.9783 252.696 74.1323 252.098 74.1323C251.482 74.1323 250.946 73.9923 250.488 73.7123C250.031 73.423 249.676 73.0263 249.424 72.5223C249.172 72.009 249.046 71.4163 249.046 70.7443C249.046 70.231 249.116 69.769 249.256 69.3583C249.406 68.9383 249.611 68.5836 249.872 68.2943C250.143 67.9956 250.465 67.767 250.838 67.6083C251.212 67.4403 251.632 67.3563 252.098 67.3563C252.705 67.3563 253.232 67.5103 253.68 67.8183C254.128 68.1263 254.418 68.5416 254.548 69.0643L254.394 69.2603V68.0283C254.394 67.8136 254.45 67.655 254.562 67.5523C254.674 67.4403 254.833 67.3843 255.038 67.3843C255.234 67.3843 255.388 67.4403 255.5 67.5523C255.612 67.655 255.668 67.8136 255.668 68.0283V73.7683C255.668 74.823 255.398 75.6163 254.856 76.1483C254.324 76.6803 253.545 76.9463 252.518 76.9463ZM252.378 73.1243C252.798 73.1243 253.158 73.031 253.456 72.8443C253.764 72.6483 253.998 72.373 254.156 72.0183C254.324 71.6543 254.408 71.2296 254.408 70.7443C254.408 70.007 254.226 69.4283 253.862 69.0083C253.498 68.579 253.004 68.3643 252.378 68.3643C251.958 68.3643 251.594 68.4623 251.286 68.6583C250.988 68.845 250.754 69.1156 250.586 69.4703C250.418 69.825 250.334 70.2496 250.334 70.7443C250.334 71.4723 250.516 72.051 250.88 72.4803C251.254 72.9096 251.753 73.1243 252.378 73.1243ZM258.368 74.3983C258.154 74.3983 257.99 74.3423 257.878 74.2303C257.766 74.1183 257.71 73.955 257.71 73.7403V68.0283C257.71 67.8136 257.766 67.655 257.878 67.5523C257.99 67.4403 258.144 67.3843 258.34 67.3843C258.536 67.3843 258.686 67.4403 258.788 67.5523C258.9 67.655 258.956 67.8136 258.956 68.0283V69.1063H258.816C258.966 68.5463 259.246 68.1216 259.656 67.8323C260.067 67.543 260.585 67.3796 261.21 67.3423C261.36 67.333 261.481 67.3703 261.574 67.4543C261.668 67.529 261.719 67.6596 261.728 67.8463C261.738 68.0236 261.696 68.1683 261.602 68.2803C261.509 68.383 261.364 68.4436 261.168 68.4623L260.916 68.4763C260.3 68.5416 259.824 68.7423 259.488 69.0783C259.162 69.4143 258.998 69.8763 258.998 70.4643V73.7403C258.998 73.955 258.942 74.1183 258.83 74.2303C258.728 74.3423 258.574 74.3983 258.368 74.3983ZM265.626 74.4263C264.954 74.4263 264.37 74.2816 263.876 73.9923C263.381 73.703 262.998 73.2923 262.728 72.7603C262.457 72.2283 262.322 71.603 262.322 70.8843C262.322 70.343 262.396 69.8576 262.546 69.4283C262.704 68.9896 262.928 68.6163 263.218 68.3083C263.507 68.0003 263.852 67.767 264.254 67.6083C264.664 67.4403 265.122 67.3563 265.626 67.3563C266.298 67.3563 266.881 67.501 267.376 67.7903C267.87 68.0796 268.253 68.4903 268.524 69.0223C268.794 69.545 268.93 70.1656 268.93 70.8843C268.93 71.4256 268.85 71.9156 268.692 72.3543C268.542 72.793 268.323 73.1663 268.034 73.4743C267.744 73.7823 267.394 74.0203 266.984 74.1883C266.582 74.347 266.13 74.4263 265.626 74.4263ZM265.626 73.4183C266.036 73.4183 266.391 73.3203 266.69 73.1243C266.998 72.9283 267.231 72.6436 267.39 72.2703C267.558 71.897 267.642 71.435 267.642 70.8843C267.642 70.063 267.46 69.4376 267.096 69.0083C266.732 68.579 266.242 68.3643 265.626 68.3643C265.224 68.3643 264.87 68.4623 264.562 68.6583C264.263 68.845 264.03 69.125 263.862 69.4983C263.694 69.8716 263.61 70.3336 263.61 70.8843C263.61 71.7056 263.792 72.3356 264.156 72.7743C264.529 73.2036 265.019 73.4183 265.626 73.4183ZM272.874 74.3983C272.697 74.3983 272.543 74.3563 272.412 74.2723C272.282 74.179 272.179 74.0296 272.104 73.8243L270.018 68.2663C269.953 68.089 269.934 67.935 269.962 67.8043C269.99 67.6736 270.056 67.571 270.158 67.4963C270.261 67.4216 270.396 67.3843 270.564 67.3843C270.723 67.3843 270.849 67.4216 270.942 67.4963C271.036 67.571 271.115 67.7063 271.18 67.9023L273.084 73.2783H272.748L274.708 67.8743C274.774 67.7063 274.858 67.585 274.96 67.5103C275.072 67.4263 275.208 67.3843 275.366 67.3843C275.534 67.3843 275.674 67.4263 275.786 67.5103C275.898 67.585 275.978 67.7063 276.024 67.8743L277.956 73.2783H277.634L279.566 67.8743C279.632 67.6876 279.716 67.5616 279.818 67.4963C279.921 67.4216 280.047 67.3843 280.196 67.3843C280.364 67.3843 280.49 67.4263 280.574 67.5103C280.658 67.5943 280.705 67.7063 280.714 67.8463C280.733 67.977 280.714 68.117 280.658 68.2663L278.572 73.8243C278.507 74.0203 278.404 74.165 278.264 74.2583C278.134 74.3516 277.98 74.3983 277.802 74.3983C277.625 74.3983 277.466 74.3516 277.326 74.2583C277.196 74.165 277.093 74.0203 277.018 73.8243L275.016 68.3363H275.66L273.658 73.8243C273.584 74.0203 273.481 74.165 273.35 74.2583C273.22 74.3516 273.061 74.3983 272.874 74.3983ZM45.101 95.3983C44.9236 95.3983 44.7696 95.3563 44.639 95.2723C44.5083 95.179 44.4056 95.0296 44.331 94.8243L42.245 89.2663C42.1796 89.089 42.161 88.935 42.189 88.8043C42.217 88.6736 42.2823 88.571 42.385 88.4963C42.4876 88.4216 42.623 88.3843 42.791 88.3843C42.9496 88.3843 43.0756 88.4216 43.169 88.4963C43.2623 88.571 43.3416 88.7063 43.407 88.9023L45.311 94.2783H44.975L46.935 88.8743C47.0003 88.7063 47.0843 88.585 47.187 88.5103C47.299 88.4263 47.4343 88.3843 47.593 88.3843C47.761 88.3843 47.901 88.4263 48.013 88.5103C48.125 88.585 48.2043 88.7063 48.251 88.8743L50.183 94.2783H49.861L51.793 88.8743C51.8583 88.6876 51.9423 88.5616 52.045 88.4963C52.1476 88.4216 52.2736 88.3843 52.423 88.3843C52.591 88.3843 52.717 88.4263 52.801 88.5103C52.885 88.5943 52.9316 88.7063 52.941 88.8463C52.9596 88.977 52.941 89.117 52.885 89.2663L50.799 94.8243C50.7336 95.0203 50.631 95.165 50.491 95.2583C50.3603 95.3516 50.2063 95.3983 50.029 95.3983C49.8516 95.3983 49.693 95.3516 49.553 95.2583C49.4223 95.165 49.3196 95.0203 49.245 94.8243L47.243 89.3363H47.887L45.885 94.8243C45.8103 95.0203 45.7076 95.165 45.577 95.2583C45.4463 95.3516 45.2876 95.3983 45.101 95.3983ZM55.1215 95.3703C54.9255 95.3703 54.7715 95.3096 54.6595 95.1883C54.5475 95.067 54.4915 94.899 54.4915 94.6843V89.0983C54.4915 88.8743 54.5475 88.7063 54.6595 88.5943C54.7715 88.473 54.9255 88.4123 55.1215 88.4123C55.3268 88.4123 55.4855 88.473 55.5975 88.5943C55.7095 88.7063 55.7655 88.8743 55.7655 89.0983V94.6843C55.7655 94.899 55.7095 95.067 55.5975 95.1883C55.4948 95.3096 55.3361 95.3703 55.1215 95.3703ZM55.1215 86.9003C54.8695 86.9003 54.6688 86.835 54.5195 86.7043C54.3795 86.5643 54.3095 86.3823 54.3095 86.1583C54.3095 85.9156 54.3795 85.7336 54.5195 85.6123C54.6688 85.4816 54.8695 85.4163 55.1215 85.4163C55.3921 85.4163 55.5928 85.4816 55.7235 85.6123C55.8635 85.7336 55.9335 85.9156 55.9335 86.1583C55.9335 86.3823 55.8635 86.5643 55.7235 86.7043C55.5928 86.835 55.3921 86.9003 55.1215 86.9003ZM60.6417 95.4263C60.0911 95.4263 59.6291 95.3283 59.2557 95.1323C58.8917 94.9363 58.6164 94.6516 58.4297 94.2783C58.2524 93.905 58.1637 93.4476 58.1637 92.9063V89.4623H57.2677C57.0997 89.4623 56.9691 89.4203 56.8757 89.3363C56.7824 89.243 56.7357 89.1216 56.7357 88.9723C56.7357 88.8136 56.7824 88.6923 56.8757 88.6083C56.9691 88.5243 57.0997 88.4823 57.2677 88.4823H58.1637V86.9563C58.1637 86.7416 58.2197 86.583 58.3317 86.4803C58.4437 86.3683 58.6024 86.3123 58.8077 86.3123C59.0131 86.3123 59.1671 86.3683 59.2697 86.4803C59.3817 86.583 59.4377 86.7416 59.4377 86.9563V88.4823H61.1317C61.3091 88.4823 61.4444 88.5243 61.5377 88.6083C61.6311 88.6923 61.6777 88.8136 61.6777 88.9723C61.6777 89.1216 61.6311 89.243 61.5377 89.3363C61.4444 89.4203 61.3091 89.4623 61.1317 89.4623H59.4377V92.7943C59.4377 93.3076 59.5451 93.695 59.7597 93.9563C59.9744 94.2176 60.3291 94.3483 60.8237 94.3483C61.0011 94.3483 61.1504 94.3343 61.2717 94.3063C61.3931 94.269 61.5004 94.2503 61.5937 94.2503C61.6777 94.241 61.7477 94.269 61.8037 94.3343C61.8691 94.3996 61.9017 94.521 61.9017 94.6983C61.9017 94.829 61.8784 94.9503 61.8317 95.0623C61.7944 95.165 61.7151 95.235 61.5937 95.2723C61.4817 95.3096 61.3324 95.3423 61.1457 95.3703C60.9591 95.4076 60.7911 95.4263 60.6417 95.4263ZM63.5707 95.3983C63.3747 95.3983 63.2207 95.3423 63.1087 95.2303C62.9967 95.1183 62.9407 94.955 62.9407 94.7403V85.9763C62.9407 85.7616 62.9967 85.603 63.1087 85.5003C63.2207 85.3883 63.3747 85.3323 63.5707 85.3323C63.776 85.3323 63.9347 85.3883 64.0467 85.5003C64.1587 85.603 64.2147 85.7616 64.2147 85.9763V89.9663H64.0327C64.2287 89.4343 64.546 89.033 64.9847 88.7623C65.4327 88.4916 65.9414 88.3563 66.5107 88.3563C67.0614 88.3563 67.514 88.459 67.8687 88.6643C68.2234 88.8603 68.4894 89.159 68.6667 89.5603C68.844 89.9616 68.9327 90.4656 68.9327 91.0723V94.7403C68.9327 94.955 68.8767 95.1183 68.7647 95.2303C68.662 95.3423 68.508 95.3983 68.3027 95.3983C68.0974 95.3983 67.9387 95.3423 67.8267 95.2303C67.7147 95.1183 67.6587 94.955 67.6587 94.7403V91.1423C67.6587 90.5356 67.542 90.0923 67.3087 89.8123C67.0754 89.5323 66.702 89.3923 66.1887 89.3923C65.5914 89.3923 65.1107 89.579 64.7467 89.9523C64.392 90.3163 64.2147 90.811 64.2147 91.4363V94.7403C64.2147 95.179 64 95.3983 63.5707 95.3983ZM76.1708 97.9183C76.0215 97.9183 75.8955 97.8763 75.7928 97.7923C75.6995 97.7176 75.6435 97.6103 75.6248 97.4703C75.6155 97.3396 75.6435 97.1996 75.7088 97.0503L76.6608 94.8943V95.4263L74.0148 89.2663C73.9495 89.1076 73.9261 88.963 73.9448 88.8323C73.9635 88.7016 74.0241 88.5943 74.1268 88.5103C74.2388 88.4263 74.3881 88.3843 74.5748 88.3843C74.7335 88.3843 74.8595 88.4216 74.9528 88.4963C75.0461 88.571 75.1348 88.7016 75.2188 88.8883L77.4168 94.3063H77.0248L79.2648 88.8883C79.3395 88.7016 79.4281 88.571 79.5308 88.4963C79.6335 88.4216 79.7735 88.3843 79.9508 88.3843C80.1095 88.3843 80.2308 88.4263 80.3148 88.5103C80.4081 88.5943 80.4641 88.7016 80.4828 88.8323C80.5015 88.963 80.4735 89.103 80.3988 89.2523L76.8708 97.4143C76.7775 97.6103 76.6795 97.741 76.5768 97.8063C76.4835 97.881 76.3481 97.9183 76.1708 97.9183ZM84.6239 95.4263C83.9519 95.4263 83.3685 95.2816 82.8739 94.9923C82.3792 94.703 81.9965 94.2923 81.7259 93.7603C81.4552 93.2283 81.3199 92.603 81.3199 91.8843C81.3199 91.343 81.3945 90.8576 81.5439 90.4283C81.7025 89.9896 81.9265 89.6163 82.2159 89.3083C82.5052 89.0003 82.8505 88.767 83.2519 88.6083C83.6625 88.4403 84.1199 88.3563 84.6239 88.3563C85.2959 88.3563 85.8792 88.501 86.3739 88.7903C86.8685 89.0796 87.2512 89.4903 87.5219 90.0223C87.7925 90.545 87.9279 91.1656 87.9279 91.8843C87.9279 92.4256 87.8485 92.9156 87.6899 93.3543C87.5405 93.793 87.3212 94.1663 87.0319 94.4743C86.7425 94.7823 86.3925 95.0203 85.9819 95.1883C85.5805 95.347 85.1279 95.4263 84.6239 95.4263ZM84.6239 94.4183C85.0345 94.4183 85.3892 94.3203 85.6879 94.1243C85.9959 93.9283 86.2292 93.6436 86.3879 93.2703C86.5559 92.897 86.6399 92.435 86.6399 91.8843C86.6399 91.063 86.4579 90.4376 86.0939 90.0083C85.7299 89.579 85.2399 89.3643 84.6239 89.3643C84.2225 89.3643 83.8679 89.4623 83.5599 89.6583C83.2612 89.845 83.0279 90.125 82.8599 90.4983C82.6919 90.8716 82.6079 91.3336 82.6079 91.8843C82.6079 92.7056 82.7899 93.3356 83.1539 93.7743C83.5272 94.2036 84.0172 94.4183 84.6239 94.4183ZM91.9958 95.4263C91.4452 95.4263 90.9832 95.3236 90.6098 95.1183C90.2458 94.913 89.9752 94.6096 89.7978 94.2083C89.6205 93.807 89.5318 93.303 89.5318 92.6963V89.0283C89.5318 88.8136 89.5832 88.655 89.6858 88.5523C89.7978 88.4403 89.9565 88.3843 90.1618 88.3843C90.3672 88.3843 90.5258 88.4403 90.6378 88.5523C90.7498 88.655 90.8058 88.8136 90.8058 89.0283V92.6963C90.8058 93.275 90.9225 93.7043 91.1558 93.9843C91.3892 94.255 91.7578 94.3903 92.2618 94.3903C92.8218 94.3903 93.2745 94.2036 93.6198 93.8303C93.9745 93.457 94.1518 92.9623 94.1518 92.3463V89.0283C94.1518 88.8136 94.2032 88.655 94.3058 88.5523C94.4178 88.4403 94.5765 88.3843 94.7818 88.3843C94.9872 88.3843 95.1458 88.4403 95.2578 88.5523C95.3698 88.655 95.4258 88.8136 95.4258 89.0283V94.7403C95.4258 95.179 95.2205 95.3983 94.8098 95.3983C94.6045 95.3983 94.4458 95.3423 94.3338 95.2303C94.2312 95.1183 94.1798 94.955 94.1798 94.7403V93.5223L94.3618 93.7603C94.1752 94.3016 93.8718 94.717 93.4518 95.0063C93.0412 95.2863 92.5558 95.4263 91.9958 95.4263ZM98.1339 95.3983C97.9192 95.3983 97.7559 95.3423 97.6439 95.2303C97.5319 95.1183 97.4759 94.955 97.4759 94.7403V89.0283C97.4759 88.8136 97.5319 88.655 97.6439 88.5523C97.7559 88.4403 97.9099 88.3843 98.1059 88.3843C98.3019 88.3843 98.4512 88.4403 98.5539 88.5523C98.6659 88.655 98.7219 88.8136 98.7219 89.0283V90.1063H98.5819C98.7312 89.5463 99.0112 89.1216 99.4219 88.8323C99.8325 88.543 100.351 88.3796 100.976 88.3423C101.125 88.333 101.247 88.3703 101.34 88.4543C101.433 88.529 101.485 88.6596 101.494 88.8463C101.503 89.0236 101.461 89.1683 101.368 89.2803C101.275 89.383 101.13 89.4436 100.934 89.4623L100.682 89.4763C100.066 89.5416 99.5899 89.7423 99.2539 90.0783C98.9272 90.4143 98.7639 90.8763 98.7639 91.4643V94.7403C98.7639 94.955 98.7079 95.1183 98.5959 95.2303C98.4932 95.3423 98.3392 95.3983 98.1339 95.3983ZM109.138 95.4263C108.466 95.4263 107.882 95.2816 107.388 94.9923C106.893 94.703 106.51 94.2923 106.24 93.7603C105.969 93.2283 105.834 92.603 105.834 91.8843C105.834 91.343 105.908 90.8576 106.058 90.4283C106.216 89.9896 106.44 89.6163 106.73 89.3083C107.019 89.0003 107.364 88.767 107.766 88.6083C108.176 88.4403 108.634 88.3563 109.138 88.3563C109.81 88.3563 110.393 88.501 110.888 88.7903C111.382 89.0796 111.765 89.4903 112.036 90.0223C112.306 90.545 112.442 91.1656 112.442 91.8843C112.442 92.4256 112.362 92.9156 112.204 93.3543C112.054 93.793 111.835 94.1663 111.546 94.4743C111.256 94.7823 110.906 95.0203 110.496 95.1883C110.094 95.347 109.642 95.4263 109.138 95.4263ZM109.138 94.4183C109.548 94.4183 109.903 94.3203 110.202 94.1243C110.51 93.9283 110.743 93.6436 110.902 93.2703C111.07 92.897 111.154 92.435 111.154 91.8843C111.154 91.063 110.972 90.4376 110.608 90.0083C110.244 89.579 109.754 89.3643 109.138 89.3643C108.736 89.3643 108.382 89.4623 108.074 89.6583C107.775 89.845 107.542 90.125 107.374 90.4983C107.206 90.8716 107.122 91.3336 107.122 91.8843C107.122 92.7056 107.304 93.3356 107.668 93.7743C108.041 94.2036 108.531 94.4183 109.138 94.4183ZM114.732 95.3983C114.517 95.3983 114.354 95.3423 114.242 95.2303C114.13 95.1183 114.074 94.955 114.074 94.7403V89.0283C114.074 88.8136 114.13 88.655 114.242 88.5523C114.354 88.4403 114.508 88.3843 114.704 88.3843C114.9 88.3843 115.049 88.4403 115.152 88.5523C115.264 88.655 115.32 88.8136 115.32 89.0283V90.1063H115.18C115.329 89.5463 115.609 89.1216 116.02 88.8323C116.43 88.543 116.948 88.3796 117.574 88.3423C117.723 88.333 117.844 88.3703 117.938 88.4543C118.031 88.529 118.082 88.6596 118.092 88.8463C118.101 89.0236 118.059 89.1683 117.966 89.2803C117.872 89.383 117.728 89.4436 117.532 89.4623L117.28 89.4763C116.664 89.5416 116.188 89.7423 115.852 90.0783C115.525 90.4143 115.362 90.8763 115.362 91.4643V94.7403C115.362 94.955 115.306 95.1183 115.194 95.2303C115.091 95.3423 114.937 95.3983 114.732 95.3983ZM122.157 97.9463C121.653 97.9463 121.163 97.8903 120.687 97.7783C120.22 97.6663 119.796 97.4936 119.413 97.2603C119.292 97.1856 119.208 97.097 119.161 96.9943C119.124 96.901 119.114 96.803 119.133 96.7003C119.161 96.5976 119.208 96.5043 119.273 96.4203C119.348 96.3456 119.432 96.2943 119.525 96.2663C119.628 96.2476 119.73 96.271 119.833 96.3363C120.244 96.5696 120.636 96.7283 121.009 96.8123C121.382 96.8963 121.737 96.9383 122.073 96.9383C122.736 96.9383 123.23 96.7656 123.557 96.4203C123.893 96.0843 124.061 95.5896 124.061 94.9363V93.4243H124.187C124.056 93.947 123.762 94.3623 123.305 94.6703C122.857 94.9783 122.334 95.1323 121.737 95.1323C121.121 95.1323 120.584 94.9923 120.127 94.7123C119.67 94.423 119.315 94.0263 119.063 93.5223C118.811 93.009 118.685 92.4163 118.685 91.7443C118.685 91.231 118.755 90.769 118.895 90.3583C119.044 89.9383 119.25 89.5836 119.511 89.2943C119.782 88.9956 120.104 88.767 120.477 88.6083C120.85 88.4403 121.27 88.3563 121.737 88.3563C122.344 88.3563 122.871 88.5103 123.319 88.8183C123.767 89.1263 124.056 89.5416 124.187 90.0643L124.033 90.2603V89.0283C124.033 88.8136 124.089 88.655 124.201 88.5523C124.313 88.4403 124.472 88.3843 124.677 88.3843C124.873 88.3843 125.027 88.4403 125.139 88.5523C125.251 88.655 125.307 88.8136 125.307 89.0283V94.7683C125.307 95.823 125.036 96.6163 124.495 97.1483C123.963 97.6803 123.184 97.9463 122.157 97.9463ZM122.017 94.1243C122.437 94.1243 122.796 94.031 123.095 93.8443C123.403 93.6483 123.636 93.373 123.795 93.0183C123.963 92.6543 124.047 92.2296 124.047 91.7443C124.047 91.007 123.865 90.4283 123.501 90.0083C123.137 89.579 122.642 89.3643 122.017 89.3643C121.597 89.3643 121.233 89.4623 120.925 89.6583C120.626 89.845 120.393 90.1156 120.225 90.4703C120.057 90.825 119.973 91.2496 119.973 91.7443C119.973 92.4723 120.155 93.051 120.519 93.4803C120.892 93.9096 121.392 94.1243 122.017 94.1243ZM129.519 95.4263C129.052 95.4263 128.628 95.333 128.245 95.1463C127.872 94.9596 127.578 94.7076 127.363 94.3903C127.158 94.073 127.055 93.7183 127.055 93.3263C127.055 92.8223 127.181 92.4256 127.433 92.1363C127.685 91.847 128.11 91.6416 128.707 91.5203C129.304 91.3896 130.107 91.3243 131.115 91.3243H131.773V92.1363H131.143C130.424 92.1363 129.855 92.169 129.435 92.2343C129.024 92.2996 128.735 92.4163 128.567 92.5843C128.399 92.743 128.315 92.967 128.315 93.2563C128.315 93.6203 128.441 93.919 128.693 94.1523C128.954 94.3856 129.309 94.5023 129.757 94.5023C130.112 94.5023 130.424 94.4183 130.695 94.2503C130.966 94.073 131.18 93.8396 131.339 93.5503C131.498 93.2516 131.577 92.911 131.577 92.5283V90.9183C131.577 90.3676 131.465 89.971 131.241 89.7283C131.017 89.4763 130.639 89.3503 130.107 89.3503C129.799 89.3503 129.482 89.3923 129.155 89.4763C128.828 89.5603 128.488 89.691 128.133 89.8683C127.993 89.9336 127.872 89.957 127.769 89.9383C127.666 89.9103 127.582 89.8543 127.517 89.7703C127.461 89.677 127.428 89.579 127.419 89.4763C127.419 89.3643 127.442 89.257 127.489 89.1543C127.545 89.0516 127.638 88.977 127.769 88.9303C128.18 88.725 128.586 88.5803 128.987 88.4963C129.398 88.403 129.78 88.3563 130.135 88.3563C130.742 88.3563 131.241 88.4543 131.633 88.6503C132.025 88.837 132.319 89.131 132.515 89.5323C132.711 89.9243 132.809 90.4283 132.809 91.0443V94.7403C132.809 94.955 132.758 95.1183 132.655 95.2303C132.552 95.3423 132.403 95.3983 132.207 95.3983C132.02 95.3983 131.871 95.3423 131.759 95.2303C131.656 95.1183 131.605 94.955 131.605 94.7403V93.7463H131.731C131.656 94.0916 131.516 94.3903 131.311 94.6423C131.106 94.8943 130.849 95.0903 130.541 95.2303C130.242 95.361 129.902 95.4263 129.519 95.4263ZM135.444 95.3983C135.248 95.3983 135.094 95.3423 134.982 95.2303C134.87 95.1183 134.814 94.955 134.814 94.7403V89.0283C134.814 88.8136 134.87 88.655 134.982 88.5523C135.094 88.4403 135.248 88.3843 135.444 88.3843C135.64 88.3843 135.789 88.4403 135.892 88.5523C136.004 88.655 136.06 88.8136 136.06 89.0283V90.1763L135.906 89.9663C136.102 89.4343 136.419 89.033 136.858 88.7623C137.306 88.4916 137.814 88.3563 138.384 88.3563C138.934 88.3563 139.387 88.4543 139.742 88.6503C140.096 88.8463 140.362 89.145 140.54 89.5463C140.717 89.9476 140.806 90.4563 140.806 91.0723V94.7403C140.806 94.955 140.75 95.1183 140.638 95.2303C140.535 95.3423 140.381 95.3983 140.176 95.3983C139.97 95.3983 139.812 95.3423 139.7 95.2303C139.588 95.1183 139.532 94.955 139.532 94.7403V91.1423C139.532 90.5356 139.415 90.0923 139.182 89.8123C138.948 89.5323 138.575 89.3923 138.062 89.3923C137.464 89.3923 136.984 89.579 136.62 89.9523C136.265 90.3163 136.088 90.811 136.088 91.4363V94.7403C136.088 95.179 135.873 95.3983 135.444 95.3983ZM143.455 95.3703C143.259 95.3703 143.105 95.3096 142.993 95.1883C142.881 95.067 142.825 94.899 142.825 94.6843V89.0983C142.825 88.8743 142.881 88.7063 142.993 88.5943C143.105 88.473 143.259 88.4123 143.455 88.4123C143.661 88.4123 143.819 88.473 143.931 88.5943C144.043 88.7063 144.099 88.8743 144.099 89.0983V94.6843C144.099 94.899 144.043 95.067 143.931 95.1883C143.829 95.3096 143.67 95.3703 143.455 95.3703ZM143.455 86.9003C143.203 86.9003 143.003 86.835 142.853 86.7043C142.713 86.5643 142.643 86.3823 142.643 86.1583C142.643 85.9156 142.713 85.7336 142.853 85.6123C143.003 85.4816 143.203 85.4163 143.455 85.4163C143.726 85.4163 143.927 85.4816 144.057 85.6123C144.197 85.7336 144.267 85.9156 144.267 86.1583C144.267 86.3823 144.197 86.5643 144.057 86.7043C143.927 86.835 143.726 86.9003 143.455 86.9003ZM146.358 95.3003C146.218 95.3003 146.106 95.2676 146.022 95.2023C145.938 95.137 145.877 95.053 145.84 94.9503C145.812 94.8476 145.812 94.7356 145.84 94.6143C145.877 94.493 145.947 94.3716 146.05 94.2503L149.928 89.1403V89.4623H146.274C146.115 89.4623 145.989 89.4203 145.896 89.3363C145.812 89.243 145.77 89.1216 145.77 88.9723C145.77 88.8136 145.812 88.6923 145.896 88.6083C145.989 88.5243 146.115 88.4823 146.274 88.4823H150.544C150.702 88.4823 150.828 88.515 150.922 88.5803C151.024 88.6456 151.09 88.7296 151.118 88.8323C151.155 88.935 151.16 89.047 151.132 89.1683C151.104 89.2803 151.038 89.3923 150.936 89.5043L147.002 94.6703V94.3203H150.838C151.174 94.3203 151.342 94.4836 151.342 94.8103C151.342 94.9596 151.295 95.081 151.202 95.1743C151.118 95.2583 150.996 95.3003 150.838 95.3003H146.358ZM154.771 95.4263C154.304 95.4263 153.88 95.333 153.497 95.1463C153.124 94.9596 152.83 94.7076 152.615 94.3903C152.41 94.073 152.307 93.7183 152.307 93.3263C152.307 92.8223 152.433 92.4256 152.685 92.1363C152.937 91.847 153.362 91.6416 153.959 91.5203C154.556 91.3896 155.359 91.3243 156.367 91.3243H157.025V92.1363H156.395C155.676 92.1363 155.107 92.169 154.687 92.2343C154.276 92.2996 153.987 92.4163 153.819 92.5843C153.651 92.743 153.567 92.967 153.567 93.2563C153.567 93.6203 153.693 93.919 153.945 94.1523C154.206 94.3856 154.561 94.5023 155.009 94.5023C155.364 94.5023 155.676 94.4183 155.947 94.2503C156.218 94.073 156.432 93.8396 156.591 93.5503C156.75 93.2516 156.829 92.911 156.829 92.5283V90.9183C156.829 90.3676 156.717 89.971 156.493 89.7283C156.269 89.4763 155.891 89.3503 155.359 89.3503C155.051 89.3503 154.734 89.3923 154.407 89.4763C154.08 89.5603 153.74 89.691 153.385 89.8683C153.245 89.9336 153.124 89.957 153.021 89.9383C152.918 89.9103 152.834 89.8543 152.769 89.7703C152.713 89.677 152.68 89.579 152.671 89.4763C152.671 89.3643 152.694 89.257 152.741 89.1543C152.797 89.0516 152.89 88.977 153.021 88.9303C153.432 88.725 153.838 88.5803 154.239 88.4963C154.65 88.403 155.032 88.3563 155.387 88.3563C155.994 88.3563 156.493 88.4543 156.885 88.6503C157.277 88.837 157.571 89.131 157.767 89.5323C157.963 89.9243 158.061 90.4283 158.061 91.0443V94.7403C158.061 94.955 158.01 95.1183 157.907 95.2303C157.804 95.3423 157.655 95.3983 157.459 95.3983C157.272 95.3983 157.123 95.3423 157.011 95.2303C156.908 95.1183 156.857 94.955 156.857 94.7403V93.7463H156.983C156.908 94.0916 156.768 94.3903 156.563 94.6423C156.358 94.8943 156.101 95.0903 155.793 95.2303C155.494 95.361 155.154 95.4263 154.771 95.4263ZM162.894 95.4263C162.343 95.4263 161.881 95.3283 161.508 95.1323C161.144 94.9363 160.868 94.6516 160.682 94.2783C160.504 93.905 160.416 93.4476 160.416 92.9063V89.4623H159.52C159.352 89.4623 159.221 89.4203 159.128 89.3363C159.034 89.243 158.988 89.1216 158.988 88.9723C158.988 88.8136 159.034 88.6923 159.128 88.6083C159.221 88.5243 159.352 88.4823 159.52 88.4823H160.416V86.9563C160.416 86.7416 160.472 86.583 160.584 86.4803C160.696 86.3683 160.854 86.3123 161.06 86.3123C161.265 86.3123 161.419 86.3683 161.522 86.4803C161.634 86.583 161.69 86.7416 161.69 86.9563V88.4823H163.384C163.561 88.4823 163.696 88.5243 163.79 88.6083C163.883 88.6923 163.93 88.8136 163.93 88.9723C163.93 89.1216 163.883 89.243 163.79 89.3363C163.696 89.4203 163.561 89.4623 163.384 89.4623H161.69V92.7943C161.69 93.3076 161.797 93.695 162.012 93.9563C162.226 94.2176 162.581 94.3483 163.076 94.3483C163.253 94.3483 163.402 94.3343 163.524 94.3063C163.645 94.269 163.752 94.2503 163.846 94.2503C163.93 94.241 164 94.269 164.056 94.3343C164.121 94.3996 164.154 94.521 164.154 94.6983C164.154 94.829 164.13 94.9503 164.084 95.0623C164.046 95.165 163.967 95.235 163.846 95.2723C163.734 95.3096 163.584 95.3423 163.398 95.3703C163.211 95.4076 163.043 95.4263 162.894 95.4263ZM165.823 95.3703C165.627 95.3703 165.473 95.3096 165.361 95.1883C165.249 95.067 165.193 94.899 165.193 94.6843V89.0983C165.193 88.8743 165.249 88.7063 165.361 88.5943C165.473 88.473 165.627 88.4123 165.823 88.4123C166.028 88.4123 166.187 88.473 166.299 88.5943C166.411 88.7063 166.467 88.8743 166.467 89.0983V94.6843C166.467 94.899 166.411 95.067 166.299 95.1883C166.196 95.3096 166.037 95.3703 165.823 95.3703ZM165.823 86.9003C165.571 86.9003 165.37 86.835 165.221 86.7043C165.081 86.5643 165.011 86.3823 165.011 86.1583C165.011 85.9156 165.081 85.7336 165.221 85.6123C165.37 85.4816 165.571 85.4163 165.823 85.4163C166.093 85.4163 166.294 85.4816 166.425 85.6123C166.565 85.7336 166.635 85.9156 166.635 86.1583C166.635 86.3823 166.565 86.5643 166.425 86.7043C166.294 86.835 166.093 86.9003 165.823 86.9003ZM171.413 95.4263C170.741 95.4263 170.158 95.2816 169.663 94.9923C169.168 94.703 168.786 94.2923 168.515 93.7603C168.244 93.2283 168.109 92.603 168.109 91.8843C168.109 91.343 168.184 90.8576 168.333 90.4283C168.492 89.9896 168.716 89.6163 169.005 89.3083C169.294 89.0003 169.64 88.767 170.041 88.6083C170.452 88.4403 170.909 88.3563 171.413 88.3563C172.085 88.3563 172.668 88.501 173.163 88.7903C173.658 89.0796 174.04 89.4903 174.311 90.0223C174.582 90.545 174.717 91.1656 174.717 91.8843C174.717 92.4256 174.638 92.9156 174.479 93.3543C174.33 93.793 174.11 94.1663 173.821 94.4743C173.532 94.7823 173.182 95.0203 172.771 95.1883C172.37 95.347 171.917 95.4263 171.413 95.4263ZM171.413 94.4183C171.824 94.4183 172.178 94.3203 172.477 94.1243C172.785 93.9283 173.018 93.6436 173.177 93.2703C173.345 92.897 173.429 92.435 173.429 91.8843C173.429 91.063 173.247 90.4376 172.883 90.0083C172.519 89.579 172.029 89.3643 171.413 89.3643C171.012 89.3643 170.657 89.4623 170.349 89.6583C170.05 89.845 169.817 90.125 169.649 90.4983C169.481 90.8716 169.397 91.3336 169.397 91.8843C169.397 92.7056 169.579 93.3356 169.943 93.7743C170.316 94.2036 170.806 94.4183 171.413 94.4183ZM176.979 95.3983C176.783 95.3983 176.629 95.3423 176.517 95.2303C176.405 95.1183 176.349 94.955 176.349 94.7403V89.0283C176.349 88.8136 176.405 88.655 176.517 88.5523C176.629 88.4403 176.783 88.3843 176.979 88.3843C177.175 88.3843 177.324 88.4403 177.427 88.5523C177.539 88.655 177.595 88.8136 177.595 89.0283V90.1763L177.441 89.9663C177.637 89.4343 177.954 89.033 178.393 88.7623C178.841 88.4916 179.35 88.3563 179.919 88.3563C180.47 88.3563 180.922 88.4543 181.277 88.6503C181.632 88.8463 181.898 89.145 182.075 89.5463C182.252 89.9476 182.341 90.4563 182.341 91.0723V94.7403C182.341 94.955 182.285 95.1183 182.173 95.2303C182.07 95.3423 181.916 95.3983 181.711 95.3983C181.506 95.3983 181.347 95.3423 181.235 95.2303C181.123 95.1183 181.067 94.955 181.067 94.7403V91.1423C181.067 90.5356 180.95 90.0923 180.717 89.8123C180.484 89.5323 180.11 89.3923 179.597 89.3923C179 89.3923 178.519 89.579 178.155 89.9523C177.8 90.3163 177.623 90.811 177.623 91.4363V94.7403C177.623 95.179 177.408 95.3983 176.979 95.3983ZM184.977 95.3563C184.734 95.3563 184.533 95.277 184.375 95.1183C184.216 94.9596 184.137 94.759 184.137 94.5163C184.137 94.2736 184.216 94.0776 184.375 93.9283C184.533 93.779 184.734 93.7043 184.977 93.7043C185.238 93.7043 185.439 93.779 185.579 93.9283C185.728 94.0776 185.803 94.2736 185.803 94.5163C185.803 94.759 185.728 94.9596 185.579 95.1183C185.439 95.277 185.238 95.3563 184.977 95.3563Z" fill="#6C8184"/>
</g>
<defs>
<filter id="filter0_ddii_90_2340" x="0.888979" y="0.0915298" width="329.851" height="153.095" filterUnits="userSpaceOnUse" color-interpolation-filters="sRGB">
<feFlood flood-opacity="0" result="BackgroundImageFix"/>
<feColorMatrix in="SourceAlpha" type="matrix" values="0 0 0 0 0 0 0 0 0 0 0 0 0 0 0 0 0 0 127 0" result="hardAlpha"/>
<feOffset dy="3.70619"/>
<feGaussianBlur stdDeviation="1.85309"/>
<feComposite in2="hardAlpha" operator="out"/>
<feColorMatrix type="matrix" values="0 0 0 0 0 0 0 0 0 0 0 0 0 0 0 0 0 0 0.1 0"/>
<feBlend mode="normal" in2="BackgroundImageFix" result="effect1_dropShadow_90_2340"/>
<feColorMatrix in="SourceAlpha" type="matrix" values="0 0 0 0 0 0 0 0 0 0 0 0 0 0 0 0 0 0 127 0" result="hardAlpha"/>
<feMorphology radius="11.1186" operator="erode" in="SourceAlpha" result="effect2_dropShadow_90_2340"/>
<feOffset dy="11.1186"/>
<feGaussianBlur stdDeviation="14.8248"/>
<feComposite in2="hardAlpha" operator="out"/>
<feColorMatrix type="matrix" values="0 0 0 0 0 0 0 0 0 0 0 0 0 0 0 0 0 0 0.1 0"/>
<feBlend mode="normal" in2="effect1_dropShadow_90_2340" result="effect2_dropShadow_90_2340"/>
<feBlend mode="normal" in="SourceGraphic" in2="effect2_dropShadow_90_2340" result="shape"/>
<feColorMatrix in="SourceAlpha" type="matrix" values="0 0 0 0 0 0 0 0 0 0 0 0 0 0 0 0 0 0 127 0" result="hardAlpha"/>
<feOffset dy="5.55928"/>
<feGaussianBlur stdDeviation="5.55928"/>
<feComposite in2="hardAlpha" operator="arithmetic" k2="-1" k3="1"/>
<feColorMatrix type="matrix" values="0 0 0 0 1 0 0 0 0 1 0 0 0 0 1 0 0 0 0.04 0"/>
<feBlend mode="normal" in2="shape" result="effect3_innerShadow_90_2340"/>
<feColorMatrix in="SourceAlpha" type="matrix" values="0 0 0 0 0 0 0 0 0 0 0 0 0 0 0 0 0 0 127 0" result="hardAlpha"/>
<feOffset dy="0.926547"/>
<feGaussianBlur stdDeviation="0.463274"/>
<feComposite in2="hardAlpha" operator="arithmetic" k2="-1" k3="1"/>
<feColorMatrix type="matrix" values="0 0 0 0 1 0 0 0 0 1 0 0 0 0 1 0 0 0 0.2 0"/>
<feBlend mode="normal" in2="effect3_innerShadow_90_2340" result="effect4_innerShadow_90_2340"/>
</filter>
</defs>
</svg>
