<svg width="330" height="163" viewBox="0 0 330 163" fill="none" xmlns="http://www.w3.org/2000/svg">
<g filter="url(#filter0_ddii_211_820)">
<path d="M19 30.3907C19 18.0247 29.0247 8 41.3907 8H288.609C300.975 8 311 18.0247 311 30.3907V110.609C311 122.975 300.975 133 288.609 133H41.3907C29.0247 133 19 122.975 19 110.609V30.3907Z" fill="#F9FBFB" shape-rendering="crispEdges"/>
<path d="M43.096 41.112C42.8613 41.112 42.68 41.048 42.552 40.92C42.424 40.7813 42.36 40.5893 42.36 40.344V30.376C42.36 30.12 42.424 29.928 42.552 29.8C42.68 29.672 42.8613 29.608 43.096 29.608C43.3413 29.608 43.528 29.672 43.656 29.8C43.784 29.928 43.848 30.12 43.848 30.376V40.344C43.848 40.5893 43.784 40.7813 43.656 40.92C43.5387 41.048 43.352 41.112 43.096 41.112ZM47.0755 41.112C46.8515 41.112 46.6755 41.048 46.5475 40.92C46.4195 40.792 46.3555 40.6053 46.3555 40.36V33.832C46.3555 33.5867 46.4195 33.4053 46.5475 33.288C46.6755 33.16 46.8515 33.096 47.0755 33.096C47.2995 33.096 47.4702 33.16 47.5875 33.288C47.7155 33.4053 47.7795 33.5867 47.7795 33.832V35.144L47.6035 34.904C47.8275 34.296 48.1902 33.8373 48.6915 33.528C49.2035 33.2187 49.7848 33.064 50.4355 33.064C51.0648 33.064 51.5822 33.176 51.9875 33.4C52.3928 33.624 52.6968 33.9653 52.8995 34.424C53.1022 34.8827 53.2035 35.464 53.2035 36.168V40.36C53.2035 40.6053 53.1395 40.792 53.0115 40.92C52.8942 41.048 52.7182 41.112 52.4835 41.112C52.2488 41.112 52.0675 41.048 51.9395 40.92C51.8115 40.792 51.7475 40.6053 51.7475 40.36V36.248C51.7475 35.5547 51.6142 35.048 51.3475 34.728C51.0808 34.408 50.6542 34.248 50.0675 34.248C49.3848 34.248 48.8355 34.4613 48.4195 34.888C48.0142 35.304 47.8115 35.8693 47.8115 36.584V40.36C47.8115 40.8613 47.5662 41.112 47.0755 41.112ZM58.1998 41.144C57.7198 41.144 57.2344 41.0907 56.7438 40.984C56.2638 40.8667 55.8104 40.6693 55.3838 40.392C55.2664 40.3173 55.1811 40.2267 55.1278 40.12C55.0851 40.0027 55.0691 39.8907 55.0798 39.784C55.1011 39.6667 55.1491 39.5653 55.2238 39.48C55.2984 39.3947 55.3891 39.3467 55.4958 39.336C55.6131 39.3147 55.7358 39.3413 55.8638 39.416C56.2798 39.6507 56.6798 39.816 57.0638 39.912C57.4584 40.008 57.8478 40.056 58.2318 40.056C58.8184 40.056 59.2611 39.9493 59.5598 39.736C59.8584 39.5227 60.0078 39.24 60.0078 38.888C60.0078 38.5893 59.9064 38.36 59.7038 38.2C59.5118 38.0293 59.2078 37.9013 58.7918 37.816L57.3038 37.512C56.6424 37.3627 56.1411 37.1173 55.7998 36.776C55.4691 36.424 55.3038 35.976 55.3038 35.432C55.3038 34.952 55.4318 34.536 55.6878 34.184C55.9544 33.8213 56.3224 33.544 56.7918 33.352C57.2611 33.16 57.7998 33.064 58.4078 33.064C58.8771 33.064 59.3198 33.128 59.7358 33.256C60.1624 33.3733 60.5464 33.5547 60.8878 33.8C61.0158 33.8747 61.0958 33.9707 61.1278 34.088C61.1704 34.1947 61.1758 34.3067 61.1438 34.424C61.1224 34.5307 61.0744 34.6213 60.9998 34.696C60.9251 34.7707 60.8291 34.8187 60.7118 34.84C60.5944 34.8507 60.4664 34.8187 60.3278 34.744C60.0184 34.5307 59.6984 34.3813 59.3678 34.296C59.0478 34.2 58.7278 34.152 58.4078 34.152C57.8318 34.152 57.3944 34.264 57.0958 34.488C56.8078 34.712 56.6638 35.0053 56.6638 35.368C56.6638 35.6453 56.7491 35.8747 56.9198 36.056C57.1011 36.2373 57.3838 36.3707 57.7678 36.456L59.2558 36.76C59.9491 36.9093 60.4718 37.1493 60.8238 37.48C61.1758 37.8 61.3518 38.2373 61.3518 38.792C61.3518 39.5173 61.0638 40.0933 60.4878 40.52C59.9224 40.936 59.1598 41.144 58.1998 41.144ZM63.9661 41.08C63.7421 41.08 63.5661 41.0107 63.4381 40.872C63.3101 40.7333 63.2461 40.5413 63.2461 40.296V33.912C63.2461 33.656 63.3101 33.464 63.4381 33.336C63.5661 33.1973 63.7421 33.128 63.9661 33.128C64.2008 33.128 64.3821 33.1973 64.5101 33.336C64.6381 33.464 64.7021 33.656 64.7021 33.912V40.296C64.7021 40.5413 64.6381 40.7333 64.5101 40.872C64.3928 41.0107 64.2115 41.08 63.9661 41.08ZM63.9661 31.4C63.6781 31.4 63.4488 31.3253 63.2781 31.176C63.1181 31.016 63.0381 30.808 63.0381 30.552C63.0381 30.2747 63.1181 30.0667 63.2781 29.928C63.4488 29.7787 63.6781 29.704 63.9661 29.704C64.2755 29.704 64.5048 29.7787 64.6541 29.928C64.8141 30.0667 64.8941 30.2747 64.8941 30.552C64.8941 30.808 64.8141 31.016 64.6541 31.176C64.5048 31.3253 64.2755 31.4 63.9661 31.4ZM70.547 44.024C69.971 44.024 69.411 43.96 68.867 43.832C68.3337 43.704 67.8483 43.5067 67.411 43.24C67.2723 43.1547 67.1763 43.0533 67.123 42.936C67.0803 42.8293 67.0697 42.7173 67.091 42.6C67.123 42.4827 67.1763 42.376 67.251 42.28C67.3363 42.1947 67.4323 42.136 67.539 42.104C67.6563 42.0827 67.7737 42.1093 67.891 42.184C68.3603 42.4507 68.8083 42.632 69.235 42.728C69.6617 42.824 70.067 42.872 70.451 42.872C71.2083 42.872 71.7737 42.6747 72.147 42.28C72.531 41.896 72.723 41.3307 72.723 40.584V38.856H72.867C72.7177 39.4533 72.3817 39.928 71.859 40.28C71.347 40.632 70.7497 40.808 70.067 40.808C69.363 40.808 68.7497 40.648 68.227 40.328C67.7043 39.9973 67.299 39.544 67.011 38.968C66.723 38.3813 66.579 37.704 66.579 36.936C66.579 36.3493 66.659 35.8213 66.819 35.352C66.9897 34.872 67.2243 34.4667 67.523 34.136C67.8323 33.7947 68.2003 33.5333 68.627 33.352C69.0537 33.16 69.5337 33.064 70.067 33.064C70.7603 33.064 71.363 33.24 71.875 33.592C72.387 33.944 72.7177 34.4187 72.867 35.016L72.691 35.24V33.832C72.691 33.5867 72.755 33.4053 72.883 33.288C73.011 33.16 73.1923 33.096 73.427 33.096C73.651 33.096 73.827 33.16 73.955 33.288C74.083 33.4053 74.147 33.5867 74.147 33.832V40.392C74.147 41.5973 73.8377 42.504 73.219 43.112C72.611 43.72 71.7203 44.024 70.547 44.024ZM70.387 39.656C70.867 39.656 71.2777 39.5493 71.619 39.336C71.971 39.112 72.2377 38.7973 72.419 38.392C72.611 37.976 72.707 37.4907 72.707 36.936C72.707 36.0933 72.499 35.432 72.083 34.952C71.667 34.4613 71.1017 34.216 70.387 34.216C69.907 34.216 69.491 34.328 69.139 34.552C68.7977 34.7653 68.531 35.0747 68.339 35.48C68.147 35.8853 68.051 36.3707 68.051 36.936C68.051 37.768 68.259 38.4293 68.675 38.92C69.1017 39.4107 69.6723 39.656 70.387 39.656ZM77.2005 41.112C76.9765 41.112 76.8005 41.048 76.6725 40.92C76.5445 40.792 76.4805 40.6053 76.4805 40.36V30.344C76.4805 30.0987 76.5445 29.9173 76.6725 29.8C76.8005 29.672 76.9765 29.608 77.2005 29.608C77.4352 29.608 77.6165 29.672 77.7445 29.8C77.8725 29.9173 77.9365 30.0987 77.9365 30.344V34.904H77.7285C77.9525 34.296 78.3152 33.8373 78.8165 33.528C79.3285 33.2187 79.9098 33.064 80.5605 33.064C81.1898 33.064 81.7072 33.1813 82.1125 33.416C82.5178 33.64 82.8218 33.9813 83.0245 34.44C83.2272 34.8987 83.3285 35.4747 83.3285 36.168V40.36C83.3285 40.6053 83.2645 40.792 83.1365 40.92C83.0192 41.048 82.8432 41.112 82.6085 41.112C82.3738 41.112 82.1925 41.048 82.0645 40.92C81.9365 40.792 81.8725 40.6053 81.8725 40.36V36.248C81.8725 35.5547 81.7392 35.048 81.4725 34.728C81.2058 34.408 80.7792 34.248 80.1925 34.248C79.5098 34.248 78.9605 34.4613 78.5445 34.888C78.1392 35.304 77.9365 35.8693 77.9365 36.584V40.36C77.9365 40.8613 77.6912 41.112 77.2005 41.112ZM88.8688 41.144C88.2394 41.144 87.7114 41.032 87.2848 40.808C86.8688 40.584 86.5541 40.2587 86.3408 39.832C86.1381 39.4053 86.0368 38.8827 86.0368 38.264V34.328H85.0128C84.8208 34.328 84.6714 34.28 84.5648 34.184C84.4581 34.0773 84.4047 33.9387 84.4047 33.768C84.4047 33.5867 84.4581 33.448 84.5648 33.352C84.6714 33.256 84.8208 33.208 85.0128 33.208H86.0368V31.464C86.0368 31.2187 86.1008 31.0373 86.2288 30.92C86.3568 30.792 86.5381 30.728 86.7728 30.728C87.0074 30.728 87.1834 30.792 87.3008 30.92C87.4288 31.0373 87.4928 31.2187 87.4928 31.464V33.208H89.4288C89.6314 33.208 89.7861 33.256 89.8928 33.352C89.9994 33.448 90.0528 33.5867 90.0528 33.768C90.0528 33.9387 89.9994 34.0773 89.8928 34.184C89.7861 34.28 89.6314 34.328 89.4288 34.328H87.4928V38.136C87.4928 38.7227 87.6154 39.1653 87.8608 39.464C88.1061 39.7627 88.5114 39.912 89.0768 39.912C89.2794 39.912 89.4501 39.896 89.5888 39.864C89.7274 39.8213 89.8501 39.8 89.9568 39.8C90.0528 39.7893 90.1328 39.8213 90.1968 39.896C90.2714 39.9707 90.3088 40.1093 90.3088 40.312C90.3088 40.4613 90.2821 40.6 90.2288 40.728C90.1861 40.8453 90.0954 40.9253 89.9568 40.968C89.8288 41.0107 89.6581 41.048 89.4448 41.08C89.2314 41.1227 89.0394 41.144 88.8688 41.144ZM94.0591 41.144C93.5791 41.144 93.0938 41.0907 92.6031 40.984C92.1231 40.8667 91.6698 40.6693 91.2431 40.392C91.1258 40.3173 91.0405 40.2267 90.9871 40.12C90.9445 40.0027 90.9285 39.8907 90.9391 39.784C90.9605 39.6667 91.0085 39.5653 91.0831 39.48C91.1578 39.3947 91.2485 39.3467 91.3551 39.336C91.4725 39.3147 91.5951 39.3413 91.7231 39.416C92.1391 39.6507 92.5391 39.816 92.9231 39.912C93.3178 40.008 93.7071 40.056 94.0911 40.056C94.6778 40.056 95.1205 39.9493 95.4191 39.736C95.7178 39.5227 95.8671 39.24 95.8671 38.888C95.8671 38.5893 95.7658 38.36 95.5631 38.2C95.3711 38.0293 95.0671 37.9013 94.6511 37.816L93.1631 37.512C92.5018 37.3627 92.0005 37.1173 91.6591 36.776C91.3285 36.424 91.1631 35.976 91.1631 35.432C91.1631 34.952 91.2911 34.536 91.5471 34.184C91.8138 33.8213 92.1818 33.544 92.6511 33.352C93.1205 33.16 93.6591 33.064 94.2671 33.064C94.7365 33.064 95.1791 33.128 95.5951 33.256C96.0218 33.3733 96.4058 33.5547 96.7471 33.8C96.8751 33.8747 96.9551 33.9707 96.9871 34.088C97.0298 34.1947 97.0351 34.3067 97.0031 34.424C96.9818 34.5307 96.9338 34.6213 96.8591 34.696C96.7845 34.7707 96.6885 34.8187 96.5711 34.84C96.4538 34.8507 96.3258 34.8187 96.1871 34.744C95.8778 34.5307 95.5578 34.3813 95.2271 34.296C94.9071 34.2 94.5871 34.152 94.2671 34.152C93.6911 34.152 93.2538 34.264 92.9551 34.488C92.6671 34.712 92.5231 35.0053 92.5231 35.368C92.5231 35.6453 92.6085 35.8747 92.7791 36.056C92.9605 36.2373 93.2431 36.3707 93.6271 36.456L95.1151 36.76C95.8085 36.9093 96.3311 37.1493 96.6831 37.48C97.0351 37.8 97.2111 38.2373 97.2111 38.792C97.2111 39.5173 96.9231 40.0933 96.3471 40.52C95.7818 40.936 95.0191 41.144 94.0591 41.144Z" fill="#0F1415"/>
<path d="M46.124 68.6853C45.4707 68.6853 44.892 68.6013 44.388 68.4333C43.8933 68.256 43.478 67.9993 43.142 67.6633C42.806 67.318 42.5493 66.8933 42.372 66.3893C42.204 65.876 42.12 65.2833 42.12 64.6113V59.2493C42.12 59.0253 42.176 58.862 42.288 58.7593C42.4 58.6473 42.5587 58.5913 42.764 58.5913C42.9787 58.5913 43.142 58.6473 43.254 58.7593C43.366 58.862 43.422 59.0253 43.422 59.2493V64.5693C43.422 65.568 43.6507 66.3147 44.108 66.8093C44.5653 67.2947 45.2373 67.5373 46.124 67.5373C47.0107 67.5373 47.6827 67.2947 48.14 66.8093C48.5973 66.3147 48.826 65.568 48.826 64.5693V59.2493C48.826 59.0253 48.882 58.862 48.994 58.7593C49.106 58.6473 49.2647 58.5913 49.47 58.5913C49.6753 58.5913 49.834 58.6473 49.946 58.7593C50.058 58.862 50.114 59.0253 50.114 59.2493V64.6113C50.114 65.498 49.96 66.2447 49.652 66.8513C49.3533 67.458 48.9053 67.9153 48.308 68.2233C47.72 68.5313 46.992 68.6853 46.124 68.6853ZM52.8922 68.6573C52.6962 68.6573 52.5422 68.6013 52.4302 68.4893C52.3182 68.3773 52.2622 68.214 52.2622 67.9993V62.2873C52.2622 62.0727 52.3182 61.914 52.4302 61.8113C52.5422 61.6993 52.6962 61.6433 52.8922 61.6433C53.0882 61.6433 53.2376 61.6993 53.3402 61.8113C53.4522 61.914 53.5082 62.0727 53.5082 62.2873V63.4353L53.3542 63.2253C53.5502 62.6933 53.8676 62.292 54.3062 62.0213C54.7542 61.7507 55.2629 61.6153 55.8322 61.6153C56.3829 61.6153 56.8356 61.7133 57.1902 61.9093C57.5449 62.1053 57.8109 62.404 57.9882 62.8053C58.1656 63.2067 58.2542 63.7153 58.2542 64.3313V67.9993C58.2542 68.214 58.1982 68.3773 58.0862 68.4893C57.9836 68.6013 57.8296 68.6573 57.6242 68.6573C57.4189 68.6573 57.2602 68.6013 57.1482 68.4893C57.0362 68.3773 56.9802 68.214 56.9802 67.9993V64.4013C56.9802 63.7947 56.8636 63.3513 56.6302 63.0713C56.3969 62.7913 56.0236 62.6513 55.5102 62.6513C54.9129 62.6513 54.4322 62.838 54.0682 63.2113C53.7136 63.5753 53.5362 64.07 53.5362 64.6953V67.9993C53.5362 68.438 53.3216 68.6573 52.8922 68.6573ZM62.878 68.6853C62.2806 68.6853 61.7533 68.5453 61.296 68.2653C60.848 67.976 60.498 67.5653 60.246 67.0333C59.994 66.492 59.868 65.862 59.868 65.1433C59.868 64.4153 59.9893 63.79 60.232 63.2673C60.484 62.7353 60.834 62.3293 61.282 62.0493C61.7393 61.76 62.2713 61.6153 62.878 61.6153C63.4846 61.6153 64.0073 61.7693 64.446 62.0773C64.8846 62.376 65.1786 62.7773 65.328 63.2813H65.174V59.2353C65.174 59.0207 65.2253 58.862 65.328 58.7593C65.44 58.6473 65.5986 58.5913 65.804 58.5913C66.0093 58.5913 66.168 58.6473 66.28 58.7593C66.392 58.862 66.448 59.0207 66.448 59.2353V67.9993C66.448 68.214 66.392 68.3773 66.28 68.4893C66.168 68.6013 66.0093 68.6573 65.804 68.6573C65.608 68.6573 65.454 68.6013 65.342 68.4893C65.23 68.3773 65.174 68.214 65.174 67.9993V66.7253L65.328 66.9773C65.188 67.5 64.894 67.9153 64.446 68.2233C64.0073 68.5313 63.4846 68.6853 62.878 68.6853ZM63.172 67.6773C63.5826 67.6773 63.9373 67.5793 64.236 67.3833C64.544 67.1873 64.7773 66.9027 64.936 66.5293C65.104 66.156 65.188 65.694 65.188 65.1433C65.188 64.322 65.006 63.6967 64.642 63.2673C64.278 62.838 63.788 62.6233 63.172 62.6233C62.7706 62.6233 62.416 62.7213 62.108 62.9173C61.8093 63.104 61.576 63.384 61.408 63.7573C61.24 64.1307 61.156 64.5927 61.156 65.1433C61.156 65.9647 61.338 66.5947 61.702 67.0333C62.0753 67.4627 62.5653 67.6773 63.172 67.6773ZM71.6407 68.6853C70.9034 68.6853 70.2687 68.5453 69.7367 68.2653C69.2141 67.976 68.8081 67.57 68.5187 67.0473C68.2294 66.5153 68.0847 65.89 68.0847 65.1713C68.0847 64.462 68.2247 63.8413 68.5047 63.3093C68.7941 62.7773 69.1861 62.362 69.6807 62.0633C70.1847 61.7647 70.7587 61.6153 71.4027 61.6153C71.8601 61.6153 72.2707 61.6947 72.6347 61.8533C73.0081 62.0027 73.3254 62.222 73.5867 62.5113C73.8481 62.8007 74.0441 63.1553 74.1747 63.5753C74.3147 63.986 74.3847 64.4527 74.3847 64.9753C74.3847 65.1247 74.3381 65.2413 74.2447 65.3253C74.1607 65.4 74.0347 65.4373 73.8667 65.4373H69.0787V64.6253H73.5447L73.3067 64.8213C73.3067 64.336 73.2321 63.9253 73.0827 63.5893C72.9427 63.244 72.7327 62.9827 72.4527 62.8053C72.1821 62.628 71.8414 62.5393 71.4307 62.5393C70.9827 62.5393 70.6001 62.6467 70.2827 62.8613C69.9654 63.0667 69.7227 63.3607 69.5547 63.7433C69.3867 64.1167 69.3027 64.5507 69.3027 65.0453V65.1293C69.3027 65.9693 69.5034 66.604 69.9047 67.0333C70.3061 67.4627 70.8847 67.6773 71.6407 67.6773C71.9394 67.6773 72.2427 67.64 72.5507 67.5653C72.8681 67.4907 73.1714 67.3553 73.4607 67.1593C73.6007 67.0753 73.7267 67.038 73.8387 67.0473C73.9601 67.0473 74.0581 67.0847 74.1327 67.1593C74.2074 67.2247 74.2541 67.3087 74.2727 67.4113C74.2914 67.5047 74.2774 67.6073 74.2307 67.7193C74.1841 67.8313 74.0954 67.9293 73.9647 68.0133C73.6567 68.228 73.2881 68.396 72.8587 68.5173C72.4387 68.6293 72.0327 68.6853 71.6407 68.6853ZM76.6273 68.6573C76.4126 68.6573 76.2493 68.6013 76.1373 68.4893C76.0253 68.3773 75.9693 68.214 75.9693 67.9993V62.2873C75.9693 62.0727 76.0253 61.914 76.1373 61.8113C76.2493 61.6993 76.4033 61.6433 76.5993 61.6433C76.7953 61.6433 76.9446 61.6993 77.0473 61.8113C77.1593 61.914 77.2153 62.0727 77.2153 62.2873V63.3653H77.0753C77.2246 62.8053 77.5046 62.3807 77.9153 62.0913C78.3259 61.802 78.8439 61.6387 79.4693 61.6013C79.6186 61.592 79.7399 61.6293 79.8333 61.7133C79.9266 61.788 79.9779 61.9187 79.9873 62.1053C79.9966 62.2827 79.9546 62.4273 79.8613 62.5393C79.7679 62.642 79.6233 62.7027 79.4273 62.7213L79.1753 62.7353C78.5593 62.8007 78.0833 63.0013 77.7473 63.3373C77.4206 63.6733 77.2573 64.1353 77.2573 64.7233V67.9993C77.2573 68.214 77.2013 68.3773 77.0893 68.4893C76.9866 68.6013 76.8326 68.6573 76.6273 68.6573ZM83.3662 68.6853C82.9462 68.6853 82.5215 68.6387 82.0922 68.5453C81.6722 68.4427 81.2755 68.27 80.9022 68.0273C80.7995 67.962 80.7249 67.8827 80.6782 67.7893C80.6409 67.6867 80.6269 67.5887 80.6362 67.4953C80.6549 67.3927 80.6969 67.304 80.7622 67.2293C80.8275 67.1547 80.9069 67.1127 81.0002 67.1033C81.1029 67.0847 81.2102 67.108 81.3222 67.1733C81.6862 67.3787 82.0362 67.5233 82.3722 67.6073C82.7175 67.6913 83.0582 67.7333 83.3942 67.7333C83.9075 67.7333 84.2949 67.64 84.5562 67.4533C84.8175 67.2667 84.9482 67.0193 84.9482 66.7113C84.9482 66.45 84.8595 66.2493 84.6822 66.1093C84.5142 65.96 84.2482 65.848 83.8842 65.7733L82.5822 65.5073C82.0035 65.3767 81.5649 65.162 81.2662 64.8633C80.9769 64.5553 80.8322 64.1633 80.8322 63.6873C80.8322 63.2673 80.9442 62.9033 81.1682 62.5953C81.4015 62.278 81.7235 62.0353 82.1342 61.8673C82.5449 61.6993 83.0162 61.6153 83.5482 61.6153C83.9589 61.6153 84.3462 61.6713 84.7102 61.7833C85.0835 61.886 85.4195 62.0447 85.7182 62.2593C85.8302 62.3247 85.9002 62.4087 85.9282 62.5113C85.9655 62.6047 85.9702 62.7027 85.9422 62.8053C85.9235 62.8987 85.8815 62.978 85.8162 63.0433C85.7509 63.1087 85.6669 63.1507 85.5642 63.1693C85.4615 63.1787 85.3495 63.1507 85.2282 63.0853C84.9575 62.8987 84.6775 62.768 84.3882 62.6933C84.1082 62.6093 83.8282 62.5673 83.5482 62.5673C83.0442 62.5673 82.6615 62.6653 82.4002 62.8613C82.1482 63.0573 82.0222 63.314 82.0222 63.6313C82.0222 63.874 82.0969 64.0747 82.2462 64.2333C82.4049 64.392 82.6522 64.5087 82.9882 64.5833L84.2902 64.8493C84.8969 64.98 85.3542 65.19 85.6622 65.4793C85.9702 65.7593 86.1242 66.142 86.1242 66.6273C86.1242 67.262 85.8722 67.766 85.3682 68.1393C84.8735 68.5033 84.2062 68.6853 83.3662 68.6853ZM90.5414 68.6853C89.9907 68.6853 89.5287 68.5873 89.1554 68.3913C88.7914 68.1953 88.5161 67.9107 88.3294 67.5373C88.1521 67.164 88.0634 66.7067 88.0634 66.1653V62.7213H87.1674C86.9994 62.7213 86.8687 62.6793 86.7754 62.5953C86.6821 62.502 86.6354 62.3807 86.6354 62.2313C86.6354 62.0727 86.6821 61.9513 86.7754 61.8673C86.8687 61.7833 86.9994 61.7413 87.1674 61.7413H88.0634V60.2153C88.0634 60.0007 88.1194 59.842 88.2314 59.7393C88.3434 59.6273 88.5021 59.5713 88.7074 59.5713C88.9127 59.5713 89.0667 59.6273 89.1694 59.7393C89.2814 59.842 89.3374 60.0007 89.3374 60.2153V61.7413H91.0314C91.2087 61.7413 91.3441 61.7833 91.4374 61.8673C91.5307 61.9513 91.5774 62.0727 91.5774 62.2313C91.5774 62.3807 91.5307 62.502 91.4374 62.5953C91.3441 62.6793 91.2087 62.7213 91.0314 62.7213H89.3374V66.0533C89.3374 66.5667 89.4447 66.954 89.6594 67.2153C89.8741 67.4767 90.2287 67.6073 90.7234 67.6073C90.9007 67.6073 91.0501 67.5933 91.1714 67.5653C91.2927 67.528 91.4001 67.5093 91.4934 67.5093C91.5774 67.5 91.6474 67.528 91.7034 67.5933C91.7687 67.6587 91.8014 67.78 91.8014 67.9573C91.8014 68.088 91.7781 68.2093 91.7314 68.3213C91.6941 68.424 91.6147 68.494 91.4934 68.5313C91.3814 68.5687 91.2321 68.6013 91.0454 68.6293C90.8587 68.6667 90.6907 68.6853 90.5414 68.6853ZM94.901 68.6853C94.4343 68.6853 94.0096 68.592 93.627 68.4053C93.2536 68.2187 92.9596 67.9667 92.745 67.6493C92.5396 67.332 92.437 66.9773 92.437 66.5853C92.437 66.0813 92.563 65.6847 92.815 65.3953C93.067 65.106 93.4916 64.9007 94.089 64.7793C94.6863 64.6487 95.489 64.5833 96.497 64.5833H97.155V65.3953H96.525C95.8063 65.3953 95.237 65.428 94.817 65.4933C94.4063 65.5587 94.117 65.6753 93.949 65.8433C93.781 66.002 93.697 66.226 93.697 66.5153C93.697 66.8793 93.823 67.178 94.075 67.4113C94.3363 67.6447 94.691 67.7613 95.139 67.7613C95.4936 67.7613 95.8063 67.6773 96.077 67.5093C96.3476 67.332 96.5623 67.0987 96.721 66.8093C96.8796 66.5107 96.959 66.17 96.959 65.7873V64.1773C96.959 63.6267 96.847 63.23 96.623 62.9873C96.399 62.7353 96.021 62.6093 95.489 62.6093C95.181 62.6093 94.8636 62.6513 94.537 62.7353C94.2103 62.8193 93.8696 62.95 93.515 63.1273C93.375 63.1927 93.2536 63.216 93.151 63.1973C93.0483 63.1693 92.9643 63.1133 92.899 63.0293C92.843 62.936 92.8103 62.838 92.801 62.7353C92.801 62.6233 92.8243 62.516 92.871 62.4133C92.927 62.3107 93.0203 62.236 93.151 62.1893C93.5616 61.984 93.9676 61.8393 94.369 61.7553C94.7796 61.662 95.1623 61.6153 95.517 61.6153C96.1236 61.6153 96.623 61.7133 97.015 61.9093C97.407 62.096 97.701 62.39 97.897 62.7913C98.093 63.1833 98.191 63.6873 98.191 64.3033V67.9993C98.191 68.214 98.1396 68.3773 98.037 68.4893C97.9343 68.6013 97.785 68.6573 97.589 68.6573C97.4023 68.6573 97.253 68.6013 97.141 68.4893C97.0383 68.3773 96.987 68.214 96.987 67.9993V67.0053H97.113C97.0383 67.3507 96.8983 67.6493 96.693 67.9013C96.4876 68.1533 96.231 68.3493 95.923 68.4893C95.6243 68.62 95.2836 68.6853 94.901 68.6853ZM100.826 68.6573C100.63 68.6573 100.476 68.6013 100.364 68.4893C100.252 68.3773 100.196 68.214 100.196 67.9993V62.2873C100.196 62.0727 100.252 61.914 100.364 61.8113C100.476 61.6993 100.63 61.6433 100.826 61.6433C101.022 61.6433 101.171 61.6993 101.274 61.8113C101.386 61.914 101.442 62.0727 101.442 62.2873V63.4353L101.288 63.2253C101.484 62.6933 101.801 62.292 102.24 62.0213C102.688 61.7507 103.196 61.6153 103.766 61.6153C104.316 61.6153 104.769 61.7133 105.124 61.9093C105.478 62.1053 105.744 62.404 105.922 62.8053C106.099 63.2067 106.188 63.7153 106.188 64.3313V67.9993C106.188 68.214 106.132 68.3773 106.02 68.4893C105.917 68.6013 105.763 68.6573 105.558 68.6573C105.352 68.6573 105.194 68.6013 105.082 68.4893C104.97 68.3773 104.914 68.214 104.914 67.9993V64.4013C104.914 63.7947 104.797 63.3513 104.564 63.0713C104.33 62.7913 103.957 62.6513 103.444 62.6513C102.846 62.6513 102.366 62.838 102.002 63.2113C101.647 63.5753 101.47 64.07 101.47 64.6953V67.9993C101.47 68.438 101.255 68.6573 100.826 68.6573ZM110.812 68.6853C110.214 68.6853 109.687 68.5453 109.23 68.2653C108.782 67.976 108.432 67.5653 108.18 67.0333C107.928 66.492 107.802 65.862 107.802 65.1433C107.802 64.4153 107.923 63.79 108.166 63.2673C108.418 62.7353 108.768 62.3293 109.216 62.0493C109.673 61.76 110.205 61.6153 110.812 61.6153C111.418 61.6153 111.941 61.7693 112.38 62.0773C112.818 62.376 113.112 62.7773 113.262 63.2813H113.108V59.2353C113.108 59.0207 113.159 58.862 113.262 58.7593C113.374 58.6473 113.532 58.5913 113.738 58.5913C113.943 58.5913 114.102 58.6473 114.214 58.7593C114.326 58.862 114.382 59.0207 114.382 59.2353V67.9993C114.382 68.214 114.326 68.3773 114.214 68.4893C114.102 68.6013 113.943 68.6573 113.738 68.6573C113.542 68.6573 113.388 68.6013 113.276 68.4893C113.164 68.3773 113.108 68.214 113.108 67.9993V66.7253L113.262 66.9773C113.122 67.5 112.828 67.9153 112.38 68.2233C111.941 68.5313 111.418 68.6853 110.812 68.6853ZM111.106 67.6773C111.516 67.6773 111.871 67.5793 112.17 67.3833C112.478 67.1873 112.711 66.9027 112.87 66.5293C113.038 66.156 113.122 65.694 113.122 65.1433C113.122 64.322 112.94 63.6967 112.576 63.2673C112.212 62.838 111.722 62.6233 111.106 62.6233C110.704 62.6233 110.35 62.7213 110.042 62.9173C109.743 63.104 109.51 63.384 109.342 63.7573C109.174 64.1307 109.09 64.5927 109.09 65.1433C109.09 65.9647 109.272 66.5947 109.636 67.0333C110.009 67.4627 110.499 67.6773 111.106 67.6773ZM120.705 68.6573C120.509 68.6573 120.355 68.6013 120.243 68.4893C120.131 68.3773 120.075 68.214 120.075 67.9993V59.2353C120.075 59.0207 120.131 58.862 120.243 58.7593C120.355 58.6473 120.509 58.5913 120.705 58.5913C120.91 58.5913 121.069 58.6473 121.181 58.7593C121.293 58.862 121.349 59.0207 121.349 59.2353V63.2253H121.167C121.363 62.6933 121.68 62.292 122.119 62.0213C122.567 61.7507 123.075 61.6153 123.645 61.6153C124.195 61.6153 124.648 61.718 125.003 61.9233C125.357 62.1193 125.623 62.418 125.801 62.8193C125.978 63.2207 126.067 63.7247 126.067 64.3313V67.9993C126.067 68.214 126.011 68.3773 125.899 68.4893C125.796 68.6013 125.642 68.6573 125.437 68.6573C125.231 68.6573 125.073 68.6013 124.961 68.4893C124.849 68.3773 124.793 68.214 124.793 67.9993V64.4013C124.793 63.7947 124.676 63.3513 124.443 63.0713C124.209 62.7913 123.836 62.6513 123.323 62.6513C122.725 62.6513 122.245 62.838 121.881 63.2113C121.526 63.5753 121.349 64.07 121.349 64.6953V67.9993C121.349 68.438 121.134 68.6573 120.705 68.6573ZM130.984 68.6853C130.312 68.6853 129.729 68.5407 129.234 68.2513C128.74 67.962 128.357 67.5513 128.086 67.0193C127.816 66.4873 127.68 65.862 127.68 65.1433C127.68 64.602 127.755 64.1167 127.904 63.6873C128.063 63.2487 128.287 62.8753 128.576 62.5673C128.866 62.2593 129.211 62.026 129.612 61.8673C130.023 61.6993 130.48 61.6153 130.984 61.6153C131.656 61.6153 132.24 61.76 132.734 62.0493C133.229 62.3387 133.612 62.7493 133.882 63.2813C134.153 63.804 134.288 64.4247 134.288 65.1433C134.288 65.6847 134.209 66.1747 134.05 66.6133C133.901 67.052 133.682 67.4253 133.392 67.7333C133.103 68.0413 132.753 68.2793 132.342 68.4473C131.941 68.606 131.488 68.6853 130.984 68.6853ZM130.984 67.6773C131.395 67.6773 131.75 67.5793 132.048 67.3833C132.356 67.1873 132.59 66.9027 132.748 66.5293C132.916 66.156 133 65.694 133 65.1433C133 64.322 132.818 63.6967 132.454 63.2673C132.09 62.838 131.6 62.6233 130.984 62.6233C130.583 62.6233 130.228 62.7213 129.92 62.9173C129.622 63.104 129.388 63.384 129.22 63.7573C129.052 64.1307 128.968 64.5927 128.968 65.1433C128.968 65.9647 129.15 66.5947 129.514 67.0333C129.888 67.4627 130.378 67.6773 130.984 67.6773ZM138.233 68.6573C138.056 68.6573 137.902 68.6153 137.771 68.5313C137.64 68.438 137.538 68.2887 137.463 68.0833L135.377 62.5253C135.312 62.348 135.293 62.194 135.321 62.0633C135.349 61.9327 135.414 61.83 135.517 61.7553C135.62 61.6807 135.755 61.6433 135.923 61.6433C136.082 61.6433 136.208 61.6807 136.301 61.7553C136.394 61.83 136.474 61.9653 136.539 62.1613L138.443 67.5373H138.107L140.067 62.1333C140.132 61.9653 140.216 61.844 140.319 61.7693C140.431 61.6853 140.566 61.6433 140.725 61.6433C140.893 61.6433 141.033 61.6853 141.145 61.7693C141.257 61.844 141.336 61.9653 141.383 62.1333L143.315 67.5373H142.993L144.925 62.1333C144.99 61.9467 145.074 61.8207 145.177 61.7553C145.28 61.6807 145.406 61.6433 145.555 61.6433C145.723 61.6433 145.849 61.6853 145.933 61.7693C146.017 61.8533 146.064 61.9653 146.073 62.1053C146.092 62.236 146.073 62.376 146.017 62.5253L143.931 68.0833C143.866 68.2793 143.763 68.424 143.623 68.5173C143.492 68.6107 143.338 68.6573 143.161 68.6573C142.984 68.6573 142.825 68.6107 142.685 68.5173C142.554 68.424 142.452 68.2793 142.377 68.0833L140.375 62.5953H141.019L139.017 68.0833C138.942 68.2793 138.84 68.424 138.709 68.5173C138.578 68.6107 138.42 68.6573 138.233 68.6573ZM152.058 68.6573C151.871 68.6573 151.727 68.6013 151.624 68.4893C151.521 68.3773 151.47 68.228 151.47 68.0413V59.2073C151.47 59.0113 151.521 58.862 151.624 58.7593C151.736 58.6473 151.885 58.5913 152.072 58.5913C152.24 58.5913 152.371 58.624 152.464 58.6893C152.567 58.7547 152.66 58.8667 152.744 59.0253L156.496 66.0673H156.062L159.814 59.0253C159.898 58.8667 159.987 58.7547 160.08 58.6893C160.173 58.624 160.304 58.5913 160.472 58.5913C160.659 58.5913 160.803 58.6473 160.906 58.7593C161.009 58.862 161.06 59.0113 161.06 59.2073V68.0413C161.06 68.228 161.009 68.3773 160.906 68.4893C160.813 68.6013 160.668 68.6573 160.472 68.6573C160.276 68.6573 160.127 68.6013 160.024 68.4893C159.931 68.3773 159.884 68.228 159.884 68.0413V60.4953H160.192L156.832 66.7813C156.757 66.9027 156.678 66.996 156.594 67.0613C156.519 67.1173 156.412 67.1453 156.272 67.1453C156.141 67.1453 156.029 67.1127 155.936 67.0473C155.852 66.982 155.777 66.8933 155.712 66.7813L152.31 60.4813H152.646V68.0413C152.646 68.228 152.595 68.3773 152.492 68.4893C152.399 68.6013 152.254 68.6573 152.058 68.6573ZM164.86 71.1773C164.71 71.1773 164.584 71.1353 164.482 71.0513C164.388 70.9767 164.332 70.8693 164.314 70.7293C164.304 70.5987 164.332 70.4587 164.398 70.3093L165.35 68.1533V68.6853L162.704 62.5253C162.638 62.3667 162.615 62.222 162.634 62.0913C162.652 61.9607 162.713 61.8533 162.816 61.7693C162.928 61.6853 163.077 61.6433 163.264 61.6433C163.422 61.6433 163.548 61.6807 163.642 61.7553C163.735 61.83 163.824 61.9607 163.908 62.1473L166.106 67.5653H165.714L167.954 62.1473C168.028 61.9607 168.117 61.83 168.22 61.7553C168.322 61.6807 168.462 61.6433 168.64 61.6433C168.798 61.6433 168.92 61.6853 169.004 61.7693C169.097 61.8533 169.153 61.9607 169.172 62.0913C169.19 62.222 169.162 62.362 169.088 62.5113L165.56 70.6733C165.466 70.8693 165.368 71 165.266 71.0653C165.172 71.14 165.037 71.1773 164.86 71.1773ZM171.392 68.5593C171.168 68.5593 170.995 68.4987 170.874 68.3773C170.753 68.256 170.692 68.0833 170.692 67.8593V59.3893C170.692 59.1653 170.753 58.9927 170.874 58.8713C170.995 58.75 171.168 58.6893 171.392 58.6893H174.094C175.709 58.6893 176.95 59.114 177.818 59.9633C178.695 60.8033 179.134 62.0213 179.134 63.6173C179.134 64.4107 179.022 65.1153 178.798 65.7313C178.574 66.3473 178.247 66.8653 177.818 67.2853C177.389 67.696 176.861 68.0133 176.236 68.2373C175.62 68.452 174.906 68.5593 174.094 68.5593H171.392ZM171.994 67.4533H174.01C174.645 67.4533 175.195 67.374 175.662 67.2153C176.129 67.0567 176.516 66.8187 176.824 66.5013C177.141 66.184 177.379 65.7873 177.538 65.3113C177.697 64.826 177.776 64.2613 177.776 63.6173C177.776 62.3387 177.459 61.382 176.824 60.7473C176.199 60.1127 175.261 59.7953 174.01 59.7953H171.994V67.4533ZM183.153 68.6853C182.686 68.6853 182.262 68.592 181.879 68.4053C181.506 68.2187 181.212 67.9667 180.997 67.6493C180.792 67.332 180.689 66.9773 180.689 66.5853C180.689 66.0813 180.815 65.6847 181.067 65.3953C181.319 65.106 181.744 64.9007 182.341 64.7793C182.938 64.6487 183.741 64.5833 184.749 64.5833H185.407V65.3953H184.777C184.058 65.3953 183.489 65.428 183.069 65.4933C182.658 65.5587 182.369 65.6753 182.201 65.8433C182.033 66.002 181.949 66.226 181.949 66.5153C181.949 66.8793 182.075 67.178 182.327 67.4113C182.588 67.6447 182.943 67.7613 183.391 67.7613C183.746 67.7613 184.058 67.6773 184.329 67.5093C184.6 67.332 184.814 67.0987 184.973 66.8093C185.132 66.5107 185.211 66.17 185.211 65.7873V64.1773C185.211 63.6267 185.099 63.23 184.875 62.9873C184.651 62.7353 184.273 62.6093 183.741 62.6093C183.433 62.6093 183.116 62.6513 182.789 62.7353C182.462 62.8193 182.122 62.95 181.767 63.1273C181.627 63.1927 181.506 63.216 181.403 63.1973C181.3 63.1693 181.216 63.1133 181.151 63.0293C181.095 62.936 181.062 62.838 181.053 62.7353C181.053 62.6233 181.076 62.516 181.123 62.4133C181.179 62.3107 181.272 62.236 181.403 62.1893C181.814 61.984 182.22 61.8393 182.621 61.7553C183.032 61.662 183.414 61.6153 183.769 61.6153C184.376 61.6153 184.875 61.7133 185.267 61.9093C185.659 62.096 185.953 62.39 186.149 62.7913C186.345 63.1833 186.443 63.6873 186.443 64.3033V67.9993C186.443 68.214 186.392 68.3773 186.289 68.4893C186.186 68.6013 186.037 68.6573 185.841 68.6573C185.654 68.6573 185.505 68.6013 185.393 68.4893C185.29 68.3773 185.239 68.214 185.239 67.9993V67.0053H185.365C185.29 67.3507 185.15 67.6493 184.945 67.9013C184.74 68.1533 184.483 68.3493 184.175 68.4893C183.876 68.62 183.536 68.6853 183.153 68.6853ZM189.947 71.1773C189.798 71.1773 189.672 71.1353 189.569 71.0513C189.476 70.9767 189.42 70.8693 189.401 70.7293C189.392 70.5987 189.42 70.4587 189.485 70.3093L190.437 68.1533V68.6853L187.791 62.5253C187.726 62.3667 187.703 62.222 187.721 62.0913C187.74 61.9607 187.801 61.8533 187.903 61.7693C188.015 61.6853 188.165 61.6433 188.351 61.6433C188.51 61.6433 188.636 61.6807 188.729 61.7553C188.823 61.83 188.911 61.9607 188.995 62.1473L191.193 67.5653H190.801L193.041 62.1473C193.116 61.9607 193.205 61.83 193.307 61.7553C193.41 61.6807 193.55 61.6433 193.727 61.6433C193.886 61.6433 194.007 61.6853 194.091 61.7693C194.185 61.8533 194.241 61.9607 194.259 62.0913C194.278 62.222 194.25 62.362 194.175 62.5113L190.647 70.6733C190.554 70.8693 190.456 71 190.353 71.0653C190.26 71.14 190.125 71.1773 189.947 71.1773ZM199.994 68.6853C199.06 68.6853 198.253 68.48 197.572 68.0693C196.89 67.6493 196.358 67.0613 195.976 66.3053C195.602 65.54 195.416 64.644 195.416 63.6173C195.416 62.8427 195.523 62.1473 195.738 61.5313C195.952 60.906 196.256 60.374 196.648 59.9353C197.049 59.4873 197.53 59.1467 198.09 58.9133C198.659 58.68 199.294 58.5633 199.994 58.5633C200.927 58.5633 201.734 58.7687 202.416 59.1793C203.097 59.59 203.624 60.1733 203.998 60.9293C204.371 61.6853 204.558 62.5767 204.558 63.6033C204.558 64.378 204.45 65.078 204.236 65.7033C204.021 66.3287 203.713 66.8653 203.312 67.3133C202.92 67.7613 202.444 68.102 201.884 68.3353C201.324 68.5687 200.694 68.6853 199.994 68.6853ZM199.994 67.5373C200.666 67.5373 201.24 67.3833 201.716 67.0753C202.192 66.7673 202.556 66.3193 202.808 65.7313C203.069 65.1433 203.2 64.4387 203.2 63.6173C203.2 62.376 202.92 61.4147 202.36 60.7333C201.809 60.052 201.02 59.7113 199.994 59.7113C199.322 59.7113 198.743 59.8653 198.258 60.1733C197.782 60.472 197.418 60.9153 197.166 61.5033C196.914 62.082 196.788 62.7867 196.788 63.6173C196.788 64.8493 197.068 65.8107 197.628 66.5013C198.188 67.192 198.976 67.5373 199.994 67.5373ZM207.043 68.6573C206.847 68.6573 206.693 68.6013 206.581 68.4893C206.469 68.3773 206.413 68.214 206.413 67.9993V62.2873C206.413 62.0727 206.469 61.914 206.581 61.8113C206.693 61.6993 206.847 61.6433 207.043 61.6433C207.239 61.6433 207.388 61.6993 207.491 61.8113C207.603 61.914 207.659 62.0727 207.659 62.2873V63.4353L207.505 63.2253C207.701 62.6933 208.018 62.292 208.457 62.0213C208.905 61.7507 209.413 61.6153 209.983 61.6153C210.533 61.6153 210.986 61.7133 211.341 61.9093C211.695 62.1053 211.961 62.404 212.139 62.8053C212.316 63.2067 212.405 63.7153 212.405 64.3313V67.9993C212.405 68.214 212.349 68.3773 212.237 68.4893C212.134 68.6013 211.98 68.6573 211.775 68.6573C211.569 68.6573 211.411 68.6013 211.299 68.4893C211.187 68.3773 211.131 68.214 211.131 67.9993V64.4013C211.131 63.7947 211.014 63.3513 210.781 63.0713C210.547 62.7913 210.174 62.6513 209.661 62.6513C209.063 62.6513 208.583 62.838 208.219 63.2113C207.864 63.5753 207.687 64.07 207.687 64.6953V67.9993C207.687 68.438 207.472 68.6573 207.043 68.6573ZM217.574 68.6853C216.837 68.6853 216.202 68.5453 215.67 68.2653C215.148 67.976 214.742 67.57 214.452 67.0473C214.163 66.5153 214.018 65.89 214.018 65.1713C214.018 64.462 214.158 63.8413 214.438 63.3093C214.728 62.7773 215.12 62.362 215.614 62.0633C216.118 61.7647 216.692 61.6153 217.336 61.6153C217.794 61.6153 218.204 61.6947 218.568 61.8533C218.942 62.0027 219.259 62.222 219.52 62.5113C219.782 62.8007 219.978 63.1553 220.108 63.5753C220.248 63.986 220.318 64.4527 220.318 64.9753C220.318 65.1247 220.272 65.2413 220.178 65.3253C220.094 65.4 219.968 65.4373 219.8 65.4373H215.012V64.6253H219.478L219.24 64.8213C219.24 64.336 219.166 63.9253 219.016 63.5893C218.876 63.244 218.666 62.9827 218.386 62.8053C218.116 62.628 217.775 62.5393 217.364 62.5393C216.916 62.5393 216.534 62.6467 216.216 62.8613C215.899 63.0667 215.656 63.3607 215.488 63.7433C215.32 64.1167 215.236 64.5507 215.236 65.0453V65.1293C215.236 65.9693 215.437 66.604 215.838 67.0333C216.24 67.4627 216.818 67.6773 217.574 67.6773C217.873 67.6773 218.176 67.64 218.484 67.5653C218.802 67.4907 219.105 67.3553 219.394 67.1593C219.534 67.0753 219.66 67.038 219.772 67.0473C219.894 67.0473 219.992 67.0847 220.066 67.1593C220.141 67.2247 220.188 67.3087 220.206 67.4113C220.225 67.5047 220.211 67.6073 220.164 67.7193C220.118 67.8313 220.029 67.9293 219.898 68.0133C219.59 68.228 219.222 68.396 218.792 68.5173C218.372 68.6293 217.966 68.6853 217.574 68.6853ZM222.249 61.6013C222.155 61.7227 222.053 61.7927 221.941 61.8113C221.838 61.83 221.745 61.8113 221.661 61.7553C221.586 61.6993 221.544 61.6153 221.535 61.5033C221.525 61.3913 221.572 61.27 221.675 61.1393C221.833 60.9433 221.941 60.7427 221.997 60.5373C222.062 60.3227 222.095 60.1313 222.095 59.9633L222.151 60.2853C221.889 60.2853 221.675 60.2107 221.507 60.0613C221.348 59.912 221.269 59.7113 221.269 59.4593C221.269 59.2167 221.343 59.0207 221.493 58.8713C221.642 58.7127 221.843 58.6333 222.095 58.6333C222.347 58.6333 222.547 58.722 222.697 58.8993C222.855 59.0673 222.935 59.3193 222.935 59.6553C222.935 59.8513 222.911 60.0613 222.865 60.2853C222.827 60.5 222.762 60.7193 222.669 60.9433C222.575 61.1673 222.435 61.3867 222.249 61.6013ZM226.702 68.6853C226.282 68.6853 225.857 68.6387 225.428 68.5453C225.008 68.4427 224.611 68.27 224.238 68.0273C224.135 67.962 224.061 67.8827 224.014 67.7893C223.977 67.6867 223.963 67.5887 223.972 67.4953C223.991 67.3927 224.033 67.304 224.098 67.2293C224.163 67.1547 224.243 67.1127 224.336 67.1033C224.439 67.0847 224.546 67.108 224.658 67.1733C225.022 67.3787 225.372 67.5233 225.708 67.6073C226.053 67.6913 226.394 67.7333 226.73 67.7333C227.243 67.7333 227.631 67.64 227.892 67.4533C228.153 67.2667 228.284 67.0193 228.284 66.7113C228.284 66.45 228.195 66.2493 228.018 66.1093C227.85 65.96 227.584 65.848 227.22 65.7733L225.918 65.5073C225.339 65.3767 224.901 65.162 224.602 64.8633C224.313 64.5553 224.168 64.1633 224.168 63.6873C224.168 63.2673 224.28 62.9033 224.504 62.5953C224.737 62.278 225.059 62.0353 225.47 61.8673C225.881 61.6993 226.352 61.6153 226.884 61.6153C227.295 61.6153 227.682 61.6713 228.046 61.7833C228.419 61.886 228.755 62.0447 229.054 62.2593C229.166 62.3247 229.236 62.4087 229.264 62.5113C229.301 62.6047 229.306 62.7027 229.278 62.8053C229.259 62.8987 229.217 62.978 229.152 63.0433C229.087 63.1087 229.003 63.1507 228.9 63.1693C228.797 63.1787 228.685 63.1507 228.564 63.0853C228.293 62.8987 228.013 62.768 227.724 62.6933C227.444 62.6093 227.164 62.5673 226.884 62.5673C226.38 62.5673 225.997 62.6653 225.736 62.8613C225.484 63.0573 225.358 63.314 225.358 63.6313C225.358 63.874 225.433 64.0747 225.582 64.2333C225.741 64.392 225.988 64.5087 226.324 64.5833L227.626 64.8493C228.233 64.98 228.69 65.19 228.998 65.4793C229.306 65.7593 229.46 66.142 229.46 66.6273C229.46 67.262 229.208 67.766 228.704 68.1393C228.209 68.5033 227.542 68.6853 226.702 68.6853ZM44.192 89.6853C43.7253 89.6853 43.3007 89.592 42.918 89.4053C42.5447 89.2187 42.2507 88.9667 42.036 88.6493C41.8307 88.332 41.728 87.9773 41.728 87.5853C41.728 87.0813 41.854 86.6847 42.106 86.3953C42.358 86.106 42.7827 85.9007 43.38 85.7793C43.9773 85.6487 44.78 85.5833 45.788 85.5833H46.446V86.3953H45.816C45.0973 86.3953 44.528 86.428 44.108 86.4933C43.6973 86.5587 43.408 86.6753 43.24 86.8433C43.072 87.002 42.988 87.226 42.988 87.5153C42.988 87.8793 43.114 88.178 43.366 88.4113C43.6273 88.6447 43.982 88.7613 44.43 88.7613C44.7847 88.7613 45.0973 88.6773 45.368 88.5093C45.6387 88.332 45.8533 88.0987 46.012 87.8093C46.1707 87.5107 46.25 87.17 46.25 86.7873V85.1773C46.25 84.6267 46.138 84.23 45.914 83.9873C45.69 83.7353 45.312 83.6093 44.78 83.6093C44.472 83.6093 44.1547 83.6513 43.828 83.7353C43.5013 83.8193 43.1607 83.95 42.806 84.1273C42.666 84.1927 42.5447 84.216 42.442 84.1973C42.3393 84.1693 42.2553 84.1133 42.19 84.0293C42.134 83.936 42.1013 83.838 42.092 83.7353C42.092 83.6233 42.1153 83.516 42.162 83.4133C42.218 83.3107 42.3113 83.236 42.442 83.1893C42.8527 82.984 43.2587 82.8393 43.66 82.7553C44.0707 82.662 44.4533 82.6153 44.808 82.6153C45.4147 82.6153 45.914 82.7133 46.306 82.9093C46.698 83.096 46.992 83.39 47.188 83.7913C47.384 84.1833 47.482 84.6873 47.482 85.3033V88.9993C47.482 89.214 47.4307 89.3773 47.328 89.4893C47.2253 89.6013 47.076 89.6573 46.88 89.6573C46.6933 89.6573 46.544 89.6013 46.432 89.4893C46.3293 89.3773 46.278 89.214 46.278 88.9993V88.0053H46.404C46.3293 88.3507 46.1893 88.6493 45.984 88.9013C45.7787 89.1533 45.522 89.3493 45.214 89.4893C44.9153 89.62 44.5747 89.6853 44.192 89.6853ZM50.1168 89.6573C49.9208 89.6573 49.7668 89.6013 49.6548 89.4893C49.5428 89.3773 49.4868 89.214 49.4868 88.9993V83.2873C49.4868 83.0727 49.5428 82.914 49.6548 82.8113C49.7668 82.6993 49.9208 82.6433 50.1168 82.6433C50.3128 82.6433 50.4622 82.6993 50.5648 82.8113C50.6768 82.914 50.7328 83.0727 50.7328 83.2873V84.4353L50.5788 84.2253C50.7748 83.6933 51.0922 83.292 51.5308 83.0213C51.9788 82.7507 52.4875 82.6153 53.0568 82.6153C53.6075 82.6153 54.0602 82.7133 54.4148 82.9093C54.7695 83.1053 55.0355 83.404 55.2128 83.8053C55.3902 84.2067 55.4788 84.7153 55.4788 85.3313V88.9993C55.4788 89.214 55.4228 89.3773 55.3108 89.4893C55.2082 89.6013 55.0542 89.6573 54.8488 89.6573C54.6435 89.6573 54.4848 89.6013 54.3728 89.4893C54.2608 89.3773 54.2048 89.214 54.2048 88.9993V85.4013C54.2048 84.7947 54.0882 84.3513 53.8548 84.0713C53.6215 83.7913 53.2482 83.6513 52.7348 83.6513C52.1375 83.6513 51.6568 83.838 51.2928 84.2113C50.9382 84.5753 50.7608 85.07 50.7608 85.6953V88.9993C50.7608 89.438 50.5462 89.6573 50.1168 89.6573ZM59.6686 89.6853C59.2019 89.6853 58.7772 89.592 58.3946 89.4053C58.0212 89.2187 57.7272 88.9667 57.5126 88.6493C57.3072 88.332 57.2046 87.9773 57.2046 87.5853C57.2046 87.0813 57.3306 86.6847 57.5826 86.3953C57.8346 86.106 58.2592 85.9007 58.8566 85.7793C59.4539 85.6487 60.2566 85.5833 61.2646 85.5833H61.9226V86.3953H61.2926C60.5739 86.3953 60.0046 86.428 59.5846 86.4933C59.1739 86.5587 58.8846 86.6753 58.7166 86.8433C58.5486 87.002 58.4646 87.226 58.4646 87.5153C58.4646 87.8793 58.5906 88.178 58.8426 88.4113C59.1039 88.6447 59.4586 88.7613 59.9066 88.7613C60.2612 88.7613 60.5739 88.6773 60.8446 88.5093C61.1152 88.332 61.3299 88.0987 61.4886 87.8093C61.6472 87.5107 61.7266 87.17 61.7266 86.7873V85.1773C61.7266 84.6267 61.6146 84.23 61.3906 83.9873C61.1666 83.7353 60.7886 83.6093 60.2566 83.6093C59.9486 83.6093 59.6312 83.6513 59.3046 83.7353C58.9779 83.8193 58.6372 83.95 58.2826 84.1273C58.1426 84.1927 58.0212 84.216 57.9186 84.1973C57.8159 84.1693 57.7319 84.1133 57.6666 84.0293C57.6106 83.936 57.5779 83.838 57.5686 83.7353C57.5686 83.6233 57.5919 83.516 57.6386 83.4133C57.6946 83.3107 57.7879 83.236 57.9186 83.1893C58.3292 82.984 58.7352 82.8393 59.1366 82.7553C59.5472 82.662 59.9299 82.6153 60.2846 82.6153C60.8912 82.6153 61.3906 82.7133 61.7826 82.9093C62.1746 83.096 62.4686 83.39 62.6646 83.7913C62.8606 84.1833 62.9586 84.6873 62.9586 85.3033V88.9993C62.9586 89.214 62.9072 89.3773 62.8046 89.4893C62.7019 89.6013 62.5526 89.6573 62.3566 89.6573C62.1699 89.6573 62.0206 89.6013 61.9086 89.4893C61.8059 89.3773 61.7546 89.214 61.7546 88.9993V88.0053H61.8806C61.8059 88.3507 61.6659 88.6493 61.4606 88.9013C61.2552 89.1533 60.9986 89.3493 60.6906 89.4893C60.3919 89.62 60.0512 89.6853 59.6686 89.6853ZM67.1054 89.6853C66.4054 89.6853 65.8734 89.48 65.5094 89.0693C65.1454 88.6493 64.9634 88.0473 64.9634 87.2633V80.2353C64.9634 80.0207 65.0194 79.862 65.1314 79.7593C65.2434 79.6473 65.3974 79.5913 65.5934 79.5913C65.7987 79.5913 65.9574 79.6473 66.0694 79.7593C66.1814 79.862 66.2374 80.0207 66.2374 80.2353V87.1653C66.2374 87.6507 66.3354 88.0147 66.5314 88.2573C66.7367 88.4907 67.0261 88.6073 67.3994 88.6073C67.4834 88.6073 67.5581 88.6073 67.6234 88.6073C67.6887 88.598 67.7541 88.5887 67.8194 88.5793C67.9221 88.57 67.9967 88.598 68.0434 88.6633C68.0901 88.7287 68.1134 88.8593 68.1134 89.0553C68.1134 89.2327 68.0714 89.3727 67.9874 89.4753C67.9127 89.5687 67.7867 89.6293 67.6094 89.6573C67.5254 89.6667 67.4414 89.6713 67.3574 89.6713C67.2734 89.6807 67.1894 89.6853 67.1054 89.6853ZM70.5783 92.1773C70.4289 92.1773 70.3029 92.1353 70.2003 92.0513C70.1069 91.9767 70.0509 91.8693 70.0323 91.7293C70.0229 91.5987 70.0509 91.4587 70.1163 91.3093L71.0683 89.1533V89.6853L68.4223 83.5253C68.3569 83.3667 68.3336 83.222 68.3523 83.0913C68.3709 82.9607 68.4316 82.8533 68.5343 82.7693C68.6463 82.6853 68.7956 82.6433 68.9823 82.6433C69.1409 82.6433 69.2669 82.6807 69.3603 82.7553C69.4536 82.83 69.5423 82.9607 69.6263 83.1473L71.8243 88.5653H71.4323L73.6723 83.1473C73.7469 82.9607 73.8356 82.83 73.9383 82.7553C74.0409 82.6807 74.1809 82.6433 74.3583 82.6433C74.5169 82.6433 74.6383 82.6853 74.7223 82.7693C74.8156 82.8533 74.8716 82.9607 74.8903 83.0913C74.9089 83.222 74.8809 83.362 74.8063 83.5113L71.2783 91.6733C71.1849 91.8693 71.0869 92 70.9843 92.0653C70.8909 92.14 70.7556 92.1773 70.5783 92.1773ZM79.2211 89.6853C78.6704 89.6853 78.2084 89.5873 77.8351 89.3913C77.4711 89.1953 77.1958 88.9107 77.0091 88.5373C76.8318 88.164 76.7431 87.7067 76.7431 87.1653V83.7213H75.8471C75.6791 83.7213 75.5484 83.6793 75.4551 83.5953C75.3618 83.502 75.3151 83.3807 75.3151 83.2313C75.3151 83.0727 75.3618 82.9513 75.4551 82.8673C75.5484 82.7833 75.6791 82.7413 75.8471 82.7413H76.7431V81.2153C76.7431 81.0007 76.7991 80.842 76.9111 80.7393C77.0231 80.6273 77.1818 80.5713 77.3871 80.5713C77.5924 80.5713 77.7464 80.6273 77.8491 80.7393C77.9611 80.842 78.0171 81.0007 78.0171 81.2153V82.7413H79.7111C79.8884 82.7413 80.0238 82.7833 80.1171 82.8673C80.2104 82.9513 80.2571 83.0727 80.2571 83.2313C80.2571 83.3807 80.2104 83.502 80.1171 83.5953C80.0238 83.6793 79.8884 83.7213 79.7111 83.7213H78.0171V87.0533C78.0171 87.5667 78.1244 87.954 78.3391 88.2153C78.5538 88.4767 78.9084 88.6073 79.4031 88.6073C79.5804 88.6073 79.7298 88.5933 79.8511 88.5653C79.9724 88.528 80.0798 88.5093 80.1731 88.5093C80.2571 88.5 80.3271 88.528 80.3831 88.5933C80.4484 88.6587 80.4811 88.78 80.4811 88.9573C80.4811 89.088 80.4578 89.2093 80.4111 89.3213C80.3738 89.424 80.2944 89.494 80.1731 89.5313C80.0611 89.5687 79.9118 89.6013 79.7251 89.6293C79.5384 89.6667 79.3704 89.6853 79.2211 89.6853ZM82.15 89.6293C81.954 89.6293 81.8 89.5687 81.688 89.4473C81.576 89.326 81.52 89.158 81.52 88.9433V83.3573C81.52 83.1333 81.576 82.9653 81.688 82.8533C81.8 82.732 81.954 82.6713 82.15 82.6713C82.3554 82.6713 82.514 82.732 82.626 82.8533C82.738 82.9653 82.794 83.1333 82.794 83.3573V88.9433C82.794 89.158 82.738 89.326 82.626 89.4473C82.5234 89.5687 82.3647 89.6293 82.15 89.6293ZM82.15 81.1593C81.898 81.1593 81.6974 81.094 81.548 80.9633C81.408 80.8233 81.338 80.6413 81.338 80.4173C81.338 80.1747 81.408 79.9927 81.548 79.8713C81.6974 79.7407 81.898 79.6753 82.15 79.6753C82.4207 79.6753 82.6214 79.7407 82.752 79.8713C82.892 79.9927 82.962 80.1747 82.962 80.4173C82.962 80.6413 82.892 80.8233 82.752 80.9633C82.6214 81.094 82.4207 81.1593 82.15 81.1593ZM87.7963 89.6853C87.1056 89.6853 86.5083 89.5407 86.0043 89.2513C85.5003 88.9527 85.113 88.5373 84.8423 88.0053C84.5716 87.464 84.4363 86.8293 84.4363 86.1013C84.4363 85.56 84.511 85.0747 84.6603 84.6453C84.819 84.216 85.043 83.852 85.3323 83.5533C85.6216 83.2453 85.9716 83.012 86.3823 82.8533C86.8023 82.6947 87.2736 82.6153 87.7963 82.6153C88.123 82.6153 88.4683 82.6667 88.8323 82.7693C89.1963 82.872 89.5323 83.04 89.8403 83.2733C89.943 83.348 90.0083 83.4367 90.0363 83.5393C90.0643 83.6327 90.0643 83.7307 90.0363 83.8333C90.0176 83.936 89.971 84.0247 89.8963 84.0993C89.831 84.1647 89.7423 84.202 89.6303 84.2113C89.5276 84.2207 89.4156 84.188 89.2943 84.1133C89.0703 83.9453 88.8323 83.824 88.5803 83.7493C88.3376 83.6747 88.1043 83.6373 87.8803 83.6373C87.535 83.6373 87.227 83.6933 86.9563 83.8053C86.695 83.9173 86.471 84.0807 86.2843 84.2953C86.107 84.5007 85.9716 84.7573 85.8783 85.0653C85.785 85.364 85.7383 85.714 85.7383 86.1153C85.7383 86.9087 85.925 87.534 86.2983 87.9913C86.6716 88.4393 87.199 88.6633 87.8803 88.6633C88.1043 88.6633 88.3376 88.6307 88.5803 88.5653C88.823 88.4907 89.061 88.3693 89.2943 88.2013C89.4156 88.1267 89.5276 88.0987 89.6303 88.1173C89.733 88.1267 89.817 88.1687 89.8823 88.2433C89.957 88.3087 90.0036 88.3927 90.0223 88.4953C90.041 88.5887 90.0316 88.6867 89.9943 88.7893C89.9663 88.892 89.901 88.976 89.7983 89.0413C89.4996 89.2653 89.173 89.4287 88.8183 89.5313C88.4636 89.634 88.123 89.6853 87.7963 89.6853ZM93.7021 89.6853C93.2821 89.6853 92.8575 89.6387 92.4281 89.5453C92.0081 89.4427 91.6115 89.27 91.2381 89.0273C91.1355 88.962 91.0608 88.8827 91.0141 88.7893C90.9768 88.6867 90.9628 88.5887 90.9721 88.4953C90.9908 88.3927 91.0328 88.304 91.0981 88.2293C91.1635 88.1547 91.2428 88.1127 91.3361 88.1033C91.4388 88.0847 91.5461 88.108 91.6581 88.1733C92.0221 88.3787 92.3721 88.5233 92.7081 88.6073C93.0535 88.6913 93.3941 88.7333 93.7301 88.7333C94.2435 88.7333 94.6308 88.64 94.8921 88.4533C95.1535 88.2667 95.2841 88.0193 95.2841 87.7113C95.2841 87.45 95.1955 87.2493 95.0181 87.1093C94.8501 86.96 94.5841 86.848 94.2201 86.7733L92.9181 86.5073C92.3395 86.3767 91.9008 86.162 91.6021 85.8633C91.3128 85.5553 91.1681 85.1633 91.1681 84.6873C91.1681 84.2673 91.2801 83.9033 91.5041 83.5953C91.7375 83.278 92.0595 83.0353 92.4701 82.8673C92.8808 82.6993 93.3521 82.6153 93.8841 82.6153C94.2948 82.6153 94.6821 82.6713 95.0461 82.7833C95.4195 82.886 95.7555 83.0447 96.0541 83.2593C96.1661 83.3247 96.2361 83.4087 96.2641 83.5113C96.3015 83.6047 96.3061 83.7027 96.2781 83.8053C96.2595 83.8987 96.2175 83.978 96.1521 84.0433C96.0868 84.1087 96.0028 84.1507 95.9001 84.1693C95.7975 84.1787 95.6855 84.1507 95.5641 84.0853C95.2935 83.8987 95.0135 83.768 94.7241 83.6933C94.4441 83.6093 94.1641 83.5673 93.8841 83.5673C93.3801 83.5673 92.9975 83.6653 92.7361 83.8613C92.4841 84.0573 92.3581 84.314 92.3581 84.6313C92.3581 84.874 92.4328 85.0747 92.5821 85.2333C92.7408 85.392 92.9881 85.5087 93.3241 85.5833L94.6261 85.8493C95.2328 85.98 95.6901 86.19 95.9981 86.4793C96.3061 86.7593 96.4601 87.142 96.4601 87.6273C96.4601 88.262 96.2081 88.766 95.7041 89.1393C95.2095 89.5033 94.5421 89.6853 93.7021 89.6853ZM102.398 89.6573C102.202 89.6573 102.048 89.6013 101.936 89.4893C101.824 89.3773 101.768 89.214 101.768 88.9993V80.2353C101.768 80.0207 101.824 79.862 101.936 79.7593C102.048 79.6473 102.202 79.5913 102.398 79.5913C102.603 79.5913 102.762 79.6473 102.874 79.7593C102.986 79.862 103.042 80.0207 103.042 80.2353V84.2253H102.86C103.056 83.6933 103.373 83.292 103.812 83.0213C104.26 82.7507 104.769 82.6153 105.338 82.6153C105.889 82.6153 106.341 82.718 106.696 82.9233C107.051 83.1193 107.317 83.418 107.494 83.8193C107.671 84.2207 107.76 84.7247 107.76 85.3313V88.9993C107.76 89.214 107.704 89.3773 107.592 89.4893C107.489 89.6013 107.335 89.6573 107.13 89.6573C106.925 89.6573 106.766 89.6013 106.654 89.4893C106.542 89.3773 106.486 89.214 106.486 88.9993V85.4013C106.486 84.7947 106.369 84.3513 106.136 84.0713C105.903 83.7913 105.529 83.6513 105.016 83.6513C104.419 83.6513 103.938 83.838 103.574 84.2113C103.219 84.5753 103.042 85.07 103.042 85.6953V88.9993C103.042 89.438 102.827 89.6573 102.398 89.6573ZM112.93 89.6853C112.192 89.6853 111.558 89.5453 111.026 89.2653C110.503 88.976 110.097 88.57 109.808 88.0473C109.518 87.5153 109.374 86.89 109.374 86.1713C109.374 85.462 109.514 84.8413 109.794 84.3093C110.083 83.7773 110.475 83.362 110.97 83.0633C111.474 82.7647 112.048 82.6153 112.692 82.6153C113.149 82.6153 113.56 82.6947 113.924 82.8533C114.297 83.0027 114.614 83.222 114.876 83.5113C115.137 83.8007 115.333 84.1553 115.464 84.5753C115.604 84.986 115.674 85.4527 115.674 85.9753C115.674 86.1247 115.627 86.2413 115.534 86.3253C115.45 86.4 115.324 86.4373 115.156 86.4373H110.368V85.6253H114.834L114.596 85.8213C114.596 85.336 114.521 84.9253 114.372 84.5893C114.232 84.244 114.022 83.9827 113.742 83.8053C113.471 83.628 113.13 83.5393 112.72 83.5393C112.272 83.5393 111.889 83.6467 111.572 83.8613C111.254 84.0667 111.012 84.3607 110.844 84.7433C110.676 85.1167 110.592 85.5507 110.592 86.0453V86.1293C110.592 86.9693 110.792 87.604 111.194 88.0333C111.595 88.4627 112.174 88.6773 112.93 88.6773C113.228 88.6773 113.532 88.64 113.84 88.5653C114.157 88.4907 114.46 88.3553 114.75 88.1593C114.89 88.0753 115.016 88.038 115.128 88.0473C115.249 88.0473 115.347 88.0847 115.422 88.1593C115.496 88.2247 115.543 88.3087 115.562 88.4113C115.58 88.5047 115.566 88.6073 115.52 88.7193C115.473 88.8313 115.384 88.9293 115.254 89.0133C114.946 89.228 114.577 89.396 114.148 89.5173C113.728 89.6293 113.322 89.6853 112.93 89.6853ZM119.4 89.6853C118.7 89.6853 118.168 89.48 117.804 89.0693C117.44 88.6493 117.258 88.0473 117.258 87.2633V80.2353C117.258 80.0207 117.314 79.862 117.426 79.7593C117.538 79.6473 117.692 79.5913 117.888 79.5913C118.094 79.5913 118.252 79.6473 118.364 79.7593C118.476 79.862 118.532 80.0207 118.532 80.2353V87.1653C118.532 87.6507 118.63 88.0147 118.826 88.2573C119.032 88.4907 119.321 88.6073 119.694 88.6073C119.778 88.6073 119.853 88.6073 119.918 88.6073C119.984 88.598 120.049 88.5887 120.114 88.5793C120.217 88.57 120.292 88.598 120.338 88.6633C120.385 88.7287 120.408 88.8593 120.408 89.0553C120.408 89.2327 120.366 89.3727 120.282 89.4753C120.208 89.5687 120.082 89.6293 119.904 89.6573C119.82 89.6667 119.736 89.6713 119.652 89.6713C119.568 89.6807 119.484 89.6853 119.4 89.6853ZM122.099 92.1773C121.903 92.1773 121.749 92.1213 121.637 92.0093C121.525 91.8973 121.469 91.7387 121.469 91.5333V83.2873C121.469 83.0727 121.525 82.914 121.637 82.8113C121.749 82.6993 121.903 82.6433 122.099 82.6433C122.305 82.6433 122.459 82.6993 122.561 82.8113C122.673 82.914 122.729 83.0727 122.729 83.2873V84.5613L122.575 84.3093C122.725 83.796 123.019 83.3853 123.457 83.0773C123.896 82.7693 124.423 82.6153 125.039 82.6153C125.646 82.6153 126.173 82.76 126.621 83.0493C127.069 83.3293 127.419 83.7353 127.671 84.2673C127.923 84.79 128.049 85.4153 128.049 86.1433C128.049 86.862 127.923 87.492 127.671 88.0333C127.429 88.5653 127.079 88.976 126.621 89.2653C126.173 89.5453 125.646 89.6853 125.039 89.6853C124.433 89.6853 123.91 89.5313 123.471 89.2233C123.033 88.9153 122.739 88.5093 122.589 88.0053H122.743V91.5333C122.743 91.7387 122.687 91.8973 122.575 92.0093C122.463 92.1213 122.305 92.1773 122.099 92.1773ZM124.745 88.6773C125.147 88.6773 125.497 88.5793 125.795 88.3833C126.103 88.1873 126.341 87.9027 126.509 87.5293C126.677 87.156 126.761 86.694 126.761 86.1433C126.761 85.322 126.579 84.6967 126.215 84.2673C125.851 83.838 125.361 83.6233 124.745 83.6233C124.335 83.6233 123.975 83.7213 123.667 83.9173C123.369 84.104 123.135 84.384 122.967 84.7573C122.809 85.1307 122.729 85.5927 122.729 86.1433C122.729 86.9647 122.911 87.5947 123.275 88.0333C123.639 88.4627 124.129 88.6773 124.745 88.6773ZM134.904 92.1773C134.755 92.1773 134.629 92.1353 134.526 92.0513C134.433 91.9767 134.377 91.8693 134.358 91.7293C134.349 91.5987 134.377 91.4587 134.442 91.3093L135.394 89.1533V89.6853L132.748 83.5253C132.683 83.3667 132.66 83.222 132.678 83.0913C132.697 82.9607 132.758 82.8533 132.86 82.7693C132.972 82.6853 133.122 82.6433 133.308 82.6433C133.467 82.6433 133.593 82.6807 133.686 82.7553C133.78 82.83 133.868 82.9607 133.952 83.1473L136.15 88.5653H135.758L137.998 83.1473C138.073 82.9607 138.162 82.83 138.264 82.7553C138.367 82.6807 138.507 82.6433 138.684 82.6433C138.843 82.6433 138.964 82.6853 139.048 82.7693C139.142 82.8533 139.198 82.9607 139.216 83.0913C139.235 83.222 139.207 83.362 139.132 83.5113L135.604 91.6733C135.511 91.8693 135.413 92 135.31 92.0653C135.217 92.14 135.082 92.1773 134.904 92.1773ZM143.357 89.6853C142.685 89.6853 142.102 89.5407 141.607 89.2513C141.113 88.962 140.73 88.5513 140.459 88.0193C140.189 87.4873 140.053 86.862 140.053 86.1433C140.053 85.602 140.128 85.1167 140.277 84.6873C140.436 84.2487 140.66 83.8753 140.949 83.5673C141.239 83.2593 141.584 83.026 141.985 82.8673C142.396 82.6993 142.853 82.6153 143.357 82.6153C144.029 82.6153 144.613 82.76 145.107 83.0493C145.602 83.3387 145.985 83.7493 146.255 84.2813C146.526 84.804 146.661 85.4247 146.661 86.1433C146.661 86.6847 146.582 87.1747 146.423 87.6133C146.274 88.052 146.055 88.4253 145.765 88.7333C145.476 89.0413 145.126 89.2793 144.715 89.4473C144.314 89.606 143.861 89.6853 143.357 89.6853ZM143.357 88.6773C143.768 88.6773 144.123 88.5793 144.421 88.3833C144.729 88.1873 144.963 87.9027 145.121 87.5293C145.289 87.156 145.373 86.694 145.373 86.1433C145.373 85.322 145.191 84.6967 144.827 84.2673C144.463 83.838 143.973 83.6233 143.357 83.6233C142.956 83.6233 142.601 83.7213 142.293 83.9173C141.995 84.104 141.761 84.384 141.593 84.7573C141.425 85.1307 141.341 85.5927 141.341 86.1433C141.341 86.9647 141.523 87.5947 141.887 88.0333C142.261 88.4627 142.751 88.6773 143.357 88.6773ZM150.729 89.6853C150.179 89.6853 149.717 89.5827 149.343 89.3773C148.979 89.172 148.709 88.8687 148.531 88.4673C148.354 88.066 148.265 87.562 148.265 86.9553V83.2873C148.265 83.0727 148.317 82.914 148.419 82.8113C148.531 82.6993 148.69 82.6433 148.895 82.6433C149.101 82.6433 149.259 82.6993 149.371 82.8113C149.483 82.914 149.539 83.0727 149.539 83.2873V86.9553C149.539 87.534 149.656 87.9633 149.889 88.2433C150.123 88.514 150.491 88.6493 150.995 88.6493C151.555 88.6493 152.008 88.4627 152.353 88.0893C152.708 87.716 152.885 87.2213 152.885 86.6053V83.2873C152.885 83.0727 152.937 82.914 153.039 82.8113C153.151 82.6993 153.31 82.6433 153.515 82.6433C153.721 82.6433 153.879 82.6993 153.991 82.8113C154.103 82.914 154.159 83.0727 154.159 83.2873V88.9993C154.159 89.438 153.954 89.6573 153.543 89.6573C153.338 89.6573 153.179 89.6013 153.067 89.4893C152.965 89.3773 152.913 89.214 152.913 88.9993V87.7813L153.095 88.0193C152.909 88.5607 152.605 88.976 152.185 89.2653C151.775 89.5453 151.289 89.6853 150.729 89.6853ZM162.464 89.6853C161.867 89.6853 161.339 89.5453 160.882 89.2653C160.434 88.976 160.084 88.5653 159.832 88.0333C159.58 87.492 159.454 86.862 159.454 86.1433C159.454 85.4153 159.575 84.79 159.818 84.2673C160.07 83.7353 160.42 83.3293 160.868 83.0493C161.325 82.76 161.857 82.6153 162.464 82.6153C163.071 82.6153 163.593 82.7693 164.032 83.0773C164.471 83.376 164.765 83.7773 164.914 84.2813H164.76V80.2353C164.76 80.0207 164.811 79.862 164.914 79.7593C165.026 79.6473 165.185 79.5913 165.39 79.5913C165.595 79.5913 165.754 79.6473 165.866 79.7593C165.978 79.862 166.034 80.0207 166.034 80.2353V88.9993C166.034 89.214 165.978 89.3773 165.866 89.4893C165.754 89.6013 165.595 89.6573 165.39 89.6573C165.194 89.6573 165.04 89.6013 164.928 89.4893C164.816 89.3773 164.76 89.214 164.76 88.9993V87.7253L164.914 87.9773C164.774 88.5 164.48 88.9153 164.032 89.2233C163.593 89.5313 163.071 89.6853 162.464 89.6853ZM162.758 88.6773C163.169 88.6773 163.523 88.5793 163.822 88.3833C164.13 88.1873 164.363 87.9027 164.522 87.5293C164.69 87.156 164.774 86.694 164.774 86.1433C164.774 85.322 164.592 84.6967 164.228 84.2673C163.864 83.838 163.374 83.6233 162.758 83.6233C162.357 83.6233 162.002 83.7213 161.694 83.9173C161.395 84.104 161.162 84.384 160.994 84.7573C160.826 85.1307 160.742 85.5927 160.742 86.1433C160.742 86.9647 160.924 87.5947 161.288 88.0333C161.661 88.4627 162.151 88.6773 162.758 88.6773ZM168.735 89.6573C168.52 89.6573 168.357 89.6013 168.245 89.4893C168.133 89.3773 168.077 89.214 168.077 88.9993V83.2873C168.077 83.0727 168.133 82.914 168.245 82.8113C168.357 82.6993 168.511 82.6433 168.707 82.6433C168.903 82.6433 169.052 82.6993 169.155 82.8113C169.267 82.914 169.323 83.0727 169.323 83.2873V84.3653H169.183C169.332 83.8053 169.612 83.3807 170.023 83.0913C170.433 82.802 170.951 82.6387 171.577 82.6013C171.726 82.592 171.847 82.6293 171.941 82.7133C172.034 82.788 172.085 82.9187 172.095 83.1053C172.104 83.2827 172.062 83.4273 171.969 83.5393C171.875 83.642 171.731 83.7027 171.535 83.7213L171.283 83.7353C170.667 83.8007 170.191 84.0013 169.855 84.3373C169.528 84.6733 169.365 85.1353 169.365 85.7233V88.9993C169.365 89.214 169.309 89.3773 169.197 89.4893C169.094 89.6013 168.94 89.6573 168.735 89.6573ZM173.82 89.6293C173.624 89.6293 173.47 89.5687 173.358 89.4473C173.246 89.326 173.19 89.158 173.19 88.9433V83.3573C173.19 83.1333 173.246 82.9653 173.358 82.8533C173.47 82.732 173.624 82.6713 173.82 82.6713C174.025 82.6713 174.184 82.732 174.296 82.8533C174.408 82.9653 174.464 83.1333 174.464 83.3573V88.9433C174.464 89.158 174.408 89.326 174.296 89.4473C174.193 89.5687 174.035 89.6293 173.82 89.6293ZM173.82 81.1593C173.568 81.1593 173.367 81.094 173.218 80.9633C173.078 80.8233 173.008 80.6413 173.008 80.4173C173.008 80.1747 173.078 79.9927 173.218 79.8713C173.367 79.7407 173.568 79.6753 173.82 79.6753C174.091 79.6753 174.291 79.7407 174.422 79.8713C174.562 79.9927 174.632 80.1747 174.632 80.4173C174.632 80.6413 174.562 80.8233 174.422 80.9633C174.291 81.094 174.091 81.1593 173.82 81.1593ZM179.102 89.6573C178.925 89.6573 178.771 89.6107 178.64 89.5173C178.51 89.424 178.398 89.2747 178.304 89.0693L175.924 83.5253C175.859 83.3667 175.836 83.222 175.854 83.0913C175.873 82.9607 175.934 82.8533 176.036 82.7693C176.148 82.6853 176.298 82.6433 176.484 82.6433C176.643 82.6433 176.769 82.6807 176.862 82.7553C176.956 82.83 177.044 82.9607 177.128 83.1473L179.326 88.5653H178.934L181.188 83.1473C181.263 82.9607 181.347 82.83 181.44 82.7553C181.543 82.6807 181.683 82.6433 181.86 82.6433C182.019 82.6433 182.14 82.6853 182.224 82.7693C182.318 82.8533 182.374 82.9607 182.392 83.0913C182.411 83.222 182.383 83.362 182.308 83.5113L179.914 89.0693C179.83 89.2747 179.718 89.424 179.578 89.5173C179.448 89.6107 179.289 89.6573 179.102 89.6573ZM186.799 89.6853C186.062 89.6853 185.427 89.5453 184.895 89.2653C184.372 88.976 183.966 88.57 183.677 88.0473C183.388 87.5153 183.243 86.89 183.243 86.1713C183.243 85.462 183.383 84.8413 183.663 84.3093C183.952 83.7773 184.344 83.362 184.839 83.0633C185.343 82.7647 185.917 82.6153 186.561 82.6153C187.018 82.6153 187.429 82.6947 187.793 82.8533C188.166 83.0027 188.484 83.222 188.745 83.5113C189.006 83.8007 189.202 84.1553 189.333 84.5753C189.473 84.986 189.543 85.4527 189.543 85.9753C189.543 86.1247 189.496 86.2413 189.403 86.3253C189.319 86.4 189.193 86.4373 189.025 86.4373H184.237V85.6253H188.703L188.465 85.8213C188.465 85.336 188.39 84.9253 188.241 84.5893C188.101 84.244 187.891 83.9827 187.611 83.8053C187.34 83.628 187 83.5393 186.589 83.5393C186.141 83.5393 185.758 83.6467 185.441 83.8613C185.124 84.0667 184.881 84.3607 184.713 84.7433C184.545 85.1167 184.461 85.5507 184.461 86.0453V86.1293C184.461 86.9693 184.662 87.604 185.063 88.0333C185.464 88.4627 186.043 88.6773 186.799 88.6773C187.098 88.6773 187.401 88.64 187.709 88.5653C188.026 88.4907 188.33 88.3553 188.619 88.1593C188.759 88.0753 188.885 88.038 188.997 88.0473C189.118 88.0473 189.216 88.0847 189.291 88.1593C189.366 88.2247 189.412 88.3087 189.431 88.4113C189.45 88.5047 189.436 88.6073 189.389 88.7193C189.342 88.8313 189.254 88.9293 189.123 89.0133C188.815 89.228 188.446 89.396 188.017 89.5173C187.597 89.6293 187.191 89.6853 186.799 89.6853ZM195.436 89.6573C195.24 89.6573 195.086 89.6013 194.974 89.4893C194.862 89.3773 194.806 89.214 194.806 88.9993V83.2873C194.806 83.0727 194.862 82.914 194.974 82.8113C195.086 82.6993 195.24 82.6433 195.436 82.6433C195.632 82.6433 195.781 82.6993 195.884 82.8113C195.996 82.914 196.052 83.0727 196.052 83.2873V84.4773L195.898 84.2253C196.075 83.712 196.36 83.3153 196.752 83.0353C197.153 82.7553 197.629 82.6153 198.18 82.6153C198.759 82.6153 199.225 82.7553 199.58 83.0353C199.935 83.306 200.173 83.7213 200.294 84.2813H200.098C200.266 83.768 200.565 83.362 200.994 83.0633C201.433 82.7647 201.941 82.6153 202.52 82.6153C203.033 82.6153 203.453 82.718 203.78 82.9233C204.116 83.1193 204.368 83.418 204.536 83.8193C204.704 84.2113 204.788 84.7153 204.788 85.3313V88.9993C204.788 89.214 204.732 89.3773 204.62 89.4893C204.508 89.6013 204.354 89.6573 204.158 89.6573C203.953 89.6573 203.794 89.6013 203.682 89.4893C203.57 89.3773 203.514 89.214 203.514 88.9993V85.3873C203.514 84.79 203.411 84.3513 203.206 84.0713C203.001 83.7913 202.655 83.6513 202.17 83.6513C201.638 83.6513 201.213 83.838 200.896 84.2113C200.588 84.5753 200.434 85.0793 200.434 85.7233V88.9993C200.434 89.214 200.378 89.3773 200.266 89.4893C200.163 89.6013 200.009 89.6573 199.804 89.6573C199.599 89.6573 199.44 89.6013 199.328 89.4893C199.216 89.3773 199.16 89.214 199.16 88.9993V85.3873C199.16 84.79 199.057 84.3513 198.852 84.0713C198.647 83.7913 198.301 83.6513 197.816 83.6513C197.284 83.6513 196.859 83.838 196.542 84.2113C196.234 84.5753 196.08 85.0793 196.08 85.7233V88.9993C196.08 89.438 195.865 89.6573 195.436 89.6573ZM209.986 89.6853C209.249 89.6853 208.614 89.5453 208.082 89.2653C207.56 88.976 207.154 88.57 206.864 88.0473C206.575 87.5153 206.43 86.89 206.43 86.1713C206.43 85.462 206.57 84.8413 206.85 84.3093C207.14 83.7773 207.532 83.362 208.026 83.0633C208.53 82.7647 209.104 82.6153 209.748 82.6153C210.206 82.6153 210.616 82.6947 210.98 82.8533C211.354 83.0027 211.671 83.222 211.932 83.5113C212.194 83.8007 212.39 84.1553 212.52 84.5753C212.66 84.986 212.73 85.4527 212.73 85.9753C212.73 86.1247 212.684 86.2413 212.59 86.3253C212.506 86.4 212.38 86.4373 212.212 86.4373H207.424V85.6253H211.89L211.652 85.8213C211.652 85.336 211.578 84.9253 211.428 84.5893C211.288 84.244 211.078 83.9827 210.798 83.8053C210.528 83.628 210.187 83.5393 209.776 83.5393C209.328 83.5393 208.946 83.6467 208.628 83.8613C208.311 84.0667 208.068 84.3607 207.9 84.7433C207.732 85.1167 207.648 85.5507 207.648 86.0453V86.1293C207.648 86.9693 207.849 87.604 208.25 88.0333C208.652 88.4627 209.23 88.6773 209.986 88.6773C210.285 88.6773 210.588 88.64 210.896 88.5653C211.214 88.4907 211.517 88.3553 211.806 88.1593C211.946 88.0753 212.072 88.038 212.184 88.0473C212.306 88.0473 212.404 88.0847 212.478 88.1593C212.553 88.2247 212.6 88.3087 212.618 88.4113C212.637 88.5047 212.623 88.6073 212.576 88.7193C212.53 88.8313 212.441 88.9293 212.31 89.0133C212.002 89.228 211.634 89.396 211.204 89.5173C210.784 89.6293 210.378 89.6853 209.986 89.6853ZM216.485 89.6853C216.018 89.6853 215.594 89.592 215.211 89.4053C214.838 89.2187 214.544 88.9667 214.329 88.6493C214.124 88.332 214.021 87.9773 214.021 87.5853C214.021 87.0813 214.147 86.6847 214.399 86.3953C214.651 86.106 215.076 85.9007 215.673 85.7793C216.27 85.6487 217.073 85.5833 218.081 85.5833H218.739V86.3953H218.109C217.39 86.3953 216.821 86.428 216.401 86.4933C215.99 86.5587 215.701 86.6753 215.533 86.8433C215.365 87.002 215.281 87.226 215.281 87.5153C215.281 87.8793 215.407 88.178 215.659 88.4113C215.92 88.6447 216.275 88.7613 216.723 88.7613C217.078 88.7613 217.39 88.6773 217.661 88.5093C217.932 88.332 218.146 88.0987 218.305 87.8093C218.464 87.5107 218.543 87.17 218.543 86.7873V85.1773C218.543 84.6267 218.431 84.23 218.207 83.9873C217.983 83.7353 217.605 83.6093 217.073 83.6093C216.765 83.6093 216.448 83.6513 216.121 83.7353C215.794 83.8193 215.454 83.95 215.099 84.1273C214.959 84.1927 214.838 84.216 214.735 84.1973C214.632 84.1693 214.548 84.1133 214.483 84.0293C214.427 83.936 214.394 83.838 214.385 83.7353C214.385 83.6233 214.408 83.516 214.455 83.4133C214.511 83.3107 214.604 83.236 214.735 83.1893C215.146 82.984 215.552 82.8393 215.953 82.7553C216.364 82.662 216.746 82.6153 217.101 82.6153C217.708 82.6153 218.207 82.7133 218.599 82.9093C218.991 83.096 219.285 83.39 219.481 83.7913C219.677 84.1833 219.775 84.6873 219.775 85.3033V88.9993C219.775 89.214 219.724 89.3773 219.621 89.4893C219.518 89.6013 219.369 89.6573 219.173 89.6573C218.986 89.6573 218.837 89.6013 218.725 89.4893C218.622 89.3773 218.571 89.214 218.571 88.9993V88.0053H218.697C218.622 88.3507 218.482 88.6493 218.277 88.9013C218.072 89.1533 217.815 89.3493 217.507 89.4893C217.208 89.62 216.868 89.6853 216.485 89.6853ZM222.41 89.6573C222.214 89.6573 222.06 89.6013 221.948 89.4893C221.836 89.3773 221.78 89.214 221.78 88.9993V83.2873C221.78 83.0727 221.836 82.914 221.948 82.8113C222.06 82.6993 222.214 82.6433 222.41 82.6433C222.606 82.6433 222.755 82.6993 222.858 82.8113C222.97 82.914 223.026 83.0727 223.026 83.2873V84.4353L222.872 84.2253C223.068 83.6933 223.385 83.292 223.824 83.0213C224.272 82.7507 224.78 82.6153 225.35 82.6153C225.9 82.6153 226.353 82.7133 226.708 82.9093C227.062 83.1053 227.328 83.404 227.506 83.8053C227.683 84.2067 227.772 84.7153 227.772 85.3313V88.9993C227.772 89.214 227.716 89.3773 227.604 89.4893C227.501 89.6013 227.347 89.6573 227.142 89.6573C226.936 89.6573 226.778 89.6013 226.666 89.4893C226.554 89.3773 226.498 89.214 226.498 88.9993V85.4013C226.498 84.7947 226.381 84.3513 226.148 84.0713C225.914 83.7913 225.541 83.6513 225.028 83.6513C224.43 83.6513 223.95 83.838 223.586 84.2113C223.231 84.5753 223.054 85.07 223.054 85.6953V88.9993C223.054 89.438 222.839 89.6573 222.41 89.6573ZM230.422 89.6293C230.226 89.6293 230.072 89.5687 229.96 89.4473C229.848 89.326 229.792 89.158 229.792 88.9433V83.3573C229.792 83.1333 229.848 82.9653 229.96 82.8533C230.072 82.732 230.226 82.6713 230.422 82.6713C230.627 82.6713 230.786 82.732 230.898 82.8533C231.01 82.9653 231.066 83.1333 231.066 83.3573V88.9433C231.066 89.158 231.01 89.326 230.898 89.4473C230.795 89.5687 230.636 89.6293 230.422 89.6293ZM230.422 81.1593C230.17 81.1593 229.969 81.094 229.82 80.9633C229.68 80.8233 229.61 80.6413 229.61 80.4173C229.61 80.1747 229.68 79.9927 229.82 79.8713C229.969 79.7407 230.17 79.6753 230.422 79.6753C230.692 79.6753 230.893 79.7407 231.024 79.8713C231.164 79.9927 231.234 80.1747 231.234 80.4173C231.234 80.6413 231.164 80.8233 231.024 80.9633C230.893 81.094 230.692 81.1593 230.422 81.1593ZM233.744 89.6573C233.548 89.6573 233.394 89.6013 233.282 89.4893C233.17 89.3773 233.114 89.214 233.114 88.9993V83.2873C233.114 83.0727 233.17 82.914 233.282 82.8113C233.394 82.6993 233.548 82.6433 233.744 82.6433C233.94 82.6433 234.089 82.6993 234.192 82.8113C234.304 82.914 234.36 83.0727 234.36 83.2873V84.4353L234.206 84.2253C234.402 83.6933 234.719 83.292 235.158 83.0213C235.606 82.7507 236.114 82.6153 236.684 82.6153C237.234 82.6153 237.687 82.7133 238.042 82.9093C238.396 83.1053 238.662 83.404 238.84 83.8053C239.017 84.2067 239.106 84.7153 239.106 85.3313V88.9993C239.106 89.214 239.05 89.3773 238.938 89.4893C238.835 89.6013 238.681 89.6573 238.476 89.6573C238.27 89.6573 238.112 89.6013 238 89.4893C237.888 89.3773 237.832 89.214 237.832 88.9993V85.4013C237.832 84.7947 237.715 84.3513 237.482 84.0713C237.248 83.7913 236.875 83.6513 236.362 83.6513C235.764 83.6513 235.284 83.838 234.92 84.2113C234.565 84.5753 234.388 85.07 234.388 85.6953V88.9993C234.388 89.438 234.173 89.6573 233.744 89.6573ZM244.192 92.2053C243.688 92.2053 243.198 92.1493 242.722 92.0373C242.255 91.9253 241.83 91.7527 241.448 91.5193C241.326 91.4447 241.242 91.356 241.196 91.2533C241.158 91.16 241.149 91.062 241.168 90.9593C241.196 90.8567 241.242 90.7633 241.308 90.6793C241.382 90.6047 241.466 90.5533 241.56 90.5253C241.662 90.5067 241.765 90.53 241.868 90.5953C242.278 90.8287 242.67 90.9873 243.044 91.0713C243.417 91.1553 243.772 91.1973 244.108 91.1973C244.77 91.1973 245.265 91.0247 245.592 90.6793C245.928 90.3433 246.096 89.8487 246.096 89.1953V87.6833H246.222C246.091 88.206 245.797 88.6213 245.34 88.9293C244.892 89.2373 244.369 89.3913 243.772 89.3913C243.156 89.3913 242.619 89.2513 242.162 88.9713C241.704 88.682 241.35 88.2853 241.098 87.7813C240.846 87.268 240.72 86.6753 240.72 86.0033C240.72 85.49 240.79 85.028 240.93 84.6173C241.079 84.1973 241.284 83.8427 241.546 83.5533C241.816 83.2547 242.138 83.026 242.512 82.8673C242.885 82.6993 243.305 82.6153 243.772 82.6153C244.378 82.6153 244.906 82.7693 245.354 83.0773C245.802 83.3853 246.091 83.8007 246.222 84.3233L246.068 84.5193V83.2873C246.068 83.0727 246.124 82.914 246.236 82.8113C246.348 82.6993 246.506 82.6433 246.712 82.6433C246.908 82.6433 247.062 82.6993 247.173 82.8113C247.286 82.914 247.342 83.0727 247.342 83.2873V89.0273C247.342 90.082 247.071 90.8753 246.53 91.4073C245.998 91.9393 245.218 92.2053 244.192 92.2053ZM244.052 88.3833C244.472 88.3833 244.831 88.29 245.13 88.1033C245.438 87.9073 245.671 87.632 245.83 87.2773C245.998 86.9133 246.082 86.4887 246.082 86.0033C246.082 85.266 245.9 84.6873 245.536 84.2673C245.172 83.838 244.677 83.6233 244.052 83.6233C243.632 83.6233 243.268 83.7213 242.96 83.9173C242.661 84.104 242.428 84.3747 242.26 84.7293C242.092 85.084 242.008 85.5087 242.008 86.0033C242.008 86.7313 242.19 87.31 242.554 87.7393C242.927 88.1687 243.426 88.3833 244.052 88.3833ZM250.419 89.6573C250.214 89.6573 250.055 89.6013 249.943 89.4893C249.831 89.3773 249.775 89.214 249.775 88.9993V83.7213H248.935C248.767 83.7213 248.637 83.6793 248.543 83.5953C248.45 83.502 248.403 83.3807 248.403 83.2313C248.403 83.0727 248.45 82.9513 248.543 82.8673C248.637 82.7833 248.767 82.7413 248.935 82.7413H250.125L249.775 83.0773V82.5593C249.775 81.654 249.995 80.968 250.433 80.5013C250.881 80.0253 251.535 79.75 252.393 79.6753L252.827 79.6473C252.967 79.6287 253.079 79.652 253.163 79.7173C253.247 79.7733 253.303 79.848 253.331 79.9413C253.359 80.0347 253.359 80.1327 253.331 80.2353C253.313 80.3287 253.271 80.4127 253.205 80.4873C253.14 80.562 253.056 80.604 252.953 80.6133L252.645 80.6273C252.085 80.674 251.679 80.842 251.427 81.1313C251.175 81.4113 251.049 81.8313 251.049 82.3913V82.9513L250.867 82.7413H252.477C252.655 82.7413 252.79 82.7833 252.883 82.8673C252.977 82.9513 253.023 83.0727 253.023 83.2313C253.023 83.3807 252.977 83.502 252.883 83.5953C252.79 83.6793 252.655 83.7213 252.477 83.7213H251.049V88.9993C251.049 89.438 250.839 89.6573 250.419 89.6573ZM256.577 89.6853C256.026 89.6853 255.564 89.5827 255.191 89.3773C254.827 89.172 254.556 88.8687 254.379 88.4673C254.202 88.066 254.113 87.562 254.113 86.9553V83.2873C254.113 83.0727 254.164 82.914 254.267 82.8113C254.379 82.6993 254.538 82.6433 254.743 82.6433C254.948 82.6433 255.107 82.6993 255.219 82.8113C255.331 82.914 255.387 83.0727 255.387 83.2873V86.9553C255.387 87.534 255.504 87.9633 255.737 88.2433C255.97 88.514 256.339 88.6493 256.843 88.6493C257.403 88.6493 257.856 88.4627 258.201 88.0893C258.556 87.716 258.733 87.2213 258.733 86.6053V83.2873C258.733 83.0727 258.784 82.914 258.887 82.8113C258.999 82.6993 259.158 82.6433 259.363 82.6433C259.568 82.6433 259.727 82.6993 259.839 82.8113C259.951 82.914 260.007 83.0727 260.007 83.2873V88.9993C260.007 89.438 259.802 89.6573 259.391 89.6573C259.186 89.6573 259.027 89.6013 258.915 89.4893C258.812 89.3773 258.761 89.214 258.761 88.9993V87.7813L258.943 88.0193C258.756 88.5607 258.453 88.976 258.033 89.2653C257.622 89.5453 257.137 89.6853 256.577 89.6853ZM264.199 89.6853C263.499 89.6853 262.967 89.48 262.603 89.0693C262.239 88.6493 262.057 88.0473 262.057 87.2633V80.2353C262.057 80.0207 262.113 79.862 262.225 79.7593C262.337 79.6473 262.491 79.5913 262.687 79.5913C262.892 79.5913 263.051 79.6473 263.163 79.7593C263.275 79.862 263.331 80.0207 263.331 80.2353V87.1653C263.331 87.6507 263.429 88.0147 263.625 88.2573C263.83 88.4907 264.12 88.6073 264.493 88.6073C264.577 88.6073 264.652 88.6073 264.717 88.6073C264.782 88.598 264.848 88.5887 264.913 88.5793C265.016 88.57 265.09 88.598 265.137 88.6633C265.184 88.7287 265.207 88.8593 265.207 89.0553C265.207 89.2327 265.165 89.3727 265.081 89.4753C265.006 89.5687 264.88 89.6293 264.703 89.6573C264.619 89.6667 264.535 89.6713 264.451 89.6713C264.367 89.6807 264.283 89.6853 264.199 89.6853ZM44.976 110.685C44.2853 110.685 43.688 110.541 43.184 110.251C42.68 109.953 42.2927 109.537 42.022 109.005C41.7513 108.464 41.616 107.829 41.616 107.101C41.616 106.56 41.6907 106.075 41.84 105.645C41.9987 105.216 42.2227 104.852 42.512 104.553C42.8013 104.245 43.1513 104.012 43.562 103.853C43.982 103.695 44.4533 103.615 44.976 103.615C45.3027 103.615 45.648 103.667 46.012 103.769C46.376 103.872 46.712 104.04 47.02 104.273C47.1227 104.348 47.188 104.437 47.216 104.539C47.244 104.633 47.244 104.731 47.216 104.833C47.1973 104.936 47.1507 105.025 47.076 105.099C47.0107 105.165 46.922 105.202 46.81 105.211C46.7073 105.221 46.5953 105.188 46.474 105.113C46.25 104.945 46.012 104.824 45.76 104.749C45.5173 104.675 45.284 104.637 45.06 104.637C44.7147 104.637 44.4067 104.693 44.136 104.805C43.8747 104.917 43.6507 105.081 43.464 105.295C43.2867 105.501 43.1513 105.757 43.058 106.065C42.9647 106.364 42.918 106.714 42.918 107.115C42.918 107.909 43.1047 108.534 43.478 108.991C43.8513 109.439 44.3787 109.663 45.06 109.663C45.284 109.663 45.5173 109.631 45.76 109.565C46.0027 109.491 46.2407 109.369 46.474 109.201C46.5953 109.127 46.7073 109.099 46.81 109.117C46.9127 109.127 46.9967 109.169 47.062 109.243C47.1367 109.309 47.1833 109.393 47.202 109.495C47.2207 109.589 47.2113 109.687 47.174 109.789C47.146 109.892 47.0807 109.976 46.978 110.041C46.6793 110.265 46.3527 110.429 45.998 110.531C45.6433 110.634 45.3027 110.685 44.976 110.685ZM49.1598 110.657C48.9638 110.657 48.8098 110.601 48.6978 110.489C48.5858 110.377 48.5298 110.214 48.5298 109.999V101.235C48.5298 101.021 48.5858 100.862 48.6978 100.759C48.8098 100.647 48.9638 100.591 49.1598 100.591C49.3651 100.591 49.5238 100.647 49.6358 100.759C49.7478 100.862 49.8038 101.021 49.8038 101.235V105.225H49.6218C49.8178 104.693 50.1351 104.292 50.5738 104.021C51.0218 103.751 51.5305 103.615 52.0998 103.615C52.6505 103.615 53.1031 103.718 53.4578 103.923C53.8125 104.119 54.0785 104.418 54.2558 104.819C54.4331 105.221 54.5218 105.725 54.5218 106.331V109.999C54.5218 110.214 54.4658 110.377 54.3538 110.489C54.2511 110.601 54.0971 110.657 53.8918 110.657C53.6865 110.657 53.5278 110.601 53.4158 110.489C53.3038 110.377 53.2478 110.214 53.2478 109.999V106.401C53.2478 105.795 53.1311 105.351 52.8978 105.071C52.6645 104.791 52.2911 104.651 51.7778 104.651C51.1805 104.651 50.6998 104.838 50.3358 105.211C49.9811 105.575 49.8038 106.07 49.8038 106.695V109.999C49.8038 110.438 49.5891 110.657 49.1598 110.657ZM58.7115 110.685C58.2449 110.685 57.8202 110.592 57.4375 110.405C57.0642 110.219 56.7702 109.967 56.5555 109.649C56.3502 109.332 56.2475 108.977 56.2475 108.585C56.2475 108.081 56.3735 107.685 56.6255 107.395C56.8775 107.106 57.3022 106.901 57.8995 106.779C58.4969 106.649 59.2995 106.583 60.3075 106.583H60.9655V107.395H60.3355C59.6169 107.395 59.0475 107.428 58.6275 107.493C58.2169 107.559 57.9275 107.675 57.7595 107.843C57.5915 108.002 57.5075 108.226 57.5075 108.515C57.5075 108.879 57.6335 109.178 57.8855 109.411C58.1469 109.645 58.5015 109.761 58.9495 109.761C59.3042 109.761 59.6169 109.677 59.8875 109.509C60.1582 109.332 60.3729 109.099 60.5315 108.809C60.6902 108.511 60.7695 108.17 60.7695 107.787V106.177C60.7695 105.627 60.6575 105.23 60.4335 104.987C60.2095 104.735 59.8315 104.609 59.2995 104.609C58.9915 104.609 58.6742 104.651 58.3475 104.735C58.0209 104.819 57.6802 104.95 57.3255 105.127C57.1855 105.193 57.0642 105.216 56.9615 105.197C56.8589 105.169 56.7749 105.113 56.7095 105.029C56.6535 104.936 56.6209 104.838 56.6115 104.735C56.6115 104.623 56.6349 104.516 56.6815 104.413C56.7375 104.311 56.8309 104.236 56.9615 104.189C57.3722 103.984 57.7782 103.839 58.1795 103.755C58.5902 103.662 58.9729 103.615 59.3275 103.615C59.9342 103.615 60.4335 103.713 60.8255 103.909C61.2175 104.096 61.5115 104.39 61.7075 104.791C61.9035 105.183 62.0015 105.687 62.0015 106.303V109.999C62.0015 110.214 61.9502 110.377 61.8475 110.489C61.7449 110.601 61.5955 110.657 61.3995 110.657C61.2129 110.657 61.0635 110.601 60.9515 110.489C60.8489 110.377 60.7975 110.214 60.7975 109.999V109.005H60.9235C60.8489 109.351 60.7089 109.649 60.5035 109.901C60.2982 110.153 60.0415 110.349 59.7335 110.489C59.4349 110.62 59.0942 110.685 58.7115 110.685ZM64.6364 110.657C64.4404 110.657 64.2864 110.601 64.1744 110.489C64.0624 110.377 64.0064 110.214 64.0064 109.999V104.287C64.0064 104.073 64.0624 103.914 64.1744 103.811C64.2864 103.699 64.4404 103.643 64.6364 103.643C64.8324 103.643 64.9817 103.699 65.0844 103.811C65.1964 103.914 65.2524 104.073 65.2524 104.287V105.435L65.0984 105.225C65.2944 104.693 65.6117 104.292 66.0504 104.021C66.4984 103.751 67.007 103.615 67.5764 103.615C68.127 103.615 68.5797 103.713 68.9344 103.909C69.289 104.105 69.555 104.404 69.7324 104.805C69.9097 105.207 69.9984 105.715 69.9984 106.331V109.999C69.9984 110.214 69.9424 110.377 69.8304 110.489C69.7277 110.601 69.5737 110.657 69.3684 110.657C69.163 110.657 69.0044 110.601 68.8924 110.489C68.7804 110.377 68.7244 110.214 68.7244 109.999V106.401C68.7244 105.795 68.6077 105.351 68.3744 105.071C68.141 104.791 67.7677 104.651 67.2544 104.651C66.657 104.651 66.1764 104.838 65.8124 105.211C65.4577 105.575 65.2804 106.07 65.2804 106.695V109.999C65.2804 110.438 65.0657 110.657 64.6364 110.657ZM75.0841 113.205C74.5801 113.205 74.0901 113.149 73.6141 113.037C73.1474 112.925 72.7228 112.753 72.3401 112.519C72.2188 112.445 72.1348 112.356 72.0881 112.253C72.0508 112.16 72.0414 112.062 72.0601 111.959C72.0881 111.857 72.1348 111.763 72.2001 111.679C72.2748 111.605 72.3588 111.553 72.4521 111.525C72.5548 111.507 72.6574 111.53 72.7601 111.595C73.1708 111.829 73.5628 111.987 73.9361 112.071C74.3094 112.155 74.6641 112.197 75.0001 112.197C75.6628 112.197 76.1574 112.025 76.4841 111.679C76.8201 111.343 76.9881 110.849 76.9881 110.195V108.683H77.1141C76.9834 109.206 76.6894 109.621 76.2321 109.929C75.7841 110.237 75.2614 110.391 74.6641 110.391C74.0481 110.391 73.5114 110.251 73.0541 109.971C72.5968 109.682 72.2421 109.285 71.9901 108.781C71.7381 108.268 71.6121 107.675 71.6121 107.003C71.6121 106.49 71.6821 106.028 71.8221 105.617C71.9714 105.197 72.1768 104.843 72.4381 104.553C72.7088 104.255 73.0308 104.026 73.4041 103.867C73.7774 103.699 74.1974 103.615 74.6641 103.615C75.2708 103.615 75.7981 103.769 76.2461 104.077C76.6941 104.385 76.9834 104.801 77.1141 105.323L76.9601 105.519V104.287C76.9601 104.073 77.0161 103.914 77.1281 103.811C77.2401 103.699 77.3988 103.643 77.6041 103.643C77.8001 103.643 77.9541 103.699 78.0661 103.811C78.1781 103.914 78.2341 104.073 78.2341 104.287V110.027C78.2341 111.082 77.9634 111.875 77.4221 112.407C76.8901 112.939 76.1108 113.205 75.0841 113.205ZM74.9441 109.383C75.3641 109.383 75.7234 109.29 76.0221 109.103C76.3301 108.907 76.5634 108.632 76.7221 108.277C76.8901 107.913 76.9741 107.489 76.9741 107.003C76.9741 106.266 76.7921 105.687 76.4281 105.267C76.0641 104.838 75.5694 104.623 74.9441 104.623C74.5241 104.623 74.1601 104.721 73.8521 104.917C73.5534 105.104 73.3201 105.375 73.1521 105.729C72.9841 106.084 72.9001 106.509 72.9001 107.003C72.9001 107.731 73.0821 108.31 73.4461 108.739C73.8194 109.169 74.3188 109.383 74.9441 109.383ZM83.4259 110.685C82.6886 110.685 82.0539 110.545 81.5219 110.265C80.9992 109.976 80.5932 109.57 80.3039 109.047C80.0146 108.515 79.8699 107.89 79.8699 107.171C79.8699 106.462 80.0099 105.841 80.2899 105.309C80.5792 104.777 80.9712 104.362 81.4659 104.063C81.9699 103.765 82.5439 103.615 83.1879 103.615C83.6452 103.615 84.0559 103.695 84.4199 103.853C84.7932 104.003 85.1106 104.222 85.3719 104.511C85.6332 104.801 85.8292 105.155 85.9599 105.575C86.0999 105.986 86.1699 106.453 86.1699 106.975C86.1699 107.125 86.1232 107.241 86.0299 107.325C85.9459 107.4 85.8199 107.437 85.6519 107.437H80.8639V106.625H85.3299L85.0919 106.821C85.0919 106.336 85.0172 105.925 84.8679 105.589C84.7279 105.244 84.5179 104.983 84.2379 104.805C83.9672 104.628 83.6266 104.539 83.2159 104.539C82.7679 104.539 82.3852 104.647 82.0679 104.861C81.7506 105.067 81.5079 105.361 81.3399 105.743C81.1719 106.117 81.0879 106.551 81.0879 107.045V107.129C81.0879 107.969 81.2886 108.604 81.6899 109.033C82.0912 109.463 82.6699 109.677 83.4259 109.677C83.7246 109.677 84.0279 109.64 84.3359 109.565C84.6532 109.491 84.9566 109.355 85.2459 109.159C85.3859 109.075 85.5119 109.038 85.6239 109.047C85.7452 109.047 85.8432 109.085 85.9179 109.159C85.9926 109.225 86.0392 109.309 86.0579 109.411C86.0766 109.505 86.0626 109.607 86.0159 109.719C85.9692 109.831 85.8806 109.929 85.7499 110.013C85.4419 110.228 85.0732 110.396 84.6439 110.517C84.2239 110.629 83.8179 110.685 83.4259 110.685ZM88.3704 110.615C88.1278 110.615 87.9271 110.536 87.7684 110.377C87.6098 110.219 87.5304 110.018 87.5304 109.775C87.5304 109.533 87.6098 109.337 87.7684 109.187C87.9271 109.038 88.1278 108.963 88.3704 108.963C88.6318 108.963 88.8324 109.038 88.9724 109.187C89.1218 109.337 89.1964 109.533 89.1964 109.775C89.1964 110.018 89.1218 110.219 88.9724 110.377C88.8324 110.536 88.6318 110.615 88.3704 110.615Z" fill="#6C8184"/>
</g>
<defs>
<filter id="filter0_ddii_211_820" x="0.469057" y="0.587624" width="329.062" height="162.062" filterUnits="userSpaceOnUse" color-interpolation-filters="sRGB">
<feFlood flood-opacity="0" result="BackgroundImageFix"/>
<feColorMatrix in="SourceAlpha" type="matrix" values="0 0 0 0 0 0 0 0 0 0 0 0 0 0 0 0 0 0 127 0" result="hardAlpha"/>
<feOffset dy="3.70619"/>
<feGaussianBlur stdDeviation="1.85309"/>
<feComposite in2="hardAlpha" operator="out"/>
<feColorMatrix type="matrix" values="0 0 0 0 0 0 0 0 0 0 0 0 0 0 0 0 0 0 0.1 0"/>
<feBlend mode="normal" in2="BackgroundImageFix" result="effect1_dropShadow_211_820"/>
<feColorMatrix in="SourceAlpha" type="matrix" values="0 0 0 0 0 0 0 0 0 0 0 0 0 0 0 0 0 0 127 0" result="hardAlpha"/>
<feMorphology radius="11.1186" operator="erode" in="SourceAlpha" result="effect2_dropShadow_211_820"/>
<feOffset dy="11.1186"/>
<feGaussianBlur stdDeviation="14.8248"/>
<feComposite in2="hardAlpha" operator="out"/>
<feColorMatrix type="matrix" values="0 0 0 0 0 0 0 0 0 0 0 0 0 0 0 0 0 0 0.1 0"/>
<feBlend mode="normal" in2="effect1_dropShadow_211_820" result="effect2_dropShadow_211_820"/>
<feBlend mode="normal" in="SourceGraphic" in2="effect2_dropShadow_211_820" result="shape"/>
<feColorMatrix in="SourceAlpha" type="matrix" values="0 0 0 0 0 0 0 0 0 0 0 0 0 0 0 0 0 0 127 0" result="hardAlpha"/>
<feOffset dy="5.55928"/>
<feGaussianBlur stdDeviation="5.55928"/>
<feComposite in2="hardAlpha" operator="arithmetic" k2="-1" k3="1"/>
<feColorMatrix type="matrix" values="0 0 0 0 1 0 0 0 0 1 0 0 0 0 1 0 0 0 0.04 0"/>
<feBlend mode="normal" in2="shape" result="effect3_innerShadow_211_820"/>
<feColorMatrix in="SourceAlpha" type="matrix" values="0 0 0 0 0 0 0 0 0 0 0 0 0 0 0 0 0 0 127 0" result="hardAlpha"/>
<feOffset dy="0.926547"/>
<feGaussianBlur stdDeviation="0.463274"/>
<feComposite in2="hardAlpha" operator="arithmetic" k2="-1" k3="1"/>
<feColorMatrix type="matrix" values="0 0 0 0 1 0 0 0 0 1 0 0 0 0 1 0 0 0 0.2 0"/>
<feBlend mode="normal" in2="effect3_innerShadow_211_820" result="effect4_innerShadow_211_820"/>
</filter>
</defs>
</svg>
