<svg width="333" height="157" viewBox="0 0 333 157" fill="none" xmlns="http://www.w3.org/2000/svg">
<g filter="url(#filter0_ddii_90_2344)">
<path d="M20.0342 30.8947C20.0342 18.5286 30.0589 8.50391 42.4249 8.50391H290.432C302.798 8.50391 312.823 18.5286 312.823 30.8946V102.147C312.823 114.513 302.798 124.537 290.432 124.537H42.4249C30.0588 124.537 20.0342 114.513 20.0342 102.147V30.8947Z" fill="#F9FBFB" shape-rendering="crispEdges"/>
<path d="M44.4312 47.741C44.1752 47.741 43.9779 47.6716 43.8392 47.533C43.7006 47.3943 43.6312 47.197 43.6312 46.941V37.261C43.6312 37.005 43.7006 36.8076 43.8392 36.669C43.9779 36.5303 44.1752 36.461 44.4312 36.461H50.3192C50.5219 36.461 50.6766 36.5143 50.7832 36.621C50.9006 36.717 50.9592 36.861 50.9592 37.053C50.9592 37.2556 50.9006 37.4103 50.7832 37.517C50.6766 37.6236 50.5219 37.677 50.3192 37.677H45.0712V41.405H49.9832C50.1859 41.405 50.3406 41.4583 50.4472 41.565C50.5539 41.6716 50.6072 41.821 50.6072 42.013C50.6072 42.2156 50.5539 42.3703 50.4472 42.477C50.3406 42.573 50.1859 42.621 49.9832 42.621H45.0712V46.525H50.3192C50.5219 46.525 50.6766 46.5783 50.7832 46.685C50.9006 46.781 50.9592 46.9303 50.9592 47.133C50.9592 47.3356 50.9006 47.4903 50.7832 47.597C50.6766 47.693 50.5219 47.741 50.3192 47.741H44.4312ZM53.9201 47.853C53.6854 47.853 53.5041 47.789 53.3761 47.661C53.2481 47.533 53.1841 47.3463 53.1841 47.101V41.069H52.2241C52.0321 41.069 51.8828 41.021 51.7761 40.925C51.6694 40.8183 51.6161 40.6796 51.6161 40.509C51.6161 40.3276 51.6694 40.189 51.7761 40.093C51.8828 39.997 52.0321 39.949 52.2241 39.949H53.5841L53.1841 40.333V39.741C53.1841 38.7063 53.4348 37.9223 53.9361 37.389C54.4481 36.845 55.1948 36.5303 56.1761 36.445L56.6721 36.413C56.8321 36.3916 56.9601 36.4183 57.0561 36.493C57.1521 36.557 57.2161 36.6423 57.2481 36.749C57.2801 36.8556 57.2801 36.9676 57.2481 37.085C57.2268 37.1916 57.1788 37.2876 57.1041 37.373C57.0294 37.4583 56.9334 37.5063 56.8161 37.517L56.4641 37.533C55.8241 37.5863 55.3601 37.7783 55.0721 38.109C54.7841 38.429 54.6401 38.909 54.6401 39.549V40.189L54.4321 39.949H56.2721C56.4748 39.949 56.6294 39.997 56.7361 40.093C56.8428 40.189 56.8961 40.3276 56.8961 40.509C56.8961 40.6796 56.8428 40.8183 56.7361 40.925C56.6294 41.021 56.4748 41.069 56.2721 41.069H54.6401V47.101C54.6401 47.6023 54.4001 47.853 53.9201 47.853ZM59.0764 47.853C58.8417 47.853 58.6604 47.789 58.5324 47.661C58.4044 47.533 58.3404 47.3463 58.3404 47.101V41.069H57.3804C57.1884 41.069 57.039 41.021 56.9324 40.925C56.8257 40.8183 56.7724 40.6796 56.7724 40.509C56.7724 40.3276 56.8257 40.189 56.9324 40.093C57.039 39.997 57.1884 39.949 57.3804 39.949H58.7404L58.3404 40.333V39.741C58.3404 38.717 58.5857 37.9383 59.0764 37.405C59.5777 36.8716 60.319 36.557 61.3004 36.461L61.7644 36.429C61.9457 36.4076 62.0897 36.4343 62.1964 36.509C62.303 36.573 62.3724 36.6583 62.4044 36.765C62.447 36.8716 62.4524 36.9836 62.4204 37.101C62.399 37.2183 62.351 37.3196 62.2764 37.405C62.2017 37.4903 62.1057 37.533 61.9884 37.533L61.5404 37.565C60.9324 37.6076 60.4897 37.7943 60.2124 38.125C59.935 38.4556 59.7964 38.9303 59.7964 39.549V40.189L59.5884 39.949H63.9564C64.191 39.949 64.367 40.0183 64.4844 40.157C64.6124 40.285 64.6764 40.477 64.6764 40.733V47.037C64.6764 47.2823 64.6177 47.4743 64.5004 47.613C64.383 47.7516 64.2017 47.821 63.9564 47.821C63.7217 47.821 63.5404 47.7516 63.4124 47.613C63.2844 47.4743 63.2204 47.2823 63.2204 47.037V41.069H59.7964V47.101C59.7964 47.6023 59.5564 47.853 59.0764 47.853ZM63.9724 38.141C63.695 38.141 63.4764 38.0663 63.3164 37.917C63.1564 37.757 63.0764 37.549 63.0764 37.293C63.0764 37.0156 63.1564 36.8076 63.3164 36.669C63.4764 36.5196 63.695 36.445 63.9724 36.445C64.271 36.445 64.495 36.5196 64.6444 36.669C64.8044 36.8076 64.8844 37.0156 64.8844 37.293C64.8844 37.549 64.8044 37.757 64.6444 37.917C64.495 38.0663 64.271 38.141 63.9724 38.141ZM70.3934 47.885C69.604 47.885 68.9214 47.7196 68.3454 47.389C67.7694 47.0476 67.3267 46.573 67.0174 45.965C66.708 45.3463 66.5534 44.621 66.5534 43.789C66.5534 43.1703 66.6387 42.6156 66.8094 42.125C66.9907 41.6343 67.2467 41.2183 67.5774 40.877C67.908 40.525 68.308 40.2583 68.7774 40.077C69.2574 39.8956 69.796 39.805 70.3934 39.805C70.7667 39.805 71.1614 39.8636 71.5774 39.981C71.9934 40.0983 72.3774 40.2903 72.7294 40.557C72.8467 40.6423 72.9214 40.7436 72.9534 40.861C72.9854 40.9676 72.9854 41.0796 72.9534 41.197C72.932 41.3143 72.8787 41.4156 72.7934 41.501C72.7187 41.5756 72.6174 41.6183 72.4894 41.629C72.372 41.6396 72.244 41.6023 72.1054 41.517C71.8494 41.325 71.5774 41.1863 71.2894 41.101C71.012 41.0156 70.7454 40.973 70.4894 40.973C70.0947 40.973 69.7427 41.037 69.4334 41.165C69.1347 41.293 68.8787 41.4796 68.6654 41.725C68.4627 41.9596 68.308 42.253 68.2014 42.605C68.0947 42.9463 68.0414 43.3463 68.0414 43.805C68.0414 44.7116 68.2547 45.4263 68.6814 45.949C69.108 46.461 69.7107 46.717 70.4894 46.717C70.7454 46.717 71.012 46.6796 71.2894 46.605C71.5667 46.5196 71.8387 46.381 72.1054 46.189C72.244 46.1036 72.372 46.0716 72.4894 46.093C72.6067 46.1036 72.7027 46.1516 72.7774 46.237C72.8627 46.3116 72.916 46.4076 72.9374 46.525C72.9587 46.6316 72.948 46.7436 72.9054 46.861C72.8734 46.9783 72.7987 47.0743 72.6814 47.149C72.34 47.405 71.9667 47.5916 71.5614 47.709C71.156 47.8263 70.7667 47.885 70.3934 47.885ZM75.1749 47.821C74.9509 47.821 74.7749 47.7516 74.6469 47.613C74.5189 47.4743 74.4549 47.2823 74.4549 47.037V40.653C74.4549 40.397 74.5189 40.205 74.6469 40.077C74.7749 39.9383 74.9509 39.869 75.1749 39.869C75.4095 39.869 75.5909 39.9383 75.7189 40.077C75.8469 40.205 75.9109 40.397 75.9109 40.653V47.037C75.9109 47.2823 75.8469 47.4743 75.7189 47.613C75.6015 47.7516 75.4202 47.821 75.1749 47.821ZM75.1749 38.141C74.8869 38.141 74.6575 38.0663 74.4869 37.917C74.3269 37.757 74.2469 37.549 74.2469 37.293C74.2469 37.0156 74.3269 36.8076 74.4869 36.669C74.6575 36.5196 74.8869 36.445 75.1749 36.445C75.4842 36.445 75.7135 36.5196 75.8629 36.669C76.0229 36.8076 76.1029 37.0156 76.1029 37.293C76.1029 37.549 76.0229 37.757 75.8629 37.917C75.7135 38.0663 75.4842 38.141 75.1749 38.141ZM81.8517 47.885C81.0091 47.885 80.2837 47.725 79.6757 47.405C79.0784 47.0743 78.6144 46.6103 78.2837 46.013C77.9531 45.405 77.7877 44.6903 77.7877 43.869C77.7877 43.0583 77.9477 42.349 78.2677 41.741C78.5984 41.133 79.0464 40.6583 79.6117 40.317C80.1877 39.9756 80.8437 39.805 81.5797 39.805C82.1024 39.805 82.5717 39.8956 82.9877 40.077C83.4144 40.2476 83.7771 40.4983 84.0757 40.829C84.3744 41.1596 84.5984 41.565 84.7477 42.045C84.9077 42.5143 84.9877 43.0476 84.9877 43.645C84.9877 43.8156 84.9344 43.949 84.8277 44.045C84.7317 44.1303 84.5877 44.173 84.3957 44.173H78.9237V43.245H84.0277L83.7557 43.469C83.7557 42.9143 83.6704 42.445 83.4997 42.061C83.3397 41.6663 83.0997 41.3676 82.7797 41.165C82.4704 40.9623 82.0811 40.861 81.6117 40.861C81.0997 40.861 80.6624 40.9836 80.2997 41.229C79.9371 41.4636 79.6597 41.7996 79.4677 42.237C79.2757 42.6636 79.1797 43.1596 79.1797 43.725V43.821C79.1797 44.781 79.4091 45.5063 79.8677 45.997C80.3264 46.4876 80.9877 46.733 81.8517 46.733C82.1931 46.733 82.5397 46.6903 82.8917 46.605C83.2544 46.5196 83.6011 46.365 83.9317 46.141C84.0917 46.045 84.2357 46.0023 84.3637 46.013C84.5024 46.013 84.6144 46.0556 84.6997 46.141C84.7851 46.2156 84.8384 46.3116 84.8597 46.429C84.8811 46.5356 84.8651 46.653 84.8117 46.781C84.7584 46.909 84.6571 47.021 84.5077 47.117C84.1557 47.3623 83.7344 47.5543 83.2437 47.693C82.7637 47.821 82.2997 47.885 81.8517 47.885ZM87.5186 47.853C87.2946 47.853 87.1186 47.789 86.9906 47.661C86.8626 47.533 86.7986 47.3463 86.7986 47.101V40.573C86.7986 40.3276 86.8626 40.1463 86.9906 40.029C87.1186 39.901 87.2946 39.837 87.5186 39.837C87.7426 39.837 87.9133 39.901 88.0306 40.029C88.1586 40.1463 88.2226 40.3276 88.2226 40.573V41.885L88.0466 41.645C88.2706 41.037 88.6333 40.5783 89.1346 40.269C89.6466 39.9596 90.2279 39.805 90.8786 39.805C91.5079 39.805 92.0253 39.917 92.4306 40.141C92.8359 40.365 93.1399 40.7063 93.3426 41.165C93.5453 41.6236 93.6466 42.205 93.6466 42.909V47.101C93.6466 47.3463 93.5826 47.533 93.4546 47.661C93.3373 47.789 93.1613 47.853 92.9266 47.853C92.6919 47.853 92.5106 47.789 92.3826 47.661C92.2546 47.533 92.1906 47.3463 92.1906 47.101V42.989C92.1906 42.2956 92.0573 41.789 91.7906 41.469C91.5239 41.149 91.0973 40.989 90.5106 40.989C89.8279 40.989 89.2786 41.2023 88.8626 41.629C88.4573 42.045 88.2546 42.6103 88.2546 43.325V47.101C88.2546 47.6023 88.0093 47.853 87.5186 47.853ZM99.3309 47.885C98.5415 47.885 97.8589 47.7196 97.2829 47.389C96.7069 47.0476 96.2642 46.573 95.9549 45.965C95.6455 45.3463 95.4909 44.621 95.4909 43.789C95.4909 43.1703 95.5762 42.6156 95.7469 42.125C95.9282 41.6343 96.1842 41.2183 96.5149 40.877C96.8455 40.525 97.2455 40.2583 97.7149 40.077C98.1949 39.8956 98.7335 39.805 99.3309 39.805C99.7042 39.805 100.099 39.8636 100.515 39.981C100.931 40.0983 101.315 40.2903 101.667 40.557C101.784 40.6423 101.859 40.7436 101.891 40.861C101.923 40.9676 101.923 41.0796 101.891 41.197C101.87 41.3143 101.816 41.4156 101.731 41.501C101.656 41.5756 101.555 41.6183 101.427 41.629C101.31 41.6396 101.182 41.6023 101.043 41.517C100.787 41.325 100.515 41.1863 100.227 41.101C99.9495 41.0156 99.6829 40.973 99.4269 40.973C99.0322 40.973 98.6802 41.037 98.3709 41.165C98.0722 41.293 97.8162 41.4796 97.6029 41.725C97.4002 41.9596 97.2455 42.253 97.1389 42.605C97.0322 42.9463 96.9789 43.3463 96.9789 43.805C96.9789 44.7116 97.1922 45.4263 97.6189 45.949C98.0455 46.461 98.6482 46.717 99.4269 46.717C99.6829 46.717 99.9495 46.6796 100.227 46.605C100.504 46.5196 100.776 46.381 101.043 46.189C101.182 46.1036 101.31 46.0716 101.427 46.093C101.544 46.1036 101.64 46.1516 101.715 46.237C101.8 46.3116 101.854 46.4076 101.875 46.525C101.896 46.6316 101.886 46.7436 101.843 46.861C101.811 46.9783 101.736 47.0743 101.619 47.149C101.278 47.405 100.904 47.5916 100.499 47.709C100.094 47.8263 99.7042 47.885 99.3309 47.885ZM105.262 50.733C105.092 50.733 104.948 50.685 104.83 50.589C104.724 50.5036 104.66 50.381 104.638 50.221C104.628 50.0716 104.66 49.9116 104.734 49.741L105.822 47.277V47.885L102.798 40.845C102.724 40.6636 102.697 40.4983 102.718 40.349C102.74 40.1996 102.809 40.077 102.926 39.981C103.054 39.885 103.225 39.837 103.438 39.837C103.62 39.837 103.764 39.8796 103.87 39.965C103.977 40.0503 104.078 40.1996 104.174 40.413L106.686 46.605H106.238L108.798 40.413C108.884 40.1996 108.985 40.0503 109.102 39.965C109.22 39.8796 109.38 39.837 109.582 39.837C109.764 39.837 109.902 39.885 109.998 39.981C110.105 40.077 110.169 40.1996 110.19 40.349C110.212 40.4983 110.18 40.6583 110.094 40.829L106.062 50.157C105.956 50.381 105.844 50.5303 105.726 50.605C105.62 50.6903 105.465 50.733 105.262 50.733Z" fill="#0F1415"/>
<path d="M46.6952 75.4263C46.2566 75.4263 45.8319 75.389 45.4212 75.3143C45.0106 75.249 44.6232 75.1463 44.2592 75.0063C43.8952 74.8663 43.5686 74.6936 43.2792 74.4883C43.1579 74.4043 43.0692 74.3016 43.0132 74.1803C42.9666 74.059 42.9526 73.9423 42.9712 73.8303C42.9992 73.709 43.0506 73.6063 43.1252 73.5223C43.2092 73.4383 43.3072 73.387 43.4192 73.3683C43.5312 73.3496 43.6526 73.387 43.7832 73.4803C44.2126 73.7696 44.6606 73.9796 45.1272 74.1103C45.6032 74.241 46.1259 74.3063 46.6952 74.3063C47.5166 74.3063 48.1186 74.157 48.5012 73.8583C48.8932 73.5596 49.0892 73.1676 49.0892 72.6823C49.0892 72.281 48.9492 71.9683 48.6692 71.7443C48.3892 71.511 47.9179 71.329 47.2552 71.1983L45.7712 70.8903C44.8939 70.7036 44.2359 70.3956 43.7972 69.9663C43.3679 69.537 43.1532 68.963 43.1532 68.2443C43.1532 67.8056 43.2419 67.409 43.4192 67.0543C43.5966 66.6903 43.8486 66.3776 44.1752 66.1163C44.5019 65.855 44.8846 65.6543 45.3232 65.5143C45.7712 65.3743 46.2659 65.3043 46.8072 65.3043C47.3859 65.3043 47.9272 65.3836 48.4312 65.5423C48.9446 65.701 49.4066 65.9343 49.8172 66.2423C49.9292 66.3263 50.0039 66.429 50.0412 66.5503C50.0786 66.6623 50.0832 66.7743 50.0552 66.8863C50.0366 66.9983 49.9852 67.0916 49.9012 67.1663C49.8266 67.241 49.7286 67.283 49.6072 67.2923C49.4952 67.3016 49.3692 67.2596 49.2292 67.1663C48.8559 66.905 48.4732 66.7183 48.0812 66.6063C47.6892 66.485 47.2599 66.4243 46.7932 66.4243C46.3172 66.4243 45.9019 66.499 45.5472 66.6483C45.2019 66.7976 44.9312 67.0076 44.7352 67.2783C44.5486 67.5396 44.4552 67.8476 44.4552 68.2023C44.4552 68.6316 44.5859 68.9676 44.8472 69.2103C45.1086 69.453 45.5472 69.6396 46.1632 69.7703L47.6332 70.0643C48.5666 70.2603 49.2572 70.5636 49.7052 70.9743C50.1626 71.3756 50.3912 71.917 50.3912 72.5983C50.3912 73.0276 50.3026 73.415 50.1252 73.7603C49.9572 74.1056 49.7146 74.4043 49.3972 74.6563C49.0799 74.899 48.6926 75.0903 48.2352 75.2303C47.7779 75.361 47.2646 75.4263 46.6952 75.4263ZM54.1175 75.4263C53.6509 75.4263 53.2262 75.333 52.8435 75.1463C52.4702 74.9596 52.1762 74.7076 51.9615 74.3903C51.7562 74.073 51.6535 73.7183 51.6535 73.3263C51.6535 72.8223 51.7795 72.4256 52.0315 72.1363C52.2835 71.847 52.7082 71.6416 53.3055 71.5203C53.9029 71.3896 54.7055 71.3243 55.7135 71.3243H56.3715V72.1363H55.7415C55.0229 72.1363 54.4535 72.169 54.0335 72.2343C53.6229 72.2996 53.3335 72.4163 53.1655 72.5843C52.9975 72.743 52.9135 72.967 52.9135 73.2563C52.9135 73.6203 53.0395 73.919 53.2915 74.1523C53.5529 74.3856 53.9075 74.5023 54.3555 74.5023C54.7102 74.5023 55.0229 74.4183 55.2935 74.2503C55.5642 74.073 55.7789 73.8396 55.9375 73.5503C56.0962 73.2516 56.1755 72.911 56.1755 72.5283V70.9183C56.1755 70.3676 56.0635 69.971 55.8395 69.7283C55.6155 69.4763 55.2375 69.3503 54.7055 69.3503C54.3975 69.3503 54.0802 69.3923 53.7535 69.4763C53.4269 69.5603 53.0862 69.691 52.7315 69.8683C52.5915 69.9336 52.4702 69.957 52.3675 69.9383C52.2649 69.9103 52.1809 69.8543 52.1155 69.7703C52.0595 69.677 52.0269 69.579 52.0175 69.4763C52.0175 69.3643 52.0409 69.257 52.0875 69.1543C52.1435 69.0516 52.2369 68.977 52.3675 68.9303C52.7782 68.725 53.1842 68.5803 53.5855 68.4963C53.9962 68.403 54.3789 68.3563 54.7335 68.3563C55.3402 68.3563 55.8395 68.4543 56.2315 68.6503C56.6235 68.837 56.9175 69.131 57.1135 69.5323C57.3095 69.9243 57.4075 70.4283 57.4075 71.0443V74.7403C57.4075 74.955 57.3562 75.1183 57.2535 75.2303C57.1509 75.3423 57.0015 75.3983 56.8055 75.3983C56.6189 75.3983 56.4695 75.3423 56.3575 75.2303C56.2549 75.1183 56.2035 74.955 56.2035 74.7403V73.7463H56.3295C56.2549 74.0916 56.1149 74.3903 55.9095 74.6423C55.7042 74.8943 55.4475 75.0903 55.1395 75.2303C54.8409 75.361 54.5002 75.4263 54.1175 75.4263ZM61.934 75.3983C61.7567 75.3983 61.6027 75.3516 61.472 75.2583C61.3414 75.165 61.2294 75.0156 61.136 74.8103L58.756 69.2663C58.6907 69.1076 58.6674 68.963 58.686 68.8323C58.7047 68.7016 58.7654 68.5943 58.868 68.5103C58.98 68.4263 59.1294 68.3843 59.316 68.3843C59.4747 68.3843 59.6007 68.4216 59.694 68.4963C59.7874 68.571 59.876 68.7016 59.96 68.8883L62.158 74.3063H61.766L64.02 68.8883C64.0947 68.7016 64.1787 68.571 64.272 68.4963C64.3747 68.4216 64.5147 68.3843 64.692 68.3843C64.8507 68.3843 64.972 68.4263 65.056 68.5103C65.1494 68.5943 65.2054 68.7016 65.224 68.8323C65.2427 68.963 65.2147 69.103 65.14 69.2523L62.746 74.8103C62.662 75.0156 62.55 75.165 62.41 75.2583C62.2794 75.3516 62.1207 75.3983 61.934 75.3983ZM69.6307 75.4263C68.8934 75.4263 68.2587 75.2863 67.7267 75.0063C67.2041 74.717 66.7981 74.311 66.5087 73.7883C66.2194 73.2563 66.0747 72.631 66.0747 71.9123C66.0747 71.203 66.2147 70.5823 66.4947 70.0503C66.7841 69.5183 67.1761 69.103 67.6707 68.8043C68.1747 68.5056 68.7487 68.3563 69.3927 68.3563C69.8501 68.3563 70.2607 68.4356 70.6247 68.5943C70.9981 68.7436 71.3154 68.963 71.5767 69.2523C71.8381 69.5416 72.0341 69.8963 72.1647 70.3163C72.3047 70.727 72.3747 71.1936 72.3747 71.7163C72.3747 71.8656 72.3281 71.9823 72.2347 72.0663C72.1507 72.141 72.0247 72.1783 71.8567 72.1783H67.0687V71.3663H71.5347L71.2967 71.5623C71.2967 71.077 71.2221 70.6663 71.0727 70.3303C70.9327 69.985 70.7227 69.7236 70.4427 69.5463C70.1721 69.369 69.8314 69.2803 69.4207 69.2803C68.9727 69.2803 68.5901 69.3876 68.2727 69.6023C67.9554 69.8076 67.7127 70.1016 67.5447 70.4843C67.3767 70.8576 67.2927 71.2916 67.2927 71.7863V71.8703C67.2927 72.7103 67.4934 73.345 67.8947 73.7743C68.2961 74.2036 68.8747 74.4183 69.6307 74.4183C69.9294 74.4183 70.2327 74.381 70.5407 74.3063C70.8581 74.2316 71.1614 74.0963 71.4507 73.9003C71.5907 73.8163 71.7167 73.779 71.8287 73.7883C71.9501 73.7883 72.0481 73.8256 72.1227 73.9003C72.1974 73.9656 72.2441 74.0496 72.2627 74.1523C72.2814 74.2456 72.2674 74.3483 72.2207 74.4603C72.1741 74.5723 72.0854 74.6703 71.9547 74.7543C71.6467 74.969 71.2781 75.137 70.8487 75.2583C70.4287 75.3703 70.0227 75.4263 69.6307 75.4263ZM80.4376 75.4263C79.887 75.4263 79.425 75.3283 79.0516 75.1323C78.6876 74.9363 78.4123 74.6516 78.2256 74.2783C78.0483 73.905 77.9596 73.4476 77.9596 72.9063V69.4623H77.0636C76.8956 69.4623 76.765 69.4203 76.6716 69.3363C76.5783 69.243 76.5316 69.1216 76.5316 68.9723C76.5316 68.8136 76.5783 68.6923 76.6716 68.6083C76.765 68.5243 76.8956 68.4823 77.0636 68.4823H77.9596V66.9563C77.9596 66.7416 78.0156 66.583 78.1276 66.4803C78.2396 66.3683 78.3983 66.3123 78.6036 66.3123C78.809 66.3123 78.963 66.3683 79.0656 66.4803C79.1776 66.583 79.2336 66.7416 79.2336 66.9563V68.4823H80.9276C81.105 68.4823 81.2403 68.5243 81.3336 68.6083C81.427 68.6923 81.4736 68.8136 81.4736 68.9723C81.4736 69.1216 81.427 69.243 81.3336 69.3363C81.2403 69.4203 81.105 69.4623 80.9276 69.4623H79.2336V72.7943C79.2336 73.3076 79.341 73.695 79.5556 73.9563C79.7703 74.2176 80.125 74.3483 80.6196 74.3483C80.797 74.3483 80.9463 74.3343 81.0676 74.3063C81.189 74.269 81.2963 74.2503 81.3896 74.2503C81.4736 74.241 81.5436 74.269 81.5996 74.3343C81.665 74.3996 81.6976 74.521 81.6976 74.6983C81.6976 74.829 81.6743 74.9503 81.6276 75.0623C81.5903 75.165 81.511 75.235 81.3896 75.2723C81.2776 75.3096 81.1283 75.3423 80.9416 75.3703C80.755 75.4076 80.587 75.4263 80.4376 75.4263ZM83.3666 75.3703C83.1706 75.3703 83.0166 75.3096 82.9046 75.1883C82.7926 75.067 82.7366 74.899 82.7366 74.6843V69.0983C82.7366 68.8743 82.7926 68.7063 82.9046 68.5943C83.0166 68.473 83.1706 68.4123 83.3666 68.4123C83.5719 68.4123 83.7306 68.473 83.8426 68.5943C83.9546 68.7063 84.0106 68.8743 84.0106 69.0983V74.6843C84.0106 74.899 83.9546 75.067 83.8426 75.1883C83.7399 75.3096 83.5813 75.3703 83.3666 75.3703ZM83.3666 66.9003C83.1146 66.9003 82.9139 66.835 82.7646 66.7043C82.6246 66.5643 82.5546 66.3823 82.5546 66.1583C82.5546 65.9156 82.6246 65.7336 82.7646 65.6123C82.9139 65.4816 83.1146 65.4163 83.3666 65.4163C83.6373 65.4163 83.8379 65.4816 83.9686 65.6123C84.1086 65.7336 84.1786 65.9156 84.1786 66.1583C84.1786 66.3823 84.1086 66.5643 83.9686 66.7043C83.8379 66.835 83.6373 66.9003 83.3666 66.9003ZM86.7169 75.3983C86.5209 75.3983 86.3669 75.3423 86.2549 75.2303C86.1429 75.1183 86.0869 74.955 86.0869 74.7403V69.0283C86.0869 68.8136 86.1429 68.655 86.2549 68.5523C86.3669 68.4403 86.5209 68.3843 86.7169 68.3843C86.9129 68.3843 87.0622 68.4403 87.1649 68.5523C87.2769 68.655 87.3329 68.8136 87.3329 69.0283V70.2183L87.1789 69.9663C87.3562 69.453 87.6409 69.0563 88.0329 68.7763C88.4342 68.4963 88.9102 68.3563 89.4609 68.3563C90.0395 68.3563 90.5062 68.4963 90.8609 68.7763C91.2155 69.047 91.4535 69.4623 91.5749 70.0223H91.3789C91.5469 69.509 91.8455 69.103 92.2749 68.8043C92.7135 68.5056 93.2222 68.3563 93.8009 68.3563C94.3142 68.3563 94.7342 68.459 95.0609 68.6643C95.3969 68.8603 95.6489 69.159 95.8169 69.5603C95.9849 69.9523 96.0689 70.4563 96.0689 71.0723V74.7403C96.0689 74.955 96.0129 75.1183 95.9009 75.2303C95.7889 75.3423 95.6349 75.3983 95.4389 75.3983C95.2335 75.3983 95.0749 75.3423 94.9629 75.2303C94.8509 75.1183 94.7949 74.955 94.7949 74.7403V71.1283C94.7949 70.531 94.6922 70.0923 94.4869 69.8123C94.2815 69.5323 93.9362 69.3923 93.4509 69.3923C92.9189 69.3923 92.4942 69.579 92.1769 69.9523C91.8689 70.3163 91.7149 70.8203 91.7149 71.4643V74.7403C91.7149 74.955 91.6589 75.1183 91.5469 75.2303C91.4442 75.3423 91.2902 75.3983 91.0849 75.3983C90.8795 75.3983 90.7209 75.3423 90.6089 75.2303C90.4969 75.1183 90.4409 74.955 90.4409 74.7403V71.1283C90.4409 70.531 90.3382 70.0923 90.1329 69.8123C89.9275 69.5323 89.5822 69.3923 89.0969 69.3923C88.5649 69.3923 88.1402 69.579 87.8229 69.9523C87.5149 70.3163 87.3609 70.8203 87.3609 71.4643V74.7403C87.3609 75.179 87.1462 75.3983 86.7169 75.3983ZM101.267 75.4263C100.53 75.4263 99.8955 75.2863 99.3635 75.0063C98.8408 74.717 98.4348 74.311 98.1455 73.7883C97.8561 73.2563 97.7115 72.631 97.7115 71.9123C97.7115 71.203 97.8515 70.5823 98.1315 70.0503C98.4208 69.5183 98.8128 69.103 99.3075 68.8043C99.8115 68.5056 100.385 68.3563 101.029 68.3563C101.487 68.3563 101.897 68.4356 102.261 68.5943C102.635 68.7436 102.952 68.963 103.213 69.2523C103.475 69.5416 103.671 69.8963 103.801 70.3163C103.941 70.727 104.011 71.1936 104.011 71.7163C104.011 71.8656 103.965 71.9823 103.871 72.0663C103.787 72.141 103.661 72.1783 103.493 72.1783H98.7055V71.3663H103.171L102.933 71.5623C102.933 71.077 102.859 70.6663 102.709 70.3303C102.569 69.985 102.359 69.7236 102.079 69.5463C101.809 69.369 101.468 69.2803 101.057 69.2803C100.609 69.2803 100.227 69.3876 99.9095 69.6023C99.5921 69.8076 99.3495 70.1016 99.1815 70.4843C99.0135 70.8576 98.9295 71.2916 98.9295 71.7863V71.8703C98.9295 72.7103 99.1301 73.345 99.5315 73.7743C99.9328 74.2036 100.511 74.4183 101.267 74.4183C101.566 74.4183 101.869 74.381 102.177 74.3063C102.495 74.2316 102.798 74.0963 103.087 73.9003C103.227 73.8163 103.353 73.779 103.465 73.7883C103.587 73.7883 103.685 73.8256 103.759 73.9003C103.834 73.9656 103.881 74.0496 103.899 74.1523C103.918 74.2456 103.904 74.3483 103.857 74.4603C103.811 74.5723 103.722 74.6703 103.591 74.7543C103.283 74.969 102.915 75.137 102.485 75.2583C102.065 75.3703 101.659 75.4263 101.267 75.4263ZM111.416 75.4263C110.95 75.4263 110.525 75.333 110.142 75.1463C109.769 74.9596 109.475 74.7076 109.26 74.3903C109.055 74.073 108.952 73.7183 108.952 73.3263C108.952 72.8223 109.078 72.4256 109.33 72.1363C109.582 71.847 110.007 71.6416 110.604 71.5203C111.202 71.3896 112.004 71.3243 113.012 71.3243H113.67V72.1363H113.04C112.322 72.1363 111.752 72.169 111.332 72.2343C110.922 72.2996 110.632 72.4163 110.464 72.5843C110.296 72.743 110.212 72.967 110.212 73.2563C110.212 73.6203 110.338 73.919 110.59 74.1523C110.852 74.3856 111.206 74.5023 111.654 74.5023C112.009 74.5023 112.322 74.4183 112.592 74.2503C112.863 74.073 113.078 73.8396 113.236 73.5503C113.395 73.2516 113.474 72.911 113.474 72.5283V70.9183C113.474 70.3676 113.362 69.971 113.138 69.7283C112.914 69.4763 112.536 69.3503 112.004 69.3503C111.696 69.3503 111.379 69.3923 111.052 69.4763C110.726 69.5603 110.385 69.691 110.03 69.8683C109.89 69.9336 109.769 69.957 109.666 69.9383C109.564 69.9103 109.48 69.8543 109.414 69.7703C109.358 69.677 109.326 69.579 109.316 69.4763C109.316 69.3643 109.34 69.257 109.386 69.1543C109.442 69.0516 109.536 68.977 109.666 68.9303C110.077 68.725 110.483 68.5803 110.884 68.4963C111.295 68.403 111.678 68.3563 112.032 68.3563C112.639 68.3563 113.138 68.4543 113.53 68.6503C113.922 68.837 114.216 69.131 114.412 69.5323C114.608 69.9243 114.706 70.4283 114.706 71.0443V74.7403C114.706 74.955 114.655 75.1183 114.552 75.2303C114.45 75.3423 114.3 75.3983 114.104 75.3983C113.918 75.3983 113.768 75.3423 113.656 75.2303C113.554 75.1183 113.502 74.955 113.502 74.7403V73.7463H113.628C113.554 74.0916 113.414 74.3903 113.208 74.6423C113.003 74.8943 112.746 75.0903 112.438 75.2303C112.14 75.361 111.799 75.4263 111.416 75.4263ZM117.341 75.3983C117.145 75.3983 116.991 75.3423 116.879 75.2303C116.767 75.1183 116.711 74.955 116.711 74.7403V69.0283C116.711 68.8136 116.767 68.655 116.879 68.5523C116.991 68.4403 117.145 68.3843 117.341 68.3843C117.537 68.3843 117.687 68.4403 117.789 68.5523C117.901 68.655 117.957 68.8136 117.957 69.0283V70.1763L117.803 69.9663C117.999 69.4343 118.317 69.033 118.755 68.7623C119.203 68.4916 119.712 68.3563 120.281 68.3563C120.832 68.3563 121.285 68.4543 121.639 68.6503C121.994 68.8463 122.26 69.145 122.437 69.5463C122.615 69.9476 122.703 70.4563 122.703 71.0723V74.7403C122.703 74.955 122.647 75.1183 122.535 75.2303C122.433 75.3423 122.279 75.3983 122.073 75.3983C121.868 75.3983 121.709 75.3423 121.597 75.2303C121.485 75.1183 121.429 74.955 121.429 74.7403V71.1423C121.429 70.5356 121.313 70.0923 121.079 69.8123C120.846 69.5323 120.473 69.3923 119.959 69.3923C119.362 69.3923 118.881 69.579 118.517 69.9523C118.163 70.3163 117.985 70.811 117.985 71.4363V74.7403C117.985 75.179 117.771 75.3983 117.341 75.3983ZM127.327 75.4263C126.73 75.4263 126.202 75.2863 125.745 75.0063C125.297 74.717 124.947 74.3063 124.695 73.7743C124.443 73.233 124.317 72.603 124.317 71.8843C124.317 71.1563 124.438 70.531 124.681 70.0083C124.933 69.4763 125.283 69.0703 125.731 68.7903C126.188 68.501 126.72 68.3563 127.327 68.3563C127.934 68.3563 128.456 68.5103 128.895 68.8183C129.334 69.117 129.628 69.5183 129.777 70.0223H129.623V65.9763C129.623 65.7616 129.674 65.603 129.777 65.5003C129.889 65.3883 130.048 65.3323 130.253 65.3323C130.458 65.3323 130.617 65.3883 130.729 65.5003C130.841 65.603 130.897 65.7616 130.897 65.9763V74.7403C130.897 74.955 130.841 75.1183 130.729 75.2303C130.617 75.3423 130.458 75.3983 130.253 75.3983C130.057 75.3983 129.903 75.3423 129.791 75.2303C129.679 75.1183 129.623 74.955 129.623 74.7403V73.4663L129.777 73.7183C129.637 74.241 129.343 74.6563 128.895 74.9643C128.456 75.2723 127.934 75.4263 127.327 75.4263ZM127.621 74.4183C128.032 74.4183 128.386 74.3203 128.685 74.1243C128.993 73.9283 129.226 73.6436 129.385 73.2703C129.553 72.897 129.637 72.435 129.637 71.8843C129.637 71.063 129.455 70.4376 129.091 70.0083C128.727 69.579 128.237 69.3643 127.621 69.3643C127.22 69.3643 126.865 69.4623 126.557 69.6583C126.258 69.845 126.025 70.125 125.857 70.4983C125.689 70.8716 125.605 71.3336 125.605 71.8843C125.605 72.7056 125.787 73.3356 126.151 73.7743C126.524 74.2036 127.014 74.4183 127.621 74.4183ZM137.248 75.3983C137.033 75.3983 136.87 75.3423 136.758 75.2303C136.646 75.1183 136.59 74.955 136.59 74.7403V69.0283C136.59 68.8136 136.646 68.655 136.758 68.5523C136.87 68.4403 137.024 68.3843 137.22 68.3843C137.416 68.3843 137.565 68.4403 137.668 68.5523C137.78 68.655 137.836 68.8136 137.836 69.0283V70.1063H137.696C137.845 69.5463 138.125 69.1216 138.536 68.8323C138.947 68.543 139.465 68.3796 140.09 68.3423C140.239 68.333 140.361 68.3703 140.454 68.4543C140.547 68.529 140.599 68.6596 140.608 68.8463C140.617 69.0236 140.575 69.1683 140.482 69.2803C140.389 69.383 140.244 69.4436 140.048 69.4623L139.796 69.4763C139.18 69.5416 138.704 69.7423 138.368 70.0783C138.041 70.4143 137.878 70.8763 137.878 71.4643V74.7403C137.878 74.955 137.822 75.1183 137.71 75.2303C137.607 75.3423 137.453 75.3983 137.248 75.3983ZM144.758 75.4263C144.02 75.4263 143.386 75.2863 142.854 75.0063C142.331 74.717 141.925 74.311 141.636 73.7883C141.346 73.2563 141.202 72.631 141.202 71.9123C141.202 71.203 141.342 70.5823 141.622 70.0503C141.911 69.5183 142.303 69.103 142.798 68.8043C143.302 68.5056 143.876 68.3563 144.52 68.3563C144.977 68.3563 145.388 68.4356 145.752 68.5943C146.125 68.7436 146.442 68.963 146.704 69.2523C146.965 69.5416 147.161 69.8963 147.292 70.3163C147.432 70.727 147.502 71.1936 147.502 71.7163C147.502 71.8656 147.455 71.9823 147.362 72.0663C147.278 72.141 147.152 72.1783 146.984 72.1783H142.196V71.3663H146.662L146.424 71.5623C146.424 71.077 146.349 70.6663 146.2 70.3303C146.06 69.985 145.85 69.7236 145.57 69.5463C145.299 69.369 144.958 69.2803 144.548 69.2803C144.1 69.2803 143.717 69.3876 143.4 69.6023C143.082 69.8076 142.84 70.1016 142.672 70.4843C142.504 70.8576 142.42 71.2916 142.42 71.7863V71.8703C142.42 72.7103 142.62 73.345 143.022 73.7743C143.423 74.2036 144.002 74.4183 144.758 74.4183C145.056 74.4183 145.36 74.381 145.668 74.3063C145.985 74.2316 146.288 74.0963 146.578 73.9003C146.718 73.8163 146.844 73.779 146.956 73.7883C147.077 73.7883 147.175 73.8256 147.25 73.9003C147.324 73.9656 147.371 74.0496 147.39 74.1523C147.408 74.2456 147.394 74.3483 147.348 74.4603C147.301 74.5723 147.212 74.6703 147.082 74.7543C146.774 74.969 146.405 75.137 145.976 75.2583C145.556 75.3703 145.15 75.4263 144.758 75.4263ZM151.438 75.4263C151.018 75.4263 150.594 75.3796 150.164 75.2863C149.744 75.1836 149.348 75.011 148.974 74.7683C148.872 74.703 148.797 74.6236 148.75 74.5303C148.713 74.4276 148.699 74.3296 148.708 74.2363C148.727 74.1336 148.769 74.045 148.834 73.9703C148.9 73.8956 148.979 73.8536 149.072 73.8443C149.175 73.8256 149.282 73.849 149.394 73.9143C149.758 74.1196 150.108 74.2643 150.444 74.3483C150.79 74.4323 151.13 74.4743 151.466 74.4743C151.98 74.4743 152.367 74.381 152.628 74.1943C152.89 74.0076 153.02 73.7603 153.02 73.4523C153.02 73.191 152.932 72.9903 152.754 72.8503C152.586 72.701 152.32 72.589 151.956 72.5143L150.654 72.2483C150.076 72.1176 149.637 71.903 149.338 71.6043C149.049 71.2963 148.904 70.9043 148.904 70.4283C148.904 70.0083 149.016 69.6443 149.24 69.3363C149.474 69.019 149.796 68.7763 150.206 68.6083C150.617 68.4403 151.088 68.3563 151.62 68.3563C152.031 68.3563 152.418 68.4123 152.782 68.5243C153.156 68.627 153.492 68.7856 153.79 69.0003C153.902 69.0656 153.972 69.1496 154 69.2523C154.038 69.3456 154.042 69.4436 154.014 69.5463C153.996 69.6396 153.954 69.719 153.888 69.7843C153.823 69.8496 153.739 69.8916 153.636 69.9103C153.534 69.9196 153.422 69.8916 153.3 69.8263C153.03 69.6396 152.75 69.509 152.46 69.4343C152.18 69.3503 151.9 69.3083 151.62 69.3083C151.116 69.3083 150.734 69.4063 150.472 69.6023C150.22 69.7983 150.094 70.055 150.094 70.3723C150.094 70.615 150.169 70.8156 150.318 70.9743C150.477 71.133 150.724 71.2496 151.06 71.3243L152.362 71.5903C152.969 71.721 153.426 71.931 153.734 72.2203C154.042 72.5003 154.196 72.883 154.196 73.3683C154.196 74.003 153.944 74.507 153.44 74.8803C152.946 75.2443 152.278 75.4263 151.438 75.4263ZM158.752 75.4263C158.08 75.4263 157.496 75.2816 157.002 74.9923C156.507 74.703 156.124 74.2923 155.854 73.7603C155.583 73.2283 155.448 72.603 155.448 71.8843C155.448 71.343 155.522 70.8576 155.672 70.4283C155.83 69.9896 156.054 69.6163 156.344 69.3083C156.633 69.0003 156.978 68.767 157.38 68.6083C157.79 68.4403 158.248 68.3563 158.752 68.3563C159.424 68.3563 160.007 68.501 160.502 68.7903C160.996 69.0796 161.379 69.4903 161.65 70.0223C161.92 70.545 162.056 71.1656 162.056 71.8843C162.056 72.4256 161.976 72.9156 161.818 73.3543C161.668 73.793 161.449 74.1663 161.16 74.4743C160.87 74.7823 160.52 75.0203 160.11 75.1883C159.708 75.347 159.256 75.4263 158.752 75.4263ZM158.752 74.4183C159.162 74.4183 159.517 74.3203 159.816 74.1243C160.124 73.9283 160.357 73.6436 160.516 73.2703C160.684 72.897 160.768 72.435 160.768 71.8843C160.768 71.063 160.586 70.4376 160.222 70.0083C159.858 69.579 159.368 69.3643 158.752 69.3643C158.35 69.3643 157.996 69.4623 157.688 69.6583C157.389 69.845 157.156 70.125 156.988 70.4983C156.82 70.8716 156.736 71.3336 156.736 71.8843C156.736 72.7056 156.918 73.3356 157.282 73.7743C157.655 74.2036 158.145 74.4183 158.752 74.4183ZM166.124 75.4263C165.573 75.4263 165.111 75.3236 164.738 75.1183C164.374 74.913 164.103 74.6096 163.926 74.2083C163.748 73.807 163.66 73.303 163.66 72.6963V69.0283C163.66 68.8136 163.711 68.655 163.814 68.5523C163.926 68.4403 164.084 68.3843 164.29 68.3843C164.495 68.3843 164.654 68.4403 164.766 68.5523C164.878 68.655 164.934 68.8136 164.934 69.0283V72.6963C164.934 73.275 165.05 73.7043 165.284 73.9843C165.517 74.255 165.886 74.3903 166.39 74.3903C166.95 74.3903 167.402 74.2036 167.748 73.8303C168.102 73.457 168.28 72.9623 168.28 72.3463V69.0283C168.28 68.8136 168.331 68.655 168.434 68.5523C168.546 68.4403 168.704 68.3843 168.91 68.3843C169.115 68.3843 169.274 68.4403 169.386 68.5523C169.498 68.655 169.554 68.8136 169.554 69.0283V74.7403C169.554 75.179 169.348 75.3983 168.938 75.3983C168.732 75.3983 168.574 75.3423 168.462 75.2303C168.359 75.1183 168.308 74.955 168.308 74.7403V73.5223L168.49 73.7603C168.303 74.3016 168 74.717 167.58 75.0063C167.169 75.2863 166.684 75.4263 166.124 75.4263ZM172.262 75.3983C172.047 75.3983 171.884 75.3423 171.772 75.2303C171.66 75.1183 171.604 74.955 171.604 74.7403V69.0283C171.604 68.8136 171.66 68.655 171.772 68.5523C171.884 68.4403 172.038 68.3843 172.234 68.3843C172.43 68.3843 172.579 68.4403 172.682 68.5523C172.794 68.655 172.85 68.8136 172.85 69.0283V70.1063H172.71C172.859 69.5463 173.139 69.1216 173.55 68.8323C173.96 68.543 174.478 68.3796 175.104 68.3423C175.253 68.333 175.374 68.3703 175.468 68.4543C175.561 68.529 175.612 68.6596 175.622 68.8463C175.631 69.0236 175.589 69.1683 175.496 69.2803C175.402 69.383 175.258 69.4436 175.062 69.4623L174.81 69.4763C174.194 69.5416 173.718 69.7423 173.382 70.0783C173.055 70.4143 172.892 70.8763 172.892 71.4643V74.7403C172.892 74.955 172.836 75.1183 172.724 75.2303C172.621 75.3423 172.467 75.3983 172.262 75.3983ZM179.575 75.4263C178.885 75.4263 178.287 75.2816 177.783 74.9923C177.279 74.6936 176.892 74.2783 176.621 73.7463C176.351 73.205 176.215 72.5703 176.215 71.8423C176.215 71.301 176.29 70.8156 176.439 70.3863C176.598 69.957 176.822 69.593 177.111 69.2943C177.401 68.9863 177.751 68.753 178.161 68.5943C178.581 68.4356 179.053 68.3563 179.575 68.3563C179.902 68.3563 180.247 68.4076 180.611 68.5103C180.975 68.613 181.311 68.781 181.619 69.0143C181.722 69.089 181.787 69.1776 181.815 69.2803C181.843 69.3736 181.843 69.4716 181.815 69.5743C181.797 69.677 181.75 69.7656 181.675 69.8403C181.61 69.9056 181.521 69.943 181.409 69.9523C181.307 69.9616 181.195 69.929 181.073 69.8543C180.849 69.6863 180.611 69.565 180.359 69.4903C180.117 69.4156 179.883 69.3783 179.659 69.3783C179.314 69.3783 179.006 69.4343 178.735 69.5463C178.474 69.6583 178.25 69.8216 178.063 70.0363C177.886 70.2416 177.751 70.4983 177.657 70.8063C177.564 71.105 177.517 71.455 177.517 71.8563C177.517 72.6496 177.704 73.275 178.077 73.7323C178.451 74.1803 178.978 74.4043 179.659 74.4043C179.883 74.4043 180.117 74.3716 180.359 74.3063C180.602 74.2316 180.84 74.1103 181.073 73.9423C181.195 73.8676 181.307 73.8396 181.409 73.8583C181.512 73.8676 181.596 73.9096 181.661 73.9843C181.736 74.0496 181.783 74.1336 181.801 74.2363C181.82 74.3296 181.811 74.4276 181.773 74.5303C181.745 74.633 181.68 74.717 181.577 74.7823C181.279 75.0063 180.952 75.1696 180.597 75.2723C180.243 75.375 179.902 75.4263 179.575 75.4263ZM186.142 75.4263C185.405 75.4263 184.77 75.2863 184.238 75.0063C183.716 74.717 183.31 74.311 183.02 73.7883C182.731 73.2563 182.586 72.631 182.586 71.9123C182.586 71.203 182.726 70.5823 183.006 70.0503C183.296 69.5183 183.688 69.103 184.182 68.8043C184.686 68.5056 185.26 68.3563 185.904 68.3563C186.362 68.3563 186.772 68.4356 187.136 68.5943C187.51 68.7436 187.827 68.963 188.088 69.2523C188.35 69.5416 188.546 69.8963 188.676 70.3163C188.816 70.727 188.886 71.1936 188.886 71.7163C188.886 71.8656 188.84 71.9823 188.746 72.0663C188.662 72.141 188.536 72.1783 188.368 72.1783H183.58V71.3663H188.046L187.808 71.5623C187.808 71.077 187.734 70.6663 187.584 70.3303C187.444 69.985 187.234 69.7236 186.954 69.5463C186.684 69.369 186.343 69.2803 185.932 69.2803C185.484 69.2803 185.102 69.3876 184.784 69.6023C184.467 69.8076 184.224 70.1016 184.056 70.4843C183.888 70.8576 183.804 71.2916 183.804 71.7863V71.8703C183.804 72.7103 184.005 73.345 184.406 73.7743C184.808 74.2036 185.386 74.4183 186.142 74.4183C186.441 74.4183 186.744 74.381 187.052 74.3063C187.37 74.2316 187.673 74.0963 187.962 73.9003C188.102 73.8163 188.228 73.779 188.34 73.7883C188.462 73.7883 188.56 73.8256 188.634 73.9003C188.709 73.9656 188.756 74.0496 188.774 74.1523C188.793 74.2456 188.779 74.3483 188.732 74.4603C188.686 74.5723 188.597 74.6703 188.466 74.7543C188.158 74.969 187.79 75.137 187.36 75.2583C186.94 75.3703 186.534 75.4263 186.142 75.4263ZM192.823 75.4263C192.403 75.4263 191.978 75.3796 191.549 75.2863C191.129 75.1836 190.732 75.011 190.359 74.7683C190.256 74.703 190.182 74.6236 190.135 74.5303C190.098 74.4276 190.084 74.3296 190.093 74.2363C190.112 74.1336 190.154 74.045 190.219 73.9703C190.284 73.8956 190.364 73.8536 190.457 73.8443C190.56 73.8256 190.667 73.849 190.779 73.9143C191.143 74.1196 191.493 74.2643 191.829 74.3483C192.174 74.4323 192.515 74.4743 192.851 74.4743C193.364 74.4743 193.752 74.381 194.013 74.1943C194.274 74.0076 194.405 73.7603 194.405 73.4523C194.405 73.191 194.316 72.9903 194.139 72.8503C193.971 72.701 193.705 72.589 193.341 72.5143L192.039 72.2483C191.46 72.1176 191.022 71.903 190.723 71.6043C190.434 71.2963 190.289 70.9043 190.289 70.4283C190.289 70.0083 190.401 69.6443 190.625 69.3363C190.858 69.019 191.18 68.7763 191.591 68.6083C192.002 68.4403 192.473 68.3563 193.005 68.3563C193.416 68.3563 193.803 68.4123 194.167 68.5243C194.54 68.627 194.876 68.7856 195.175 69.0003C195.287 69.0656 195.357 69.1496 195.385 69.2523C195.422 69.3456 195.427 69.4436 195.399 69.5463C195.38 69.6396 195.338 69.719 195.273 69.7843C195.208 69.8496 195.124 69.8916 195.021 69.9103C194.918 69.9196 194.806 69.8916 194.685 69.8263C194.414 69.6396 194.134 69.509 193.845 69.4343C193.565 69.3503 193.285 69.3083 193.005 69.3083C192.501 69.3083 192.118 69.4063 191.857 69.6023C191.605 69.7983 191.479 70.055 191.479 70.3723C191.479 70.615 191.554 70.8156 191.703 70.9743C191.862 71.133 192.109 71.2496 192.445 71.3243L193.747 71.5903C194.354 71.721 194.811 71.931 195.119 72.2203C195.427 72.5003 195.581 72.883 195.581 73.3683C195.581 74.003 195.329 74.507 194.825 74.8803C194.33 75.2443 193.663 75.4263 192.823 75.4263ZM203.311 75.3983C203.134 75.3983 202.98 75.3563 202.849 75.2723C202.718 75.179 202.616 75.0296 202.541 74.8243L200.455 69.2663C200.39 69.089 200.371 68.935 200.399 68.8043C200.427 68.6736 200.492 68.571 200.595 68.4963C200.698 68.4216 200.833 68.3843 201.001 68.3843C201.16 68.3843 201.286 68.4216 201.379 68.4963C201.472 68.571 201.552 68.7063 201.617 68.9023L203.521 74.2783H203.185L205.145 68.8743C205.21 68.7063 205.294 68.585 205.397 68.5103C205.509 68.4263 205.644 68.3843 205.803 68.3843C205.971 68.3843 206.111 68.4263 206.223 68.5103C206.335 68.585 206.414 68.7063 206.461 68.8743L208.393 74.2783H208.071L210.003 68.8743C210.068 68.6876 210.152 68.5616 210.255 68.4963C210.358 68.4216 210.484 68.3843 210.633 68.3843C210.801 68.3843 210.927 68.4263 211.011 68.5103C211.095 68.5943 211.142 68.7063 211.151 68.8463C211.17 68.977 211.151 69.117 211.095 69.2663L209.009 74.8243C208.944 75.0203 208.841 75.165 208.701 75.2583C208.57 75.3516 208.416 75.3983 208.239 75.3983C208.062 75.3983 207.903 75.3516 207.763 75.2583C207.632 75.165 207.53 75.0203 207.455 74.8243L205.453 69.3363H206.097L204.095 74.8243C204.02 75.0203 203.918 75.165 203.787 75.2583C203.656 75.3516 203.498 75.3983 203.311 75.3983ZM213.331 75.3703C213.135 75.3703 212.981 75.3096 212.869 75.1883C212.757 75.067 212.701 74.899 212.701 74.6843V69.0983C212.701 68.8743 212.757 68.7063 212.869 68.5943C212.981 68.473 213.135 68.4123 213.331 68.4123C213.537 68.4123 213.695 68.473 213.807 68.5943C213.919 68.7063 213.975 68.8743 213.975 69.0983V74.6843C213.975 74.899 213.919 75.067 213.807 75.1883C213.705 75.3096 213.546 75.3703 213.331 75.3703ZM213.331 66.9003C213.079 66.9003 212.879 66.835 212.729 66.7043C212.589 66.5643 212.519 66.3823 212.519 66.1583C212.519 65.9156 212.589 65.7336 212.729 65.6123C212.879 65.4816 213.079 65.4163 213.331 65.4163C213.602 65.4163 213.803 65.4816 213.933 65.6123C214.073 65.7336 214.143 65.9156 214.143 66.1583C214.143 66.3823 214.073 66.5643 213.933 66.7043C213.803 66.835 213.602 66.9003 213.331 66.9003ZM218.852 75.4263C218.301 75.4263 217.839 75.3283 217.466 75.1323C217.102 74.9363 216.826 74.6516 216.64 74.2783C216.462 73.905 216.374 73.4476 216.374 72.9063V69.4623H215.478C215.31 69.4623 215.179 69.4203 215.086 69.3363C214.992 69.243 214.946 69.1216 214.946 68.9723C214.946 68.8136 214.992 68.6923 215.086 68.6083C215.179 68.5243 215.31 68.4823 215.478 68.4823H216.374V66.9563C216.374 66.7416 216.43 66.583 216.542 66.4803C216.654 66.3683 216.812 66.3123 217.018 66.3123C217.223 66.3123 217.377 66.3683 217.48 66.4803C217.592 66.583 217.648 66.7416 217.648 66.9563V68.4823H219.342C219.519 68.4823 219.654 68.5243 219.748 68.6083C219.841 68.6923 219.888 68.8136 219.888 68.9723C219.888 69.1216 219.841 69.243 219.748 69.3363C219.654 69.4203 219.519 69.4623 219.342 69.4623H217.648V72.7943C217.648 73.3076 217.755 73.695 217.97 73.9563C218.184 74.2176 218.539 74.3483 219.034 74.3483C219.211 74.3483 219.36 74.3343 219.482 74.3063C219.603 74.269 219.71 74.2503 219.804 74.2503C219.888 74.241 219.958 74.269 220.014 74.3343C220.079 74.3996 220.112 74.521 220.112 74.6983C220.112 74.829 220.088 74.9503 220.042 75.0623C220.004 75.165 219.925 75.235 219.804 75.2723C219.692 75.3096 219.542 75.3423 219.356 75.3703C219.169 75.4076 219.001 75.4263 218.852 75.4263ZM221.781 75.3983C221.585 75.3983 221.431 75.3423 221.319 75.2303C221.207 75.1183 221.151 74.955 221.151 74.7403V65.9763C221.151 65.7616 221.207 65.603 221.319 65.5003C221.431 65.3883 221.585 65.3323 221.781 65.3323C221.986 65.3323 222.145 65.3883 222.257 65.5003C222.369 65.603 222.425 65.7616 222.425 65.9763V69.9663H222.243C222.439 69.4343 222.756 69.033 223.195 68.7623C223.643 68.4916 224.151 68.3563 224.721 68.3563C225.271 68.3563 225.724 68.459 226.079 68.6643C226.433 68.8603 226.699 69.159 226.877 69.5603C227.054 69.9616 227.143 70.4656 227.143 71.0723V74.7403C227.143 74.955 227.087 75.1183 226.975 75.2303C226.872 75.3423 226.718 75.3983 226.513 75.3983C226.307 75.3983 226.149 75.3423 226.037 75.2303C225.925 75.1183 225.869 74.955 225.869 74.7403V71.1423C225.869 70.5356 225.752 70.0923 225.519 69.8123C225.285 69.5323 224.912 69.3923 224.399 69.3923C223.801 69.3923 223.321 69.579 222.957 69.9523C222.602 70.3163 222.425 70.811 222.425 71.4363V74.7403C222.425 75.179 222.21 75.3983 221.781 75.3983ZM45.6452 96.4263C45.2252 96.4263 44.8006 96.3796 44.3712 96.2863C43.9512 96.1836 43.5546 96.011 43.1812 95.7683C43.0786 95.703 43.0039 95.6236 42.9572 95.5303C42.9199 95.4276 42.9059 95.3296 42.9152 95.2363C42.9339 95.1336 42.9759 95.045 43.0412 94.9703C43.1066 94.8956 43.1859 94.8536 43.2792 94.8443C43.3819 94.8256 43.4892 94.849 43.6012 94.9143C43.9652 95.1196 44.3152 95.2643 44.6512 95.3483C44.9966 95.4323 45.3372 95.4743 45.6732 95.4743C46.1866 95.4743 46.5739 95.381 46.8352 95.1943C47.0966 95.0076 47.2272 94.7603 47.2272 94.4523C47.2272 94.191 47.1386 93.9903 46.9612 93.8503C46.7932 93.701 46.5272 93.589 46.1632 93.5143L44.8612 93.2483C44.2826 93.1176 43.8439 92.903 43.5452 92.6043C43.2559 92.2963 43.1112 91.9043 43.1112 91.4283C43.1112 91.0083 43.2232 90.6443 43.4472 90.3363C43.6806 90.019 44.0026 89.7763 44.4132 89.6083C44.8239 89.4403 45.2952 89.3563 45.8272 89.3563C46.2379 89.3563 46.6252 89.4123 46.9892 89.5243C47.3626 89.627 47.6986 89.7856 47.9972 90.0003C48.1092 90.0656 48.1792 90.1496 48.2072 90.2523C48.2446 90.3456 48.2492 90.4436 48.2212 90.5463C48.2026 90.6396 48.1606 90.719 48.0952 90.7843C48.0299 90.8496 47.9459 90.8916 47.8432 90.9103C47.7406 90.9196 47.6286 90.8916 47.5072 90.8263C47.2366 90.6396 46.9566 90.509 46.6672 90.4343C46.3872 90.3503 46.1072 90.3083 45.8272 90.3083C45.3232 90.3083 44.9406 90.4063 44.6792 90.6023C44.4272 90.7983 44.3012 91.055 44.3012 91.3723C44.3012 91.615 44.3759 91.8156 44.5252 91.9743C44.6839 92.133 44.9312 92.2496 45.2672 92.3243L46.5692 92.5903C47.1759 92.721 47.6332 92.931 47.9412 93.2203C48.2492 93.5003 48.4032 93.883 48.4032 94.3683C48.4032 95.003 48.1512 95.507 47.6472 95.8803C47.1526 96.2443 46.4852 96.4263 45.6452 96.4263ZM52.8205 96.4263C52.2698 96.4263 51.8078 96.3283 51.4345 96.1323C51.0705 95.9363 50.7951 95.6516 50.6085 95.2783C50.4311 94.905 50.3425 94.4476 50.3425 93.9063V90.4623H49.4465C49.2785 90.4623 49.1478 90.4203 49.0545 90.3363C48.9611 90.243 48.9145 90.1216 48.9145 89.9723C48.9145 89.8136 48.9611 89.6923 49.0545 89.6083C49.1478 89.5243 49.2785 89.4823 49.4465 89.4823H50.3425V87.9563C50.3425 87.7416 50.3985 87.583 50.5105 87.4803C50.6225 87.3683 50.7811 87.3123 50.9865 87.3123C51.1918 87.3123 51.3458 87.3683 51.4485 87.4803C51.5605 87.583 51.6165 87.7416 51.6165 87.9563V89.4823H53.3105C53.4878 89.4823 53.6231 89.5243 53.7165 89.6083C53.8098 89.6923 53.8565 89.8136 53.8565 89.9723C53.8565 90.1216 53.8098 90.243 53.7165 90.3363C53.6231 90.4203 53.4878 90.4623 53.3105 90.4623H51.6165V93.7943C51.6165 94.3076 51.7238 94.695 51.9385 94.9563C52.1531 95.2176 52.5078 95.3483 53.0025 95.3483C53.1798 95.3483 53.3291 95.3343 53.4505 95.3063C53.5718 95.269 53.6791 95.2503 53.7725 95.2503C53.8565 95.241 53.9265 95.269 53.9825 95.3343C54.0478 95.3996 54.0805 95.521 54.0805 95.6983C54.0805 95.829 54.0571 95.9503 54.0105 96.0623C53.9731 96.165 53.8938 96.235 53.7725 96.2723C53.6605 96.3096 53.5111 96.3423 53.3245 96.3703C53.1378 96.4076 52.9698 96.4263 52.8205 96.4263ZM55.668 96.3983C55.4534 96.3983 55.29 96.3423 55.178 96.2303C55.066 96.1183 55.01 95.955 55.01 95.7403V90.0283C55.01 89.8136 55.066 89.655 55.178 89.5523C55.29 89.4403 55.444 89.3843 55.64 89.3843C55.836 89.3843 55.9854 89.4403 56.088 89.5523C56.2 89.655 56.256 89.8136 56.256 90.0283V91.1063H56.116C56.2654 90.5463 56.5454 90.1216 56.956 89.8323C57.3667 89.543 57.8847 89.3796 58.51 89.3423C58.6594 89.333 58.7807 89.3703 58.874 89.4543C58.9674 89.529 59.0187 89.6596 59.028 89.8463C59.0374 90.0236 58.9954 90.1683 58.902 90.2803C58.8087 90.383 58.664 90.4436 58.468 90.4623L58.216 90.4763C57.6 90.5416 57.124 90.7423 56.788 91.0783C56.4614 91.4143 56.298 91.8763 56.298 92.4643V95.7403C56.298 95.955 56.242 96.1183 56.13 96.2303C56.0274 96.3423 55.8734 96.3983 55.668 96.3983ZM63.1776 96.4263C62.4403 96.4263 61.8056 96.2863 61.2736 96.0063C60.7509 95.717 60.3449 95.311 60.0556 94.7883C59.7663 94.2563 59.6216 93.631 59.6216 92.9123C59.6216 92.203 59.7616 91.5823 60.0416 91.0503C60.3309 90.5183 60.7229 90.103 61.2176 89.8043C61.7216 89.5056 62.2956 89.3563 62.9396 89.3563C63.3969 89.3563 63.8076 89.4356 64.1716 89.5943C64.5449 89.7436 64.8623 89.963 65.1236 90.2523C65.3849 90.5416 65.5809 90.8963 65.7116 91.3163C65.8516 91.727 65.9216 92.1936 65.9216 92.7163C65.9216 92.8656 65.8749 92.9823 65.7816 93.0663C65.6976 93.141 65.5716 93.1783 65.4036 93.1783H60.6156V92.3663H65.0816L64.8436 92.5623C64.8436 92.077 64.7689 91.6663 64.6196 91.3303C64.4796 90.985 64.2696 90.7236 63.9896 90.5463C63.7189 90.369 63.3783 90.2803 62.9676 90.2803C62.5196 90.2803 62.1369 90.3876 61.8196 90.6023C61.5023 90.8076 61.2596 91.1016 61.0916 91.4843C60.9236 91.8576 60.8396 92.2916 60.8396 92.7863V92.8703C60.8396 93.7103 61.0403 94.345 61.4416 94.7743C61.8429 95.2036 62.4216 95.4183 63.1776 95.4183C63.4763 95.4183 63.7796 95.381 64.0876 95.3063C64.4049 95.2316 64.7083 95.0963 64.9976 94.9003C65.1376 94.8163 65.2636 94.779 65.3756 94.7883C65.4969 94.7883 65.5949 94.8256 65.6696 94.9003C65.7443 94.9656 65.7909 95.0496 65.8096 95.1523C65.8283 95.2456 65.8143 95.3483 65.7676 95.4603C65.7209 95.5723 65.6323 95.6703 65.5016 95.7543C65.1936 95.969 64.8249 96.137 64.3956 96.2583C63.9756 96.3703 63.5696 96.4263 63.1776 96.4263ZM69.6761 96.4263C69.2095 96.4263 68.7848 96.333 68.4021 96.1463C68.0288 95.9596 67.7348 95.7076 67.5201 95.3903C67.3148 95.073 67.2121 94.7183 67.2121 94.3263C67.2121 93.8223 67.3381 93.4256 67.5901 93.1363C67.8421 92.847 68.2668 92.6416 68.8641 92.5203C69.4615 92.3896 70.2641 92.3243 71.2721 92.3243H71.9301V93.1363H71.3001C70.5815 93.1363 70.0121 93.169 69.5921 93.2343C69.1815 93.2996 68.8921 93.4163 68.7241 93.5843C68.5561 93.743 68.4721 93.967 68.4721 94.2563C68.4721 94.6203 68.5981 94.919 68.8501 95.1523C69.1115 95.3856 69.4661 95.5023 69.9141 95.5023C70.2688 95.5023 70.5815 95.4183 70.8521 95.2503C71.1228 95.073 71.3375 94.8396 71.4961 94.5503C71.6548 94.2516 71.7341 93.911 71.7341 93.5283V91.9183C71.7341 91.3676 71.6221 90.971 71.3981 90.7283C71.1741 90.4763 70.7961 90.3503 70.2641 90.3503C69.9561 90.3503 69.6388 90.3923 69.3121 90.4763C68.9855 90.5603 68.6448 90.691 68.2901 90.8683C68.1501 90.9336 68.0288 90.957 67.9261 90.9383C67.8235 90.9103 67.7395 90.8543 67.6741 90.7703C67.6181 90.677 67.5855 90.579 67.5761 90.4763C67.5761 90.3643 67.5995 90.257 67.6461 90.1543C67.7021 90.0516 67.7955 89.977 67.9261 89.9303C68.3368 89.725 68.7428 89.5803 69.1441 89.4963C69.5548 89.403 69.9375 89.3563 70.2921 89.3563C70.8988 89.3563 71.3981 89.4543 71.7901 89.6503C72.1821 89.837 72.4761 90.131 72.6721 90.5323C72.8681 90.9243 72.9661 91.4283 72.9661 92.0443V95.7403C72.9661 95.955 72.9148 96.1183 72.8121 96.2303C72.7095 96.3423 72.5601 96.3983 72.3641 96.3983C72.1775 96.3983 72.0281 96.3423 71.9161 96.2303C71.8135 96.1183 71.7621 95.955 71.7621 95.7403V94.7463H71.8881C71.8135 95.0916 71.6735 95.3903 71.4681 95.6423C71.2628 95.8943 71.0061 96.0903 70.6981 96.2303C70.3995 96.361 70.0588 96.4263 69.6761 96.4263ZM75.629 96.3983C75.433 96.3983 75.279 96.3423 75.167 96.2303C75.055 96.1183 74.999 95.955 74.999 95.7403V90.0283C74.999 89.8136 75.055 89.655 75.167 89.5523C75.279 89.4403 75.433 89.3843 75.629 89.3843C75.825 89.3843 75.9743 89.4403 76.077 89.5523C76.189 89.655 76.245 89.8136 76.245 90.0283V91.2183L76.091 90.9663C76.2683 90.453 76.553 90.0563 76.945 89.7763C77.3463 89.4963 77.8223 89.3563 78.373 89.3563C78.9516 89.3563 79.4183 89.4963 79.773 89.7763C80.1276 90.047 80.3656 90.4623 80.487 91.0223H80.291C80.459 90.509 80.7576 90.103 81.187 89.8043C81.6256 89.5056 82.1343 89.3563 82.713 89.3563C83.2263 89.3563 83.6463 89.459 83.973 89.6643C84.309 89.8603 84.561 90.159 84.729 90.5603C84.897 90.9523 84.981 91.4563 84.981 92.0723V95.7403C84.981 95.955 84.925 96.1183 84.813 96.2303C84.701 96.3423 84.547 96.3983 84.351 96.3983C84.1456 96.3983 83.987 96.3423 83.875 96.2303C83.763 96.1183 83.707 95.955 83.707 95.7403V92.1283C83.707 91.531 83.6043 91.0923 83.399 90.8123C83.1936 90.5323 82.8483 90.3923 82.363 90.3923C81.831 90.3923 81.4063 90.579 81.089 90.9523C80.781 91.3163 80.627 91.8203 80.627 92.4643V95.7403C80.627 95.955 80.571 96.1183 80.459 96.2303C80.3563 96.3423 80.2023 96.3983 79.997 96.3983C79.7916 96.3983 79.633 96.3423 79.521 96.2303C79.409 96.1183 79.353 95.955 79.353 95.7403V92.1283C79.353 91.531 79.2503 91.0923 79.045 90.8123C78.8396 90.5323 78.4943 90.3923 78.009 90.3923C77.477 90.3923 77.0523 90.579 76.735 90.9523C76.427 91.3163 76.273 91.8203 76.273 92.4643V95.7403C76.273 96.179 76.0583 96.3983 75.629 96.3983ZM89.1716 96.4263C88.4716 96.4263 87.9396 96.221 87.5756 95.8103C87.2116 95.3903 87.0296 94.7883 87.0296 94.0043V86.9763C87.0296 86.7616 87.0856 86.603 87.1976 86.5003C87.3096 86.3883 87.4636 86.3323 87.6596 86.3323C87.8649 86.3323 88.0236 86.3883 88.1356 86.5003C88.2476 86.603 88.3036 86.7616 88.3036 86.9763V93.9063C88.3036 94.3916 88.4016 94.7556 88.5976 94.9983C88.8029 95.2316 89.0922 95.3483 89.4656 95.3483C89.5496 95.3483 89.6242 95.3483 89.6896 95.3483C89.7549 95.339 89.8202 95.3296 89.8856 95.3203C89.9882 95.311 90.0629 95.339 90.1096 95.4043C90.1562 95.4696 90.1796 95.6003 90.1796 95.7963C90.1796 95.9736 90.1376 96.1136 90.0536 96.2163C89.9789 96.3096 89.8529 96.3703 89.6756 96.3983C89.5916 96.4076 89.5076 96.4123 89.4236 96.4123C89.3396 96.4216 89.2556 96.4263 89.1716 96.4263ZM91.8705 96.3703C91.6745 96.3703 91.5205 96.3096 91.4085 96.1883C91.2965 96.067 91.2405 95.899 91.2405 95.6843V90.0983C91.2405 89.8743 91.2965 89.7063 91.4085 89.5943C91.5205 89.473 91.6745 89.4123 91.8705 89.4123C92.0758 89.4123 92.2345 89.473 92.3465 89.5943C92.4585 89.7063 92.5145 89.8743 92.5145 90.0983V95.6843C92.5145 95.899 92.4585 96.067 92.3465 96.1883C92.2438 96.3096 92.0852 96.3703 91.8705 96.3703ZM91.8705 87.9003C91.6185 87.9003 91.4178 87.835 91.2685 87.7043C91.1285 87.5643 91.0585 87.3823 91.0585 87.1583C91.0585 86.9156 91.1285 86.7336 91.2685 86.6123C91.4178 86.4816 91.6185 86.4163 91.8705 86.4163C92.1412 86.4163 92.3418 86.4816 92.4725 86.6123C92.6125 86.7336 92.6825 86.9156 92.6825 87.1583C92.6825 87.3823 92.6125 87.5643 92.4725 87.7043C92.3418 87.835 92.1412 87.9003 91.8705 87.9003ZM95.1928 96.3983C94.9968 96.3983 94.8428 96.3423 94.7308 96.2303C94.6188 96.1183 94.5628 95.955 94.5628 95.7403V90.0283C94.5628 89.8136 94.6188 89.655 94.7308 89.5523C94.8428 89.4403 94.9968 89.3843 95.1928 89.3843C95.3888 89.3843 95.5381 89.4403 95.6408 89.5523C95.7528 89.655 95.8088 89.8136 95.8088 90.0283V91.1763L95.6548 90.9663C95.8508 90.4343 96.1681 90.033 96.6068 89.7623C97.0548 89.4916 97.5634 89.3563 98.1328 89.3563C98.6834 89.3563 99.1361 89.4543 99.4908 89.6503C99.8454 89.8463 100.111 90.145 100.289 90.5463C100.466 90.9476 100.555 91.4563 100.555 92.0723V95.7403C100.555 95.955 100.499 96.1183 100.387 96.2303C100.284 96.3423 100.13 96.3983 99.9248 96.3983C99.7194 96.3983 99.5608 96.3423 99.4488 96.2303C99.3368 96.1183 99.2808 95.955 99.2808 95.7403V92.1423C99.2808 91.5356 99.1641 91.0923 98.9308 90.8123C98.6974 90.5323 98.3241 90.3923 97.8108 90.3923C97.2134 90.3923 96.7328 90.579 96.3688 90.9523C96.0141 91.3163 95.8368 91.811 95.8368 92.4363V95.7403C95.8368 96.179 95.6221 96.3983 95.1928 96.3983ZM105.724 96.4263C104.987 96.4263 104.352 96.2863 103.82 96.0063C103.298 95.717 102.892 95.311 102.602 94.7883C102.313 94.2563 102.168 93.631 102.168 92.9123C102.168 92.203 102.308 91.5823 102.588 91.0503C102.878 90.5183 103.27 90.103 103.764 89.8043C104.268 89.5056 104.842 89.3563 105.486 89.3563C105.944 89.3563 106.354 89.4356 106.718 89.5943C107.092 89.7436 107.409 89.963 107.67 90.2523C107.932 90.5416 108.128 90.8963 108.258 91.3163C108.398 91.727 108.468 92.1936 108.468 92.7163C108.468 92.8656 108.422 92.9823 108.328 93.0663C108.244 93.141 108.118 93.1783 107.95 93.1783H103.162V92.3663H107.628L107.39 92.5623C107.39 92.077 107.316 91.6663 107.166 91.3303C107.026 90.985 106.816 90.7236 106.536 90.5463C106.266 90.369 105.925 90.2803 105.514 90.2803C105.066 90.2803 104.684 90.3876 104.366 90.6023C104.049 90.8076 103.806 91.1016 103.638 91.4843C103.47 91.8576 103.386 92.2916 103.386 92.7863V92.8703C103.386 93.7103 103.587 94.345 103.988 94.7743C104.39 95.2036 104.968 95.4183 105.724 95.4183C106.023 95.4183 106.326 95.381 106.634 95.3063C106.952 95.2316 107.255 95.0963 107.544 94.9003C107.684 94.8163 107.81 94.779 107.922 94.7883C108.044 94.7883 108.142 94.8256 108.216 94.9003C108.291 94.9656 108.338 95.0496 108.356 95.1523C108.375 95.2456 108.361 95.3483 108.314 95.4603C108.268 95.5723 108.179 95.6703 108.048 95.7543C107.74 95.969 107.372 96.137 106.942 96.2583C106.522 96.3703 106.116 96.4263 105.724 96.4263ZM112.657 96.4263C112.06 96.4263 111.532 96.2863 111.075 96.0063C110.627 95.717 110.277 95.3063 110.025 94.7743C109.773 94.233 109.647 93.603 109.647 92.8843C109.647 92.1563 109.768 91.531 110.011 91.0083C110.263 90.4763 110.613 90.0703 111.061 89.7903C111.518 89.501 112.05 89.3563 112.657 89.3563C113.264 89.3563 113.786 89.5103 114.225 89.8183C114.664 90.117 114.958 90.5183 115.107 91.0223H114.953V86.9763C114.953 86.7616 115.004 86.603 115.107 86.5003C115.219 86.3883 115.378 86.3323 115.583 86.3323C115.788 86.3323 115.947 86.3883 116.059 86.5003C116.171 86.603 116.227 86.7616 116.227 86.9763V95.7403C116.227 95.955 116.171 96.1183 116.059 96.2303C115.947 96.3423 115.788 96.3983 115.583 96.3983C115.387 96.3983 115.233 96.3423 115.121 96.2303C115.009 96.1183 114.953 95.955 114.953 95.7403V94.4663L115.107 94.7183C114.967 95.241 114.673 95.6563 114.225 95.9643C113.786 96.2723 113.264 96.4263 112.657 96.4263ZM112.951 95.4183C113.362 95.4183 113.716 95.3203 114.015 95.1243C114.323 94.9283 114.556 94.6436 114.715 94.2703C114.883 93.897 114.967 93.435 114.967 92.8843C114.967 92.063 114.785 91.4376 114.421 91.0083C114.057 90.579 113.567 90.3643 112.951 90.3643C112.55 90.3643 112.195 90.4623 111.887 90.6583C111.588 90.845 111.355 91.125 111.187 91.4983C111.019 91.8716 110.935 92.3336 110.935 92.8843C110.935 93.7056 111.117 94.3356 111.481 94.7743C111.854 95.2036 112.344 95.4183 112.951 95.4183ZM122.55 98.9183C122.354 98.9183 122.2 98.8623 122.088 98.7503C121.976 98.6383 121.92 98.4796 121.92 98.2743V90.0283C121.92 89.8136 121.976 89.655 122.088 89.5523C122.2 89.4403 122.354 89.3843 122.55 89.3843C122.756 89.3843 122.91 89.4403 123.012 89.5523C123.124 89.655 123.18 89.8136 123.18 90.0283V91.3023L123.026 91.0503C123.176 90.537 123.47 90.1263 123.908 89.8183C124.347 89.5103 124.874 89.3563 125.49 89.3563C126.097 89.3563 126.624 89.501 127.072 89.7903C127.52 90.0703 127.87 90.4763 128.122 91.0083C128.374 91.531 128.5 92.1563 128.5 92.8843C128.5 93.603 128.374 94.233 128.122 94.7743C127.88 95.3063 127.53 95.717 127.072 96.0063C126.624 96.2863 126.097 96.4263 125.49 96.4263C124.884 96.4263 124.361 96.2723 123.922 95.9643C123.484 95.6563 123.19 95.2503 123.04 94.7463H123.194V98.2743C123.194 98.4796 123.138 98.6383 123.026 98.7503C122.914 98.8623 122.756 98.9183 122.55 98.9183ZM125.196 95.4183C125.598 95.4183 125.948 95.3203 126.246 95.1243C126.554 94.9283 126.792 94.6436 126.96 94.2703C127.128 93.897 127.212 93.435 127.212 92.8843C127.212 92.063 127.03 91.4376 126.666 91.0083C126.302 90.579 125.812 90.3643 125.196 90.3643C124.786 90.3643 124.426 90.4623 124.118 90.6583C123.82 90.845 123.586 91.125 123.418 91.4983C123.26 91.8716 123.18 92.3336 123.18 92.8843C123.18 93.7056 123.362 94.3356 123.726 94.7743C124.09 95.2036 124.58 95.4183 125.196 95.4183ZM130.795 96.3983C130.58 96.3983 130.417 96.3423 130.305 96.2303C130.193 96.1183 130.137 95.955 130.137 95.7403V90.0283C130.137 89.8136 130.193 89.655 130.305 89.5523C130.417 89.4403 130.571 89.3843 130.767 89.3843C130.963 89.3843 131.112 89.4403 131.215 89.5523C131.327 89.655 131.383 89.8136 131.383 90.0283V91.1063H131.243C131.392 90.5463 131.672 90.1216 132.083 89.8323C132.494 89.543 133.012 89.3796 133.637 89.3423C133.786 89.333 133.908 89.3703 134.001 89.4543C134.094 89.529 134.146 89.6596 134.155 89.8463C134.164 90.0236 134.122 90.1683 134.029 90.2803C133.936 90.383 133.791 90.4436 133.595 90.4623L133.343 90.4763C132.727 90.5416 132.251 90.7423 131.915 91.0783C131.588 91.4143 131.425 91.8763 131.425 92.4643V95.7403C131.425 95.955 131.369 96.1183 131.257 96.2303C131.154 96.3423 131 96.3983 130.795 96.3983ZM138.053 96.4263C137.381 96.4263 136.797 96.2816 136.303 95.9923C135.808 95.703 135.425 95.2923 135.155 94.7603C134.884 94.2283 134.749 93.603 134.749 92.8843C134.749 92.343 134.823 91.8576 134.973 91.4283C135.131 90.9896 135.355 90.6163 135.645 90.3083C135.934 90.0003 136.279 89.767 136.681 89.6083C137.091 89.4403 137.549 89.3563 138.053 89.3563C138.725 89.3563 139.308 89.501 139.803 89.7903C140.297 90.0796 140.68 90.4903 140.951 91.0223C141.221 91.545 141.357 92.1656 141.357 92.8843C141.357 93.4256 141.277 93.9156 141.119 94.3543C140.969 94.793 140.75 95.1663 140.461 95.4743C140.171 95.7823 139.821 96.0203 139.411 96.1883C139.009 96.347 138.557 96.4263 138.053 96.4263ZM138.053 95.4183C138.463 95.4183 138.818 95.3203 139.117 95.1243C139.425 94.9283 139.658 94.6436 139.817 94.2703C139.985 93.897 140.069 93.435 140.069 92.8843C140.069 92.063 139.887 91.4376 139.523 91.0083C139.159 90.579 138.669 90.3643 138.053 90.3643C137.651 90.3643 137.297 90.4623 136.989 90.6583C136.69 90.845 136.457 91.125 136.289 91.4983C136.121 91.8716 136.037 92.3336 136.037 92.8843C136.037 93.7056 136.219 94.3356 136.583 94.7743C136.956 95.2036 137.446 95.4183 138.053 95.4183ZM145.943 96.4263C145.252 96.4263 144.655 96.2816 144.151 95.9923C143.647 95.6936 143.259 95.2783 142.989 94.7463C142.718 94.205 142.583 93.5703 142.583 92.8423C142.583 92.301 142.657 91.8156 142.807 91.3863C142.965 90.957 143.189 90.593 143.479 90.2943C143.768 89.9863 144.118 89.753 144.529 89.5943C144.949 89.4356 145.42 89.3563 145.943 89.3563C146.269 89.3563 146.615 89.4076 146.979 89.5103C147.343 89.613 147.679 89.781 147.987 90.0143C148.089 90.089 148.155 90.1776 148.183 90.2803C148.211 90.3736 148.211 90.4716 148.183 90.5743C148.164 90.677 148.117 90.7656 148.043 90.8403C147.977 90.9056 147.889 90.943 147.777 90.9523C147.674 90.9616 147.562 90.929 147.441 90.8543C147.217 90.6863 146.979 90.565 146.727 90.4903C146.484 90.4156 146.251 90.3783 146.027 90.3783C145.681 90.3783 145.373 90.4343 145.103 90.5463C144.841 90.6583 144.617 90.8216 144.431 91.0363C144.253 91.2416 144.118 91.4983 144.025 91.8063C143.931 92.105 143.885 92.455 143.885 92.8563C143.885 93.6496 144.071 94.275 144.445 94.7323C144.818 95.1803 145.345 95.4043 146.027 95.4043C146.251 95.4043 146.484 95.3716 146.727 95.3063C146.969 95.2316 147.207 95.1103 147.441 94.9423C147.562 94.8676 147.674 94.8396 147.777 94.8583C147.879 94.8676 147.963 94.9096 148.029 94.9843C148.103 95.0496 148.15 95.1336 148.169 95.2363C148.187 95.3296 148.178 95.4276 148.141 95.5303C148.113 95.633 148.047 95.717 147.945 95.7823C147.646 96.0063 147.319 96.1696 146.965 96.2723C146.61 96.375 146.269 96.4263 145.943 96.4263ZM152.51 96.4263C151.772 96.4263 151.138 96.2863 150.606 96.0063C150.083 95.717 149.677 95.311 149.388 94.7883C149.098 94.2563 148.954 93.631 148.954 92.9123C148.954 92.203 149.094 91.5823 149.374 91.0503C149.663 90.5183 150.055 90.103 150.55 89.8043C151.054 89.5056 151.628 89.3563 152.272 89.3563C152.729 89.3563 153.14 89.4356 153.504 89.5943C153.877 89.7436 154.194 89.963 154.456 90.2523C154.717 90.5416 154.913 90.8963 155.044 91.3163C155.184 91.727 155.254 92.1936 155.254 92.7163C155.254 92.8656 155.207 92.9823 155.114 93.0663C155.03 93.141 154.904 93.1783 154.736 93.1783H149.948V92.3663H154.414L154.176 92.5623C154.176 92.077 154.101 91.6663 153.952 91.3303C153.812 90.985 153.602 90.7236 153.322 90.5463C153.051 90.369 152.71 90.2803 152.3 90.2803C151.852 90.2803 151.469 90.3876 151.152 90.6023C150.834 90.8076 150.592 91.1016 150.424 91.4843C150.256 91.8576 150.172 92.2916 150.172 92.7863V92.8703C150.172 93.7103 150.372 94.345 150.774 94.7743C151.175 95.2036 151.754 95.4183 152.51 95.4183C152.808 95.4183 153.112 95.381 153.42 95.3063C153.737 95.2316 154.04 95.0963 154.33 94.9003C154.47 94.8163 154.596 94.779 154.708 94.7883C154.829 94.7883 154.927 94.8256 155.002 94.9003C155.076 94.9656 155.123 95.0496 155.142 95.1523C155.16 95.2456 155.146 95.3483 155.1 95.4603C155.053 95.5723 154.964 95.6703 154.834 95.7543C154.526 95.969 154.157 96.137 153.728 96.2583C153.308 96.3703 152.902 96.4263 152.51 96.4263ZM159.19 96.4263C158.77 96.4263 158.345 96.3796 157.916 96.2863C157.496 96.1836 157.099 96.011 156.726 95.7683C156.623 95.703 156.549 95.6236 156.502 95.5303C156.465 95.4276 156.451 95.3296 156.46 95.2363C156.479 95.1336 156.521 95.045 156.586 94.9703C156.651 94.8956 156.731 94.8536 156.824 94.8443C156.927 94.8256 157.034 94.849 157.146 94.9143C157.51 95.1196 157.86 95.2643 158.196 95.3483C158.541 95.4323 158.882 95.4743 159.218 95.4743C159.731 95.4743 160.119 95.381 160.38 95.1943C160.641 95.0076 160.772 94.7603 160.772 94.4523C160.772 94.191 160.683 93.9903 160.506 93.8503C160.338 93.701 160.072 93.589 159.708 93.5143L158.406 93.2483C157.827 93.1176 157.389 92.903 157.09 92.6043C156.801 92.2963 156.656 91.9043 156.656 91.4283C156.656 91.0083 156.768 90.6443 156.992 90.3363C157.225 90.019 157.547 89.7763 157.958 89.6083C158.369 89.4403 158.84 89.3563 159.372 89.3563C159.783 89.3563 160.17 89.4123 160.534 89.5243C160.907 89.627 161.243 89.7856 161.542 90.0003C161.654 90.0656 161.724 90.1496 161.752 90.2523C161.789 90.3456 161.794 90.4436 161.766 90.5463C161.747 90.6396 161.705 90.719 161.64 90.7843C161.575 90.8496 161.491 90.8916 161.388 90.9103C161.285 90.9196 161.173 90.8916 161.052 90.8263C160.781 90.6396 160.501 90.509 160.212 90.4343C159.932 90.3503 159.652 90.3083 159.372 90.3083C158.868 90.3083 158.485 90.4063 158.224 90.6023C157.972 90.7983 157.846 91.055 157.846 91.3723C157.846 91.615 157.921 91.8156 158.07 91.9743C158.229 92.133 158.476 92.2496 158.812 92.3243L160.114 92.5903C160.721 92.721 161.178 92.931 161.486 93.2203C161.794 93.5003 161.948 93.883 161.948 94.3683C161.948 95.003 161.696 95.507 161.192 95.8803C160.697 96.2443 160.03 96.4263 159.19 96.4263ZM165.958 96.4263C165.538 96.4263 165.113 96.3796 164.684 96.2863C164.264 96.1836 163.867 96.011 163.494 95.7683C163.391 95.703 163.316 95.6236 163.27 95.5303C163.232 95.4276 163.218 95.3296 163.228 95.2363C163.246 95.1336 163.288 95.045 163.354 94.9703C163.419 94.8956 163.498 94.8536 163.592 94.8443C163.694 94.8256 163.802 94.849 163.914 94.9143C164.278 95.1196 164.628 95.2643 164.964 95.3483C165.309 95.4323 165.65 95.4743 165.986 95.4743C166.499 95.4743 166.886 95.381 167.148 95.1943C167.409 95.0076 167.54 94.7603 167.54 94.4523C167.54 94.191 167.451 93.9903 167.274 93.8503C167.106 93.701 166.84 93.589 166.476 93.5143L165.174 93.2483C164.595 93.1176 164.156 92.903 163.858 92.6043C163.568 92.2963 163.424 91.9043 163.424 91.4283C163.424 91.0083 163.536 90.6443 163.76 90.3363C163.993 90.019 164.315 89.7763 164.726 89.6083C165.136 89.4403 165.608 89.3563 166.14 89.3563C166.55 89.3563 166.938 89.4123 167.302 89.5243C167.675 89.627 168.011 89.7856 168.31 90.0003C168.422 90.0656 168.492 90.1496 168.52 90.2523C168.557 90.3456 168.562 90.4436 168.534 90.5463C168.515 90.6396 168.473 90.719 168.408 90.7843C168.342 90.8496 168.258 90.8916 168.156 90.9103C168.053 90.9196 167.941 90.8916 167.82 90.8263C167.549 90.6396 167.269 90.509 166.98 90.4343C166.7 90.3503 166.42 90.3083 166.14 90.3083C165.636 90.3083 165.253 90.4063 164.992 90.6023C164.74 90.7983 164.614 91.055 164.614 91.3723C164.614 91.615 164.688 91.8156 164.838 91.9743C164.996 92.133 165.244 92.2496 165.58 92.3243L166.882 92.5903C167.488 92.721 167.946 92.931 168.254 93.2203C168.562 93.5003 168.716 93.883 168.716 94.3683C168.716 95.003 168.464 95.507 167.96 95.8803C167.465 96.2443 166.798 96.4263 165.958 96.4263ZM173.523 96.4263C172.786 96.4263 172.151 96.2863 171.619 96.0063C171.097 95.717 170.691 95.311 170.401 94.7883C170.112 94.2563 169.967 93.631 169.967 92.9123C169.967 92.203 170.107 91.5823 170.387 91.0503C170.677 90.5183 171.069 90.103 171.563 89.8043C172.067 89.5056 172.641 89.3563 173.285 89.3563C173.743 89.3563 174.153 89.4356 174.517 89.5943C174.891 89.7436 175.208 89.963 175.469 90.2523C175.731 90.5416 175.927 90.8963 176.057 91.3163C176.197 91.727 176.267 92.1936 176.267 92.7163C176.267 92.8656 176.221 92.9823 176.127 93.0663C176.043 93.141 175.917 93.1783 175.749 93.1783H170.961V92.3663H175.427L175.189 92.5623C175.189 92.077 175.115 91.6663 174.965 91.3303C174.825 90.985 174.615 90.7236 174.335 90.5463C174.065 90.369 173.724 90.2803 173.313 90.2803C172.865 90.2803 172.483 90.3876 172.165 90.6023C171.848 90.8076 171.605 91.1016 171.437 91.4843C171.269 91.8576 171.185 92.2916 171.185 92.7863V92.8703C171.185 93.7103 171.386 94.345 171.787 94.7743C172.189 95.2036 172.767 95.4183 173.523 95.4183C173.822 95.4183 174.125 95.381 174.433 95.3063C174.751 95.2316 175.054 95.0963 175.343 94.9003C175.483 94.8163 175.609 94.779 175.721 94.7883C175.843 94.7883 175.941 94.8256 176.015 94.9003C176.09 94.9656 176.137 95.0496 176.155 95.1523C176.174 95.2456 176.16 95.3483 176.113 95.4603C176.067 95.5723 175.978 95.6703 175.847 95.7543C175.539 95.969 175.171 96.137 174.741 96.2583C174.321 96.3703 173.915 96.4263 173.523 96.4263ZM180.204 96.4263C179.784 96.4263 179.359 96.3796 178.93 96.2863C178.51 96.1836 178.113 96.011 177.74 95.7683C177.637 95.703 177.562 95.6236 177.516 95.5303C177.478 95.4276 177.464 95.3296 177.474 95.2363C177.492 95.1336 177.534 95.045 177.6 94.9703C177.665 94.8956 177.744 94.8536 177.838 94.8443C177.94 94.8256 178.048 94.849 178.16 94.9143C178.524 95.1196 178.874 95.2643 179.21 95.3483C179.555 95.4323 179.896 95.4743 180.232 95.4743C180.745 95.4743 181.132 95.381 181.394 95.1943C181.655 95.0076 181.786 94.7603 181.786 94.4523C181.786 94.191 181.697 93.9903 181.52 93.8503C181.352 93.701 181.086 93.589 180.722 93.5143L179.42 93.2483C178.841 93.1176 178.402 92.903 178.104 92.6043C177.814 92.2963 177.67 91.9043 177.67 91.4283C177.67 91.0083 177.782 90.6443 178.006 90.3363C178.239 90.019 178.561 89.7763 178.972 89.6083C179.382 89.4403 179.854 89.3563 180.386 89.3563C180.796 89.3563 181.184 89.4123 181.548 89.5243C181.921 89.627 182.257 89.7856 182.556 90.0003C182.668 90.0656 182.738 90.1496 182.766 90.2523C182.803 90.3456 182.808 90.4436 182.78 90.5463C182.761 90.6396 182.719 90.719 182.654 90.7843C182.588 90.8496 182.504 90.8916 182.402 90.9103C182.299 90.9196 182.187 90.8916 182.066 90.8263C181.795 90.6396 181.515 90.509 181.226 90.4343C180.946 90.3503 180.666 90.3083 180.386 90.3083C179.882 90.3083 179.499 90.4063 179.238 90.6023C178.986 90.7983 178.86 91.055 178.86 91.3723C178.86 91.615 178.934 91.8156 179.084 91.9743C179.242 92.133 179.49 92.2496 179.826 92.3243L181.128 92.5903C181.734 92.721 182.192 92.931 182.5 93.2203C182.808 93.5003 182.962 93.883 182.962 94.3683C182.962 95.003 182.71 95.507 182.206 95.8803C181.711 96.2443 181.044 96.4263 180.204 96.4263ZM185.167 96.3563C184.924 96.3563 184.724 96.277 184.565 96.1183C184.406 95.9596 184.327 95.759 184.327 95.5163C184.327 95.2736 184.406 95.0776 184.565 94.9283C184.724 94.779 184.924 94.7043 185.167 94.7043C185.428 94.7043 185.629 94.779 185.769 94.9283C185.918 95.0776 185.993 95.2736 185.993 95.5163C185.993 95.759 185.918 95.9596 185.769 96.1183C185.629 96.277 185.428 96.3563 185.167 96.3563Z" fill="#6C8184"/>
</g>
<defs>
<filter id="filter0_ddii_90_2344" x="0.0341797" y="0.503906" width="332.789" height="156.033" filterUnits="userSpaceOnUse" color-interpolation-filters="sRGB">
<feFlood flood-opacity="0" result="BackgroundImageFix"/>
<feColorMatrix in="SourceAlpha" type="matrix" values="0 0 0 0 0 0 0 0 0 0 0 0 0 0 0 0 0 0 127 0" result="hardAlpha"/>
<feOffset dy="4"/>
<feGaussianBlur stdDeviation="2"/>
<feComposite in2="hardAlpha" operator="out"/>
<feColorMatrix type="matrix" values="0 0 0 0 0 0 0 0 0 0 0 0 0 0 0 0 0 0 0.1 0"/>
<feBlend mode="normal" in2="BackgroundImageFix" result="effect1_dropShadow_90_2344"/>
<feColorMatrix in="SourceAlpha" type="matrix" values="0 0 0 0 0 0 0 0 0 0 0 0 0 0 0 0 0 0 127 0" result="hardAlpha"/>
<feMorphology radius="12" operator="erode" in="SourceAlpha" result="effect2_dropShadow_90_2344"/>
<feOffset dy="12"/>
<feGaussianBlur stdDeviation="16"/>
<feComposite in2="hardAlpha" operator="out"/>
<feColorMatrix type="matrix" values="0 0 0 0 0 0 0 0 0 0 0 0 0 0 0 0 0 0 0.1 0"/>
<feBlend mode="normal" in2="effect1_dropShadow_90_2344" result="effect2_dropShadow_90_2344"/>
<feBlend mode="normal" in="SourceGraphic" in2="effect2_dropShadow_90_2344" result="shape"/>
<feColorMatrix in="SourceAlpha" type="matrix" values="0 0 0 0 0 0 0 0 0 0 0 0 0 0 0 0 0 0 127 0" result="hardAlpha"/>
<feOffset dy="6"/>
<feGaussianBlur stdDeviation="6"/>
<feComposite in2="hardAlpha" operator="arithmetic" k2="-1" k3="1"/>
<feColorMatrix type="matrix" values="0 0 0 0 1 0 0 0 0 1 0 0 0 0 1 0 0 0 0.04 0"/>
<feBlend mode="normal" in2="shape" result="effect3_innerShadow_90_2344"/>
<feColorMatrix in="SourceAlpha" type="matrix" values="0 0 0 0 0 0 0 0 0 0 0 0 0 0 0 0 0 0 127 0" result="hardAlpha"/>
<feOffset dy="1"/>
<feGaussianBlur stdDeviation="0.5"/>
<feComposite in2="hardAlpha" operator="arithmetic" k2="-1" k3="1"/>
<feColorMatrix type="matrix" values="0 0 0 0 1 0 0 0 0 1 0 0 0 0 1 0 0 0 0.2 0"/>
<feBlend mode="normal" in2="effect3_innerShadow_90_2344" result="effect4_innerShadow_90_2344"/>
</filter>
</defs>
</svg>
