<svg width="334" height="157" viewBox="0 0 334 157" fill="none" xmlns="http://www.w3.org/2000/svg">
<g filter="url(#filter0_ddii_90_2343)">
<path d="M20.8066 30.8947C20.8066 18.5286 30.8313 8.50391 43.1974 8.50391H291.205C303.571 8.50391 313.596 18.5286 313.596 30.8946V102.147C313.596 114.513 303.571 124.537 291.205 124.537H43.1973C30.8313 124.537 20.8066 114.513 20.8066 102.147V30.8947Z" fill="#F9FBFB" shape-rendering="crispEdges"/>
<path d="M49.3637 47.885C48.2437 47.885 47.2837 47.6503 46.4837 47.181C45.6837 46.7116 45.065 46.045 44.6277 45.181C44.201 44.3063 43.9877 43.277 43.9877 42.093C43.9877 41.2076 44.1104 40.413 44.3557 39.709C44.601 38.9943 44.953 38.3863 45.4117 37.885C45.8704 37.373 46.4304 36.9836 47.0917 36.717C47.7637 36.4503 48.521 36.317 49.3637 36.317C50.0037 36.317 50.617 36.4076 51.2037 36.589C51.801 36.7703 52.313 37.0263 52.7397 37.357C52.9104 37.4743 53.0224 37.6076 53.0757 37.757C53.129 37.9063 53.1344 38.0503 53.0917 38.189C53.0597 38.317 52.9904 38.429 52.8837 38.525C52.7877 38.6103 52.665 38.6583 52.5157 38.669C52.3664 38.669 52.2064 38.6103 52.0357 38.493C51.6624 38.205 51.2517 37.997 50.8037 37.869C50.3664 37.7303 49.897 37.661 49.3957 37.661C48.5744 37.661 47.8757 37.837 47.2997 38.189C46.7344 38.5303 46.3024 39.0316 46.0037 39.693C45.7157 40.3436 45.5717 41.1436 45.5717 42.093C45.5717 43.0316 45.7157 43.837 46.0037 44.509C46.3024 45.1703 46.7344 45.677 47.2997 46.029C47.8757 46.3703 48.5744 46.541 49.3957 46.541C49.897 46.541 50.3717 46.4716 50.8197 46.333C51.2784 46.1943 51.6997 45.981 52.0837 45.693C52.2544 45.5756 52.409 45.5223 52.5477 45.533C52.697 45.5436 52.8197 45.5916 52.9157 45.677C53.0117 45.7516 53.0757 45.8583 53.1077 45.997C53.1504 46.125 53.1504 46.2583 53.1077 46.397C53.065 46.5356 52.969 46.6583 52.8197 46.765C52.3824 47.1383 51.8597 47.421 51.2517 47.613C50.6544 47.7943 50.025 47.885 49.3637 47.885ZM57.6051 47.885C56.9757 47.885 56.4477 47.7676 56.0211 47.533C55.6051 47.2983 55.2957 46.9516 55.0931 46.493C54.8904 46.0343 54.7891 45.4583 54.7891 44.765V40.573C54.7891 40.3276 54.8477 40.1463 54.9651 40.029C55.0931 39.901 55.2744 39.837 55.5091 39.837C55.7437 39.837 55.9251 39.901 56.0531 40.029C56.1811 40.1463 56.2451 40.3276 56.2451 40.573V44.765C56.2451 45.4263 56.3784 45.917 56.6451 46.237C56.9117 46.5463 57.3331 46.701 57.9091 46.701C58.5491 46.701 59.0664 46.4876 59.4611 46.061C59.8664 45.6343 60.0691 45.069 60.0691 44.365V40.573C60.0691 40.3276 60.1277 40.1463 60.2451 40.029C60.3731 39.901 60.5544 39.837 60.7891 39.837C61.0237 39.837 61.2051 39.901 61.3331 40.029C61.4611 40.1463 61.5251 40.3276 61.5251 40.573V47.101C61.5251 47.6023 61.2904 47.853 60.8211 47.853C60.5864 47.853 60.4051 47.789 60.2771 47.661C60.1597 47.533 60.1011 47.3463 60.1011 47.101V45.709L60.3091 45.981C60.0957 46.5996 59.7491 47.0743 59.2691 47.405C58.7997 47.725 58.2451 47.885 57.6051 47.885ZM66.556 47.885C66.076 47.885 65.5906 47.8316 65.1 47.725C64.62 47.6076 64.1666 47.4103 63.74 47.133C63.6226 47.0583 63.5373 46.9676 63.484 46.861C63.4413 46.7436 63.4253 46.6316 63.436 46.525C63.4573 46.4076 63.5053 46.3063 63.58 46.221C63.6546 46.1356 63.7453 46.0876 63.852 46.077C63.9693 46.0556 64.092 46.0823 64.22 46.157C64.636 46.3916 65.036 46.557 65.42 46.653C65.8146 46.749 66.204 46.797 66.588 46.797C67.1746 46.797 67.6173 46.6903 67.916 46.477C68.2146 46.2636 68.364 45.981 68.364 45.629C68.364 45.3303 68.2626 45.101 68.06 44.941C67.868 44.7703 67.564 44.6423 67.148 44.557L65.66 44.253C64.9986 44.1036 64.4973 43.8583 64.156 43.517C63.8253 43.165 63.66 42.717 63.66 42.173C63.66 41.693 63.788 41.277 64.044 40.925C64.3106 40.5623 64.6786 40.285 65.148 40.093C65.6173 39.901 66.156 39.805 66.764 39.805C67.2333 39.805 67.676 39.869 68.092 39.997C68.5186 40.1143 68.9026 40.2956 69.244 40.541C69.372 40.6156 69.452 40.7116 69.484 40.829C69.5266 40.9356 69.532 41.0476 69.5 41.165C69.4786 41.2716 69.4306 41.3623 69.356 41.437C69.2813 41.5116 69.1853 41.5596 69.068 41.581C68.9506 41.5916 68.8226 41.5596 68.684 41.485C68.3746 41.2716 68.0546 41.1223 67.724 41.037C67.404 40.941 67.084 40.893 66.764 40.893C66.188 40.893 65.7506 41.005 65.452 41.229C65.164 41.453 65.02 41.7463 65.02 42.109C65.02 42.3863 65.1053 42.6156 65.276 42.797C65.4573 42.9783 65.74 43.1116 66.124 43.197L67.612 43.501C68.3053 43.6503 68.828 43.8903 69.18 44.221C69.532 44.541 69.708 44.9783 69.708 45.533C69.708 46.2583 69.42 46.8343 68.844 47.261C68.2786 47.677 67.516 47.885 66.556 47.885ZM74.7562 47.885C74.1269 47.885 73.5989 47.773 73.1722 47.549C72.7562 47.325 72.4415 46.9996 72.2282 46.573C72.0255 46.1463 71.9242 45.6236 71.9242 45.005V41.069H70.9002C70.7082 41.069 70.5589 41.021 70.4522 40.925C70.3455 40.8183 70.2922 40.6796 70.2922 40.509C70.2922 40.3276 70.3455 40.189 70.4522 40.093C70.5589 39.997 70.7082 39.949 70.9002 39.949H71.9242V38.205C71.9242 37.9596 71.9882 37.7783 72.1162 37.661C72.2442 37.533 72.4255 37.469 72.6602 37.469C72.8949 37.469 73.0709 37.533 73.1882 37.661C73.3162 37.7783 73.3802 37.9596 73.3802 38.205V39.949H75.3162C75.5189 39.949 75.6735 39.997 75.7802 40.093C75.8869 40.189 75.9402 40.3276 75.9402 40.509C75.9402 40.6796 75.8869 40.8183 75.7802 40.925C75.6735 41.021 75.5189 41.069 75.3162 41.069H73.3802V44.877C73.3802 45.4636 73.5029 45.9063 73.7482 46.205C73.9935 46.5036 74.3989 46.653 74.9642 46.653C75.1669 46.653 75.3375 46.637 75.4762 46.605C75.6149 46.5623 75.7375 46.541 75.8442 46.541C75.9402 46.5303 76.0202 46.5623 76.0842 46.637C76.1589 46.7116 76.1962 46.8503 76.1962 47.053C76.1962 47.2023 76.1695 47.341 76.1162 47.469C76.0735 47.5863 75.9829 47.6663 75.8442 47.709C75.7162 47.7516 75.5455 47.789 75.3322 47.821C75.1189 47.8636 74.9269 47.885 74.7562 47.885ZM80.4925 47.885C79.7245 47.885 79.0578 47.7196 78.4925 47.389C77.9271 47.0583 77.4898 46.589 77.1805 45.981C76.8711 45.373 76.7165 44.6583 76.7165 43.837C76.7165 43.2183 76.8018 42.6636 76.9725 42.173C77.1538 41.6716 77.4098 41.245 77.7405 40.893C78.0711 40.541 78.4658 40.2743 78.9245 40.093C79.3938 39.901 79.9165 39.805 80.4925 39.805C81.2605 39.805 81.9271 39.9703 82.4925 40.301C83.0578 40.6316 83.4951 41.101 83.8045 41.709C84.1138 42.3063 84.2685 43.0156 84.2685 43.837C84.2685 44.4556 84.1778 45.0156 83.9965 45.517C83.8258 46.0183 83.5751 46.445 83.2445 46.797C82.9138 47.149 82.5138 47.421 82.0445 47.613C81.5858 47.7943 81.0685 47.885 80.4925 47.885ZM80.4925 46.733C80.9618 46.733 81.3671 46.621 81.7085 46.397C82.0605 46.173 82.3271 45.8476 82.5085 45.421C82.7005 44.9943 82.7965 44.4663 82.7965 43.837C82.7965 42.8983 82.5885 42.1836 82.1725 41.693C81.7565 41.2023 81.1965 40.957 80.4925 40.957C80.0338 40.957 79.6285 41.069 79.2765 41.293C78.9351 41.5063 78.6685 41.8263 78.4765 42.253C78.2845 42.6796 78.1885 43.2076 78.1885 43.837C78.1885 44.7756 78.3965 45.4956 78.8125 45.997C79.2391 46.4876 79.7991 46.733 80.4925 46.733ZM86.8856 47.853C86.6616 47.853 86.4856 47.789 86.3576 47.661C86.2296 47.533 86.1656 47.3463 86.1656 47.101V40.573C86.1656 40.3276 86.2296 40.1463 86.3576 40.029C86.4856 39.901 86.6616 39.837 86.8856 39.837C87.1096 39.837 87.2802 39.901 87.3976 40.029C87.5256 40.1463 87.5896 40.3276 87.5896 40.573V41.933L87.4136 41.645C87.6162 41.0583 87.9416 40.605 88.3896 40.285C88.8482 39.965 89.3922 39.805 90.0216 39.805C90.6829 39.805 91.2162 39.965 91.6216 40.285C92.0269 40.5943 92.2989 41.069 92.4376 41.709H92.2136C92.4056 41.1223 92.7469 40.6583 93.2376 40.317C93.7389 39.9756 94.3202 39.805 94.9816 39.805C95.5682 39.805 96.0482 39.9223 96.4216 40.157C96.8056 40.381 97.0936 40.7223 97.2856 41.181C97.4776 41.629 97.5736 42.205 97.5736 42.909V47.101C97.5736 47.3463 97.5096 47.533 97.3816 47.661C97.2536 47.789 97.0776 47.853 96.8536 47.853C96.6189 47.853 96.4376 47.789 96.3096 47.661C96.1816 47.533 96.1176 47.3463 96.1176 47.101V42.973C96.1176 42.2903 96.0002 41.789 95.7656 41.469C95.5309 41.149 95.1362 40.989 94.5816 40.989C93.9736 40.989 93.4882 41.2023 93.1256 41.629C92.7736 42.045 92.5976 42.621 92.5976 43.357V47.101C92.5976 47.3463 92.5336 47.533 92.4056 47.661C92.2882 47.789 92.1122 47.853 91.8776 47.853C91.6429 47.853 91.4616 47.789 91.3336 47.661C91.2056 47.533 91.1416 47.3463 91.1416 47.101V42.973C91.1416 42.2903 91.0242 41.789 90.7896 41.469C90.5549 41.149 90.1602 40.989 89.6056 40.989C88.9976 40.989 88.5122 41.2023 88.1496 41.629C87.7976 42.045 87.6216 42.621 87.6216 43.357V47.101C87.6216 47.6023 87.3762 47.853 86.8856 47.853ZM100.635 47.821C100.411 47.821 100.235 47.7516 100.107 47.613C99.9788 47.4743 99.9148 47.2823 99.9148 47.037V40.653C99.9148 40.397 99.9788 40.205 100.107 40.077C100.235 39.9383 100.411 39.869 100.635 39.869C100.869 39.869 101.051 39.9383 101.179 40.077C101.307 40.205 101.371 40.397 101.371 40.653V47.037C101.371 47.2823 101.307 47.4743 101.179 47.613C101.061 47.7516 100.88 47.821 100.635 47.821ZM100.635 38.141C100.347 38.141 100.117 38.0663 99.9468 37.917C99.7868 37.757 99.7068 37.549 99.7068 37.293C99.7068 37.0156 99.7868 36.8076 99.9468 36.669C100.117 36.5196 100.347 36.445 100.635 36.445C100.944 36.445 101.173 36.5196 101.323 36.669C101.483 36.8076 101.563 37.0156 101.563 37.293C101.563 37.549 101.483 37.757 101.323 37.917C101.173 38.0663 100.944 38.141 100.635 38.141ZM103.952 47.741C103.792 47.741 103.664 47.7036 103.568 47.629C103.472 47.5543 103.402 47.4583 103.36 47.341C103.328 47.2236 103.328 47.0956 103.36 46.957C103.402 46.8183 103.482 46.6796 103.6 46.541L108.032 40.701V41.069H103.856C103.674 41.069 103.53 41.021 103.424 40.925C103.328 40.8183 103.28 40.6796 103.28 40.509C103.28 40.3276 103.328 40.189 103.424 40.093C103.53 39.997 103.674 39.949 103.856 39.949H108.736C108.917 39.949 109.061 39.9863 109.168 40.061C109.285 40.1356 109.36 40.2316 109.392 40.349C109.434 40.4663 109.44 40.5943 109.408 40.733C109.376 40.861 109.301 40.989 109.184 41.117L104.688 47.021V46.621H109.072C109.456 46.621 109.648 46.8076 109.648 47.181C109.648 47.3516 109.594 47.4903 109.488 47.597C109.392 47.693 109.253 47.741 109.072 47.741H103.952ZM113.567 47.885C113.033 47.885 112.548 47.7783 112.111 47.565C111.684 47.3516 111.348 47.0636 111.103 46.701C110.868 46.3383 110.751 45.933 110.751 45.485C110.751 44.909 110.895 44.4556 111.183 44.125C111.471 43.7943 111.956 43.5596 112.639 43.421C113.321 43.2716 114.239 43.197 115.391 43.197H116.143V44.125H115.423C114.601 44.125 113.951 44.1623 113.471 44.237C113.001 44.3116 112.671 44.445 112.479 44.637C112.287 44.8183 112.191 45.0743 112.191 45.405C112.191 45.821 112.335 46.1623 112.623 46.429C112.921 46.6956 113.327 46.829 113.839 46.829C114.244 46.829 114.601 46.733 114.911 46.541C115.22 46.3383 115.465 46.0716 115.647 45.741C115.828 45.3996 115.919 45.0103 115.919 44.573V42.733C115.919 42.1036 115.791 41.6503 115.535 41.373C115.279 41.085 114.847 40.941 114.239 40.941C113.887 40.941 113.524 40.989 113.151 41.085C112.777 41.181 112.388 41.3303 111.983 41.533C111.823 41.6076 111.684 41.6343 111.567 41.613C111.449 41.581 111.353 41.517 111.279 41.421C111.215 41.3143 111.177 41.2023 111.167 41.085C111.167 40.957 111.193 40.8343 111.247 40.717C111.311 40.5996 111.417 40.5143 111.567 40.461C112.036 40.2263 112.5 40.061 112.959 39.965C113.428 39.8583 113.865 39.805 114.271 39.805C114.964 39.805 115.535 39.917 115.983 40.141C116.431 40.3543 116.767 40.6903 116.991 41.149C117.215 41.597 117.327 42.173 117.327 42.877V47.101C117.327 47.3463 117.268 47.533 117.151 47.661C117.033 47.789 116.863 47.853 116.639 47.853C116.425 47.853 116.255 47.789 116.127 47.661C116.009 47.533 115.951 47.3463 115.951 47.101V45.965H116.095C116.009 46.3596 115.849 46.701 115.615 46.989C115.38 47.277 115.087 47.501 114.735 47.661C114.393 47.8103 114.004 47.885 113.567 47.885ZM122.85 47.885C122.221 47.885 121.693 47.773 121.266 47.549C120.85 47.325 120.535 46.9996 120.322 46.573C120.119 46.1463 120.018 45.6236 120.018 45.005V41.069H118.994C118.802 41.069 118.653 41.021 118.546 40.925C118.439 40.8183 118.386 40.6796 118.386 40.509C118.386 40.3276 118.439 40.189 118.546 40.093C118.653 39.997 118.802 39.949 118.994 39.949H120.018V38.205C120.018 37.9596 120.082 37.7783 120.21 37.661C120.338 37.533 120.519 37.469 120.754 37.469C120.989 37.469 121.165 37.533 121.282 37.661C121.41 37.7783 121.474 37.9596 121.474 38.205V39.949H123.41C123.613 39.949 123.767 39.997 123.874 40.093C123.981 40.189 124.034 40.3276 124.034 40.509C124.034 40.6796 123.981 40.8183 123.874 40.925C123.767 41.021 123.613 41.069 123.41 41.069H121.474V44.877C121.474 45.4636 121.597 45.9063 121.842 46.205C122.087 46.5036 122.493 46.653 123.058 46.653C123.261 46.653 123.431 46.637 123.57 46.605C123.709 46.5623 123.831 46.541 123.938 46.541C124.034 46.5303 124.114 46.5623 124.178 46.637C124.253 46.7116 124.29 46.8503 124.29 47.053C124.29 47.2023 124.263 47.341 124.21 47.469C124.167 47.5863 124.077 47.6663 123.938 47.709C123.81 47.7516 123.639 47.789 123.426 47.821C123.213 47.8636 123.021 47.885 122.85 47.885ZM126.197 47.821C125.973 47.821 125.797 47.7516 125.669 47.613C125.541 47.4743 125.477 47.2823 125.477 47.037V40.653C125.477 40.397 125.541 40.205 125.669 40.077C125.797 39.9383 125.973 39.869 126.197 39.869C126.432 39.869 126.613 39.9383 126.741 40.077C126.869 40.205 126.933 40.397 126.933 40.653V47.037C126.933 47.2823 126.869 47.4743 126.741 47.613C126.624 47.7516 126.443 47.821 126.197 47.821ZM126.197 38.141C125.909 38.141 125.68 38.0663 125.509 37.917C125.349 37.757 125.269 37.549 125.269 37.293C125.269 37.0156 125.349 36.8076 125.509 36.669C125.68 36.5196 125.909 36.445 126.197 36.445C126.507 36.445 126.736 36.5196 126.885 36.669C127.045 36.8076 127.125 37.0156 127.125 37.293C127.125 37.549 127.045 37.757 126.885 37.917C126.736 38.0663 126.507 38.141 126.197 38.141ZM132.586 47.885C131.818 47.885 131.152 47.7196 130.586 47.389C130.021 47.0583 129.584 46.589 129.274 45.981C128.965 45.373 128.81 44.6583 128.81 43.837C128.81 43.2183 128.896 42.6636 129.066 42.173C129.248 41.6716 129.504 41.245 129.834 40.893C130.165 40.541 130.56 40.2743 131.018 40.093C131.488 39.901 132.01 39.805 132.586 39.805C133.354 39.805 134.021 39.9703 134.586 40.301C135.152 40.6316 135.589 41.101 135.898 41.709C136.208 42.3063 136.362 43.0156 136.362 43.837C136.362 44.4556 136.272 45.0156 136.09 45.517C135.92 46.0183 135.669 46.445 135.338 46.797C135.008 47.149 134.608 47.421 134.138 47.613C133.68 47.7943 133.162 47.885 132.586 47.885ZM132.586 46.733C133.056 46.733 133.461 46.621 133.802 46.397C134.154 46.173 134.421 45.8476 134.602 45.421C134.794 44.9943 134.89 44.4663 134.89 43.837C134.89 42.8983 134.682 42.1836 134.266 41.693C133.85 41.2023 133.29 40.957 132.586 40.957C132.128 40.957 131.722 41.069 131.37 41.293C131.029 41.5063 130.762 41.8263 130.57 42.253C130.378 42.6796 130.282 43.2076 130.282 43.837C130.282 44.7756 130.49 45.4956 130.906 45.997C131.333 46.4876 131.893 46.733 132.586 46.733ZM138.947 47.853C138.723 47.853 138.547 47.789 138.419 47.661C138.291 47.533 138.227 47.3463 138.227 47.101V40.573C138.227 40.3276 138.291 40.1463 138.419 40.029C138.547 39.901 138.723 39.837 138.947 39.837C139.171 39.837 139.342 39.901 139.459 40.029C139.587 40.1463 139.651 40.3276 139.651 40.573V41.885L139.475 41.645C139.699 41.037 140.062 40.5783 140.563 40.269C141.075 39.9596 141.657 39.805 142.307 39.805C142.937 39.805 143.454 39.917 143.859 40.141C144.265 40.365 144.569 40.7063 144.771 41.165C144.974 41.6236 145.075 42.205 145.075 42.909V47.101C145.075 47.3463 145.011 47.533 144.883 47.661C144.766 47.789 144.59 47.853 144.355 47.853C144.121 47.853 143.939 47.789 143.811 47.661C143.683 47.533 143.619 47.3463 143.619 47.101V42.989C143.619 42.2956 143.486 41.789 143.219 41.469C142.953 41.149 142.526 40.989 141.939 40.989C141.257 40.989 140.707 41.2023 140.291 41.629C139.886 42.045 139.683 42.6103 139.683 43.325V47.101C139.683 47.6023 139.438 47.853 138.947 47.853Z" fill="#0F1415"/>
<path d="M47.2997 75.3983C47.085 75.3983 46.9217 75.3423 46.8097 75.2303C46.6977 75.109 46.6417 74.941 46.6417 74.7263V66.5363H43.5757C43.3984 66.5363 43.2584 66.4896 43.1557 66.3963C43.053 66.2936 43.0017 66.1536 43.0017 65.9763C43.0017 65.799 43.053 65.6636 43.1557 65.5703C43.2584 65.477 43.3984 65.4303 43.5757 65.4303H51.0097C51.1964 65.4303 51.3364 65.477 51.4297 65.5703C51.5324 65.6636 51.5837 65.799 51.5837 65.9763C51.5837 66.1536 51.5324 66.2936 51.4297 66.3963C51.3364 66.4896 51.1964 66.5363 51.0097 66.5363H47.9437V74.7263C47.9437 74.941 47.8877 75.109 47.7757 75.2303C47.673 75.3423 47.5144 75.3983 47.2997 75.3983ZM53.6595 75.4263C53.1929 75.4263 52.7682 75.333 52.3855 75.1463C52.0122 74.9596 51.7182 74.7076 51.5035 74.3903C51.2982 74.073 51.1955 73.7183 51.1955 73.3263C51.1955 72.8223 51.3215 72.4256 51.5735 72.1363C51.8255 71.847 52.2502 71.6416 52.8475 71.5203C53.4449 71.3896 54.2475 71.3243 55.2555 71.3243H55.9135V72.1363H55.2835C54.5649 72.1363 53.9955 72.169 53.5755 72.2343C53.1649 72.2996 52.8755 72.4163 52.7075 72.5843C52.5395 72.743 52.4555 72.967 52.4555 73.2563C52.4555 73.6203 52.5815 73.919 52.8335 74.1523C53.0949 74.3856 53.4495 74.5023 53.8975 74.5023C54.2522 74.5023 54.5649 74.4183 54.8355 74.2503C55.1062 74.073 55.3209 73.8396 55.4795 73.5503C55.6382 73.2516 55.7175 72.911 55.7175 72.5283V70.9183C55.7175 70.3676 55.6055 69.971 55.3815 69.7283C55.1575 69.4763 54.7795 69.3503 54.2475 69.3503C53.9395 69.3503 53.6222 69.3923 53.2955 69.4763C52.9689 69.5603 52.6282 69.691 52.2735 69.8683C52.1335 69.9336 52.0122 69.957 51.9095 69.9383C51.8069 69.9103 51.7229 69.8543 51.6575 69.7703C51.6015 69.677 51.5689 69.579 51.5595 69.4763C51.5595 69.3643 51.5829 69.257 51.6295 69.1543C51.6855 69.0516 51.7789 68.977 51.9095 68.9303C52.3202 68.725 52.7262 68.5803 53.1275 68.4963C53.5382 68.403 53.9209 68.3563 54.2755 68.3563C54.8822 68.3563 55.3815 68.4543 55.7735 68.6503C56.1655 68.837 56.4595 69.131 56.6555 69.5323C56.8515 69.9243 56.9495 70.4283 56.9495 71.0443V74.7403C56.9495 74.955 56.8982 75.1183 56.7955 75.2303C56.6929 75.3423 56.5435 75.3983 56.3475 75.3983C56.1609 75.3983 56.0115 75.3423 55.8995 75.2303C55.7969 75.1183 55.7455 74.955 55.7455 74.7403V73.7463H55.8715C55.7969 74.0916 55.6569 74.3903 55.4515 74.6423C55.2462 74.8943 54.9895 75.0903 54.6815 75.2303C54.3829 75.361 54.0422 75.4263 53.6595 75.4263ZM59.5844 75.3703C59.3884 75.3703 59.2344 75.3096 59.1224 75.1883C59.0104 75.067 58.9544 74.899 58.9544 74.6843V69.0983C58.9544 68.8743 59.0104 68.7063 59.1224 68.5943C59.2344 68.473 59.3884 68.4123 59.5844 68.4123C59.7897 68.4123 59.9484 68.473 60.0604 68.5943C60.1724 68.7063 60.2284 68.8743 60.2284 69.0983V74.6843C60.2284 74.899 60.1724 75.067 60.0604 75.1883C59.9577 75.3096 59.799 75.3703 59.5844 75.3703ZM59.5844 66.9003C59.3324 66.9003 59.1317 66.835 58.9824 66.7043C58.8424 66.5643 58.7724 66.3823 58.7724 66.1583C58.7724 65.9156 58.8424 65.7336 58.9824 65.6123C59.1317 65.4816 59.3324 65.4163 59.5844 65.4163C59.855 65.4163 60.0557 65.4816 60.1864 65.6123C60.3264 65.7336 60.3964 65.9156 60.3964 66.1583C60.3964 66.3823 60.3264 66.5643 60.1864 66.7043C60.0557 66.835 59.855 66.9003 59.5844 66.9003ZM64.4186 75.4263C63.7186 75.4263 63.1866 75.221 62.8226 74.8103C62.4586 74.3903 62.2766 73.7883 62.2766 73.0043V65.9763C62.2766 65.7616 62.3326 65.603 62.4446 65.5003C62.5566 65.3883 62.7106 65.3323 62.9066 65.3323C63.112 65.3323 63.2706 65.3883 63.3826 65.5003C63.4946 65.603 63.5506 65.7616 63.5506 65.9763V72.9063C63.5506 73.3916 63.6486 73.7556 63.8446 73.9983C64.05 74.2316 64.3393 74.3483 64.7126 74.3483C64.7966 74.3483 64.8713 74.3483 64.9366 74.3483C65.002 74.339 65.0673 74.3296 65.1326 74.3203C65.2353 74.311 65.31 74.339 65.3566 74.4043C65.4033 74.4696 65.4266 74.6003 65.4266 74.7963C65.4266 74.9736 65.3846 75.1136 65.3006 75.2163C65.226 75.3096 65.1 75.3703 64.9226 75.3983C64.8386 75.4076 64.7546 75.4123 64.6706 75.4123C64.5866 75.4216 64.5026 75.4263 64.4186 75.4263ZM69.3172 75.4263C68.6452 75.4263 68.0619 75.2816 67.5672 74.9923C67.0725 74.703 66.6899 74.2923 66.4192 73.7603C66.1485 73.2283 66.0132 72.603 66.0132 71.8843C66.0132 71.343 66.0879 70.8576 66.2372 70.4283C66.3959 69.9896 66.6199 69.6163 66.9092 69.3083C67.1985 69.0003 67.5439 68.767 67.9452 68.6083C68.3559 68.4403 68.8132 68.3563 69.3172 68.3563C69.9892 68.3563 70.5725 68.501 71.0672 68.7903C71.5619 69.0796 71.9445 69.4903 72.2152 70.0223C72.4859 70.545 72.6212 71.1656 72.6212 71.8843C72.6212 72.4256 72.5419 72.9156 72.3832 73.3543C72.2339 73.793 72.0145 74.1663 71.7252 74.4743C71.4359 74.7823 71.0859 75.0203 70.6752 75.1883C70.2739 75.347 69.8212 75.4263 69.3172 75.4263ZM69.3172 74.4183C69.7279 74.4183 70.0825 74.3203 70.3812 74.1243C70.6892 73.9283 70.9225 73.6436 71.0812 73.2703C71.2492 72.897 71.3332 72.435 71.3332 71.8843C71.3332 71.063 71.1512 70.4376 70.7872 70.0083C70.4232 69.579 69.9332 69.3643 69.3172 69.3643C68.9159 69.3643 68.5612 69.4623 68.2532 69.6583C67.9545 69.845 67.7212 70.125 67.5532 70.4983C67.3852 70.8716 67.3012 71.3336 67.3012 71.8843C67.3012 72.7056 67.4832 73.3356 67.8472 73.7743C68.2205 74.2036 68.7105 74.4183 69.3172 74.4183ZM74.9112 75.3983C74.6965 75.3983 74.5332 75.3423 74.4212 75.2303C74.3092 75.1183 74.2532 74.955 74.2532 74.7403V69.0283C74.2532 68.8136 74.3092 68.655 74.4212 68.5523C74.5332 68.4403 74.6872 68.3843 74.8832 68.3843C75.0792 68.3843 75.2285 68.4403 75.3312 68.5523C75.4432 68.655 75.4992 68.8136 75.4992 69.0283V70.1063H75.3592C75.5085 69.5463 75.7885 69.1216 76.1992 68.8323C76.6099 68.543 77.1279 68.3796 77.7532 68.3423C77.9025 68.333 78.0239 68.3703 78.1172 68.4543C78.2105 68.529 78.2619 68.6596 78.2712 68.8463C78.2805 69.0236 78.2385 69.1683 78.1452 69.2803C78.0519 69.383 77.9072 69.4436 77.7112 69.4623L77.4592 69.4763C76.8432 69.5416 76.3672 69.7423 76.0312 70.0783C75.7045 70.4143 75.5412 70.8763 75.5412 71.4643V74.7403C75.5412 74.955 75.4852 75.1183 75.3732 75.2303C75.2705 75.3423 75.1165 75.3983 74.9112 75.3983ZM82.4208 75.4263C81.6834 75.4263 81.0488 75.2863 80.5168 75.0063C79.9941 74.717 79.5881 74.311 79.2988 73.7883C79.0094 73.2563 78.8648 72.631 78.8648 71.9123C78.8648 71.203 79.0048 70.5823 79.2848 70.0503C79.5741 69.5183 79.9661 69.103 80.4608 68.8043C80.9648 68.5056 81.5388 68.3563 82.1828 68.3563C82.6401 68.3563 83.0508 68.4356 83.4148 68.5943C83.7881 68.7436 84.1054 68.963 84.3668 69.2523C84.6281 69.5416 84.8241 69.8963 84.9548 70.3163C85.0948 70.727 85.1648 71.1936 85.1648 71.7163C85.1648 71.8656 85.1181 71.9823 85.0248 72.0663C84.9408 72.141 84.8148 72.1783 84.6468 72.1783H79.8588V71.3663H84.3248L84.0868 71.5623C84.0868 71.077 84.0121 70.6663 83.8628 70.3303C83.7228 69.985 83.5128 69.7236 83.2328 69.5463C82.9621 69.369 82.6214 69.2803 82.2108 69.2803C81.7628 69.2803 81.3801 69.3876 81.0628 69.6023C80.7454 69.8076 80.5028 70.1016 80.3348 70.4843C80.1668 70.8576 80.0828 71.2916 80.0828 71.7863V71.8703C80.0828 72.7103 80.2834 73.345 80.6848 73.7743C81.0861 74.2036 81.6648 74.4183 82.4208 74.4183C82.7194 74.4183 83.0228 74.381 83.3308 74.3063C83.6481 74.2316 83.9514 74.0963 84.2408 73.9003C84.3808 73.8163 84.5068 73.779 84.6188 73.7883C84.7401 73.7883 84.8381 73.8256 84.9128 73.9003C84.9874 73.9656 85.0341 74.0496 85.0528 74.1523C85.0714 74.2456 85.0574 74.3483 85.0108 74.4603C84.9641 74.5723 84.8754 74.6703 84.7448 74.7543C84.4368 74.969 84.0681 75.137 83.6388 75.2583C83.2188 75.3703 82.8128 75.4263 82.4208 75.4263ZM89.3533 75.4263C88.756 75.4263 88.2286 75.2863 87.7713 75.0063C87.3233 74.717 86.9733 74.3063 86.7213 73.7743C86.4693 73.233 86.3433 72.603 86.3433 71.8843C86.3433 71.1563 86.4646 70.531 86.7073 70.0083C86.9593 69.4763 87.3093 69.0703 87.7573 68.7903C88.2146 68.501 88.7466 68.3563 89.3533 68.3563C89.96 68.3563 90.4826 68.5103 90.9213 68.8183C91.36 69.117 91.654 69.5183 91.8033 70.0223H91.6493V65.9763C91.6493 65.7616 91.7006 65.603 91.8033 65.5003C91.9153 65.3883 92.074 65.3323 92.2793 65.3323C92.4846 65.3323 92.6433 65.3883 92.7553 65.5003C92.8673 65.603 92.9233 65.7616 92.9233 65.9763V74.7403C92.9233 74.955 92.8673 75.1183 92.7553 75.2303C92.6433 75.3423 92.4846 75.3983 92.2793 75.3983C92.0833 75.3983 91.9293 75.3423 91.8173 75.2303C91.7053 75.1183 91.6493 74.955 91.6493 74.7403V73.4663L91.8033 73.7183C91.6633 74.241 91.3693 74.6563 90.9213 74.9643C90.4826 75.2723 89.96 75.4263 89.3533 75.4263ZM89.6473 74.4183C90.058 74.4183 90.4126 74.3203 90.7113 74.1243C91.0193 73.9283 91.2526 73.6436 91.4113 73.2703C91.5793 72.897 91.6633 72.435 91.6633 71.8843C91.6633 71.063 91.4813 70.4376 91.1173 70.0083C90.7533 69.579 90.2633 69.3643 89.6473 69.3643C89.246 69.3643 88.8913 69.4623 88.5833 69.6583C88.2846 69.845 88.0513 70.125 87.8833 70.4983C87.7153 70.8716 87.6313 71.3336 87.6313 71.8843C87.6313 72.7056 87.8133 73.3356 88.1773 73.7743C88.5506 74.2036 89.0406 74.4183 89.6473 74.4183ZM100.968 75.4263C100.548 75.4263 100.124 75.3796 99.6945 75.2863C99.2745 75.1836 98.8778 75.011 98.5045 74.7683C98.4018 74.703 98.3271 74.6236 98.2805 74.5303C98.2431 74.4276 98.2291 74.3296 98.2385 74.2363C98.2571 74.1336 98.2991 74.045 98.3645 73.9703C98.4298 73.8956 98.5091 73.8536 98.6025 73.8443C98.7051 73.8256 98.8125 73.849 98.9245 73.9143C99.2885 74.1196 99.6385 74.2643 99.9745 74.3483C100.32 74.4323 100.66 74.4743 100.996 74.4743C101.51 74.4743 101.897 74.381 102.158 74.1943C102.42 74.0076 102.55 73.7603 102.55 73.4523C102.55 73.191 102.462 72.9903 102.284 72.8503C102.116 72.701 101.85 72.589 101.486 72.5143L100.184 72.2483C99.6058 72.1176 99.1671 71.903 98.8685 71.6043C98.5791 71.2963 98.4345 70.9043 98.4345 70.4283C98.4345 70.0083 98.5465 69.6443 98.7705 69.3363C99.0038 69.019 99.3258 68.7763 99.7365 68.6083C100.147 68.4403 100.618 68.3563 101.15 68.3563C101.561 68.3563 101.948 68.4123 102.312 68.5243C102.686 68.627 103.022 68.7856 103.32 69.0003C103.432 69.0656 103.502 69.1496 103.53 69.2523C103.568 69.3456 103.572 69.4436 103.544 69.5463C103.526 69.6396 103.484 69.719 103.418 69.7843C103.353 69.8496 103.269 69.8916 103.166 69.9103C103.064 69.9196 102.952 69.8916 102.83 69.8263C102.56 69.6396 102.28 69.509 101.99 69.4343C101.71 69.3503 101.43 69.3083 101.15 69.3083C100.646 69.3083 100.264 69.4063 100.002 69.6023C99.7505 69.7983 99.6245 70.055 99.6245 70.3723C99.6245 70.615 99.6991 70.8156 99.8485 70.9743C100.007 71.133 100.254 71.2496 100.59 71.3243L101.892 71.5903C102.499 71.721 102.956 71.931 103.264 72.2203C103.572 72.5003 103.726 72.883 103.726 73.3683C103.726 74.003 103.474 74.507 102.97 74.8803C102.476 75.2443 101.808 75.4263 100.968 75.4263ZM108.282 75.4263C107.61 75.4263 107.027 75.2816 106.532 74.9923C106.037 74.703 105.655 74.2923 105.384 73.7603C105.113 73.2283 104.978 72.603 104.978 71.8843C104.978 71.343 105.053 70.8576 105.202 70.4283C105.361 69.9896 105.585 69.6163 105.874 69.3083C106.163 69.0003 106.509 68.767 106.91 68.6083C107.321 68.4403 107.778 68.3563 108.282 68.3563C108.954 68.3563 109.537 68.501 110.032 68.7903C110.527 69.0796 110.909 69.4903 111.18 70.0223C111.451 70.545 111.586 71.1656 111.586 71.8843C111.586 72.4256 111.507 72.9156 111.348 73.3543C111.199 73.793 110.979 74.1663 110.69 74.4743C110.401 74.7823 110.051 75.0203 109.64 75.1883C109.239 75.347 108.786 75.4263 108.282 75.4263ZM108.282 74.4183C108.693 74.4183 109.047 74.3203 109.346 74.1243C109.654 73.9283 109.887 73.6436 110.046 73.2703C110.214 72.897 110.298 72.435 110.298 71.8843C110.298 71.063 110.116 70.4376 109.752 70.0083C109.388 69.579 108.898 69.3643 108.282 69.3643C107.881 69.3643 107.526 69.4623 107.218 69.6583C106.919 69.845 106.686 70.125 106.518 70.4983C106.35 70.8716 106.266 71.3336 106.266 71.8843C106.266 72.7056 106.448 73.3356 106.812 73.7743C107.185 74.2036 107.675 74.4183 108.282 74.4183ZM115.36 75.4263C114.66 75.4263 114.128 75.221 113.764 74.8103C113.4 74.3903 113.218 73.7883 113.218 73.0043V65.9763C113.218 65.7616 113.274 65.603 113.386 65.5003C113.498 65.3883 113.652 65.3323 113.848 65.3323C114.053 65.3323 114.212 65.3883 114.324 65.5003C114.436 65.603 114.492 65.7616 114.492 65.9763V72.9063C114.492 73.3916 114.59 73.7556 114.786 73.9983C114.991 74.2316 115.281 74.3483 115.654 74.3483C115.738 74.3483 115.813 74.3483 115.878 74.3483C115.943 74.339 116.009 74.3296 116.074 74.3203C116.177 74.311 116.251 74.339 116.298 74.4043C116.345 74.4696 116.368 74.6003 116.368 74.7963C116.368 74.9736 116.326 75.1136 116.242 75.2163C116.167 75.3096 116.041 75.3703 115.864 75.3983C115.78 75.4076 115.696 75.4123 115.612 75.4123C115.528 75.4216 115.444 75.4263 115.36 75.4263ZM119.865 75.4263C119.314 75.4263 118.852 75.3236 118.479 75.1183C118.115 74.913 117.844 74.6096 117.667 74.2083C117.49 73.807 117.401 73.303 117.401 72.6963V69.0283C117.401 68.8136 117.452 68.655 117.555 68.5523C117.667 68.4403 117.826 68.3843 118.031 68.3843C118.236 68.3843 118.395 68.4403 118.507 68.5523C118.619 68.655 118.675 68.8136 118.675 69.0283V72.6963C118.675 73.275 118.792 73.7043 119.025 73.9843C119.258 74.255 119.627 74.3903 120.131 74.3903C120.691 74.3903 121.144 74.2036 121.489 73.8303C121.844 73.457 122.021 72.9623 122.021 72.3463V69.0283C122.021 68.8136 122.072 68.655 122.175 68.5523C122.287 68.4403 122.446 68.3843 122.651 68.3843C122.856 68.3843 123.015 68.4403 123.127 68.5523C123.239 68.655 123.295 68.8136 123.295 69.0283V74.7403C123.295 75.179 123.09 75.3983 122.679 75.3983C122.474 75.3983 122.315 75.3423 122.203 75.2303C122.1 75.1183 122.049 74.955 122.049 74.7403V73.5223L122.231 73.7603C122.044 74.3016 121.741 74.717 121.321 75.0063C120.91 75.2863 120.425 75.4263 119.865 75.4263ZM128.173 75.4263C127.622 75.4263 127.16 75.3283 126.787 75.1323C126.423 74.9363 126.148 74.6516 125.961 74.2783C125.784 73.905 125.695 73.4476 125.695 72.9063V69.4623H124.799C124.631 69.4623 124.5 69.4203 124.407 69.3363C124.314 69.243 124.267 69.1216 124.267 68.9723C124.267 68.8136 124.314 68.6923 124.407 68.6083C124.5 68.5243 124.631 68.4823 124.799 68.4823H125.695V66.9563C125.695 66.7416 125.751 66.583 125.863 66.4803C125.975 66.3683 126.134 66.3123 126.339 66.3123C126.544 66.3123 126.698 66.3683 126.801 66.4803C126.913 66.583 126.969 66.7416 126.969 66.9563V68.4823H128.663C128.84 68.4823 128.976 68.5243 129.069 68.6083C129.162 68.6923 129.209 68.8136 129.209 68.9723C129.209 69.1216 129.162 69.243 129.069 69.3363C128.976 69.4203 128.84 69.4623 128.663 69.4623H126.969V72.7943C126.969 73.3076 127.076 73.695 127.291 73.9563C127.506 74.2176 127.86 74.3483 128.355 74.3483C128.532 74.3483 128.682 74.3343 128.803 74.3063C128.924 74.269 129.032 74.2503 129.125 74.2503C129.209 74.241 129.279 74.269 129.335 74.3343C129.4 74.3996 129.433 74.521 129.433 74.6983C129.433 74.829 129.41 74.9503 129.363 75.0623C129.326 75.165 129.246 75.235 129.125 75.2723C129.013 75.3096 128.864 75.3423 128.677 75.3703C128.49 75.4076 128.322 75.4263 128.173 75.4263ZM131.102 75.3703C130.906 75.3703 130.752 75.3096 130.64 75.1883C130.528 75.067 130.472 74.899 130.472 74.6843V69.0983C130.472 68.8743 130.528 68.7063 130.64 68.5943C130.752 68.473 130.906 68.4123 131.102 68.4123C131.307 68.4123 131.466 68.473 131.578 68.5943C131.69 68.7063 131.746 68.8743 131.746 69.0983V74.6843C131.746 74.899 131.69 75.067 131.578 75.1883C131.475 75.3096 131.317 75.3703 131.102 75.3703ZM131.102 66.9003C130.85 66.9003 130.649 66.835 130.5 66.7043C130.36 66.5643 130.29 66.3823 130.29 66.1583C130.29 65.9156 130.36 65.7336 130.5 65.6123C130.649 65.4816 130.85 65.4163 131.102 65.4163C131.373 65.4163 131.573 65.4816 131.704 65.6123C131.844 65.7336 131.914 65.9156 131.914 66.1583C131.914 66.3823 131.844 66.5643 131.704 66.7043C131.573 66.835 131.373 66.9003 131.102 66.9003ZM136.692 75.4263C136.02 75.4263 135.437 75.2816 134.942 74.9923C134.448 74.703 134.065 74.2923 133.794 73.7603C133.524 73.2283 133.388 72.603 133.388 71.8843C133.388 71.343 133.463 70.8576 133.612 70.4283C133.771 69.9896 133.995 69.6163 134.284 69.3083C134.574 69.0003 134.919 68.767 135.32 68.6083C135.731 68.4403 136.188 68.3563 136.692 68.3563C137.364 68.3563 137.948 68.501 138.442 68.7903C138.937 69.0796 139.32 69.4903 139.59 70.0223C139.861 70.545 139.996 71.1656 139.996 71.8843C139.996 72.4256 139.917 72.9156 139.758 73.3543C139.609 73.793 139.39 74.1663 139.1 74.4743C138.811 74.7823 138.461 75.0203 138.05 75.1883C137.649 75.347 137.196 75.4263 136.692 75.4263ZM136.692 74.4183C137.103 74.4183 137.458 74.3203 137.756 74.1243C138.064 73.9283 138.298 73.6436 138.456 73.2703C138.624 72.897 138.708 72.435 138.708 71.8843C138.708 71.063 138.526 70.4376 138.162 70.0083C137.798 69.579 137.308 69.3643 136.692 69.3643C136.291 69.3643 135.936 69.4623 135.628 69.6583C135.33 69.845 135.096 70.125 134.928 70.4983C134.76 70.8716 134.676 71.3336 134.676 71.8843C134.676 72.7056 134.858 73.3356 135.222 73.7743C135.596 74.2036 136.086 74.4183 136.692 74.4183ZM142.258 75.3983C142.062 75.3983 141.908 75.3423 141.796 75.2303C141.684 75.1183 141.628 74.955 141.628 74.7403V69.0283C141.628 68.8136 141.684 68.655 141.796 68.5523C141.908 68.4403 142.062 68.3843 142.258 68.3843C142.454 68.3843 142.604 68.4403 142.706 68.5523C142.818 68.655 142.874 68.8136 142.874 69.0283V70.1763L142.72 69.9663C142.916 69.4343 143.234 69.033 143.672 68.7623C144.12 68.4916 144.629 68.3563 145.198 68.3563C145.749 68.3563 146.202 68.4543 146.556 68.6503C146.911 68.8463 147.177 69.145 147.354 69.5463C147.532 69.9476 147.62 70.4563 147.62 71.0723V74.7403C147.62 74.955 147.564 75.1183 147.452 75.2303C147.35 75.3423 147.196 75.3983 146.99 75.3983C146.785 75.3983 146.626 75.3423 146.514 75.2303C146.402 75.1183 146.346 74.955 146.346 74.7403V71.1423C146.346 70.5356 146.23 70.0923 145.996 69.8123C145.763 69.5323 145.39 69.3923 144.876 69.3923C144.279 69.3923 143.798 69.579 143.434 69.9523C143.08 70.3163 142.902 70.811 142.902 71.4363V74.7403C142.902 75.179 142.688 75.3983 142.258 75.3983ZM151.992 75.4263C151.572 75.4263 151.147 75.3796 150.718 75.2863C150.298 75.1836 149.901 75.011 149.528 74.7683C149.425 74.703 149.351 74.6236 149.304 74.5303C149.267 74.4276 149.253 74.3296 149.262 74.2363C149.281 74.1336 149.323 74.045 149.388 73.9703C149.453 73.8956 149.533 73.8536 149.626 73.8443C149.729 73.8256 149.836 73.849 149.948 73.9143C150.312 74.1196 150.662 74.2643 150.998 74.3483C151.343 74.4323 151.684 74.4743 152.02 74.4743C152.533 74.4743 152.921 74.381 153.182 74.1943C153.443 74.0076 153.574 73.7603 153.574 73.4523C153.574 73.191 153.485 72.9903 153.308 72.8503C153.14 72.701 152.874 72.589 152.51 72.5143L151.208 72.2483C150.629 72.1176 150.191 71.903 149.892 71.6043C149.603 71.2963 149.458 70.9043 149.458 70.4283C149.458 70.0083 149.57 69.6443 149.794 69.3363C150.027 69.019 150.349 68.7763 150.76 68.6083C151.171 68.4403 151.642 68.3563 152.174 68.3563C152.585 68.3563 152.972 68.4123 153.336 68.5243C153.709 68.627 154.045 68.7856 154.344 69.0003C154.456 69.0656 154.526 69.1496 154.554 69.2523C154.591 69.3456 154.596 69.4436 154.568 69.5463C154.549 69.6396 154.507 69.719 154.442 69.7843C154.377 69.8496 154.293 69.8916 154.19 69.9103C154.087 69.9196 153.975 69.8916 153.854 69.8263C153.583 69.6396 153.303 69.509 153.014 69.4343C152.734 69.3503 152.454 69.3083 152.174 69.3083C151.67 69.3083 151.287 69.4063 151.026 69.6023C150.774 69.7983 150.648 70.055 150.648 70.3723C150.648 70.615 150.723 70.8156 150.872 70.9743C151.031 71.133 151.278 71.2496 151.614 71.3243L152.916 71.5903C153.523 71.721 153.98 71.931 154.288 72.2203C154.596 72.5003 154.75 72.883 154.75 73.3683C154.75 74.003 154.498 74.507 153.994 74.8803C153.499 75.2443 152.832 75.4263 151.992 75.4263ZM162.886 75.4263C162.335 75.4263 161.873 75.3283 161.5 75.1323C161.136 74.9363 160.861 74.6516 160.674 74.2783C160.497 73.905 160.408 73.4476 160.408 72.9063V69.4623H159.512C159.344 69.4623 159.213 69.4203 159.12 69.3363C159.027 69.243 158.98 69.1216 158.98 68.9723C158.98 68.8136 159.027 68.6923 159.12 68.6083C159.213 68.5243 159.344 68.4823 159.512 68.4823H160.408V66.9563C160.408 66.7416 160.464 66.583 160.576 66.4803C160.688 66.3683 160.847 66.3123 161.052 66.3123C161.257 66.3123 161.411 66.3683 161.514 66.4803C161.626 66.583 161.682 66.7416 161.682 66.9563V68.4823H163.376C163.553 68.4823 163.689 68.5243 163.782 68.6083C163.875 68.6923 163.922 68.8136 163.922 68.9723C163.922 69.1216 163.875 69.243 163.782 69.3363C163.689 69.4203 163.553 69.4623 163.376 69.4623H161.682V72.7943C161.682 73.3076 161.789 73.695 162.004 73.9563C162.219 74.2176 162.573 74.3483 163.068 74.3483C163.245 74.3483 163.395 74.3343 163.516 74.3063C163.637 74.269 163.745 74.2503 163.838 74.2503C163.922 74.241 163.992 74.269 164.048 74.3343C164.113 74.3996 164.146 74.521 164.146 74.6983C164.146 74.829 164.123 74.9503 164.076 75.0623C164.039 75.165 163.959 75.235 163.838 75.2723C163.726 75.3096 163.577 75.3423 163.39 75.3703C163.203 75.4076 163.035 75.4263 162.886 75.4263ZM167.905 75.4263C167.233 75.4263 166.65 75.2816 166.155 74.9923C165.66 74.703 165.278 74.2923 165.007 73.7603C164.736 73.2283 164.601 72.603 164.601 71.8843C164.601 71.343 164.676 70.8576 164.825 70.4283C164.984 69.9896 165.208 69.6163 165.497 69.3083C165.786 69.0003 166.132 68.767 166.533 68.6083C166.944 68.4403 167.401 68.3563 167.905 68.3563C168.577 68.3563 169.16 68.501 169.655 68.7903C170.15 69.0796 170.532 69.4903 170.803 70.0223C171.074 70.545 171.209 71.1656 171.209 71.8843C171.209 72.4256 171.13 72.9156 170.971 73.3543C170.822 73.793 170.602 74.1663 170.313 74.4743C170.024 74.7823 169.674 75.0203 169.263 75.1883C168.862 75.347 168.409 75.4263 167.905 75.4263ZM167.905 74.4183C168.316 74.4183 168.67 74.3203 168.969 74.1243C169.277 73.9283 169.51 73.6436 169.669 73.2703C169.837 72.897 169.921 72.435 169.921 71.8843C169.921 71.063 169.739 70.4376 169.375 70.0083C169.011 69.579 168.521 69.3643 167.905 69.3643C167.504 69.3643 167.149 69.4623 166.841 69.6583C166.542 69.845 166.309 70.125 166.141 70.4983C165.973 70.8716 165.889 71.3336 165.889 71.8843C165.889 72.7056 166.071 73.3356 166.435 73.7743C166.808 74.2036 167.298 74.4183 167.905 74.4183ZM177.149 75.3983C176.953 75.3983 176.799 75.3423 176.687 75.2303C176.575 75.1183 176.519 74.955 176.519 74.7403V69.0283C176.519 68.8136 176.575 68.655 176.687 68.5523C176.799 68.4403 176.953 68.3843 177.149 68.3843C177.345 68.3843 177.495 68.4403 177.597 68.5523C177.709 68.655 177.765 68.8136 177.765 69.0283V70.2183L177.611 69.9663C177.789 69.453 178.073 69.0563 178.465 68.7763C178.867 68.4963 179.343 68.3563 179.893 68.3563C180.472 68.3563 180.939 68.4963 181.293 68.7763C181.648 69.047 181.886 69.4623 182.007 70.0223H181.811C181.979 69.509 182.278 69.103 182.707 68.8043C183.146 68.5056 183.655 68.3563 184.233 68.3563C184.747 68.3563 185.167 68.459 185.493 68.6643C185.829 68.8603 186.081 69.159 186.249 69.5603C186.417 69.9523 186.501 70.4563 186.501 71.0723V74.7403C186.501 74.955 186.445 75.1183 186.333 75.2303C186.221 75.3423 186.067 75.3983 185.871 75.3983C185.666 75.3983 185.507 75.3423 185.395 75.2303C185.283 75.1183 185.227 74.955 185.227 74.7403V71.1283C185.227 70.531 185.125 70.0923 184.919 69.8123C184.714 69.5323 184.369 69.3923 183.883 69.3923C183.351 69.3923 182.927 69.579 182.609 69.9523C182.301 70.3163 182.147 70.8203 182.147 71.4643V74.7403C182.147 74.955 182.091 75.1183 181.979 75.2303C181.877 75.3423 181.723 75.3983 181.517 75.3983C181.312 75.3983 181.153 75.3423 181.041 75.2303C180.929 75.1183 180.873 74.955 180.873 74.7403V71.1283C180.873 70.531 180.771 70.0923 180.565 69.8123C180.36 69.5323 180.015 69.3923 179.529 69.3923C178.997 69.3923 178.573 69.579 178.255 69.9523C177.947 70.3163 177.793 70.8203 177.793 71.4643V74.7403C177.793 75.179 177.579 75.3983 177.149 75.3983ZM191.7 75.4263C190.963 75.4263 190.328 75.2863 189.796 75.0063C189.273 74.717 188.867 74.311 188.578 73.7883C188.289 73.2563 188.144 72.631 188.144 71.9123C188.144 71.203 188.284 70.5823 188.564 70.0503C188.853 69.5183 189.245 69.103 189.74 68.8043C190.244 68.5056 190.818 68.3563 191.462 68.3563C191.919 68.3563 192.33 68.4356 192.694 68.5943C193.067 68.7436 193.385 68.963 193.646 69.2523C193.907 69.5416 194.103 69.8963 194.234 70.3163C194.374 70.727 194.444 71.1936 194.444 71.7163C194.444 71.8656 194.397 71.9823 194.304 72.0663C194.22 72.141 194.094 72.1783 193.926 72.1783H189.138V71.3663H193.604L193.366 71.5623C193.366 71.077 193.291 70.6663 193.142 70.3303C193.002 69.985 192.792 69.7236 192.512 69.5463C192.241 69.369 191.901 69.2803 191.49 69.2803C191.042 69.2803 190.659 69.3876 190.342 69.6023C190.025 69.8076 189.782 70.1016 189.614 70.4843C189.446 70.8576 189.362 71.2916 189.362 71.7863V71.8703C189.362 72.7103 189.563 73.345 189.964 73.7743C190.365 74.2036 190.944 74.4183 191.7 74.4183C191.999 74.4183 192.302 74.381 192.61 74.3063C192.927 74.2316 193.231 74.0963 193.52 73.9003C193.66 73.8163 193.786 73.779 193.898 73.7883C194.019 73.7883 194.117 73.8256 194.192 73.9003C194.267 73.9656 194.313 74.0496 194.332 74.1523C194.351 74.2456 194.337 74.3483 194.29 74.4603C194.243 74.5723 194.155 74.6703 194.024 74.7543C193.716 74.969 193.347 75.137 192.918 75.2583C192.498 75.3703 192.092 75.4263 191.7 75.4263ZM199.179 75.4263C198.441 75.4263 197.807 75.2863 197.275 75.0063C196.752 74.717 196.346 74.311 196.057 73.7883C195.767 73.2563 195.623 72.631 195.623 71.9123C195.623 71.203 195.763 70.5823 196.043 70.0503C196.332 69.5183 196.724 69.103 197.219 68.8043C197.723 68.5056 198.297 68.3563 198.941 68.3563C199.398 68.3563 199.809 68.4356 200.173 68.5943C200.546 68.7436 200.863 68.963 201.125 69.2523C201.386 69.5416 201.582 69.8963 201.713 70.3163C201.853 70.727 201.923 71.1936 201.923 71.7163C201.923 71.8656 201.876 71.9823 201.783 72.0663C201.699 72.141 201.573 72.1783 201.405 72.1783H196.617V71.3663H201.083L200.845 71.5623C200.845 71.077 200.77 70.6663 200.621 70.3303C200.481 69.985 200.271 69.7236 199.991 69.5463C199.72 69.369 199.379 69.2803 198.969 69.2803C198.521 69.2803 198.138 69.3876 197.821 69.6023C197.503 69.8076 197.261 70.1016 197.093 70.4843C196.925 70.8576 196.841 71.2916 196.841 71.7863V71.8703C196.841 72.7103 197.041 73.345 197.443 73.7743C197.844 74.2036 198.423 74.4183 199.179 74.4183C199.477 74.4183 199.781 74.381 200.089 74.3063C200.406 74.2316 200.709 74.0963 200.999 73.9003C201.139 73.8163 201.265 73.779 201.377 73.7883C201.498 73.7883 201.596 73.8256 201.671 73.9003C201.745 73.9656 201.792 74.0496 201.811 74.1523C201.829 74.2456 201.815 74.3483 201.769 74.4603C201.722 74.5723 201.633 74.6703 201.503 74.7543C201.195 74.969 200.826 75.137 200.397 75.2583C199.977 75.3703 199.571 75.4263 199.179 75.4263ZM206.321 75.4263C205.771 75.4263 205.309 75.3283 204.935 75.1323C204.571 74.9363 204.296 74.6516 204.109 74.2783C203.932 73.905 203.843 73.4476 203.843 72.9063V69.4623H202.947C202.779 69.4623 202.649 69.4203 202.555 69.3363C202.462 69.243 202.415 69.1216 202.415 68.9723C202.415 68.8136 202.462 68.6923 202.555 68.6083C202.649 68.5243 202.779 68.4823 202.947 68.4823H203.843V66.9563C203.843 66.7416 203.899 66.583 204.011 66.4803C204.123 66.3683 204.282 66.3123 204.487 66.3123C204.693 66.3123 204.847 66.3683 204.949 66.4803C205.061 66.583 205.117 66.7416 205.117 66.9563V68.4823H206.811C206.989 68.4823 207.124 68.5243 207.217 68.6083C207.311 68.6923 207.357 68.8136 207.357 68.9723C207.357 69.1216 207.311 69.243 207.217 69.3363C207.124 69.4203 206.989 69.4623 206.811 69.4623H205.117V72.7943C205.117 73.3076 205.225 73.695 205.439 73.9563C205.654 74.2176 206.009 74.3483 206.503 74.3483C206.681 74.3483 206.83 74.3343 206.951 74.3063C207.073 74.269 207.18 74.2503 207.273 74.2503C207.357 74.241 207.427 74.269 207.483 74.3343C207.549 74.3996 207.581 74.521 207.581 74.6983C207.581 74.829 207.558 74.9503 207.511 75.0623C207.474 75.165 207.395 75.235 207.273 75.2723C207.161 75.3096 207.012 75.3423 206.825 75.3703C206.639 75.4076 206.471 75.4263 206.321 75.4263ZM213.729 77.9183C213.58 77.9183 213.454 77.8763 213.351 77.7923C213.258 77.7176 213.202 77.6103 213.183 77.4703C213.174 77.3396 213.202 77.1996 213.267 77.0503L214.219 74.8943V75.4263L211.573 69.2663C211.508 69.1076 211.485 68.963 211.503 68.8323C211.522 68.7016 211.583 68.5943 211.685 68.5103C211.797 68.4263 211.947 68.3843 212.133 68.3843C212.292 68.3843 212.418 68.4216 212.511 68.4963C212.605 68.571 212.693 68.7016 212.777 68.8883L214.975 74.3063H214.583L216.823 68.8883C216.898 68.7016 216.987 68.571 217.089 68.4963C217.192 68.4216 217.332 68.3843 217.509 68.3843C217.668 68.3843 217.789 68.4263 217.873 68.5103C217.967 68.5943 218.023 68.7016 218.041 68.8323C218.06 68.963 218.032 69.103 217.957 69.2523L214.429 77.4143C214.336 77.6103 214.238 77.741 214.135 77.8063C214.042 77.881 213.907 77.9183 213.729 77.9183ZM222.182 75.4263C221.51 75.4263 220.927 75.2816 220.432 74.9923C219.938 74.703 219.555 74.2923 219.284 73.7603C219.014 73.2283 218.878 72.603 218.878 71.8843C218.878 71.343 218.953 70.8576 219.102 70.4283C219.261 69.9896 219.485 69.6163 219.774 69.3083C220.064 69.0003 220.409 68.767 220.81 68.6083C221.221 68.4403 221.678 68.3563 222.182 68.3563C222.854 68.3563 223.438 68.501 223.932 68.7903C224.427 69.0796 224.81 69.4903 225.08 70.0223C225.351 70.545 225.486 71.1656 225.486 71.8843C225.486 72.4256 225.407 72.9156 225.248 73.3543C225.099 73.793 224.88 74.1663 224.59 74.4743C224.301 74.7823 223.951 75.0203 223.54 75.1883C223.139 75.347 222.686 75.4263 222.182 75.4263ZM222.182 74.4183C222.593 74.4183 222.948 74.3203 223.246 74.1243C223.554 73.9283 223.788 73.6436 223.946 73.2703C224.114 72.897 224.198 72.435 224.198 71.8843C224.198 71.063 224.016 70.4376 223.652 70.0083C223.288 69.579 222.798 69.3643 222.182 69.3643C221.781 69.3643 221.426 69.4623 221.118 69.6583C220.82 69.845 220.586 70.125 220.418 70.4983C220.25 70.8716 220.166 71.3336 220.166 71.8843C220.166 72.7056 220.348 73.3356 220.712 73.7743C221.086 74.2036 221.576 74.4183 222.182 74.4183ZM229.554 75.4263C229.004 75.4263 228.542 75.3236 228.168 75.1183C227.804 74.913 227.534 74.6096 227.356 74.2083C227.179 73.807 227.09 73.303 227.09 72.6963V69.0283C227.09 68.8136 227.142 68.655 227.244 68.5523C227.356 68.4403 227.515 68.3843 227.72 68.3843C227.926 68.3843 228.084 68.4403 228.196 68.5523C228.308 68.655 228.364 68.8136 228.364 69.0283V72.6963C228.364 73.275 228.481 73.7043 228.714 73.9843C228.948 74.255 229.316 74.3903 229.82 74.3903C230.38 74.3903 230.833 74.2036 231.178 73.8303C231.533 73.457 231.71 72.9623 231.71 72.3463V69.0283C231.71 68.8136 231.762 68.655 231.864 68.5523C231.976 68.4403 232.135 68.3843 232.34 68.3843C232.546 68.3843 232.704 68.4403 232.816 68.5523C232.928 68.655 232.984 68.8136 232.984 69.0283V74.7403C232.984 75.179 232.779 75.3983 232.368 75.3983C232.163 75.3983 232.004 75.3423 231.892 75.2303C231.79 75.1183 231.738 74.955 231.738 74.7403V73.5223L231.92 73.7603C231.734 74.3016 231.43 74.717 231.01 75.0063C230.6 75.2863 230.114 75.4263 229.554 75.4263ZM235.692 75.3983C235.478 75.3983 235.314 75.3423 235.202 75.2303C235.09 75.1183 235.034 74.955 235.034 74.7403V69.0283C235.034 68.8136 235.09 68.655 235.202 68.5523C235.314 68.4403 235.468 68.3843 235.664 68.3843C235.86 68.3843 236.01 68.4403 236.112 68.5523C236.224 68.655 236.28 68.8136 236.28 69.0283V70.1063H236.14C236.29 69.5463 236.57 69.1216 236.98 68.8323C237.391 68.543 237.909 68.3796 238.534 68.3423C238.684 68.333 238.805 68.3703 238.898 68.4543C238.992 68.529 239.043 68.6596 239.052 68.8463C239.062 69.0236 239.02 69.1683 238.926 69.2803C238.833 69.383 238.688 69.4436 238.492 69.4623L238.24 69.4763C237.624 69.5416 237.148 69.7423 236.812 70.0783C236.486 70.4143 236.322 70.8763 236.322 71.4643V74.7403C236.322 74.955 236.266 75.1183 236.154 75.2303C236.052 75.3423 235.898 75.3983 235.692 75.3983ZM246.15 75.4263C245.73 75.4263 245.305 75.3796 244.876 75.2863C244.456 75.1836 244.059 75.011 243.686 74.7683C243.583 74.703 243.509 74.6236 243.462 74.5303C243.425 74.4276 243.411 74.3296 243.42 74.2363C243.439 74.1336 243.481 74.045 243.546 73.9703C243.611 73.8956 243.691 73.8536 243.784 73.8443C243.887 73.8256 243.994 73.849 244.106 73.9143C244.47 74.1196 244.82 74.2643 245.156 74.3483C245.501 74.4323 245.842 74.4743 246.178 74.4743C246.691 74.4743 247.079 74.381 247.34 74.1943C247.601 74.0076 247.732 73.7603 247.732 73.4523C247.732 73.191 247.643 72.9903 247.466 72.8503C247.298 72.701 247.032 72.589 246.668 72.5143L245.366 72.2483C244.787 72.1176 244.349 71.903 244.05 71.6043C243.761 71.2963 243.616 70.9043 243.616 70.4283C243.616 70.0083 243.728 69.6443 243.952 69.3363C244.185 69.019 244.507 68.7763 244.918 68.6083C245.329 68.4403 245.8 68.3563 246.332 68.3563C246.743 68.3563 247.13 68.4123 247.494 68.5243C247.867 68.627 248.203 68.7856 248.502 69.0003C248.614 69.0656 248.684 69.1496 248.712 69.2523C248.749 69.3456 248.754 69.4436 248.726 69.5463C248.707 69.6396 248.665 69.719 248.6 69.7843C248.535 69.8496 248.451 69.8916 248.348 69.9103C248.245 69.9196 248.133 69.8916 248.012 69.8263C247.741 69.6396 247.461 69.509 247.172 69.4343C246.892 69.3503 246.612 69.3083 246.332 69.3083C245.828 69.3083 245.445 69.4063 245.184 69.6023C244.932 69.7983 244.806 70.055 244.806 70.3723C244.806 70.615 244.881 70.8156 245.03 70.9743C245.189 71.133 245.436 71.2496 245.772 71.3243L247.074 71.5903C247.681 71.721 248.138 71.931 248.446 72.2203C248.754 72.5003 248.908 72.883 248.908 73.3683C248.908 74.003 248.656 74.507 248.152 74.8803C247.657 75.2443 246.99 75.4263 246.15 75.4263ZM251.196 77.9183C251 77.9183 250.846 77.8623 250.734 77.7503C250.622 77.6383 250.566 77.4796 250.566 77.2743V69.0283C250.566 68.8136 250.622 68.655 250.734 68.5523C250.846 68.4403 251 68.3843 251.196 68.3843C251.401 68.3843 251.555 68.4403 251.658 68.5523C251.77 68.655 251.826 68.8136 251.826 69.0283V70.3023L251.672 70.0503C251.821 69.537 252.115 69.1263 252.554 68.8183C252.992 68.5103 253.52 68.3563 254.136 68.3563C254.742 68.3563 255.27 68.501 255.718 68.7903C256.166 69.0703 256.516 69.4763 256.768 70.0083C257.02 70.531 257.146 71.1563 257.146 71.8843C257.146 72.603 257.02 73.233 256.768 73.7743C256.525 74.3063 256.175 74.717 255.718 75.0063C255.27 75.2863 254.742 75.4263 254.136 75.4263C253.529 75.4263 253.006 75.2723 252.568 74.9643C252.129 74.6563 251.835 74.2503 251.686 73.7463H251.84V77.2743C251.84 77.4796 251.784 77.6383 251.672 77.7503C251.56 77.8623 251.401 77.9183 251.196 77.9183ZM253.842 74.4183C254.243 74.4183 254.593 74.3203 254.892 74.1243C255.2 73.9283 255.438 73.6436 255.606 73.2703C255.774 72.897 255.858 72.435 255.858 71.8843C255.858 71.063 255.676 70.4376 255.312 70.0083C254.948 69.579 254.458 69.3643 253.842 69.3643C253.431 69.3643 253.072 69.4623 252.764 69.6583C252.465 69.845 252.232 70.125 252.064 70.4983C251.905 70.8716 251.826 71.3336 251.826 71.8843C251.826 72.7056 252.008 73.3356 252.372 73.7743C252.736 74.2036 253.226 74.4183 253.842 74.4183ZM261.932 75.4263C261.195 75.4263 260.56 75.2863 260.028 75.0063C259.506 74.717 259.1 74.311 258.81 73.7883C258.521 73.2563 258.376 72.631 258.376 71.9123C258.376 71.203 258.516 70.5823 258.796 70.0503C259.086 69.5183 259.478 69.103 259.972 68.8043C260.476 68.5056 261.05 68.3563 261.694 68.3563C262.152 68.3563 262.562 68.4356 262.926 68.5943C263.3 68.7436 263.617 68.963 263.878 69.2523C264.14 69.5416 264.336 69.8963 264.466 70.3163C264.606 70.727 264.676 71.1936 264.676 71.7163C264.676 71.8656 264.63 71.9823 264.536 72.0663C264.452 72.141 264.326 72.1783 264.158 72.1783H259.37V71.3663H263.836L263.598 71.5623C263.598 71.077 263.524 70.6663 263.374 70.3303C263.234 69.985 263.024 69.7236 262.744 69.5463C262.474 69.369 262.133 69.2803 261.722 69.2803C261.274 69.2803 260.892 69.3876 260.574 69.6023C260.257 69.8076 260.014 70.1016 259.846 70.4843C259.678 70.8576 259.594 71.2916 259.594 71.7863V71.8703C259.594 72.7103 259.795 73.345 260.196 73.7743C260.598 74.2036 261.176 74.4183 261.932 74.4183C262.231 74.4183 262.534 74.381 262.842 74.3063C263.16 74.2316 263.463 74.0963 263.752 73.9003C263.892 73.8163 264.018 73.779 264.13 73.7883C264.252 73.7883 264.35 73.8256 264.424 73.9003C264.499 73.9656 264.546 74.0496 264.564 74.1523C264.583 74.2456 264.569 74.3483 264.522 74.4603C264.476 74.5723 264.387 74.6703 264.256 74.7543C263.948 74.969 263.58 75.137 263.15 75.2583C262.73 75.3703 262.324 75.4263 261.932 75.4263ZM269.215 75.4263C268.524 75.4263 267.927 75.2816 267.423 74.9923C266.919 74.6936 266.532 74.2783 266.261 73.7463C265.99 73.205 265.855 72.5703 265.855 71.8423C265.855 71.301 265.93 70.8156 266.079 70.3863C266.238 69.957 266.462 69.593 266.751 69.2943C267.04 68.9863 267.39 68.753 267.801 68.5943C268.221 68.4356 268.692 68.3563 269.215 68.3563C269.542 68.3563 269.887 68.4076 270.251 68.5103C270.615 68.613 270.951 68.781 271.259 69.0143C271.362 69.089 271.427 69.1776 271.455 69.2803C271.483 69.3736 271.483 69.4716 271.455 69.5743C271.436 69.677 271.39 69.7656 271.315 69.8403C271.25 69.9056 271.161 69.943 271.049 69.9523C270.946 69.9616 270.834 69.929 270.713 69.8543C270.489 69.6863 270.251 69.565 269.999 69.4903C269.756 69.4156 269.523 69.3783 269.299 69.3783C268.954 69.3783 268.646 69.4343 268.375 69.5463C268.114 69.6583 267.89 69.8216 267.703 70.0363C267.526 70.2416 267.39 70.4983 267.297 70.8063C267.204 71.105 267.157 71.455 267.157 71.8563C267.157 72.6496 267.344 73.275 267.717 73.7323C268.09 74.1803 268.618 74.4043 269.299 74.4043C269.523 74.4043 269.756 74.3716 269.999 74.3063C270.242 74.2316 270.48 74.1103 270.713 73.9423C270.834 73.8676 270.946 73.8396 271.049 73.8583C271.152 73.8676 271.236 73.9096 271.301 73.9843C271.376 74.0496 271.422 74.1336 271.441 74.2363C271.46 74.3296 271.45 74.4276 271.413 74.5303C271.385 74.633 271.32 74.717 271.217 74.7823C270.918 75.0063 270.592 75.1696 270.237 75.2723C269.882 75.375 269.542 75.4263 269.215 75.4263ZM273.399 75.3703C273.203 75.3703 273.049 75.3096 272.937 75.1883C272.825 75.067 272.769 74.899 272.769 74.6843V69.0983C272.769 68.8743 272.825 68.7063 272.937 68.5943C273.049 68.473 273.203 68.4123 273.399 68.4123C273.604 68.4123 273.763 68.473 273.875 68.5943C273.987 68.7063 274.043 68.8743 274.043 69.0983V74.6843C274.043 74.899 273.987 75.067 273.875 75.1883C273.772 75.3096 273.613 75.3703 273.399 75.3703ZM273.399 66.9003C273.147 66.9003 272.946 66.835 272.797 66.7043C272.657 66.5643 272.587 66.3823 272.587 66.1583C272.587 65.9156 272.657 65.7336 272.797 65.6123C272.946 65.4816 273.147 65.4163 273.399 65.4163C273.669 65.4163 273.87 65.4816 274.001 65.6123C274.141 65.7336 274.211 65.9156 274.211 66.1583C274.211 66.3823 274.141 66.5643 274.001 66.7043C273.87 66.835 273.669 66.9003 273.399 66.9003ZM277.127 75.3983C276.922 75.3983 276.763 75.3423 276.651 75.2303C276.539 75.1183 276.483 74.955 276.483 74.7403V69.4623H275.643C275.475 69.4623 275.344 69.4203 275.251 69.3363C275.158 69.243 275.111 69.1216 275.111 68.9723C275.111 68.8136 275.158 68.6923 275.251 68.6083C275.344 68.5243 275.475 68.4823 275.643 68.4823H276.833L276.483 68.8183V68.3003C276.483 67.4043 276.698 66.723 277.127 66.2563C277.566 65.7896 278.214 65.5143 279.073 65.4303L279.479 65.4023C279.638 65.3836 279.764 65.407 279.857 65.4723C279.95 65.5283 280.011 65.603 280.039 65.6963C280.076 65.7896 280.081 65.8876 280.053 65.9903C280.034 66.093 279.992 66.1816 279.927 66.2563C279.862 66.331 279.778 66.3683 279.675 66.3683L279.283 66.3963C278.751 66.4336 278.364 66.597 278.121 66.8863C277.878 67.1756 277.757 67.591 277.757 68.1323V68.6923L277.575 68.4823H281.397C281.602 68.4823 281.756 68.543 281.859 68.6643C281.971 68.7763 282.027 68.9443 282.027 69.1683V74.6843C282.027 74.899 281.976 75.067 281.873 75.1883C281.77 75.3096 281.612 75.3703 281.397 75.3703C281.192 75.3703 281.033 75.3096 280.921 75.1883C280.809 75.067 280.753 74.899 280.753 74.6843V69.4623H277.757V74.7403C277.757 75.179 277.547 75.3983 277.127 75.3983ZM281.411 66.9003C281.168 66.9003 280.977 66.835 280.837 66.7043C280.697 66.5643 280.627 66.3823 280.627 66.1583C280.627 65.9156 280.697 65.7336 280.837 65.6123C280.977 65.4816 281.168 65.4163 281.411 65.4163C281.672 65.4163 281.868 65.4816 281.999 65.6123C282.139 65.7336 282.209 65.9156 282.209 66.1583C282.209 66.3823 282.139 66.5643 281.999 66.7043C281.868 66.835 281.672 66.9003 281.411 66.9003ZM287.029 75.4263C286.339 75.4263 285.741 75.2816 285.237 74.9923C284.733 74.6936 284.346 74.2783 284.075 73.7463C283.805 73.205 283.669 72.5703 283.669 71.8423C283.669 71.301 283.744 70.8156 283.893 70.3863C284.052 69.957 284.276 69.593 284.565 69.2943C284.855 68.9863 285.205 68.753 285.615 68.5943C286.035 68.4356 286.507 68.3563 287.029 68.3563C287.356 68.3563 287.701 68.4076 288.065 68.5103C288.429 68.613 288.765 68.781 289.073 69.0143C289.176 69.089 289.241 69.1776 289.269 69.2803C289.297 69.3736 289.297 69.4716 289.269 69.5743C289.251 69.677 289.204 69.7656 289.129 69.8403C289.064 69.9056 288.975 69.943 288.863 69.9523C288.761 69.9616 288.649 69.929 288.527 69.8543C288.303 69.6863 288.065 69.565 287.813 69.4903C287.571 69.4156 287.337 69.3783 287.113 69.3783C286.768 69.3783 286.46 69.4343 286.189 69.5463C285.928 69.6583 285.704 69.8216 285.517 70.0363C285.34 70.2416 285.205 70.4983 285.111 70.8063C285.018 71.105 284.971 71.455 284.971 71.8563C284.971 72.6496 285.158 73.275 285.531 73.7323C285.905 74.1803 286.432 74.4043 287.113 74.4043C287.337 74.4043 287.571 74.3716 287.813 74.3063C288.056 74.2316 288.294 74.1103 288.527 73.9423C288.649 73.8676 288.761 73.8396 288.863 73.8583C288.966 73.8676 289.05 73.9096 289.115 73.9843C289.19 74.0496 289.237 74.1336 289.255 74.2363C289.274 74.3296 289.265 74.4276 289.227 74.5303C289.199 74.633 289.134 74.717 289.031 74.7823C288.733 75.0063 288.406 75.1696 288.051 75.2723C287.697 75.375 287.356 75.4263 287.029 75.4263ZM46.9637 96.4263C46.2917 96.4263 45.7084 96.2816 45.2137 95.9923C44.719 95.703 44.3364 95.2923 44.0657 94.7603C43.795 94.2283 43.6597 93.603 43.6597 92.8843C43.6597 92.343 43.7344 91.8576 43.8837 91.4283C44.0424 90.9896 44.2664 90.6163 44.5557 90.3083C44.845 90.0003 45.1904 89.767 45.5917 89.6083C46.0024 89.4403 46.4597 89.3563 46.9637 89.3563C47.6357 89.3563 48.219 89.501 48.7137 89.7903C49.2084 90.0796 49.591 90.4903 49.8617 91.0223C50.1324 91.545 50.2677 92.1656 50.2677 92.8843C50.2677 93.4256 50.1884 93.9156 50.0297 94.3543C49.8804 94.793 49.661 95.1663 49.3717 95.4743C49.0824 95.7823 48.7324 96.0203 48.3217 96.1883C47.9204 96.347 47.4677 96.4263 46.9637 96.4263ZM46.9637 95.4183C47.3744 95.4183 47.729 95.3203 48.0277 95.1243C48.3357 94.9283 48.569 94.6436 48.7277 94.2703C48.8957 93.897 48.9797 93.435 48.9797 92.8843C48.9797 92.063 48.7977 91.4376 48.4337 91.0083C48.0697 90.579 47.5797 90.3643 46.9637 90.3643C46.5624 90.3643 46.2077 90.4623 45.8997 90.6583C45.601 90.845 45.3677 91.125 45.1997 91.4983C45.0317 91.8716 44.9477 92.3336 44.9477 92.8843C44.9477 93.7056 45.1297 94.3356 45.4937 94.7743C45.867 95.2036 46.357 95.4183 46.9637 95.4183ZM52.5577 96.3983C52.343 96.3983 52.1797 96.3423 52.0677 96.2303C51.9557 96.1183 51.8997 95.955 51.8997 95.7403V90.0283C51.8997 89.8136 51.9557 89.655 52.0677 89.5523C52.1797 89.4403 52.3337 89.3843 52.5297 89.3843C52.7257 89.3843 52.875 89.4403 52.9777 89.5523C53.0897 89.655 53.1457 89.8136 53.1457 90.0283V91.1063H53.0057C53.155 90.5463 53.435 90.1216 53.8457 89.8323C54.2564 89.543 54.7744 89.3796 55.3997 89.3423C55.549 89.333 55.6704 89.3703 55.7637 89.4543C55.857 89.529 55.9084 89.6596 55.9177 89.8463C55.927 90.0236 55.885 90.1683 55.7917 90.2803C55.6984 90.383 55.5537 90.4436 55.3577 90.4623L55.1057 90.4763C54.4897 90.5416 54.0137 90.7423 53.6777 91.0783C53.351 91.4143 53.1877 91.8763 53.1877 92.4643V95.7403C53.1877 95.955 53.1317 96.1183 53.0197 96.2303C52.917 96.3423 52.763 96.3983 52.5577 96.3983ZM59.9833 98.9463C59.4793 98.9463 58.9893 98.8903 58.5133 98.7783C58.0466 98.6663 57.6219 98.4936 57.2393 98.2603C57.1179 98.1856 57.0339 98.097 56.9873 97.9943C56.9499 97.901 56.9406 97.803 56.9593 97.7003C56.9873 97.5976 57.0339 97.5043 57.0993 97.4203C57.1739 97.3456 57.2579 97.2943 57.3513 97.2663C57.4539 97.2476 57.5566 97.271 57.6593 97.3363C58.0699 97.5696 58.4619 97.7283 58.8353 97.8123C59.2086 97.8963 59.5633 97.9383 59.8993 97.9383C60.5619 97.9383 61.0566 97.7656 61.3833 97.4203C61.7193 97.0843 61.8873 96.5896 61.8873 95.9363V94.4243H62.0133C61.8826 94.947 61.5886 95.3623 61.1313 95.6703C60.6833 95.9783 60.1606 96.1323 59.5633 96.1323C58.9473 96.1323 58.4106 95.9923 57.9533 95.7123C57.4959 95.423 57.1413 95.0263 56.8893 94.5223C56.6373 94.009 56.5113 93.4163 56.5113 92.7443C56.5113 92.231 56.5813 91.769 56.7213 91.3583C56.8706 90.9383 57.0759 90.5836 57.3373 90.2943C57.6079 89.9956 57.9299 89.767 58.3033 89.6083C58.6766 89.4403 59.0966 89.3563 59.5633 89.3563C60.1699 89.3563 60.6973 89.5103 61.1453 89.8183C61.5933 90.1263 61.8826 90.5416 62.0133 91.0643L61.8593 91.2603V90.0283C61.8593 89.8136 61.9153 89.655 62.0273 89.5523C62.1393 89.4403 62.2979 89.3843 62.5033 89.3843C62.6993 89.3843 62.8533 89.4403 62.9653 89.5523C63.0773 89.655 63.1333 89.8136 63.1333 90.0283V95.7683C63.1333 96.823 62.8626 97.6163 62.3213 98.1483C61.7893 98.6803 61.0099 98.9463 59.9833 98.9463ZM59.8433 95.1243C60.2633 95.1243 60.6226 95.031 60.9213 94.8443C61.2293 94.6483 61.4626 94.373 61.6213 94.0183C61.7893 93.6543 61.8733 93.2296 61.8733 92.7443C61.8733 92.007 61.6913 91.4283 61.3273 91.0083C60.9633 90.579 60.4686 90.3643 59.8433 90.3643C59.4233 90.3643 59.0593 90.4623 58.7513 90.6583C58.4526 90.845 58.2193 91.1156 58.0513 91.4703C57.8833 91.825 57.7993 92.2496 57.7993 92.7443C57.7993 93.4723 57.9813 94.051 58.3453 94.4803C58.7186 94.9096 59.2179 95.1243 59.8433 95.1243ZM67.3451 96.4263C66.8784 96.4263 66.4537 96.333 66.0711 96.1463C65.6977 95.9596 65.4037 95.7076 65.1891 95.3903C64.9837 95.073 64.8811 94.7183 64.8811 94.3263C64.8811 93.8223 65.0071 93.4256 65.2591 93.1363C65.5111 92.847 65.9357 92.6416 66.5331 92.5203C67.1304 92.3896 67.9331 92.3243 68.9411 92.3243H69.5991V93.1363H68.9691C68.2504 93.1363 67.6811 93.169 67.2611 93.2343C66.8504 93.2996 66.5611 93.4163 66.3931 93.5843C66.2251 93.743 66.1411 93.967 66.1411 94.2563C66.1411 94.6203 66.2671 94.919 66.5191 95.1523C66.7804 95.3856 67.1351 95.5023 67.5831 95.5023C67.9377 95.5023 68.2504 95.4183 68.5211 95.2503C68.7917 95.073 69.0064 94.8396 69.1651 94.5503C69.3237 94.2516 69.4031 93.911 69.4031 93.5283V91.9183C69.4031 91.3676 69.2911 90.971 69.0671 90.7283C68.8431 90.4763 68.4651 90.3503 67.9331 90.3503C67.6251 90.3503 67.3077 90.3923 66.9811 90.4763C66.6544 90.5603 66.3137 90.691 65.9591 90.8683C65.8191 90.9336 65.6977 90.957 65.5951 90.9383C65.4924 90.9103 65.4084 90.8543 65.3431 90.7703C65.2871 90.677 65.2544 90.579 65.2451 90.4763C65.2451 90.3643 65.2684 90.257 65.3151 90.1543C65.3711 90.0516 65.4644 89.977 65.5951 89.9303C66.0057 89.725 66.4117 89.5803 66.8131 89.4963C67.2237 89.403 67.6064 89.3563 67.9611 89.3563C68.5677 89.3563 69.0671 89.4543 69.4591 89.6503C69.8511 89.837 70.1451 90.131 70.3411 90.5323C70.5371 90.9243 70.6351 91.4283 70.6351 92.0443V95.7403C70.6351 95.955 70.5837 96.1183 70.4811 96.2303C70.3784 96.3423 70.2291 96.3983 70.0331 96.3983C69.8464 96.3983 69.6971 96.3423 69.5851 96.2303C69.4824 96.1183 69.4311 95.955 69.4311 95.7403V94.7463H69.5571C69.4824 95.0916 69.3424 95.3903 69.1371 95.6423C68.9317 95.8943 68.6751 96.0903 68.3671 96.2303C68.0684 96.361 67.7277 96.4263 67.3451 96.4263ZM73.2699 96.3983C73.0739 96.3983 72.9199 96.3423 72.8079 96.2303C72.6959 96.1183 72.6399 95.955 72.6399 95.7403V90.0283C72.6399 89.8136 72.6959 89.655 72.8079 89.5523C72.9199 89.4403 73.0739 89.3843 73.2699 89.3843C73.4659 89.3843 73.6153 89.4403 73.7179 89.5523C73.8299 89.655 73.8859 89.8136 73.8859 90.0283V91.1763L73.7319 90.9663C73.9279 90.4343 74.2453 90.033 74.6839 89.7623C75.1319 89.4916 75.6406 89.3563 76.2099 89.3563C76.7606 89.3563 77.2133 89.4543 77.5679 89.6503C77.9226 89.8463 78.1886 90.145 78.3659 90.5463C78.5433 90.9476 78.6319 91.4563 78.6319 92.0723V95.7403C78.6319 95.955 78.5759 96.1183 78.4639 96.2303C78.3613 96.3423 78.2073 96.3983 78.0019 96.3983C77.7966 96.3983 77.6379 96.3423 77.5259 96.2303C77.4139 96.1183 77.3579 95.955 77.3579 95.7403V92.1423C77.3579 91.5356 77.2413 91.0923 77.0079 90.8123C76.7746 90.5323 76.4013 90.3923 75.8879 90.3923C75.2906 90.3923 74.8099 90.579 74.4459 90.9523C74.0913 91.3163 73.9139 91.811 73.9139 92.4363V95.7403C73.9139 96.179 73.6993 96.3983 73.2699 96.3983ZM81.2816 96.3703C81.0856 96.3703 80.9316 96.3096 80.8196 96.1883C80.7076 96.067 80.6516 95.899 80.6516 95.6843V90.0983C80.6516 89.8743 80.7076 89.7063 80.8196 89.5943C80.9316 89.473 81.0856 89.4123 81.2816 89.4123C81.487 89.4123 81.6456 89.473 81.7576 89.5943C81.8696 89.7063 81.9256 89.8743 81.9256 90.0983V95.6843C81.9256 95.899 81.8696 96.067 81.7576 96.1883C81.655 96.3096 81.4963 96.3703 81.2816 96.3703ZM81.2816 87.9003C81.0296 87.9003 80.829 87.835 80.6796 87.7043C80.5396 87.5643 80.4696 87.3823 80.4696 87.1583C80.4696 86.9156 80.5396 86.7336 80.6796 86.6123C80.829 86.4816 81.0296 86.4163 81.2816 86.4163C81.5523 86.4163 81.753 86.4816 81.8836 86.6123C82.0236 86.7336 82.0936 86.9156 82.0936 87.1583C82.0936 87.3823 82.0236 87.5643 81.8836 87.7043C81.753 87.835 81.5523 87.9003 81.2816 87.9003ZM84.1839 96.3003C84.0439 96.3003 83.9319 96.2676 83.8479 96.2023C83.7639 96.137 83.7032 96.053 83.6659 95.9503C83.6379 95.8476 83.6379 95.7356 83.6659 95.6143C83.7032 95.493 83.7732 95.3716 83.8759 95.2503L87.7539 90.1403V90.4623H84.0999C83.9412 90.4623 83.8152 90.4203 83.7219 90.3363C83.6379 90.243 83.5959 90.1216 83.5959 89.9723C83.5959 89.8136 83.6379 89.6923 83.7219 89.6083C83.8152 89.5243 83.9412 89.4823 84.0999 89.4823H88.3699C88.5286 89.4823 88.6546 89.515 88.7479 89.5803C88.8506 89.6456 88.9159 89.7296 88.9439 89.8323C88.9812 89.935 88.9859 90.047 88.9579 90.1683C88.9299 90.2803 88.8646 90.3923 88.7619 90.5043L84.8279 95.6703V95.3203H88.6639C88.9999 95.3203 89.1679 95.4836 89.1679 95.8103C89.1679 95.9596 89.1212 96.081 89.0279 96.1743C88.9439 96.2583 88.8226 96.3003 88.6639 96.3003H84.1839ZM92.597 96.4263C92.1304 96.4263 91.7057 96.333 91.323 96.1463C90.9497 95.9596 90.6557 95.7076 90.441 95.3903C90.2357 95.073 90.133 94.7183 90.133 94.3263C90.133 93.8223 90.259 93.4256 90.511 93.1363C90.763 92.847 91.1877 92.6416 91.785 92.5203C92.3824 92.3896 93.185 92.3243 94.193 92.3243H94.851V93.1363H94.221C93.5024 93.1363 92.933 93.169 92.513 93.2343C92.1024 93.2996 91.813 93.4163 91.645 93.5843C91.477 93.743 91.393 93.967 91.393 94.2563C91.393 94.6203 91.519 94.919 91.771 95.1523C92.0324 95.3856 92.387 95.5023 92.835 95.5023C93.1897 95.5023 93.5024 95.4183 93.773 95.2503C94.0437 95.073 94.2584 94.8396 94.417 94.5503C94.5757 94.2516 94.655 93.911 94.655 93.5283V91.9183C94.655 91.3676 94.543 90.971 94.319 90.7283C94.095 90.4763 93.717 90.3503 93.185 90.3503C92.877 90.3503 92.5597 90.3923 92.233 90.4763C91.9064 90.5603 91.5657 90.691 91.211 90.8683C91.071 90.9336 90.9497 90.957 90.847 90.9383C90.7444 90.9103 90.6604 90.8543 90.595 90.7703C90.539 90.677 90.5064 90.579 90.497 90.4763C90.497 90.3643 90.5204 90.257 90.567 90.1543C90.623 90.0516 90.7164 89.977 90.847 89.9303C91.2577 89.725 91.6637 89.5803 92.065 89.4963C92.4757 89.403 92.8584 89.3563 93.213 89.3563C93.8197 89.3563 94.319 89.4543 94.711 89.6503C95.103 89.837 95.397 90.131 95.593 90.5323C95.789 90.9243 95.887 91.4283 95.887 92.0443V95.7403C95.887 95.955 95.8357 96.1183 95.733 96.2303C95.6304 96.3423 95.481 96.3983 95.285 96.3983C95.0984 96.3983 94.949 96.3423 94.837 96.2303C94.7344 96.1183 94.683 95.955 94.683 95.7403V94.7463H94.809C94.7344 95.0916 94.5944 95.3903 94.389 95.6423C94.1837 95.8943 93.927 96.0903 93.619 96.2303C93.3204 96.361 92.9797 96.4263 92.597 96.4263ZM100.72 96.4263C100.169 96.4263 99.7072 96.3283 99.3339 96.1323C98.9699 95.9363 98.6945 95.6516 98.5079 95.2783C98.3305 94.905 98.2419 94.4476 98.2419 93.9063V90.4623H97.3459C97.1779 90.4623 97.0472 90.4203 96.9539 90.3363C96.8605 90.243 96.8139 90.1216 96.8139 89.9723C96.8139 89.8136 96.8605 89.6923 96.9539 89.6083C97.0472 89.5243 97.1779 89.4823 97.3459 89.4823H98.2419V87.9563C98.2419 87.7416 98.2979 87.583 98.4099 87.4803C98.5219 87.3683 98.6805 87.3123 98.8859 87.3123C99.0912 87.3123 99.2452 87.3683 99.3479 87.4803C99.4599 87.583 99.5159 87.7416 99.5159 87.9563V89.4823H101.21C101.387 89.4823 101.523 89.5243 101.616 89.6083C101.709 89.6923 101.756 89.8136 101.756 89.9723C101.756 90.1216 101.709 90.243 101.616 90.3363C101.523 90.4203 101.387 90.4623 101.21 90.4623H99.5159V93.7943C99.5159 94.3076 99.6232 94.695 99.8379 94.9563C100.053 95.2176 100.407 95.3483 100.902 95.3483C101.079 95.3483 101.229 95.3343 101.35 95.3063C101.471 95.269 101.579 95.2503 101.672 95.2503C101.756 95.241 101.826 95.269 101.882 95.3343C101.947 95.3996 101.98 95.521 101.98 95.6983C101.98 95.829 101.957 95.9503 101.91 96.0623C101.873 96.165 101.793 96.235 101.672 96.2723C101.56 96.3096 101.411 96.3423 101.224 96.3703C101.037 96.4076 100.869 96.4263 100.72 96.4263ZM103.649 96.3703C103.453 96.3703 103.299 96.3096 103.187 96.1883C103.075 96.067 103.019 95.899 103.019 95.6843V90.0983C103.019 89.8743 103.075 89.7063 103.187 89.5943C103.299 89.473 103.453 89.4123 103.649 89.4123C103.854 89.4123 104.013 89.473 104.125 89.5943C104.237 89.7063 104.293 89.8743 104.293 90.0983V95.6843C104.293 95.899 104.237 96.067 104.125 96.1883C104.022 96.3096 103.863 96.3703 103.649 96.3703ZM103.649 87.9003C103.397 87.9003 103.196 87.835 103.047 87.7043C102.907 87.5643 102.837 87.3823 102.837 87.1583C102.837 86.9156 102.907 86.7336 103.047 86.6123C103.196 86.4816 103.397 86.4163 103.649 86.4163C103.919 86.4163 104.12 86.4816 104.251 86.6123C104.391 86.7336 104.461 86.9156 104.461 87.1583C104.461 87.3823 104.391 87.5643 104.251 87.7043C104.12 87.835 103.919 87.9003 103.649 87.9003ZM109.239 96.4263C108.567 96.4263 107.984 96.2816 107.489 95.9923C106.994 95.703 106.612 95.2923 106.341 94.7603C106.07 94.2283 105.935 93.603 105.935 92.8843C105.935 92.343 106.01 91.8576 106.159 91.4283C106.318 90.9896 106.542 90.6163 106.831 90.3083C107.12 90.0003 107.466 89.767 107.867 89.6083C108.278 89.4403 108.735 89.3563 109.239 89.3563C109.911 89.3563 110.494 89.501 110.989 89.7903C111.484 90.0796 111.866 90.4903 112.137 91.0223C112.408 91.545 112.543 92.1656 112.543 92.8843C112.543 93.4256 112.464 93.9156 112.305 94.3543C112.156 94.793 111.936 95.1663 111.647 95.4743C111.358 95.7823 111.008 96.0203 110.597 96.1883C110.196 96.347 109.743 96.4263 109.239 96.4263ZM109.239 95.4183C109.65 95.4183 110.004 95.3203 110.303 95.1243C110.611 94.9283 110.844 94.6436 111.003 94.2703C111.171 93.897 111.255 93.435 111.255 92.8843C111.255 92.063 111.073 91.4376 110.709 91.0083C110.345 90.579 109.855 90.3643 109.239 90.3643C108.838 90.3643 108.483 90.4623 108.175 90.6583C107.876 90.845 107.643 91.125 107.475 91.4983C107.307 91.8716 107.223 92.3336 107.223 92.8843C107.223 93.7056 107.405 94.3356 107.769 94.7743C108.142 95.2036 108.632 95.4183 109.239 95.4183ZM114.805 96.3983C114.609 96.3983 114.455 96.3423 114.343 96.2303C114.231 96.1183 114.175 95.955 114.175 95.7403V90.0283C114.175 89.8136 114.231 89.655 114.343 89.5523C114.455 89.4403 114.609 89.3843 114.805 89.3843C115.001 89.3843 115.15 89.4403 115.253 89.5523C115.365 89.655 115.421 89.8136 115.421 90.0283V91.1763L115.267 90.9663C115.463 90.4343 115.78 90.033 116.219 89.7623C116.667 89.4916 117.176 89.3563 117.745 89.3563C118.296 89.3563 118.748 89.4543 119.103 89.6503C119.458 89.8463 119.724 90.145 119.901 90.5463C120.078 90.9476 120.167 91.4563 120.167 92.0723V95.7403C120.167 95.955 120.111 96.1183 119.999 96.2303C119.896 96.3423 119.742 96.3983 119.537 96.3983C119.332 96.3983 119.173 96.3423 119.061 96.2303C118.949 96.1183 118.893 95.955 118.893 95.7403V92.1423C118.893 91.5356 118.776 91.0923 118.543 90.8123C118.31 90.5323 117.936 90.3923 117.423 90.3923C116.826 90.3923 116.345 90.579 115.981 90.9523C115.626 91.3163 115.449 91.811 115.449 92.4363V95.7403C115.449 96.179 115.234 96.3983 114.805 96.3983ZM124.357 96.4263C123.89 96.4263 123.465 96.333 123.083 96.1463C122.709 95.9596 122.415 95.7076 122.201 95.3903C121.995 95.073 121.893 94.7183 121.893 94.3263C121.893 93.8223 122.019 93.4256 122.271 93.1363C122.523 92.847 122.947 92.6416 123.545 92.5203C124.142 92.3896 124.945 92.3243 125.953 92.3243H126.611V93.1363H125.981C125.262 93.1363 124.693 93.169 124.273 93.2343C123.862 93.2996 123.573 93.4163 123.405 93.5843C123.237 93.743 123.153 93.967 123.153 94.2563C123.153 94.6203 123.279 94.919 123.531 95.1523C123.792 95.3856 124.147 95.5023 124.595 95.5023C124.949 95.5023 125.262 95.4183 125.533 95.2503C125.803 95.073 126.018 94.8396 126.177 94.5503C126.335 94.2516 126.415 93.911 126.415 93.5283V91.9183C126.415 91.3676 126.303 90.971 126.079 90.7283C125.855 90.4763 125.477 90.3503 124.945 90.3503C124.637 90.3503 124.319 90.3923 123.993 90.4763C123.666 90.5603 123.325 90.691 122.971 90.8683C122.831 90.9336 122.709 90.957 122.607 90.9383C122.504 90.9103 122.42 90.8543 122.355 90.7703C122.299 90.677 122.266 90.579 122.257 90.4763C122.257 90.3643 122.28 90.257 122.327 90.1543C122.383 90.0516 122.476 89.977 122.607 89.9303C123.017 89.725 123.423 89.5803 123.825 89.4963C124.235 89.403 124.618 89.3563 124.973 89.3563C125.579 89.3563 126.079 89.4543 126.471 89.6503C126.863 89.837 127.157 90.131 127.353 90.5323C127.549 90.9243 127.647 91.4283 127.647 92.0443V95.7403C127.647 95.955 127.595 96.1183 127.493 96.2303C127.39 96.3423 127.241 96.3983 127.045 96.3983C126.858 96.3983 126.709 96.3423 126.597 96.2303C126.494 96.1183 126.443 95.955 126.443 95.7403V94.7463H126.569C126.494 95.0916 126.354 95.3903 126.149 95.6423C125.943 95.8943 125.687 96.0903 125.379 96.2303C125.08 96.361 124.739 96.4263 124.357 96.4263ZM131.794 96.4263C131.094 96.4263 130.562 96.221 130.198 95.8103C129.834 95.3903 129.652 94.7883 129.652 94.0043V86.9763C129.652 86.7616 129.708 86.603 129.82 86.5003C129.932 86.3883 130.086 86.3323 130.282 86.3323C130.487 86.3323 130.646 86.3883 130.758 86.5003C130.87 86.603 130.926 86.7616 130.926 86.9763V93.9063C130.926 94.3916 131.024 94.7556 131.22 94.9983C131.425 95.2316 131.714 95.3483 132.088 95.3483C132.172 95.3483 132.246 95.3483 132.312 95.3483C132.377 95.339 132.442 95.3296 132.508 95.3203C132.61 95.311 132.685 95.339 132.732 95.4043C132.778 95.4696 132.802 95.6003 132.802 95.7963C132.802 95.9736 132.76 96.1136 132.676 96.2163C132.601 96.3096 132.475 96.3703 132.298 96.3983C132.214 96.4076 132.13 96.4123 132.046 96.4123C131.962 96.4216 131.878 96.4263 131.794 96.4263ZM138.143 96.3983C137.947 96.3983 137.793 96.3423 137.681 96.2303C137.569 96.1183 137.513 95.955 137.513 95.7403V90.0283C137.513 89.8136 137.569 89.655 137.681 89.5523C137.793 89.4403 137.947 89.3843 138.143 89.3843C138.339 89.3843 138.488 89.4403 138.591 89.5523C138.703 89.655 138.759 89.8136 138.759 90.0283V91.1763L138.605 90.9663C138.801 90.4343 139.118 90.033 139.557 89.7623C140.005 89.4916 140.514 89.3563 141.083 89.3563C141.634 89.3563 142.086 89.4543 142.441 89.6503C142.796 89.8463 143.062 90.145 143.239 90.5463C143.416 90.9476 143.505 91.4563 143.505 92.0723V95.7403C143.505 95.955 143.449 96.1183 143.337 96.2303C143.234 96.3423 143.08 96.3983 142.875 96.3983C142.67 96.3983 142.511 96.3423 142.399 96.2303C142.287 96.1183 142.231 95.955 142.231 95.7403V92.1423C142.231 91.5356 142.114 91.0923 141.881 90.8123C141.648 90.5323 141.274 90.3923 140.761 90.3923C140.164 90.3923 139.683 90.579 139.319 90.9523C138.964 91.3163 138.787 91.811 138.787 92.4363V95.7403C138.787 96.179 138.572 96.3983 138.143 96.3983ZM148.675 96.4263C147.937 96.4263 147.303 96.2863 146.771 96.0063C146.248 95.717 145.842 95.311 145.553 94.7883C145.263 94.2563 145.119 93.631 145.119 92.9123C145.119 92.203 145.259 91.5823 145.539 91.0503C145.828 90.5183 146.22 90.103 146.715 89.8043C147.219 89.5056 147.793 89.3563 148.437 89.3563C148.894 89.3563 149.305 89.4356 149.669 89.5943C150.042 89.7436 150.359 89.963 150.621 90.2523C150.882 90.5416 151.078 90.8963 151.209 91.3163C151.349 91.727 151.419 92.1936 151.419 92.7163C151.419 92.8656 151.372 92.9823 151.279 93.0663C151.195 93.141 151.069 93.1783 150.901 93.1783H146.113V92.3663H150.579L150.341 92.5623C150.341 92.077 150.266 91.6663 150.117 91.3303C149.977 90.985 149.767 90.7236 149.487 90.5463C149.216 90.369 148.875 90.2803 148.465 90.2803C148.017 90.2803 147.634 90.3876 147.317 90.6023C146.999 90.8076 146.757 91.1016 146.589 91.4843C146.421 91.8576 146.337 92.2916 146.337 92.7863V92.8703C146.337 93.7103 146.537 94.345 146.939 94.7743C147.34 95.2036 147.919 95.4183 148.675 95.4183C148.973 95.4183 149.277 95.381 149.585 95.3063C149.902 95.2316 150.205 95.0963 150.495 94.9003C150.635 94.8163 150.761 94.779 150.873 94.7883C150.994 94.7883 151.092 94.8256 151.167 94.9003C151.241 94.9656 151.288 95.0496 151.307 95.1523C151.325 95.2456 151.311 95.3483 151.265 95.4603C151.218 95.5723 151.129 95.6703 150.999 95.7543C150.691 95.969 150.322 96.137 149.893 96.2583C149.473 96.3703 149.067 96.4263 148.675 96.4263ZM156.153 96.4263C155.416 96.4263 154.781 96.2863 154.249 96.0063C153.727 95.717 153.321 95.311 153.031 94.7883C152.742 94.2563 152.597 93.631 152.597 92.9123C152.597 92.203 152.737 91.5823 153.017 91.0503C153.307 90.5183 153.699 90.103 154.193 89.8043C154.697 89.5056 155.271 89.3563 155.915 89.3563C156.373 89.3563 156.783 89.4356 157.147 89.5943C157.521 89.7436 157.838 89.963 158.099 90.2523C158.361 90.5416 158.557 90.8963 158.687 91.3163C158.827 91.727 158.897 92.1936 158.897 92.7163C158.897 92.8656 158.851 92.9823 158.757 93.0663C158.673 93.141 158.547 93.1783 158.379 93.1783H153.591V92.3663H158.057L157.819 92.5623C157.819 92.077 157.745 91.6663 157.595 91.3303C157.455 90.985 157.245 90.7236 156.965 90.5463C156.695 90.369 156.354 90.2803 155.943 90.2803C155.495 90.2803 155.113 90.3876 154.795 90.6023C154.478 90.8076 154.235 91.1016 154.067 91.4843C153.899 91.8576 153.815 92.2916 153.815 92.7863V92.8703C153.815 93.7103 154.016 94.345 154.417 94.7743C154.819 95.2036 155.397 95.4183 156.153 95.4183C156.452 95.4183 156.755 95.381 157.063 95.3063C157.381 95.2316 157.684 95.0963 157.973 94.9003C158.113 94.8163 158.239 94.779 158.351 94.7883C158.473 94.7883 158.571 94.8256 158.645 94.9003C158.72 94.9656 158.767 95.0496 158.785 95.1523C158.804 95.2456 158.79 95.3483 158.743 95.4603C158.697 95.5723 158.608 95.6703 158.477 95.7543C158.169 95.969 157.801 96.137 157.371 96.2583C156.951 96.3703 156.545 96.4263 156.153 96.4263ZM163.086 96.4263C162.488 96.4263 161.961 96.2863 161.504 96.0063C161.056 95.717 160.706 95.3063 160.454 94.7743C160.202 94.233 160.076 93.603 160.076 92.8843C160.076 92.1563 160.197 91.531 160.44 91.0083C160.692 90.4763 161.042 90.0703 161.49 89.7903C161.947 89.501 162.479 89.3563 163.086 89.3563C163.692 89.3563 164.215 89.5103 164.654 89.8183C165.092 90.117 165.386 90.5183 165.536 91.0223H165.382V86.9763C165.382 86.7616 165.433 86.603 165.536 86.5003C165.648 86.3883 165.806 86.3323 166.012 86.3323C166.217 86.3323 166.376 86.3883 166.488 86.5003C166.6 86.603 166.656 86.7616 166.656 86.9763V95.7403C166.656 95.955 166.6 96.1183 166.488 96.2303C166.376 96.3423 166.217 96.3983 166.012 96.3983C165.816 96.3983 165.662 96.3423 165.55 96.2303C165.438 96.1183 165.382 95.955 165.382 95.7403V94.4663L165.536 94.7183C165.396 95.241 165.102 95.6563 164.654 95.9643C164.215 96.2723 163.692 96.4263 163.086 96.4263ZM163.38 95.4183C163.79 95.4183 164.145 95.3203 164.444 95.1243C164.752 94.9283 164.985 94.6436 165.144 94.2703C165.312 93.897 165.396 93.435 165.396 92.8843C165.396 92.063 165.214 91.4376 164.85 91.0083C164.486 90.579 163.996 90.3643 163.38 90.3643C162.978 90.3643 162.624 90.4623 162.316 90.6583C162.017 90.845 161.784 91.125 161.616 91.4983C161.448 91.8716 161.364 92.3336 161.364 92.8843C161.364 93.7056 161.546 94.3356 161.91 94.7743C162.283 95.2036 162.773 95.4183 163.38 95.4183ZM171.051 96.4263C170.631 96.4263 170.206 96.3796 169.777 96.2863C169.357 96.1836 168.96 96.011 168.587 95.7683C168.484 95.703 168.409 95.6236 168.363 95.5303C168.325 95.4276 168.311 95.3296 168.321 95.2363C168.339 95.1336 168.381 95.045 168.447 94.9703C168.512 94.8956 168.591 94.8536 168.685 94.8443C168.787 94.8256 168.895 94.849 169.007 94.9143C169.371 95.1196 169.721 95.2643 170.057 95.3483C170.402 95.4323 170.743 95.4743 171.079 95.4743C171.592 95.4743 171.979 95.381 172.241 95.1943C172.502 95.0076 172.633 94.7603 172.633 94.4523C172.633 94.191 172.544 93.9903 172.367 93.8503C172.199 93.701 171.933 93.589 171.569 93.5143L170.267 93.2483C169.688 93.1176 169.249 92.903 168.951 92.6043C168.661 92.2963 168.517 91.9043 168.517 91.4283C168.517 91.0083 168.629 90.6443 168.853 90.3363C169.086 90.019 169.408 89.7763 169.819 89.6083C170.229 89.4403 170.701 89.3563 171.233 89.3563C171.643 89.3563 172.031 89.4123 172.395 89.5243C172.768 89.627 173.104 89.7856 173.403 90.0003C173.515 90.0656 173.585 90.1496 173.613 90.2523C173.65 90.3456 173.655 90.4436 173.627 90.5463C173.608 90.6396 173.566 90.719 173.501 90.7843C173.435 90.8496 173.351 90.8916 173.249 90.9103C173.146 90.9196 173.034 90.8916 172.913 90.8263C172.642 90.6396 172.362 90.509 172.073 90.4343C171.793 90.3503 171.513 90.3083 171.233 90.3083C170.729 90.3083 170.346 90.4063 170.085 90.6023C169.833 90.7983 169.707 91.055 169.707 91.3723C169.707 91.615 169.781 91.8156 169.931 91.9743C170.089 92.133 170.337 92.2496 170.673 92.3243L171.975 92.5903C172.581 92.721 173.039 92.931 173.347 93.2203C173.655 93.5003 173.809 93.883 173.809 94.3683C173.809 95.003 173.557 95.507 173.053 95.8803C172.558 96.2443 171.891 96.4263 171.051 96.4263ZM176.014 96.3563C175.771 96.3563 175.57 96.277 175.412 96.1183C175.253 95.9596 175.174 95.759 175.174 95.5163C175.174 95.2736 175.253 95.0776 175.412 94.9283C175.57 94.779 175.771 94.7043 176.014 94.7043C176.275 94.7043 176.476 94.779 176.616 94.9283C176.765 95.0776 176.84 95.2736 176.84 95.5163C176.84 95.759 176.765 95.9596 176.616 96.1183C176.476 96.277 176.275 96.3563 176.014 96.3563Z" fill="#6C8184"/>
</g>
<defs>
<filter id="filter0_ddii_90_2343" x="0.806641" y="0.503906" width="332.789" height="156.033" filterUnits="userSpaceOnUse" color-interpolation-filters="sRGB">
<feFlood flood-opacity="0" result="BackgroundImageFix"/>
<feColorMatrix in="SourceAlpha" type="matrix" values="0 0 0 0 0 0 0 0 0 0 0 0 0 0 0 0 0 0 127 0" result="hardAlpha"/>
<feOffset dy="4"/>
<feGaussianBlur stdDeviation="2"/>
<feComposite in2="hardAlpha" operator="out"/>
<feColorMatrix type="matrix" values="0 0 0 0 0 0 0 0 0 0 0 0 0 0 0 0 0 0 0.1 0"/>
<feBlend mode="normal" in2="BackgroundImageFix" result="effect1_dropShadow_90_2343"/>
<feColorMatrix in="SourceAlpha" type="matrix" values="0 0 0 0 0 0 0 0 0 0 0 0 0 0 0 0 0 0 127 0" result="hardAlpha"/>
<feMorphology radius="12" operator="erode" in="SourceAlpha" result="effect2_dropShadow_90_2343"/>
<feOffset dy="12"/>
<feGaussianBlur stdDeviation="16"/>
<feComposite in2="hardAlpha" operator="out"/>
<feColorMatrix type="matrix" values="0 0 0 0 0 0 0 0 0 0 0 0 0 0 0 0 0 0 0.1 0"/>
<feBlend mode="normal" in2="effect1_dropShadow_90_2343" result="effect2_dropShadow_90_2343"/>
<feBlend mode="normal" in="SourceGraphic" in2="effect2_dropShadow_90_2343" result="shape"/>
<feColorMatrix in="SourceAlpha" type="matrix" values="0 0 0 0 0 0 0 0 0 0 0 0 0 0 0 0 0 0 127 0" result="hardAlpha"/>
<feOffset dy="6"/>
<feGaussianBlur stdDeviation="6"/>
<feComposite in2="hardAlpha" operator="arithmetic" k2="-1" k3="1"/>
<feColorMatrix type="matrix" values="0 0 0 0 1 0 0 0 0 1 0 0 0 0 1 0 0 0 0.04 0"/>
<feBlend mode="normal" in2="shape" result="effect3_innerShadow_90_2343"/>
<feColorMatrix in="SourceAlpha" type="matrix" values="0 0 0 0 0 0 0 0 0 0 0 0 0 0 0 0 0 0 127 0" result="hardAlpha"/>
<feOffset dy="1"/>
<feGaussianBlur stdDeviation="0.5"/>
<feComposite in2="hardAlpha" operator="arithmetic" k2="-1" k3="1"/>
<feColorMatrix type="matrix" values="0 0 0 0 1 0 0 0 0 1 0 0 0 0 1 0 0 0 0.2 0"/>
<feBlend mode="normal" in2="effect3_innerShadow_90_2343" result="effect4_innerShadow_90_2343"/>
</filter>
</defs>
</svg>
